<svg width="750" height="540" viewBox="0 0 750 540" fill="none" xmlns="http://www.w3.org/2000/svg">
<path d="M714.938 413.963H105.195C85.9095 413.963 70.133 423.527 70.133 435.224C70.133 443.317 77.7001 450.394 88.7576 453.98H35.0619C15.7764 453.98 0 463.544 0 475.24C0 486.928 15.7764 496.501 35.0619 496.501H53.7702C48.5486 500.217 45.3747 505.022 45.3747 510.256V518.758C45.3747 530.445 61.1512 540.019 80.4366 540.019H681.096C700.381 540.019 716.157 530.455 716.157 518.758V510.256C716.157 498.568 700.381 488.995 681.096 488.995L640.254 489.47C643.362 489.47 648.416 487.98 651.804 484.991C657.743 479.748 658.013 471.767 655.109 465.155C653.229 460.871 650.204 457.472 642.729 456.196L714.929 456.485C734.214 456.485 749.991 446.921 749.991 435.224C749.991 423.537 734.214 413.963 714.929 413.963H714.938Z" fill="#008C99" fill-opacity="0.1"/>
<path d="M249.184 125.664L261.265 128.84L312.113 173.354L304.49 197.52H279.694L249.184 125.664Z" fill="#0084CA"/>
<path d="M540.252 144.736L498.945 175.896L463.986 182.257V194.978L515.261 190.89L562.498 166.36L553.6 139.912L540.252 144.736Z" fill="#009CEE"/>
<path d="M595.717 487.328L596.331 493.428L585.264 501.046L578.805 495.691L584.026 488.837L595.093 481.219L595.717 487.328Z" fill="#211E1C"/>
<path d="M595.437 300.657L597.308 319.199L580.713 382.906L596.126 485.279L584.78 489.2L554.865 389.248L550.119 360.174L550.286 298.618L595.437 300.657Z" fill="#0077B6"/>
<path d="M508.178 321.322L532.043 492.86H542.887L544.841 382.906L564.583 305.723L508.178 321.322Z" fill="#0077B6"/>
<path d="M542.821 491.509V497.665L531.094 503.83L525.23 497.665L531.094 491.509H542.821Z" fill="#211E1C"/>
<path d="M594.832 280.039C585.571 219.125 588.876 174.76 588.392 162.579C587.908 150.398 579.363 144.075 579.363 144.075C575.612 143.237 572.354 140.825 568.566 139.875C542.952 133.431 528.981 152.997 519.394 174.099C507.583 200.109 497.651 226.976 489.628 254.392C482.582 278.456 475.527 302.724 472.577 327.701C471.357 338.001 470.343 347.769 481.614 352.314C499.578 359.559 519.766 359.401 538.745 361.72C560.543 364.383 582.37 366.339 604.308 367.251C615.765 367.726 604.103 340.953 594.842 280.039H594.832Z" fill="#0084CA"/>
<path d="M546.535 47.0845C468.826 48.6211 437.775 6.5561 433.671 0.437722C433.671 0.437722 433.671 -0.0930955 433.429 0.0745312C433.27 -0.167596 433.066 0.325971 433.066 0.325971C426.96 4.44214 382.339 31.6815 310.959 0.921977C310.959 0.921977 273.244 132.863 305.979 196.123C340.948 263.686 376.652 289.044 376.885 288.923C377.052 289.109 419.951 279.518 477.538 229.742C531.41 183.179 546.535 47.0938 546.535 47.0938V47.0845Z" fill="#0077B6"/>
<path d="M532.918 58.7439C462.459 59.8614 434.164 22.285 430.422 16.8186C430.422 16.8186 430.422 16.3436 430.199 16.4926C430.059 16.2784 429.873 16.7161 429.873 16.7161C424.354 20.3667 383.977 44.4863 319.15 16.8558C319.15 16.8558 285.381 134.278 315.268 190.741C347.193 251.049 378.998 276.938 379.202 276.835C379.351 277.003 418.89 265.409 470.948 221.249C519.655 179.938 532.918 58.7439 532.918 58.7439Z" fill="#009CEE"/>
<path d="M427.546 28.4873C427.546 28.4873 427.742 28.031 427.891 28.2545C428.114 28.1055 428.123 28.599 428.123 28.599C431.958 34.2052 460.542 72.154 531.224 72.5265C533.281 60.2898 534.128 52.5417 534.128 52.5417C463.669 53.6592 435.374 16.0829 431.632 10.6164C431.632 10.6164 431.632 10.1415 431.409 10.2905C431.269 10.0763 431.083 10.514 431.083 10.514C425.564 14.1645 385.187 38.2841 320.36 10.6537C320.36 10.6537 318.209 18.141 315.473 30.238C381.101 56.602 421.887 32.2402 427.565 28.4873H427.546Z" fill="#0084CA"/>
<g opacity="0.34">
<path d="M506.373 88.0133C453.096 89.0656 425.955 57.8033 423.153 53.6126C423.153 53.6126 423.153 53.2494 422.986 53.3611C422.874 53.1935 422.734 53.5288 422.734 53.5288C418.555 56.3505 381.967 75.0502 333.027 53.9665C333.027 53.9665 313.155 144.392 335.605 187.76C359.582 234.081 384.061 251.468 384.219 251.384C384.331 251.514 413.743 244.93 453.226 210.809C490.168 178.886 506.373 88.004 506.373 88.004V88.0133Z" fill="white"/>
</g>
<path d="M484.686 316.945L518.007 301.812L539.62 278.922L546.61 286.549L528.813 313.9L501.607 334.927L484.686 316.945Z" fill="#51CB20"/>
<path d="M457.843 334.881L440.065 304.419L438.362 267.579L448.516 267.104L454.585 301.84L471.134 315.715L457.843 334.881Z" fill="#51CB20"/>
<path d="M453.952 424.887V495.756H464.637L471.32 452.965L477.333 420.212L453.952 424.887Z" fill="#0084CA"/>
<path d="M477.333 417.54L481.344 448.29L486.687 497.758L497.381 497.097V458.99L502.724 420.212L477.333 417.54Z" fill="#0084CA"/>
<path d="M472.325 314.244C472.325 314.244 460.97 312.242 456.288 329.619C451.607 347.006 438.911 397.815 438.25 424.552C437.58 451.298 454.957 433.911 475.667 437.254C496.386 440.597 513.419 440.933 513.419 428.901C513.419 416.869 520.772 314.579 472.325 314.244Z" fill="#51CB20"/>
<path d="M465.801 279.694C475.257 262.997 496.46 273.678 497.912 290.311C498.74 299.772 492.411 315.539 481.279 314.738C480.581 316.265 479.371 319.152 477.807 319.804C476.113 320.502 472.372 318.006 470.892 317.084C470.482 316.824 470.054 316.544 469.84 316.107C469.57 315.557 469.877 314.449 470.278 313.238C469.123 312.754 467.988 312.112 466.899 311.283C462.301 307.809 460.197 301.728 460.43 295.973C460.663 290.208 462.962 284.714 465.801 279.704V279.694Z" fill="#F0D3B9"/>
<path d="M479.008 275.355C479.008 275.355 494.152 279.145 494.152 285.45C494.152 294.939 494.785 301.309 494.152 306.943L504.874 300.592L511.185 282.917C511.185 282.917 509.919 268.398 502.352 265.875C494.785 263.351 479.008 260.827 479.008 260.827L467.02 264.617L458.187 263.984L461.24 290.488C461.24 290.488 465.121 271.555 478.999 275.336L479.008 275.355Z" fill="#1A1A1A"/>
<path d="M453.952 495.756L447.939 501.772L450.611 505.786L462.636 501.772V495.756H453.952Z" fill="#2B2D2D"/>
<path d="M488.474 497.646L490.699 506.456L498.052 509.129L502.063 507.127L495.836 497.19L488.474 497.646Z" fill="#2B2D2D"/>
<path d="M539.62 278.921L540.895 271.285H543.436L548.518 266.2L550.426 270.019L549.151 279.555L544.646 283.894L539.62 278.921Z" fill="#F0D3B9"/>
<path d="M446.394 267.206L451.904 258.573L449.363 255.389L446.189 258.573L443.006 249.671L436.016 252.846L439.609 267.523L446.394 267.206Z" fill="#F0D3B9"/>
<path d="M588.559 177.07L529.456 221.053L462.841 217.356L463.222 203.899L520.194 197.529L565.188 158.929L589.276 151.516L588.559 177.07Z" fill="#009CEE"/>
<path d="M463.316 204.225L448.312 203.825L441.061 211.219L443.099 215.251L451.588 216.825L462.943 213.603L463.316 204.225Z" fill="#F0D3B9"/>
<path d="M553.507 81.1686C553.507 81.1686 545.297 85.0612 543.398 106.415C541.5 127.778 536.222 140.788 536.222 140.788C536.222 140.788 542.486 145.761 548.425 143.824C554.363 141.887 556.448 141.728 556.597 132.891C556.746 124.062 562.786 83.2639 562.786 83.2639L553.507 81.1686Z" fill="#1A1A1A"/>
<path d="M568.706 92.325C560.376 92.5206 552.436 98.2292 549.579 106.08C546.302 101.042 545.642 94.3831 547.866 88.7955C550.091 83.208 555.135 78.8217 560.971 77.4155C565.169 81.1871 567.794 86.6722 568.092 92.3157H568.706V92.325Z" fill="#1A1A1A"/>
<path d="M550.23 98.8532C559.556 78.5238 585.227 88.8235 588.568 107.989C590.467 118.885 584.687 137.826 571.684 138.013C571.033 139.857 569.907 143.33 568.157 144.233C566.258 145.211 561.669 142.688 559.854 141.766C559.352 141.505 558.831 141.216 558.542 140.732C558.179 140.127 558.421 138.804 558.765 137.351C557.379 136.904 556.001 136.271 554.642 135.414C548.964 131.838 545.912 124.994 545.614 118.279C545.316 111.565 547.438 104.962 550.24 98.8532H550.23Z" fill="#F0D3B9"/>
<path d="M561.492 77.4901C561.492 77.4901 556.047 88.4137 570.028 95.305C583.998 102.187 590.718 116.137 585.143 127.713C579.559 139.288 566.407 145.574 571.396 150.221C576.375 154.868 598.369 156.926 598.369 156.926C598.369 156.926 621.908 117.069 609.194 94.1224C596.48 71.1761 571.591 64.3127 561.502 77.4901H561.492Z" fill="#1A1A1A"/>
<path d="M200.459 51.7967C200.459 51.7967 194.93 52.3368 191.691 56.3878C188.452 60.4388 178.204 78.8125 178.325 93.0701C178.437 107.328 176.24 125.05 204.424 137.407C218.46 141.989 218.776 129.408 230.01 128.644C241.235 127.881 250.943 131.801 249.398 114.34C247.862 96.8789 236.842 92.9397 230.736 73.4391C224.621 53.9386 215.006 46.0694 200.459 51.7967Z" fill="#51CB20"/>
<path d="M196.41 52.9235L171.437 61.37L152.58 64.1172L152.859 72.2936L171.261 74.8732L191.039 70.9806L196.41 52.9235Z" fill="#51CB20"/>
<path d="M219.725 50.7164L237.94 57.3191L253.224 51.9084L255.597 57.0304L241.179 67.4884L226.762 68.4662L219.725 50.7164Z" fill="#51CB20"/>
<path d="M215.09 15.5893C215.09 15.5893 226.492 23.1139 225.459 34.4659C225.459 34.4659 232.933 28.4686 229.731 20.1059C226.529 11.7525 224.388 8.45587 216.486 10.2253C208.584 11.9947 215.09 15.58 215.09 15.58V15.5893Z" fill="#1A1A1A"/>
<path d="M225.347 28.1427C223.96 11.2217 202.981 11.9015 195.628 24.7063C191.449 31.9888 190.658 47.0007 199.891 50.5022C199.881 51.9829 199.779 54.7581 200.794 55.857C201.892 57.049 205.829 56.4436 207.356 56.2481C207.784 56.1922 208.23 56.1177 208.556 55.8476C208.975 55.5124 209.143 54.4973 209.273 53.3798C210.38 53.4171 211.525 53.3239 212.717 53.0725C217.696 52.0015 221.652 47.904 223.607 43.1918C225.561 38.4797 225.757 33.218 225.347 28.1334V28.1427Z" fill="#F3DCC6"/>
<path d="M217.761 20.05C211.888 26.2243 202.562 26.6154 196.959 32.6127C196.959 32.6127 193.301 36.5333 194.241 45.8738C194.241 45.8738 184.468 46.2836 180.177 36.5426C175.896 26.7923 185.762 7.58977 185.762 7.58977C185.762 7.58977 197.331 -0.828813 212.503 2.73791C217.65 3.94855 222.285 7.8319 221.168 13.6988C220.684 16.2132 219.437 18.2993 217.761 20.0593V20.05Z" fill="#1A1A1A"/>
<path d="M196.205 53.1284C196.205 53.1284 195.051 61.6867 199.584 62.6552C204.116 63.6237 214.56 61.7146 216.356 60.1501C218.85 57.9709 216.356 51.6849 216.356 51.6849L219.716 50.7164C219.716 50.7164 235.26 82.4817 222.741 87.2497C210.222 92.0178 194.362 93.3681 191.775 83.3384C189.178 73.3088 192.891 54.5067 192.891 54.5067L196.196 53.1377L196.205 53.1284Z" fill="#51CB20"/>
<path d="M152.608 64.9926L143.384 62.8228L142.965 64.7691L149.257 70.1704L147.684 71.1948L148.838 72.1167L152.822 71.0923L152.608 64.9926Z" fill="#F3DCC6"/>
<path d="M253.447 52.5696L255.82 49.6268L260.493 49.9528L261.74 53.6033L259.618 57.2073L255.578 56.7789L253.447 52.5696Z" fill="#F3DCC6"/>
<path d="M290.454 264.198L292.753 362.595L275.729 489.703L261.47 489.87L251.083 372.895L230.196 256.05L290.454 264.198Z" fill="#0077B6"/>
<path d="M261.535 488.176L261.628 495.886L277.135 503.411L284.748 495.607L276.949 487.989L261.535 488.176Z" fill="#1A1A1A"/>
<path d="M213.042 491.891L225.291 502.312L222.229 508.44L199.556 503.532V491.891H213.042Z" fill="#1A1A1A"/>
<path d="M241.031 302.901L230.848 398.281L217.408 493.344L198.234 492.431L198.932 393.811L187.391 302.343L214.494 289.715L241.031 302.901Z" fill="#0077B6"/>
<path d="M252.33 127.564C252.33 127.564 275.999 143.228 291.05 194.019C306.37 245.741 304.108 314.17 304.108 314.17C304.108 314.17 169.464 336.967 172.247 314.533C172.247 314.533 167.798 133.291 227.544 128.84C230.262 128.635 250.869 126.437 252.33 127.564Z" fill="#0084CA"/>
<path d="M246.615 132.658C256.77 157.439 264.393 180.813 274.827 205.473C281.007 220.085 281.072 235.357 281.956 250.919C282.831 266.396 283.715 281.874 284.59 297.351C284.963 303.889 285.335 310.426 285.698 316.963L229.424 322.877C232.663 304.131 236.367 285.459 239.262 266.657C241.933 249.317 246.029 229.844 242.836 212.355C241.282 203.843 239.606 195.341 238.015 186.829C235.092 171.212 233.78 155.241 230.718 139.652C230.504 138.562 232.914 132.472 233.259 131.382L246.606 132.658H246.615Z" fill="white"/>
<path d="M230.82 131.615L230.857 134.539L215.518 170.588L208.733 168.344L212.707 133.263L223.262 127.266C226.613 125.357 230.783 127.759 230.829 131.615H230.82Z" fill="#F3DCC6"/>
<path d="M216.403 170.169L220.07 176.772L217.203 178.429L208.24 172.451L208.835 167.664L216.403 170.169Z" fill="#1A1A1A"/>
<path d="M260.046 120.216L261.805 122.554L270.834 160.679L264.039 162.896L246.429 132.304L251.371 121.213C252.944 117.683 257.719 117.143 260.046 120.216Z" fill="#F3DCC6"/>
<path d="M271.318 160.447L278.177 163.576L276.856 166.612L266.096 167.124L263.741 162.924L271.318 160.447Z" fill="#1A1A1A"/>
<path d="M246.373 133.599C241.989 132.891 237.605 132.183 233.212 131.485C233.38 127.946 233.836 124.416 234.571 120.952C230.969 119.434 226.836 117.236 226.436 113.353C226.306 112.133 226.594 110.904 226.874 109.702C228.046 104.748 229.21 99.7938 230.383 94.8488C230.783 93.1353 231.211 91.3752 232.244 89.9504C234.05 87.4453 237.326 86.5047 240.398 86.1602C248.225 85.2848 256.565 87.4826 262.261 92.9211C263.778 94.3739 265.128 96.0781 265.705 98.0989C266.608 101.2 265.593 104.506 264.579 107.579C263.648 110.419 262.717 113.251 261.787 116.091C260.716 119.35 259.227 123.047 255.96 124.09C254.229 124.649 252.237 124.332 250.645 125.217C247.834 126.772 247.955 130.823 246.373 133.617V133.599Z" fill="#F0D3B9"/>
<path d="M292.595 86.2533C292.893 82.8263 292.623 79.3247 292.139 76.1492C291.292 70.7013 285.102 67.8889 279.639 67.1625C267.837 65.598 256.733 59.5169 244.893 62.9439C238.127 64.9089 229.21 64.9182 223.011 67.8982C220.423 69.1368 218.292 71.1949 216.589 73.5044C210.688 81.5132 209.962 92.9956 214.802 101.684C215.891 103.631 217.222 105.437 218.627 107.16C221.54 110.736 225.031 115.15 229.247 116.668C229.582 112.831 226.818 100.492 229.964 97.5122C234.953 92.7908 245.442 95.1841 251.176 96.7672C257.431 98.4994 262.81 103.333 269.037 104.674C273.514 105.642 279.425 103.77 283.408 101.666C289.654 98.369 292.046 92.4276 292.586 86.2347L292.595 86.2533Z" fill="#1A1A1A"/>
<path d="M212.921 133.291L143.012 176.539L157.625 200.062L200.849 179.714L212.921 133.291Z" fill="#0084CA"/>
<path d="M190.481 115.15L142.909 176.548L157.625 200.221L174.155 192.435L201.091 122.852L190.481 115.15Z" fill="#009CEE"/>
<path d="M192.584 116.678L198.941 108.492L214.197 105.949L216.738 112.301L209.115 118.661L199.453 121.669L192.584 116.678Z" fill="#F0D3B9"/>
<path d="M183.612 407.882C183.612 407.882 188.126 411.682 191.263 404.297C194.399 396.912 197.666 397.964 199.481 400.581C201.296 403.189 197.406 403.012 195.33 408.814C192.017 418.061 187.605 425.139 186.013 426.116C184.421 427.094 179.582 429.441 179.488 433.082C179.395 436.733 174.788 422.047 175.226 421.339C175.663 420.631 183.621 407.882 183.621 407.882H183.612Z" fill="#D8D8D8"/>
<path d="M185.762 418.648C185.762 418.648 188.777 423.723 194.157 417.763C199.537 411.812 202.283 413.889 203.139 416.943C203.995 419.998 200.384 418.555 196.521 423.36C190.36 431.015 183.872 436.248 182.048 436.649C180.224 437.049 174.881 437.673 173.597 441.091C172.312 444.509 172.768 429.124 173.42 428.603C174.071 428.081 185.752 418.648 185.752 418.648H185.762Z" fill="#EBEBEB"/>
<path d="M148.801 451.754C148.801 451.754 154.879 468.638 151.91 473.247C148.941 477.857 140.722 493.111 141.96 495.7C143.207 498.289 142.565 499.453 140.359 498.624C138.153 497.795 135.1 495.737 136.357 489.963C137.623 484.19 140.164 477.485 138.256 472.633C136.348 467.781 140.601 453.505 140.601 453.505L148.792 451.754H148.801Z" fill="#D8D8D8"/>
<path d="M154.944 391.846C154.944 391.846 148.662 390.878 149.108 398.039C149.555 405.2 142.751 417.679 131.573 426.936C120.646 435.978 110.416 449.994 123.084 465.844C135.752 481.694 159.794 465.229 164.969 456.159C170.134 447.088 184.542 441.333 187.502 427.923C190.453 414.522 182.979 408.376 182.625 404.213C182.271 400.05 154.944 391.846 154.944 391.846Z" fill="#EBEBEB"/>
<path d="M149.015 464.838C149.015 464.838 152.254 473.48 145.748 479.627C139.252 485.773 133.267 488.557 130.921 493.027C128.585 497.497 133.704 499.015 129.804 499.006C125.904 498.997 123.28 498.401 123.633 493.558C123.978 488.716 131.908 484.506 130.828 477.727C129.748 470.947 124.527 469.55 123.922 464.549C123.317 459.549 138.749 451.149 138.749 451.149L149.955 465.183L149.015 464.838Z" fill="#EBEBEB"/>
<path d="M119.724 458.124C118.765 458.561 113.721 460.973 109.411 456.336C105.102 451.698 104.869 445.077 109.737 441.007C114.605 436.938 118.272 441.352 117.835 442.851C117.397 444.35 112.157 450.143 117.574 454.669C120.19 456.336 119.724 458.133 119.724 458.133V458.124Z" fill="#EBEBEB"/>
<path d="M184.068 401.55L182.355 403.738C182.355 403.738 172.675 409.726 157.42 399.175C150.97 393.178 152.171 391.604 152.171 391.604L154.991 391.539C154.991 391.539 163.749 405.899 184.059 401.54L184.068 401.55Z" fill="#51CB20"/>
<path d="M165.006 367.177C165.006 367.177 165.667 365.314 168.626 364.514C171.586 363.713 177.329 367.494 178.52 367.615C179.712 367.736 182.523 367.745 180.103 369.403C177.683 371.06 167.035 369.878 164.996 367.177H165.006Z" fill="#1A1A1A"/>
<path d="M156.322 376.229C156.322 376.229 159.468 368.565 166.439 366.795C170.562 365.752 174.695 366.572 178.437 368.453C180.345 369.412 181.992 370.725 183.826 371.787C185.045 372.495 186.376 372.625 187.586 373.416C190.453 375.307 192.612 379.442 192.528 382.878C192.445 386.314 198.411 394.854 188.21 399.818C178.009 404.772 162.148 401.783 157.737 396.94C153.325 392.098 149.211 387.097 156.322 376.229Z" fill="#EBEBEB"/>
<path d="M158.267 376.592C158.267 376.592 154.591 375.437 152.245 377.421C149.899 379.404 147.656 379.442 148.457 382.412C149.257 385.383 150.588 392.964 154.712 394.379C158.835 395.795 156.489 389.872 157.792 387.311C159.086 384.75 160.436 377.02 158.267 376.583V376.592Z" fill="#1A1A1A"/>
</svg>
