<svg width="39" height="39" viewBox="0 0 39 39" fill="none" xmlns="http://www.w3.org/2000/svg">
<path d="M9.33784 7.19903C9.64525 7.19903 9.89448 6.94981 9.89448 6.64239C9.89448 6.33498 9.64525 6.08575 9.33784 6.08575C9.03043 6.08575 8.7812 6.33498 8.7812 6.64239C8.7812 6.94981 9.03035 7.19903 9.33784 7.19903ZM4.88471 7.19903C5.19213 7.19903 5.44136 6.94981 5.44136 6.64239C5.44136 6.33498 5.19213 6.08575 4.88471 6.08575C4.5773 6.08575 4.32807 6.33498 4.32807 6.64239C4.32807 6.94981 4.57723 7.19903 4.88471 7.19903ZM7.11128 7.19903C7.41869 7.19903 7.66792 6.94981 7.66792 6.64239C7.66792 6.33498 7.41869 6.08575 7.11128 6.08575C6.80386 6.08575 6.55464 6.33498 6.55464 6.64239C6.55464 6.94981 6.80379 7.19903 7.11128 7.19903ZM6.98919 13.096C6.9926 13.096 6.99602 13.096 6.99943 13.096L12.0322 13.0973C12.3799 13.0973 12.6754 12.872 12.7671 12.5367C12.8589 12.2013 12.7196 11.857 12.4202 11.6799L11.6549 11.2271C12.8851 10.0077 13.577 8.34401 13.566 6.60091C13.544 3.115 10.691 0.238352 7.20605 0.188181C3.59494 0.136302 0.65625 3.05733 0.65625 6.64254C0.65625 10.0806 3.48903 13.0215 6.98919 13.096ZM3.36152 2.83809C4.38797 1.82634 5.74469 1.2812 7.1901 1.30132C10.0737 1.3428 12.4346 3.7233 12.4529 6.60788C12.4627 8.16417 11.7952 9.64417 10.6217 10.6683C10.4255 10.8394 10.3227 11.0963 10.3465 11.3554C10.3702 11.6143 10.5181 11.848 10.742 11.9803L10.7474 11.9836L7.00492 11.9827C4.11173 11.9272 1.76953 9.54368 1.76953 6.64254C1.76953 5.20114 2.33493 3.85006 3.36152 2.83809ZM38.0997 37.0743H37.5429V28.7848C37.5429 26.613 36.2597 24.6408 34.2673 23.7577L31.3337 22.5004C32.0476 22.2751 32.6925 21.8734 33.2173 21.3163C34.0089 20.4758 34.4628 19.3352 34.4628 18.1872C34.4628 17.1322 34.0943 16.1365 33.3969 15.3074C32.5246 14.2715 32.0441 12.955 32.0441 11.6002V8.93278C32.0441 6.59653 31.1343 4.40054 29.4823 2.7494C27.8304 1.09729 25.6341 0.187513 23.2981 0.187513C18.476 0.187513 14.5529 4.11057 14.5529 8.93271V11.5133C14.5533 12.9152 14.0023 14.2533 13.1072 15.3319C11.9804 16.6893 11.7464 18.5247 12.4963 20.1217C13.0529 21.3071 14.057 22.1587 15.259 22.5192L12.3458 23.786C10.3021 24.646 8.98144 26.6344 8.98144 28.8516V35.4044C8.98144 35.7118 9.23059 35.9611 9.53808 35.9611C9.84557 35.9611 10.0947 35.7118 10.0947 35.4044V28.8516C10.0947 27.0836 11.1479 25.4979 12.7837 24.8095L16.4352 23.2217V26.5723H14.7576C14.2849 26.5723 13.8324 26.7739 13.5161 27.1254C13.1999 27.4769 13.0471 27.9481 13.097 28.4182L14.0146 37.0743H1.21289C0.905402 37.0743 0.65625 37.3235 0.65625 37.6309C0.65625 37.9383 0.905402 38.1875 1.21289 38.1875H38.0997C38.4071 38.1875 38.6562 37.9383 38.6562 37.6309C38.6562 37.3235 38.4071 37.0743 38.0997 37.0743ZM32.5452 16.0242C33.0714 16.6499 33.3497 17.3978 33.3497 18.1871C33.3497 19.0545 33.006 19.9167 32.4069 20.5529C31.7724 21.2265 30.9009 21.5974 29.9527 21.5974H29.2272L28.2743 21.189C27.442 20.832 26.8727 20.0667 26.7563 19.1858C28.4738 18.2611 29.6439 16.4461 29.6439 14.3626V10.1779C29.8069 10.189 29.9697 10.195 30.132 10.195C30.3997 10.195 30.6663 10.1797 30.9308 10.1497V11.6002C30.9308 13.2169 31.5043 14.7882 32.5452 16.0242ZM23.4335 24.8118C21.4422 24.847 19.4657 24.5947 17.5485 24.0629V22.7376L17.7094 22.6676C17.7106 22.6671 17.7119 22.6665 17.7132 22.666L18.7064 22.2342C19.8118 21.7536 20.5928 20.7693 20.8298 19.6191C21.3144 19.76 21.826 19.837 22.3556 19.837H24.1695C24.7012 19.837 25.2147 19.7594 25.701 19.6174C25.9457 20.7624 26.7297 21.7378 27.8356 22.2123L28.8955 22.6665C28.8962 22.6668 28.8969 22.6671 28.8976 22.6673L28.976 22.7009V23.9535C27.1745 24.4903 25.312 24.779 23.4335 24.8118ZM28.9758 25.1125V26.5724H17.5485V25.2157C19.353 25.6888 21.2057 25.9282 23.0711 25.9282C23.1983 25.9282 23.3256 25.9271 23.4529 25.9249C25.3224 25.8922 27.1767 25.619 28.9758 25.1125ZM30.9308 9.02726C29.3975 9.23441 27.6693 8.82368 26.4785 7.90107C26.2355 7.71285 25.8858 7.75709 25.6975 8.00015C25.5093 8.24314 25.5536 8.59279 25.7966 8.78108C26.5751 9.38418 27.514 9.80901 28.5306 10.0232V13.0537C28.2631 13.6633 27.9655 14.1703 27.2941 14.7241C27.0114 14.9573 26.7022 15.1509 26.3708 15.3046C26.1003 14.7767 25.5508 14.4143 24.9181 14.4143H23.6136C22.7139 14.4143 21.9818 15.1463 21.9818 16.046C21.9818 16.9457 22.7139 17.6777 23.6136 17.6777H24.9181C25.6753 17.6777 26.3135 17.1592 26.4967 16.4587C27.2414 16.175 28.4556 15.1628 28.4559 15.1624C28.0788 17.1862 26.3009 18.7235 24.1695 18.7235H22.3556C19.9509 18.7235 17.9944 16.7671 17.9944 14.3624V10.0596C19.885 9.76322 21.6712 9.12345 23.3092 8.1546C25.8032 6.67935 27.403 4.7516 28.3685 3.22855C30.0203 4.69979 30.9599 6.80901 30.9308 9.02726ZM25.4363 16.0476C25.4356 16.3328 25.2034 16.5646 24.9179 16.5646H23.6136C23.3277 16.5646 23.0951 16.332 23.0951 16.0462C23.0951 15.7603 23.3277 15.5277 23.6136 15.5277H24.9179C25.2032 15.5277 25.4354 15.7594 25.4363 16.0445V16.0476ZM15.6663 8.93271C15.6663 4.72443 19.0898 1.3008 23.2981 1.3008C24.8074 1.3008 26.2496 1.73646 27.482 2.54752C26.5935 3.97171 25.0982 5.80313 22.7423 7.19666C21.1262 8.1526 19.3535 8.7629 17.4732 9.01064H17.4386C17.4383 9.01064 17.4389 9.01064 17.4386 9.01064C17.4383 9.01064 17.4373 9.01064 17.437 9.01064H15.6662L15.6663 8.93271ZM13.5038 19.6484C12.9395 18.4462 13.1157 17.0647 13.963 16.0437C15.0265 14.7626 15.6674 13.1797 15.6663 11.5133V10.1239H16.8813V14.3626C16.8813 16.4473 18.0529 18.2632 19.7719 19.1874C19.6644 20.075 19.0968 20.8503 18.2624 21.2131L17.3785 21.5974H16.5717C15.2439 21.5974 14.0684 20.8506 13.5038 19.6484ZM32.8815 28.3009L31.9515 37.0743H15.1341L14.2041 28.3009C14.1873 28.1419 14.2367 27.9888 14.3438 27.87C14.4507 27.7511 14.5978 27.6857 14.7576 27.6857H32.3279C32.4877 27.6857 32.6348 27.7511 32.7417 27.87C32.8487 27.9888 32.8983 28.1419 32.8815 28.3009ZM36.4296 37.0743H33.0709L33.9884 28.4184C34.0383 27.9482 33.8856 27.477 33.5695 27.1255C33.2533 26.774 32.8008 26.5724 32.3279 26.5724H30.0891V23.1781L33.8224 24.7782C35.4062 25.4803 36.4296 27.053 36.4296 28.7848V37.0743ZM23.5427 30.2647C22.3764 30.2647 21.4275 31.2136 21.4275 32.3799C21.4275 33.5463 22.3764 34.4952 23.5427 34.4952C24.709 34.4952 25.6579 33.5463 25.6579 32.3799C25.6579 31.2136 24.709 30.2647 23.5427 30.2647ZM23.5427 33.3819C22.9902 33.3819 22.5408 32.9324 22.5408 32.3799C22.5408 31.8274 22.9902 31.378 23.5427 31.378C24.0951 31.378 24.5446 31.8274 24.5446 32.3799C24.5446 32.9324 24.0952 33.3819 23.5427 33.3819Z" fill="#51CB20"/>
</svg>
