<svg width="150" height="94" viewBox="0 0 150 94" fill="none" xmlns="http://www.w3.org/2000/svg">
<path d="M12.2189 37.3882C12.6799 36.2561 12.8097 35.4052 12.6083 34.8356C12.5372 34.5682 12.3889 34.326 12.1812 34.1382C11.9736 33.9504 11.7155 33.8251 11.438 33.7773L11.5636 33.1024L27.8937 36.1482C28.2513 36.2149 28.4585 36.369 28.5164 36.6056C28.5732 36.8846 28.5492 37.173 28.4472 37.438L26.34 43.5713L25.4693 43.4089C25.9023 41.5733 25.7597 40.0346 25.0305 38.7959C24.3012 37.5573 23.0435 36.7662 21.24 36.4298L20.7218 36.3332C20.5563 36.2864 20.3826 36.2763 20.2132 36.3038C20.0439 36.3313 19.8833 36.3955 19.7431 36.4919C19.4483 36.7663 19.225 37.1063 19.0919 37.4835L16.0475 44.7337L16.5657 44.8303C17.7002 45.1115 18.8932 45.0384 19.9776 44.6214C20.9317 44.1325 21.6985 43.3554 22.1654 42.4042L23.0361 42.5666L19.7883 50.3616L18.9177 50.1992C19.0821 49.7791 19.1508 49.3281 19.1189 48.8778C19.0869 48.4275 18.9552 47.9887 18.7328 47.592C18.2918 46.9077 17.3716 46.435 15.9723 46.174L15.4541 46.0774L13.0951 51.6912C12.6616 52.5431 12.4678 53.4945 12.5335 54.4479C12.6515 55.1105 13.1536 55.5244 14.0449 55.6907L14.444 55.7651C15.2584 55.9146 16.0947 55.8915 16.8965 55.6975C17.7727 55.4854 18.6101 55.1441 19.3801 54.6853C20.1972 54.2012 20.95 53.6205 21.6218 52.956C22.3233 52.2672 22.9221 51.4846 23.4007 50.631L24.3336 50.805L20.73 57.7461C20.64 57.9485 20.4806 58.1132 20.2791 58.2118C20.0777 58.3103 19.8469 58.3365 19.6267 58.2859L2.46227 55.0845L2.59076 54.3944C3.28572 54.5003 3.99366 54.3433 4.57085 53.9551C5.33246 53.3518 5.90236 52.5479 6.21449 51.6365L12.2189 37.3882Z" fill="white"/>
<path d="M32.5818 37.0211L43.3254 39.025L43.1995 39.7011C42.509 39.5912 41.8035 39.75 41.2314 40.1441C40.4738 40.7494 39.9063 41.5555 39.5947 42.4688L33.6088 56.7382C33.1455 57.8721 33.0221 58.7258 33.2385 59.2992C33.3181 59.562 33.4707 59.7978 33.6788 59.9799C33.8869 60.1619 34.1422 60.2828 34.4157 60.3288L34.287 61.0201L23.5074 59.0096L23.6361 58.3182C24.328 58.4249 25.0338 58.2668 25.6094 57.8762C26.367 57.2715 26.933 56.4646 27.2409 55.5505L33.2212 41.3116C33.6844 40.1777 33.8147 39.3253 33.612 38.7545C33.5426 38.4873 33.3964 38.2453 33.1913 38.0577C32.9862 37.8701 32.7308 37.7449 32.4559 37.6973L32.5818 37.0211Z" fill="white"/>
<path d="M107.745 65.129C108.425 63.521 108.634 61.7566 108.35 60.0308L107.431 54.4646C107.314 53.6926 107.08 52.9407 106.737 52.2339C106.621 51.9721 106.443 51.7407 106.217 51.5596C105.991 51.3784 105.724 51.2528 105.439 51.1933L105.544 50.6248L117.049 52.7704L116.939 53.3593C116.247 53.1741 115.512 53.2425 114.873 53.5518C114.413 53.8495 114.239 54.3791 114.35 55.1457L115.107 61.1441L115.17 61.1557L120.607 56.9169C120.89 56.6888 121.151 56.437 121.388 56.1643C121.615 55.9237 121.787 55.6392 121.894 55.3289C121.937 55.2062 121.954 55.0762 121.945 54.9464C121.936 54.8167 121.9 54.6898 121.841 54.573C121.738 54.4365 121.605 54.3236 121.452 54.2425C121.3 54.1614 121.131 54.114 120.959 54.1038L121.067 53.52L127.506 54.721L127.397 55.3099C126.663 55.2136 125.918 55.3144 125.242 55.6014C124.26 56.0365 123.345 56.601 122.522 57.2793L117.084 61.5181C116.239 62.1847 115.581 63.0502 115.172 64.0348L112.077 71.3737C111.611 72.5056 111.493 73.3591 111.724 73.9344C111.842 74.2259 112.039 74.4807 112.294 74.671C112.55 74.8613 112.853 74.9798 113.171 75.0133L113.043 75.7038L101.549 73.56L101.677 72.8696C102.456 73.0209 103.262 72.8826 103.936 72.482C104.722 71.8942 105.307 71.0886 105.617 70.1689L107.745 65.129Z" fill="white"/>
<path d="M130.804 59.5509C131.194 59.0956 131.41 58.5238 131.416 57.9294C131.42 57.6348 131.373 57.341 131.279 57.0595C131.195 56.8041 131.053 56.5696 130.862 56.3735C130.639 56.1608 130.352 56.0226 130.043 55.9795L130.184 55.2244L135.67 56.2477C136.801 56.4587 137.611 56.5521 138.092 56.9197C138.337 57.1176 138.524 57.3739 138.633 57.6624C138.743 57.951 138.772 58.2615 138.717 58.5622L137.274 76.84C137.162 77.5865 137.257 78.3509 137.547 79.0566C137.691 79.2918 137.889 79.4921 138.125 79.6418C138.362 79.7916 138.631 79.8865 138.91 79.9192L138.801 80.507L126.77 78.2632L126.88 77.6754C127.403 77.7812 127.945 77.6953 128.4 77.4345C128.81 77.1579 129.124 76.7697 129.304 76.3185C129.431 76.0201 129.514 75.7054 129.549 75.3835L129.79 73.1527L122.91 71.8695L121.365 73.8519C121.271 73.9558 121.19 74.0713 121.127 74.1955C121.053 74.3286 120.986 74.4575 120.914 74.5805C120.713 74.9996 120.669 75.4746 120.788 75.9257C120.847 76.1311 120.968 76.3151 121.138 76.4527C121.307 76.5902 121.515 76.6747 121.734 76.6946L121.624 77.2824L115.012 76.0492L115.122 75.4613C115.831 75.5602 116.55 75.4116 117.148 75.0423C117.882 74.6116 118.536 74.0655 119.082 73.4261L130.804 59.5509ZM130.003 71.3099L131.106 61.8199L131.037 61.8072L124.217 70.2307L130.003 71.3099Z" fill="white"/>
<path d="M65.826 14.8033C57.9278 18.7096 51.2297 24.571 46.3938 31.8082C45.6662 32.834 45.0107 33.9046 44.367 34.9983C40.795 30.8873 35.8663 28.123 30.446 27.1905C25.0257 26.258 19.4604 27.217 14.7271 29.8992C29.9512 20.2764 49.0055 14.8994 65.826 14.8033Z" fill="white"/>
<path d="M93.2744 19.9183C99.0984 26.386 103.131 34.2482 104.974 42.7297C105.274 43.947 105.491 45.1804 105.69 46.4313C110.419 43.8686 115.909 43.0474 121.195 44.1117C126.481 45.1761 131.225 48.058 134.596 52.2515C124.136 37.8385 108.633 26.0162 93.2744 19.9183Z" fill="white"/>
<path d="M82.7353 17.1467C82.7353 17.1467 82.7421 17.1102 82.746 17.0893C83.1342 15.004 82.0998 13.1064 80.4388 12.7912C78.7778 12.476 77.1241 13.9046 76.7397 15.9691L76.7291 16.0264C54.9239 22.3922 42.1168 42.045 40.1234 69.6161C45.0418 67.9875 50.3845 68.1109 55.2334 69.9653C60.0822 71.8196 64.1343 75.2891 66.6933 79.7773C66.8106 79.9705 66.9677 80.1369 67.1543 80.2657C67.3409 80.3944 67.5528 80.4825 67.776 80.5241C67.9992 80.5657 68.2286 80.56 68.449 80.5072C68.6695 80.4543 68.8759 80.3557 69.0548 80.2178C73.0611 76.9581 78.0921 75.1886 83.2827 75.2136C88.4734 75.2386 93.4994 77.0565 97.4966 80.3547C105.609 53.9411 100.77 30.9754 82.7353 17.1467ZM73.8213 45.6441C73.5392 45.8571 73.2958 46.1164 73.1017 46.4107C72.8475 46.8008 72.6303 47.2136 72.4531 47.6438L64.2806 66.8393L63.0709 66.6137C60.7147 66.1742 59.9536 63.3351 59.5445 61.3815C58.6215 56.8399 58.1335 52.2122 57.4291 47.6359C57.4037 47.3069 57.3536 46.9802 57.2791 46.6585L57.2213 46.6477L51.5968 60.1959C51.1918 61.0205 50.9891 61.929 51.0051 62.8474C51.0772 63.4543 51.5182 63.8332 52.3334 63.9852L52.2208 64.59L45.7833 63.3893L45.8959 62.7846C46.2743 62.8775 46.6689 62.8823 47.0489 62.7988C47.4289 62.7153 47.7839 62.5456 48.0862 62.303C48.7622 61.5927 49.2777 60.7474 49.5982 59.8231L56.442 43.789C56.5549 43.5496 56.5984 43.2836 56.5676 43.0207C56.5368 42.7577 56.4329 42.5082 56.2676 42.2999C55.9399 41.8651 55.4573 41.5705 54.9189 41.4766L55.048 40.7832L63.0843 42.2821C63.379 42.3021 63.6548 42.4347 63.8535 42.6521C63.9583 42.8149 64.0209 43.0008 64.0357 43.1932L66.4162 57.1231L66.4845 57.1359L70.4966 47.2788C70.9169 46.2784 71.0538 45.5433 70.9024 45.0997C70.7509 44.6561 70.2786 44.3576 69.4897 44.2104L69.6217 43.5014L76.0277 44.6962L75.8986 45.3896C75.4997 45.308 75.0921 45.2773 74.6857 45.2982C74.3717 45.3361 74.0736 45.4554 73.8213 45.6441ZM94.3696 72.4513L82.3414 70.2079L82.454 69.6031C82.9765 69.7092 83.5193 69.618 83.9763 69.3476C84.3877 69.0602 84.7059 68.6606 84.8926 68.1969C85.0146 67.8875 85.0967 67.5639 85.1372 67.2338L85.3758 64.9587L78.507 63.6776L76.9359 65.7149C76.8414 65.8249 76.7605 65.9456 76.6948 66.0745C76.6212 66.2065 76.553 66.3394 76.4804 66.4661C76.2794 66.8979 76.2309 67.3848 76.3428 67.8484C76.4044 68.0566 76.5268 68.2424 76.6944 68.3821C76.8621 68.5219 77.0676 68.6094 77.285 68.6337L77.1724 69.2384L70.5823 68.0093L70.6949 67.4045C71.404 67.5025 72.1241 67.346 72.7253 66.9633C73.4635 66.5185 74.1205 65.9536 74.6691 65.2921L86.478 50.9717C86.8698 50.5015 87.0887 49.9128 87.0991 49.3019C87.1038 48.9992 87.0589 48.6975 86.9661 48.4086C86.8839 48.1464 86.7425 47.906 86.5528 47.7058C86.3286 47.4884 86.0392 47.3492 85.7286 47.3093L85.8733 46.5326L91.3378 47.5518C92.4686 47.7627 93.3112 47.8551 93.79 48.2357C94.0302 48.4397 94.2127 48.7025 94.319 48.9977C94.4254 49.293 94.4521 49.6105 94.3963 49.9186L92.8446 68.6875C92.7256 69.4545 92.8142 70.2398 93.1011 70.9632C93.2439 71.2042 93.4411 71.4091 93.6771 71.5617C93.9132 71.7144 94.1816 71.8105 94.4612 71.8427L94.3696 72.4513ZM86.6828 53.2917L79.839 61.9894L85.6243 63.0685L86.7722 53.3083L86.6828 53.2917Z" fill="white"/>
</svg>
