<svg width="39" height="39" viewBox="0 0 39 39" fill="none" xmlns="http://www.w3.org/2000/svg">
<mask id="mask0_1_370" style="mask-type:luminance" maskUnits="userSpaceOnUse" x="0" y="0" width="39" height="39">
<path d="M38.3125 0.1875H0.3125V38.1875H38.3125V0.1875Z" fill="white"/>
</mask>
<g mask="url(#mask0_1_370)">
<path d="M29.0843 34.6263C28.8787 34.2719 28.4247 34.1513 28.07 34.3568L28.0414 34.3733C27.6869 34.579 27.5663 35.0331 27.7719 35.3877C27.9096 35.6249 28.1586 35.7575 28.4145 35.7575C28.5408 35.7575 28.6691 35.7251 28.7863 35.6571L28.8148 35.6406C29.1693 35.4349 29.2899 34.9808 29.0843 34.6263Z" fill="#51CB20"/>
<path d="M35.7663 9.69337C33.2294 5.29925 29.1332 2.15616 24.2322 0.84293C19.3314 -0.470296 14.2124 0.203684 9.81826 2.74055C5.42421 5.27743 2.28105 9.37371 0.967898 14.2746C-0.345255 19.1755 0.328651 24.2945 2.86552 28.6886C5.14114 32.6301 8.75797 35.6257 13.0497 37.1232C15.0842 37.8331 17.2079 38.1873 19.3284 38.1873C21.634 38.1873 23.9355 37.7683 26.1109 36.9322C26.4935 36.7852 26.6844 36.3558 26.5373 35.9732C26.3902 35.5906 25.9608 35.3995 25.5783 35.5468C19.7878 37.7724 13.5191 36.7612 8.83568 33.2458L9.5006 29.7749L9.82101 29.6709C11.0317 29.2775 11.6967 27.9724 11.3035 26.7616L11.0684 26.0381C11.014 25.8706 11.0143 25.6936 11.0691 25.5263C11.2754 24.8976 11.2017 24.2096 10.8669 23.6387C10.5321 23.0679 9.96766 22.6677 9.31817 22.5407L7.64306 22.2134L4.41098 19.756C4.21734 19.6087 3.96389 19.5658 3.73247 19.6409L1.84019 20.2556C1.80004 19.5788 1.79944 18.9022 1.83759 18.2292C1.91226 18.2987 1.96087 18.346 1.99078 18.377C2.02782 18.4387 2.07368 18.4952 2.12742 18.5442C2.28194 18.6849 2.42192 18.7488 2.71582 18.7488C2.98591 18.7487 3.38572 18.6949 4.0459 18.5974C4.67201 18.5048 5.29485 18.4005 5.30101 18.3995C5.55061 18.3577 5.76161 18.1915 5.86092 17.9588C5.96022 17.726 5.93402 17.4588 5.79145 17.2496L4.88145 15.9149L6.18488 14.9828C6.27172 14.9207 6.34416 14.8406 6.39722 14.748L8.41768 11.2208L9.23208 10.3481C10.0643 9.45616 10.3018 8.15118 9.83704 7.02335C9.56287 6.35812 9.08401 5.8043 8.48507 5.43106C9.13374 4.9211 9.82539 4.45026 10.5604 4.02595C13.2574 2.46884 16.2006 1.71426 19.1129 1.68539L17.7876 3.34781L12.8733 5.07065C12.6737 5.14057 12.5134 5.29242 12.4328 5.48791L11.0603 8.81499C10.9629 9.05137 10.9938 9.32108 11.1423 9.52919L13.1468 12.337C12.8597 12.5989 12.5803 12.9804 12.2466 13.4541C12.1002 13.6618 11.962 13.858 11.8665 13.968C11.7834 14.0637 11.7003 14.1572 11.6179 14.2498C11.1868 14.7349 10.741 15.2365 10.4243 15.9066C9.72801 17.3805 9.86866 19.0936 10.7913 20.3774C11.6835 21.6187 13.1544 22.2497 14.7243 22.0651C14.98 22.0351 15.2185 21.9761 15.4492 21.9189C16.0855 21.7615 16.2871 21.7458 16.4912 21.9368C16.5905 22.0298 16.5996 22.0474 16.5976 22.3628C16.5962 22.5635 16.5947 22.8131 16.6638 23.0982C16.7746 23.5543 17.061 23.8695 17.2911 24.1227C17.4055 24.2485 17.5238 24.3787 17.5602 24.4661C17.7917 25.0208 17.6909 25.328 17.4701 26.0011C17.4511 26.0587 17.4318 26.1175 17.4125 26.1778C17.0769 27.2165 17.5447 28.2468 17.9573 29.1556C18.0914 29.4508 18.2179 29.7294 18.3008 29.9757C18.9681 31.9558 19.4683 32.4092 19.8698 32.5918C20.08 32.6874 20.2977 32.7294 20.5175 32.7293C21.5874 32.7292 22.7038 31.7359 23.2166 31.1061C23.5387 30.7107 23.618 30.3147 23.6759 30.0255C23.7048 29.8817 23.7275 29.7681 23.7709 29.6939C23.8372 29.5803 23.9154 29.4923 24.0143 29.3808C24.2133 29.1568 24.461 28.878 24.6213 28.3726C24.7432 27.9888 24.8318 27.8947 25.125 27.5824C25.1761 27.5281 25.2305 27.4701 25.2889 27.4065C26.2774 26.3309 26.0228 25.5092 25.7532 24.6392C25.5263 23.9072 25.9231 23.439 26.8826 22.5455C27.2986 22.1582 27.7286 21.7577 28.061 21.2764C28.2065 21.0658 28.649 20.4251 28.3752 19.79C28.1067 19.1673 27.4244 19.0626 26.8763 18.9786C26.6598 18.9454 26.3326 18.8952 26.2285 18.8271C25.7693 18.5269 25.4884 17.9004 25.2166 17.2944C25.1625 17.1738 25.1092 17.0547 25.0551 16.9392C24.9586 16.733 24.8622 16.4835 24.7601 16.2195C24.4901 15.5206 24.1841 14.7285 23.6632 14.1763C23.1949 13.6801 22.3122 13.4412 21.5335 13.2302C21.2715 13.1594 21.0243 13.0924 20.8613 13.0322C20.7246 12.9817 20.5763 12.9726 20.4349 13.0059C20.0558 13.0947 19.8194 13.1926 19.6438 13.3333C19.5974 13.3705 19.46 13.4926 19.3796 13.6888C19.1079 13.5584 18.7342 13.3094 18.5043 13.1562C18.4996 13.153 18.4947 13.1498 18.49 13.1466C18.5675 12.8365 18.4973 12.5876 18.4239 12.4322C18.0093 11.5553 16.633 11.6239 16.3615 11.647C16.2073 11.6599 16.0122 11.6668 15.8058 11.6741C15.4816 11.6856 15.1233 11.6985 14.7687 11.7383L14.787 11.6874C15.0561 10.9375 15.7722 10.4337 16.5688 10.4337H16.9908C17.4005 10.4337 17.7329 10.1014 17.7329 9.69166C17.7329 9.2819 17.4005 8.94955 16.9908 8.94955H16.5688C15.3861 8.94955 14.303 9.57202 13.696 10.5518L12.589 9.00113L13.6781 6.36124L18.4803 4.67766C18.6119 4.6315 18.728 4.54912 18.8151 4.43994L20.9498 1.7622C26.4044 2.28107 31.5389 5.33932 34.4811 10.4353C35.2648 11.7927 35.8445 13.2217 36.2299 14.6833L35.9153 14.9638C35.5046 15.3303 35.264 15.8558 35.2548 16.4058C35.2547 16.4118 35.2546 16.4178 35.2544 16.4237L34.7418 15.0142C34.6654 14.8038 34.5529 14.6109 34.4076 14.4409L33.4933 13.3704C33.1388 12.9555 32.6227 12.7176 32.0771 12.7176H30.958C30.5607 12.7176 30.1976 12.9352 30.0102 13.2853C29.8228 13.6355 29.8433 14.0584 30.0637 14.3888L30.1769 14.5588C29.4537 15.1807 28.6173 15.6783 27.7267 16.014L26.1926 13.0754V12.4198C26.1926 12.2171 26.1096 12.023 25.9628 11.8831L24.5814 10.5643C24.5052 10.4916 24.4143 10.4359 24.315 10.4009L23.0714 9.96397C22.6845 9.82785 22.261 10.0314 22.1252 10.418C21.9893 10.8048 22.1926 11.2283 22.5793 11.3642L23.6721 11.7483L24.7083 12.7374V13.2575C24.7083 13.3771 24.7373 13.495 24.7926 13.601L26.7132 17.2798C26.8859 17.6108 27.2779 17.7621 27.6278 17.6327L28.187 17.4265C29.4862 16.9473 30.6904 16.1766 31.6695 15.1976C31.9196 14.9474 31.9585 14.5556 31.7622 14.2612L31.7227 14.2019H32.0771C32.1879 14.2019 32.2928 14.2502 32.3648 14.3345L33.2791 15.405C33.3086 15.4395 33.3314 15.4785 33.3469 15.5214L34.3559 18.2959C34.4426 18.5343 34.6451 18.7118 34.8925 18.7667C34.946 18.7785 34.9998 18.7843 35.0533 18.7843C35.248 18.7843 35.4375 18.7077 35.578 18.5669L36.0583 18.0867C36.3624 17.7824 36.5718 17.3975 36.6719 16.9709C37.4146 22.9236 35.0805 29.0814 30.1469 32.9536C29.8244 33.2067 29.7682 33.6731 30.0213 33.9956C30.2744 34.3181 30.7407 34.3743 31.0633 34.1212C34.6252 31.3256 37.0722 27.327 37.9536 22.8621C38.8431 18.3541 38.0664 13.6773 35.7663 9.69337ZM3.82168 21.1725L6.88194 23.4994C6.97242 23.5682 7.07736 23.6152 7.18884 23.637L9.03332 23.9974C9.26875 24.0434 9.46513 24.1826 9.58648 24.3895C9.70782 24.5964 9.73335 24.8357 9.65869 25.0637C9.50506 25.5322 9.50432 26.0278 9.65669 26.4966L9.89181 27.2201C10.0323 27.6525 9.79466 28.1187 9.36234 28.2592L8.62482 28.4988C8.36751 28.5824 8.17617 28.7994 8.12533 29.065L7.53173 32.1635C6.22674 30.9691 5.08095 29.5575 4.15092 27.9465C3.01626 25.9815 2.30732 23.8854 1.99486 21.7661L3.82168 21.1725ZM8.14693 9.33548L7.27389 10.2708C7.23493 10.3126 7.20086 10.3588 7.17244 10.4084L5.18991 13.8696L3.42788 15.1296C3.09968 15.3642 3.01908 15.8179 3.24634 16.1513L3.90533 17.118C3.52548 17.1745 3.18459 17.2211 2.95792 17.2458C2.91436 17.2041 2.86879 17.1617 2.82166 17.1179C2.64524 16.954 2.4001 16.7351 2.03464 16.4153C2.63737 12.6849 4.43495 9.1705 7.26209 6.48786C7.80344 6.65834 8.24772 7.06216 8.46473 7.58889C8.70891 8.18131 8.58408 8.86694 8.14693 9.33548ZM14.198 13.391C14.529 13.2047 15.2973 13.1775 15.8583 13.1576C16.0831 13.1496 16.2955 13.1421 16.4852 13.1262C16.5853 13.1178 16.6965 13.1193 16.8014 13.1275C16.7545 13.2477 16.7393 13.3797 16.7596 13.5106C16.7953 13.7409 16.9373 13.941 17.1428 14.0509C17.282 14.1254 17.4758 14.2546 17.6809 14.3914C18.2609 14.7781 18.9184 15.2163 19.5361 15.2557C20.0978 15.2921 20.4103 14.972 20.5442 14.8357C20.5549 14.8248 20.565 14.814 20.5757 14.8041C20.6511 14.7427 20.7217 14.6603 20.7743 14.5609C20.893 14.5948 21.0176 14.6286 21.1455 14.6632C21.5849 14.7822 22.4029 15.0037 22.5836 15.1952C22.9046 15.5355 23.1548 16.1832 23.3756 16.7546C23.4871 17.0434 23.5925 17.3159 23.7107 17.5686C23.7615 17.677 23.8115 17.7887 23.8622 17.9019C24.2047 18.6657 24.5928 19.5316 25.4163 20.0698C25.7897 20.3139 26.2474 20.384 26.6513 20.446C26.7001 20.4535 26.7561 20.4621 26.8129 20.4715C26.5732 20.8059 26.2319 21.1237 25.8713 21.4595C24.9525 22.3151 23.8091 23.38 24.3357 25.0788C24.5842 25.881 24.5958 25.9677 24.1961 26.4024C24.1417 26.4617 24.0909 26.5158 24.0433 26.5664C23.701 26.9308 23.4306 27.2186 23.2068 27.9237C23.1418 28.1285 23.0576 28.2233 22.9046 28.3955C22.7823 28.5332 22.6299 28.7048 22.4894 28.9453C22.3211 29.2334 22.2654 29.5109 22.2208 29.7337C22.1768 29.953 22.1519 30.0631 22.0658 30.1688C21.8698 30.4094 21.5042 30.7588 21.1288 30.9973C20.78 31.2188 20.5763 31.2491 20.5069 31.2449C20.4278 31.16 20.1409 30.7882 19.7075 29.5018C19.6006 29.1844 19.4523 28.8579 19.3089 28.5421C18.9928 27.8459 18.666 27.126 18.825 26.634C18.8438 26.5759 18.8623 26.5192 18.8806 26.4638C19.1346 25.6897 19.3743 24.9587 18.9302 23.8944C18.7949 23.5703 18.5796 23.3335 18.3899 23.1245C18.267 22.9893 18.1279 22.8361 18.1064 22.748C18.0803 22.6404 18.0811 22.5163 18.0821 22.3725C18.0846 21.9847 18.0885 21.3987 17.5059 20.8532C16.6846 20.0845 15.7269 20.3213 15.0931 20.4781C14.8984 20.5262 14.7145 20.5717 14.5515 20.5909C13.5089 20.713 12.578 20.3197 11.9969 19.511C11.389 18.6651 11.3007 17.5268 11.7667 16.5405C11.9922 16.0632 12.3329 15.6797 12.7275 15.2358C12.8137 15.1388 12.9006 15.041 12.9876 14.9408C13.1324 14.774 13.2916 14.5481 13.46 14.3089C13.6611 14.0235 14.0354 13.4921 14.198 13.391Z" fill="#51CB20"/>
<path d="M30.7439 25.7394L30.3869 24.3935C30.3089 24.0996 30.0595 23.883 29.7576 23.847C29.4554 23.8116 29.1623 23.9627 29.0172 24.23C28.9359 24.3799 28.8626 24.5387 28.7918 24.6923C28.6727 24.9507 28.5495 25.2179 28.4213 25.3653C28.3493 25.4482 28.1644 25.5374 27.9857 25.6237C27.5584 25.8299 26.9732 26.1123 26.7496 26.8249C26.6108 27.267 26.6626 27.6167 26.7005 27.872C26.7332 28.0934 26.7408 28.1701 26.6815 28.3094L26.6741 28.3267C26.4378 28.881 25.9983 29.913 26.6146 30.7903C27.0544 31.4165 27.5167 31.5774 27.876 31.5774C27.9462 31.5777 28.0125 31.5715 28.0739 31.5615C28.8309 31.4378 29.4 30.6503 29.8651 29.0831L30.7381 26.141C30.7769 26.0101 30.779 25.8712 30.7439 25.7394ZM28.4423 28.6609C28.2052 29.4599 27.9955 29.8329 27.8744 29.9983C27.8605 29.9805 27.8453 29.9603 27.8291 29.9372C27.6873 29.7352 27.8993 29.2376 28.0395 28.9083L28.047 28.8909C28.2733 28.36 28.2128 27.9522 28.1688 27.6545C28.1405 27.4638 28.1304 27.3818 28.1658 27.2693C28.1949 27.1767 28.3688 27.0869 28.6308 26.9604C28.7469 26.9043 28.8748 26.8426 29.0039 26.768L28.4423 28.6609Z" fill="#51CB20"/>
<path d="M20.3537 9.00914L20.3036 8.99163C19.9172 8.85625 19.4934 9.05954 19.3577 9.44629C19.222 9.83312 19.4256 10.2565 19.8124 10.3922L19.8624 10.4097C19.9437 10.4382 20.0265 10.4517 20.1081 10.4517C20.4144 10.4517 20.7012 10.2605 20.8084 9.95506C20.9441 9.56823 20.7405 9.14474 20.3537 9.00914Z" fill="#51CB20"/>
</g>
</svg>
