<svg width="86" height="86" viewBox="0 0 86 86" fill="none" xmlns="http://www.w3.org/2000/svg">
<rect x="0.0688477" y="0.796875" width="85" height="85" rx="42.5" fill="#008C99" fill-opacity="0.1"/>
<path d="M32.0688 24.4219C24.8313 24.4219 18.9438 30.3094 18.9438 37.5469C18.9438 39.1706 19.4237 40.8544 20.228 42.5469H21.6111C20.7255 40.8388 20.1938 39.15 20.1938 37.5469C20.1938 30.9988 25.5207 25.6719 32.0688 25.6719C35.8345 25.6719 39.2965 27.4117 41.5684 30.4448L42.0688 31.1113L42.5693 30.4448C44.8412 27.4117 48.3032 25.6719 52.0688 25.6719C58.617 25.6719 63.9438 30.9988 63.9438 37.5469C63.9438 40.8738 58.2553 53.2549 47.0168 58.224C46.8386 58.4265 46.8061 58.719 46.9411 58.9527C47.1555 59.324 47.6742 59.3802 47.9567 59.0577C59.7446 53.7958 65.1938 41.2144 65.1938 37.5469C65.1938 30.3094 59.3063 24.4219 52.0688 24.4219C48.1732 24.4219 44.572 26.1048 42.0688 29.0667C39.5657 26.1048 35.9645 24.4219 32.0688 24.4219ZM32.0688 27.5469C31.9031 27.5469 31.7441 27.6127 31.6269 27.7299C31.5097 27.8471 31.4438 28.0061 31.4438 28.1719C31.4438 28.3376 31.5097 28.4966 31.6269 28.6138C31.7441 28.731 31.9031 28.7969 32.0688 28.7969C32.2346 28.7969 32.3936 28.731 32.5108 28.6138C32.628 28.4966 32.6938 28.3376 32.6938 28.1719C32.6938 28.0061 32.628 27.8471 32.5108 27.7299C32.3936 27.6127 32.2346 27.5469 32.0688 27.5469ZM52.0688 27.5469C51.9031 27.5469 51.7441 27.6127 51.6269 27.7299C51.5097 27.8471 51.4438 28.0061 51.4438 28.1719C51.4438 28.3376 51.5097 28.4966 51.6269 28.6138C51.7441 28.731 51.9031 28.7969 52.0688 28.7969C52.2346 28.7969 52.3936 28.731 52.5108 28.6138C52.628 28.4966 52.6938 28.3376 52.6938 28.1719C52.6938 28.0061 52.628 27.8471 52.5108 27.7299C52.3936 27.6127 52.2346 27.5469 52.0688 27.5469ZM29.6421 27.8667C29.4763 27.8667 29.3174 27.9325 29.2001 28.0498C29.0829 28.167 29.0171 28.3259 29.0171 28.4917C29.0171 28.6575 29.0829 28.8164 29.2001 28.9336C29.3174 29.0509 29.4763 29.1167 29.6421 29.1167C29.8078 29.1167 29.9668 29.0509 30.084 28.9336C30.2012 28.8164 30.2671 28.6575 30.2671 28.4917C30.2671 28.3259 30.2012 28.167 30.084 28.0498C29.9668 27.9325 29.8078 27.8667 29.6421 27.8667ZM34.4944 27.8667C34.3286 27.8667 34.1697 27.9325 34.0524 28.0498C33.9352 28.167 33.8694 28.3259 33.8694 28.4917C33.8694 28.6575 33.9352 28.8164 34.0524 28.9336C34.1697 29.0509 34.3286 29.1167 34.4944 29.1167C34.6601 29.1167 34.8191 29.0509 34.9363 28.9336C35.0535 28.8164 35.1194 28.6575 35.1194 28.4917C35.1194 28.3259 35.0535 28.167 34.9363 28.0498C34.8191 27.9325 34.6601 27.8667 34.4944 27.8667ZM49.6409 27.8667C49.4751 27.8667 49.3161 27.9325 49.1989 28.0498C49.0817 28.167 49.0159 28.3259 49.0159 28.4917C49.0159 28.6575 49.0817 28.8164 49.1989 28.9336C49.3161 29.0509 49.4751 29.1167 49.6409 29.1167C49.8066 29.1167 49.9656 29.0509 50.0828 28.9336C50.2 28.8164 50.2659 28.6575 50.2659 28.4917C50.2659 28.3259 50.2 28.167 50.0828 28.0498C49.9656 27.9325 49.8066 27.8667 49.6409 27.8667ZM54.4944 27.8679C54.3286 27.8679 54.1697 27.9338 54.0524 28.051C53.9352 28.1682 53.8694 28.3272 53.8694 28.4929C53.8694 28.6587 53.9352 28.8177 54.0524 28.9349C54.1697 29.0521 54.3286 29.1179 54.4944 29.1179C54.6601 29.1179 54.8191 29.0521 54.9363 28.9349C55.0535 28.8177 55.1194 28.6587 55.1194 28.4929C55.1194 28.3272 55.0535 28.1682 54.9363 28.051C54.8191 27.9338 54.6601 27.8679 54.4944 27.8679ZM27.3813 28.803C27.2156 28.803 27.0566 28.8688 26.9394 28.986C26.8222 29.1032 26.7563 29.2622 26.7563 29.428C26.7563 29.5937 26.8222 29.7527 26.9394 29.8699C27.0566 29.9871 27.2156 30.053 27.3813 30.053C27.5471 30.053 27.7061 29.9871 27.8233 29.8699C27.9405 29.7527 28.0063 29.5937 28.0063 29.428C28.0063 29.2622 27.9405 29.1032 27.8233 28.986C27.7061 28.8688 27.5471 28.803 27.3813 28.803ZM47.3801 28.803C47.2144 28.803 47.0554 28.8688 46.9382 28.986C46.821 29.1032 46.7551 29.2622 46.7551 29.428C46.7551 29.5937 46.821 29.7527 46.9382 29.8699C47.0554 29.9871 47.2144 30.053 47.3801 30.053C47.5459 30.053 47.7049 29.9871 47.8221 29.8699C47.9393 29.7527 48.0051 29.5937 48.0051 29.428C48.0051 29.2622 47.9393 29.1032 47.8221 28.986C47.7049 28.8688 47.5459 28.803 47.3801 28.803ZM36.7563 28.8042C36.5906 28.8042 36.4316 28.87 36.3144 28.9873C36.1972 29.1045 36.1313 29.2634 36.1313 29.4292C36.1313 29.595 36.1972 29.7539 36.3144 29.8711C36.4316 29.9884 36.5906 30.0542 36.7563 30.0542C36.9221 30.0542 37.0811 29.9884 37.1983 29.8711C37.3155 29.7539 37.3813 29.595 37.3813 29.4292C37.3813 29.2634 37.3155 29.1045 37.1983 28.9873C37.0811 28.87 36.9221 28.8042 36.7563 28.8042ZM56.7563 28.8042C56.5906 28.8042 56.4316 28.87 56.3144 28.9873C56.1972 29.1045 56.1313 29.2634 56.1313 29.4292C56.1313 29.595 56.1972 29.7539 56.3144 29.8711C56.4316 29.9884 56.5906 30.0542 56.7563 30.0542C56.9221 30.0542 57.0811 29.9884 57.1983 29.8711C57.3155 29.7539 57.3813 29.595 57.3813 29.4292C57.3813 29.2634 57.3155 29.1045 57.1983 28.9873C57.0811 28.87 56.9221 28.8042 56.7563 28.8042ZM25.4392 30.2922C25.2734 30.2922 25.1145 30.3581 24.9973 30.4753C24.8801 30.5925 24.8142 30.7515 24.8142 30.9172C24.8142 31.083 24.8801 31.242 24.9973 31.3592C25.1145 31.4764 25.2734 31.5422 25.4392 31.5422C25.605 31.5422 25.7639 31.4764 25.8812 31.3592C25.9984 31.242 26.0642 31.083 26.0642 30.9172C26.0642 30.7515 25.9984 30.5925 25.8812 30.4753C25.7639 30.3581 25.605 30.2922 25.4392 30.2922ZM38.6973 30.2922C38.5315 30.2922 38.3725 30.3581 38.2553 30.4753C38.1381 30.5925 38.0723 30.7515 38.0723 30.9172C38.0723 31.083 38.1381 31.242 38.2553 31.3592C38.3725 31.4764 38.5315 31.5422 38.6973 31.5422C38.863 31.5422 39.022 31.4764 39.1392 31.3592C39.2564 31.242 39.3223 31.083 39.3223 30.9172C39.3223 30.7515 39.2564 30.5925 39.1392 30.4753C39.022 30.3581 38.863 30.2922 38.6973 30.2922ZM58.6973 30.2922C58.5315 30.2922 58.3725 30.3581 58.2553 30.4753C58.1381 30.5925 58.0723 30.7515 58.0723 30.9172C58.0723 31.083 58.1381 31.242 58.2553 31.3592C58.3725 31.4764 58.5315 31.5422 58.6973 31.5422C58.863 31.5422 59.022 31.4764 59.1392 31.3592C59.2564 31.242 59.3223 31.083 59.3223 30.9172C59.3223 30.7515 59.2564 30.5925 59.1392 30.4753C59.022 30.3581 58.863 30.2922 58.6973 30.2922ZM45.4392 30.2935C45.2734 30.2935 45.1145 30.3593 44.9973 30.4765C44.8801 30.5937 44.8142 30.7527 44.8142 30.9185C44.8142 31.0842 44.8801 31.2432 44.9973 31.3604C45.1145 31.4776 45.2734 31.5435 45.4392 31.5435C45.605 31.5435 45.7639 31.4776 45.8812 31.3604C45.9984 31.2432 46.0642 31.0842 46.0642 30.9185C46.0642 30.7527 45.9984 30.5937 45.8812 30.4765C45.7639 30.3593 45.605 30.2935 45.4392 30.2935ZM23.95 32.2344C23.7842 32.2344 23.6252 32.3002 23.508 32.4174C23.3908 32.5346 23.325 32.6936 23.325 32.8594C23.325 33.0251 23.3908 33.1841 23.508 33.3013C23.6252 33.4185 23.7842 33.4844 23.95 33.4844C24.1157 33.4844 24.2747 33.4185 24.3919 33.3013C24.5091 33.1841 24.575 33.0251 24.575 32.8594C24.575 32.6936 24.5091 32.5346 24.3919 32.4174C24.2747 32.3002 24.1157 32.2344 23.95 32.2344ZM40.1865 32.2344C40.0208 32.2344 39.8618 32.3002 39.7446 32.4174C39.6274 32.5346 39.5615 32.6936 39.5615 32.8594C39.5615 33.0251 39.6274 33.1841 39.7446 33.3013C39.8618 33.4185 40.0208 33.4844 40.1865 33.4844C40.3523 33.4844 40.5113 33.4185 40.6285 33.3013C40.7457 33.1841 40.8115 33.0251 40.8115 32.8594C40.8115 32.6936 40.7457 32.5346 40.6285 32.4174C40.5113 32.3002 40.3523 32.2344 40.1865 32.2344ZM60.1865 32.2344C60.0208 32.2344 59.8618 32.3002 59.7446 32.4174C59.6274 32.5346 59.5615 32.6936 59.5615 32.8594C59.5615 33.0251 59.6274 33.1841 59.7446 33.3013C59.8618 33.4185 60.0208 33.4844 60.1865 33.4844C60.3523 33.4844 60.5113 33.4185 60.6285 33.3013C60.7457 33.1841 60.8115 33.0251 60.8115 32.8594C60.8115 32.6936 60.7457 32.5346 60.6285 32.4174C60.5113 32.3002 60.3523 32.2344 60.1865 32.2344ZM43.95 32.2356C43.7842 32.2356 43.6252 32.3014 43.508 32.4187C43.3908 32.5359 43.325 32.6948 43.325 32.8606C43.325 33.0264 43.3908 33.1853 43.508 33.3025C43.6252 33.4197 43.7842 33.4856 43.95 33.4856C44.1157 33.4856 44.2747 33.4197 44.3919 33.3025C44.5091 33.1853 44.575 33.0264 44.575 32.8606C44.575 32.6948 44.5091 32.5359 44.3919 32.4187C44.2747 32.3014 44.1157 32.2356 43.95 32.2356ZM42.0676 34.4219C41.9019 34.4219 41.7429 34.4877 41.6257 34.6049C41.5085 34.7221 41.4426 34.8811 41.4426 35.0469C41.4426 35.2126 41.5085 35.3716 41.6257 35.4888C41.7429 35.606 41.9019 35.6719 42.0676 35.6719C42.2334 35.6719 42.3924 35.606 42.5096 35.4888C42.6268 35.3716 42.6926 35.2126 42.6926 35.0469C42.6926 34.8811 42.6268 34.7221 42.5096 34.6049C42.3924 34.4877 42.2334 34.4219 42.0676 34.4219ZM23.0137 34.4951C22.8479 34.4951 22.6889 34.561 22.5717 34.6782C22.4545 34.7954 22.3887 34.9544 22.3887 35.1201C22.3887 35.2859 22.4545 35.4448 22.5717 35.5621C22.6889 35.6793 22.8479 35.7451 23.0137 35.7451C23.0957 35.7451 23.177 35.729 23.2528 35.6975C23.3287 35.6661 23.3976 35.6201 23.4556 35.5621C23.5137 35.504 23.5597 35.4351 23.5911 35.3593C23.6225 35.2835 23.6387 35.2022 23.6387 35.1201C23.6387 35.038 23.6225 34.9568 23.5911 34.8809C23.5597 34.8051 23.5137 34.7362 23.4556 34.6782C23.3976 34.6201 23.3287 34.5741 23.2528 34.5427C23.177 34.5113 23.0957 34.4951 23.0137 34.4951ZM61.1228 34.4963C60.957 34.4963 60.7981 34.5622 60.6809 34.6794C60.5637 34.7966 60.4978 34.9556 60.4978 35.1213C60.4978 35.2871 60.5637 35.4461 60.6809 35.5633C60.7981 35.6805 60.957 35.7463 61.1228 35.7463C61.2886 35.7463 61.4475 35.6805 61.5647 35.5633C61.682 35.4461 61.7478 35.2871 61.7478 35.1213C61.7478 34.9556 61.682 34.7966 61.5647 34.6794C61.4475 34.5622 61.2886 34.4963 61.1228 34.4963ZM22.6938 36.9219C22.5281 36.9219 22.3691 36.9877 22.2519 37.1049C22.1347 37.2221 22.0688 37.3811 22.0688 37.5469C22.0688 37.7126 22.1347 37.8716 22.2519 37.9888C22.3691 38.106 22.5281 38.1719 22.6938 38.1719C22.8596 38.1719 23.0186 38.106 23.1358 37.9888C23.253 37.8716 23.3188 37.7126 23.3188 37.5469C23.3188 37.3811 23.253 37.2221 23.1358 37.1049C23.0186 36.9877 22.8596 36.9219 22.6938 36.9219ZM61.4438 36.9219C61.2781 36.9219 61.1191 36.9877 61.0019 37.1049C60.8847 37.2221 60.8188 37.3811 60.8188 37.5469C60.8188 37.7126 60.8847 37.8716 61.0019 37.9888C61.1191 38.106 61.2781 38.1719 61.4438 38.1719C61.6096 38.1719 61.7686 38.106 61.8858 37.9888C62.003 37.8716 62.0688 37.7126 62.0688 37.5469C62.0688 37.3811 62.003 37.2221 61.8858 37.1049C61.7686 36.9877 61.6096 36.9219 61.4438 36.9219ZM61.1228 39.3486C60.957 39.3486 60.7981 39.4145 60.6809 39.5317C60.5637 39.6489 60.4978 39.8079 60.4978 39.9736C60.4978 40.1394 60.5637 40.2984 60.6809 40.4156C60.7981 40.5328 60.957 40.5986 61.1228 40.5986C61.2886 40.5986 61.4475 40.5328 61.5647 40.4156C61.682 40.2984 61.7478 40.1394 61.7478 39.9736C61.7478 39.8079 61.682 39.6489 61.5647 39.5317C61.4475 39.4145 61.2886 39.3486 61.1228 39.3486ZM60.1865 41.6106C60.0208 41.6106 59.8618 41.6764 59.7446 41.7937C59.6274 41.9109 59.5615 42.0698 59.5615 42.2356C59.5615 42.4014 59.6274 42.5603 59.7446 42.6775C59.8618 42.7947 60.0208 42.8606 60.1865 42.8606C60.3523 42.8606 60.5113 42.7947 60.6285 42.6775C60.7457 42.5603 60.8115 42.4014 60.8115 42.2356C60.8115 42.0698 60.7457 41.9109 60.6285 41.7937C60.5113 41.6764 60.3523 41.6106 60.1865 41.6106ZM22.5022 46.2969C27.9822 53.8006 38.8765 61.2068 41.7258 63.0706C42.084 63.3049 42.565 63.1157 42.6731 62.7019C42.7412 62.4413 42.6393 62.1658 42.4131 62.0208C39.29 60.0189 29.5003 53.265 24.0647 46.2969H22.5022Z" fill="#0077B6"/>
<path d="M33.9683 33.7972C33.9471 33.7965 33.9259 33.7969 33.9048 33.7984C33.7712 33.8068 33.6439 33.8578 33.5415 33.9439C33.4391 34.0301 33.3671 34.1468 33.3359 34.2769L30.6394 45.6038L28.8901 41.6683C28.8459 41.5686 28.7764 41.4823 28.6884 41.4178C28.6005 41.3533 28.4972 41.313 28.3889 41.3008C28.2805 41.2886 28.1709 41.3049 28.0708 41.3482C27.9707 41.3914 27.8837 41.4601 27.8184 41.5474L26.1314 43.7972H19.5689C19.486 43.796 19.4038 43.8113 19.327 43.8422C19.2501 43.8731 19.1801 43.9189 19.1212 43.9771C19.0622 44.0352 19.0153 44.1045 18.9834 44.1809C18.9514 44.2574 18.935 44.3394 18.935 44.4222C18.935 44.505 18.9514 44.587 18.9834 44.6634C19.0153 44.7398 19.0622 44.8091 19.1212 44.8673C19.1801 44.9254 19.2501 44.9713 19.327 45.0022C19.4038 45.0331 19.486 45.0484 19.5689 45.0472H26.4439C26.541 45.0472 26.6368 45.0246 26.7237 44.9812C26.8105 44.9378 26.8861 44.8747 26.9443 44.7969L28.1797 43.149L30.2476 47.8011C30.3006 47.9205 30.3898 48.0204 30.5026 48.0865C30.6153 48.1526 30.746 48.1817 30.8761 48.1697C31.0063 48.1577 31.1294 48.1052 31.2282 48.0196C31.327 47.934 31.3964 47.8196 31.4268 47.6924L33.7693 37.8511L35.8237 53.2552C35.8428 53.398 35.9106 53.5298 36.0157 53.6284C36.1207 53.7269 36.2566 53.7862 36.4003 53.7961C36.544 53.806 36.6868 53.7659 36.8044 53.6827C36.9219 53.5995 37.0072 53.4782 37.0457 53.3394L39.6226 44.0621L40.8506 47.7449C40.8912 47.8663 40.968 47.9723 41.0708 48.0486C41.1736 48.1249 41.2973 48.1678 41.4252 48.1716C41.5531 48.1753 41.6791 48.1397 41.7862 48.0695C41.8932 47.9993 41.9761 47.8979 42.0237 47.7791L43.1174 45.0472H44.7385C44.8481 45.2369 45.0055 45.3945 45.1951 45.5042C45.3847 45.6139 45.5998 45.6718 45.8189 45.6722C46.1504 45.6722 46.4683 45.5405 46.7027 45.3061C46.9372 45.0717 47.0689 44.7537 47.0689 44.4222C47.0689 44.0907 46.9372 43.7727 46.7027 43.5383C46.4683 43.3039 46.1504 43.1722 45.8189 43.1722C45.5996 43.1724 45.3843 43.2302 45.1944 43.3399C45.0046 43.4496 44.8469 43.6073 44.7373 43.7972H42.6939C42.569 43.7973 42.447 43.8348 42.3437 43.9049C42.2404 43.9749 42.1604 44.0743 42.114 44.1903L41.4976 45.7308L40.1621 41.7244C40.1197 41.5975 40.0377 41.4875 39.9281 41.4106C39.8185 41.3338 39.6871 41.2942 39.5533 41.2976C39.4195 41.301 39.2903 41.3473 39.1848 41.4296C39.0792 41.512 39.0029 41.626 38.9671 41.755L36.6599 50.0606L34.564 34.3392C34.5445 34.1931 34.474 34.0586 34.365 33.9595C34.256 33.8603 34.1155 33.8028 33.9683 33.7972Z" fill="#51CB20"/>
</svg>
