<svg width="86" height="86" viewBox="0 0 86 86" fill="none" xmlns="http://www.w3.org/2000/svg">
<rect x="0.206207" y="0.796875" width="85" height="85" rx="42.5" fill="#008C99" fill-opacity="0.1"/>
<path d="M38.3914 23.7969C34.3164 23.7969 30.9528 25.0789 28.6209 27.332C26.2896 29.5877 25.0137 32.7981 25.0137 36.5312C25.0137 39.2656 26.0138 41.392 27.1438 43.4258C28.2745 45.457 29.5269 47.4176 30.2176 49.937C31.0013 52.8789 31.5582 56.2281 32.4051 58.9019C32.8301 60.2375 33.3258 61.4115 34.0139 62.3003C34.7021 63.189 35.6558 63.7969 36.8008 63.7969C37.9383 63.7969 38.9537 63.3741 39.6231 62.5591C40.2943 61.746 40.6143 60.6062 40.6143 59.2168C40.6143 55.6718 41.3227 51.014 42.0352 46.9902C42.1789 46.2971 42.6624 46.0356 43.168 46.0356C43.6736 46.0356 44.1224 46.2776 44.2349 46.9683V46.9707L44.2373 46.978C44.953 50.9187 45.6607 55.6668 45.6607 59.2168C45.6607 60.6062 45.9806 61.746 46.6519 62.5591C47.3206 63.3747 48.336 63.7969 49.4766 63.7969C50.6216 63.7969 51.5735 63.1819 52.2622 62.2856C52.951 61.3919 53.4443 60.2107 53.8687 58.8701C54.7181 56.187 55.2724 52.8376 56.0586 49.937V49.9321C56.7474 47.4178 58.0018 45.457 59.1299 43.4258C60.258 41.3945 61.2588 39.2686 61.2613 36.5386V36.5337C61.3025 32.8012 60.048 29.5883 57.7261 27.332C55.4017 25.0764 52.0373 23.7969 47.9629 23.7969C46.1585 23.7969 44.5715 24.0386 43.1778 24.5073C41.7834 24.0386 40.1958 23.7969 38.3914 23.7969ZM38.3914 25.0469C40.1714 25.0469 41.6972 25.284 42.9666 25.7378L43.0691 25.772C43.1329 25.8795 43.2201 25.9746 43.3426 26.0283C43.4257 26.0652 43.5134 26.0796 43.594 26.0796C43.8309 26.0796 44.0627 25.9405 44.1702 25.7036C44.1996 25.6355 44.2098 25.5607 44.2141 25.4875C45.306 25.2 46.5492 25.0469 47.9629 25.0469C51.7785 25.0469 54.7915 26.2286 56.8521 28.2305C58.9152 30.2323 60.05 33.0739 60.0113 36.5239V36.5312H60.01C60.01 38.9631 59.1392 40.8329 58.0386 42.8179C56.9349 44.8004 55.5988 46.8755 54.8513 49.6074H54.8489C54.0408 52.598 53.4798 55.9479 52.6761 58.4941C52.2729 59.766 51.8042 60.8301 51.2698 61.5264C50.7354 62.2226 50.2041 62.5469 49.4766 62.5469C48.6222 62.5469 48.04 62.2831 47.615 61.7656C47.19 61.2481 46.9095 60.413 46.9095 59.2168C46.9095 55.5037 46.1872 50.7283 45.4666 46.7583C45.2591 45.5133 44.1949 44.7856 43.1668 44.7856C42.1368 44.7856 41.0677 45.4963 40.8108 46.7388L40.8084 46.7461L40.8059 46.7559C40.0884 50.804 39.3631 55.5018 39.3631 59.218C39.3631 60.4143 39.0813 61.2493 38.6563 61.7668C38.2313 62.2843 37.6527 62.5469 36.8008 62.5469C36.0683 62.5469 35.5383 62.2243 35.0039 61.5337C34.4696 60.8449 34.0008 59.7878 33.5977 58.5234C32.7946 55.9891 32.233 52.6399 31.4248 49.6099L31.4224 49.6074C30.678 46.8755 29.3389 44.8004 28.2351 42.8179C27.1339 40.8329 26.2637 38.9631 26.2637 36.5312C26.2637 33.0794 27.4175 30.2348 29.49 28.2305C31.5631 26.2286 34.5758 25.0469 38.3914 25.0469ZM45.6302 26.209C45.4714 26.2165 45.3155 26.2872 45.2005 26.4141C44.9686 26.6703 44.9955 27.071 45.2493 27.2954C45.3693 27.4029 45.5217 27.4517 45.6704 27.4517C45.8461 27.4517 46.0148 27.3835 46.1392 27.2466C46.3636 26.9828 46.3468 26.5896 46.083 26.3652C45.9562 26.2502 45.7914 26.199 45.6302 26.209ZM47.4466 28.0083C47.2853 27.9983 47.1218 28.0478 46.9949 28.1597C46.7312 28.384 46.7071 28.7773 46.9314 29.041C47.0521 29.1854 47.2246 29.2534 47.4002 29.2534C47.5489 29.2534 47.6934 29.2021 47.8128 29.1021C48.069 28.8777 48.1007 28.4845 47.8738 28.2207C47.7613 28.0913 47.6078 28.0183 47.4466 28.0083ZM28.1375 36.2969C27.9717 36.2969 27.8128 36.3627 27.6955 36.4799C27.5783 36.5971 27.5125 36.7561 27.5125 36.9219C27.5125 37.0876 27.5783 37.2466 27.6955 37.3638C27.8128 37.481 27.9717 37.5469 28.1375 37.5469C28.3032 37.5469 28.4622 37.481 28.5794 37.3638C28.6966 37.2466 28.7625 37.0876 28.7625 36.9219C28.7625 36.7561 28.6966 36.5971 28.5794 36.4799C28.4622 36.3627 28.3032 36.2969 28.1375 36.2969ZM30.6375 36.2969C30.4717 36.2969 30.3127 36.3627 30.1955 36.4799C30.0783 36.5971 30.0125 36.7561 30.0125 36.9219C30.0125 37.0876 30.0783 37.2466 30.1955 37.3638C30.3127 37.481 30.4717 37.5469 30.6375 37.5469C30.8032 37.5469 30.9622 37.481 31.0794 37.3638C31.1966 37.2466 31.2625 37.0876 31.2625 36.9219C31.2625 36.7561 31.1966 36.5971 31.0794 36.4799C30.9622 36.3627 30.8032 36.2969 30.6375 36.2969ZM33.1375 36.2969C32.9717 36.2969 32.8127 36.3627 32.6955 36.4799C32.5783 36.5971 32.5125 36.7561 32.5125 36.9219C32.5125 37.0876 32.5783 37.2466 32.6955 37.3638C32.8127 37.481 32.9717 37.5469 33.1375 37.5469C33.3032 37.5469 33.4622 37.481 33.5794 37.3638C33.6966 37.2466 33.7625 37.0876 33.7625 36.9219C33.7625 36.7561 33.6966 36.5971 33.5794 36.4799C33.4622 36.3627 33.3032 36.2969 33.1375 36.2969ZM35.6375 36.2969C35.4717 36.2969 35.3127 36.3627 35.1955 36.4799C35.0783 36.5971 35.0125 36.7561 35.0125 36.9219C35.0125 37.0876 35.0783 37.2466 35.1955 37.3638C35.3127 37.481 35.4717 37.5469 35.6375 37.5469C35.8032 37.5469 35.9622 37.481 36.0794 37.3638C36.1966 37.2466 36.2625 37.0876 36.2625 36.9219C36.2625 36.7561 36.1966 36.5971 36.0794 36.4799C35.9622 36.3627 35.8032 36.2969 35.6375 36.2969ZM50.6375 36.2969C50.4717 36.2969 50.3127 36.3627 50.1955 36.4799C50.0783 36.5971 50.0125 36.7561 50.0125 36.9219C50.0125 37.0876 50.0783 37.2466 50.1955 37.3638C50.3127 37.481 50.4717 37.5469 50.6375 37.5469C50.8032 37.5469 50.9622 37.481 51.0794 37.3638C51.1966 37.2466 51.2625 37.0876 51.2625 36.9219C51.2625 36.7561 51.1966 36.5971 51.0794 36.4799C50.9622 36.3627 50.8032 36.2969 50.6375 36.2969ZM53.1375 36.2969C52.9717 36.2969 52.8127 36.3627 52.6955 36.4799C52.5783 36.5971 52.5125 36.7561 52.5125 36.9219C52.5125 37.0876 52.5783 37.2466 52.6955 37.3638C52.8127 37.481 52.9717 37.5469 53.1375 37.5469C53.3032 37.5469 53.4622 37.481 53.5794 37.3638C53.6966 37.2466 53.7625 37.0876 53.7625 36.9219C53.7625 36.7561 53.6966 36.5971 53.5794 36.4799C53.4622 36.3627 53.3032 36.2969 53.1375 36.2969ZM55.6375 36.2969C55.4717 36.2969 55.3127 36.3627 55.1955 36.4799C55.0783 36.5971 55.0125 36.7561 55.0125 36.9219C55.0125 37.0876 55.0783 37.2466 55.1955 37.3638C55.3127 37.481 55.4717 37.5469 55.6375 37.5469C55.8032 37.5469 55.9622 37.481 56.0794 37.3638C56.1966 37.2466 56.2625 37.0876 56.2625 36.9219C56.2625 36.7561 56.1966 36.5971 56.0794 36.4799C55.9622 36.3627 55.8032 36.2969 55.6375 36.2969ZM58.1375 36.2969C57.9717 36.2969 57.8127 36.3627 57.6955 36.4799C57.5783 36.5971 57.5125 36.7561 57.5125 36.9219C57.5125 37.0876 57.5783 37.2466 57.6955 37.3638C57.8127 37.481 57.9717 37.5469 58.1375 37.5469C58.3032 37.5469 58.4622 37.481 58.5794 37.3638C58.6966 37.2466 58.7625 37.0876 58.7625 36.9219C58.7625 36.7561 58.6966 36.5971 58.5794 36.4799C58.4622 36.3627 58.3032 36.2969 58.1375 36.2969Z" fill="#0077B6"/>
<path d="M40.0125 31.2969C38.6337 31.2969 37.5125 32.4181 37.5125 33.7969V40.0469C37.5125 41.4256 38.6337 42.5469 40.0125 42.5469H46.2625C47.6412 42.5469 48.7625 41.4256 48.7625 40.0469V33.7969C48.7625 32.4181 47.6412 31.2969 46.2625 31.2969H40.0125ZM40.0125 32.5469H46.2625C46.9519 32.5469 47.5125 33.1075 47.5125 33.7969V36.2969H38.7625V33.7969C38.7625 33.1075 39.3231 32.5469 40.0125 32.5469ZM40.0125 33.7969V35.0469H41.2625V33.7969H40.0125ZM45.0125 33.7969V35.0469H46.2625V33.7969H45.0125ZM38.7625 37.5469H47.5125V40.0469C47.5125 40.7362 46.9519 41.2969 46.2625 41.2969H40.0125C39.3231 41.2969 38.7625 40.7362 38.7625 40.0469V37.5469ZM40.0125 38.7969V40.0469H41.2625V38.7969H40.0125ZM45.0125 38.7969V40.0469H46.2625V38.7969H45.0125Z" fill="#51CB20"/>
</svg>
