<svg width="86" height="86" viewBox="0 0 86 86" fill="none" xmlns="http://www.w3.org/2000/svg">
<rect x="0.343628" y="0.796875" width="85" height="85" rx="42.5" fill="#008C99" fill-opacity="0.1"/>
<path d="M42.6511 23.1987C35.6171 23.1987 30.403 29.2646 30.3501 36.1516C28.7434 37.5316 27.6499 39.3603 27.6499 41.7852C27.6499 43.7159 28.3386 45.0246 29.0732 45.8306C28.2046 46.1287 27.5608 46.9206 27.5608 47.874C27.5608 48.368 27.7202 48.8481 27.8586 49.3145C27.9279 49.5476 27.9948 49.767 28.0417 49.9382C28.0887 50.1094 28.1052 50.2678 28.1052 50.2007C28.1052 51.2705 29.0187 52.1184 30.0913 52.1184C30.0982 52.1181 30.1052 52.1177 30.1121 52.1172C30.2379 52.8529 30.4954 54.1191 31.2095 55.8953C30.9351 56.3811 30.7749 56.9422 30.7749 57.5469C30.7749 59.2364 31.999 60.6033 33.5837 60.8745C33.8344 62.5048 35.1487 63.7969 36.8162 63.7969C37.2681 63.7969 37.6982 63.7018 38.0906 63.5332C38.7909 63.8319 39.5486 64.0714 40.366 64.2314C40.5782 64.2735 40.8432 64.4245 41.1899 64.6184C41.5097 64.7972 41.9219 65.002 42.4314 65.0347C42.474 65.0432 42.5174 65.0473 42.5608 65.0469C42.605 65.0475 42.6492 65.0434 42.6926 65.0347C43.2009 65.0014 43.6124 64.7969 43.9316 64.6184C44.2791 64.4242 44.5431 64.2719 44.7556 64.2302C45.6727 64.0502 46.5155 63.7746 47.2849 63.4233C47.3561 63.3913 47.4207 63.3461 47.4753 63.2903C47.9644 63.583 48.5007 63.7969 49.1074 63.7969C50.3877 63.7969 51.3964 62.9757 51.9517 61.8938C53.7314 61.8161 55.1499 60.3147 55.1499 58.4844C55.1499 57.3709 54.5506 56.4706 53.7424 55.8415C53.7909 55.7645 53.8332 55.6837 53.8767 55.6035C54.0081 55.5269 54.1071 55.4049 54.155 55.2605C54.682 53.809 54.8955 52.7872 55.0132 52.1184C55.0189 52.1185 55.0246 52.1185 55.0303 52.1184C56.1029 52.1184 57.0164 51.2705 57.0164 50.2007C57.0164 50.2678 57.0317 50.1094 57.0786 49.9382C57.1255 49.767 57.1937 49.5476 57.2629 49.3145C57.4014 48.8481 57.5608 48.368 57.5608 47.874C57.5608 46.8486 56.8161 46.0077 55.8469 45.7708C55.9647 45.6184 56.0839 45.457 56.2021 45.2739C56.9343 44.1407 57.6499 42.3774 57.6499 39.8955C57.6499 34.7888 54.172 32.2439 53.1272 31.5923C53.1404 31.4149 53.1577 31.2395 53.1577 31.0576C53.1577 28.4965 51.8862 26.9063 50.6394 26.0564C49.6532 25.3841 48.6891 25.1303 48.3176 25.0505C48.1405 24.8921 47.7395 24.554 46.9749 24.1692C46.0017 23.6794 44.5529 23.1987 42.6511 23.1987ZM42.6511 24.4487C44.3431 24.4487 45.5884 24.8716 46.4121 25.2861C47.1808 25.673 47.5141 25.9956 47.5596 26.0405C47.6401 26.1323 47.7458 26.1985 47.8635 26.231C47.8824 26.2363 47.9016 26.2408 47.9209 26.2444C47.9217 26.2448 47.9225 26.2452 47.9233 26.2456C47.9246 26.2456 47.9258 26.2456 47.927 26.2456C47.9327 26.2469 47.9384 26.2481 47.9441 26.2493C47.9441 26.2493 48.9356 26.4078 49.9351 27.0891C50.9345 27.7705 51.9077 28.8925 51.9077 31.0576C51.9077 31.5307 51.8547 31.9766 51.7527 32.4004C51.7301 32.4818 51.7243 32.5669 51.7356 32.6506L51.6575 33.0889L52.0396 33.4978L52.2568 33.5369L52.7573 33.2866L52.8098 32.9949C52.8351 32.9681 52.858 32.9391 52.8782 32.9082C54.0355 33.7163 56.3999 35.8579 56.3999 39.8955C56.3999 42.1398 55.7677 43.6428 55.1523 44.5952C54.7866 45.1612 54.6759 45.1794 54.4565 45.3765C54.0974 44.7856 53.5288 43.9946 52.5046 43.0596C51.038 41.7206 48.7395 40.2479 45.3135 39.2217C45.9907 39.0216 46.6482 38.7934 47.2703 38.5271C47.349 38.4972 47.4208 38.4516 47.4815 38.3932C47.5422 38.3349 47.5904 38.2648 47.6233 38.1873C47.6563 38.1098 47.6732 38.0265 47.6731 37.9423C47.673 37.8581 47.6559 37.7747 47.6229 37.6973C47.5898 37.6199 47.5414 37.5499 47.4806 37.4916C47.4198 37.4334 47.3479 37.388 47.2691 37.3582C47.1904 37.3284 47.1064 37.3149 47.0223 37.3183C46.9381 37.3218 46.8556 37.3422 46.7795 37.3784C45.51 37.9218 44.0681 38.3241 42.5474 38.5796C42.547 38.5797 42.5465 38.5795 42.5461 38.5796C42.5433 38.58 42.5404 38.5804 42.5376 38.5808C42.5352 38.5812 42.5327 38.5816 42.5303 38.582C42.5233 38.5835 42.5164 38.5852 42.5095 38.5869C37.5702 39.5534 34.5374 41.4134 32.7476 43.062C31.5843 44.1334 31.0542 44.9657 30.7419 45.5413C30.537 45.4372 30.4226 45.4373 30.0706 45.0749C29.4945 44.482 28.8999 43.505 28.8999 41.7852C28.8999 38.9477 30.5295 37.2154 32.9526 35.8708C33.078 35.8039 33.1768 35.6961 33.2328 35.5654C33.2887 35.4347 33.2984 35.2889 33.2603 35.1519C33.2222 35.015 33.1385 34.8951 33.0231 34.8121C32.9077 34.7291 32.7675 34.6879 32.6255 34.6953C32.5276 34.7004 32.4322 34.7284 32.3472 34.7771C32.1055 34.9112 31.875 35.0585 31.644 35.2056C32.1332 29.3532 36.6594 24.4487 42.6511 24.4487ZM47.623 27.4431L47.1226 27.6946L47.0237 28.2451L47.4058 28.6541L47.623 28.6931L48.1235 28.4429L48.2224 27.8911L47.8403 27.4822L47.623 27.4431ZM46.1216 29.4133L45.6211 29.6636L45.5222 30.2153L45.9043 30.6243L46.1216 30.6633L46.6221 30.4119L46.7209 29.8613L46.3376 29.4524L46.1216 29.4133ZM43.9805 30.6816L43.4788 30.9319L43.3811 31.4836L43.7632 31.8926L43.9805 31.9316L44.481 31.6802L44.5798 31.1296L44.1965 30.7207L43.9805 30.6816ZM41.6172 31.4946L41.1167 31.7461L41.0178 32.2966L41.3999 32.7056L41.6172 32.7446L42.1177 32.4944L42.2166 31.9426L41.8345 31.5337L41.6172 31.4946ZM39.2209 32.2075L38.7205 32.4578L38.6216 33.0095L39.0037 33.4185L39.2209 33.4575L39.7214 33.2061L39.8203 32.6555L39.4382 32.2466L39.2209 32.2075ZM36.832 32.9448L36.3315 33.1963L36.2327 33.7468L36.616 34.1558L36.832 34.1948L37.3337 33.9446L37.4314 33.3928L37.0493 32.9839L36.832 32.9448ZM34.4932 33.8237L33.9927 34.074L33.8938 34.6257L34.2759 35.0347L34.4932 35.0737L34.9937 34.8223L35.0925 34.2717L34.7092 33.8628L34.4932 33.8237ZM51.0691 34.467L50.5674 34.7185L50.4697 35.269L50.8518 35.6792L51.0691 35.717L51.5696 35.4668L51.6685 34.915L51.2852 34.5061L51.0691 34.467ZM49.2148 36.1309L48.7131 36.3811L48.6155 36.9329L48.9976 37.3418L49.2148 37.3809L49.7153 37.1294L49.8142 36.5789L49.4309 36.1699L49.2148 36.1309ZM42.6487 39.8369C47.2639 40.7686 50.0385 42.5012 51.6624 43.9836C53.0235 45.2263 53.5403 46.2069 53.6838 46.5178C53.6742 46.6256 53.6928 46.734 53.7376 46.8324C53.7824 46.9308 53.852 47.016 53.9396 47.0794C54.0272 47.1429 54.1298 47.1826 54.2373 47.1945C54.3448 47.2065 54.4536 47.1904 54.553 47.1477C54.878 47.0179 55.1846 46.9475 55.3013 46.9475C55.8829 46.9475 56.3108 47.3736 56.3108 47.874C56.3108 48.0051 56.198 48.5073 56.0642 48.958C55.9973 49.1833 55.9289 49.4062 55.8738 49.6074C55.8186 49.8087 55.7664 49.9533 55.7664 50.2007C55.7664 50.5394 55.483 50.8144 55.0901 50.8464L54.752 50.7146C54.663 50.68 54.5674 50.6663 54.4723 50.6744C54.3773 50.6825 54.2853 50.7123 54.2036 50.7614C54.1218 50.8105 54.0524 50.8777 54.0006 50.9579C53.9488 51.038 53.916 51.1289 53.9048 51.2236C53.9048 51.2236 53.8369 51.7281 53.6631 52.4968C53.1382 51.7756 52.3108 51.2969 51.3657 51.2969C49.8117 51.2969 48.5752 52.5802 48.5081 54.1411C46.9843 54.2264 45.7749 55.5118 45.7749 57.0781C45.7749 57.6682 45.9836 58.1919 46.2742 58.6528C45.9834 59.1587 45.7749 59.7254 45.7749 60.3594C45.7749 61.1243 46.0674 61.8008 46.4841 62.376C45.8731 62.6338 45.2342 62.8635 44.5151 63.0046C44.002 63.1054 43.6297 63.3547 43.3213 63.5271C43.0129 63.6995 42.7893 63.7969 42.5608 63.7969C42.3318 63.7969 42.1073 63.6994 41.7991 63.5271C41.4908 63.3548 41.1196 63.1054 40.6064 63.0046C40.606 63.0046 40.6056 63.0046 40.6052 63.0046C40.1395 62.9135 39.7052 62.787 39.2856 62.6445C39.8179 62.0333 40.1499 61.2354 40.1499 60.3594C40.1499 59.653 39.8967 59.0283 39.5408 58.4844C39.8967 57.9404 40.1499 57.3157 40.1499 56.6094C40.1499 55.2817 39.3905 54.1586 38.303 53.5894C38.195 52.3269 37.1896 51.2969 35.9141 51.2969C34.5659 51.2969 33.4824 52.4361 33.4824 53.7969V54.2412C32.9897 54.3421 32.5409 54.5578 32.1494 54.8467C31.4097 52.813 31.2168 51.2236 31.2168 51.2236C31.2056 51.1289 31.1728 51.038 31.121 50.9579C31.0692 50.8777 30.9998 50.8105 30.918 50.7614C30.8362 50.7123 30.7443 50.6825 30.6492 50.6744C30.5542 50.6663 30.4585 50.68 30.3696 50.7146L30.0315 50.8464C29.6385 50.8144 29.3552 50.5394 29.3552 50.2007C29.3552 49.9533 29.303 49.8087 29.2478 49.6074C29.1927 49.4062 29.1243 49.1833 29.0574 48.958C28.9236 48.5073 28.8108 48.0051 28.8108 47.874C28.8108 47.3736 29.2375 46.9475 29.8191 46.9475C29.9358 46.9475 30.2424 47.0179 30.5674 47.1477C30.6876 47.1955 30.8196 47.2049 30.9453 47.1745C31.071 47.1441 31.1842 47.0754 31.2693 46.978C31.4017 46.906 31.5035 46.7885 31.5562 46.6472C31.5562 46.6472 31.9733 45.4746 33.5947 43.9812C35.2015 42.5012 37.9752 40.7692 42.6487 39.8369ZM35.9141 52.5469C36.5609 52.5469 37.0945 53.0864 37.0945 53.7969C37.0945 53.7668 37.0887 53.8033 37.0798 53.9153C37.0693 54.0516 37.1036 54.1875 37.1777 54.3024C37.2518 54.4173 37.3615 54.5047 37.49 54.5513C38.2998 54.844 38.8999 55.6396 38.8999 56.6094C38.8999 57.1773 38.6896 57.683 38.3494 58.0754C38.2511 58.189 38.197 58.3342 38.197 58.4844C38.197 58.6346 38.2511 58.7797 38.3494 58.8933C38.6896 59.2857 38.8999 59.7914 38.8999 60.3594C38.8999 61.5878 37.9611 62.5469 36.8162 62.5469C35.6712 62.5469 34.7324 61.588 34.7324 60.3594C34.7324 60.1936 34.6666 60.0347 34.5493 59.9174C34.4321 59.8002 34.2732 59.7344 34.1074 59.7344C32.9625 59.7344 32.0249 58.7755 32.0249 57.5469C32.0249 56.3183 32.9625 55.3594 34.1074 55.3594C34.2732 55.3594 34.4321 55.2935 34.5493 55.1763C34.6666 55.0591 34.7324 54.9001 34.7324 54.7344V53.7969C34.7324 53.0864 35.2672 52.5469 35.9141 52.5469ZM51.3657 52.5469C52.2621 52.5469 52.9978 53.2956 52.9978 54.2656C52.9978 54.7548 52.8043 55.1873 52.4998 55.4973C52.4302 55.5683 52.3786 55.6548 52.3491 55.7497C52.3197 55.8446 52.3133 55.9451 52.3305 56.043C52.3477 56.1408 52.388 56.2332 52.448 56.3123C52.508 56.3915 52.586 56.4553 52.6755 56.4983C53.3882 56.84 53.8999 57.59 53.8999 58.4844C53.8999 59.713 52.9623 60.6719 51.8174 60.6719C51.8429 60.6719 51.8028 60.6661 51.6904 60.6597C51.5539 60.6519 51.4186 60.6892 51.3053 60.7657C51.192 60.8422 51.1068 60.9537 51.063 61.0832C50.773 61.944 50.0107 62.5469 49.1074 62.5469C47.9625 62.5469 47.0249 61.588 47.0249 60.3594C47.0249 59.8493 47.1969 59.3898 47.4814 59.0117C47.5674 58.8975 47.6116 58.7573 47.6067 58.6145C47.6018 58.4717 47.5481 58.3349 47.4546 58.2268C47.1886 57.9195 47.0249 57.5235 47.0249 57.0781C47.0249 56.1081 47.7598 55.3594 48.657 55.3594H49.1086C49.2744 55.3594 49.4334 55.2935 49.5506 55.1763C49.6678 55.0591 49.7336 54.9001 49.7336 54.7344V54.2656C49.7336 53.2956 50.4693 52.5469 51.3657 52.5469Z" fill="#0077B6"/>
<path d="M60.5666 50.6718C59.7853 50.6718 59.1199 50.9873 58.6928 51.4677C58.2658 51.9481 58.0666 52.5642 58.0666 53.1718C58.0666 53.7794 58.2658 54.3955 58.6928 54.8759C59.1199 55.3563 59.7853 55.6718 60.5666 55.6718C61.3478 55.6718 62.0133 55.3563 62.4404 54.8759C62.8674 54.3955 63.0666 53.7794 63.0666 53.1718C63.0666 52.5642 62.8674 51.9481 62.4404 51.4677C62.0133 50.9873 61.3478 50.6718 60.5666 50.6718ZM25.2541 51.9218C25.0054 51.9218 24.767 52.0206 24.5912 52.1964C24.4154 52.3722 24.3166 52.6107 24.3166 52.8593C24.3166 53.1079 24.4154 53.3464 24.5912 53.5222C24.767 53.698 25.0054 53.7968 25.2541 53.7968C25.5027 53.7968 25.7412 53.698 25.917 53.5222C26.0928 53.3464 26.1916 53.1079 26.1916 52.8593C26.1916 52.6107 26.0928 52.3722 25.917 52.1964C25.7412 52.0206 25.5027 51.9218 25.2541 51.9218ZM60.5666 51.9218C61.0353 51.9218 61.3074 52.0751 61.5053 52.2978C61.7033 52.5205 61.8166 52.8419 61.8166 53.1718C61.8166 53.5017 61.7033 53.8231 61.5053 54.0458C61.3074 54.2685 61.0353 54.4218 60.5666 54.4218C60.0978 54.4218 59.8258 54.2685 59.6279 54.0458C59.4299 53.8231 59.3166 53.5017 59.3166 53.1718C59.3166 52.8419 59.4299 52.5205 59.6279 52.2978C59.8258 52.0751 60.0978 51.9218 60.5666 51.9218ZM23.6916 57.5468C22.9103 57.5468 22.2449 57.8623 21.8178 58.3427C21.3908 58.8231 21.1916 59.4392 21.1916 60.0468C21.1916 60.6544 21.3908 61.2705 21.8178 61.7509C22.2449 62.2313 22.9103 62.5468 23.6916 62.5468C24.4728 62.5468 25.1383 62.2313 25.5654 61.7509C25.9924 61.2705 26.1916 60.6544 26.1916 60.0468C26.1916 59.4392 25.9924 58.8231 25.5654 58.3427C25.1383 57.8623 24.4728 57.5468 23.6916 57.5468ZM23.6916 58.7968C24.1603 58.7968 24.4324 58.9501 24.6303 59.1728C24.8283 59.3955 24.9416 59.7169 24.9416 60.0468C24.9416 60.3767 24.8283 60.6981 24.6303 60.9208C24.4324 61.1435 24.1603 61.2968 23.6916 61.2968C23.2228 61.2968 22.9508 61.1435 22.7529 60.9208C22.5549 60.6981 22.4416 60.3767 22.4416 60.0468C22.4416 59.7169 22.5549 59.3955 22.7529 59.1728C22.9508 58.9501 23.2228 58.7968 23.6916 58.7968ZM62.1291 60.6718C61.8804 60.6718 61.642 60.7706 61.4662 60.9464C61.2904 61.1222 61.1916 61.3607 61.1916 61.6093C61.1916 61.8579 61.2904 62.0964 61.4662 62.2722C61.642 62.448 61.8804 62.5468 62.1291 62.5468C62.3777 62.5468 62.6162 62.448 62.792 62.2722C62.9678 62.0964 63.0666 61.8579 63.0666 61.6093C63.0666 61.3607 62.9678 61.1222 62.792 60.9464C62.6162 60.7706 62.3777 60.6718 62.1291 60.6718Z" fill="#51CB20"/>
<path d="M37.0523 46.3076C37.5945 46.0151 38.222 45.9697 38.8008 46.1776L40.8174 46.8924C40.9941 46.9574 41.1891 46.9119 41.3292 46.782C41.4693 46.652 41.5302 46.4505 41.4937 46.2556C41.4571 46.0606 41.3231 45.9047 41.1464 45.8397L39.1298 45.1249C38.2952 44.8259 37.3813 44.8974 36.5893 45.3198C36.4187 45.4043 36.309 45.5862 36.2968 45.7812C36.2847 45.9826 36.376 46.1711 36.5284 46.2816C36.6868 46.3856 36.8878 46.3985 37.0523 46.3076Z" fill="#51CB20"/>
<path d="M45.1485 46.9216C45.2704 46.9216 45.1485 46.9539 47.3308 46.178C47.9039 45.971 48.5378 46.0163 49.0804 46.3073C49.245 46.3978 49.4461 46.3849 49.6046 46.275C49.7631 46.165 49.8485 45.9775 49.8363 45.7771C49.8241 45.5766 49.7144 45.402 49.5437 45.3179C48.7573 44.8976 47.8368 44.8265 47.0017 45.124L44.9839 45.8353C44.7401 45.9193 44.5938 46.178 44.6365 46.4431C44.6791 46.7211 44.8986 46.9216 45.1485 46.9216Z" fill="#51CB20"/>
<path d="M40.956 48.4197C40.8644 48.1447 40.5714 48.0041 40.2966 48.0958C40.2783 48.1019 38.5018 48.6825 37.1283 47.6497C36.9207 47.4969 36.6338 47.5152 36.4506 47.6986C36.2675 47.888 36.0294 48.0164 35.773 48.0714C35.4861 48.0714 35.2541 48.3036 35.2541 48.5909C35.2541 48.8781 35.4861 49.1103 35.773 49.1103C36.1637 49.092 36.5361 48.9514 36.8474 48.7131C36.9268 48.762 37.0062 48.8048 37.0855 48.8414C37.0184 48.9453 36.9268 49.037 36.8169 49.1103C36.53 49.1103 36.298 49.3426 36.298 49.6298C36.298 50.2716 37.2626 50.516 38.105 49.202C38.9414 49.3732 39.8144 49.3304 40.6324 49.0798C40.901 48.982 41.0475 48.6886 40.956 48.4197Z" fill="#51CB20"/>
<path d="M49.009 47.6492C47.6401 48.6768 45.8739 48.108 45.8373 48.0957C45.5623 48.004 45.2689 48.1508 45.1773 48.4199C45.0856 48.689 45.2323 48.9888 45.5012 49.0805C46.3201 49.3313 47.1879 49.3741 48.0312 49.2029C48.294 49.6127 48.7524 50.151 49.3207 50.151C49.614 50.151 49.8463 49.9185 49.8524 49.631C49.8524 49.4965 49.8035 49.3619 49.7057 49.264C49.6079 49.1662 49.4796 49.1111 49.339 49.1111C49.2229 49.0438 49.1251 48.9521 49.0518 48.842C49.1313 48.7992 49.2107 48.7624 49.284 48.7135C49.5957 48.9521 49.9685 49.0866 50.3596 49.1111C50.6469 49.1111 50.8791 48.8787 50.8791 48.5912C50.8791 48.3037 50.6469 48.0713 50.3596 48.0713C50.103 48.0223 49.8646 47.8877 49.6874 47.7042C49.504 47.5146 49.2168 47.4963 49.009 47.6492Z" fill="#51CB20"/>
<path d="M41.6775 56.7058C42.5193 57.2716 43.6126 57.2716 44.4544 56.7058C44.5688 56.6276 44.6374 56.4942 44.6283 56.3517C44.6191 56.2137 44.5368 56.0895 44.4133 56.0251C44.2897 55.9607 44.1388 55.9745 44.0244 56.0527C43.448 56.439 42.6931 56.439 42.1167 56.0527C41.9382 55.9331 41.6958 55.9791 41.5768 56.1631C41.4487 56.3425 41.4945 56.5862 41.6775 56.7058Z" fill="#51CB20"/>
</svg>
