<svg width="86" height="86" viewBox="0 0 86 86" fill="none" xmlns="http://www.w3.org/2000/svg">
<rect x="0.0687561" y="0.796875" width="85" height="85" rx="42.5" fill="#008C99" fill-opacity="0.1"/>
<path d="M47.8519 21.2969C43.7851 21.2969 41.3945 24.1718 41.2218 27.1379L39.7642 29.5964C39.3964 30.2181 39.6339 31.0331 40.2816 31.3616C40.2949 31.3686 40.3084 31.3751 40.3222 31.3811L41.1111 31.7119V32.4419C41.0999 32.5094 41.0999 32.5783 41.1111 32.6458V33.1719C41.1111 33.9285 41.4959 34.5828 42.0279 35.0103C42.56 35.4377 43.2401 35.6719 43.9426 35.6719H44.2573V35.9233C43.2118 36.4636 40.9975 37.6638 40.858 37.7397C38.917 37.7661 37.1203 38.1433 35.7578 39.0801C34.3466 40.0504 33.4523 41.6408 33.4523 43.7322C33.4523 44.7515 33.5954 45.5406 33.703 46.1162C33.8107 46.6918 33.8294 47.0354 33.8087 47.0977C33.8083 47.0993 33.8079 47.1009 33.8075 47.1025C33.7915 47.1518 33.6423 47.4844 33.4536 47.907C33.2648 48.3295 33.0294 48.8803 32.7998 49.533C32.3405 50.8383 31.9026 52.5552 31.9026 54.5098C31.9027 54.6189 31.9315 54.7262 31.9863 54.8209C32.0411 54.9155 32.1198 54.9943 32.2148 55.0493L36.3907 57.4626C36.4864 57.5177 36.5949 57.5467 36.7054 57.5469H36.7066H36.7078C36.8679 57.5463 37.0217 57.4852 37.1379 57.376C37.1426 57.3718 37.1494 57.3705 37.1539 57.3662C37.1584 57.3615 37.1607 57.3551 37.165 57.3503C37.2748 57.2343 37.3359 57.0811 37.3358 56.9219V56.9194C37.3349 56.7615 37.2739 56.6097 37.165 56.4946C37.1604 56.4893 37.1586 56.4827 37.1539 56.4775C37.147 56.4707 37.1378 56.4669 37.1306 56.4604C37.0975 56.4302 37.0612 56.4036 37.0224 56.3811L37.0064 56.3713L37.004 56.3701H37.0028L33.1955 54.1704C33.2445 52.5471 33.5882 51.0788 33.9869 49.9456C34.2008 49.3375 34.4221 48.8206 34.6039 48.4136C34.7849 48.0081 34.9194 47.7504 35.0045 47.4895V47.4883C35.189 46.9305 35.0457 46.4566 34.9394 45.8879C34.8329 45.3189 34.7108 44.6373 34.7108 43.7322C34.7108 41.9741 35.3666 40.8696 36.4743 40.1079C37.582 39.3462 39.2033 38.9678 41.0571 38.9678C41.1627 38.9678 41.2667 38.9413 41.3594 38.8909C41.3594 38.8909 44.449 37.213 45.1679 36.856C45.2724 36.804 45.3603 36.7242 45.4218 36.6255C45.4832 36.5267 45.5157 36.4129 45.5157 36.2969V35.0469C45.5157 34.8811 45.4494 34.7222 45.3314 34.605C45.2134 34.4877 45.0534 34.4219 44.8865 34.4219H43.9426C43.5321 34.4219 43.1102 34.2722 42.8194 34.0386C42.5286 33.8049 42.3696 33.5208 42.3696 33.1719H45.0204C46.3439 33.1719 47.4034 34.2242 47.4034 35.5388V45.0469C47.403 45.0899 47.4071 45.1329 47.4157 45.175C47.4112 45.2363 47.4034 45.2966 47.4034 45.3594C47.4034 46.6094 47.3796 48.0525 47.047 48.9775C46.8807 49.4401 46.66 49.749 46.3735 49.926C46.117 50.0846 45.7576 50.1644 45.2011 50.0847C44.48 49.3011 43.5348 48.9029 42.6535 49.1765C41.6994 49.4727 41.1111 50.5156 41.1111 51.9219C41.1111 53.276 41.4484 54.5134 42.1926 55.4375C42.9369 56.3616 44.1 56.9219 45.5157 56.9219H50.2349C50.7639 56.9219 51.1787 57.3339 51.1787 57.8594C51.1787 58.3849 50.7639 58.7969 50.2349 58.7969H46.4595C45.2507 58.7969 44.2573 59.7836 44.2573 60.9844C44.2573 62.1851 45.2507 63.1719 46.4595 63.1719H48.6618C49.3645 63.1719 49.9203 63.724 49.9203 64.4219V65.0469H43.6243C43.5005 64.9495 42.9549 64.5294 42.2897 63.8323C41.5529 63.06 40.9121 62.051 40.9121 61.5618C40.9121 61.1784 41.1633 60.3647 41.2451 59.2375C41.3269 58.1104 41.2029 56.6478 40.434 54.8076C40.3871 54.6905 40.3058 54.5901 40.2005 54.5198C40.0952 54.4494 39.971 54.4123 39.8441 54.4133C39.7402 54.4142 39.6382 54.4405 39.5471 54.49C39.456 54.5395 39.3787 54.6107 39.3219 54.6971C39.2652 54.7835 39.231 54.8825 39.2221 54.9853C39.2133 55.0881 39.2302 55.1914 39.2714 55.2861C39.9699 56.9578 40.0605 58.1808 39.9903 59.1472C39.9202 60.1136 39.6536 60.8026 39.6536 61.5618C39.6536 62.7956 40.5621 63.8406 41.3754 64.6929C42.1886 65.5452 42.9976 66.1663 42.9976 66.1663C43.1077 66.2509 43.243 66.2968 43.3822 66.2969H50.4438C50.5117 66.308 50.5811 66.308 50.649 66.2969H52.6842C52.8234 66.2968 52.9587 66.2509 53.0688 66.1663C53.0688 66.1663 53.8778 65.5452 54.6911 64.6929C55.5043 63.8405 56.4128 62.7955 56.4128 61.5618C56.4128 60.8026 56.1464 60.1136 56.0761 59.1472C56.0058 58.1808 56.0959 56.9582 56.7938 55.2861C56.8268 55.2101 56.8442 55.1283 56.8451 55.0454C56.846 54.9626 56.8303 54.8805 56.799 54.8037C56.7676 54.727 56.7212 54.6572 56.6625 54.5984C56.6037 54.5396 56.5338 54.493 56.4568 54.4613C56.3797 54.4296 56.2971 54.4134 56.2138 54.4137C56.1304 54.414 56.0479 54.4307 55.9711 54.4629C55.8943 54.4952 55.8246 54.5422 55.7663 54.6014C55.708 54.6606 55.662 54.7307 55.6312 54.8076C54.863 56.6481 54.7393 58.1105 54.8213 59.2375C54.9033 60.3646 55.1544 61.1784 55.1544 61.5618C55.1544 62.0506 54.5136 63.0599 53.7767 63.8323C53.1115 64.5295 52.5659 64.9495 52.4421 65.0469H51.1787V64.4219C51.1787 63.0485 50.0444 61.9219 48.6618 61.9219H46.4595C45.9305 61.9219 45.5157 61.5099 45.5157 60.9844C45.5157 60.4589 45.9305 60.0469 46.4595 60.0469H50.2349C51.4437 60.0469 52.4372 59.0601 52.4372 57.8594C52.4372 56.6586 51.4437 55.6719 50.2349 55.6719H45.5157C44.4146 55.6719 43.69 55.2947 43.1758 54.6562C42.6616 54.0178 42.3696 53.0677 42.3696 51.9219C42.3696 50.8281 42.7252 50.4648 43.0295 50.3704C43.3339 50.2759 43.8743 50.4162 44.3949 51.0625C44.3961 51.0637 44.3974 51.0649 44.3986 51.0662C45.7212 53.0103 47.2811 53.7969 49.291 53.7969C50.7592 53.7969 51.9347 53.0208 52.6522 51.9072C53.3697 50.7936 53.6956 49.3582 53.6956 47.8594C53.6956 45.2934 52.2695 43.6755 50.7375 43.1999C50.3545 43.0811 49.9623 43.0298 49.5835 43.0535C49.2614 43.0736 48.9502 43.1518 48.6618 43.2866V35.5388C48.6618 33.5484 47.0243 31.9219 45.0204 31.9219H42.3696V31.2969C42.3696 31.1739 42.3332 31.0536 42.2648 30.9512C42.1963 30.8487 42.099 30.7685 41.9849 30.7207L40.8531 30.2458C40.849 30.242 40.8464 30.2351 40.8494 30.23H40.8482L42.3389 27.7166C42.3943 27.6233 42.4244 27.5173 42.4261 27.4089C42.459 24.985 44.2614 22.5469 47.8519 22.5469C51.0027 22.5469 53.5088 25.0677 53.5088 27.9656C53.5088 29.6268 52.8472 30.6252 52.1275 31.6045C51.3717 32.6329 50.5483 33.8893 50.5483 35.3594V36.2969C50.5483 36.4129 50.5808 36.5267 50.6422 36.6255C50.7036 36.7242 50.7915 36.804 50.8961 36.856C51.6149 37.2133 54.7058 38.8909 54.7058 38.8909C54.7985 38.9413 54.9024 38.9678 55.0081 38.9678C56.8619 38.9678 58.4832 39.3462 59.5909 40.1079C60.6986 40.8696 61.3544 41.9741 61.3544 43.7322C61.3544 44.6375 61.232 45.319 61.1258 45.8879C61.0197 46.4569 60.8771 46.9306 61.0607 47.4883C61.1457 47.7493 61.2802 48.0077 61.4613 48.4136C61.643 48.8206 61.8633 49.3363 62.077 49.9443C62.4754 51.0776 62.8195 52.547 62.8685 54.1704L59.0415 56.3811C58.9993 56.4058 58.9601 56.4353 58.9248 56.469C58.9206 56.4725 58.9154 56.4739 58.9113 56.4775C58.9076 56.4816 58.9063 56.4868 58.9027 56.491C58.7915 56.6072 58.7294 56.7615 58.7294 56.9219C58.7291 57.0833 58.7916 57.2385 58.9039 57.3552C58.9069 57.3585 58.9082 57.363 58.9113 57.3662C58.9154 57.3699 58.9206 57.3712 58.9248 57.3748C59.0108 57.456 59.1182 57.5114 59.2345 57.5347C59.2378 57.5353 59.241 57.5365 59.2443 57.5371C59.3236 57.5515 59.405 57.5507 59.484 57.5347C59.5514 57.5212 59.6162 57.4969 59.6757 57.4626L63.8492 55.0493C63.9441 54.9943 64.0229 54.9155 64.0777 54.8209C64.1324 54.7262 64.1613 54.6189 64.1614 54.5098C64.1614 52.5553 63.7243 50.8383 63.2654 49.533C63.036 48.8803 62.8003 48.3295 62.6116 47.907C62.423 47.4844 62.2738 47.152 62.2577 47.1025L62.2565 47.1001C62.2355 47.0365 62.2548 46.6906 62.3622 46.115C62.4695 45.5394 62.6129 44.7513 62.6129 43.7322C62.6129 41.6408 61.7174 40.0504 60.3061 39.0801C58.9434 38.1431 57.1474 37.766 55.206 37.7397C55.0664 37.6638 52.851 36.4631 51.8067 35.9233V35.3594C51.8067 34.3769 52.4297 33.3134 53.1438 32.3418C53.894 31.3211 54.7672 29.9731 54.7672 27.9656C54.7673 24.3559 51.678 21.2969 47.8519 21.2969ZM49.6671 44.3035C49.8782 44.2907 50.1152 44.3174 50.3615 44.3938C51.3463 44.6995 52.4372 45.7378 52.4372 47.8594C52.4372 49.173 52.1338 50.3939 51.5929 51.2334C51.0519 52.0729 50.3397 52.5469 49.291 52.5469C47.9947 52.5469 47.1432 52.0923 46.3035 51.2419C46.5613 51.1782 46.8229 51.1204 47.0371 50.988C47.6355 50.6182 48.0047 50.0287 48.2317 49.3975C48.6856 48.135 48.6618 46.6094 48.6618 45.3594C48.6618 44.8414 48.8408 44.6089 49.1276 44.4487C49.271 44.3686 49.456 44.3163 49.6671 44.3035ZM39.2542 50.6719C39.2021 50.6693 39.15 50.6731 39.0981 50.6841C39.0604 50.6903 39.0216 50.7032 38.9838 50.7219C38.9461 50.7344 38.9084 50.7531 38.8769 50.7781C38.8392 50.8031 38.8076 50.8275 38.7761 50.8525C38.7195 50.915 38.6761 50.9838 38.6446 51.0588C38.6132 51.1338 38.5943 51.2156 38.5943 51.2969C38.5943 51.3781 38.6132 51.4599 38.6446 51.5349C38.6761 51.6099 38.7195 51.6787 38.7761 51.7412C38.8957 51.8537 39.0599 51.9219 39.2235 51.9219C39.3871 51.9219 39.5513 51.8537 39.6708 51.7412C39.7274 51.6787 39.7709 51.6099 39.8023 51.5349C39.8401 51.4599 39.8527 51.3781 39.8527 51.2969C39.8527 51.2156 39.8401 51.1338 39.8023 51.0588C39.7709 50.9838 39.7274 50.915 39.6708 50.8525C39.5623 50.7447 39.4105 50.6795 39.2542 50.6719ZM56.9007 50.6755C56.7164 50.6574 56.5265 50.7213 56.3944 50.8525C56.3377 50.915 56.2943 50.9838 56.2629 51.0588C56.2314 51.1338 56.2125 51.2156 56.2125 51.2969C56.2125 51.3781 56.2314 51.4599 56.2629 51.5349C56.2943 51.6099 56.3377 51.6787 56.3944 51.7412C56.5139 51.8537 56.6781 51.9219 56.8417 51.9219C56.9235 51.9219 57.0059 51.9031 57.0814 51.8718C57.1632 51.8406 57.2261 51.7975 57.2891 51.7412C57.3457 51.6787 57.3891 51.6099 57.4206 51.5349C57.452 51.4599 57.4709 51.3781 57.4709 51.2969C57.4709 51.2156 57.452 51.1338 57.4206 51.0588C57.3891 50.9838 57.3457 50.915 57.2891 50.8525C57.2261 50.7963 57.1632 50.7532 57.0814 50.7219C57.0232 50.6969 56.9622 50.6816 56.9007 50.6755ZM38.7012 52.7104C38.4593 52.7365 38.2421 52.9051 38.1666 53.1536C38.0596 53.4848 38.2485 53.8348 38.582 53.9348C38.6449 53.9536 38.7072 53.9592 38.7638 53.9592C39.0344 53.9592 39.2867 53.7849 39.3685 53.5161C39.4692 53.1849 39.2805 52.8349 38.947 52.7349C38.8652 52.7099 38.7818 52.7018 38.7012 52.7104ZM57.364 52.7104C57.2834 52.7023 57.2 52.7099 57.1182 52.7349C56.7847 52.8349 56.596 53.1838 56.6967 53.5088C56.7785 53.7838 57.0308 53.9592 57.3013 53.9592C57.358 53.9592 57.4203 53.9475 57.4832 53.9287C57.8167 53.8287 57.9993 53.4787 57.8986 53.1475C57.8231 52.899 57.6059 52.7348 57.364 52.7104ZM38.0302 54.6379C37.7871 54.6154 37.5408 54.7354 37.4181 54.9651C37.2483 55.2651 37.3605 55.6473 37.6689 55.8098C37.7632 55.8661 37.8642 55.8843 37.9712 55.8843C38.1914 55.8843 38.4059 55.7721 38.5254 55.5596H38.5193C38.6892 55.2596 38.5757 54.8787 38.2674 54.71C38.1918 54.6693 38.1112 54.6455 38.0302 54.6379ZM58.0326 54.6379C57.9507 54.6456 57.8688 54.6693 57.7917 54.71C57.4897 54.8725 57.3762 55.2533 57.5398 55.5596C57.653 55.7658 57.8738 55.8843 58.094 55.8843C58.1947 55.8843 58.302 55.8598 58.3963 55.8098C58.6984 55.6411 58.8106 55.2652 58.647 54.959C58.5243 54.734 58.2783 54.6151 58.0326 54.6379Z" fill="#0077B6"/>
<path d="M36.0454 30.1721C35.9425 29.945 35.7824 29.7406 35.5766 29.6044C35.3594 29.4568 35.1079 29.3773 34.845 29.3773H32.9016H32.6729V29.1502V27.2198C32.6729 27.0495 32.6386 26.8678 32.5701 26.7202C32.4672 26.4931 32.3071 26.2887 32.1013 26.1524C31.8841 26.0048 31.6326 25.9253 31.3697 25.9253H26.6483C26.4768 25.9253 26.2939 25.9594 26.1453 26.0275C25.9167 26.1297 25.7109 26.2887 25.5737 26.4931C25.4251 26.7088 25.3451 26.9586 25.3451 27.2198V29.1502V29.3773H25.1164H23.173C23.0015 29.3773 22.8186 29.4113 22.67 29.4795C22.4414 29.5817 22.2356 29.7406 22.0984 29.945C21.9498 30.1608 21.8698 30.4106 21.8812 30.6718V35.3615C21.8812 35.5318 21.9155 35.7135 21.9841 35.8611C22.087 36.0882 22.247 36.2926 22.4528 36.4289C22.67 36.5765 22.9215 36.656 23.1844 36.656H25.1279H25.3565V36.8831V38.8135C25.3565 38.9838 25.3908 39.1655 25.4594 39.3131C25.5623 39.5402 25.7223 39.7446 25.9281 39.8809C26.1453 40.0285 26.3968 40.108 26.6597 40.108H31.3811C31.5526 40.108 31.7355 40.0739 31.8841 40.0058C32.1128 39.9036 32.3185 39.7446 32.4557 39.5402C32.6043 39.3244 32.6844 39.0746 32.6844 38.8135V36.8831V36.656H32.913H34.8564C35.0279 36.656 35.2108 36.6219 35.3594 36.5538C35.5881 36.4516 35.7939 36.2926 35.931 36.0882C36.0797 35.8725 36.1597 35.6226 36.1597 35.3615V30.6718C36.1482 30.5128 36.114 30.3311 36.0454 30.1721ZM34.5935 31.0465V35.123V35.3388H34.3763H31.324V38.3706V38.5864H31.1068H27.0027H26.7855V38.3706V35.3388H23.7332H23.516V35.123V31.0465V30.8307H23.7332H26.7855V27.7989V27.5832H27.0027H31.1068H31.324V27.7989V30.8307H34.3763H34.5935V31.0465Z" fill="#51CB20"/>
</svg>
