<svg width="86" height="86" viewBox="0 0 86 86" fill="none" xmlns="http://www.w3.org/2000/svg">
<rect x="0.206207" y="0.796875" width="85" height="85" rx="42.5" fill="#008C99" fill-opacity="0.1"/>
<path d="M43.1375 23.7969C39.2483 23.7969 35.4397 25.0786 35.4397 25.0786L35.1419 25.1763L35.0442 25.4741C35.0442 25.4741 33.1375 31.0894 33.1375 35.0469V40.0469H33.1472C33.1668 40.3984 33.2693 40.7085 33.3596 41.0137C33.4085 41.1846 33.4573 41.3433 33.489 41.4629C33.5208 41.5825 33.5281 41.6997 33.5281 41.6094C33.5281 42.459 34.241 43.123 35.0808 43.1523C35.1956 45.5742 36.3626 47.7129 38.1375 49.1216V51.4531C37.2366 51.7266 35.0735 52.4248 32.8714 53.4648C31.4334 54.1436 29.9881 54.9614 28.8626 55.9307C27.7371 56.8999 26.8875 58.0596 26.8875 59.4219V63.1719H59.3875V59.4219C59.3875 58.0596 58.5379 56.8999 57.4124 55.9307C56.2869 54.9614 54.8416 54.1436 53.4036 53.4648C51.2014 52.4248 49.0384 51.7266 48.1375 51.4531V49.124C49.9124 47.7153 51.0794 45.5767 51.1941 43.1523C52.034 43.123 52.7469 42.459 52.7469 41.6094C52.7469 41.6997 52.7542 41.5825 52.7859 41.4629C52.8177 41.3433 52.8665 41.1846 52.9153 41.0137C53.0056 40.7085 53.1082 40.3984 53.1277 40.0469H53.1375V35.0469C53.1375 31.0894 51.2307 25.4741 51.2307 25.4741L51.1331 25.1763L50.8352 25.0786C50.8352 25.0786 47.0266 23.7969 43.1375 23.7969ZM43.1375 25.0469C46.5066 25.0469 49.6902 26.043 50.1321 26.1821C50.2859 26.6558 51.658 31.0576 51.8264 34.4219H34.4485C34.617 31.0576 35.989 26.6558 36.1429 26.1821C36.5847 26.043 39.7683 25.0469 43.1375 25.0469ZM34.3875 35.6719H35.6741C35.2713 36.3848 35.0174 37.2295 35.0149 38.1914C34.9807 38.1865 34.9881 38.1719 34.9344 38.1719C34.7439 38.1719 34.5608 38.2085 34.3875 38.2646V35.6719ZM37.2073 35.6719H49.1018C49.3948 36.0356 50.0125 36.9463 50.0125 38.1719V40.2373L50.9524 39.6855C51.1136 39.5928 51.2625 39.5098 51.3675 39.4561C51.3797 39.4487 51.3846 39.4487 51.3968 39.4414C51.6824 39.4707 51.8875 39.6709 51.8875 39.9224C51.8875 39.9688 51.8142 40.335 51.719 40.6621C51.6702 40.8232 51.6214 40.9868 51.5799 41.1357C51.5384 41.2847 51.4969 41.3896 51.4969 41.6094C51.4969 41.7754 51.3601 41.9219 51.1453 41.9219H50.0125V42.7764C50.0125 46.165 47.5686 48.9653 44.3509 49.5391L44.1726 49.5684L44.0384 49.6929C43.7942 49.915 43.4866 50.0469 43.1375 50.0469C42.7884 50.0469 42.4807 49.915 42.2366 49.6929L42.1023 49.5684L41.9241 49.5391C38.7063 48.9653 36.2625 46.165 36.2625 42.7764V41.9219H35.1297C34.9148 41.9219 34.7781 41.7754 34.7781 41.6094C34.7781 41.3896 34.7366 41.2847 34.6951 41.1357C34.6536 40.9868 34.6048 40.8232 34.5559 40.6621C34.4607 40.335 34.3875 39.9688 34.3875 39.9224C34.3875 39.6709 34.5926 39.4707 34.8782 39.4414C34.8904 39.4487 34.8953 39.4487 34.9075 39.4561C35.0125 39.5098 35.1614 39.5928 35.3225 39.6855L36.2625 40.2373V38.2036C36.2625 37.1343 36.6385 36.3262 37.2073 35.6719ZM50.5911 35.6719H51.8875V38.2646C51.7141 38.2085 51.531 38.1719 51.3406 38.1719C51.2869 38.1719 51.2967 38.1841 51.2625 38.189V38.1719C51.2625 37.1416 50.9353 36.2896 50.5911 35.6719ZM39.7 39.4219C39.1824 39.4219 38.7625 39.8418 38.7625 40.3594C38.7625 40.877 39.1824 41.2969 39.7 41.2969C40.2176 41.2969 40.6375 40.877 40.6375 40.3594C40.6375 39.8418 40.2176 39.4219 39.7 39.4219ZM46.575 39.4219C46.0574 39.4219 45.6375 39.8418 45.6375 40.3594C45.6375 40.877 46.0574 41.2969 46.575 41.2969C47.0926 41.2969 47.5125 40.877 47.5125 40.3594C47.5125 39.8418 47.0926 39.4219 46.575 39.4219ZM39.3875 49.937C40.054 50.2861 40.7742 50.5547 41.5384 50.7085C41.9803 51.0601 42.5271 51.2969 43.1375 51.2969C43.7454 51.2969 44.2898 51.0601 44.7293 50.7109C45.4959 50.5596 46.2185 50.291 46.8875 49.9395V52.5469C46.8875 52.7715 46.6653 53.4648 46.2722 54.2217C45.8816 54.9785 45.3445 55.8452 44.805 56.6533C43.9627 57.918 43.4451 58.5723 43.118 59.0044C42.781 58.6089 42.2879 58.0571 41.4602 56.8755C40.3909 55.3447 39.3875 53.4331 39.3875 52.5469V49.937ZM48.1155 52.7617C49.114 53.0742 50.9671 53.6968 52.8714 54.5977C54.2459 55.2471 55.6131 56.0308 56.597 56.8779C57.5808 57.7251 58.1375 58.5967 58.1375 59.4219V61.9219H28.1375V59.4219C28.1375 58.5967 28.6941 57.7251 29.678 56.8779C30.6619 56.0308 32.0291 55.2471 33.4036 54.5977C35.3055 53.6992 37.156 53.0767 38.157 52.7617C38.2522 54.3242 39.3704 56.0674 40.4397 57.5933C41.5554 59.1875 42.6687 60.457 42.6687 60.457L43.1668 61.0283L43.6306 60.4302C43.6306 60.4302 44.7366 59.0093 45.845 57.3467C46.3992 56.5142 46.9558 55.623 47.3855 54.7979C47.7688 54.0557 48.0569 53.4038 48.1155 52.7617ZM30.0125 59.4219C29.6682 59.4219 29.3875 59.7026 29.3875 60.0469C29.3875 60.3911 29.6682 60.6719 30.0125 60.6719C30.3567 60.6719 30.6375 60.3911 30.6375 60.0469C30.6375 59.7026 30.3567 59.4219 30.0125 59.4219ZM32.5125 59.4219C32.1682 59.4219 31.8875 59.7026 31.8875 60.0469C31.8875 60.3911 32.1682 60.6719 32.5125 60.6719C32.8567 60.6719 33.1375 60.3911 33.1375 60.0469C33.1375 59.7026 32.8567 59.4219 32.5125 59.4219ZM35.0125 59.4219C34.6682 59.4219 34.3875 59.7026 34.3875 60.0469C34.3875 60.3911 34.6682 60.6719 35.0125 60.6719C35.3567 60.6719 35.6375 60.3911 35.6375 60.0469C35.6375 59.7026 35.3567 59.4219 35.0125 59.4219ZM37.5125 59.4219C37.1682 59.4219 36.8875 59.7026 36.8875 60.0469C36.8875 60.3911 37.1682 60.6719 37.5125 60.6719C37.8567 60.6719 38.1375 60.3911 38.1375 60.0469C38.1375 59.7026 37.8567 59.4219 37.5125 59.4219ZM40.0125 59.4219C39.6682 59.4219 39.3875 59.7026 39.3875 60.0469C39.3875 60.3911 39.6682 60.6719 40.0125 60.6719C40.3567 60.6719 40.6375 60.3911 40.6375 60.0469C40.6375 59.7026 40.3567 59.4219 40.0125 59.4219ZM46.2625 59.4219C45.9182 59.4219 45.6375 59.7026 45.6375 60.0469C45.6375 60.3911 45.9182 60.6719 46.2625 60.6719C46.6067 60.6719 46.8875 60.3911 46.8875 60.0469C46.8875 59.7026 46.6067 59.4219 46.2625 59.4219ZM48.7625 59.4219C48.4182 59.4219 48.1375 59.7026 48.1375 60.0469C48.1375 60.3911 48.4182 60.6719 48.7625 60.6719C49.1067 60.6719 49.3875 60.3911 49.3875 60.0469C49.3875 59.7026 49.1067 59.4219 48.7625 59.4219ZM51.2625 59.4219C50.9182 59.4219 50.6375 59.7026 50.6375 60.0469C50.6375 60.3911 50.9182 60.6719 51.2625 60.6719C51.6067 60.6719 51.8875 60.3911 51.8875 60.0469C51.8875 59.7026 51.6067 59.4219 51.2625 59.4219ZM53.7625 59.4219C53.4182 59.4219 53.1375 59.7026 53.1375 60.0469C53.1375 60.3911 53.4182 60.6719 53.7625 60.6719C54.1067 60.6719 54.3875 60.3911 54.3875 60.0469C54.3875 59.7026 54.1067 59.4219 53.7625 59.4219ZM56.2625 59.4219C55.9182 59.4219 55.6375 59.7026 55.6375 60.0469C55.6375 60.3911 55.9182 60.6719 56.2625 60.6719C56.6067 60.6719 56.8875 60.3911 56.8875 60.0469C56.8875 59.7026 56.6067 59.4219 56.2625 59.4219Z" fill="#0077B6"/>
<path d="M42.5125 29.4219V27.5469H43.7625V29.4219H45.6375V30.6719H43.7625V32.5469H42.5125V30.6719H40.6375V29.4219H42.5125Z" fill="#51CB20"/>
</svg>
