<svg width="86" height="86" viewBox="0 0 86 86" fill="none" xmlns="http://www.w3.org/2000/svg">
<rect x="0.343628" y="0.796875" width="85" height="85" rx="42.5" fill="#008C99" fill-opacity="0.1"/>
<g clip-path="url(#clip0_90_3089)">
<path d="M30.3019 24.4253C30.7497 24.4253 31.1127 24.0653 31.1127 23.6212C31.1127 23.1771 30.7497 22.8171 30.3019 22.8171C29.8541 22.8171 29.4911 23.1771 29.4911 23.6212C29.4911 24.0653 29.8541 24.4253 30.3019 24.4253Z" fill="#0077B6"/>
<path d="M27.1857 23.2287C27.1033 23.226 27.0236 23.2354 26.9452 23.2569C26.5114 23.3694 26.2546 23.809 26.3722 24.2405C26.4898 24.672 26.933 24.9253 27.3641 24.8087C27.7979 24.6921 28.0546 24.2526 27.9371 23.8224C27.8452 23.4833 27.5411 23.2408 27.1871 23.2287H27.1857Z" fill="#0077B6"/>
<path d="M36.7884 24.5421C36.656 24.463 36.5006 24.4295 36.3452 24.4349C36.0695 24.4469 35.8195 24.5984 35.683 24.8369C35.5722 25.0192 35.5438 25.239 35.6006 25.4467C35.6546 25.6544 35.7911 25.8299 35.9776 25.9331C36.3641 26.1556 36.8614 26.0243 37.083 25.641C37.3073 25.255 37.1749 24.7645 36.7884 24.5421Z" fill="#0077B6"/>
<path d="M24.2019 24.4347C24.0654 24.4347 23.933 24.4723 23.8154 24.5379C23.6289 24.6451 23.4924 24.8207 23.4384 25.0284C23.3816 25.2361 23.41 25.4559 23.5208 25.6408C23.7424 26.0241 24.2397 26.1554 24.6262 25.933C25.0127 25.7105 25.1451 25.22 24.9208 24.8368C24.7749 24.5795 24.4992 24.4254 24.2019 24.4347Z" fill="#0077B6"/>
<path d="M39.4749 27.7207C39.7911 27.4098 39.7911 26.8979 39.4749 26.587C39.3263 26.4369 39.1263 26.3552 38.9141 26.3485C38.6952 26.3458 38.483 26.4302 38.3276 26.587C38.0114 26.8979 38.0114 27.4098 38.3276 27.7207C38.6438 28.0343 39.1573 28.0343 39.4736 27.7207H39.4749Z" fill="#0077B6"/>
<path d="M33.6587 23.2569C33.5884 23.2381 33.5168 23.2287 33.4438 23.2314C33.079 23.2314 32.7601 23.4767 32.6682 23.8251C32.5506 24.2553 32.8073 24.6948 33.2411 24.8114C33.6722 24.924 34.1155 24.6707 34.233 24.2392C34.3506 23.8117 34.0938 23.3721 33.6601 23.2555L33.6587 23.2569Z" fill="#0077B6"/>
<path d="M18.3424 33.3359C18.7762 33.4525 19.2195 33.1978 19.337 32.7677C19.4546 32.3402 19.1978 31.9006 18.7641 31.784C18.6938 31.7652 18.6222 31.7559 18.5451 31.7559C18.1803 31.7585 17.8641 32.0038 17.7722 32.3522C17.6546 32.7824 17.9114 33.222 18.3424 33.3359Z" fill="#0077B6"/>
<path d="M19.337 38.5973C19.2451 38.2556 18.9411 38.013 18.583 38.0009C18.5033 37.9983 18.4208 38.0076 18.3424 38.0291C17.9114 38.1416 17.6546 38.5812 17.7722 39.0127C17.8857 39.4429 18.3289 39.6975 18.7641 39.5809C19.1992 39.4643 19.4546 39.0248 19.337 38.5973Z" fill="#0077B6"/>
<path d="M19.7492 40.9089C19.6168 40.9116 19.483 40.9491 19.3655 41.0161C18.9763 41.2386 18.8425 41.7291 19.0682 42.115C19.2925 42.4983 19.7871 42.6296 20.1763 42.4072C20.3601 42.304 20.4965 42.1271 20.5533 41.9207C20.6073 41.713 20.579 41.4932 20.4709 41.3109C20.3222 41.0563 20.0465 40.9022 19.7492 40.9089Z" fill="#0077B6"/>
<path d="M20.1763 28.9576C20.0398 28.8785 19.8844 28.841 19.733 28.8477C19.4574 28.8638 19.2074 29.0139 19.0682 29.2497C18.8438 29.633 18.9763 30.1262 19.3655 30.3459C19.5492 30.4558 19.7709 30.484 19.9803 30.4277C20.1898 30.3741 20.3668 30.2387 20.4709 30.0538C20.6952 29.6705 20.5628 29.1774 20.1763 28.9576Z" fill="#0077B6"/>
<path d="M21.7127 26.3472C21.4938 26.3472 21.2816 26.4316 21.1303 26.5857C20.8141 26.8966 20.8141 27.4085 21.1303 27.7195C21.4438 28.033 21.96 28.033 22.2735 27.7195C22.5897 27.4085 22.5897 26.8966 22.2735 26.5857C22.1249 26.4356 21.9249 26.3498 21.7127 26.3472Z" fill="#0077B6"/>
<path d="M18.1398 36.4866C18.5876 36.4866 18.9506 36.1266 18.9506 35.6825C18.9506 35.2384 18.5876 34.8784 18.1398 34.8784C17.692 34.8784 17.329 35.2384 17.329 35.6825C17.329 36.1266 17.692 36.4866 18.1398 36.4866Z" fill="#0077B6"/>
<path d="M62.7343 24.5421C62.6019 24.463 62.4465 24.4295 62.2911 24.4349C62.0154 24.4469 61.7654 24.5984 61.6289 24.8369C61.4046 25.2202 61.537 25.7134 61.9235 25.9331C62.11 26.043 62.3316 26.0712 62.5384 26.0149C62.7479 25.9613 62.9249 25.8259 63.033 25.641C63.1411 25.4561 63.1695 25.2363 63.1154 25.0312C63.0587 24.8235 62.9222 24.648 62.7357 24.5407L62.7343 24.5421Z" fill="#0077B6"/>
<path d="M59.6046 23.2569C59.5344 23.2381 59.4627 23.2287 59.3898 23.2314C59.0249 23.2314 58.706 23.4767 58.6141 23.8251C58.5573 24.0328 58.5857 24.2526 58.6938 24.4375C58.8019 24.6198 58.979 24.7551 59.1884 24.8114C59.6195 24.928 60.0627 24.6734 60.1803 24.2432C60.2371 24.0355 60.2087 23.8157 60.1006 23.6308C59.9925 23.4485 59.8154 23.3132 59.606 23.2569H59.6046Z" fill="#0077B6"/>
<path d="M64.86 26.3472C64.6411 26.3445 64.4289 26.429 64.2735 26.5858C63.9573 26.8967 63.9573 27.4086 64.2735 27.7195C64.5898 28.0331 65.1033 28.0331 65.4195 27.7195C65.7357 27.4086 65.7357 26.8967 65.4195 26.5858C65.2708 26.4357 65.0708 26.3539 64.8587 26.3472H64.86Z" fill="#0077B6"/>
<path d="M56.2479 18.7969C51.0154 18.7969 46.3952 21.2091 43.2749 24.8971C40.1546 21.2091 35.5344 18.7969 30.3019 18.7969C20.9073 18.7969 13.2749 26.3659 13.2749 35.6824C13.2749 39.4509 15.2033 43.3372 17.9938 47.0775C20.7844 50.8218 24.4708 54.4361 28.1479 57.6095C35.5019 63.951 42.8438 68.5248 42.8438 68.5248L43.2749 68.7982L43.706 68.5248C43.706 68.5248 51.0479 63.9523 58.4019 57.6095C62.079 54.4375 65.7654 50.8218 68.556 47.0775C71.3465 43.3372 73.2749 39.4509 73.2749 35.6824C73.2749 26.3659 65.6425 18.7969 56.2479 18.7969ZM67.2506 46.1233C64.5681 49.7229 60.9573 53.2756 57.3371 56.3967C50.4384 62.3455 43.9141 66.4731 43.2749 66.8778C42.6357 66.4731 36.11 62.3455 29.2127 56.3967C25.5925 53.2742 21.9817 49.7229 19.2992 46.1233C16.6168 42.5264 14.8965 38.8987 14.8965 35.6824C14.8965 27.237 21.7857 20.405 30.3019 20.405C35.3533 20.405 39.8127 22.8199 42.6263 26.5455L43.2749 27.4031L43.9235 26.5455C46.7357 22.8199 51.1952 20.405 56.2479 20.405C64.7641 20.405 71.6533 27.237 71.6533 35.6824C71.6533 38.8987 69.933 42.5264 67.2506 46.1233Z" fill="#0077B6"/>
<path d="M67.4816 29.2499C67.333 28.9953 67.0573 28.8412 66.76 28.8479C66.6235 28.8505 66.4911 28.8881 66.3735 28.9551C66.187 29.0623 66.0506 29.2378 65.9965 29.4456C65.9397 29.6493 65.9681 29.869 66.0789 30.0553C66.3005 30.4386 66.7978 30.5699 67.1843 30.3475C67.5708 30.1277 67.7033 29.6345 67.4816 29.2512V29.2499Z" fill="#0077B6"/>
<path d="M56.2479 24.4253C56.6957 24.4253 57.0587 24.0653 57.0587 23.6212C57.0587 23.1771 56.6957 22.8171 56.2479 22.8171C55.8001 22.8171 55.4371 23.1771 55.4371 23.6212C55.4371 24.0653 55.8001 24.4253 56.2479 24.4253Z" fill="#0077B6"/>
<path d="M46.1222 28.9576C45.9857 28.8785 45.8303 28.841 45.679 28.8477C45.4006 28.8597 45.1506 29.0112 45.01 29.2497C44.9019 29.4347 44.8736 29.6544 44.9303 29.8595C44.9871 30.0672 45.1236 30.2428 45.31 30.35C45.6965 30.5724 46.1911 30.4384 46.4155 30.0551C46.6398 29.6719 46.5073 29.1787 46.1209 28.9589L46.1222 28.9576Z" fill="#0077B6"/>
<path d="M40.8141 28.8479C40.6776 28.8506 40.5479 28.8881 40.4276 28.9551C40.2438 29.0623 40.1073 29.2379 40.0506 29.4456C39.9938 29.6493 40.0222 29.8691 40.133 30.0554C40.2371 30.2403 40.4154 30.3756 40.6235 30.4292C40.833 30.4855 41.0546 30.4574 41.2384 30.3475C41.6276 30.1277 41.7614 29.6346 41.5357 29.2513C41.3871 28.9967 41.1114 28.8425 40.8141 28.8492V28.8479Z" fill="#0077B6"/>
<path d="M53.106 23.2288C53.087 23.2288 53.0681 23.2288 53.0519 23.2314C52.9952 23.2341 52.9438 23.2408 52.8898 23.2569C52.456 23.3735 52.1992 23.8131 52.3168 24.2406C52.4343 24.6707 52.8776 24.9254 53.3087 24.8128C53.7425 24.6962 53.9992 24.2566 53.8816 23.8265C53.7898 23.478 53.4735 23.2328 53.106 23.2301V23.2288Z" fill="#0077B6"/>
<path d="M43.2816 31.6621H43.2249C43.1708 31.6688 43.1168 31.6742 43.0627 31.6903C42.6316 31.8068 42.3749 32.2464 42.4897 32.6766C42.6073 33.1041 43.0506 33.3587 43.4843 33.2448C43.9181 33.1282 44.1749 32.6886 44.0573 32.2585C43.9627 31.91 43.6452 31.6648 43.2816 31.6621Z" fill="#0077B6"/>
<path d="M50.1452 24.4347C50.0127 24.4347 49.879 24.4723 49.7614 24.5379C49.5749 24.6451 49.4384 24.8207 49.3817 25.0284C49.3276 25.2361 49.356 25.4559 49.4641 25.6408C49.6884 26.0241 50.183 26.1554 50.5722 25.933C50.9587 25.7105 51.0911 25.22 50.8668 24.8368C50.7208 24.5795 50.4425 24.4254 50.1452 24.4347Z" fill="#0077B6"/>
<path d="M47.6587 26.3472C47.4398 26.3472 47.2276 26.4316 47.0763 26.5857C46.7601 26.8966 46.7601 27.4085 47.0763 27.7195C47.3898 28.033 47.906 28.033 48.2195 27.7195C48.5357 27.4085 48.5357 26.8966 48.2195 26.5857C48.0709 26.4356 47.8709 26.3498 47.6587 26.3472Z" fill="#0077B6"/>
<path d="M50.3938 45.2442C49.9357 45.0298 49.3763 44.7819 48.8384 44.5058C48.5033 44.341 48.4127 43.9912 48.5749 43.6696C48.7235 43.356 49.0492 43.2327 49.3911 43.3761C49.81 43.5543 50.2181 43.7661 50.6411 43.9336C51.1168 44.1292 51.6181 44.2458 52.1411 44.2096C52.8303 44.1614 53.2546 43.6843 53.1817 43.0799C53.1519 42.8977 53.0992 42.7449 52.8925 42.6444C52.5681 42.4822 52.4695 42.1177 52.629 41.8081C52.7776 41.4946 53.1438 41.3592 53.4722 41.5093C54.1735 41.8242 54.4384 42.4139 54.4654 43.1282C54.5087 44.4294 53.5222 45.4278 52.1641 45.4935C51.9222 45.5055 51.6776 45.4935 51.4465 45.4707C51.1276 45.4104 50.8141 45.338 50.3925 45.2456L50.3938 45.2442Z" fill="#51CB20"/>
<path d="M48.8425 37.978C47.8127 37.6738 47.2492 36.8805 47.3371 35.8419C47.3776 35.4331 47.6506 35.1584 48.0141 35.1946C48.4033 35.2281 48.6357 35.5216 48.6181 35.9384C48.5857 36.3994 48.7344 36.6058 49.1898 36.7465C49.3722 36.8027 49.5614 36.8363 49.733 36.926C49.9776 37.0627 50.0938 37.371 50.0127 37.6309C49.9317 37.8909 49.656 38.0919 49.3654 38.0638C49.1952 38.0491 49.0209 38.0075 48.8425 37.978Z" fill="#51CB20"/>
<path d="M43.8397 49.105V49.1158C43.8397 49.1305 43.8397 49.1453 43.837 49.1587C43.8154 49.5004 43.5303 49.7711 43.1803 49.7711C42.8303 49.7711 42.5195 49.4776 42.5195 49.1158C42.5195 49.0983 42.5208 49.0809 42.5222 49.0635V49.0608C42.5505 48.7245 42.8343 48.4604 43.1803 48.4604C43.5262 48.4604 43.8343 48.7486 43.8397 49.105Z" fill="#0077B6"/>
<path d="M43.3249 47.667C43.3249 48.0289 43.029 48.321 42.6641 48.321C42.4776 48.321 42.3087 48.2446 42.1884 48.12C42.0965 48.0262 42.033 47.9042 42.0127 47.7675C42.0127 47.7675 42.0127 47.7662 42.0127 47.7649C42.0073 47.7327 42.0046 47.7005 42.0046 47.667C42.0046 47.3052 42.3006 47.0117 42.6654 47.0117C43.0303 47.0117 43.3263 47.3052 43.3263 47.667H43.3249Z" fill="#0077B6"/>
<path d="M42.3641 46.252C42.3641 46.6138 42.0682 46.9073 41.7033 46.9073C41.5722 46.9073 41.4492 46.8685 41.3465 46.8028H41.3452C41.2492 46.7411 41.1709 46.6554 41.1182 46.5549C41.1182 46.5549 41.1168 46.5549 41.1168 46.5535C41.0695 46.4637 41.0425 46.3605 41.0425 46.252C41.0425 45.8902 41.3384 45.5967 41.7033 45.5967C41.8398 45.5967 41.9668 45.6382 42.0722 45.7093C42.0736 45.7093 42.0736 45.7093 42.0736 45.7093C42.1587 45.7655 42.229 45.8406 42.279 45.9304C42.279 45.9304 42.2794 45.9308 42.2803 45.9317C42.333 46.0255 42.3641 46.1354 42.3641 46.2507V46.252Z" fill="#0077B6"/>
<path d="M41.2033 45.2C41.2033 45.5618 40.9073 45.8553 40.5425 45.8553C40.4411 45.8553 40.3452 45.8325 40.26 45.7923C40.1519 45.7414 40.0614 45.6637 39.9965 45.5672C39.9965 45.5672 39.9952 45.5672 39.9952 45.5659C39.9235 45.4613 39.8817 45.3354 39.8817 45.2C39.8817 44.8382 40.1776 44.5447 40.5425 44.5447C40.6533 44.5447 40.7587 44.5715 40.8506 44.6211C40.9357 44.6639 41.0087 44.7269 41.0654 44.8006C41.1519 44.9119 41.2033 45.0499 41.2033 45.2Z" fill="#0077B6"/>
<path d="M66.3803 38.4284C65.9817 36.7439 65.1398 35.2845 64.1033 33.9243C62.4668 31.7613 60.4871 29.9883 57.9168 28.9752C55.2492 27.9192 52.6857 28.084 50.279 29.7471C48.6763 30.8406 47.3303 32.1861 46.1438 33.7045C46.0844 33.7728 46.0195 33.8653 45.9438 33.9042C45.4925 34.1105 45.0208 34.3008 44.51 34.2553C43.9884 34.2057 43.5992 34.4094 43.4087 34.8583C43.233 35.263 43.1168 35.7093 43.006 36.1475C42.9722 36.2963 42.9087 36.3767 42.7668 36.433C42.1708 36.6206 41.6344 36.9382 41.1438 37.3081C40.5573 37.7476 40.0506 38.2864 39.6222 38.8975C38.8452 38.7594 37.533 38.4298 37.2952 38.1081C37.229 37.962 37.1763 37.8106 37.0938 37.6739C36.71 36.9864 36.1817 36.4397 35.5006 36.0202C34.3722 35.3126 33.1154 35.1371 31.8141 35.2202C29.6749 35.3542 27.783 36.0497 26.2965 37.6485C26.2438 37.6954 26.1803 37.7369 26.1127 37.753C24.7681 38.2193 23.9425 39.1802 23.51 40.4842C22.9952 42.0106 23.0735 43.5584 23.4303 45.0928C24.0087 47.6002 25.1979 49.7873 26.8776 51.7291C28.456 53.553 30.3763 54.9226 32.6411 55.7924C35.1479 56.7626 37.7452 56.9663 40.3735 56.4356C42.2925 56.0483 44.1884 55.5029 46.0938 54.999C47.306 54.6787 48.483 54.3089 49.5884 53.6951C49.9344 53.5035 50.3006 53.3319 50.6722 53.2234C52.2168 52.757 53.7627 52.2906 55.3195 51.8645C56.3168 51.5884 57.3465 51.3727 58.3654 51.1529C59.5979 50.8875 60.7546 50.4265 61.8114 49.723C63.6722 48.486 65.0181 46.8176 65.8614 44.7605C66.7046 42.7034 66.8898 40.5914 66.3803 38.4284ZM62.9276 47.0293C61.4546 48.746 59.5506 49.7203 57.2857 50.0526C56.3411 50.196 55.4263 50.4842 54.5073 50.7468C52.9884 51.173 51.4844 51.6259 49.9844 52.1057C49.4006 52.2987 48.8979 52.6645 48.3208 52.8723C47.1411 53.289 45.9533 53.6911 44.7479 54.0274C43.1249 54.4697 41.4803 54.8932 39.829 55.2161C37.8898 55.5847 35.9519 55.4734 34.0492 54.924C31.2641 54.1186 29.0276 52.5265 27.2763 50.2537C25.8803 48.4485 24.9168 46.4544 24.5208 44.2017C24.3587 43.2475 24.3181 42.2933 24.5398 41.3459C24.7681 40.3756 25.2006 39.5541 26.1411 39.0998C26.8208 38.7634 27.5533 38.742 28.2925 38.8572C29.9046 39.0931 31.3452 39.7592 32.7479 40.5498C32.8763 40.6142 33.0033 40.6905 33.1438 40.72C33.4492 40.7776 33.729 40.6034 33.8411 40.3287C33.9519 40.0526 33.8506 39.7364 33.5681 39.5635C32.0006 38.6214 30.3506 37.8682 28.51 37.5989L28.4073 37.5681C28.3992 37.5533 28.3952 37.5265 28.3871 37.5104C28.7114 37.351 29.033 37.1647 29.3479 37.0387C30.606 36.5697 31.8952 36.3606 33.2317 36.5603C34.7803 36.8015 35.7925 37.682 36.2844 39.1467C36.7708 40.5847 36.3938 41.6326 35.1019 42.4501C34.0249 43.1349 32.8181 43.5195 31.5654 43.7286C30.3925 43.9269 29.1938 44.0408 28.0046 44.1695C27.6006 44.2204 27.3235 44.4683 27.3425 44.8463C27.3546 45.2094 27.6465 45.4734 28.0398 45.4574C30.2938 45.3582 32.5181 45.0379 34.6208 44.1481C35.5979 43.742 36.483 43.1858 37.1208 42.3027C37.6425 41.5965 37.8371 40.8138 37.7695 39.9494C37.76 39.8985 37.7668 39.8382 37.7533 39.7605C38.2087 39.664 38.5641 39.8476 38.8965 40.0245C38.7614 40.6142 38.5844 41.1797 38.5033 41.7626C38.3925 42.6163 38.5006 43.3949 38.829 44.0904C38.8722 44.1856 38.9208 44.278 38.9735 44.3692C39.0938 44.5072 39.2722 44.5943 39.4708 44.5943C39.8357 44.5943 40.1317 44.3008 40.1317 43.939C40.1317 43.8707 40.1208 43.8063 40.1019 43.7447C40.1019 43.742 40.1006 43.7407 40.0992 43.7393C40.0654 43.6804 40.0344 43.6187 40.006 43.5571C39.7438 43.0022 39.6817 42.3791 39.8222 41.697C40.2087 39.7833 41.3465 38.4606 43.16 37.6565C43.3249 38.1644 43.3736 38.6509 43.2695 39.14C43.1263 39.8007 42.9249 40.4453 42.7681 41.1033C42.66 41.5281 42.5627 41.957 42.5046 42.3858C42.4452 42.8133 42.6303 43.1805 42.9357 43.4847C43.8654 44.4268 44.9708 45.1263 46.1857 45.6731C46.7127 45.909 47.2344 46.1569 47.7614 46.3928C48.9195 46.9221 49.5019 47.8562 49.656 49.081C49.679 49.3236 49.7073 49.5555 49.7317 49.7994C49.7695 50.1572 50.0614 50.4212 50.4168 50.4051C50.7479 50.3836 51.033 50.1129 51.0208 49.7498C50.9452 47.7557 50.2452 46.1154 48.306 45.2108C47.4127 44.7873 46.529 44.3786 45.656 43.9363C44.9952 43.6093 44.4263 43.151 43.9168 42.6217C43.8411 42.5479 43.7803 42.3804 43.8006 42.2759C43.8911 41.8698 44.0033 41.4705 44.1263 41.0752C44.3736 40.247 44.6073 39.4147 44.5938 38.5423C44.5817 37.9808 44.483 37.4555 44.2735 36.9328C44.0776 36.4772 44.2992 36.0484 44.4222 35.6155C44.433 35.5806 44.5303 35.5498 44.579 35.5512C45.3154 35.5552 45.9884 35.318 46.6195 34.9789C46.8114 34.8878 46.9506 34.6828 47.0898 34.5153C48.1073 33.218 49.2492 32.0454 50.5911 31.0698C51.6425 30.3032 52.7736 29.7216 54.1033 29.6238C55.3425 29.5327 56.5263 29.786 57.6465 30.2791C60.1695 31.4008 62.0492 33.2569 63.5735 35.4962C64.2479 36.496 64.806 37.5479 65.0763 38.7206C65.7844 41.8497 64.9938 44.6171 62.9276 47.0293Z" fill="#51CB20"/>
</g>
<defs>
<clipPath id="clip0_90_3089">
<rect width="60" height="50" fill="white" transform="translate(13.2749 18.7969)"/>
</clipPath>
</defs>
</svg>
