<svg width="86" height="86" viewBox="0 0 86 86" fill="none" xmlns="http://www.w3.org/2000/svg">
<rect x="0.0687561" y="0.796875" width="85" height="85" rx="42.5" fill="#008C99" fill-opacity="0.1"/>
<path d="M43.1688 30.0469C27.7012 30.0469 18.7348 43.4502 18.7348 43.4502L18.4866 43.8213L18.7569 44.1753C18.7569 44.1753 28.9253 57.5469 43.1688 57.5469C57.4124 57.5469 67.5807 44.1753 67.5807 44.1753L67.8535 43.8213L67.6028 43.4502C67.6028 43.4502 58.6364 30.0469 43.1688 30.0469ZM43.1688 31.2969C57.228 31.2969 65.5136 42.7007 66.2657 43.7749C65.4325 44.8174 56.0163 56.2969 43.1688 56.2969C30.3214 56.2969 20.9051 44.8174 20.0719 43.7749C20.824 42.7007 29.1096 31.2969 43.1688 31.2969ZM43.1688 32.5469C42.8223 32.5469 42.5396 32.8276 42.5396 33.1719C42.5396 33.5161 42.8223 33.7969 43.1688 33.7969C43.5154 33.7969 43.7981 33.5161 43.7981 33.1719C43.7981 32.8276 43.5154 32.5469 43.1688 32.5469ZM40.4258 32.9082C40.3619 32.9082 40.298 32.9131 40.239 32.9302C39.9023 33.0205 39.7032 33.3623 39.7941 33.6968C39.8826 34.0288 40.2267 34.2266 40.5635 34.1387C40.9002 34.0483 41.0993 33.7065 41.0083 33.3721C40.9371 33.1084 40.7011 32.9204 40.4258 32.9082ZM45.9315 32.9082C45.6489 32.9106 45.4031 33.1011 45.3293 33.3721C45.2384 33.7065 45.4375 34.0483 45.7742 34.1387C46.1109 34.2266 46.455 34.0288 46.5435 33.6968C46.6345 33.3623 46.4354 33.0205 46.0986 32.9302C46.0446 32.9155 45.988 32.9082 45.9315 32.9082ZM37.8057 33.9702C37.7 33.9727 37.5968 34.002 37.5058 34.0532C37.3608 34.1362 37.2551 34.2729 37.2109 34.4341C37.1691 34.5928 37.1912 34.7637 37.2748 34.9077C37.3583 35.0518 37.496 35.1567 37.6582 35.1982C37.818 35.2422 37.99 35.2202 38.135 35.1348C38.4349 34.9639 38.5381 34.5806 38.3636 34.2827C38.2506 34.085 38.0367 33.9653 37.8057 33.9702ZM48.4877 33.9727C48.2714 33.9824 48.0773 34.0996 47.9716 34.2852C47.7971 34.583 47.9028 34.9639 48.2026 35.1372C48.5025 35.3105 48.8884 35.208 49.0604 34.9102C49.1464 34.7661 49.1686 34.5952 49.1243 34.4341C49.0825 34.2729 48.9769 34.1362 48.8318 34.0532C48.7261 33.9946 48.6082 33.9653 48.4877 33.9727ZM35.6132 35.6597C35.4436 35.6572 35.279 35.7231 35.1585 35.8403C34.9152 36.0845 34.9152 36.4824 35.1585 36.7266C35.4043 36.9683 35.805 36.9683 36.0507 36.7266C36.2941 36.4824 36.2941 36.0845 36.0507 35.8403C35.9328 35.7256 35.7779 35.6597 35.6132 35.6597ZM50.7416 35.6597C50.572 35.6548 50.4074 35.7207 50.2869 35.8403C50.0411 36.0845 50.0411 36.4824 50.2869 36.7266C50.5327 36.9683 50.9309 36.9683 51.1767 36.7266C51.4225 36.4824 51.4225 36.0845 51.1767 35.8403C51.0612 35.7256 50.9063 35.6621 50.7416 35.6597ZM52.4179 37.8594C52.3122 37.8618 52.209 37.8911 52.1156 37.9424C51.973 38.0254 51.8673 38.1621 51.8231 38.3232C51.7813 38.4819 51.8034 38.6528 51.887 38.7969C52.0615 39.0947 52.445 39.1973 52.7448 39.0239C53.0471 38.853 53.1504 38.4697 52.9759 38.1719C52.8603 37.9741 52.6465 37.8545 52.4179 37.8594ZM33.8755 37.8594C33.6617 37.8691 33.4675 37.9863 33.3593 38.1719C33.2758 38.3159 33.2537 38.4868 33.2954 38.6455C33.3397 38.8066 33.4454 38.9434 33.5904 39.0264C33.8902 39.1997 34.2761 39.0947 34.4482 38.7969C34.6227 38.499 34.5195 38.1157 34.2196 37.9448C34.1164 37.8838 33.9959 37.8545 33.8755 37.8594ZM32.8309 40.4229C32.5482 40.4253 32.3024 40.6157 32.2287 40.8867C32.1378 41.2212 32.3369 41.563 32.6736 41.6509C33.0103 41.7412 33.3544 41.5435 33.4454 41.209C33.5339 40.877 33.3348 40.5352 33.0005 40.4448C32.944 40.4302 32.8874 40.4229 32.8309 40.4229ZM53.524 40.4229C53.4625 40.4204 53.3986 40.4277 53.3372 40.4448C53.0029 40.5327 52.8038 40.8745 52.8923 41.209C52.9832 41.5435 53.3273 41.7412 53.6641 41.6509C54.0008 41.5605 54.1999 41.2188 54.109 40.8867C54.0377 40.6206 53.8017 40.4326 53.524 40.4229ZM32.472 43.1719C32.1255 43.1719 31.8428 43.4526 31.8428 43.7969C31.8428 44.1411 32.1255 44.4219 32.472 44.4219C32.8186 44.4219 33.1013 44.1411 33.1013 43.7969C33.1013 43.4526 32.8186 43.1719 32.472 43.1719ZM53.8656 43.1719C53.5191 43.1719 53.2364 43.4526 53.2364 43.7969C53.2364 44.1411 53.5191 44.4219 53.8656 44.4219C54.2122 44.4219 54.4948 44.1411 54.4948 43.7969C54.4948 43.4526 54.2122 43.1719 53.8656 43.1719ZM32.8604 45.9233C32.7965 45.9209 32.735 45.9282 32.6736 45.9453C32.3369 46.0332 32.1378 46.375 32.2287 46.7095C32.3196 47.0439 32.6638 47.2417 33.0005 47.1514C33.3348 47.061 33.5339 46.7192 33.4454 46.3848C33.3741 46.1211 33.1357 45.9331 32.8604 45.9233ZM53.4945 45.9233C53.2143 45.9258 52.966 46.1138 52.8923 46.3848C52.8038 46.7192 53.0029 47.061 53.3372 47.1514C53.6739 47.2417 54.018 47.0439 54.109 46.7095C54.1999 46.375 54.0008 46.0332 53.6641 45.9453C53.61 45.9307 53.5535 45.9233 53.4945 45.9233ZM33.8902 48.4844C33.7846 48.4868 33.6813 48.5137 33.5904 48.5674C33.2905 48.7407 33.1873 49.1216 33.3593 49.4219C33.5339 49.7197 33.9197 49.8223 34.2196 49.6489C34.3646 49.5684 34.4703 49.4316 34.5146 49.2705C34.5563 49.1094 34.5342 48.9385 34.4506 48.7969C34.3351 48.5967 34.1213 48.4771 33.8902 48.4844ZM52.4007 48.4868C52.1893 48.4966 51.9952 48.6138 51.887 48.7969C51.7125 49.0972 51.8157 49.478 52.1156 49.6514C52.4179 49.8247 52.8013 49.7222 52.9759 49.4219C53.1504 49.124 53.0471 48.7432 52.7448 48.5698C52.6416 48.5088 52.5211 48.4819 52.4007 48.4868ZM35.6157 50.6841C35.4436 50.6816 35.279 50.7476 35.1585 50.8672C34.9152 51.1113 34.9152 51.5093 35.1585 51.7534C35.4043 51.9951 35.805 51.9951 36.0507 51.7534C36.2941 51.5093 36.2941 51.1113 36.0507 50.8672C35.9328 50.7524 35.7779 50.689 35.6157 50.6841ZM50.7416 50.6841C50.572 50.6816 50.4074 50.7476 50.2869 50.8672C50.0411 51.1113 50.0411 51.5093 50.2869 51.7534C50.5327 51.9951 50.9309 51.9951 51.1767 51.7534C51.2947 51.6338 51.361 51.4751 51.361 51.3091C51.361 51.1431 51.2947 50.9844 51.1767 50.8672C51.0612 50.7524 50.9038 50.6865 50.7416 50.6841ZM48.5 52.3711C48.3968 52.376 48.2936 52.4028 48.2026 52.4565C47.9003 52.6299 47.7971 53.0107 47.9716 53.3086C48.1461 53.6089 48.5295 53.7114 48.8318 53.5381C49.1317 53.3647 49.2349 52.9839 49.0604 52.6836C48.9474 52.4858 48.7311 52.3662 48.5 52.3711ZM37.7909 52.3735C37.5771 52.3857 37.3829 52.5029 37.2748 52.686C37.1912 52.8301 37.1691 53.001 37.2109 53.1597C37.2551 53.3208 37.3608 53.4575 37.5058 53.5405C37.6484 53.6235 37.8204 53.6455 37.9827 53.604C38.1449 53.5601 38.2825 53.4551 38.3636 53.311C38.5381 53.0132 38.4349 52.6299 38.135 52.459C38.0294 52.3979 37.9089 52.3687 37.7909 52.3735ZM40.3939 53.4355C40.1112 53.438 39.8654 53.626 39.7917 53.897C39.7007 54.2314 39.8998 54.5732 40.2366 54.6636C40.5733 54.7539 40.9174 54.5562 41.0059 54.2217C41.0968 53.8872 40.8977 53.5454 40.5635 53.4551C40.5069 53.4429 40.4504 53.4355 40.3939 53.4355ZM45.961 53.4355C45.8971 53.4331 45.8357 53.4404 45.7742 53.4551C45.612 53.499 45.4743 53.604 45.3908 53.748C45.3072 53.8921 45.2851 54.063 45.3293 54.2241C45.4203 54.5562 45.7644 54.7539 46.0986 54.666C46.4354 54.5757 46.6345 54.2339 46.5435 53.8994C46.4747 53.6333 46.2363 53.4453 45.961 53.4355ZM43.1688 53.7969C42.8223 53.7969 42.5396 54.0776 42.5396 54.4219C42.5396 54.7661 42.8223 55.0469 43.1688 55.0469C43.5154 55.0469 43.7981 54.7661 43.7981 54.4219C43.7981 54.0776 43.5154 53.7969 43.1688 53.7969Z" fill="#0077B6"/>
<ellipse cx="43.1688" cy="43.7969" rx="3.14611" ry="3.125" fill="#51CB20"/>
</svg>
