<svg width="86" height="86" viewBox="0 0 86 86" fill="none" xmlns="http://www.w3.org/2000/svg">
<rect x="0.206207" y="0.796875" width="85" height="85" rx="42.5" fill="#008C99" fill-opacity="0.1"/>
<g clip-path="url(#clip0_90_3047)">
<path d="M29.1989 25.359V19.5007H29.2187C29.2187 19.2809 29.3281 19.0705 29.5083 18.9309C29.6885 18.8007 29.9187 18.7611 30.1385 18.8309C34.6166 20.2799 38.9656 22.0997 43.125 24.4392C45.6896 25.882 48.1781 27.5215 50.576 29.3945C54.2948 32.2986 56.651 36.6278 56.9562 41.3351C57.0875 43.3736 56.9271 45.5163 56.4916 48.1351C56.4427 48.4278 56.3781 48.7174 56.3104 49.0059C56.2781 49.1434 56.25 49.2965 56.2208 49.4622C56.1708 49.7517 56.1312 50.082 56.051 50.4622L53.2718 66.257V66.2767C53.1218 67.007 52.7323 67.6465 52.1823 68.0872C51.6323 68.5361 50.9427 68.7965 50.1927 68.7965H49.6729C49.5833 68.7965 49.4927 68.7767 49.4031 68.7465H45.4541C45.3739 68.7767 45.2843 68.7965 45.1843 68.7965H41.9354C41.4948 68.7965 41.0854 68.707 40.7052 68.5465C40.1354 68.307 39.6656 67.907 39.326 67.407C38.9854 66.907 38.7958 66.2976 38.7958 65.657C38.7958 65.5372 38.8062 65.4278 38.8156 65.308L39.2062 61.808L38.5458 57.9101C38.4156 57.1101 38.3458 56.3101 38.3458 55.5101C38.3458 53.3507 38.826 51.2111 39.776 49.2424L40.5958 47.5424C40.6458 47.433 40.675 47.3226 40.675 47.2122C40.675 47.033 40.6052 46.8424 40.4854 46.7132C40.425 46.6424 40.3552 46.583 40.2656 46.5424C40.1854 46.5028 40.0958 46.4726 39.9854 46.4632L39.1979 46.3976C39.1916 46.3976 39.1843 46.3965 39.1781 46.3965L29.8385 45.6528C29.4781 45.6226 29.1989 45.3236 29.1989 44.9528V30.5976H29.1791V25.359H29.1989ZM30.5885 44.3132L38.7166 44.9611C38.7364 44.9611 38.7562 44.9611 38.776 44.9632L40.0958 45.0736C40.3854 45.0934 40.6552 45.1736 40.8958 45.2934C41.2552 45.4736 41.5552 45.7528 41.7552 46.0934C41.9552 46.4226 42.075 46.8132 42.075 47.2122C42.075 47.5226 42.0052 47.8424 41.8646 48.1424L41.0458 49.8424C40.1958 51.6111 39.7552 53.5507 39.7552 55.5007C39.7552 56.2205 39.8156 56.9497 39.9354 57.6601L40.6052 61.659C40.6156 61.7184 40.6156 61.7882 40.6156 61.8486L40.2156 65.4476C40.2052 65.5174 40.2052 65.5778 40.2052 65.6476C40.2052 65.8872 40.2552 66.107 40.3458 66.3174C40.475 66.6267 40.6958 66.8976 40.975 67.0872C41.2552 67.2767 41.5854 67.3872 41.9552 67.3872H44.5146V67.3767H50.3823C50.7323 67.3372 51.0427 67.207 51.3021 66.9965C51.6021 66.7476 51.8218 66.3976 51.9125 65.9872L54.6916 50.2017V50.182C54.751 49.8924 54.7916 49.6122 54.8312 49.332C54.8614 49.1226 54.901 48.9122 54.951 48.6924C54.9521 48.6903 54.9521 48.6892 54.9531 48.6872C55.0739 48.1997 55.1687 47.7049 55.2271 47.2049C55.4823 45.009 55.8104 42.9059 55.601 41.007C55.101 36.4507 52.3114 32.4205 48.6343 29.684C46.6229 28.1882 44.5479 26.8538 42.4146 25.659C38.6364 23.5288 34.6771 21.8392 30.5979 20.4705V24.9486L42.9552 32.1767C43.5646 32.5267 44.2541 32.707 44.9541 32.707C45.3937 32.707 45.8437 32.6372 46.2739 32.4872C46.6333 32.3663 47.0135 32.2965 47.4031 32.2965C48.0635 32.2965 48.7333 32.4872 49.3229 32.8767C49.8333 33.207 50.2229 33.657 50.4927 34.1663C50.7625 34.6757 50.9021 35.2361 50.9021 35.8163C50.9021 36.3059 50.8021 36.7955 50.5823 37.2653C50.3531 37.7653 50.0229 38.1851 49.6333 38.5049C49.4125 38.6851 49.1729 38.8445 48.9135 38.9653C48.9229 39.0653 48.9229 39.1747 48.9229 39.2747C48.9229 39.9549 48.7229 40.6549 48.2937 41.2642C47.9635 41.7538 47.5135 42.1236 47.0135 42.384C46.5135 42.634 45.9635 42.7736 45.4041 42.7736C44.8843 42.7736 44.3646 42.6642 43.875 42.4236C43.3646 42.1736 42.9448 41.8236 42.625 41.4038C42.3052 40.984 42.0854 40.5049 41.975 40.0049C41.7354 38.8653 41.025 37.8851 40.0156 37.3153H40.0052L30.5885 31.7965V44.3132ZM30.5781 30.157L40.7354 36.0955C42.0854 36.8653 43.0343 38.1851 43.3646 39.7049C43.425 40.0142 43.5646 40.3049 43.7541 40.5549C43.9448 40.8049 44.1948 41.0142 44.5041 41.1642C44.7937 41.3038 45.1041 41.3747 45.4146 41.3747C45.7541 41.3747 46.0843 41.2945 46.3833 41.1445C46.6833 40.9945 46.9437 40.7642 47.1437 40.4747C47.4031 40.0945 47.5239 39.6851 47.5239 39.2747C47.5239 39.0851 47.4937 38.8945 47.4437 38.7049C47.3937 38.5247 47.4135 38.3351 47.5135 38.1747C47.6031 38.0153 47.7531 37.8955 47.9333 37.8455C48.2229 37.7653 48.4927 37.6257 48.7333 37.4351C48.9635 37.2351 49.1635 36.9955 49.3031 36.6851C49.4333 36.4059 49.4927 36.1153 49.4927 35.8257C49.4927 35.4757 49.4031 35.1361 49.2427 34.8257C49.0833 34.5163 48.8427 34.2559 48.5427 34.0559C48.1833 33.8163 47.7833 33.7059 47.3833 33.7059C47.1531 33.7059 46.9239 33.7465 46.7041 33.8163C46.1343 34.0059 45.5343 34.1059 44.9343 34.1059C44.0041 34.1059 43.075 33.8663 42.2448 33.3965H42.2354L30.5781 26.5684V30.157Z" fill="#0077B6"/>
<path d="M48.326 66.9588C48.7351 66.9588 49.0667 66.6272 49.0667 66.2182C49.0667 65.8091 48.7351 65.4775 48.326 65.4775C47.917 65.4775 47.5854 65.8091 47.5854 66.2182C47.5854 66.6272 47.917 66.9588 48.326 66.9588Z" fill="#51CB20"/>
<path d="M48.5625 65.0933C48.9715 65.0933 49.3031 64.7617 49.3031 64.3527C49.3031 63.9436 48.9715 63.6121 48.5625 63.6121C48.1535 63.6121 47.8219 63.9436 47.8219 64.3527C47.8219 64.7617 48.1535 65.0933 48.5625 65.0933Z" fill="#51CB20"/>
<path d="M48.8531 62.7977C49.2621 62.7977 49.5937 62.4661 49.5937 62.057C49.5937 61.648 49.2621 61.3164 48.8531 61.3164C48.444 61.3164 48.1125 61.648 48.1125 62.057C48.1125 62.4661 48.444 62.7977 48.8531 62.7977Z" fill="#51CB20"/>
<path d="M49.2354 60.512C49.6444 60.512 49.976 60.1804 49.976 59.7714C49.976 59.3623 49.6444 59.0308 49.2354 59.0308C48.8264 59.0308 48.4948 59.3623 48.4948 59.7714C48.4948 60.1804 48.8264 60.512 49.2354 60.512Z" fill="#51CB20"/>
<path d="M49.5104 58.3423C49.9194 58.3423 50.251 58.0107 50.251 57.6017C50.251 57.1927 49.9194 56.8611 49.5104 56.8611C49.1013 56.8611 48.7697 57.1927 48.7697 57.6017C48.7697 58.0107 49.1013 58.3423 49.5104 58.3423Z" fill="#51CB20"/>
<path d="M49.7719 56.2757C50.1809 56.2757 50.5125 55.9441 50.5125 55.5351C50.5125 55.126 50.1809 54.7944 49.7719 54.7944C49.3628 54.7944 49.0312 55.126 49.0312 55.5351C49.0312 55.9441 49.3628 56.2757 49.7719 56.2757Z" fill="#51CB20"/>
<path d="M50.0093 54.3924C50.4184 54.3924 50.75 54.0608 50.75 53.6518C50.75 53.2427 50.4184 52.9111 50.0093 52.9111C49.6003 52.9111 49.2687 53.2427 49.2687 53.6518C49.2687 54.0608 49.6003 54.3924 50.0093 54.3924Z" fill="#51CB20"/>
<path d="M50.5135 52.6246C50.9226 52.6246 51.2542 52.293 51.2542 51.8839C51.2542 51.4749 50.9226 51.1433 50.5135 51.1433C50.1045 51.1433 49.7729 51.4749 49.7729 51.8839C49.7729 52.293 50.1045 52.6246 50.5135 52.6246Z" fill="#51CB20"/>
<path d="M51.7615 51.0557C52.1705 51.0557 52.5021 50.7241 52.5021 50.3151C52.5021 49.9061 52.1705 49.5745 51.7615 49.5745C51.3524 49.5745 51.0208 49.9061 51.0208 50.3151C51.0208 50.7241 51.3524 51.0557 51.7615 51.0557Z" fill="#51CB20"/>
<path d="M53.0823 49.5662C53.4913 49.5662 53.8229 49.2346 53.8229 48.8256C53.8229 48.4165 53.4913 48.085 53.0823 48.085C52.6732 48.085 52.3416 48.4165 52.3416 48.8256C52.3416 49.2346 52.6732 49.5662 53.0823 49.5662Z" fill="#51CB20"/>
<path d="M52.4844 46.9068C52.4812 46.9297 52.4792 46.9526 52.4802 46.9755C52.4802 46.9755 52.4802 46.9762 52.4802 46.9776C52.475 47.1245 52.5146 47.2641 52.5875 47.3839C52.5875 47.3839 52.5875 47.3859 52.5875 47.387C52.7021 47.5714 52.8948 47.7047 53.126 47.7349C53.5323 47.7859 53.9021 47.5005 53.9542 47.0943C53.9792 46.8953 53.9229 46.7047 53.8114 46.5568V46.5547C53.6958 46.4005 53.5187 46.2922 53.3125 46.2661C52.9062 46.2151 52.5364 46.5016 52.4844 46.9078V46.9068Z" fill="#51CB20"/>
<path d="M51.2916 45.2621C51.2635 45.4861 51.3385 45.7007 51.4791 45.8538C51.5645 45.9486 51.675 46.0215 51.802 46.0601C51.8447 46.0746 51.8875 46.0851 51.9322 46.0903C52.3385 46.1413 52.7093 45.8538 52.7614 45.4476C52.7833 45.2705 52.7416 45.1007 52.6541 44.9611C52.5406 44.7788 52.3489 44.6486 52.1197 44.6194H52.1156C51.7114 44.5694 51.3437 44.8559 51.2916 45.2611V45.2621Z" fill="#51CB20"/>
<path d="M49.6354 44.8068C49.5854 45.2048 49.8594 45.5683 50.2511 45.6308C50.2594 45.6329 50.2688 45.6339 50.2771 45.635C50.4188 45.6527 50.5552 45.6287 50.6761 45.5746C50.9021 45.4714 51.0708 45.2568 51.1042 44.9923C51.149 44.636 50.9323 44.3048 50.6011 44.1954C50.5563 44.1818 50.5104 44.1704 50.4625 44.1641C50.2823 44.1412 50.1104 44.186 49.9688 44.2756C49.7917 44.3912 49.6636 44.5808 49.6354 44.8058V44.8068Z" fill="#51CB20"/>
<path d="M48.0125 45.735C47.9615 46.1402 48.2489 46.5111 48.6552 46.5631C49.0614 46.6152 49.4312 46.3267 49.4833 45.9215C49.4844 45.9111 49.4865 45.9006 49.4854 45.8913C49.5208 45.4965 49.2364 45.1423 48.8417 45.0923C48.4469 45.0423 48.0802 45.3163 48.0167 45.709C48.0146 45.7173 48.0135 45.7267 48.0125 45.735Z" fill="#51CB20"/>
<path d="M46.6344 44.4287C46.5969 44.7287 46.7437 45.0089 46.9864 45.1548C47.0719 45.2079 47.1708 45.2433 47.2771 45.2568C47.3198 45.262 47.3614 45.2641 47.4021 45.261C47.7562 45.2475 48.0583 44.9787 48.1041 44.6152C48.1375 44.3537 48.0312 44.1068 47.8416 43.9516C47.7375 43.8641 47.6073 43.8048 47.4625 43.786C47.3823 43.7756 47.3021 43.7798 47.226 43.7954C46.9208 43.8548 46.675 44.1048 46.6333 44.4287H46.6344Z" fill="#51CB20"/>
<path d="M45.4656 45.4058C45.8747 45.4058 46.2063 45.0742 46.2063 44.6652C46.2063 44.2561 45.8747 43.9246 45.4656 43.9246C45.0566 43.9246 44.725 44.2561 44.725 44.6652C44.725 45.0742 45.0566 45.4058 45.4656 45.4058Z" fill="#51CB20"/>
<path d="M44.0854 46.7256C44.4944 46.7256 44.826 46.394 44.826 45.985C44.826 45.576 44.4944 45.2444 44.0854 45.2444C43.6764 45.2444 43.3448 45.576 43.3448 45.985C43.3448 46.394 43.6764 46.7256 44.0854 46.7256Z" fill="#51CB20"/>
<path d="M43.8531 48.5611C44.2621 48.5611 44.5937 48.2295 44.5937 47.8205C44.5937 47.4114 44.2621 47.0798 43.8531 47.0798C43.444 47.0798 43.1125 47.4114 43.1125 47.8205C43.1125 48.2295 43.444 48.5611 43.8531 48.5611Z" fill="#51CB20"/>
<path d="M44.8156 50.3006C45.2246 50.3006 45.5562 49.969 45.5562 49.56C45.5562 49.1509 45.2246 48.8193 44.8156 48.8193C44.4066 48.8193 44.075 49.1509 44.075 49.56C44.075 49.969 44.4066 50.3006 44.8156 50.3006Z" fill="#51CB20"/>
<path d="M45.5562 52.1912C45.9652 52.1912 46.2968 51.8596 46.2968 51.4506C46.2968 51.0416 45.9652 50.71 45.5562 50.71C45.1472 50.71 44.8156 51.0416 44.8156 51.4506C44.8156 51.8596 45.1472 52.1912 45.5562 52.1912Z" fill="#51CB20"/>
<path d="M45.4656 54.4131C45.8747 54.4131 46.2063 54.0815 46.2063 53.6725C46.2063 53.2635 45.8747 52.9319 45.4656 52.9319C45.0566 52.9319 44.725 53.2635 44.725 53.6725C44.725 54.0815 45.0566 54.4131 45.4656 54.4131Z" fill="#51CB20"/>
<path d="M45.2187 56.3641C45.6278 56.3641 45.9594 56.0325 45.9594 55.6234C45.9594 55.2144 45.6278 54.8828 45.2187 54.8828C44.8097 54.8828 44.4781 55.2144 44.4781 55.6234C44.4781 56.0325 44.8097 56.3641 45.2187 56.3641Z" fill="#51CB20"/>
<path d="M44.9542 58.4549C45.3632 58.4549 45.6948 58.1233 45.6948 57.7143C45.6948 57.3052 45.3632 56.9736 44.9542 56.9736C44.5451 56.9736 44.2135 57.3052 44.2135 57.7143C44.2135 58.1233 44.5451 58.4549 44.9542 58.4549Z" fill="#51CB20"/>
<path d="M44.7063 60.4141C45.1153 60.4141 45.4469 60.0825 45.4469 59.6735C45.4469 59.2645 45.1153 58.9329 44.7063 58.9329C44.2972 58.9329 43.9656 59.2645 43.9656 59.6735C43.9656 60.0825 44.2972 60.4141 44.7063 60.4141Z" fill="#51CB20"/>
<path d="M44.4271 62.3704C44.8361 62.3704 45.1677 62.0388 45.1677 61.6298C45.1677 61.2208 44.8361 60.8892 44.4271 60.8892C44.018 60.8892 43.6864 61.2208 43.6864 61.6298C43.6864 62.0388 44.018 62.3704 44.4271 62.3704Z" fill="#51CB20"/>
<path d="M44.1187 64.5882C44.5278 64.5882 44.8594 64.2566 44.8594 63.8476C44.8594 63.4385 44.5278 63.1069 44.1187 63.1069C43.7097 63.1069 43.3781 63.4385 43.3781 63.8476C43.3781 64.2566 43.7097 64.5882 44.1187 64.5882Z" fill="#51CB20"/>
<path d="M43.8542 66.8069C44.2632 66.8069 44.5948 66.4753 44.5948 66.0663C44.5948 65.6573 44.2632 65.3257 43.8542 65.3257C43.4451 65.3257 43.1135 65.6573 43.1135 66.0663C43.1135 66.4753 43.4451 66.8069 43.8542 66.8069Z" fill="#51CB20"/>
</g>
<defs>
<clipPath id="clip0_90_3047">
<rect width="50" height="50" fill="white" transform="translate(18.1375 18.7969)"/>
</clipPath>
</defs>
</svg>
