<svg width="86" height="86" viewBox="0 0 86 86" fill="none" xmlns="http://www.w3.org/2000/svg">
<rect x="0.343628" y="0.796875" width="85" height="85" rx="42.5" fill="#008C99" fill-opacity="0.1"/>
<g clip-path="url(#clip0_90_3125)">
<path d="M56.2915 55.6802C56.0608 55.275 55.786 54.8917 55.4725 54.5354C55.3508 54.3979 55.2239 54.2646 55.0907 54.1354C54.7908 53.8448 54.4699 53.5844 54.1301 53.3563C54.0567 53.3063 53.9823 53.2584 53.9078 53.2125C53.4736 52.9438 53.0132 52.725 52.534 52.5594C52.2676 52.4667 51.995 52.3917 51.7181 52.3334C51.2441 52.2313 50.7564 52.1792 50.2604 52.1792C49.4445 52.1792 48.6622 52.3198 47.9344 52.5792C47.5705 52.7084 47.2202 52.8667 46.8867 53.0542C46.1904 53.4407 45.5695 53.9438 45.0483 54.5354C44.7379 54.8875 44.4642 55.2709 44.2314 55.6802C43.663 56.6771 43.3389 57.8292 43.3389 59.0542C43.3389 59.3063 43.3484 59.5209 43.3694 59.7292L43.4082 60.1167L43.0222 60.1813C41.0192 60.5167 39.1945 61.4552 37.7431 62.8969L34.0076 66.6084C33.5703 67.0417 33.177 67.5125 32.832 68.0125H34.3987C34.5592 67.8261 34.7259 67.6448 34.8885 67.4834L38.625 63.7729C40.1121 62.2948 42.1067 61.4188 44.2419 61.3073C44.4338 61.2979 44.5995 61.2094 44.7107 61.0542C44.8239 60.9011 44.8575 60.7146 44.8092 60.5313C44.6687 60.0229 44.5974 59.5261 44.5974 59.0542C44.5974 57.7896 45.019 56.6209 45.7321 55.6802C46.0603 55.2448 46.4515 54.8594 46.892 54.5354C47.8337 53.8407 48.9999 53.4292 50.2604 53.4292C51.5209 53.4292 52.7007 53.8386 53.6446 54.5354C54.084 54.8584 54.4741 55.2438 54.8013 55.6802C55.4683 56.5636 55.8783 57.6532 55.9234 58.8427V58.8698L55.9213 58.8969C55.9203 58.9167 55.9203 58.9313 55.9213 58.9511L55.9234 58.9698V59.0542C55.9234 59.2448 55.9066 59.4219 55.8909 59.5917L55.8877 59.6209C55.8815 59.7073 55.8731 59.8052 55.8573 59.9021V59.9344L55.8521 59.9667C55.8101 60.225 55.7367 60.4521 55.6644 60.6709L55.6413 60.7417C55.5794 60.9375 55.5238 61.0938 55.4651 61.2323C55.4179 61.3459 55.3707 61.4511 55.3225 61.5521C55.2963 61.6032 55.268 61.6469 55.2459 61.6813C55.2355 61.6969 55.226 61.7105 55.2166 61.7282C54.9534 62.2063 54.6838 62.5854 54.3682 62.9198L54.2948 62.9927C53.9938 63.2959 53.6351 63.5719 53.1989 63.8375C52.2739 64.3959 51.285 64.6792 50.2604 64.6792C49.3365 64.6792 48.4556 64.4667 47.6407 64.0459C47.5474 63.9969 47.4478 63.9729 47.3439 63.9729C47.1059 63.9729 46.8909 64.1021 46.7808 64.3094C46.6182 64.6188 46.7367 65.0021 47.0461 65.1625C48.0162 65.6636 49.1278 65.9292 50.2604 65.9292C50.7858 65.9292 51.3154 65.8677 51.8356 65.7448L52.1586 65.6688L52.3075 65.9646C52.6368 66.6188 52.8801 67.3063 53.0321 68.0125H54.3252C54.1689 67.1573 53.8984 66.3313 53.5198 65.55L53.3509 65.2L53.6897 65.0073C53.956 64.8563 54.2161 64.7052 54.4626 64.5177C54.4972 64.4907 54.5297 64.4636 54.5622 64.4354C54.5874 64.4136 54.6136 64.3917 54.6366 64.3729C54.6597 64.3479 54.6828 64.324 54.7122 64.299C54.8548 64.1823 54.9869 64.0563 55.1421 63.9032C55.2533 63.7917 55.3676 63.6646 55.4882 63.5261C55.5144 63.4979 55.5427 63.4719 55.571 63.4448C55.5836 63.4334 55.5962 63.4229 55.6098 63.4073C55.6413 63.3709 55.6707 63.3334 55.7011 63.2948C55.7137 63.2667 55.7325 63.2302 55.7609 63.1959C56.1164 62.7334 56.3995 62.2511 56.625 61.7229C56.7026 61.5427 56.8001 61.3073 56.8735 61.0771C56.8956 61.0063 56.9144 60.9396 56.9344 60.8657C56.9574 60.7813 56.9753 60.6907 56.9941 60.5948C57.0046 60.5407 57.0151 60.4854 57.0266 60.4375C57.0382 60.3792 57.0508 60.3219 57.0644 60.2646C57.0864 60.1646 57.1084 60.0709 57.1189 59.9802L57.1221 59.9625C57.1326 59.8969 57.1441 59.8282 57.1514 59.7615C57.1714 59.5563 57.1819 59.325 57.1819 59.0542V58.8646C57.1504 57.7323 56.8421 56.6448 56.2915 55.6802Z" fill="#51CB20"/>
<path d="M39.9233 44.9229V46.177C39.5353 46.2031 39.1504 46.2447 38.7708 46.301V46.1416C38.4237 46.2437 37.9665 46.3833 37.4348 46.5583C35.9959 46.9031 34.6368 47.4499 33.3878 48.1666C31.6983 49.1364 30.2123 50.4166 29.0084 51.9301C28.5763 52.4739 28.181 53.0468 27.8255 53.6468C26.4884 55.9031 25.7207 58.5312 25.7207 61.3333V68.0124H24.4623V61.3333C24.4623 57.476 25.8057 53.9249 28.053 51.1176C29.0839 49.8281 30.3067 48.6947 31.6774 47.7614C33.5713 46.4708 35.7463 45.5614 38.0913 45.1447C38.6911 45.0374 39.3025 44.9635 39.9233 44.9229Z" fill="#0077B6"/>
<path d="M60.8324 66.7219L59.8791 68.0125H58.3291L59.8078 66.0062C61.277 63.974 61.6409 61.3479 60.782 58.9781L59.7659 56.1781C59.2761 54.8281 58.6039 53.5781 57.7817 52.451C55.2973 49.0354 51.4496 46.749 47.1751 46.2427C47.0524 46.2062 46.9391 46.1719 46.8353 46.1417V46.2073C46.4546 46.1708 46.0698 46.1479 45.6838 46.1406V44.8906C46.0855 44.8979 46.485 44.9198 46.8815 44.9573C53.2177 45.5333 58.7559 49.7229 60.9425 55.7448L61.9587 58.5448C62.9581 61.301 62.5376 64.3573 60.8324 66.7219Z" fill="#0077B6"/>
<path d="M39.6349 35.0801C39.1578 35.0801 38.7708 35.4645 38.7708 35.9385C38.7708 36.4124 39.1578 36.7968 39.6349 36.7968C40.1121 36.7968 40.499 36.4124 40.499 35.9385C40.499 35.4645 40.1121 35.0801 39.6349 35.0801ZM43.3798 24.7801V22.4916H42.2273V24.7801H39.9233V25.9249H42.2273V28.2135H43.3798V25.9249H45.6838V24.7801H43.3798ZM45.9722 35.0801C45.4951 35.0801 45.1081 35.4645 45.1081 35.9385C45.1081 36.4124 45.4951 36.7968 45.9722 36.7968C46.4494 36.7968 46.8353 36.4124 46.8353 35.9385C46.8353 35.4645 46.4484 35.0801 45.9722 35.0801ZM45.9722 35.0801C45.4951 35.0801 45.1081 35.4645 45.1081 35.9385C45.1081 36.4124 45.4951 36.7968 45.9722 36.7968C46.4494 36.7968 46.8353 36.4124 46.8353 35.9385C46.8353 35.4645 46.4484 35.0801 45.9722 35.0801ZM39.6349 35.0801C39.1578 35.0801 38.7708 35.4645 38.7708 35.9385C38.7708 36.4124 39.1578 36.7968 39.6349 36.7968C40.1121 36.7968 40.499 36.4124 40.499 35.9385C40.499 35.4645 40.1121 35.0801 39.6349 35.0801ZM43.3798 24.7801V22.4916H42.2273V24.7801H39.9233V25.9249H42.2273V28.2135H43.3798V25.9249H45.6838V24.7801H43.3798ZM39.6349 35.0801C39.1578 35.0801 38.7708 35.4645 38.7708 35.9385C38.7708 36.4124 39.1578 36.7968 39.6349 36.7968C40.1121 36.7968 40.499 36.4124 40.499 35.9385C40.499 35.4645 40.1121 35.0801 39.6349 35.0801ZM43.3798 24.7801V22.4916H42.2273V24.7801H39.9233V25.9249H42.2273V28.2135H43.3798V25.9249H45.6838V24.7801H43.3798ZM45.9722 35.0801C45.4951 35.0801 45.1081 35.4645 45.1081 35.9385C45.1081 36.4124 45.4951 36.7968 45.9722 36.7968C46.4494 36.7968 46.8353 36.4124 46.8353 35.9385C46.8353 35.4645 46.4484 35.0801 45.9722 35.0801ZM45.9722 35.0801C45.4951 35.0801 45.1081 35.4645 45.1081 35.9385C45.1081 36.4124 45.4951 36.7968 45.9722 36.7968C46.4494 36.7968 46.8353 36.4124 46.8353 35.9385C46.8353 35.4645 46.4484 35.0801 45.9722 35.0801ZM39.6349 35.0801C39.1578 35.0801 38.7708 35.4645 38.7708 35.9385C38.7708 36.4124 39.1578 36.7968 39.6349 36.7968C40.1121 36.7968 40.499 36.4124 40.499 35.9385C40.499 35.4645 40.1121 35.0801 39.6349 35.0801ZM43.3798 24.7801V22.4916H42.2273V24.7801H39.9233V25.9249H42.2273V28.2135H43.3798V25.9249H45.6838V24.7801H43.3798ZM39.6349 35.0801C39.1578 35.0801 38.7708 35.4645 38.7708 35.9385C38.7708 36.4124 39.1578 36.7968 39.6349 36.7968C40.1121 36.7968 40.499 36.4124 40.499 35.9385C40.499 35.4645 40.1121 35.0801 39.6349 35.0801ZM43.3798 24.7801V22.4916H42.2273V24.7801H39.9233V25.9249H42.2273V28.2135H43.3798V25.9249H45.6838V24.7801H43.3798ZM45.9722 35.0801C45.4951 35.0801 45.1081 35.4645 45.1081 35.9385C45.1081 36.4124 45.4951 36.7968 45.9722 36.7968C46.4494 36.7968 46.8353 36.4124 46.8353 35.9385C46.8353 35.4645 46.4484 35.0801 45.9722 35.0801ZM45.9722 35.0801C45.4951 35.0801 45.1081 35.4645 45.1081 35.9385C45.1081 36.4124 45.4951 36.7968 45.9722 36.7968C46.4494 36.7968 46.8353 36.4124 46.8353 35.9385C46.8353 35.4645 46.4484 35.0801 45.9722 35.0801ZM39.6349 35.0801C39.1578 35.0801 38.7708 35.4645 38.7708 35.9385C38.7708 36.4124 39.1578 36.7968 39.6349 36.7968C40.1121 36.7968 40.499 36.4124 40.499 35.9385C40.499 35.4645 40.1121 35.0801 39.6349 35.0801ZM43.3798 24.7801V22.4916H42.2273V24.7801H39.9233V25.9249H42.2273V28.2135H43.3798V25.9249H45.6838V24.7801H43.3798ZM39.6349 35.0801C39.1578 35.0801 38.7708 35.4645 38.7708 35.9385C38.7708 36.4124 39.1578 36.7968 39.6349 36.7968C40.1121 36.7968 40.499 36.4124 40.499 35.9385C40.499 35.4645 40.1121 35.0801 39.6349 35.0801ZM43.3798 24.7801V22.4916H42.2273V24.7801H39.9233V25.9249H42.2273V28.2135H43.3798V25.9249H45.6838V24.7801H43.3798ZM45.9722 35.0801C45.4951 35.0801 45.1081 35.4645 45.1081 35.9385C45.1081 36.4124 45.4951 36.7968 45.9722 36.7968C46.4494 36.7968 46.8353 36.4124 46.8353 35.9385C46.8353 35.4645 46.4484 35.0801 45.9722 35.0801ZM45.9722 35.0801C45.4951 35.0801 45.1081 35.4645 45.1081 35.9385C45.1081 36.4124 45.4951 36.7968 45.9722 36.7968C46.4494 36.7968 46.8353 36.4124 46.8353 35.9385C46.8353 35.4645 46.4484 35.0801 45.9722 35.0801ZM39.6349 35.0801C39.1578 35.0801 38.7708 35.4645 38.7708 35.9385C38.7708 36.4124 39.1578 36.7968 39.6349 36.7968C40.1121 36.7968 40.499 36.4124 40.499 35.9385C40.499 35.4645 40.1121 35.0801 39.6349 35.0801ZM43.3798 24.7801V22.4916H42.2273V24.7801H39.9233V25.9249H42.2273V28.2135H43.3798V25.9249H45.6838V24.7801H43.3798ZM39.6349 35.0801C39.1578 35.0801 38.7708 35.4645 38.7708 35.9385C38.7708 36.4124 39.1578 36.7968 39.6349 36.7968C40.1121 36.7968 40.499 36.4124 40.499 35.9385C40.499 35.4645 40.1121 35.0801 39.6349 35.0801ZM43.3798 24.7801V22.4916H42.2273V24.7801H39.9233V25.9249H42.2273V28.2135H43.3798V25.9249H45.6838V24.7801H43.3798ZM45.9722 35.0801C45.4951 35.0801 45.1081 35.4645 45.1081 35.9385C45.1081 36.4124 45.4951 36.7968 45.9722 36.7968C46.4494 36.7968 46.8353 36.4124 46.8353 35.9385C46.8353 35.4645 46.4484 35.0801 45.9722 35.0801ZM45.9722 35.0801C45.4951 35.0801 45.1081 35.4645 45.1081 35.9385C45.1081 36.4124 45.4951 36.7968 45.9722 36.7968C46.4494 36.7968 46.8353 36.4124 46.8353 35.9385C46.8353 35.4645 46.4484 35.0801 45.9722 35.0801ZM39.6349 35.0801C39.1578 35.0801 38.7708 35.4645 38.7708 35.9385C38.7708 36.4124 39.1578 36.7968 39.6349 36.7968C40.1121 36.7968 40.499 36.4124 40.499 35.9385C40.499 35.4645 40.1121 35.0801 39.6349 35.0801ZM43.3798 24.7801V22.4916H42.2273V24.7801H39.9233V25.9249H42.2273V28.2135H43.3798V25.9249H45.6838V24.7801H43.3798ZM50.9851 26.9239C51.1518 24.3468 51.4402 21.9905 51.4402 21.9905L51.4937 21.5614L51.0952 21.3916C51.0952 21.3916 47 19.6301 42.8031 19.6301C38.6061 19.6301 34.5109 21.3916 34.5109 21.3916L34.1124 21.5614L34.167 21.9905C34.167 21.9905 34.2813 22.9291 34.4071 24.2687C34.4522 24.7489 34.4994 25.2801 34.5435 25.8395C34.5707 26.1916 34.5969 26.5562 34.6211 26.9239C34.1366 27.3708 33.1738 28.3593 32.2636 29.8968C31.7319 30.7947 31.217 31.8801 30.8279 33.1551C30.4063 34.5301 30.1295 36.1249 30.1295 37.9416C30.1295 39.7583 30.7167 42.6301 30.7167 42.6301L30.809 43.0905H38.0367C38.2643 43.3166 38.5097 43.5249 38.7708 43.7145V44.9437C38.5936 44.9947 38.3639 45.0614 38.0912 45.1447C38.6911 45.0374 39.3025 44.9635 39.9233 44.9228V44.3853C40.3575 44.5801 40.8231 44.7312 41.3202 44.8343C41.3433 44.852 41.3663 44.8697 41.3894 44.8874C41.7848 45.1822 42.2672 45.3801 42.8031 45.3801C43.3389 45.3801 43.8203 45.1833 44.2136 44.8874C44.2356 44.8708 44.2576 44.8541 44.2796 44.8364C44.7788 44.7364 45.2476 44.5843 45.6838 44.3874V44.8905C46.0855 44.8978 46.4851 44.9197 46.8815 44.9572C46.8657 44.952 46.85 44.9478 46.8353 44.9437V43.7166C47.0965 43.527 47.3419 43.3166 47.5715 43.0905H54.7971L54.8894 42.6301C54.8894 42.6301 55.4767 39.7853 55.4767 37.9416C55.4767 31.5572 52.0589 27.9145 50.9851 26.9239ZM35.4852 23.4958C35.4191 22.8853 35.3656 22.4614 35.3478 22.3145C35.8921 22.0958 39.2343 20.7749 42.8031 20.7749C46.3718 20.7749 49.714 22.0958 50.2583 22.3145C50.2132 22.6926 49.9332 24.9062 49.7927 27.4364C49.7686 27.8843 49.7476 28.3416 49.7339 28.801C49.7266 29.0968 49.5148 29.3228 49.2285 29.3541C49.2054 29.3572 49.1823 29.3583 49.1582 29.3583H36.4479C36.1291 29.3583 35.8816 29.1208 35.8722 28.801C35.8302 27.4135 35.7295 26.0385 35.6268 24.9093C35.5775 24.3749 35.5292 23.8947 35.4852 23.4958ZM31.7675 41.9468C31.649 41.3228 31.282 39.3072 31.282 37.9416C31.282 37.1135 31.3418 36.3374 31.4477 35.6124C31.5861 34.651 31.8063 33.7791 32.0738 32.9958C32.811 30.8374 33.9132 29.3458 34.7018 28.4728C34.7071 28.5937 34.7154 28.7166 34.7207 28.8353C34.749 29.7562 35.5188 30.502 36.4479 30.502H37.8343C36.7384 31.4926 35.89 32.9593 35.89 34.8249V37.5791C35.89 38.1812 35.9498 38.7687 36.0651 39.3322C36.1889 39.9343 36.3766 40.5093 36.623 41.0458C36.7667 41.3593 36.9314 41.6603 37.1149 41.9468H31.7675ZM43.922 43.7708L43.7574 43.7978L43.6336 43.9114C43.4082 44.1145 43.125 44.2353 42.8031 44.2353C42.4811 44.2353 42.198 44.1145 41.9725 43.9114L41.8487 43.7978L41.6851 43.7708C40.1907 43.5062 39.0193 42.7353 38.2286 41.628C37.8909 41.1572 37.6225 40.6249 37.4274 40.0447C37.1736 39.2937 37.0425 38.4624 37.0425 37.5791V34.8249C37.0425 32.6062 38.5159 31.0968 39.8918 30.502H47.4048C47.9428 31.0728 48.5636 32.0895 48.5636 33.9353V37.5791C48.5636 37.8593 48.55 38.1343 48.5237 38.403C48.2553 41.1739 46.6151 43.2937 43.922 43.7708ZM53.8386 41.9468H48.4923C49.2841 40.7124 49.7161 39.1999 49.7161 37.5791V33.9353C49.7161 33.4551 49.6773 33.0145 49.6071 32.6124C49.4571 31.7405 49.1666 31.0468 48.8342 30.502H49.1582C49.2757 30.502 49.39 30.4905 49.5011 30.4676C49.972 30.3718 50.3758 30.0833 50.6253 29.6885C50.7816 29.4385 50.877 29.1468 50.8865 28.8353C50.8907 28.7166 50.9001 28.5937 50.9043 28.4728C52.1963 29.901 54.3252 32.9853 54.3252 37.9416C54.3252 39.3072 53.9581 41.3228 53.8386 41.9468ZM45.9722 35.0801C45.4951 35.0801 45.1081 35.4645 45.1081 35.9385C45.1081 36.4124 45.4951 36.7968 45.9722 36.7968C46.4494 36.7968 46.8353 36.4124 46.8353 35.9385C46.8353 35.4645 46.4484 35.0801 45.9722 35.0801ZM42.2273 28.2135H43.3798V25.9249H45.6838V24.7801H43.3798V22.4916H42.2273V24.7801H39.9233V25.9249H42.2273V28.2135ZM39.6349 35.0801C39.1578 35.0801 38.7708 35.4645 38.7708 35.9385C38.7708 36.4124 39.1578 36.7968 39.6349 36.7968C40.1121 36.7968 40.499 36.4124 40.499 35.9385C40.499 35.4645 40.1121 35.0801 39.6349 35.0801ZM43.3798 24.7801V22.4916H42.2273V24.7801H39.9233V25.9249H42.2273V28.2135H43.3798V25.9249H45.6838V24.7801H43.3798ZM39.6349 35.0801C39.1578 35.0801 38.7708 35.4645 38.7708 35.9385C38.7708 36.4124 39.1578 36.7968 39.6349 36.7968C40.1121 36.7968 40.499 36.4124 40.499 35.9385C40.499 35.4645 40.1121 35.0801 39.6349 35.0801ZM45.9722 35.0801C45.4951 35.0801 45.1081 35.4645 45.1081 35.9385C45.1081 36.4124 45.4951 36.7968 45.9722 36.7968C46.4494 36.7968 46.8353 36.4124 46.8353 35.9385C46.8353 35.4645 46.4484 35.0801 45.9722 35.0801ZM45.9722 35.0801C45.4951 35.0801 45.1081 35.4645 45.1081 35.9385C45.1081 36.4124 45.4951 36.7968 45.9722 36.7968C46.4494 36.7968 46.8353 36.4124 46.8353 35.9385C46.8353 35.4645 46.4484 35.0801 45.9722 35.0801ZM43.3798 24.7801V22.4916H42.2273V24.7801H39.9233V25.9249H42.2273V28.2135H43.3798V25.9249H45.6838V24.7801H43.3798ZM39.6349 35.0801C39.1578 35.0801 38.7708 35.4645 38.7708 35.9385C38.7708 36.4124 39.1578 36.7968 39.6349 36.7968C40.1121 36.7968 40.499 36.4124 40.499 35.9385C40.499 35.4645 40.1121 35.0801 39.6349 35.0801ZM43.3798 24.7801V22.4916H42.2273V24.7801H39.9233V25.9249H42.2273V28.2135H43.3798V25.9249H45.6838V24.7801H43.3798ZM39.6349 35.0801C39.1578 35.0801 38.7708 35.4645 38.7708 35.9385C38.7708 36.4124 39.1578 36.7968 39.6349 36.7968C40.1121 36.7968 40.499 36.4124 40.499 35.9385C40.499 35.4645 40.1121 35.0801 39.6349 35.0801ZM45.9722 35.0801C45.4951 35.0801 45.1081 35.4645 45.1081 35.9385C45.1081 36.4124 45.4951 36.7968 45.9722 36.7968C46.4494 36.7968 46.8353 36.4124 46.8353 35.9385C46.8353 35.4645 46.4484 35.0801 45.9722 35.0801ZM45.6838 46.1405V47.2416C45.6136 47.3801 44.8648 48.8135 42.8031 48.8135C40.7413 48.8135 39.9925 47.3801 39.9233 47.2416V46.177C39.5353 46.203 39.1504 46.2447 38.7708 46.301V47.5593L38.8316 47.678C38.8316 47.678 40.0261 49.9572 42.8031 49.9572C45.58 49.9572 46.7755 47.678 46.7755 47.678L46.8353 47.5593V46.2072C46.4546 46.1708 46.0698 46.1478 45.6838 46.1405ZM45.9722 35.0801C45.4951 35.0801 45.1081 35.4645 45.1081 35.9385C45.1081 36.4124 45.4951 36.7968 45.9722 36.7968C46.4494 36.7968 46.8353 36.4124 46.8353 35.9385C46.8353 35.4645 46.4484 35.0801 45.9722 35.0801ZM43.3798 24.7801V22.4916H42.2273V24.7801H39.9233V25.9249H42.2273V28.2135H43.3798V25.9249H45.6838V24.7801H43.3798ZM39.6349 35.0801C39.1578 35.0801 38.7708 35.4645 38.7708 35.9385C38.7708 36.4124 39.1578 36.7968 39.6349 36.7968C40.1121 36.7968 40.499 36.4124 40.499 35.9385C40.499 35.4645 40.1121 35.0801 39.6349 35.0801ZM43.3798 24.7801V22.4916H42.2273V24.7801H39.9233V25.9249H42.2273V28.2135H43.3798V25.9249H45.6838V24.7801H43.3798ZM39.6349 35.0801C39.1578 35.0801 38.7708 35.4645 38.7708 35.9385C38.7708 36.4124 39.1578 36.7968 39.6349 36.7968C40.1121 36.7968 40.499 36.4124 40.499 35.9385C40.499 35.4645 40.1121 35.0801 39.6349 35.0801ZM45.9722 35.0801C45.4951 35.0801 45.1081 35.4645 45.1081 35.9385C45.1081 36.4124 45.4951 36.7968 45.9722 36.7968C46.4494 36.7968 46.8353 36.4124 46.8353 35.9385C46.8353 35.4645 46.4484 35.0801 45.9722 35.0801ZM45.9722 35.0801C45.4951 35.0801 45.1081 35.4645 45.1081 35.9385C45.1081 36.4124 45.4951 36.7968 45.9722 36.7968C46.4494 36.7968 46.8353 36.4124 46.8353 35.9385C46.8353 35.4645 46.4484 35.0801 45.9722 35.0801ZM43.3798 24.7801V22.4916H42.2273V24.7801H39.9233V25.9249H42.2273V28.2135H43.3798V25.9249H45.6838V24.7801H43.3798ZM39.6349 35.0801C39.1578 35.0801 38.7708 35.4645 38.7708 35.9385C38.7708 36.4124 39.1578 36.7968 39.6349 36.7968C40.1121 36.7968 40.499 36.4124 40.499 35.9385C40.499 35.4645 40.1121 35.0801 39.6349 35.0801ZM43.3798 24.7801V22.4916H42.2273V24.7801H39.9233V25.9249H42.2273V28.2135H43.3798V25.9249H45.6838V24.7801H43.3798ZM39.6349 35.0801C39.1578 35.0801 38.7708 35.4645 38.7708 35.9385C38.7708 36.4124 39.1578 36.7968 39.6349 36.7968C40.1121 36.7968 40.499 36.4124 40.499 35.9385C40.499 35.4645 40.1121 35.0801 39.6349 35.0801ZM45.9722 35.0801C45.4951 35.0801 45.1081 35.4645 45.1081 35.9385C45.1081 36.4124 45.4951 36.7968 45.9722 36.7968C46.4494 36.7968 46.8353 36.4124 46.8353 35.9385C46.8353 35.4645 46.4484 35.0801 45.9722 35.0801ZM45.9722 35.0801C45.4951 35.0801 45.1081 35.4645 45.1081 35.9385C45.1081 36.4124 45.4951 36.7968 45.9722 36.7968C46.4494 36.7968 46.8353 36.4124 46.8353 35.9385C46.8353 35.4645 46.4484 35.0801 45.9722 35.0801ZM43.3798 24.7801V22.4916H42.2273V24.7801H39.9233V25.9249H42.2273V28.2135H43.3798V25.9249H45.6838V24.7801H43.3798ZM39.6349 35.0801C39.1578 35.0801 38.7708 35.4645 38.7708 35.9385C38.7708 36.4124 39.1578 36.7968 39.6349 36.7968C40.1121 36.7968 40.499 36.4124 40.499 35.9385C40.499 35.4645 40.1121 35.0801 39.6349 35.0801ZM43.3798 24.7801V22.4916H42.2273V24.7801H39.9233V25.9249H42.2273V28.2135H43.3798V25.9249H45.6838V24.7801H43.3798ZM43.3798 24.7801V22.4916H42.2273V24.7801H39.9233V25.9249H42.2273V28.2135H43.3798V25.9249H45.6838V24.7801H43.3798ZM39.6349 35.0801C39.1578 35.0801 38.7708 35.4645 38.7708 35.9385C38.7708 36.4124 39.1578 36.7968 39.6349 36.7968C40.1121 36.7968 40.499 36.4124 40.499 35.9385C40.499 35.4645 40.1121 35.0801 39.6349 35.0801ZM45.9722 35.0801C45.4951 35.0801 45.1081 35.4645 45.1081 35.9385C45.1081 36.4124 45.4951 36.7968 45.9722 36.7968C46.4494 36.7968 46.8353 36.4124 46.8353 35.9385C46.8353 35.4645 46.4484 35.0801 45.9722 35.0801ZM39.6349 35.0801C39.1578 35.0801 38.7708 35.4645 38.7708 35.9385C38.7708 36.4124 39.1578 36.7968 39.6349 36.7968C40.1121 36.7968 40.499 36.4124 40.499 35.9385C40.499 35.4645 40.1121 35.0801 39.6349 35.0801ZM45.9722 35.0801C45.4951 35.0801 45.1081 35.4645 45.1081 35.9385C45.1081 36.4124 45.4951 36.7968 45.9722 36.7968C46.4494 36.7968 46.8353 36.4124 46.8353 35.9385C46.8353 35.4645 46.4484 35.0801 45.9722 35.0801Z" fill="#0077B6"/>
<path d="M37.0436 49.5467C37.5208 49.5467 37.9077 49.1625 37.9077 48.6884C37.9077 48.2144 37.5208 47.8301 37.0436 47.8301C36.5663 47.8301 36.1794 48.2144 36.1794 48.6884C36.1794 49.1625 36.5663 49.5467 37.0436 49.5467Z" fill="#0077B6"/>
<path d="M34.9755 50.5968C35.4528 50.5968 35.8397 50.2125 35.8397 49.7385C35.8397 49.2644 35.4528 48.8801 34.9755 48.8801C34.4983 48.8801 34.1114 49.2644 34.1114 49.7385C34.1114 50.2125 34.4983 50.5968 34.9755 50.5968Z" fill="#0077B6"/>
<path d="M32.9243 52.0167C33.4015 52.0167 33.7884 51.6324 33.7884 51.1584C33.7884 50.6843 33.4015 50.3 32.9243 50.3C32.447 50.3 32.0601 50.6843 32.0601 51.1584C32.0601 51.6324 32.447 52.0167 32.9243 52.0167Z" fill="#0077B6"/>
<path d="M31.196 53.7333C31.6732 53.7333 32.0601 53.349 32.0601 52.8749C32.0601 52.4009 31.6732 52.0166 31.196 52.0166C30.7187 52.0166 30.3318 52.4009 30.3318 52.8749C30.3318 53.349 30.7187 53.7333 31.196 53.7333Z" fill="#0077B6"/>
<path d="M29.8599 55.7396C30.3372 55.7396 30.7241 55.3553 30.7241 54.8813C30.7241 54.4072 30.3372 54.0229 29.8599 54.0229C29.3827 54.0229 28.9958 54.4072 28.9958 54.8813C28.9958 55.3553 29.3827 55.7396 29.8599 55.7396Z" fill="#0077B6"/>
<path d="M28.8354 57.9501C29.3126 57.9501 29.6995 57.5658 29.6995 57.0917C29.6995 56.6177 29.3126 56.2334 28.8354 56.2334C28.3581 56.2334 27.9713 56.6177 27.9713 57.0917C27.9713 57.5658 28.3581 57.9501 28.8354 57.9501Z" fill="#0077B6"/>
<path d="M28.1516 60.1593C28.6289 60.1593 29.0157 59.775 29.0157 59.301C29.0157 58.8269 28.6289 58.4426 28.1516 58.4426C27.6744 58.4426 27.2875 58.8269 27.2875 59.301C27.2875 59.775 27.6744 60.1593 28.1516 60.1593Z" fill="#0077B6"/>
<path d="M27.9712 62.3697C28.4485 62.3697 28.8354 61.9855 28.8354 61.5114C28.8354 61.0374 28.4485 60.6531 27.9712 60.6531C27.494 60.6531 27.1071 61.0374 27.1071 61.5114C27.1071 61.9855 27.494 62.3697 27.9712 62.3697Z" fill="#0077B6"/>
</g>
<defs>
<clipPath id="clip0_90_3125">
<rect width="50.3378" height="50" fill="white" transform="translate(18.2749 18.7969)"/>
</clipPath>
</defs>
</svg>
