<svg width="40" height="41" viewBox="0 0 40 41" fill="none" xmlns="http://www.w3.org/2000/svg">
<g clip-path="url(#clip0_17_3007)">
<mask id="mask0_17_3007" style="mask-type:luminance" maskUnits="userSpaceOnUse" x="0" y="0" width="40" height="41">
<path d="M40 0.90625H0V40.9062H40V0.90625Z" fill="white"/>
</mask>
<g mask="url(#mask0_17_3007)">
<path d="M7.82976 11.193C7.76203 11.193 7.69591 11.1724 7.64018 11.1339C7.58445 11.0954 7.54176 11.0409 7.5178 10.9776C7.49384 10.9142 7.48974 10.8451 7.50605 10.7794C7.52236 10.7137 7.5583 10.6545 7.60909 10.6097L9.13842 9.259L6.16309 10.9763C6.09021 11.0173 6.00459 11.0294 5.92321 11.0102C5.84182 10.991 5.77062 10.942 5.72372 10.8728C5.67681 10.8036 5.65764 10.7193 5.67 10.6366C5.68235 10.5539 5.72534 10.4788 5.79042 10.4263L8.11376 8.597L4.96109 10.417C4.88701 10.46 4.79925 10.4727 4.71599 10.4527C4.63273 10.4327 4.56037 10.3814 4.5139 10.3095C4.46744 10.2376 4.45044 10.1505 4.46642 10.0664C4.48241 9.98228 4.53015 9.90754 4.59976 9.85767L6.22909 8.68567L4.23576 9.83967C4.16217 9.88064 4.07579 9.89224 3.994 9.87213C3.9122 9.85202 3.84106 9.80168 3.79486 9.73125C3.74867 9.66082 3.73085 9.57551 3.74499 9.49247C3.75913 9.40944 3.80418 9.33484 3.87109 9.28367L6.57509 7.27433L3.57509 9.00767C3.50119 9.04822 3.41468 9.05928 3.33296 9.03861C3.25124 9.01793 3.18038 8.96706 3.13466 8.89625C3.08894 8.82543 3.07175 8.73992 3.08655 8.65693C3.10135 8.57394 3.14704 8.49965 3.21442 8.449L5.22109 7.011L3.16776 8.197C3.13116 8.22116 3.09017 8.23788 3.04711 8.2462C3.00405 8.25452 2.95978 8.25428 2.91682 8.24549C2.87386 8.2367 2.83304 8.21953 2.79672 8.19497C2.76039 8.17041 2.72925 8.13893 2.70509 8.10233C2.68093 8.06574 2.66421 8.02474 2.65589 7.98169C2.64757 7.93863 2.64781 7.89436 2.6566 7.85139C2.66539 7.80843 2.68256 7.76762 2.70712 7.73129C2.73168 7.69496 2.76316 7.66383 2.79976 7.63967L5.63642 5.49433L2.88842 7.081C2.81546 7.12222 2.72965 7.13445 2.64807 7.11525C2.5665 7.09605 2.49515 7.04682 2.44824 6.97738C2.40133 6.90794 2.38229 6.82337 2.39493 6.74052C2.40757 6.65768 2.45094 6.58263 2.51642 6.53033L5.02242 4.573L2.91442 5.789C2.84172 5.82782 2.75722 5.83833 2.67723 5.8185C2.59723 5.79867 2.52742 5.74991 2.48126 5.68163C2.43511 5.61335 2.41589 5.53039 2.4273 5.44877C2.43872 5.36715 2.47997 5.29266 2.54309 5.23967L3.72442 4.31833L3.28442 4.57233C3.21223 4.61371 3.12717 4.62659 3.04596 4.60844C2.96475 4.59028 2.89327 4.54242 2.84557 4.47424C2.79786 4.40606 2.77738 4.32251 2.78814 4.23999C2.79891 4.15748 2.84015 4.08198 2.90376 4.02833L3.83709 3.25033C3.79091 3.21832 3.75358 3.17515 3.72855 3.12485C3.70353 3.07454 3.69163 3.01872 3.69396 2.96258C3.69628 2.90644 3.71277 2.8518 3.74187 2.80374C3.77097 2.75567 3.81176 2.71574 3.86042 2.68767L5.98042 1.463C6.0526 1.4223 6.13734 1.40994 6.21813 1.42833C6.29892 1.44672 6.36997 1.49454 6.41742 1.56247C6.46486 1.63039 6.48531 1.71356 6.47478 1.79574C6.46424 1.87793 6.42347 1.95324 6.36042 2.007L6.28576 2.07033L7.57976 1.323C7.65281 1.28153 7.73882 1.26916 7.8206 1.28838C7.90237 1.30761 7.97387 1.35699 8.0208 1.42667C8.06773 1.49634 8.08662 1.58116 8.07369 1.66416C8.06077 1.74717 8.01698 1.82223 7.95109 1.87433L6.77042 2.793L8.82176 1.609C8.89472 1.56778 8.98053 1.55555 9.06211 1.57475C9.14368 1.59395 9.21503 1.64318 9.26194 1.71262C9.30885 1.78206 9.32789 1.86663 9.31525 1.94947C9.30262 2.03232 9.25924 2.10736 9.19376 2.15967L6.68709 4.11767L9.95376 2.23367C10.0272 2.1919 10.1137 2.17953 10.1958 2.19907C10.278 2.21861 10.3496 2.26859 10.3964 2.33892C10.4431 2.40925 10.4614 2.49469 10.4475 2.57799C10.4337 2.66128 10.3887 2.73622 10.3218 2.78767L7.48042 4.93567L10.7798 3.031C10.8537 2.99044 10.9402 2.97939 11.0219 3.00006C11.1037 3.02073 11.1745 3.0716 11.2202 3.14242C11.2659 3.21324 11.2831 3.29875 11.2683 3.38173C11.2535 3.46472 11.2078 3.53902 11.1405 3.58967L9.13309 5.02833L11.2805 3.789C11.3541 3.74714 11.4409 3.73488 11.5232 3.7547C11.6056 3.77453 11.6773 3.82495 11.7238 3.89573C11.7703 3.96651 11.7881 4.05234 11.7736 4.13579C11.7591 4.21923 11.7134 4.29403 11.6458 4.345L8.93976 6.35167L11.6605 4.78167C11.7344 4.74022 11.8213 4.7285 11.9036 4.74889C11.9859 4.76928 12.0573 4.82024 12.1033 4.89141C12.1494 4.96258 12.1666 5.04861 12.1514 5.13201C12.1363 5.2154 12.0899 5.2899 12.0218 5.34033L10.3911 6.513L11.7998 5.699C11.8728 5.65607 11.9594 5.64254 12.0421 5.66117C12.1247 5.6798 12.1971 5.72918 12.2446 5.79929C12.2922 5.8694 12.3112 5.95497 12.298 6.03862C12.2847 6.12227 12.24 6.19773 12.1731 6.24967L9.84976 8.07833L11.6851 7.019C11.7567 6.97749 11.8412 6.9641 11.9221 6.98143C12.0031 6.99877 12.0746 7.04558 12.1229 7.11277C12.1713 7.17997 12.1929 7.26273 12.1835 7.34496C12.1742 7.42719 12.1346 7.50301 12.0725 7.55767L10.5438 8.90633L10.9178 8.691C10.9557 8.66688 10.9982 8.65069 11.0425 8.64339C11.0869 8.63609 11.1323 8.63785 11.1759 8.64854C11.2196 8.65924 11.2606 8.67866 11.2966 8.70563C11.3326 8.7326 11.3627 8.76657 11.3852 8.80549C11.4077 8.84441 11.4221 8.88748 11.4275 8.93211C11.4329 8.97674 11.4293 9.022 11.4168 9.06518C11.4042 9.10835 11.3831 9.14855 11.3546 9.18335C11.3262 9.21815 11.291 9.24683 11.2511 9.26767L7.99976 11.1476C7.9483 11.178 7.8895 11.1937 7.82976 11.193Z" fill="#0077B6"/>
<path d="M7.30053 24.5531C7.22973 24.553 7.1608 24.5304 7.10372 24.4885C7.04664 24.4466 7.00438 24.3876 6.98307 24.3201C6.96175 24.2526 6.96248 24.18 6.98516 24.113C7.00784 24.0459 7.05128 23.9878 7.10919 23.9471L7.53919 23.6451L6.04386 24.5064C5.96987 24.5473 5.88309 24.5586 5.80112 24.5379C5.71914 24.5172 5.64808 24.4662 5.60232 24.3951C5.55657 24.324 5.53953 24.2382 5.55467 24.155C5.56981 24.0718 5.61599 23.9975 5.68386 23.9471L8.04853 22.2604L4.15786 24.5064C4.08392 24.5478 3.99697 24.5596 3.9147 24.5392C3.83243 24.5188 3.76102 24.4678 3.71498 24.3967C3.66895 24.3255 3.65176 24.2395 3.66691 24.1561C3.68206 24.0727 3.72841 23.9982 3.79653 23.9477L8.34653 20.6671L1.79319 24.4511C1.71904 24.4918 1.63218 24.5028 1.55021 24.4819C1.46824 24.4609 1.39731 24.4096 1.35178 24.3383C1.30625 24.267 1.28953 24.181 1.30502 24.0979C1.32051 24.0147 1.36705 23.9405 1.43519 23.8904L7.37253 19.7191L0.884524 23.4644C0.809604 23.507 0.721088 23.519 0.637555 23.4977C0.554021 23.4765 0.481965 23.4237 0.436508 23.3505C0.391051 23.2772 0.375728 23.1892 0.393754 23.1049C0.411781 23.0207 0.461756 22.9466 0.533191 22.8984L4.52919 20.2357L0.853191 22.3577C0.778161 22.3991 0.690103 22.4099 0.607286 22.388C0.524469 22.3662 0.453248 22.3133 0.408399 22.2403C0.36355 22.1673 0.348515 22.0799 0.366413 21.9961C0.384311 21.9123 0.433768 21.8387 0.504524 21.7904L2.82453 20.2711L0.853191 21.4091C0.778784 21.4518 0.690778 21.4641 0.607483 21.4436C0.524187 21.4231 0.452017 21.3712 0.405987 21.2988C0.359956 21.2264 0.34361 21.1391 0.360349 21.0549C0.377088 20.9708 0.425624 20.8963 0.495858 20.8471L5.65519 17.2471L0.855191 20.0191C0.780501 20.0624 0.691904 20.0751 0.608059 20.0544C0.524215 20.0337 0.451667 19.9813 0.405696 19.9082C0.359725 19.8351 0.34392 19.747 0.361608 19.6625C0.379296 19.578 0.429098 19.5036 0.500524 19.4551L4.02119 17.0491L0.853191 18.8764C0.777604 18.9228 0.686676 18.9373 0.600409 18.9167C0.514143 18.896 0.439604 18.842 0.393191 18.7664C0.346778 18.6908 0.332293 18.5999 0.352922 18.5136C0.373551 18.4274 0.427604 18.3528 0.503191 18.3064L1.16519 17.8711L0.853191 18.0511C0.779113 18.094 0.691347 18.1068 0.608089 18.0868C0.524832 18.0668 0.45247 18.0155 0.406005 17.9436C0.35954 17.8717 0.342537 17.7846 0.358522 17.7005C0.374506 17.6164 0.422251 17.5416 0.491858 17.4917L4.01186 14.9584L0.951191 16.7251C0.878478 16.7597 0.795669 16.7669 0.718081 16.7452C0.640493 16.7236 0.573376 16.6745 0.529143 16.6072C0.48491 16.5399 0.466554 16.4588 0.47747 16.379C0.488387 16.2992 0.527837 16.226 0.588524 16.1731L2.93319 14.4704L1.33319 15.3951C1.2622 15.4357 1.17874 15.4488 1.0987 15.4319C1.01866 15.415 0.947629 15.3693 0.899128 15.3034C0.850627 15.2376 0.828044 15.1561 0.835677 15.0747C0.84331 14.9933 0.880627 14.9175 0.940524 14.8617L2.95453 13.0037C2.87991 13.0347 2.7966 13.0375 2.72009 13.0116C2.64357 12.9857 2.57905 12.9329 2.53853 12.8631C2.49427 12.7866 2.48219 12.6957 2.50494 12.6103C2.52769 12.5249 2.58341 12.4521 2.65986 12.4077L5.20653 10.9357C5.2775 10.8957 5.3607 10.883 5.4404 10.9001C5.5201 10.9172 5.59077 10.9629 5.63904 11.0286C5.68732 11.0942 5.70986 11.1753 5.70239 11.2565C5.69492 11.3377 5.65797 11.4133 5.59853 11.4691L3.59386 13.3184L8.11453 10.7064C8.1884 10.6644 8.27555 10.6522 8.35813 10.6723C8.44072 10.6924 8.51251 10.7433 8.55882 10.8145C8.60514 10.8858 8.62249 10.972 8.60731 11.0557C8.59214 11.1393 8.54559 11.214 8.47719 11.2644L6.13319 12.9731L9.45986 11.0524C9.53394 11.0095 9.6217 10.9967 9.70496 11.0167C9.78822 11.0367 9.86058 11.088 9.90704 11.1599C9.95351 11.2318 9.97051 11.3189 9.95453 11.403C9.93854 11.4871 9.8908 11.5619 9.82119 11.6117L6.30253 14.1377L10.6532 11.6257C10.7284 11.5792 10.8191 11.5645 10.9051 11.5848C10.9912 11.6052 11.0657 11.6588 11.1122 11.7341C11.1587 11.8093 11.1734 11.8999 11.1531 11.986C11.1328 12.0721 11.0791 12.1466 11.0039 12.1931L10.3419 12.6284L11.2925 12.0797C11.3671 12.0371 11.4553 12.0249 11.5386 12.0457C11.622 12.0665 11.6941 12.1186 11.7399 12.1913C11.7857 12.2639 11.8017 12.3515 11.7846 12.4357C11.7675 12.5198 11.7185 12.5941 11.6479 12.6431L8.12586 15.0497L12.0505 12.7831C12.125 12.7404 12.213 12.728 12.2963 12.7485C12.3795 12.7691 12.4517 12.8209 12.4978 12.8933C12.5438 12.9657 12.5601 13.0531 12.5434 13.1372C12.5266 13.2214 12.4781 13.2958 12.4079 13.3451L7.24853 16.9451L12.7912 13.7451C12.8661 13.7043 12.9538 13.6938 13.0362 13.7157C13.1186 13.7377 13.1895 13.7903 13.2343 13.8629C13.279 13.9355 13.2943 14.0225 13.2768 14.106C13.2594 14.1895 13.2106 14.2631 13.1405 14.3117L10.8165 15.8397L13.1832 14.4731C13.258 14.4311 13.3461 14.4196 13.4292 14.441C13.5122 14.4623 13.5838 14.5149 13.6292 14.5876C13.6745 14.6604 13.69 14.7479 13.6725 14.8319C13.655 14.9158 13.6058 14.9898 13.5352 15.0384L9.54253 17.6997L13.5332 15.3924C13.6074 15.3517 13.6942 15.3407 13.7762 15.3616C13.8582 15.3826 13.9291 15.4339 13.9746 15.5052C14.0202 15.5765 14.0369 15.6624 14.0214 15.7456C14.0059 15.8288 13.9594 15.9029 13.8912 15.9531L7.95386 20.1251L13.7159 16.7984C13.7898 16.757 13.8768 16.7452 13.959 16.7656C14.0413 16.786 14.1127 16.837 14.1588 16.9081C14.2048 16.9793 14.222 17.0654 14.2068 17.1487C14.1917 17.2321 14.1453 17.3066 14.0772 17.3571L9.52719 20.6397L13.7332 18.2091C13.8074 18.1668 13.8949 18.1545 13.9778 18.1749C14.0607 18.1952 14.1326 18.2466 14.1788 18.3184C14.2249 18.3902 14.2418 18.4769 14.2259 18.5608C14.2099 18.6446 14.1625 18.7192 14.0932 18.7691L11.7332 20.4551L13.7525 19.2897C13.8268 19.2476 13.9145 19.2356 13.9974 19.2562C14.0803 19.2768 14.1521 19.3284 14.1981 19.4004C14.244 19.4724 14.2605 19.5594 14.2442 19.6432C14.228 19.7271 14.1801 19.8015 14.1105 19.8511L13.6772 20.1551L13.7639 20.1057C13.8364 20.0655 13.9213 20.0538 14.0021 20.0729C14.0828 20.0919 14.1535 20.1404 14.2004 20.2088C14.2473 20.2772 14.267 20.3606 14.2557 20.4427C14.2444 20.5249 14.2029 20.5999 14.1392 20.6531L12.7325 21.7864L13.7785 21.1831C13.8506 21.1425 13.9352 21.1302 14.0159 21.1486C14.0965 21.1669 14.1675 21.2146 14.2149 21.2823C14.2624 21.3501 14.283 21.433 14.2727 21.5151C14.2624 21.5972 14.2219 21.6725 14.1592 21.7264L13.8085 22.0211C13.8745 21.9885 13.9493 21.9786 14.0215 21.993C14.0936 22.0074 14.1589 22.0452 14.2073 22.1006C14.2557 22.156 14.2844 22.2258 14.289 22.2992C14.2935 22.3726 14.2737 22.4455 14.2325 22.5064L13.7292 23.2491C13.7948 23.2402 13.8615 23.2511 13.9208 23.2803C13.9802 23.3095 14.0295 23.3557 14.0625 23.4131C14.1065 23.4896 14.1184 23.5804 14.0955 23.6656C14.0727 23.7509 14.0169 23.8235 13.9405 23.8677L12.8392 24.5044C12.774 24.5418 12.698 24.556 12.6237 24.5447C12.5494 24.5335 12.481 24.4975 12.4298 24.4425C12.3785 24.3875 12.3473 24.3168 12.3413 24.2419C12.3353 24.167 12.3547 24.0922 12.3965 24.0297L12.8679 23.3344L10.8339 24.5064C10.7618 24.547 10.6772 24.5592 10.5965 24.5409C10.5159 24.5226 10.4449 24.4749 10.3975 24.4071C10.35 24.3394 10.3294 24.2564 10.3397 24.1744C10.35 24.0923 10.3905 24.017 10.4532 23.9631L10.8032 23.6691L9.35186 24.5064C9.27921 24.5475 9.1938 24.5598 9.11249 24.541C9.03119 24.5221 8.95991 24.4735 8.91275 24.4046C8.86559 24.3358 8.84598 24.2517 8.85778 24.1691C8.86959 24.0865 8.91196 24.0113 8.97653 23.9584L10.3832 22.8251L7.46653 24.5064C7.41624 24.5363 7.35899 24.5523 7.30053 24.5531Z" fill="#0077B6"/>
<path d="M12.7662 24.973C12.6999 24.973 12.6352 24.9532 12.5802 24.9162C12.5252 24.8792 12.4825 24.8266 12.4575 24.7652C12.4325 24.7038 12.4264 24.6364 12.44 24.5715C12.4535 24.5066 12.4861 24.4472 12.5336 24.401L14.4262 22.549L11.8142 24.057C11.7412 24.0999 11.6546 24.1134 11.572 24.0948C11.4893 24.0762 11.4169 24.0268 11.3694 23.9567C11.3218 23.8866 11.3028 23.801 11.3161 23.7173C11.3294 23.6337 11.374 23.5582 11.4409 23.5063L12.8269 22.413L11.2109 23.3463C11.1379 23.387 11.0522 23.3988 10.9709 23.3793C10.8896 23.3598 10.8186 23.3105 10.772 23.2411C10.7253 23.1718 10.7065 23.0874 10.7191 23.0047C10.7317 22.9221 10.775 22.8472 10.8402 22.795L12.5889 21.437L10.7169 22.5176C10.6434 22.5597 10.5567 22.5723 10.4743 22.5528C10.3919 22.5332 10.32 22.4831 10.2733 22.4125C10.2265 22.3419 10.2084 22.2561 10.2226 22.1726C10.2367 22.0892 10.2821 22.0142 10.3496 21.963L12.0462 20.6876L10.3849 21.6463C10.3123 21.6872 10.2271 21.6994 10.146 21.6806C10.0648 21.6618 9.9937 21.6133 9.94654 21.5446C9.89938 21.476 9.87963 21.3922 9.89117 21.3097C9.90272 21.2272 9.94473 21.152 10.0089 21.099L12.2756 19.267L10.1949 20.467C10.1217 20.509 10.0352 20.5217 9.95303 20.5024C9.87081 20.4832 9.79896 20.4335 9.75199 20.3633C9.70502 20.2932 9.68642 20.2078 9.69996 20.1244C9.7135 20.0411 9.75816 19.966 9.82492 19.9143L10.4682 19.4196L10.1856 19.5823C10.1146 19.6208 10.0322 19.6323 9.95344 19.6146C9.87469 19.597 9.80503 19.5513 9.75739 19.4862C9.70976 19.421 9.68737 19.3408 9.69439 19.2604C9.70142 19.18 9.73738 19.1049 9.79559 19.049L10.8036 18.1396L10.1856 18.4963C10.122 18.5329 10.0481 18.5475 9.97536 18.5378C9.90263 18.5281 9.83513 18.4947 9.78332 18.4427C9.73151 18.3908 9.69829 18.3232 9.68882 18.2504C9.67935 18.1776 9.69415 18.1038 9.73092 18.0403L9.96692 17.6336C9.90021 17.6207 9.83903 17.5878 9.79158 17.5391C9.74413 17.4905 9.71268 17.4285 9.70143 17.3615C9.69019 17.2945 9.6997 17.2256 9.72868 17.1642C9.75766 17.1027 9.80473 17.0516 9.86359 17.0176L10.6349 16.5723C10.6985 16.5354 10.7725 16.5206 10.8454 16.5301C10.9183 16.5397 10.986 16.5731 11.038 16.6251C11.09 16.6772 11.1232 16.7449 11.1327 16.8178C11.1421 16.8907 11.1272 16.9647 11.0902 17.0283L10.9356 17.295L13.2062 15.9843C13.2771 15.9458 13.3596 15.9343 13.4384 15.952C13.5171 15.9696 13.5868 16.0153 13.6344 16.0804C13.6821 16.1456 13.7044 16.2258 13.6974 16.3062C13.6904 16.3866 13.6544 16.4617 13.5962 16.5176L12.5869 17.4283L14.4969 16.3256C14.5701 16.2836 14.6566 16.2709 14.7388 16.2902C14.821 16.3094 14.8929 16.3591 14.9398 16.4293C14.9868 16.4995 15.0054 16.5848 14.9919 16.6682C14.9783 16.7515 14.9337 16.8266 14.8669 16.8783L14.2196 17.3763L15.6329 16.561C15.7055 16.5194 15.7911 16.5066 15.8726 16.5251C15.9542 16.5437 16.0259 16.5922 16.0733 16.6612C16.1207 16.7301 16.1405 16.8143 16.1287 16.8972C16.1169 16.98 16.0744 17.0554 16.0096 17.1083L13.7429 18.939L16.4762 17.3603C16.5497 17.3182 16.6364 17.3057 16.7188 17.3252C16.8012 17.3447 16.8731 17.3949 16.9199 17.4655C16.9666 17.5361 16.9847 17.6218 16.9706 17.7053C16.9564 17.7888 16.911 17.8638 16.8436 17.915L15.1482 19.1896L16.4762 18.423C16.5492 18.3823 16.6349 18.3705 16.7162 18.39C16.7975 18.4094 16.8685 18.4588 16.9152 18.5281C16.9618 18.5975 16.9807 18.6819 16.968 18.7645C16.9554 18.8472 16.9121 18.922 16.8469 18.9743L15.0996 20.3296L16.4796 19.5296C16.5526 19.4876 16.6387 19.4748 16.7208 19.4937C16.8029 19.5126 16.8748 19.5619 16.922 19.6317C16.9692 19.7014 16.9882 19.7865 16.9753 19.8697C16.9623 19.9529 16.9184 20.0282 16.8522 20.0803L15.4662 21.177L16.3796 20.6496C16.4498 20.6091 16.5325 20.5956 16.612 20.6116C16.6915 20.6277 16.7625 20.6722 16.8115 20.7368C16.8606 20.8014 16.8844 20.8817 16.8785 20.9626C16.8727 21.0435 16.8375 21.1195 16.7796 21.1763L14.8869 23.029L15.5336 22.6556C15.6097 22.6158 15.6984 22.6069 15.7809 22.6309C15.8635 22.6548 15.9336 22.7097 15.9767 22.7842C16.0197 22.8586 16.0323 22.9468 16.0118 23.0303C15.9914 23.1138 15.9394 23.1862 15.8669 23.2323L12.9329 24.9263C12.8825 24.9566 12.825 24.9727 12.7662 24.973Z" fill="#0077B6"/>
<path d="M32.9425 26.539C32.8752 26.5391 32.8094 26.5188 32.7538 26.4808C32.6983 26.4428 32.6555 26.3888 32.6312 26.326C32.6069 26.2633 32.6021 26.1946 32.6176 26.1291C32.6331 26.0635 32.668 26.0042 32.7178 25.959L34.7491 24.1096L31.1451 26.1903C31.0726 26.2333 30.9864 26.2472 30.9041 26.2292C30.8217 26.2113 30.7491 26.1627 30.7011 26.0934C30.6531 26.0241 30.6331 25.9391 30.6453 25.8556C30.6574 25.7722 30.7007 25.6964 30.7665 25.6436L33.8878 23.0823L29.8411 25.4156C29.7681 25.4586 29.6815 25.4721 29.5989 25.4535C29.5163 25.4348 29.4438 25.3854 29.3963 25.3153C29.3488 25.2452 29.3297 25.1597 29.343 25.076C29.3563 24.9924 29.4009 24.9169 29.4678 24.865L32.9845 22.0923L28.9558 24.4183C28.8818 24.4601 28.7945 24.4721 28.712 24.4517C28.6294 24.4314 28.5577 24.3802 28.5117 24.3087C28.4656 24.2373 28.4486 24.1509 28.4641 24.0673C28.4796 23.9837 28.5265 23.9091 28.5951 23.859L30.5425 22.4683L28.5331 23.629C28.4603 23.6705 28.3745 23.6831 28.2929 23.6642C28.2112 23.6453 28.1397 23.5963 28.0925 23.527C28.0453 23.4577 28.026 23.3732 28.0383 23.2903C28.0507 23.2074 28.0938 23.1322 28.1591 23.0796L31.5898 20.3636L28.2065 22.3163C28.133 22.3575 28.0467 22.3694 27.9649 22.3496C27.883 22.3298 27.8117 22.2797 27.7653 22.2094C27.7188 22.1392 27.7007 22.054 27.7145 21.9709C27.7284 21.8878 27.7731 21.8131 27.8398 21.7616L29.8398 20.2543L28.2398 21.1776C28.1666 21.2181 28.081 21.2295 27.9997 21.2097C27.9185 21.19 27.8477 21.1404 27.8013 21.0709C27.7549 21.0013 27.7363 20.9169 27.7493 20.8343C27.7622 20.7517 27.8057 20.677 27.8711 20.625L28.9378 19.8063L28.5671 20.0196C28.4952 20.061 28.4105 20.0742 28.3294 20.0564C28.2484 20.0387 28.1769 19.9913 28.1289 19.9236C28.0809 19.856 28.0598 19.7728 28.0699 19.6905C28.0799 19.6081 28.1203 19.5325 28.1831 19.4783L29.1998 18.6036C29.1473 18.5757 29.1033 18.5343 29.0722 18.4836C29.0411 18.4329 29.0241 18.3749 29.0231 18.3154C29.022 18.256 29.0368 18.1974 29.066 18.1456C29.0952 18.0938 29.1377 18.0508 29.1891 18.021L31.3111 16.7963C31.3829 16.7557 31.4672 16.7431 31.5478 16.7611C31.6283 16.779 31.6993 16.8261 31.7471 16.8934C31.7948 16.9606 31.816 17.0432 31.8064 17.1252C31.7968 17.2071 31.7571 17.2826 31.6951 17.337L31.3178 17.6616L33.0325 16.6716C33.1058 16.6302 33.192 16.618 33.2739 16.6375C33.3559 16.657 33.4273 16.7068 33.474 16.7769C33.5207 16.847 33.5392 16.9321 33.5256 17.0153C33.5121 17.0984 33.4676 17.1733 33.4011 17.225L32.3331 18.0456L34.2065 16.9643C34.2799 16.9231 34.3662 16.9112 34.4481 16.931C34.5299 16.9508 34.6012 17.0009 34.6477 17.0712C34.6941 17.1414 34.7122 17.2266 34.6984 17.3097C34.6846 17.3928 34.6398 17.4675 34.5731 17.519L32.5778 19.0243L35.2065 17.5063C35.2794 17.4645 35.3654 17.4518 35.4472 17.4707C35.5291 17.4897 35.6008 17.5388 35.648 17.6083C35.6952 17.6778 35.7144 17.7626 35.7017 17.8457C35.6891 17.9287 35.6455 18.004 35.5798 18.0563L32.1491 20.773L36.1765 18.4483C36.2505 18.4065 36.3377 18.3945 36.4203 18.4149C36.5029 18.4352 36.5745 18.4864 36.6206 18.5579C36.6667 18.6293 36.6837 18.7157 36.6682 18.7993C36.6527 18.8829 36.6058 18.9575 36.5371 19.0076L34.5885 20.399L36.6551 19.2076C36.728 19.1659 36.814 19.1532 36.8959 19.1721C36.9778 19.191 37.0495 19.2401 37.0966 19.3096C37.1438 19.3792 37.163 19.4639 37.1504 19.547C37.1377 19.6301 37.0942 19.7053 37.0285 19.7576L33.5105 22.5316L37.0738 20.475C37.1462 20.433 37.2318 20.4198 37.3135 20.4381C37.3952 20.4563 37.4671 20.5047 37.5148 20.5735C37.5625 20.6422 37.5826 20.7265 37.571 20.8094C37.5595 20.8923 37.5172 20.9678 37.4525 21.021L34.3311 23.583L37.0925 21.989C37.1634 21.9494 37.2464 21.9371 37.3258 21.9544C37.4051 21.9717 37.4754 22.0174 37.5235 22.0829C37.5716 22.1484 37.594 22.2292 37.5867 22.3101C37.5794 22.391 37.5428 22.4665 37.4838 22.5223L35.4505 24.373L36.3805 23.8396C36.4184 23.8155 36.4608 23.7993 36.5052 23.792C36.5496 23.7847 36.5949 23.7865 36.6386 23.7972C36.6823 23.8079 36.7233 23.8273 36.7593 23.8543C36.7953 23.8812 36.8254 23.9152 36.8479 23.9541C36.8704 23.993 36.8848 24.0361 36.8902 24.0807C36.8956 24.1254 36.892 24.1706 36.8794 24.2138C36.8669 24.257 36.8458 24.2972 36.8173 24.332C36.7889 24.3668 36.7536 24.3955 36.7138 24.4163L33.1091 26.4976C33.0583 26.5261 33.0007 26.5403 32.9425 26.539Z" fill="#0077B6"/>
<path d="M28.4139 39.8865C28.3432 39.8865 28.2743 39.864 28.2172 39.8222C28.1601 39.7805 28.1177 39.7217 28.0963 39.6543C28.0748 39.5869 28.0754 39.5144 28.0978 39.4473C28.1203 39.3802 28.1635 39.3221 28.2212 39.2812L33.1446 35.7972L26.6779 39.5305C26.6028 39.5732 26.5141 39.5851 26.4304 39.5636C26.3467 39.5422 26.2746 39.4891 26.2293 39.4155C26.184 39.3419 26.1691 39.2537 26.1876 39.1693C26.2061 39.0849 26.2566 39.011 26.3286 38.9632L28.9026 37.2785L26.2412 38.8118C26.1662 38.8532 26.0781 38.864 25.9953 38.8421C25.9125 38.8203 25.8413 38.7674 25.7964 38.6944C25.7516 38.6214 25.7366 38.534 25.7545 38.4502C25.7723 38.3664 25.8218 38.2928 25.8926 38.2445L28.5019 36.5385L26.2132 37.8625C26.1381 37.9045 26.0496 37.9158 25.9663 37.894C25.883 37.8722 25.8114 37.8191 25.7664 37.7457C25.7214 37.6722 25.7066 37.5843 25.725 37.5002C25.7434 37.4161 25.7937 37.3424 25.8652 37.2945L27.8166 36.0232L26.2266 36.9412C26.1524 36.9829 26.065 36.9946 25.9825 36.9739C25.8999 36.9533 25.8284 36.9019 25.7825 36.8302C25.7366 36.7585 25.7199 36.672 25.7358 36.5884C25.7517 36.5048 25.7989 36.4304 25.8679 36.3805L31.4192 32.4672L26.2459 35.4532C26.1718 35.4961 26.0841 35.5089 26.0008 35.4889C25.9175 35.4689 25.8452 35.4176 25.7987 35.3457C25.7522 35.2737 25.7352 35.1867 25.7512 35.1026C25.7672 35.0185 25.815 34.9437 25.8846 34.8938L30.9906 31.2272L26.2666 33.9552C26.1917 33.9959 26.104 34.0064 26.0215 33.9845C25.9391 33.9626 25.8682 33.9099 25.8235 33.8373C25.7787 33.7647 25.7635 33.6777 25.7809 33.5942C25.7984 33.5107 25.8472 33.4371 25.9172 33.3885L26.2346 33.1798C26.1632 33.2068 26.0847 33.2088 26.0121 33.1854C25.9394 33.162 25.8768 33.1147 25.8346 33.0512C25.7881 32.9794 25.771 32.8926 25.7868 32.8086C25.8025 32.7246 25.85 32.6499 25.9192 32.5998L29.2652 30.1865L26.3252 31.8838C26.251 31.9266 26.1631 31.9392 26.0798 31.9189C25.9966 31.8987 25.9243 31.8471 25.8781 31.7749C25.8318 31.7028 25.8152 31.6156 25.8315 31.5315C25.8479 31.4473 25.896 31.3727 25.9659 31.3232L27.5659 30.1898L26.6846 30.6978C26.6136 30.7379 26.5304 30.7506 26.4507 30.7335C26.371 30.7164 26.3003 30.6707 26.252 30.605C26.2038 30.5393 26.1812 30.4582 26.1887 30.3771C26.1962 30.2959 26.2331 30.2203 26.2926 30.1645L28.2779 28.3398C28.1996 28.3667 28.1142 28.3636 28.0381 28.3309C27.9621 28.2983 27.9009 28.2385 27.8664 28.1633C27.832 28.088 27.8268 28.0026 27.8519 27.9238C27.8769 27.8449 27.9304 27.7781 28.0019 27.7365L30.5466 26.2698C30.6175 26.2303 30.7005 26.218 30.7798 26.2353C30.8592 26.2526 30.9295 26.2983 30.9776 26.3638C31.0257 26.4293 31.0481 26.5101 31.0408 26.591C31.0335 26.6719 30.9969 26.7473 30.9379 26.8032L28.9719 28.6098L33.4252 26.0385C33.4995 25.9957 33.5873 25.9831 33.6706 26.0034C33.7539 26.0237 33.8261 26.0752 33.8724 26.1474C33.9186 26.2196 33.9353 26.3067 33.9189 26.3909C33.9026 26.475 33.8545 26.5496 33.7846 26.5992L32.1886 27.7325L34.6332 26.3212C34.7072 26.2787 34.7946 26.2662 34.8775 26.2863C34.9604 26.3064 35.0325 26.3574 35.0789 26.429C35.1253 26.5006 35.1424 26.5872 35.1269 26.6711C35.1113 26.755 35.0642 26.8297 34.9952 26.8798L31.6492 29.2938L35.8412 26.8732C35.9163 26.8305 36.0051 26.8186 36.0888 26.8401C36.1724 26.8615 36.2445 26.9146 36.2898 26.9882C36.3351 27.0617 36.3501 27.15 36.3316 27.2344C36.313 27.3188 36.2625 27.3927 36.1906 27.4405L35.9119 27.6232L36.4826 27.2945C36.5566 27.2516 36.6444 27.2388 36.7277 27.2588C36.8109 27.2788 36.8833 27.3301 36.9298 27.402C36.9762 27.4739 36.9932 27.561 36.9772 27.6451C36.9612 27.7292 36.9135 27.804 36.8439 27.8538L31.7412 31.5205L37.4746 28.2098C37.5488 28.1682 37.6361 28.1564 37.7187 28.1771C37.8012 28.1977 37.8728 28.2491 37.9186 28.3208C37.9645 28.3925 37.9812 28.479 37.9653 28.5626C37.9494 28.6462 37.9022 28.7206 37.8332 28.7705L32.2739 32.6798L38.2239 29.2452C38.2989 29.2049 38.3864 29.1949 38.4685 29.2171C38.5507 29.2393 38.6212 29.2921 38.6657 29.3646C38.7102 29.4371 38.7252 29.5239 38.7078 29.6072C38.6904 29.6905 38.6417 29.7639 38.5719 29.8125L36.6199 31.0852L38.5866 29.9518C38.6618 29.9081 38.7512 29.8955 38.8356 29.9168C38.92 29.938 38.9927 29.9914 39.0382 30.0656C39.0837 30.1398 39.0985 30.2288 39.0792 30.3137C39.06 30.3986 39.0083 30.4726 38.9352 30.5198L36.3279 32.2245L38.8752 30.7538C38.9501 30.7131 39.0378 30.7026 39.1202 30.7245C39.2027 30.7464 39.2735 30.7991 39.3183 30.8717C39.3631 30.9443 39.3783 31.0313 39.3608 31.1148C39.3434 31.1983 39.2946 31.2719 39.2246 31.3205L36.6539 33.0038L39.0679 31.6105C39.1421 31.5677 39.23 31.5551 39.3133 31.5754C39.3965 31.5957 39.4688 31.6473 39.5151 31.7194C39.5613 31.7916 39.578 31.8787 39.5616 31.9629C39.5453 32.047 39.4971 32.1216 39.4272 32.1712L34.5012 35.6565L39.1466 32.9732C39.2202 32.9313 39.307 32.919 39.3893 32.9389C39.4717 32.9587 39.5434 33.0091 39.5899 33.0799C39.6364 33.1507 39.6542 33.2365 39.6397 33.32C39.6252 33.4034 39.5795 33.4782 39.5119 33.5292L35.7179 36.3378L39.1466 34.3592C39.2194 34.3176 39.3052 34.3051 39.3868 34.324C39.4685 34.3429 39.5401 34.3918 39.5872 34.4611C39.6344 34.5304 39.6537 34.6149 39.6414 34.6979C39.629 34.7808 39.5859 34.856 39.5206 34.9085L36.8592 37.0265L39.1466 35.7065C39.2175 35.6685 39.2997 35.6573 39.3782 35.6752C39.4566 35.6931 39.526 35.7387 39.5734 35.8037C39.6208 35.8687 39.6432 35.9486 39.6363 36.0288C39.6294 36.1089 39.5937 36.1839 39.5359 36.2398L37.9446 37.6692L39.1446 36.9758C39.2099 36.9383 39.2861 36.924 39.3606 36.9353C39.4351 36.9466 39.5036 36.9828 39.5549 37.0381C39.6061 37.0933 39.6372 37.1643 39.643 37.2394C39.6487 37.3146 39.6288 37.3894 39.5866 37.4518L38.8532 38.5325L39.0579 38.4152C39.0958 38.3911 39.1383 38.3749 39.1826 38.3676C39.227 38.3603 39.2724 38.362 39.316 38.3727C39.3597 38.3834 39.4007 38.4028 39.4367 38.4298C39.4727 38.4568 39.5028 38.4907 39.5253 38.5297C39.5478 38.5686 39.5622 38.6117 39.5676 38.6563C39.573 38.7009 39.5694 38.7462 39.5569 38.7893C39.5443 38.8325 39.5232 38.8727 39.4947 38.9075C39.4663 38.9423 39.4311 38.971 39.3912 38.9918L37.9246 39.8392C37.8592 39.8767 37.7831 39.891 37.7086 39.8797C37.634 39.8684 37.5655 39.8322 37.5143 39.7769C37.463 39.7217 37.4319 39.6507 37.4262 39.5756C37.4204 39.5004 37.4403 39.4256 37.4826 39.3632L38.2159 38.2825L35.5192 39.8398C35.4483 39.8779 35.3661 39.889 35.2876 39.8711C35.2092 39.8533 35.1398 39.8076 35.0924 39.7427C35.045 39.6777 35.0226 39.5977 35.0295 39.5176C35.0364 39.4374 35.0721 39.3624 35.1299 39.3065L36.7206 37.8765L33.3152 39.8398C33.2424 39.8822 33.1562 39.8954 33.074 39.8767C32.9919 39.8581 32.9198 39.8091 32.8723 39.7395C32.8249 39.6699 32.8055 39.5849 32.8182 39.5016C32.8308 39.4183 32.8746 39.3429 32.9406 39.2905L35.5999 37.1732L30.9812 39.8398C30.9076 39.8817 30.8208 39.894 30.7385 39.8741C30.6561 39.8543 30.5844 39.8039 30.5379 39.7331C30.4914 39.6623 30.4736 39.5765 30.4881 39.493C30.5026 39.4096 30.5483 39.3348 30.6159 39.2838L34.4106 36.4738L28.5806 39.8398C28.5301 39.8698 28.4726 39.8859 28.4139 39.8865Z" fill="#0077B6"/>
<path d="M26.366 40.4504C26.2988 40.4503 26.2332 40.43 26.1778 40.392C26.1224 40.354 26.0797 40.3002 26.0554 40.2376C26.0311 40.175 26.0263 40.1064 26.0417 40.041C26.057 39.9756 26.0917 39.9164 26.1413 39.8711L27.1293 38.9731L25.6413 39.8324C25.5687 39.874 25.4831 39.8868 25.4015 39.8682C25.3199 39.8497 25.2483 39.8011 25.2009 39.7322C25.1535 39.6633 25.1337 39.579 25.1455 39.4962C25.1573 39.4134 25.1998 39.338 25.2646 39.2851L26.404 38.3644L24.9593 39.1984C24.8863 39.2404 24.8001 39.2533 24.718 39.2343C24.636 39.2154 24.5641 39.1661 24.5169 39.0964C24.4697 39.0266 24.4506 38.9416 24.4636 38.8583C24.4765 38.7751 24.5205 38.6999 24.5866 38.6477L26.1533 37.4117L24.3746 38.4384C24.3009 38.4797 24.2143 38.4915 24.1323 38.4714C24.0502 38.4512 23.9789 38.4007 23.9327 38.33C23.8864 38.2593 23.8688 38.1737 23.8833 38.0905C23.8977 38.0073 23.9432 37.9327 24.0106 37.8817L24.986 37.1631L23.9933 37.7351C23.9203 37.7763 23.8345 37.7885 23.7529 37.7693C23.6714 37.7501 23.6 37.7009 23.5531 37.6314C23.5062 37.562 23.4872 37.4774 23.4998 37.3946C23.5124 37.3117 23.5558 37.2367 23.6213 37.1844L26.0546 35.2771L23.642 36.6664C23.5692 36.71 23.4827 36.7242 23.3998 36.7062C23.317 36.6882 23.2441 36.6394 23.196 36.5695C23.1479 36.4997 23.1283 36.4142 23.141 36.3304C23.1538 36.2466 23.198 36.1708 23.2646 36.1184L25.2646 34.4951L23.52 35.5064C23.4495 35.5482 23.3662 35.5625 23.2858 35.5468C23.2054 35.531 23.1337 35.4862 23.0842 35.421C23.0348 35.3557 23.0111 35.2745 23.0177 35.1929C23.0243 35.1112 23.0607 35.0349 23.12 34.9784L24.8306 33.3237L23.52 34.0777C23.4581 34.1137 23.3863 34.1288 23.3151 34.1208C23.244 34.1128 23.1773 34.0822 23.125 34.0333C23.0726 33.9845 23.0374 33.9201 23.0245 33.8497C23.0116 33.7793 23.0217 33.7066 23.0533 33.6424L23.3833 32.9677C23.3084 32.972 23.2343 32.951 23.1729 32.9079C23.1115 32.8649 23.0663 32.8024 23.0448 32.7305C23.0233 32.6587 23.0267 32.5817 23.0543 32.512C23.082 32.4423 23.1324 32.3839 23.1973 32.3464L23.9686 31.9011C24.0305 31.8651 24.1023 31.85 24.1734 31.858C24.2446 31.8659 24.3112 31.8966 24.3636 31.9455C24.4159 31.9943 24.4512 32.0587 24.4641 32.1291C24.477 32.1995 24.4669 32.2722 24.4353 32.3364L24.1326 32.9544L26.8433 31.3904C26.9137 31.3486 26.9971 31.3343 27.0774 31.35C27.1578 31.3658 27.2295 31.4106 27.279 31.4758C27.3284 31.5411 27.3521 31.6223 27.3456 31.7039C27.339 31.7855 27.3026 31.8619 27.2433 31.9184L25.5333 33.5731L28.5786 31.8151C28.6513 31.7715 28.7379 31.7572 28.8208 31.7752C28.9036 31.7932 28.9765 31.8421 29.0246 31.9119C29.0726 31.9817 29.0923 32.0673 29.0796 32.1511C29.0668 32.2349 29.0226 32.3107 28.956 32.3631L26.9559 33.9864L29.8 32.3411C29.8731 32.2978 29.9599 32.2841 30.0428 32.3027C30.1257 32.3213 30.1983 32.3709 30.2459 32.4412C30.2935 32.5116 30.3124 32.5975 30.2988 32.6814C30.2851 32.7652 30.24 32.8407 30.1726 32.8924L27.7406 34.7984L29.8126 33.6024C29.8863 33.5602 29.9734 33.5477 30.056 33.5675C30.1386 33.5873 30.2106 33.6379 30.2571 33.709C30.3037 33.78 30.3213 33.8662 30.3065 33.9499C30.2917 34.0335 30.2454 34.1083 30.1773 34.1591L29.2 34.8797L29.8126 34.5264C29.8855 34.4854 29.9711 34.4733 30.0525 34.4925C30.1339 34.5117 30.2051 34.5607 30.252 34.6299C30.2989 34.6992 30.3181 34.7835 30.3057 34.8662C30.2934 34.9489 30.2504 35.0239 30.1853 35.0764L28.6186 36.3124L29.7666 35.6497C29.8393 35.6071 29.9255 35.5935 30.0077 35.6118C30.09 35.6301 30.1623 35.6789 30.2101 35.7484C30.2578 35.8178 30.2775 35.9028 30.2651 35.9862C30.2527 36.0696 30.2092 36.1451 30.1433 36.1977L29.0053 37.1164L29.462 36.8531C29.5329 36.8135 29.6159 36.8012 29.6952 36.8185C29.7746 36.8358 29.8449 36.8815 29.893 36.947C29.941 37.0125 29.9635 37.0933 29.9562 37.1742C29.9489 37.2551 29.9123 37.3306 29.8533 37.3864L28.6486 38.4857C28.7187 38.4929 28.7847 38.522 28.8372 38.569C28.8896 38.616 28.9259 38.6784 28.9407 38.7473C28.9555 38.8161 28.9481 38.8879 28.9196 38.9523C28.8911 39.0167 28.8429 39.0704 28.782 39.1057L26.5333 40.4057C26.4826 40.4354 26.4247 40.4509 26.366 40.4504Z" fill="#0077B6"/>
<path d="M13.3536 30.3804C13.2902 30.3804 13.2281 30.3622 13.1746 30.3282C13.1212 30.2941 13.0785 30.2455 13.0517 30.188C13.0249 30.1305 13.0151 30.0666 13.0233 30.0038C13.0315 29.9409 13.0575 29.8817 13.0982 29.8331L13.4709 29.3884C13.4072 29.4122 13.3377 29.4158 13.2718 29.399C13.206 29.3821 13.1468 29.3455 13.1023 29.2941C13.0579 29.2426 13.0302 29.1788 13.023 29.1112C13.0158 29.0436 13.0295 28.9754 13.0622 28.9157L13.3536 28.3871C13.2833 28.3801 13.2171 28.351 13.1644 28.304C13.1117 28.257 13.0754 28.1944 13.0605 28.1254C13.0457 28.0563 13.0532 27.9844 13.0819 27.9199C13.1106 27.8553 13.159 27.8016 13.2202 27.7664L13.9996 27.3191C14.0627 27.2825 14.136 27.2677 14.2084 27.2768C14.2807 27.2859 14.3481 27.3185 14.4001 27.3695C14.4522 27.4206 14.4861 27.4873 14.4966 27.5595C14.507 27.6317 14.4936 27.7053 14.4582 27.7691L14.2269 28.1891L14.7676 27.8764C14.8354 27.8374 14.9148 27.8235 14.9919 27.8371C15.0689 27.8508 15.1387 27.8911 15.1891 27.951C15.2394 28.011 15.267 28.0867 15.2671 28.165C15.2672 28.2432 15.2398 28.319 15.1896 28.3791L14.8256 28.8131L15.4256 28.4664C15.5018 28.4266 15.5904 28.4177 15.673 28.4416C15.7555 28.4656 15.8256 28.5205 15.8687 28.595C15.9117 28.6694 15.9243 28.7576 15.9038 28.8411C15.8834 28.9246 15.8315 28.9969 15.7589 29.0431L13.5209 30.3357C13.47 30.3651 13.4123 30.3805 13.3536 30.3804Z" fill="#51CB20"/>
<path d="M13.4212 39.5063C13.3507 39.5063 13.2819 39.484 13.2249 39.4424C13.1679 39.4009 13.1255 39.3424 13.1038 39.2752C13.0822 39.2081 13.0824 39.1358 13.1045 39.0688C13.1265 39.0018 13.1693 38.9435 13.2266 38.9023L14.3552 38.0916L13.5146 38.577C13.4413 38.6184 13.355 38.6306 13.2731 38.6111C13.1912 38.5916 13.1197 38.5418 13.073 38.4717C13.0263 38.4016 13.0079 38.3164 13.0214 38.2333C13.0349 38.1502 13.0794 38.0753 13.1459 38.0236L16.0059 35.8376L13.5019 37.283C13.4289 37.3269 13.3418 37.3412 13.2585 37.3229C13.1752 37.3047 13.1021 37.2552 13.0543 37.1847C13.0064 37.1141 12.9873 37.028 13.001 36.9438C13.0147 36.8597 13.0601 36.784 13.1279 36.7323L15.6279 34.7556L11.4346 37.173C11.36 37.2144 11.2725 37.2257 11.1899 37.2046C11.1073 37.1834 11.0359 37.1314 10.9905 37.0593C10.945 36.9871 10.929 36.9003 10.9456 36.8166C10.9623 36.733 11.0103 36.6589 11.0799 36.6096L11.4306 36.3696L10.0392 37.1696C9.96486 37.2131 9.87659 37.226 9.79289 37.2058C9.70919 37.1856 9.63655 37.1338 9.59019 37.0613C9.54383 36.9887 9.52734 36.901 9.54418 36.8166C9.56102 36.7322 9.60989 36.6575 9.68054 36.6083L11.7072 35.191L8.2792 37.173C8.20523 37.2154 8.11779 37.2279 8.03489 37.2078C7.95199 37.1878 7.87993 37.1367 7.83355 37.0651C7.78716 36.9935 7.76999 36.9069 7.78555 36.823C7.80111 36.7392 7.84823 36.6645 7.9172 36.6143L11.7612 33.8416L5.98987 37.175C5.91583 37.2168 5.8286 37.2288 5.74604 37.2084C5.66347 37.188 5.59181 37.1369 5.54572 37.0654C5.49964 36.9939 5.48261 36.9076 5.49813 36.8239C5.51365 36.7403 5.56054 36.6658 5.6292 36.6156L10.5719 33.0756L3.4712 37.173C3.396 37.2143 3.30773 37.2251 3.22479 37.203C3.14185 37.1809 3.07063 37.1277 3.02595 37.0544C2.98128 36.9811 2.96659 36.8934 2.98496 36.8096C3.00332 36.7257 3.05332 36.6522 3.12454 36.6043L3.55387 36.329L2.09987 37.173C2.02557 37.2151 1.93792 37.2271 1.85502 37.2065C1.77211 37.1859 1.70028 37.1343 1.65434 37.0623C1.60841 36.9903 1.59188 36.9034 1.60817 36.8195C1.62445 36.7356 1.67231 36.6612 1.74187 36.6116L5.02987 34.3043L1.0752 36.5843C1.00096 36.6271 0.913082 36.6397 0.829816 36.6194C0.74655 36.5991 0.674293 36.5476 0.62805 36.4754C0.581807 36.4032 0.56513 36.3161 0.581483 36.2319C0.597836 36.1478 0.645962 36.0732 0.715868 36.0236L3.35054 34.161L0.853201 35.6023C0.78015 35.6438 0.694134 35.6561 0.61236 35.6369C0.530586 35.6177 0.459084 35.5683 0.412157 35.4986C0.365231 35.429 0.346341 35.3441 0.359266 35.2611C0.372191 35.1781 0.415978 35.1031 0.481868 35.051L3.19987 32.9296L0.853201 34.2836C0.781327 34.3244 0.696877 34.337 0.616232 34.319C0.535587 34.301 0.464496 34.2537 0.416746 34.1863C0.368996 34.1189 0.347992 34.0361 0.357807 33.9541C0.367623 33.872 0.407558 33.7966 0.469868 33.7423L2.10254 32.3423L0.853201 33.065C0.782047 33.1059 0.698272 33.1192 0.617937 33.1022C0.537603 33.0853 0.46636 33.0392 0.417868 32.973C0.36914 32.9067 0.34661 32.8248 0.354609 32.743C0.362608 32.6612 0.400571 32.5852 0.461201 32.5296L0.963201 32.0703L0.853201 32.137C0.785694 32.1754 0.706899 32.189 0.630419 32.1755C0.55394 32.162 0.484578 32.1222 0.43431 32.063C0.384041 32.0038 0.356022 31.9289 0.355089 31.8512C0.354156 31.7736 0.380369 31.698 0.429201 31.6376L0.772535 31.217C0.695089 31.1915 0.62995 31.138 0.589868 31.067C0.545823 30.9906 0.533861 30.8998 0.556603 30.8146C0.579346 30.7293 0.634937 30.6566 0.711201 30.6123L1.8172 29.973C1.88471 29.9346 1.96351 29.921 2.03999 29.9345C2.11646 29.948 2.18583 29.9878 2.23609 30.047C2.28636 30.1062 2.31438 30.1811 2.31532 30.2587C2.31625 30.3364 2.29004 30.4119 2.2412 30.4723L2.09854 30.6463L3.2732 29.9683C3.34418 29.9282 3.42738 29.9155 3.50708 29.9326C3.58678 29.9497 3.65745 29.9954 3.70572 30.0611C3.754 30.1268 3.77653 30.2079 3.76907 30.2891C3.7616 30.3702 3.72465 30.4459 3.6652 30.5016L3.16254 30.961L4.8892 29.961C4.96108 29.9202 5.04553 29.9076 5.12617 29.9256C5.20682 29.9436 5.27791 29.9909 5.32566 30.0583C5.37341 30.1257 5.39441 30.2085 5.3846 30.2905C5.37478 30.3726 5.33485 30.448 5.27254 30.5023L3.6392 31.9023L7.0072 29.9583C7.08025 29.9168 7.16627 29.9045 7.24804 29.9237C7.32982 29.9429 7.40132 29.9923 7.44825 30.062C7.49517 30.1316 7.51406 30.2165 7.50114 30.2995C7.48821 30.3825 7.44443 30.4575 7.37854 30.5096L4.65987 32.635L9.29787 29.9576C9.37211 29.9148 9.45999 29.9023 9.54326 29.9225C9.62652 29.9428 9.69878 29.9944 9.74502 30.0665C9.79126 30.1387 9.80794 30.2259 9.79159 30.31C9.77524 30.3941 9.72711 30.4687 9.6572 30.5183L7.02187 32.385L11.2266 29.9576C11.3009 29.9155 11.3885 29.9035 11.4714 29.9241C11.5543 29.9447 11.6261 29.9963 11.6721 30.0683C11.718 30.1403 11.7345 30.2273 11.7183 30.3111C11.702 30.395 11.6541 30.4694 11.5846 30.519L8.3012 32.8196L15.5886 28.613C15.6637 28.5727 15.7514 28.5628 15.8336 28.5853C15.9158 28.6077 15.9863 28.6608 16.0306 28.7336C16.0749 28.8064 16.0897 28.8934 16.0718 28.9767C16.0539 29.0601 16.0048 29.1334 15.9346 29.1816L15.4966 29.463L16.1306 29.097C16.2046 29.0551 16.2918 29.0432 16.3744 29.0635C16.457 29.0839 16.5286 29.1351 16.5747 29.2065C16.6208 29.278 16.6378 29.3644 16.6223 29.448C16.6068 29.5316 16.5599 29.6061 16.4912 29.6563L11.5479 33.197L17.1186 29.981C17.1925 29.9385 17.28 29.926 17.3629 29.9461C17.4458 29.9662 17.5178 30.0172 17.5642 30.0888C17.6106 30.1604 17.6278 30.247 17.6122 30.3309C17.5967 30.4148 17.5495 30.4895 17.4806 30.5396L13.6386 33.311L18.0159 30.7836C18.0528 30.7601 18.094 30.744 18.1371 30.7364C18.1802 30.7288 18.2244 30.7297 18.2671 30.7391C18.3099 30.7486 18.3503 30.7663 18.3862 30.7914C18.4221 30.8165 18.4527 30.8484 18.4762 30.8853C18.4998 30.9222 18.5158 30.9634 18.5235 31.0065C18.5311 31.0496 18.5302 31.0938 18.5207 31.1365C18.5113 31.1793 18.4935 31.2197 18.4684 31.2556C18.4434 31.2915 18.4115 31.3221 18.3746 31.3456L16.3446 32.7656L18.7072 31.4016C18.7819 31.3583 18.8705 31.3456 18.9544 31.3663C19.0382 31.387 19.1107 31.4394 19.1567 31.5125C19.2027 31.5856 19.2185 31.6737 19.2008 31.7582C19.1831 31.8427 19.1333 31.9171 19.0619 31.9656L18.7119 32.2036L19.2546 31.8916C19.3274 31.8494 19.4136 31.8363 19.4957 31.855C19.5778 31.8736 19.6498 31.9227 19.6972 31.9923C19.745 32.0618 19.7646 32.1467 19.7523 32.2301C19.7399 32.3135 19.6964 32.389 19.6306 32.4416L17.1266 34.4196L20.1372 32.6816C20.2105 32.6393 20.2972 32.6264 20.3797 32.6457C20.4621 32.6649 20.5342 32.7148 20.5812 32.7852C20.6282 32.8556 20.6467 32.9413 20.6328 33.0248C20.6189 33.1084 20.5738 33.1835 20.5066 33.235L17.6486 35.4196L19.8359 34.157C19.91 34.114 19.9977 34.1012 20.081 34.1212C20.1642 34.1413 20.2366 34.1925 20.2831 34.2645C20.3295 34.3364 20.3465 34.4234 20.3306 34.5076C20.3146 34.5917 20.2668 34.6664 20.1972 34.7163L17.2926 36.8016C17.3235 36.8271 17.3497 36.8578 17.3699 36.8923C17.4141 36.9689 17.4261 37.0598 17.4032 37.1452C17.3803 37.2306 17.3244 37.3034 17.2479 37.3476L13.5879 39.4603C13.5374 39.4902 13.4799 39.5061 13.4212 39.5063Z" fill="#51CB20"/>
<path d="M26.9812 11.9063C26.9079 11.9063 26.8365 11.8821 26.7783 11.8374C26.7201 11.7928 26.6783 11.7301 26.6593 11.6593C26.6403 11.5884 26.6452 11.5132 26.6733 11.4454C26.7014 11.3776 26.751 11.321 26.8146 11.2843L38.2206 4.69835C38.2941 4.65683 38.3806 4.64476 38.4627 4.66459C38.5448 4.68442 38.6163 4.73466 38.6628 4.80517C38.7093 4.87568 38.7272 4.9612 38.7131 5.04445C38.6989 5.12771 38.6537 5.20248 38.5866 5.25368L34.3199 8.43835L39.1152 5.67035C39.1893 5.62908 39.2764 5.61761 39.3586 5.63827C39.4409 5.65893 39.5122 5.71017 39.558 5.78155C39.6038 5.85293 39.6206 5.93908 39.6051 6.02247C39.5896 6.10585 39.543 6.18019 39.4746 6.23035L37.4666 7.64702L39.1466 6.67835C39.2188 6.63625 39.3042 6.62281 39.3858 6.64071C39.4675 6.65861 39.5394 6.70653 39.5874 6.77498C39.6354 6.84343 39.6559 6.92741 39.6449 7.01027C39.6339 7.09313 39.5921 7.16883 39.5279 7.22235L36.9586 9.38435L39.1466 8.12168C39.2193 8.08039 39.3049 8.06794 39.3864 8.08681C39.4679 8.10569 39.5393 8.1545 39.5864 8.22357C39.6336 8.29264 39.6531 8.37692 39.641 8.45968C39.6289 8.54244 39.5862 8.61764 39.5212 8.67035L39.0232 9.07035L39.1466 8.99968C39.2154 8.96052 39.296 8.94718 39.3739 8.96204C39.4517 8.97691 39.5217 9.01902 39.5713 9.08081C39.6209 9.14261 39.6468 9.22005 39.6445 9.29926C39.6422 9.37846 39.6117 9.45424 39.5586 9.51302L38.9446 10.1797L39.1372 10.069C39.1752 10.0449 39.2176 10.0287 39.262 10.0214C39.3063 10.0141 39.3517 10.0159 39.3954 10.0266C39.439 10.0373 39.4801 10.0567 39.516 10.0837C39.552 10.1106 39.5821 10.1446 39.6046 10.1835C39.6271 10.2224 39.6415 10.2655 39.647 10.3101C39.6524 10.3548 39.6487 10.4 39.6362 10.4432C39.6237 10.4864 39.6025 10.5266 39.5741 10.5614C39.5456 10.5962 39.5104 10.6249 39.4706 10.6457L37.3999 11.8396C37.331 11.8793 37.2502 11.8929 37.1721 11.8783C37.094 11.8636 37.0238 11.8214 36.974 11.7595C36.9242 11.6976 36.8981 11.6199 36.9006 11.5405C36.903 11.461 36.9337 11.3851 36.9872 11.3263L37.6006 10.6597L35.5459 11.8456C35.4732 11.8869 35.3876 11.8994 35.3061 11.8805C35.2246 11.8616 35.1532 11.8128 35.106 11.7438C35.0589 11.6747 35.0394 11.5904 35.0515 11.5076C35.0635 11.4249 35.1063 11.3497 35.1712 11.297L35.6686 10.897L34.0239 11.8463C33.9518 11.8875 33.8669 11.9003 33.7858 11.8822C33.7048 11.8641 33.6334 11.8164 33.5857 11.7484C33.538 11.6804 33.5173 11.5971 33.5279 11.5147C33.5384 11.4323 33.5793 11.3568 33.6426 11.303L36.2099 9.14102L31.5166 11.851C31.4423 11.8938 31.3544 11.9064 31.2712 11.8861C31.1879 11.8658 31.1157 11.8142 31.0694 11.7421C31.0232 11.6699 31.0065 11.5827 31.0228 11.4986C31.0392 11.4145 31.0873 11.3399 31.1572 11.2903L33.1666 9.86968L29.7292 11.8543C29.6557 11.8958 29.5691 11.9079 29.4871 11.8881C29.405 11.8682 29.3335 11.818 29.287 11.7475C29.2405 11.677 29.2226 11.5915 29.2367 11.5082C29.2509 11.425 29.2961 11.3502 29.3632 11.299L33.6299 8.11568L27.1466 11.859C27.0966 11.8891 27.0396 11.9055 26.9812 11.9063Z" fill="#51CB20"/>
<path d="M25.8364 14.5371C25.7784 14.5371 25.7213 14.522 25.6709 14.4933C25.6205 14.4645 25.5785 14.4231 25.549 14.3732C25.5195 14.3232 25.5036 14.2664 25.5028 14.2084C25.5019 14.1504 25.5163 14.0932 25.5444 14.0424L25.771 13.6337L25.2377 13.9404C25.1702 13.9788 25.0914 13.9924 25.0149 13.9789C24.9384 13.9654 24.8691 13.9256 24.8188 13.8664C24.7685 13.8072 24.7405 13.7323 24.7396 13.6547C24.7387 13.577 24.7649 13.5015 24.8137 13.4411L25.2324 12.9284L24.5484 13.3231C24.473 13.3692 24.3823 13.3835 24.2964 13.3628C24.2104 13.3421 24.1362 13.2881 24.09 13.2127C24.0439 13.1373 24.0296 13.0467 24.0503 12.9607C24.071 12.8748 24.125 12.8005 24.2004 12.7544L25.8864 11.6617L23.9464 12.7824C23.8721 12.8235 23.785 12.8348 23.7027 12.8138C23.6205 12.7929 23.5493 12.7414 23.5037 12.6698C23.4581 12.5982 23.4416 12.5119 23.4574 12.4285C23.4733 12.3451 23.5204 12.2709 23.589 12.2211L28.0557 9.10107L23.0557 11.9884C22.9819 12.03 22.8951 12.042 22.8128 12.0219C22.7305 12.0018 22.6589 11.9511 22.6126 11.8801C22.5664 11.8092 22.5489 11.7232 22.5637 11.6398C22.5785 11.5564 22.6245 11.4818 22.6924 11.4311L26.9877 8.28507L22.0824 11.1171C22.0091 11.1594 21.9224 11.1723 21.8399 11.153C21.7574 11.1338 21.6854 11.0839 21.6384 11.0135C21.5914 10.9431 21.5729 10.8574 21.5868 10.7739C21.6007 10.6903 21.6458 10.6152 21.713 10.5637L25.333 7.79973L21.1044 10.2397C21.0307 10.2816 20.9439 10.2939 20.8616 10.274C20.7793 10.2542 20.7076 10.2038 20.6611 10.133C20.6145 10.0622 20.5967 9.97639 20.6112 9.89295C20.6257 9.8095 20.6714 9.7347 20.739 9.68373L22.8444 8.12307L20.3484 9.56307C20.2753 9.60377 20.1897 9.61555 20.1084 9.59607C20.0271 9.57659 19.9561 9.52727 19.9094 9.45789C19.8628 9.38851 19.8439 9.30414 19.8566 9.2215C19.8692 9.13886 19.9124 9.06399 19.9777 9.01173L22.611 6.9664L19.557 8.72907C19.4829 8.77136 19.3954 8.7836 19.3125 8.76327C19.2296 8.74293 19.1576 8.69158 19.1115 8.61978C19.0653 8.54798 19.0485 8.46122 19.0644 8.37736C19.0803 8.29351 19.1278 8.21896 19.197 8.16907L20.8637 6.98307C20.7905 6.99985 20.7138 6.99144 20.6461 6.9592C20.5783 6.92697 20.5233 6.8728 20.4902 6.80546C20.457 6.73812 20.4475 6.66155 20.4633 6.58816C20.4791 6.51477 20.5191 6.44884 20.577 6.40107L24.6437 3.03973C24.6177 2.96635 24.6182 2.88617 24.6451 2.8131C24.672 2.74004 24.7236 2.6787 24.791 2.63973L25.933 1.98507C26.0055 1.94311 26.0911 1.92995 26.1727 1.9482C26.2544 1.96645 26.3263 2.01477 26.374 2.08355C26.4217 2.15234 26.4418 2.23656 26.4302 2.31948C26.4187 2.40239 26.3764 2.47792 26.3117 2.53107L24.0704 4.3804L26.4837 2.98773C26.5578 2.94544 26.6454 2.9332 26.7283 2.95353C26.8112 2.97387 26.8831 3.02522 26.9293 3.09702C26.9754 3.16882 26.9923 3.25558 26.9764 3.33944C26.9604 3.42329 26.913 3.49784 26.8437 3.54773L25.3024 4.6444L26.493 3.95707C26.5658 3.91629 26.6513 3.90429 26.7325 3.92345C26.8137 3.9426 26.8847 3.99151 26.9316 4.06051C26.9785 4.12952 26.9979 4.2136 26.9858 4.29616C26.9737 4.37871 26.9311 4.45373 26.8664 4.5064L24.233 6.55173L27.5497 4.63973C27.6233 4.59788 27.7101 4.58561 27.7925 4.60544C27.8748 4.62526 27.9465 4.67568 27.993 4.74647C28.0395 4.81725 28.0574 4.90308 28.0429 4.98652C28.0284 5.06997 27.9827 5.14477 27.915 5.19573L25.8117 6.75373L29.4784 4.6384C29.5517 4.59605 29.6384 4.58318 29.7208 4.60242C29.8033 4.62166 29.8753 4.67156 29.9224 4.74198C29.9694 4.81241 29.9878 4.89809 29.9739 4.98162C29.9601 5.06515 29.9149 5.14027 29.8477 5.19173L26.229 7.95573L31.9744 4.63973C32.0482 4.59809 32.135 4.58611 32.2173 4.60622C32.2996 4.62633 32.3712 4.67702 32.4174 4.74799C32.4637 4.81896 32.4812 4.90488 32.4664 4.9883C32.4516 5.07172 32.4056 5.14636 32.3377 5.19707L28.0417 8.3424L34.457 4.63973C34.5313 4.59862 34.6184 4.58738 34.7007 4.6083C34.7829 4.62923 34.8541 4.68075 34.8997 4.75235C34.9453 4.82395 34.9618 4.91024 34.946 4.99362C34.9301 5.077 34.883 5.15119 34.8144 5.20107L30.3477 8.32107L36.721 4.63973C36.7962 4.59774 36.8847 4.58646 36.968 4.60824C37.0512 4.63002 37.1229 4.68318 37.1679 4.75659C37.2128 4.82999 37.2277 4.91795 37.2092 5.00205C37.1908 5.08614 37.1406 5.15985 37.069 5.20773L26.979 11.7497C26.9744 11.8194 26.9481 11.8859 26.9037 11.9397L26.4857 12.4511C26.5491 12.4162 26.6221 12.4029 26.6936 12.4132C26.7652 12.4234 26.8315 12.4567 26.8826 12.508C26.9336 12.5592 26.9666 12.6257 26.9765 12.6973C26.9865 12.7689 26.9728 12.8419 26.9377 12.9051L26.6497 13.4244C26.7194 13.4325 26.7847 13.4623 26.8364 13.5096C26.8882 13.557 26.9237 13.6194 26.9378 13.6881C26.952 13.7568 26.9442 13.8282 26.9154 13.8922C26.8867 13.9561 26.8385 14.0094 26.7777 14.0444L26.003 14.4924C25.9524 14.5217 25.8949 14.5371 25.8364 14.5371Z" fill="#51CB20"/>
<path d="M34.9277 26.3116C34.711 26.2383 34.4944 26.183 34.2784 26.131C35.2701 25.8422 36.1417 25.2404 36.7632 24.4154C37.3846 23.5904 37.7225 22.5865 37.7264 21.5536C37.385 15.2143 27.6204 15.087 27.6057 21.5536C27.5568 22.5883 27.8624 23.6086 28.472 24.446C29.0816 25.2834 29.9587 25.8877 30.9584 26.159C29.7299 26.4954 28.61 27.1455 27.7086 28.0455C26.8072 28.9454 26.1554 30.0643 25.817 31.2923C24.7297 31.5243 23.5084 31.565 23.0964 32.503C22.907 34.5863 22.8477 36.8363 24.091 38.6623C24.933 39.9996 26.753 41.4456 28.133 39.8756H35.0624C35.129 39.9543 35.2537 39.9423 35.373 39.8756C39.573 40.209 39.973 38.8583 39.7277 34.849C39.7277 31.167 38.859 27.6396 34.9277 26.3116ZM28.4217 21.5936C28.5417 15.9303 36.703 15.8603 36.9344 21.5383C36.7237 27.2676 28.595 27.3336 28.4217 21.5936ZM25.6564 39.215C23.593 37.7196 23.4977 35.0923 23.6397 32.773C24.9397 31.891 27.581 32.047 28.9137 32.5203C30.2004 32.8776 29.533 32.5663 29.6917 33.1343C30.301 35.3983 28.6937 40.963 25.6564 39.215ZM38.9384 38.1063C38.5384 39.2643 37.0917 39.453 35.6644 39.4176V32.1163C35.6644 31.6229 35.0017 31.983 35.0017 32.363V39.3896C32.7524 39.1856 30.9077 39.2955 28.7204 39.2703C29.8652 37.9396 30.436 36.2096 30.3077 34.459C30.3077 33.869 30.543 32.6923 30.153 32.1576C29.8364 31.7223 29.027 31.7396 28.5697 31.6423C27.9491 31.4378 27.3094 31.2964 26.6604 31.2203C28.5737 25.3535 37.351 24.9976 38.7857 31.4923C39.0305 33.6882 39.0816 35.9014 38.9384 38.1063Z" fill="#262626"/>
<path d="M17.0597 17.3637C16.7083 16.2817 15.2417 16.3464 14.1797 16.0651C13.8828 14.8547 13.2818 13.7403 12.4336 12.8272C11.5855 11.9142 10.5182 11.2328 9.333 10.8477C14.2663 8.55436 12.5243 0.696357 6.86633 1.20902C1.87034 1.67902 0.702335 8.91702 5.309 10.8657C1.19966 12.1404 0.238335 16.0451 0.329001 19.8477C0.329001 22.4404 -0.106332 24.6084 3.04434 24.6084H11.9777C13.1777 25.7231 14.673 24.8751 15.537 23.7904C17.1997 21.9731 17.0657 19.7904 17.063 17.5071C17.0796 17.4605 17.0785 17.4094 17.0597 17.3637ZM2.99967 6.17702C3.07033 0.544357 11.3457 0.883024 11.6863 6.30636C11.333 11.8204 2.93301 11.7024 2.99967 6.17702ZM5.06633 23.9731V16.9064C5.06633 16.5064 4.26634 16.5064 4.26634 16.9064V24.0097C2.79967 24.0331 1.37034 23.7977 1.00367 22.4404C0.543001 20.7331 0.794335 17.1937 1.35166 15.5171C3.41833 9.31102 11.5823 10.5337 13.401 15.9944C12.9106 16.0302 12.4262 16.1249 11.9583 16.2764C11.3643 16.4224 10.337 16.3684 9.86566 16.8177C9.39433 17.2671 9.60433 18.3424 9.60433 18.9297C9.51801 19.8182 9.61444 20.7149 9.88764 21.5647C10.1609 22.4145 10.6051 23.1994 11.193 23.8711C9.08634 23.8951 7.21367 23.7931 5.06633 23.9731ZM16.249 20.3731C16.1703 22.0497 14.2797 25.2184 12.4703 24.0697C12.4669 24.0387 12.4571 24.0087 12.4416 23.9816C12.4261 23.9544 12.4053 23.9308 12.3803 23.912C12.3553 23.8933 12.3267 23.8799 12.2964 23.8726C12.266 23.8653 12.2344 23.8643 12.2037 23.8697C10.4037 22.3737 10.1643 19.6844 10.395 17.4944C11.1283 16.7804 12.6523 16.8124 13.627 16.6944C13.6655 16.7297 13.7149 16.7506 13.767 16.7536C13.8191 16.7567 13.8707 16.7416 13.913 16.7111C14.2897 16.7511 16.1197 17.0217 16.2723 17.3957C16.3177 18.3879 16.3099 19.3817 16.249 20.3731Z" fill="#262626"/>
<path d="M18.2224 30.5451C16.6344 28.9137 12.5224 24.6397 13.0531 29.8637C11.5258 29.9111 9.9598 29.8691 8.42713 29.8777C6.59913 29.8777 3.00046 29.1231 1.30513 30.0851C-0.380875 31.0584 0.333125 34.1731 0.327792 35.7391C0.865792 37.7177 2.77979 37.2684 4.45113 37.2684H9.1718C10.1178 37.2684 12.0611 36.8684 12.9224 37.3137C13.1104 37.7944 12.8591 38.5264 12.9924 39.0091C14.3258 41.9391 18.0558 36.4757 19.2631 35.5377C22.3638 33.4397 20.3544 32.1477 18.2224 30.5451ZM16.3451 37.3397C14.9278 39.0024 13.4424 40.1304 13.6784 36.8277C13.6822 36.7935 13.679 36.7588 13.669 36.7257C13.659 36.6927 13.6424 36.6621 13.6202 36.6357C13.598 36.6093 13.5707 36.5876 13.5399 36.572C13.5091 36.5565 13.4755 36.5473 13.4411 36.5451H7.77446C6.39046 36.5451 1.55513 37.3724 1.00846 35.4117C0.711792 31.8864 0.450459 30.0471 4.74179 30.5977H13.2264C13.3424 30.5914 13.4521 30.5432 13.5353 30.4622C13.6185 30.3812 13.6696 30.2728 13.6791 30.1571C13.6791 27.2957 14.6491 28.4184 16.2391 29.8404C21.1871 33.6271 21.5331 33.4231 16.3451 37.3397Z" fill="#262626"/>
<path d="M39.6053 6.08772C39.1126 4.07572 37.1273 4.50239 35.4613 4.50705C32.7633 4.28372 29.5159 4.94572 26.9653 4.46639C27.3313 -1.44561 22.7426 4.23039 21.1939 5.79972C20.2093 6.68039 18.5939 7.50705 19.3126 8.97705C20.1239 10.6437 23.0119 12.3364 24.3966 13.5617C26.4373 15.5391 27.1813 14.2471 26.9793 11.9617C30.4199 11.4471 34.6293 12.8124 38.0606 11.9617C40.4526 11.2837 39.6446 8.02239 39.6053 6.08772ZM38.5026 10.6304C37.6153 11.5324 36.1199 11.1737 34.8859 11.1737H26.6866C26.5948 11.1858 26.511 11.2321 26.4518 11.3033C26.3926 11.3744 26.3624 11.4653 26.3673 11.5577C26.3673 14.4817 25.2759 13.3711 23.6719 11.9364C22.9126 11.2577 19.8306 9.28372 19.7639 8.24705C19.7053 7.32839 22.9499 5.17305 23.6373 4.55772C25.2279 3.13572 26.3673 1.97839 26.3673 4.89105C26.2199 5.78305 31.3673 5.10772 32.3133 5.30639C33.6719 5.30639 38.4206 4.50172 39.0386 6.37305C39.0666 7.74905 39.4573 9.65905 38.5026 10.6304Z" fill="#262626"/>
<path d="M27.0904 34.6491L26.389 35.7011C26.0024 35.1011 25.4757 35.5437 25.8204 36.1011L26.265 36.5451C26.8517 36.8631 27.187 35.5024 27.5757 35.1644C27.791 34.8397 27.3677 34.2337 27.0904 34.6491Z" fill="#262626"/>
<path d="M13.7917 19.287C13.5517 19.647 13.3115 20.0072 13.071 20.3676C12.8937 20.1423 12.5897 19.8903 12.4104 20.2563C12.2104 20.6943 12.711 20.9656 12.9544 21.2496C13.501 21.455 13.8384 20.1936 14.2077 19.859C14.4664 19.579 14.1364 18.9063 13.7917 19.287Z" fill="#262626"/>
</g>
</g>
<defs>
<clipPath id="clip0_17_3007">
<rect width="40" height="40" fill="white" transform="translate(0 0.90625)"/>
</clipPath>
</defs>
</svg>
