<svg width="46" height="47" viewBox="0 0 46 47" fill="none" xmlns="http://www.w3.org/2000/svg">
<g clip-path="url(#clip0_17_3058)">
<mask id="mask0_17_3058" style="mask-type:luminance" maskUnits="userSpaceOnUse" x="0" y="0" width="46" height="47">
<path d="M46 0.90625H0V46.9062H46V0.90625Z" fill="white"/>
</mask>
<g mask="url(#mask0_17_3058)">
<path d="M26.9737 39.613C26.9025 39.613 26.8328 39.5932 26.7722 39.5557C26.7116 39.5183 26.6627 39.4648 26.6309 39.4011C26.599 39.3374 26.5856 39.2661 26.592 39.1952C26.5983 39.1243 26.6244 39.0566 26.6671 38.9997L27.6768 37.6664L25.5148 38.9146C25.4323 38.9611 25.3355 38.9755 25.243 38.9549C25.1506 38.9344 25.069 38.8803 25.0141 38.8032C24.9591 38.726 24.9347 38.6313 24.9454 38.5372C24.9562 38.4431 25.0014 38.3563 25.0724 38.2936L25.8529 37.6166L25.5148 37.8113C25.4315 37.8596 25.3331 37.8747 25.2391 37.8537C25.1451 37.8327 25.0625 37.7772 25.0077 37.6981C24.9528 37.619 24.9297 37.5221 24.943 37.4268C24.9563 37.3314 25.0049 37.2445 25.0793 37.1834L25.4082 36.9136C25.3367 36.9291 25.2623 36.9241 25.1935 36.8991C25.1247 36.8742 25.0644 36.8303 25.0195 36.7725C24.9629 36.6987 24.935 36.6069 24.941 36.5141C24.9471 36.4212 24.9867 36.3338 25.0525 36.268L26.789 34.5331L25.5148 35.2683C25.4332 35.3138 25.3378 35.3279 25.2465 35.308C25.1552 35.2881 25.0743 35.2355 25.0191 35.1602C24.9638 35.0849 24.938 34.992 24.9464 34.899C24.9548 34.8059 24.9969 34.7192 25.0647 34.655L26.2477 33.5755L25.5148 33.9987C25.4343 34.0429 25.3407 34.0568 25.2509 34.0378C25.1612 34.0188 25.0812 33.9683 25.0255 33.8953C24.9698 33.8224 24.9421 33.7319 24.9475 33.6403C24.9529 33.5487 24.9909 33.462 25.0548 33.3961L26.7905 31.6604L25.5171 32.3956C25.4354 32.443 25.3391 32.4586 25.2467 32.4394C25.1542 32.4203 25.0721 32.3676 25.016 32.2916C24.96 32.2156 24.934 32.1216 24.943 32.0276C24.9519 31.9336 24.9953 31.8463 25.0647 31.7823L26.3535 30.5893L25.5171 31.0723C25.4359 31.1186 25.3405 31.1337 25.249 31.1146C25.1574 31.0956 25.076 31.0437 25.0201 30.9688C24.9641 30.8939 24.9374 30.8011 24.9451 30.7079C24.9528 30.6148 24.9942 30.5276 25.0617 30.4628L26.536 29.0568L25.5171 29.644C25.4342 29.6907 25.3369 29.7048 25.2441 29.6837C25.1514 29.6626 25.0698 29.6078 25.0152 29.5299C24.9606 29.452 24.937 29.3566 24.9488 29.2622C24.9607 29.1678 25.0072 29.0812 25.0793 29.0192L25.5332 28.6359L25.5171 28.6451C25.437 28.6913 25.3429 28.707 25.2521 28.6893C25.1613 28.6716 25.08 28.6217 25.0232 28.5488C24.9663 28.4758 24.9377 28.3848 24.9427 28.2925C24.9476 28.2001 24.9858 28.1127 25.0502 28.0463L26.93 26.1066L25.5148 26.9231C25.4344 26.9695 25.3399 26.9851 25.2488 26.9671C25.1578 26.949 25.0763 26.8986 25.0197 26.825C24.963 26.7515 24.935 26.6599 24.9407 26.5673C24.9465 26.4747 24.9856 26.3872 25.0509 26.3213L26.8396 24.5112L25.5148 25.2779C25.4331 25.3267 25.3362 25.3435 25.2428 25.3248C25.1495 25.3062 25.0664 25.2535 25.0098 25.1769C24.9532 25.1004 24.927 25.0056 24.9365 24.9109C24.9459 24.8162 24.9903 24.7283 25.0609 24.6645L26.1718 23.6242L25.5148 24.0029C25.4386 24.0466 25.3498 24.0628 25.2632 24.0488C25.1765 24.0349 25.0973 23.9917 25.0387 23.9263C24.9801 23.861 24.9457 23.7775 24.9412 23.6899C24.9367 23.6022 24.9625 23.5157 25.0141 23.4448L25.5232 22.7479C25.441 22.7432 25.3624 22.7122 25.2991 22.6594C25.2359 22.6067 25.1913 22.5349 25.1721 22.4548C25.1528 22.3747 25.1598 22.2905 25.1921 22.2148C25.2245 22.139 25.2803 22.0756 25.3515 22.0341L26.6234 21.3004C26.6994 21.2571 26.788 21.2411 26.8744 21.255C26.9608 21.269 27.0398 21.3122 27.0983 21.3773C27.1568 21.4424 27.1913 21.5256 27.1959 21.613C27.2006 21.7004 27.1752 21.7868 27.124 21.8578L26.7054 22.4305L28.6673 21.2996C28.749 21.2515 28.8456 21.2353 28.9385 21.2543C29.0313 21.2732 29.1139 21.3259 29.1703 21.4021C29.2266 21.4783 29.2527 21.5728 29.2435 21.6671C29.2342 21.7615 29.1904 21.849 29.1204 21.913L28.0103 22.9533L28.9203 22.4282C29.0006 22.3845 29.0939 22.371 29.1833 22.3901C29.2727 22.4091 29.3524 22.4595 29.4079 22.5322C29.4634 22.6048 29.4911 22.6949 29.4861 22.7862C29.481 22.8775 29.4435 22.9639 29.3803 23.03L27.6001 24.8355L28.9257 24.0688C29.0057 24.0232 29.0994 24.0079 29.1898 24.0257C29.2802 24.0435 29.3611 24.0933 29.4178 24.1659C29.4745 24.2385 29.5031 24.3291 29.4985 24.421C29.4938 24.513 29.4563 24.6003 29.3926 24.6668L27.5127 26.6065L28.928 25.79C29.0109 25.7434 29.1082 25.7292 29.2009 25.7503C29.2937 25.7714 29.3752 25.8263 29.4298 25.9042C29.4844 25.9821 29.5081 26.0775 29.4962 26.1718C29.4844 26.2662 29.4379 26.3528 29.3657 26.4148L28.9057 26.7982L28.9257 26.7874C29.0069 26.7405 29.1025 26.7249 29.1944 26.7438C29.2864 26.7626 29.3682 26.8145 29.4244 26.8896C29.4806 26.9647 29.5073 27.0579 29.4995 27.1514C29.4917 27.2449 29.4498 27.3322 29.3818 27.3969L27.9068 28.8045L28.9257 28.2157C29.0073 28.1683 29.1036 28.1527 29.1961 28.1719C29.2885 28.1911 29.3706 28.2437 29.4267 28.3197C29.4827 28.3957 29.5088 28.4897 29.4998 28.5837C29.4908 28.6777 29.4474 28.7651 29.378 28.8291L28.0885 30.0235L28.928 29.539C29.0084 29.4948 29.102 29.4809 29.1918 29.4999C29.2816 29.5189 29.3616 29.5694 29.4173 29.6424C29.473 29.7153 29.5006 29.8058 29.4952 29.8974C29.4899 29.989 29.4518 30.0757 29.388 30.1416L27.6561 31.8796L28.931 31.1444C29.0126 31.0989 29.108 31.0848 29.1993 31.1047C29.2906 31.1246 29.3715 31.1771 29.4267 31.2525C29.482 31.3278 29.5078 31.4207 29.4994 31.5137C29.491 31.6068 29.4489 31.6935 29.3811 31.7577L28.1989 32.8364L28.9333 32.4125C29.0138 32.3683 29.1074 32.3544 29.1972 32.3734C29.287 32.3923 29.367 32.4429 29.4226 32.5158C29.4783 32.5888 29.506 32.6793 29.5006 32.7709C29.4952 32.8625 29.4572 32.9491 29.3933 33.0151L27.6561 34.7508L28.9318 34.014C29.0149 33.9647 29.1135 33.9486 29.2079 33.9688C29.3024 33.9891 29.3857 34.0443 29.4412 34.1233C29.4968 34.2024 29.5204 34.2995 29.5074 34.3952C29.4944 34.491 29.4457 34.5782 29.3711 34.6396L29.043 34.9103C29.1262 34.8915 29.2133 34.9011 29.2905 34.9375C29.3677 34.9738 29.4306 35.0349 29.4691 35.1111C29.5077 35.1872 29.5197 35.274 29.5034 35.3578C29.487 35.4415 29.4431 35.5174 29.3788 35.5734L28.5968 36.2496L28.9356 36.0541C29.0122 36.01 29.1016 35.9937 29.1888 36.008C29.276 36.0223 29.3556 36.0662 29.4141 36.1324C29.4727 36.1986 29.5065 36.2829 29.51 36.3712C29.5135 36.4595 29.4863 36.5463 29.4332 36.6169L28.4235 37.9478L28.9379 37.6519C29.0048 37.6131 29.0817 37.5954 29.1588 37.6012C29.2358 37.6069 29.3093 37.6358 29.3696 37.684C29.43 37.7323 29.4743 37.7976 29.4969 37.8715C29.5195 37.9454 29.5192 38.0243 29.4961 38.0981L29.3197 38.6616C29.3794 38.6957 29.4291 38.7449 29.4639 38.8042C29.489 38.8478 29.5053 38.896 29.5118 38.9459C29.5183 38.9958 29.5149 39.0466 29.5018 39.0952C29.4887 39.1438 29.4662 39.1894 29.4355 39.2293C29.4047 39.2692 29.3665 39.3027 29.3228 39.3278L28.9356 39.5509C28.8688 39.5895 28.7918 39.607 28.7148 39.6012C28.6378 39.5953 28.5644 39.5663 28.5041 39.518C28.4439 39.4697 28.3996 39.4043 28.3772 39.3304C28.3547 39.2565 28.3551 39.1776 28.3783 39.1039L28.4718 38.8065L27.1631 39.5616C27.1056 39.5952 27.0403 39.6129 26.9737 39.613Z" fill="#9EBBCE"/>
<path d="M30.1879 46.5001C30.1056 46.4999 30.0255 46.4733 29.9595 46.4241C29.8935 46.3749 29.8451 46.3057 29.8214 46.2269C29.7978 46.148 29.8001 46.0636 29.8282 45.9862C29.8562 45.9088 29.9084 45.8424 29.9771 45.7969L31.3118 44.913L29.1828 46.1397C29.0974 46.1882 28.9966 46.202 28.9012 46.1783C28.8059 46.1547 28.7233 46.0952 28.6704 46.0124C28.6176 45.9296 28.5986 45.8297 28.6173 45.7332C28.6361 45.6368 28.6911 45.5511 28.7711 45.4942L34.8278 41.2446L28.5817 44.8479C28.4953 44.8962 28.3936 44.9092 28.2978 44.8841C28.202 44.8591 28.1196 44.7978 28.0679 44.7134C28.0162 44.629 27.9991 44.528 28.0203 44.4312C28.0415 44.3344 28.0993 44.2498 28.1815 44.1947L29.5117 43.3322L28.5817 43.8689C28.4962 43.918 28.395 43.9322 28.2992 43.9086C28.2034 43.885 28.1204 43.8253 28.0674 43.7421C28.0145 43.6588 27.9957 43.5583 28.015 43.4615C28.0342 43.3647 28.09 43.2792 28.1708 43.2226L34.5341 38.7866L28.5817 42.2297C28.4965 42.2766 28.3966 42.2892 28.3023 42.2652C28.208 42.2411 28.1265 42.182 28.0741 42.1C28.0218 42.018 28.0025 41.9191 28.0203 41.8235C28.0382 41.7278 28.0917 41.6426 28.17 41.585L34.8837 36.8707L28.5817 40.5063C28.4961 40.5527 28.3959 40.5648 28.3017 40.5403C28.2074 40.5156 28.126 40.4559 28.0742 40.3734C28.0223 40.2908 28.0038 40.1917 28.0225 40.096C28.0412 40.0004 28.0956 39.9153 28.1746 39.8584L33.3289 36.3525L28.5817 39.0933C28.4953 39.1451 28.3919 39.1607 28.294 39.1368C28.196 39.113 28.1115 39.0515 28.0585 38.9657C28.0056 38.8799 27.9886 38.7766 28.0112 38.6784C28.0338 38.5802 28.0942 38.4949 28.1792 38.4409L31.0657 36.5403L28.5817 37.974C28.4957 38.0222 28.3944 38.0354 28.2989 38.0109C28.2034 37.9863 28.121 37.9258 28.0689 37.8421C28.0168 37.7584 27.9989 37.6579 28.019 37.5613C28.0391 37.4648 28.0957 37.3798 28.1769 37.3238L32.4818 34.435L28.5817 36.6867C28.4959 36.735 28.3948 36.7484 28.2994 36.7241C28.2039 36.6999 28.1215 36.6398 28.0692 36.5564C28.0168 36.473 27.9986 36.3727 28.0182 36.2762C28.0378 36.1797 28.0939 36.0944 28.1746 36.0381L33.4271 32.4601L28.5817 35.2569C28.4954 35.306 28.3933 35.3197 28.2971 35.295C28.2009 35.2703 28.118 35.2092 28.0659 35.1246C28.0138 35.0401 27.9966 34.9385 28.0179 34.8415C28.0391 34.7445 28.0973 34.6595 28.18 34.6045L30.9622 32.7737L28.5856 34.1475C28.4999 34.1952 28.3992 34.2082 28.3042 34.1839C28.2092 34.1595 28.1271 34.0997 28.0749 34.0168C28.0226 33.9338 28.0042 33.8339 28.0233 33.7377C28.0424 33.6416 28.0977 33.5564 28.1777 33.4997L33.6724 29.7392L28.5856 32.6755C28.4996 32.7225 28.399 32.7347 28.3043 32.7098C28.2096 32.6848 28.128 32.6246 28.0763 32.5414C28.0246 32.4582 28.0067 32.3584 28.0263 32.2625C28.0458 32.1665 28.1014 32.0817 28.1815 32.0254L31.8937 29.5544L28.5817 31.4642C28.4955 31.5105 28.3949 31.522 28.3004 31.4965C28.206 31.471 28.1249 31.4103 28.0737 31.3269C28.0225 31.2435 28.0052 31.1437 28.0253 31.0479C28.0453 30.9521 28.1012 30.8676 28.1815 30.8118L29.6259 29.8711L28.5817 30.4737C28.4968 30.5209 28.3971 30.5341 28.3028 30.5107C28.2085 30.4872 28.1267 30.4288 28.0738 30.3473C28.0209 30.2658 28.0009 30.1672 28.0179 30.0716C28.035 29.9759 28.0877 29.8903 28.1654 29.832L33.8648 25.7142L28.5817 28.764C28.4956 28.8139 28.3935 28.8284 28.2969 28.8043C28.2004 28.7803 28.1169 28.7197 28.0643 28.6352C28.0116 28.5508 27.9938 28.4492 28.0147 28.3519C28.0356 28.2546 28.0935 28.1692 28.1762 28.1139L29.1077 27.4867L28.5817 27.7896C28.4966 27.8366 28.3969 27.8495 28.3026 27.8258C28.2083 27.802 28.1266 27.7433 28.074 27.6615C28.0213 27.5798 28.0018 27.4811 28.0192 27.3854C28.0366 27.2898 28.0897 27.2043 28.1677 27.1463L29.7379 26.0308L28.5817 26.6978C28.499 26.7456 28.4013 26.7608 28.308 26.7403C28.2146 26.7199 28.1322 26.6653 28.077 26.5872C28.0219 26.5092 27.9978 26.4134 28.0096 26.3185C28.0214 26.2237 28.0683 26.1366 28.1409 26.0745L30.5283 24.0283L28.5817 25.1522C28.5001 25.2011 28.4031 25.2179 28.3098 25.1992C28.2164 25.1805 28.1334 25.1278 28.0768 25.0513C28.0201 24.9748 27.994 24.88 28.0035 24.7852C28.0129 24.6905 28.0572 24.6027 28.1279 24.5389L29.113 23.6135L28.5817 23.9202C28.5081 23.9625 28.4224 23.9791 28.3383 23.9675C28.2542 23.9558 28.1763 23.9165 28.1169 23.8558C28.0575 23.7951 28.0199 23.7164 28.0101 23.632C28.0003 23.5476 28.0188 23.4624 28.0627 23.3897L28.4775 22.7035L28.4008 22.7464C28.3218 22.7922 28.229 22.8082 28.1392 22.7916C28.0493 22.775 27.9684 22.7269 27.9109 22.656L27.4509 22.0894C27.3801 22.0944 27.3093 22.079 27.2469 22.045C27.1846 22.0111 27.1332 21.9599 27.099 21.8977C27.0739 21.8541 27.0576 21.8059 27.0511 21.756C27.0445 21.706 27.0479 21.6553 27.061 21.6067C27.0741 21.5581 27.0967 21.5125 27.1274 21.4726C27.1581 21.4327 27.1964 21.3992 27.2401 21.3741L27.3788 21.2974C27.4579 21.252 27.5506 21.2362 27.6402 21.2529C27.7299 21.2696 27.8106 21.3178 27.868 21.3887L28.3004 21.9253L29.3814 21.302C29.455 21.2596 29.5406 21.2429 29.6247 21.2544C29.7089 21.266 29.7868 21.3051 29.8463 21.3657C29.9058 21.4264 29.9435 21.505 29.9534 21.5894C29.9633 21.6737 29.9449 21.759 29.9012 21.8318L29.4872 22.518L31.5955 21.2997C31.6772 21.2501 31.7745 21.2327 31.8683 21.2511C31.9621 21.2694 32.0457 21.3222 32.1026 21.399C32.1596 21.4758 32.1857 21.5711 32.176 21.6662C32.1663 21.7613 32.1214 21.8494 32.0501 21.9131L31.0657 22.8331L33.7253 21.2997C33.808 21.2529 33.9051 21.2384 33.9978 21.259C34.0906 21.2797 34.1723 21.3341 34.2272 21.4117C34.2821 21.4892 34.3063 21.5844 34.295 21.6787C34.2837 21.7731 34.2378 21.8599 34.1661 21.9223L31.7795 23.9677L36.401 21.2997C36.4863 21.2497 36.5876 21.2345 36.6839 21.2574C36.7801 21.2804 36.8637 21.3396 36.9173 21.4228C36.9708 21.5059 36.9902 21.6066 36.9712 21.7037C36.9523 21.8008 36.8966 21.8868 36.8157 21.9437L35.2433 23.0631L38.2939 21.2997C38.3798 21.2507 38.4814 21.2369 38.5773 21.2611C38.6733 21.2852 38.7562 21.3456 38.8086 21.4294C38.8611 21.5133 38.8791 21.6142 38.8589 21.7111C38.8387 21.8079 38.7818 21.8932 38.7002 21.9491L37.7664 22.5785L39.9813 21.2997C40.0664 21.2509 40.1669 21.2366 40.2623 21.2596C40.3576 21.2827 40.4405 21.3414 40.4938 21.4238C40.5471 21.5061 40.5669 21.6057 40.549 21.7021C40.5311 21.7986 40.4769 21.8845 40.3976 21.9422L34.7013 26.0531L41.7155 22.0028C41.802 21.9525 41.9048 21.938 42.0018 21.9624C42.0989 21.9869 42.1825 22.0483 42.2349 22.1336C42.2873 22.2189 42.3042 22.3213 42.2821 22.4189C42.2599 22.5165 42.2005 22.6016 42.1165 22.656L40.6767 23.5997L41.9524 22.8637C42.0384 22.8168 42.139 22.8046 42.2337 22.8295C42.3284 22.8544 42.41 22.9147 42.4617 22.9978C42.5134 23.081 42.5313 23.1808 42.5117 23.2768C42.4921 23.3727 42.4366 23.4576 42.3564 23.5139L38.6404 25.9864L41.9578 24.0697C42.0437 24.0198 42.1455 24.0053 42.242 24.0291C42.3384 24.0528 42.4218 24.1131 42.4747 24.1972C42.5276 24.2813 42.5457 24.3826 42.5254 24.4798C42.505 24.577 42.4478 24.6625 42.3656 24.7183L36.8732 28.475L41.9585 25.5394C42.0447 25.4925 42.1455 25.4804 42.2403 25.5057C42.3351 25.5309 42.4166 25.5915 42.4681 25.6749C42.5195 25.7584 42.537 25.8585 42.517 25.9545C42.4969 26.0505 42.4409 26.1352 42.3603 26.1911L39.5734 28.0249L41.9593 26.6449C42.0451 26.5967 42.1462 26.5833 42.2417 26.6075C42.3371 26.6318 42.4195 26.6919 42.4719 26.7753C42.5242 26.8587 42.5425 26.959 42.5228 27.0555C42.5032 27.152 42.4472 27.2372 42.3664 27.2935L37.114 30.8754L41.957 28.0794C42.043 28.0311 42.1443 28.0179 42.2398 28.0425C42.3353 28.067 42.4177 28.1274 42.4699 28.2111C42.522 28.2948 42.5398 28.3954 42.5197 28.492C42.4996 28.5885 42.443 28.6736 42.3618 28.7295L38.0539 31.6206L41.9578 29.3666C42.0442 29.3148 42.1476 29.2992 42.2455 29.3231C42.3435 29.3469 42.428 29.4084 42.481 29.4942C42.5339 29.58 42.5509 29.6832 42.5283 29.7814C42.5057 29.8796 42.4453 29.965 42.3603 30.019L39.4768 31.9173L41.9585 30.4852C42.0444 30.4369 42.1455 30.4235 42.2409 30.4478C42.3363 30.472 42.4188 30.5321 42.4711 30.6155C42.5235 30.6989 42.5417 30.7992 42.5221 30.8957C42.5024 30.9922 42.4464 31.0775 42.3656 31.1338L37.2106 34.6397L41.9593 31.8981C42.0448 31.8482 42.1463 31.8333 42.2426 31.8565C42.3388 31.8797 42.4224 31.9393 42.4757 32.0227C42.529 32.1062 42.5479 32.207 42.5286 32.3041C42.5092 32.4012 42.453 32.4871 42.3718 32.5437L35.6619 37.2586L41.9608 33.6216C42.0465 33.5708 42.1485 33.5552 42.2454 33.5783C42.3423 33.6014 42.4264 33.6613 42.4799 33.7453C42.5334 33.8292 42.5521 33.9308 42.532 34.0283C42.512 34.1259 42.4548 34.2118 42.3725 34.2679L36.0023 38.7031L41.9624 35.2623C42.0491 35.2091 42.1534 35.1926 42.2523 35.2163C42.3512 35.24 42.4367 35.302 42.4898 35.3888C42.543 35.4755 42.5596 35.5798 42.5358 35.6787C42.5121 35.7776 42.4501 35.8631 42.3633 35.9162L41.047 36.7695L41.967 36.2405C42.0524 36.1921 42.1532 36.1782 42.2486 36.2019C42.3439 36.2256 42.4265 36.285 42.4793 36.3678C42.5321 36.4506 42.5512 36.5506 42.5324 36.647C42.5137 36.7435 42.4587 36.8289 42.3787 36.8861L36.322 41.1357L41.9662 37.8766C42.0523 37.8291 42.1533 37.8165 42.2485 37.8412C42.3436 37.8661 42.4255 37.9267 42.4773 38.0103C42.5291 38.0939 42.5468 38.1942 42.5267 38.2905C42.5067 38.3867 42.4504 38.4716 42.3695 38.5275L41.0355 39.4092L41.967 38.8724C42.0524 38.8239 42.1532 38.8102 42.2486 38.8339C42.3439 38.8576 42.4265 38.917 42.4793 38.9998C42.5321 39.0826 42.5512 39.1826 42.5324 39.279C42.5137 39.3754 42.4587 39.461 42.3787 39.518L40.5065 40.8344L41.9685 39.9911C42.0434 39.9479 42.1306 39.9314 42.2161 39.9441C42.3016 39.9567 42.3803 39.9979 42.4394 40.0609C42.4985 40.1239 42.5346 40.2052 42.5418 40.2913C42.549 40.3773 42.5269 40.4634 42.4791 40.5354L41.671 41.7467L41.967 41.5758C42.0106 41.548 42.0594 41.5294 42.1104 41.521C42.1614 41.5126 42.2136 41.5145 42.2638 41.5268C42.314 41.5392 42.3612 41.5616 42.4026 41.5926C42.444 41.6236 42.4786 41.6626 42.5045 41.7073C42.5304 41.7521 42.5469 41.8017 42.5532 41.853C42.5594 41.9044 42.5552 41.9564 42.5408 42.0061C42.5264 42.0557 42.5021 42.1019 42.4693 42.142C42.4366 42.182 42.3961 42.215 42.3503 42.2389L40.6337 43.2264C40.5589 43.2695 40.4716 43.2861 40.3861 43.2734C40.3006 43.2607 40.2219 43.2194 40.1628 43.1565C40.1037 43.0935 40.0676 43.0122 40.0604 42.9261C40.0532 42.84 40.0753 42.754 40.1231 42.6821L40.9297 41.4722L33.437 45.7978C33.3516 45.8463 33.2508 45.8601 33.1555 45.8364C33.0601 45.8127 32.9775 45.7533 32.9247 45.6705C32.8719 45.5877 32.8528 45.4877 32.8716 45.3913C32.8903 45.2949 32.9453 45.2092 33.0253 45.1523L34.8968 43.8397L30.3796 46.4464C30.3215 46.4809 30.2554 46.4994 30.1879 46.5001Z" fill="#BFDBF0"/>
<path d="M5.61364 46.5C5.53109 46.5001 5.45072 46.4735 5.38447 46.4243C5.31822 46.375 5.26963 46.3057 5.24594 46.2266C5.22226 46.1476 5.22473 46.0629 5.25299 45.9854C5.28125 45.9078 5.3338 45.8415 5.40281 45.7962L13.4528 40.5276L3.20401 46.4463C3.11779 46.4945 3.01628 46.5076 2.92065 46.4828C2.82502 46.458 2.74266 46.3972 2.69074 46.3132C2.63883 46.2291 2.62137 46.1283 2.64201 46.0317C2.66264 45.935 2.71978 45.8501 2.80151 45.7946L13.2941 38.9008L1.55644 45.6796C1.4701 45.7265 1.36905 45.7384 1.27416 45.7129C1.17928 45.6875 1.0978 45.6265 1.04654 45.5427C0.995292 45.4589 0.978177 45.3586 0.998733 45.2625C1.01928 45.1664 1.07594 45.0819 1.15701 45.0264L10.6161 38.9253L1.00214 44.476C0.915235 44.5238 0.813147 44.5361 0.71735 44.5103C0.621553 44.4844 0.539511 44.4224 0.488476 44.3374C0.437441 44.2523 0.421387 44.1507 0.443693 44.054C0.465998 43.9573 0.524925 43.8731 0.608081 43.8189L1.74428 43.1159L0.981448 43.556C0.89469 43.603 0.79315 43.6147 0.69796 43.5887C0.60277 43.5627 0.52126 43.5011 0.470394 43.4165C0.419527 43.332 0.403221 43.2311 0.424868 43.1348C0.446515 43.0385 0.504449 42.9543 0.586613 42.8997L4.09718 40.6963L0.981448 42.498C0.895622 42.5403 0.797083 42.5489 0.705194 42.5223C0.613304 42.4956 0.534706 42.4355 0.484845 42.3539C0.434984 42.2722 0.417465 42.1749 0.435728 42.0809C0.453992 41.987 0.506717 41.9033 0.583547 41.8463L6.21011 38.2637L0.981448 41.2828C0.894593 41.3315 0.792213 41.3444 0.695969 41.3189C0.599726 41.2935 0.517169 41.2315 0.465771 41.1463C0.414373 41.061 0.398164 40.9591 0.420574 40.8621C0.442985 40.7651 0.502256 40.6806 0.585847 40.6265L2.28324 39.5624L0.979913 40.3137C0.893216 40.3614 0.791443 40.3737 0.69588 40.3481C0.600318 40.3224 0.518369 40.2608 0.467173 40.1762C0.415978 40.0915 0.3995 39.9903 0.42119 39.8938C0.442879 39.7973 0.501054 39.7129 0.583547 39.6582L2.59988 38.3833L0.981448 39.3163C0.895813 39.3646 0.794869 39.3782 0.699495 39.3543C0.604121 39.3303 0.521611 39.2706 0.46903 39.1875C0.416449 39.1043 0.397819 39.0042 0.416993 38.9078C0.436167 38.8113 0.491678 38.7259 0.572047 38.6692L7.94431 33.5717L0.981448 37.5944C0.895202 37.6456 0.79231 37.661 0.694852 37.6372C0.597395 37.6134 0.513137 37.5524 0.46016 37.4672C0.407184 37.382 0.389709 37.2795 0.411487 37.1816C0.433265 37.0836 0.49256 36.9982 0.576648 36.9435L3.78284 34.806L0.981448 36.4229C0.895492 36.4698 0.794834 36.4821 0.700131 36.4571C0.605428 36.4322 0.523863 36.372 0.472171 36.2888C0.420479 36.2056 0.402582 36.1058 0.422152 36.0098C0.441723 35.9139 0.497276 35.8291 0.577413 35.7728L1.93058 34.8696L0.981448 35.4178C0.895813 35.4661 0.794869 35.4797 0.699495 35.4558C0.604121 35.4318 0.521611 35.3721 0.46903 35.289C0.416449 35.2058 0.397819 35.1057 0.416993 35.0093C0.436167 34.9128 0.491678 34.8274 0.572047 34.7707L2.30471 33.5724L1.01978 34.3138C0.936404 34.3614 0.83819 34.376 0.744568 34.3547C0.650945 34.3334 0.568731 34.2777 0.514187 34.1987C0.459642 34.1197 0.436739 34.023 0.450009 33.928C0.463279 33.8329 0.511754 33.7462 0.585847 33.6851L3.59118 31.2318L1.54341 32.4163C1.46055 32.4643 1.36273 32.4795 1.26919 32.459C1.17565 32.4385 1.09318 32.3838 1.03799 32.3055C0.982812 32.2272 0.958916 32.1312 0.971011 32.0362C0.983105 31.9412 1.03031 31.8542 1.10334 31.7922L2.48334 30.6169C2.40966 30.5841 2.34822 30.5288 2.30778 30.459C2.25695 30.371 2.24317 30.2663 2.26948 30.1681C2.29579 30.0699 2.36003 29.9862 2.44808 29.9354L5.06011 28.4227C5.14286 28.3757 5.24014 28.3611 5.33303 28.3819C5.42593 28.4026 5.50779 28.4571 5.56268 28.5349C5.61758 28.6126 5.64158 28.708 5.63003 28.8025C5.61848 28.897 5.57219 28.9838 5.50018 29.046L4.78564 29.6594L7.31411 28.1996C7.39749 28.152 7.4957 28.1374 7.58932 28.1587C7.68295 28.18 7.76516 28.2357 7.8197 28.3147C7.87425 28.3938 7.89715 28.4904 7.88388 28.5855C7.87061 28.6806 7.82214 28.7672 7.74804 28.8283L4.74271 31.2816L10.0841 28.1996C10.1695 28.153 10.2695 28.1406 10.3638 28.1649C10.4581 28.1893 10.5395 28.2487 10.5916 28.3309C10.6437 28.4132 10.6626 28.5122 10.6443 28.6078C10.6261 28.7035 10.5722 28.7886 10.4935 28.8459L8.76158 30.0396L11.9601 28.1996C12.0461 28.1527 12.1467 28.1404 12.2414 28.1654C12.3361 28.1903 12.4177 28.2506 12.4694 28.3337C12.5211 28.4169 12.539 28.5167 12.5194 28.6127C12.4998 28.7086 12.4443 28.7935 12.3641 28.8498L11.011 29.7506L13.6958 28.1996C13.7818 28.1527 13.8824 28.1404 13.9771 28.1654C14.0719 28.1903 14.1534 28.2506 14.2051 28.3337C14.2568 28.4169 14.2747 28.5167 14.2551 28.6127C14.2356 28.7086 14.18 28.7935 14.0999 28.8498L10.8921 30.9888L15.7221 28.1996C15.8076 28.153 15.9076 28.1406 16.0019 28.1649C16.0961 28.1893 16.1776 28.2487 16.2297 28.3309C16.2818 28.4132 16.3006 28.5122 16.2824 28.6078C16.2642 28.7035 16.2102 28.7886 16.1315 28.8459L8.75774 33.9443L18.7114 28.1996C18.7981 28.1519 18.8998 28.1396 18.9954 28.1653C19.091 28.1909 19.1729 28.2525 19.2241 28.3372C19.2753 28.4218 19.2918 28.523 19.2701 28.6196C19.2484 28.7161 19.1902 28.8005 19.1077 28.8551L17.0968 30.1263L20.2125 28.3277C20.2994 28.279 20.4017 28.266 20.498 28.2915C20.5942 28.317 20.6768 28.3789 20.7282 28.4642C20.7796 28.5494 20.7958 28.6514 20.7734 28.7484C20.751 28.8454 20.6917 28.9298 20.6081 28.9839L18.9214 30.0396L21.3058 28.6596C21.3927 28.6069 21.497 28.5908 21.5958 28.6149C21.6946 28.6391 21.7797 28.7015 21.8325 28.7884C21.8852 28.8754 21.9013 28.9797 21.8772 29.0785C21.853 29.1772 21.7906 29.2624 21.7037 29.3151L16.0756 32.8947L22.396 29.2454C22.4828 29.1967 22.5852 29.1837 22.6814 29.2092C22.7777 29.2347 22.8602 29.2966 22.9116 29.3819C22.963 29.4671 22.9792 29.5691 22.9568 29.6661C22.9344 29.7631 22.8752 29.8475 22.7916 29.9016L19.2741 32.1096L23.1603 29.8664C23.2472 29.8185 23.3493 29.8062 23.4451 29.832C23.5409 29.8579 23.623 29.9199 23.674 30.005C23.725 30.0901 23.7411 30.1916 23.7188 30.2883C23.6965 30.385 23.6376 30.4693 23.5544 30.5234L22.4251 31.2218L23.7238 30.4728C23.8102 30.4259 23.9112 30.414 24.0061 30.4395C24.101 30.465 24.1825 30.5259 24.2337 30.6097C24.285 30.6935 24.3021 30.7938 24.2815 30.8899C24.261 30.986 24.2043 31.0705 24.1233 31.126L14.6618 37.2287L24.4399 31.5806C24.526 31.5337 24.6269 31.5217 24.7217 31.5469C24.8165 31.5721 24.898 31.6327 24.9494 31.7162C25.0009 31.7997 25.0184 31.8997 24.9984 31.9957C24.9783 32.0917 24.9222 32.1764 24.8416 32.2323L14.3475 39.1262L24.9413 33.0097C25.0277 32.9606 25.1297 32.9469 25.226 32.9716C25.3222 32.9963 25.4051 33.0574 25.4572 33.142C25.5093 33.2265 25.5265 33.3281 25.5052 33.4251C25.4839 33.5221 25.4258 33.6071 25.343 33.6621L17.2923 38.933L25.0854 34.4319C25.1714 34.3829 25.273 34.369 25.3689 34.3932C25.4648 34.4174 25.5477 34.4777 25.6002 34.5616C25.6527 34.6454 25.6707 34.7464 25.6505 34.8432C25.6303 34.9401 25.5734 35.0253 25.4918 35.0812L17.5322 40.4778L25.0854 36.1178C25.171 36.0687 25.2722 36.0544 25.368 36.078C25.4638 36.1017 25.5468 36.1613 25.5997 36.2446C25.6527 36.3278 25.6715 36.4283 25.6522 36.525C25.633 36.6218 25.5771 36.7074 25.4964 36.7641L18.9889 41.3027L25.0854 37.783C25.1705 37.7359 25.2703 37.723 25.3646 37.7468C25.4589 37.7705 25.5406 37.8292 25.5932 37.911C25.6458 37.9928 25.6654 38.0914 25.648 38.1871C25.6306 38.2828 25.5775 38.3682 25.4994 38.4262L20.8228 41.7597L25.0893 39.2964C25.1747 39.2479 25.2755 39.2341 25.3709 39.2577C25.4662 39.2814 25.5488 39.3408 25.6016 39.4236C25.6545 39.5065 25.6735 39.6064 25.6547 39.7029C25.636 39.7993 25.581 39.8849 25.501 39.9419L23.3712 41.4354L25.0893 40.4441C25.1743 40.3952 25.2749 40.3809 25.3702 40.404C25.4656 40.427 25.5484 40.4858 25.6018 40.5681C25.6551 40.6504 25.6749 40.75 25.657 40.8465C25.6391 40.9429 25.5849 41.0288 25.5056 41.0865L24.1723 42.0502L25.0923 41.522C25.1739 41.4765 25.2693 41.4624 25.3606 41.4823C25.4519 41.5022 25.5328 41.5547 25.588 41.6301C25.6433 41.7054 25.6691 41.7983 25.6607 41.8913C25.6523 41.9844 25.6102 42.0711 25.5424 42.1353L23.4793 44.0198L25.0893 43.0891C25.17 43.0431 25.2647 43.028 25.3557 43.0466C25.4467 43.0652 25.5278 43.1162 25.5841 43.1902C25.6403 43.2641 25.6678 43.3559 25.6614 43.4486C25.655 43.5413 25.6151 43.6285 25.5493 43.694L24.9359 44.3073H24.9428C24.9865 44.2796 25.0353 44.2609 25.0863 44.2525C25.1373 44.2442 25.1895 44.2462 25.2397 44.2585C25.2899 44.2708 25.3371 44.2931 25.3785 44.3241C25.4198 44.3551 25.4545 44.3942 25.4804 44.439C25.5062 44.4837 25.5228 44.5333 25.529 44.5846C25.5353 44.6359 25.531 44.6879 25.5166 44.7376C25.5022 44.7873 25.4779 44.8335 25.4452 44.8735C25.4125 44.9135 25.372 44.9465 25.3262 44.9705L22.7525 46.4463C22.6718 46.4916 22.5775 46.5063 22.487 46.4876C22.3964 46.4688 22.3156 46.418 22.2596 46.3444C22.2035 46.2708 22.176 46.1794 22.1821 46.0871C22.1881 45.9948 22.2273 45.9078 22.2925 45.8422L22.9058 45.2288L20.8028 46.4463C20.7212 46.4918 20.6258 46.5059 20.5346 46.486C20.4433 46.4661 20.3624 46.4135 20.3071 46.3382C20.2519 46.2629 20.226 46.17 20.2344 46.077C20.2428 45.9839 20.2849 45.8972 20.3528 45.833L22.4167 43.9477L18.0858 46.4463C18.0007 46.4951 17.9001 46.5095 17.8048 46.4864C17.7095 46.4633 17.6266 46.4046 17.5733 46.3223C17.5199 46.24 17.5002 46.1403 17.5181 46.0439C17.536 45.9474 17.5901 45.8615 17.6695 45.8038L19.0027 44.8401L16.2189 46.4463C16.1337 46.4931 16.0338 46.5058 15.9395 46.4817C15.8452 46.4576 15.7637 46.3986 15.7113 46.3166C15.6589 46.2346 15.6397 46.1358 15.6575 46.0401C15.6754 45.9445 15.7289 45.8592 15.8072 45.8015L17.9332 44.3096L14.2317 46.4463C14.1466 46.4933 14.0469 46.5063 13.9526 46.4825C13.8583 46.4587 13.7766 46.4 13.724 46.3183C13.6713 46.2365 13.6518 46.1378 13.6692 46.0422C13.6866 45.9465 13.7397 45.861 13.8177 45.8031L18.4982 42.4704L11.6105 46.4463C11.5251 46.4948 11.4243 46.5086 11.3289 46.4849C11.2336 46.4612 11.151 46.4018 11.0981 46.319C11.0453 46.2362 11.0263 46.1362 11.045 46.0398C11.0638 45.9434 11.1188 45.8578 11.1988 45.8008L17.7101 41.2629L8.72478 46.4463C8.63896 46.4946 8.53784 46.508 8.44241 46.4837C8.34698 46.4594 8.26454 46.3994 8.2122 46.316C8.15985 46.2326 8.1416 46.1322 8.16124 46.0357C8.18088 45.9392 8.2369 45.854 8.31768 45.7977L16.2803 40.3996L5.80454 46.4463C5.74688 46.481 5.68094 46.4995 5.61364 46.5Z" fill="#0077B6"/>
<path d="M12.1388 46.5069C12.0589 46.5069 11.9809 46.482 11.9158 46.4356C11.8508 46.3891 11.8018 46.3235 11.7759 46.2479C11.75 46.1723 11.7483 46.0905 11.7712 46.0139C11.7941 45.9372 11.8403 45.8697 11.9035 45.8207L12.9921 44.9774L11.3315 45.9357C11.2475 45.9828 11.1487 45.9965 11.055 45.974C10.9613 45.9516 10.8795 45.8947 10.8258 45.8147C10.7722 45.7346 10.7506 45.6373 10.7655 45.5421C10.7804 45.4469 10.8305 45.3608 10.906 45.3009L14.9694 42.166L10.4775 44.7596C10.3924 44.8073 10.2924 44.8208 10.1978 44.7973C10.1032 44.7739 10.0211 44.7153 9.96816 44.6334C9.91522 44.5516 9.89545 44.4526 9.91287 44.3567C9.93029 44.2608 9.98359 44.1752 10.0619 44.1172L15.4769 40.2072L9.62646 43.5866C9.54121 43.6353 9.44054 43.6493 9.34521 43.626C9.24988 43.6026 9.16715 43.5435 9.11408 43.461C9.061 43.3784 9.04161 43.2786 9.05992 43.1822C9.07822 43.0857 9.13282 43 9.21246 42.9426L15.0897 38.7559L8.76933 42.4052C8.68383 42.4551 8.58232 42.4701 8.48607 42.4468C8.38981 42.4236 8.30628 42.364 8.25296 42.2806C8.19965 42.1972 8.18069 42.0963 8.20006 41.9992C8.21943 41.9021 8.27562 41.8163 8.35686 41.7597L13.9781 37.8136L7.95896 41.2882C7.87352 41.3366 7.77272 41.3505 7.67738 41.3268C7.58204 41.3031 7.49943 41.2437 7.44661 41.1609C7.39378 41.0781 7.37477 40.9781 7.3935 40.8817C7.41224 40.7852 7.46728 40.6997 7.54726 40.6426L13.3479 36.5739L7.1394 40.1596C7.05344 40.2086 6.95187 40.2225 6.85593 40.1983C6.75999 40.1741 6.67712 40.1138 6.62464 40.0299C6.57216 39.9461 6.55413 39.8451 6.57434 39.7483C6.59455 39.6514 6.65142 39.5662 6.73306 39.5103L10.8102 36.7633L6.4862 39.2596C6.39992 39.3053 6.29946 39.3163 6.20531 39.2905C6.11116 39.2647 6.03042 39.2039 5.97955 39.1205C5.92869 39.0372 5.91154 38.9376 5.93161 38.842C5.95167 38.7465 6.00744 38.6622 6.08753 38.6064L6.4126 38.3963L6.02237 38.6209C5.93691 38.6676 5.8369 38.68 5.74263 38.6556C5.64837 38.6312 5.56691 38.5719 5.51481 38.4896C5.46271 38.4074 5.44385 38.3084 5.46208 38.2127C5.48031 38.1171 5.53426 38.032 5.61297 37.9746L11.3576 34.0041L5.23653 37.5376C5.15004 37.5852 5.04854 37.5976 4.95316 37.5722C4.85778 37.5468 4.77587 37.4856 4.72449 37.4013C4.67312 37.317 4.65623 37.2162 4.67735 37.1197C4.69847 37.0233 4.75596 36.9388 4.83787 36.8837L4.85857 36.8699L4.7819 36.9136C4.69689 36.9632 4.59607 36.9782 4.50032 36.9555C4.40456 36.9328 4.3212 36.8741 4.2675 36.7916C4.2138 36.7092 4.19388 36.6092 4.21185 36.5124C4.22983 36.4157 4.28433 36.3295 4.36407 36.2719L9.5912 32.4646L4.04897 35.6647C3.96419 35.7132 3.86406 35.7276 3.76905 35.7048C3.67404 35.682 3.59131 35.6238 3.53777 35.5421C3.48424 35.4604 3.46392 35.3613 3.48099 35.2651C3.49806 35.1689 3.55121 35.0828 3.6296 35.0245L7.3096 32.3205L4.86547 33.7296C4.78021 33.7782 4.67954 33.7923 4.58421 33.7689C4.48888 33.7455 4.40615 33.6865 4.35308 33.6039C4.3 33.5214 4.28061 33.4216 4.29892 33.3251C4.31722 33.2287 4.37182 33.143 4.45147 33.0856L5.25187 32.5144C5.17555 32.5135 5.10123 32.4899 5.03843 32.4465C4.97564 32.4031 4.92722 32.342 4.89939 32.2709C4.87155 32.1999 4.86557 32.1221 4.8822 32.0476C4.89883 31.9731 4.93732 31.9053 4.99273 31.8528L6.4494 30.4644L6.3367 30.5288C6.26133 30.5725 6.17332 30.5892 6.08717 30.5762C6.00102 30.5632 5.92188 30.5212 5.86278 30.4572C5.80368 30.3932 5.76814 30.3109 5.76203 30.224C5.75592 30.1371 5.7796 30.0507 5.82917 29.9791L6.4655 29.0591C6.45706 29.0476 6.4494 29.0353 6.44173 29.023C6.3909 28.935 6.37713 28.8304 6.40344 28.7322C6.42975 28.634 6.49399 28.5502 6.58203 28.4994L7.1072 28.1996C7.1825 28.1562 7.2703 28.1397 7.35622 28.1528C7.44213 28.1659 7.52106 28.2077 7.58006 28.2715C7.63906 28.3353 7.67462 28.4173 7.68092 28.504C7.68722 28.5907 7.66388 28.6769 7.61473 28.7486L7.4292 29.0161L8.8483 28.1996C8.92998 28.1482 9.02807 28.1294 9.12297 28.1472C9.21786 28.1649 9.30258 28.2178 9.36019 28.2952C9.4178 28.3727 9.44407 28.469 9.43374 28.565C9.42341 28.661 9.37724 28.7495 9.30446 28.813L7.8478 30.1999L11.3116 28.2004C11.3969 28.1518 11.4975 28.1377 11.5929 28.1611C11.6882 28.1845 11.7709 28.2435 11.824 28.3261C11.8771 28.4086 11.8964 28.5084 11.8781 28.6049C11.8598 28.7013 11.8052 28.787 11.7256 28.8444L11.3806 29.0905L12.9254 28.1989C13.0102 28.1514 13.1098 28.1378 13.2041 28.161C13.2985 28.1841 13.3805 28.2422 13.4337 28.3235C13.4868 28.4048 13.5071 28.5032 13.4905 28.5989C13.4739 28.6946 13.4215 28.7804 13.344 28.839L9.66403 31.5438L15.4631 28.1958C15.5481 28.1475 15.6483 28.1334 15.7432 28.1565C15.8382 28.1796 15.9208 28.2381 15.974 28.3201C16.0273 28.4021 16.0473 28.5013 16.0298 28.5974C16.0124 28.6936 15.9588 28.7795 15.8802 28.8375L10.6569 32.6379L18.3695 28.1851C18.4564 28.1321 18.5607 28.1158 18.6595 28.1397C18.7584 28.1637 18.8436 28.2259 18.8966 28.3127C18.9496 28.3995 18.9659 28.5038 18.942 28.6027C18.918 28.7015 18.8558 28.7868 18.769 28.8398L18.7506 28.8505L19.1546 28.6205C19.2401 28.5728 19.3407 28.5595 19.4356 28.5836C19.5306 28.6076 19.6128 28.6671 19.6652 28.7498C19.7177 28.8325 19.7366 28.9321 19.7179 29.0283C19.6992 29.1244 19.6444 29.2098 19.5648 29.2668L13.8209 33.2366L19.7135 29.8342C19.8001 29.7849 19.9024 29.7712 19.9989 29.7961C20.0954 29.821 20.1783 29.8825 20.2303 29.9675C20.2822 30.0525 20.299 30.1544 20.2771 30.2516C20.2552 30.3488 20.1963 30.4336 20.1129 30.4881L19.7802 30.7028L20.0439 30.5495C20.13 30.4996 20.2322 30.4851 20.3287 30.5091C20.4253 30.5332 20.5087 30.5938 20.5614 30.6782C20.6141 30.7627 20.6318 30.8643 20.611 30.9616C20.5901 31.0589 20.5322 31.1442 20.4495 31.1996L16.3731 33.9443L20.5078 31.5576C20.593 31.5108 20.6929 31.4981 20.7872 31.5222C20.8815 31.5463 20.963 31.6053 21.0154 31.6873C21.0678 31.7693 21.087 31.8682 21.0692 31.9638C21.0513 32.0595 20.9978 32.1447 20.9195 32.2024L15.1166 36.2719L21.0904 32.8219C21.1759 32.7734 21.2767 32.7596 21.372 32.7833C21.4674 32.8069 21.55 32.8663 21.6028 32.9492C21.6556 33.032 21.6746 33.1319 21.6559 33.2284C21.6372 33.3248 21.5821 33.4104 21.5021 33.4674L15.8825 37.4127L21.667 34.0738C21.7522 34.0252 21.8529 34.0111 21.9482 34.0345C22.0435 34.0579 22.1263 34.1169 22.1794 34.1995C22.2324 34.2821 22.2518 34.3819 22.2335 34.4783C22.2152 34.5747 22.1606 34.6605 22.081 34.7178L16.2037 38.9038L21.6332 35.7697C21.7183 35.722 21.8182 35.7086 21.9129 35.732C22.0075 35.7555 22.0896 35.8141 22.1425 35.8959C22.1955 35.9778 22.2152 36.0767 22.1978 36.1726C22.1804 36.2685 22.1271 36.3542 22.0488 36.4122L16.633 40.3222L19.5602 38.6355C19.6442 38.5884 19.743 38.5747 19.8367 38.5972C19.9304 38.6196 20.0122 38.6765 20.0659 38.7565C20.1195 38.8366 20.1411 38.9339 20.1262 39.0291C20.1113 39.1243 20.0612 39.2104 19.9857 39.2703L15.9223 42.4037L17.4802 41.5005C17.5643 41.4525 17.6635 41.4381 17.7578 41.4603C17.852 41.4824 17.9345 41.5394 17.9884 41.6198C18.0424 41.7002 18.064 41.798 18.0488 41.8937C18.0336 41.9893 17.9827 42.0756 17.9065 42.1353L16.3547 43.339C16.4262 43.3483 16.4936 43.3777 16.5492 43.4236C16.6048 43.4695 16.6463 43.5302 16.669 43.5986C16.6916 43.6671 16.6945 43.7406 16.6773 43.8106C16.6601 43.8806 16.6235 43.9443 16.5717 43.9945L15.3895 45.143C15.4038 45.1607 15.4168 45.1794 15.4286 45.1989C15.4791 45.287 15.4926 45.3915 15.4662 45.4895C15.4398 45.5876 15.3755 45.6711 15.2875 45.7218L14.0187 46.454C13.9377 46.502 13.8418 46.5185 13.7494 46.5004C13.657 46.4823 13.5745 46.4308 13.5176 46.3557C13.4608 46.2807 13.4335 46.1873 13.4411 46.0934C13.4487 45.9995 13.4905 45.9117 13.5587 45.8468L13.8079 45.6053L12.3282 46.4593C12.2703 46.4915 12.205 46.5078 12.1388 46.5069Z" fill="#51CB20"/>
<path d="M12.5391 40.3537C12.4615 40.3537 12.3856 40.3301 12.3217 40.2861C12.2577 40.242 12.2086 40.1796 12.1809 40.107C12.1533 40.0344 12.1483 39.9551 12.1667 39.8797C12.185 39.8042 12.2259 39.7361 12.2838 39.6844L14.6889 37.5377L10.7275 39.8255C10.6427 39.874 10.5426 39.8884 10.4476 39.8656C10.3526 39.8428 10.2698 39.7846 10.2163 39.7029C10.1628 39.6212 10.1425 39.5221 10.1595 39.4259C10.1766 39.3297 10.2297 39.2436 10.3081 39.1853L12.4402 37.6175L10.1402 38.9453C10.0561 38.9939 9.95665 39.0087 9.86201 38.9868C9.76737 38.9649 9.68458 38.9079 9.63038 38.8273C9.57622 38.7466 9.55472 38.6483 9.57023 38.5524C9.58575 38.4565 9.63711 38.37 9.71394 38.3105L14.0495 34.9533L9.39884 37.6366C9.31413 37.6859 9.21376 37.7009 9.11836 37.6785C9.02295 37.656 8.93975 37.5979 8.88587 37.5161C8.83198 37.4342 8.81149 37.3348 8.82862 37.2383C8.84574 37.1418 8.89918 37.0556 8.97794 36.9972L13.5243 33.6139L8.79471 36.344C8.7095 36.3915 8.60941 36.4047 8.51481 36.3809C8.42022 36.3572 8.33823 36.2982 8.28556 36.2162C8.23289 36.1341 8.21349 36.035 8.23131 35.9391C8.24913 35.8432 8.30283 35.7577 8.38148 35.7L12.0592 33.1064L8.36461 35.2393C8.2808 35.2864 8.18234 35.3003 8.08874 35.2783C7.99515 35.2562 7.91327 35.1998 7.85933 35.1202C7.80539 35.0406 7.78334 34.9436 7.79755 34.8485C7.81176 34.7534 7.86119 34.6671 7.93604 34.6068L11.8407 31.5324L7.90691 33.8033C7.82466 33.8466 7.72947 33.8586 7.63906 33.8369C7.54865 33.8153 7.46919 33.7616 7.41546 33.6857C7.36173 33.6098 7.33739 33.517 7.34699 33.4246C7.35658 33.3321 7.39945 33.2463 7.46761 33.1831L10.0436 31.0004L7.56728 32.4287C7.48684 32.4751 7.3923 32.4907 7.3012 32.4727C7.21011 32.4546 7.12867 32.4041 7.07201 32.3305C7.01538 32.257 6.98736 32.1654 6.99314 32.0728C6.99892 31.9801 7.03811 31.8928 7.10344 31.8268L8.62298 30.2935L7.31964 31.0471C7.24186 31.0917 7.15093 31.1075 7.06266 31.0919C6.97439 31.0764 6.89437 31.0304 6.8365 30.9619C6.77863 30.8935 6.74657 30.8069 6.7459 30.7173C6.74522 30.6277 6.77598 30.5407 6.83281 30.4714L7.28361 29.9247L7.18471 29.9815C7.11873 30.0195 7.04293 30.0369 6.96698 30.0317C6.89103 30.0264 6.81836 29.9987 6.75824 29.952C6.69812 29.9052 6.65327 29.8417 6.62941 29.7694C6.60556 29.6971 6.60377 29.6193 6.62428 29.546L6.75231 29.086C6.69147 29.0542 6.64027 29.0067 6.60406 28.9484C6.56786 28.8901 6.54797 28.8231 6.54648 28.7545C6.54499 28.6859 6.56196 28.6181 6.5956 28.5583C6.62924 28.4985 6.67833 28.4488 6.73774 28.4144L7.11494 28.1997C7.18087 28.1616 7.25667 28.144 7.33266 28.1491C7.40866 28.1542 7.4814 28.1819 7.54161 28.2285C7.60183 28.2751 7.64678 28.3387 7.67074 28.411C7.6947 28.4833 7.69658 28.5611 7.67614 28.6344L7.61634 28.8491L8.74028 28.1997C8.81806 28.1552 8.90899 28.1393 8.99726 28.1549C9.08553 28.1705 9.16555 28.2165 9.22342 28.2849C9.28129 28.3534 9.31335 28.4399 9.31402 28.5295C9.3147 28.6192 9.28394 28.7062 9.22711 28.7755L8.77324 29.3252L10.7252 28.1997C10.8055 28.1561 10.8988 28.1426 10.9882 28.1616C11.0776 28.1807 11.1573 28.2311 11.2128 28.3038C11.2683 28.3764 11.296 28.4665 11.291 28.5578C11.2859 28.649 11.2484 28.7355 11.1852 28.8016L9.66564 30.3349L13.3633 28.1997C13.4461 28.1525 13.5436 28.1379 13.6366 28.1587C13.7297 28.1795 13.8117 28.2342 13.8665 28.3121C13.9214 28.3901 13.9453 28.4857 13.9335 28.5803C13.9216 28.6749 13.875 28.7617 13.8026 28.8238L11.2289 31.0019L16.0834 28.1997C16.1672 28.1526 16.2657 28.1387 16.3593 28.1607C16.4529 28.1828 16.5348 28.2392 16.5887 28.3188C16.6426 28.3984 16.6647 28.4954 16.6505 28.5905C16.6363 28.6856 16.5868 28.7719 16.512 28.8322L12.6066 31.9066L18.9515 28.2434C19.0369 28.1955 19.1373 28.182 19.2322 28.2057C19.3272 28.2295 19.4095 28.2886 19.4622 28.3711C19.5149 28.4535 19.5341 28.553 19.5159 28.6492C19.4976 28.7453 19.4433 28.8308 19.364 28.8882L15.684 31.488L18.848 29.6618C18.9327 29.6136 19.0325 29.5995 19.1272 29.6223C19.2219 29.6451 19.3044 29.7031 19.3578 29.7845C19.4113 29.8659 19.4318 29.9646 19.4152 30.0606C19.3985 30.1565 19.3459 30.2426 19.2682 30.3012L14.7203 33.6806L18.5598 31.4634C18.644 31.414 18.7439 31.3986 18.8392 31.4204C18.9344 31.4421 19.0177 31.4994 19.0721 31.5805C19.1265 31.6617 19.1479 31.7605 19.1319 31.8568C19.1159 31.9532 19.0637 32.0398 18.986 32.099L14.6498 35.4562L18.0599 33.4897C18.1446 33.4422 18.2442 33.4287 18.3386 33.4518C18.4329 33.475 18.515 33.533 18.5681 33.6143C18.6213 33.6956 18.6416 33.7941 18.625 33.8898C18.6083 33.9855 18.556 34.0713 18.4785 34.1299L16.3487 35.6962L17.5455 35.0062C17.6269 34.9635 17.721 34.9516 17.8106 34.9725C17.9002 34.9934 17.9792 35.0459 18.0333 35.1202C18.0874 35.1946 18.113 35.286 18.1054 35.3776C18.0977 35.4693 18.0574 35.5552 17.9917 35.6195L15.5851 37.7662L16.5411 37.2142C16.6183 37.1698 16.7086 37.1536 16.7964 37.1685C16.8843 37.1834 16.9642 37.2284 17.0224 37.2958C17.0807 37.3632 17.1136 37.4488 17.1156 37.5379C17.1176 37.6269 17.0885 37.7139 17.0333 37.7838L15.7806 39.3647C15.7875 39.3747 15.7936 39.3846 15.7998 39.3954C15.8506 39.4834 15.8644 39.588 15.8381 39.6862C15.8117 39.7844 15.7475 39.8682 15.6595 39.919L15.0086 40.2947C14.9314 40.3391 14.8411 40.3553 14.7533 40.3404C14.6654 40.3255 14.5855 40.2805 14.5273 40.2131C14.469 40.1457 14.4361 40.0601 14.4341 39.971C14.4321 39.8819 14.4612 39.795 14.5164 39.725L15.1834 38.8817L12.73 40.2977C12.6726 40.3333 12.6066 40.3526 12.5391 40.3537Z" fill="white"/>
<path d="M13.3516 32.703C13.2804 32.703 13.2106 32.6832 13.1501 32.6458C13.0895 32.6084 13.0406 32.5548 13.0087 32.4911C12.9769 32.4275 12.9634 32.3562 12.9698 32.2853C12.9762 32.2144 13.0022 32.1466 13.0449 32.0897L13.3409 31.7025L11.7002 32.6463C11.6192 32.6943 11.5233 32.7109 11.4309 32.6927C11.3385 32.6746 11.256 32.6231 11.1991 32.5481C11.1423 32.473 11.115 32.3796 11.1226 32.2857C11.1302 32.1919 11.172 32.1041 11.2402 32.0391L11.6703 31.6228L11.0263 31.9946C10.9492 32.0392 10.8591 32.0555 10.7713 32.0408C10.6835 32.0262 10.6035 31.9814 10.5451 31.9142C10.4867 31.847 10.4536 31.7616 10.4513 31.6726C10.449 31.5836 10.4777 31.4966 10.5326 31.4265L12.2537 29.227L12.2453 29.2139C12.22 29.1703 12.2037 29.122 12.1971 29.072C12.1905 29.022 12.1939 28.9712 12.207 28.9224C12.2201 28.8737 12.2427 28.8281 12.2734 28.7881C12.3042 28.7481 12.3426 28.7146 12.3864 28.6895L12.9759 28.3499C13.0531 28.3054 13.1433 28.2892 13.2311 28.3039C13.3189 28.3187 13.3988 28.3636 13.4572 28.4309C13.5155 28.4982 13.5485 28.5837 13.5507 28.6727C13.5528 28.7617 13.5239 28.8487 13.4689 28.9188L12.3565 30.3463L13.9803 29.4094C14.0613 29.3614 14.1571 29.3449 14.2495 29.363C14.342 29.3811 14.4245 29.4326 14.4813 29.5077C14.5382 29.5827 14.5654 29.6761 14.5579 29.77C14.5503 29.8639 14.5084 29.9517 14.4403 30.0166L14.0102 30.4329L14.6235 30.081C14.7002 30.0366 14.7899 30.0202 14.8774 30.0345C14.9649 30.0488 15.0447 30.093 15.1032 30.1595C15.1618 30.226 15.1955 30.3108 15.1986 30.3993C15.2017 30.4879 15.1741 30.5748 15.1203 30.6453L14.8244 31.0332L15.279 30.7703C15.3226 30.7425 15.3714 30.7239 15.4224 30.7155C15.4734 30.7071 15.5256 30.7091 15.5758 30.7214C15.6261 30.7337 15.6733 30.7561 15.7146 30.7871C15.756 30.8181 15.7907 30.8572 15.8165 30.9019C15.8424 30.9467 15.859 30.9962 15.8652 31.0475C15.8714 31.0989 15.8672 31.1509 15.8528 31.2006C15.8384 31.2502 15.8141 31.2964 15.7814 31.3365C15.7486 31.3765 15.7081 31.4095 15.6623 31.4334L13.5486 32.654C13.4887 32.688 13.4205 32.705 13.3516 32.703Z" fill="#818CFF"/>
<path d="M15.9118 31.8858C15.8379 31.8858 15.7656 31.8644 15.7035 31.8243C15.6415 31.7842 15.5924 31.727 15.5621 31.6596C15.5318 31.5922 15.5216 31.5175 15.5328 31.4444C15.544 31.3714 15.576 31.3031 15.6251 31.2479L16.9506 29.7552L15.1037 30.8209C15.0247 30.8664 14.9321 30.8823 14.8424 30.8657C14.7527 30.8491 14.6719 30.8011 14.6145 30.7302C14.557 30.6594 14.5267 30.5704 14.529 30.4793C14.5313 30.3881 14.566 30.3007 14.6269 30.2328L15.7937 28.9341L14.1937 29.8541C14.1145 29.8996 14.0217 29.9154 13.932 29.8986C13.8422 29.8818 13.7614 29.8335 13.7041 29.7624C13.6468 29.6914 13.6167 29.6021 13.6193 29.5108C13.6219 29.4196 13.6571 29.3322 13.7184 29.2645L14.7028 28.1782L13.3442 28.9663C13.2562 29.0163 13.152 29.0295 13.0543 29.003C12.9566 28.9765 12.8734 28.9124 12.8228 28.8247C12.7722 28.7371 12.7583 28.6329 12.7842 28.5351C12.81 28.4372 12.8736 28.3536 12.9609 28.3024L16.4377 26.2952C16.5169 26.2492 16.6099 26.2329 16.7 26.2495C16.7901 26.2661 16.8712 26.3144 16.9288 26.3857C16.9863 26.457 17.0165 26.5465 17.0137 26.638C17.011 26.7296 16.9755 26.8171 16.9138 26.8848L15.9287 27.9696L17.4873 27.0703C17.5663 27.0248 17.659 27.0089 17.7486 27.0255C17.8383 27.0421 17.9191 27.0901 17.9766 27.1609C18.034 27.2318 18.0643 27.3208 18.062 27.4119C18.0598 27.5031 18.0251 27.5905 17.9642 27.6584L16.8011 28.9571L18.6189 27.9075C18.6977 27.8624 18.7899 27.8467 18.8791 27.8632C18.9684 27.8798 19.0489 27.9274 19.1063 27.9977C19.1637 28.068 19.1943 28.1564 19.1927 28.2471C19.191 28.3379 19.1572 28.4251 19.0973 28.4933L17.1086 30.7296C17.1236 30.7473 17.1369 30.7663 17.1484 30.7864C17.199 30.8743 17.2127 30.9788 17.1864 31.0768C17.1601 31.1748 17.096 31.2584 17.0081 31.3092L16.1004 31.8344C16.0432 31.8678 15.9781 31.8855 15.9118 31.8858Z" fill="#E1EFFF"/>
<path d="M9.22103 31.3362C9.14227 31.3361 9.06544 31.3118 9.00098 31.2666C8.93652 31.2214 8.88756 31.1574 8.86075 31.0833C8.83395 31.0093 8.8306 30.9288 8.85117 30.8527C8.87173 30.7767 8.91521 30.7089 8.97569 30.6584L11.2044 28.8046L8.52566 30.351C8.444 30.3984 8.34772 30.414 8.25526 30.3949C8.16281 30.3757 8.08068 30.323 8.02464 30.247C7.96859 30.171 7.94257 30.077 7.95155 29.983C7.96054 29.889 8.0039 29.8017 8.07333 29.7377L9.66033 28.2672L7.64936 29.4264C7.56873 29.4717 7.47443 29.4864 7.38385 29.4677C7.29327 29.4489 7.21251 29.3981 7.15647 29.3245C7.10044 29.2509 7.0729 29.1595 7.07895 29.0672C7.08499 28.9749 7.12421 28.8879 7.18936 28.8223L8.50496 27.5189C8.44549 27.4854 8.39621 27.4364 8.36236 27.3771C8.31177 27.2891 8.29813 27.1847 8.32443 27.0867C8.35073 26.9887 8.41483 26.9051 8.50266 26.8542L10.1671 25.8997C10.2474 25.8522 10.3425 25.836 10.434 25.8542C10.5256 25.8725 10.6071 25.9239 10.6631 25.9986C10.7197 26.0727 10.7473 26.1649 10.7408 26.2579C10.7343 26.3509 10.6941 26.4383 10.6278 26.5039L9.84356 27.2797L12.2363 25.8997C12.318 25.8523 12.4142 25.8367 12.5067 25.8559C12.5991 25.8751 12.6813 25.9277 12.7373 26.0037C12.7934 26.0797 12.8194 26.1737 12.8104 26.2677C12.8014 26.3617 12.7581 26.4491 12.6886 26.5131L11.1009 27.9835L14.7134 25.8982C14.7965 25.8504 14.8945 25.8355 14.9881 25.8564C15.0817 25.8773 15.164 25.9326 15.2189 26.0112C15.2737 26.0898 15.2971 26.1862 15.2844 26.2812C15.2718 26.3762 15.2239 26.4631 15.1504 26.5246L12.5253 28.7073C12.6032 28.7203 12.6751 28.757 12.7314 28.8124C12.7876 28.8678 12.8253 28.9393 12.8394 29.0169C12.8535 29.0946 12.8432 29.1747 12.8101 29.2464C12.7769 29.318 12.7225 29.3777 12.6541 29.4172L9.41269 31.2886C9.35413 31.3212 9.28799 31.3376 9.22103 31.3362Z" fill="#E1EFFF"/>
<path d="M7.25274 3.84884C7.16829 3.849 7.08615 3.82128 7.01908 3.76997C6.95201 3.71866 6.90375 3.64664 6.88182 3.56509C6.85988 3.48354 6.86548 3.39703 6.89776 3.319C6.93003 3.24096 6.98717 3.17576 7.0603 3.13354L9.37947 1.79494C9.4231 1.7672 9.47189 1.74858 9.52291 1.74019C9.57392 1.7318 9.6261 1.73381 9.67632 1.74611C9.72653 1.75841 9.77374 1.78074 9.81511 1.81176C9.85647 1.84278 9.89113 1.88184 9.917 1.9266C9.94287 1.97136 9.95942 2.02089 9.96566 2.07222C9.97189 2.12354 9.96768 2.17559 9.95327 2.22524C9.93887 2.2749 9.91457 2.32112 9.88184 2.36114C9.8491 2.40116 9.80862 2.43414 9.76281 2.4581L7.44364 3.79747C7.38559 3.83099 7.31977 3.8487 7.25274 3.84884Z" fill="#704D36"/>
<path d="M21.8502 15.0667C21.7877 15.0668 21.7261 15.0515 21.6708 15.0222C21.6155 14.993 21.5683 14.9506 21.5331 14.8989C21.498 14.8472 21.476 14.7877 21.4691 14.7255C21.4623 14.6634 21.4707 14.6005 21.4937 14.5423L21.8303 13.6898L19.5372 15.0131C19.4578 15.0581 19.365 15.0734 19.2754 15.0561C19.1858 15.0388 19.1053 14.9901 19.0484 14.9188C18.9914 14.8474 18.9618 14.7581 18.9649 14.6669C18.9679 14.5757 19.0034 14.4886 19.0649 14.4212L20.8282 12.5183L16.5127 15.0131C16.4279 15.0616 16.3278 15.076 16.2328 15.0532C16.1377 15.0304 16.055 14.9722 16.0015 14.8905C15.9479 14.8088 15.9276 14.7097 15.9447 14.6135C15.9618 14.5173 16.0149 14.4312 16.0933 14.3729L17.2234 13.5388L14.6704 15.0131C14.585 15.0604 14.4848 15.0733 14.3902 15.0492C14.2956 15.0252 14.2137 14.9659 14.1613 14.8836C14.1089 14.8012 14.0899 14.702 14.1081 14.6061C14.1263 14.5102 14.1805 14.4249 14.2594 14.3675L15.3036 13.64L12.927 15.0123C12.8423 15.0616 12.7419 15.0766 12.6465 15.0541C12.5511 15.0317 12.4679 14.9736 12.414 14.8918C12.3601 14.8099 12.3396 14.7105 12.3567 14.614C12.3739 14.5175 12.4273 14.4312 12.5061 14.3729L17.3215 10.7926L10.0144 15.0092C9.9286 15.0575 9.82749 15.0709 9.73206 15.0466C9.63663 15.0224 9.5542 14.9623 9.50185 14.8789C9.4495 14.7955 9.43126 14.6952 9.45089 14.5987C9.47053 14.5022 9.52655 14.4169 9.60733 14.3606L13.824 11.4841L7.72056 15.0108C7.6344 15.0598 7.53261 15.0735 7.43655 15.0491C7.34048 15.0246 7.25762 14.964 7.20534 14.8797C7.15307 14.7955 7.13544 14.6943 7.15618 14.5974C7.17691 14.5005 7.23438 14.4153 7.31653 14.3599L11.5079 11.5746L5.56086 15.0062C5.47464 15.0544 5.37313 15.0675 5.2775 15.0427C5.18187 15.0179 5.09951 14.9571 5.04759 14.8731C4.99568 14.789 4.97822 14.6882 4.99886 14.5915C5.01949 14.4949 5.07664 14.41 5.15836 14.3545L9.89023 11.2372L3.96159 14.6589C3.87544 14.7079 3.77364 14.7216 3.67758 14.6972C3.58152 14.6727 3.49865 14.6121 3.44638 14.5278C3.3941 14.4436 3.37648 14.3424 3.39721 14.2455C3.41794 14.1486 3.47541 14.0634 3.55756 14.008L9.02926 10.3671L3.71933 13.4337C3.67634 13.46 3.6286 13.4775 3.57885 13.4853C3.52909 13.493 3.47829 13.4909 3.42935 13.4791C3.3804 13.4672 3.33427 13.4458 3.29359 13.4162C3.25291 13.3865 3.21847 13.3491 3.19224 13.3061C3.16602 13.2631 3.14851 13.2154 3.14074 13.1656C3.13296 13.1159 3.13505 13.0651 3.14691 13.0161C3.15876 12.9672 3.18014 12.921 3.20982 12.8804C3.2395 12.8397 3.2769 12.8052 3.31989 12.779L5.13689 11.6083L3.56983 12.513C3.48346 12.5621 3.38141 12.5757 3.28518 12.5511C3.18894 12.5264 3.10605 12.4653 3.05396 12.3807C3.00187 12.2961 2.98466 12.1946 3.00595 12.0976C3.02724 12.0005 3.08537 11.9156 3.16809 11.8605L6.15196 9.90784L3.43566 11.4764C3.34938 11.524 3.24811 11.5364 3.15287 11.5113C3.05763 11.4861 2.97573 11.4253 2.92415 11.3414C2.87257 11.2575 2.85528 11.1569 2.87587 11.0606C2.89645 10.9642 2.95332 10.8795 3.03469 10.824L4.75356 9.70237L3.34519 10.515C3.26 10.5644 3.15907 10.5792 3.06333 10.5561C2.96758 10.5331 2.88436 10.4741 2.83093 10.3914C2.7775 10.3087 2.75794 10.2086 2.77632 10.1119C2.79471 10.0151 2.84961 9.92916 2.92966 9.87181L8.37299 5.95721L3.28156 8.89738C3.19586 8.94504 3.09515 8.95804 3.00016 8.93372C2.90516 8.90939 2.8231 8.84958 2.77085 8.7666C2.71861 8.68361 2.70015 8.58376 2.71928 8.48759C2.73841 8.39141 2.79367 8.30622 2.87369 8.24954L4.68993 7.00524L3.38659 7.75581C3.30813 7.79693 3.21785 7.8096 3.1311 7.79168C3.04435 7.77376 2.96649 7.72634 2.91074 7.6575C2.855 7.58866 2.82482 7.50263 2.82533 7.41405C2.82585 7.32547 2.85702 7.2398 2.91356 7.17161L4.33726 5.54167C4.24738 5.57081 4.1499 5.56571 4.06354 5.52738C3.97718 5.48904 3.90802 5.42016 3.86934 5.33395C3.83066 5.24775 3.82518 5.15029 3.85395 5.06029C3.88272 4.97029 3.94371 4.89409 4.02523 4.84631L5.94573 3.73694C6.02434 3.69181 6.11641 3.67599 6.20558 3.6923C6.29475 3.70862 6.37525 3.756 6.43279 3.82605C6.49033 3.89609 6.52119 3.98426 6.51989 4.0749C6.51858 4.16554 6.4852 4.25278 6.42566 4.32114L5.01423 5.93344L12.9247 1.36641C13.0102 1.31928 13.1106 1.3066 13.2052 1.33096C13.2998 1.35532 13.3815 1.41489 13.4337 1.4975C13.4859 1.5801 13.5045 1.67951 13.4859 1.77541C13.4672 1.87131 13.4126 1.95646 13.3333 2.01347L11.5194 3.25624L14.6282 1.46224C14.7132 1.41458 14.8132 1.40111 14.9078 1.42455C15.0024 1.44799 15.0846 1.5066 15.1375 1.58845C15.1904 1.67029 15.2102 1.76923 15.1928 1.86514C15.1754 1.96104 15.1221 2.04671 15.0437 2.10471L9.60043 6.01854L16.6959 1.92224C16.7824 1.87193 16.8852 1.85745 16.9822 1.8819C17.0793 1.90635 17.1629 1.96778 17.2153 2.05308C17.2677 2.13837 17.2846 2.24077 17.2624 2.33837C17.2403 2.43598 17.1809 2.52107 17.0969 2.57544L15.3795 3.69401L17.6749 2.36921C17.7613 2.32011 17.8634 2.30646 17.9596 2.33113C18.0558 2.3558 18.1387 2.41687 18.1908 2.50146C18.2429 2.58606 18.2601 2.68757 18.2388 2.78461C18.2175 2.88164 18.1594 2.96663 18.0767 3.02164L15.0836 4.98047L18.5068 3.00477C18.5935 2.95394 18.6968 2.93922 18.7943 2.96379C18.8918 2.98836 18.9757 3.05026 19.028 3.13614C19.0803 3.22202 19.0967 3.32501 19.0738 3.42291C19.0509 3.5208 18.9904 3.60578 18.9054 3.65951L17.0877 4.82944L19.0902 3.67101C19.1764 3.622 19.2782 3.60827 19.3742 3.6327C19.4703 3.65713 19.5531 3.71783 19.6054 3.80204C19.6577 3.88626 19.6753 3.98745 19.6546 4.08438C19.6339 4.18131 19.5764 4.26644 19.4942 4.32191L14.0302 7.95974L20.724 4.09574C20.8102 4.04751 20.9117 4.03444 21.0073 4.05924C21.103 4.08404 21.1853 4.14481 21.2372 4.22886C21.2891 4.31291 21.3066 4.41376 21.286 4.51037C21.2653 4.60699 21.2082 4.6919 21.1265 4.74741L16.3984 7.86391L21.6884 4.81027C21.7744 4.76335 21.875 4.75109 21.9697 4.77603C22.0645 4.80097 22.146 4.86121 22.1977 4.94439C22.2494 5.02757 22.2673 5.12738 22.2477 5.22333C22.2282 5.31929 22.1726 5.40412 22.0925 5.46041L17.8927 8.25108L22.3163 5.69731C22.4022 5.64746 22.5041 5.63289 22.6005 5.65667C22.697 5.68045 22.7804 5.74072 22.8333 5.82479C22.8861 5.90886 22.9043 6.01017 22.884 6.10737C22.8636 6.20457 22.8063 6.29009 22.7242 6.34591L18.5075 9.22091L22.6675 6.81971C22.7521 6.77157 22.852 6.75747 22.9466 6.78027C23.0413 6.80307 23.1238 6.86105 23.1773 6.94245C23.2308 7.02385 23.2513 7.12255 23.2346 7.21851C23.2179 7.31447 23.1654 7.4005 23.0876 7.45911L18.2737 11.0387L22.7832 8.43201C22.8687 8.38423 22.9693 8.37099 23.0643 8.39502C23.1592 8.41906 23.2414 8.47853 23.2939 8.56124C23.3464 8.64394 23.3652 8.74361 23.3465 8.83976C23.3278 8.93592 23.273 9.02128 23.1934 9.07831L22.1484 9.80588L22.748 9.46011C22.8327 9.41155 22.9329 9.39719 23.0279 9.41997C23.1229 9.44275 23.2056 9.50095 23.2592 9.58268C23.3127 9.66441 23.333 9.76349 23.3159 9.85969C23.2989 9.9559 23.2457 10.042 23.1673 10.1003L22.0388 10.9329L22.6521 10.5771C22.7316 10.5316 22.8247 10.516 22.9147 10.5332C23.0047 10.5504 23.0855 10.5992 23.1426 10.6708C23.1997 10.7424 23.2292 10.8321 23.2259 10.9237C23.2225 11.0152 23.1865 11.1025 23.1244 11.1698L21.3611 13.0726L22.3991 12.4739C22.468 12.4339 22.5476 12.4164 22.6269 12.4238C22.7061 12.4311 22.7811 12.4629 22.8415 12.5149C22.9018 12.5668 22.9445 12.6362 22.9636 12.7135C22.9827 12.7908 22.9773 12.8721 22.9481 12.9461L22.4881 14.1168C22.5371 14.1499 22.578 14.1937 22.6077 14.2449C22.633 14.2885 22.6494 14.3367 22.656 14.3867C22.6627 14.4367 22.6594 14.4875 22.6463 14.5362C22.6333 14.5849 22.6108 14.6306 22.5801 14.6706C22.5494 14.7106 22.5111 14.7441 22.4674 14.7693L22.0449 15.0123C21.9859 15.0472 21.9188 15.066 21.8502 15.0667Z" fill="#0A0909"/>
<path d="M12.8573 28.7287C12.7819 28.729 12.708 28.7071 12.645 28.6656C12.582 28.6241 12.5326 28.565 12.5031 28.4955C12.4735 28.4261 12.4651 28.3496 12.4789 28.2754C12.4927 28.2012 12.528 28.1328 12.5805 28.0786L13.9153 26.6986L11.9296 27.8486C11.8879 27.8768 11.841 27.8965 11.7917 27.9066C11.7423 27.9166 11.6915 27.9169 11.6421 27.9073C11.5926 27.8977 11.5455 27.8785 11.5035 27.8508C11.4615 27.823 11.4254 27.7872 11.3972 27.7455C11.369 27.7037 11.3493 27.6569 11.3392 27.6075C11.3291 27.5582 11.3289 27.5073 11.3385 27.4579C11.348 27.4085 11.3673 27.3614 11.395 27.3194C11.4228 27.2774 11.4586 27.2412 11.5003 27.213L12.086 26.7369L11.166 27.269C11.0847 27.33 10.9825 27.3562 10.8818 27.3418C10.7812 27.3274 10.6904 27.2737 10.6294 27.1923C10.5684 27.111 10.5422 27.0088 10.5566 26.9081C10.5709 26.8075 10.6247 26.7167 10.706 26.6557L12.3084 25.1331L10.1824 26.3597C10.1021 26.406 10.0078 26.4217 9.91695 26.4038C9.82605 26.3859 9.74469 26.3357 9.68793 26.2625C9.63117 26.1893 9.60284 26.098 9.6082 26.0055C9.61355 25.913 9.65221 25.8256 9.71704 25.7594L10.5305 24.9314L10.1824 25.1315C10.1175 25.1689 10.0431 25.1865 9.96841 25.182C9.89368 25.1776 9.82187 25.1514 9.76186 25.1066C9.70186 25.0619 9.65627 25.0005 9.63073 24.9301C9.60519 24.8598 9.60081 24.7835 9.61814 24.7106L9.84278 23.7791C9.76509 23.7473 9.70031 23.6903 9.65877 23.6174C9.60794 23.5293 9.59417 23.4247 9.62048 23.3265C9.64679 23.2283 9.71103 23.1446 9.79908 23.0937L10.1824 22.8706C10.2473 22.8332 10.3218 22.8156 10.3967 22.82C10.4715 22.8244 10.5434 22.8507 10.6034 22.8956C10.6635 22.9405 10.709 23.002 10.7345 23.0725C10.76 23.143 10.7642 23.2194 10.7467 23.2923L10.5711 24.0214L12.5798 22.8622C12.66 22.8159 12.7543 22.8003 12.8452 22.8181C12.9361 22.836 13.0175 22.8862 13.0742 22.9594C13.131 23.0326 13.1593 23.1239 13.154 23.2164C13.1486 23.3089 13.11 23.3963 13.0451 23.4625L12.2325 24.2905L14.7203 22.8584C14.802 22.8078 14.8997 22.7898 14.994 22.8079C15.0883 22.8259 15.1725 22.8787 15.2297 22.9559C15.287 23.033 15.3132 23.1288 15.3032 23.2243C15.2932 23.3198 15.2477 23.4081 15.1757 23.4717L13.5741 24.9928L15.8856 23.6588C15.9691 23.6109 16.0675 23.5962 16.1613 23.6175C16.2552 23.6389 16.3375 23.6947 16.3921 23.774C16.4466 23.8533 16.4694 23.9501 16.4558 24.0454C16.4422 24.1407 16.3933 24.2273 16.3188 24.2882L15.7331 24.7635L15.8864 24.6738C15.9664 24.6276 16.0604 24.6119 16.1511 24.6295C16.2418 24.6471 16.3231 24.6969 16.38 24.7697C16.4369 24.8424 16.4657 24.9333 16.4609 25.0256C16.4561 25.1179 16.4182 25.2053 16.3541 25.2718L14.6114 27.0781C14.6752 27.1076 14.7296 27.154 14.7688 27.2123C14.808 27.2706 14.8304 27.3386 14.8335 27.4088C14.8367 27.479 14.8205 27.5487 14.7868 27.6103C14.753 27.6719 14.703 27.723 14.6421 27.7581L13.0436 28.6781C12.987 28.7109 12.9227 28.7283 12.8573 28.7287Z" fill="#916243"/>
<path d="M11.668 24.1256C11.5875 24.1256 11.5091 24.1003 11.4439 24.0532C11.3786 24.0062 11.3298 23.9398 11.3043 23.8635C11.2789 23.7871 11.2781 23.7047 11.3021 23.6279C11.3261 23.5512 11.3736 23.4839 11.438 23.4356L15.0268 20.6863L10.163 23.4938C10.0773 23.5429 9.97588 23.5569 9.88003 23.533C9.78418 23.5091 9.70126 23.4491 9.64856 23.3656C9.59585 23.282 9.57744 23.1813 9.59716 23.0845C9.61687 22.9877 9.6732 22.9023 9.75438 22.846L13.9266 19.9802L9.04675 22.7962C8.96059 22.8452 8.8588 22.8589 8.76273 22.8345C8.66667 22.8101 8.5838 22.7494 8.53153 22.6651C8.47925 22.5809 8.46163 22.4797 8.48236 22.3828C8.50309 22.2859 8.56056 22.2007 8.64271 22.1453L11.6182 20.168L8.27165 22.1008C8.18528 22.1499 8.08323 22.1636 7.987 22.1389C7.89077 22.1142 7.80787 22.0532 7.75578 21.9686C7.70369 21.884 7.68648 21.7824 7.70777 21.6854C7.72906 21.5884 7.78719 21.5034 7.86991 21.4484L9.72448 20.2355L7.68975 21.4093C7.60451 21.4525 7.5062 21.4623 7.41411 21.4368C7.32201 21.4113 7.24276 21.3523 7.19189 21.2714C7.14103 21.1905 7.12221 21.0935 7.13915 20.9995C7.15608 20.9054 7.20753 20.8211 7.28341 20.763L11.2992 18.0405L7.10171 20.4563C7.01576 20.5053 6.91419 20.5192 6.81825 20.495C6.72231 20.4708 6.63943 20.4105 6.58695 20.3266C6.53447 20.2427 6.51645 20.1418 6.53666 20.045C6.55687 19.9481 6.61374 19.8628 6.69538 19.8069L10.7925 17.0301L6.67008 19.4121C6.58384 19.4633 6.48094 19.4787 6.38349 19.455C6.28603 19.4312 6.20177 19.3702 6.1488 19.285C6.09582 19.1998 6.07834 19.0972 6.10012 18.9993C6.1219 18.9014 6.18119 18.8159 6.26528 18.7612L9.40325 16.669L6.43165 18.3863C6.34555 18.4362 6.24343 18.4507 6.14686 18.4266C6.0503 18.4026 5.96686 18.342 5.91419 18.2575C5.86152 18.1731 5.84375 18.0715 5.86463 17.9742C5.88551 17.8769 5.94341 17.7916 6.02608 17.7362L9.26295 15.565L6.07668 17.405C5.9913 17.4542 5.89024 17.4687 5.79449 17.4453C5.69873 17.422 5.61564 17.3627 5.56246 17.2797C5.50928 17.1968 5.4901 17.0965 5.50891 16.9998C5.52771 16.903 5.58306 16.8172 5.66345 16.7602L10.9481 13.0135L4.69285 16.623C4.60669 16.672 4.5049 16.6857 4.40883 16.6613C4.31277 16.6369 4.2299 16.5762 4.17763 16.4919C4.12535 16.4077 4.10773 16.3065 4.12846 16.2096C4.14919 16.1127 4.20666 16.0275 4.28881 15.9721L6.74675 14.3352L4.18761 15.8118C4.10241 15.8593 4.00231 15.8725 3.90772 15.8487C3.81312 15.825 3.73114 15.7661 3.67846 15.684C3.62579 15.6019 3.60639 15.5028 3.62421 15.4069C3.64203 15.311 3.69573 15.2255 3.77438 15.1678L5.64811 13.8423L4.06725 14.7546C3.98385 14.8031 3.88522 14.8184 3.79106 14.7974C3.6969 14.7764 3.61412 14.7206 3.55925 14.6413C3.50438 14.5619 3.48145 14.4648 3.49503 14.3693C3.50862 14.2737 3.55772 14.1869 3.63255 14.1259L6.92921 11.4326L6.44468 11.7125C6.36415 11.7572 6.2702 11.7715 6.18003 11.7526C6.08985 11.7338 6.00948 11.6831 5.95362 11.6098C5.89777 11.5366 5.87017 11.4456 5.87587 11.3537C5.88157 11.2617 5.9202 11.1749 5.98468 11.1091L7.49118 9.60955C7.40089 9.63952 7.30269 9.63485 7.21565 9.59645C7.12862 9.55804 7.05897 9.48865 7.02026 9.40175C6.98154 9.31485 6.97652 9.21666 7.00617 9.12627C7.03582 9.03587 7.09802 8.95973 7.18068 8.91265L9.62942 7.49968C9.70994 7.45493 9.80389 7.44067 9.89407 7.45953C9.98425 7.47838 10.0646 7.52908 10.1205 7.60234C10.1763 7.6756 10.204 7.76653 10.1982 7.85848C10.1925 7.95043 10.1539 8.03725 10.0894 8.10305L8.60438 9.58042L10.6568 8.39668C10.7402 8.34818 10.8388 8.33292 10.933 8.35393C11.0271 8.37494 11.1099 8.43069 11.1648 8.51004C11.2196 8.5894 11.2426 8.68653 11.229 8.78204C11.2154 8.87756 11.1663 8.96444 11.0915 9.02535L7.79478 11.7194L12.4791 9.01462C12.5645 8.96668 12.6649 8.9532 12.7598 8.97693C12.8548 9.00066 12.9371 9.05981 12.9898 9.14225C13.0425 9.22469 13.0618 9.32419 13.0435 9.42034C13.0252 9.51649 12.9709 9.60201 12.8916 9.65938L11.0194 10.9841L16.6927 7.70668C16.779 7.65545 16.8819 7.64007 16.9793 7.66384C17.0768 7.68761 17.161 7.74863 17.214 7.83382C17.267 7.919 17.2845 8.02156 17.2627 8.11948C17.2409 8.2174 17.1816 8.30288 17.0975 8.35758L14.6442 9.99288L17.6894 8.23568C17.7746 8.18823 17.8747 8.17503 17.9693 8.19879C18.0639 8.22255 18.1459 8.28147 18.1986 8.36356C18.2512 8.44565 18.2706 8.54472 18.2528 8.64062C18.235 8.73651 18.1813 8.822 18.1026 8.87968L12.8165 12.6279L18.7558 9.19862C18.8419 9.15039 18.9432 9.13718 19.0387 9.16172C19.1342 9.18626 19.2166 9.24667 19.2687 9.33038C19.3208 9.4141 19.3387 9.51468 19.3185 9.61122C19.2984 9.70776 19.2419 9.79283 19.1606 9.84875L15.923 12.023L19.2963 10.0749C19.3825 10.0259 19.4843 10.0122 19.5803 10.0366C19.6764 10.061 19.7593 10.1217 19.8116 10.206C19.8638 10.2902 19.8815 10.3914 19.8607 10.4883C19.84 10.5852 19.7825 10.6704 19.7004 10.7258L16.5601 12.8165L19.6176 11.0531C19.7035 11.0042 19.8051 10.9903 19.901 11.0145C19.997 11.0386 20.0799 11.099 20.1323 11.1829C20.1848 11.2667 20.2028 11.3676 20.1826 11.4645C20.1624 11.5613 20.1055 11.6466 20.0239 11.7025L15.9337 14.4763L20.0898 12.0766C20.1758 12.0277 20.2774 12.0138 20.3733 12.038C20.4692 12.0621 20.5521 12.1225 20.6046 12.2064C20.6571 12.2902 20.6751 12.3911 20.6549 12.488C20.6347 12.5848 20.5778 12.6701 20.4962 12.726L16.4834 15.4484L21.2682 12.6884C21.3546 12.6393 21.4566 12.6257 21.5529 12.6504C21.6491 12.675 21.732 12.7361 21.7841 12.8207C21.8362 12.9053 21.8534 13.0068 21.8321 13.1038C21.8108 13.2009 21.7527 13.2859 21.6699 13.3409L19.8123 14.553L21.7995 13.403C21.8854 13.3571 21.9855 13.3457 22.0795 13.371C22.1735 13.3963 22.2544 13.4564 22.3057 13.5391C22.357 13.6218 22.375 13.721 22.3558 13.8165C22.3367 13.9119 22.282 13.9965 22.2028 14.0531L19.2227 16.0334L22.0157 14.4234C22.1015 14.3744 22.2028 14.3604 22.2987 14.3843C22.3945 14.4082 22.4775 14.4681 22.5302 14.5517C22.5829 14.6353 22.6013 14.7359 22.5816 14.8327C22.5618 14.9295 22.5055 15.015 22.4243 15.0712L18.256 17.9347L19.7341 17.083C19.8183 17.0356 19.9172 17.0218 20.0112 17.0442C20.1051 17.0667 20.1872 17.1237 20.2408 17.2041C20.2945 17.2844 20.3159 17.382 20.3007 17.4774C20.2855 17.5728 20.2348 17.6589 20.1588 17.7185L16.5647 20.4732L19.3615 18.8586C19.443 18.8148 19.5376 18.802 19.6279 18.8226C19.7181 18.8431 19.7978 18.8956 19.8524 18.9703C19.9069 19.0451 19.9326 19.137 19.9247 19.2292C19.9168 19.3214 19.8757 19.4076 19.8092 19.4719L17.4985 21.5457L17.9271 21.2989C17.9707 21.2711 18.0195 21.2525 18.0705 21.2441C18.1215 21.2357 18.1737 21.2378 18.2239 21.2501C18.2741 21.2624 18.3213 21.2847 18.3627 21.3157C18.4041 21.3467 18.4387 21.3858 18.4646 21.4305C18.4905 21.4753 18.507 21.5248 18.5133 21.5762C18.5195 21.6275 18.5153 21.6795 18.5009 21.7292C18.4865 21.7788 18.4622 21.8251 18.4294 21.8651C18.3967 21.9051 18.3562 21.9381 18.3104 21.962L14.6979 24.0474C14.6163 24.0911 14.5217 24.1039 14.4315 24.0834C14.3413 24.0628 14.2616 24.0104 14.207 23.9356C14.1524 23.8609 14.1268 23.7689 14.1347 23.6768C14.1426 23.5846 14.1836 23.4984 14.2501 23.434L16.5601 21.3594L11.8574 24.0742C11.7999 24.1079 11.7346 24.1256 11.668 24.1256Z" fill="#A87552"/>
<path d="M12.7926 42.4351C12.7176 42.4351 12.6443 42.4132 12.5817 42.372C12.5191 42.3307 12.47 42.2721 12.4403 42.2032C12.4107 42.1344 12.402 42.0583 12.4151 41.9845C12.4282 41.9108 12.4627 41.8424 12.5143 41.788L13.051 41.2192L12.259 41.6792C12.179 41.7259 12.0847 41.7421 11.9937 41.7247C11.9026 41.7073 11.821 41.6576 11.7638 41.5846C11.7067 41.5116 11.6779 41.4204 11.6828 41.3279C11.6877 41.2353 11.726 41.1477 11.7906 41.0812L12.8854 39.9427L11.4502 40.7707C11.3672 40.8175 11.2697 40.8317 11.1768 40.8105C11.0839 40.7894 11.0022 40.7344 10.9476 40.6563C10.8931 40.5782 10.8695 40.4825 10.8817 40.388C10.8938 40.2935 10.9407 40.2069 11.0132 40.1451L11.2976 39.9066L11.1098 40.0155C11.0291 40.0608 10.9348 40.0755 10.8443 40.0568C10.7537 40.038 10.6729 39.9872 10.6169 39.9136C10.5608 39.84 10.5333 39.7486 10.5394 39.6563C10.5454 39.564 10.5846 39.477 10.6498 39.4114L12.4422 37.6404L11.2493 38.3304C11.1676 38.3778 11.0714 38.3934 10.9789 38.3742C10.8864 38.355 10.8043 38.3024 10.7483 38.2264C10.6922 38.1504 10.6662 38.0564 10.6752 37.9624C10.6842 37.8684 10.7275 37.781 10.797 37.717L12.0052 36.5908L11.362 36.9611C11.2793 37.008 11.1822 37.0225 11.0895 37.0018C10.9967 36.9811 10.915 36.9267 10.8601 36.8492C10.8052 36.7716 10.781 36.6765 10.7923 36.5821C10.8036 36.4878 10.8495 36.401 10.9212 36.3386L11.3283 35.9905C11.2585 36.0057 11.1858 36.0005 11.1189 35.9755C11.052 35.9504 10.9938 35.9067 10.9511 35.8494C10.8944 35.7762 10.8661 35.685 10.8714 35.5925C10.8768 35.5001 10.9154 35.4127 10.9802 35.3465L12.223 34.0777L11.5682 34.4556C11.5017 34.4941 11.4252 34.5117 11.3486 34.5061C11.2719 34.5005 11.1987 34.472 11.1385 34.4243C11.0783 34.3766 11.0337 34.312 11.0107 34.2387C10.9877 34.1654 10.9872 34.0868 11.0093 34.0133L11.3336 32.9399C11.2712 32.9094 11.2183 32.8624 11.1805 32.804C11.1428 32.7457 11.1216 32.6782 11.1192 32.6087C11.1168 32.5393 11.1334 32.4705 11.1671 32.4097C11.2008 32.3489 11.2504 32.2985 11.3106 32.2637L11.7177 32.0291C11.7842 31.9909 11.8607 31.9736 11.9372 31.9793C12.0136 31.985 12.0866 32.0135 12.1467 32.0611C12.2069 32.1088 12.2513 32.1733 12.2743 32.2465C12.2973 32.3197 12.2979 32.398 12.2759 32.4715L12.0244 33.3049L14.2646 32.0107C14.3449 31.9639 14.4394 31.9478 14.5307 31.9654C14.6219 31.983 14.7037 32.0332 14.7607 32.1067C14.8177 32.1801 14.8461 32.2717 14.8406 32.3645C14.8351 32.4573 14.796 32.5449 14.7307 32.611L13.4872 33.8799L14.4609 33.3179C14.5436 33.2701 14.6413 33.2549 14.7346 33.2754C14.828 33.2959 14.9104 33.3505 14.9656 33.4285C15.0208 33.5065 15.0448 33.6024 15.033 33.6972C15.0212 33.7921 14.9743 33.8791 14.9017 33.9412L14.5713 34.2233C14.6542 34.1855 14.7479 34.1785 14.8355 34.2034C14.9232 34.2284 14.999 34.2838 15.0495 34.3597C15.1 34.4356 15.1218 34.527 15.111 34.6175C15.1002 34.708 15.0575 34.7917 14.9906 34.8535L13.7831 35.979L14.6433 35.483C14.7237 35.4354 14.8187 35.4192 14.9103 35.4375C15.0018 35.4557 15.0834 35.5071 15.1394 35.5819C15.1959 35.656 15.2235 35.7481 15.2171 35.8411C15.2106 35.9341 15.1704 36.0216 15.1041 36.0871L13.3093 37.8596L14.766 37.0163C14.849 36.9695 14.9465 36.9553 15.0394 36.9764C15.1323 36.9976 15.214 37.0526 15.2685 37.1307C15.3231 37.2088 15.3466 37.3044 15.3345 37.399C15.3224 37.4935 15.2755 37.5801 15.203 37.6419L14.8963 37.8987C14.9776 37.8678 15.0671 37.8655 15.1499 37.8921C15.2327 37.9187 15.304 37.9727 15.3521 38.0452C15.4001 38.1177 15.4221 38.2044 15.4144 38.2911C15.4067 38.3777 15.3697 38.4592 15.3096 38.522L14.2155 39.6613L14.95 39.2396C15.0297 39.1941 15.1231 39.1786 15.2132 39.1961C15.3033 39.2135 15.3842 39.2627 15.4411 39.3348C15.498 39.4068 15.5272 39.4969 15.5233 39.5886C15.5194 39.6803 15.4828 39.7676 15.42 39.8346L14.2332 41.0873C14.2773 41.128 14.3113 41.1785 14.3323 41.2347C14.3533 41.2909 14.3609 41.3513 14.3543 41.411C14.3478 41.4707 14.3273 41.528 14.2945 41.5783C14.2617 41.6286 14.2176 41.6705 14.1657 41.7006L12.9843 42.383C12.9261 42.4169 12.86 42.4349 12.7926 42.4351Z" fill="#5E71D3"/>
<path d="M33.8456 46.5001C33.7669 46.5002 33.69 46.476 33.6255 46.4309C33.561 46.3858 33.512 46.322 33.485 46.2481C33.458 46.1741 33.4545 46.0937 33.4748 46.0176C33.4952 45.9416 33.5384 45.8737 33.5987 45.8231L34.764 44.8448L31.9849 46.4464C31.9055 46.4919 31.8124 46.5076 31.7225 46.4905C31.6326 46.4734 31.5518 46.4247 31.4946 46.3532C31.4375 46.2817 31.4078 46.1922 31.411 46.1007C31.4141 46.0092 31.4499 45.9219 31.5118 45.8545L33.2966 43.9287L31.646 44.8824C31.5765 44.9226 31.4961 44.9399 31.4162 44.932C31.3363 44.924 31.2609 44.8911 31.2006 44.838C31.1404 44.7849 31.0984 44.7142 31.0805 44.6359C31.0626 44.5576 31.0697 44.4757 31.1009 44.4017L31.6015 43.2134C31.5114 43.2394 31.4147 43.2315 31.33 43.1911C31.2453 43.1507 31.1783 43.0806 31.1418 42.9941C31.1053 42.9076 31.1019 42.8108 31.1321 42.7219C31.1622 42.633 31.224 42.5583 31.3056 42.5119L32.2003 41.9997C32.2699 41.9594 32.3504 41.942 32.4305 41.9499C32.5105 41.9579 32.586 41.9908 32.6463 42.0441C32.7066 42.0973 32.7486 42.1682 32.7664 42.2466C32.7842 42.3251 32.7768 42.4072 32.7454 42.4812L32.2524 43.6519L35.1136 41.9997C35.193 41.9542 35.2861 41.9385 35.376 41.9556C35.4659 41.9727 35.5467 42.0214 35.6039 42.0929C35.661 42.1644 35.6907 42.254 35.6875 42.3454C35.6844 42.4369 35.6486 42.5242 35.5867 42.5916L33.8019 44.5175L38.1642 41.9997C38.2471 41.9523 38.3448 41.9376 38.438 41.9585C38.5312 41.9793 38.6133 42.0342 38.6682 42.1123C38.723 42.1905 38.7467 42.2864 38.7346 42.3811C38.7225 42.4759 38.6755 42.5627 38.6027 42.6246L37.4374 43.6028L40.2135 41.9997C40.296 41.9532 40.3928 41.9388 40.4852 41.9593C40.5777 41.9799 40.6592 42.034 40.7142 42.1111C40.7692 42.1883 40.7936 42.283 40.7828 42.3771C40.7721 42.4712 40.7268 42.558 40.6559 42.6207L39.3173 43.7822L42.4054 41.9997C42.4869 41.956 42.5815 41.9432 42.6718 41.9637C42.762 41.9843 42.8417 42.0368 42.8963 42.1115C42.9508 42.1862 42.9765 42.2782 42.9686 42.3703C42.9607 42.4625 42.9196 42.5487 42.8531 42.6131L41.3589 43.957L44.6126 42.0795C44.6923 42.0333 44.786 42.0175 44.8764 42.0347C44.9669 42.052 45.0481 42.1012 45.1052 42.1734C45.1624 42.2456 45.1916 42.336 45.1876 42.428C45.1836 42.52 45.1466 42.6074 45.0834 42.6744L43.3875 44.4638L45.019 43.5223C45.0937 43.4794 45.1807 43.4629 45.266 43.4755C45.3513 43.4881 45.4298 43.5291 45.4889 43.5919C45.548 43.6546 45.5843 43.7354 45.5918 43.8213C45.5993 43.9072 45.5776 43.9931 45.5303 44.0651L44.9101 45.0043C44.9893 44.9884 45.0716 44.9975 45.1454 45.0305C45.2192 45.0635 45.2808 45.1186 45.3218 45.1883C45.3725 45.2762 45.3862 45.3806 45.3601 45.4786C45.3339 45.5766 45.27 45.6602 45.1823 45.7112L43.9104 46.4449C43.8357 46.4882 43.7486 46.505 43.6631 46.4926C43.5777 46.4802 43.499 46.4393 43.4396 46.3766C43.3803 46.3137 43.344 46.2326 43.3367 46.1464C43.3293 46.0603 43.3513 45.9742 43.399 45.9021L43.9962 44.9974L41.4854 46.4464C41.4057 46.492 41.3123 46.5074 41.2222 46.49C41.1321 46.4725 41.0512 46.4233 40.9943 46.3513C40.9374 46.2792 40.9082 46.1892 40.9121 46.0974C40.916 46.0057 40.9526 45.9184 41.0154 45.8515L42.7121 44.0621L38.5797 46.4464C38.4982 46.4901 38.4036 46.5029 38.3134 46.4824C38.2232 46.4619 38.1434 46.4094 38.0889 46.3346C38.0343 46.2599 38.0086 46.168 38.0166 46.0758C38.0245 45.9836 38.0655 45.8974 38.132 45.8331L39.6262 44.4891L36.2284 46.4464C36.1459 46.493 36.0491 46.5074 35.9566 46.4868C35.8642 46.4662 35.7826 46.4122 35.7277 46.335C35.6727 46.2579 35.6483 46.1631 35.659 46.069C35.6698 45.9749 35.715 45.8881 35.786 45.8254L37.1246 44.6639L34.0403 46.4464C33.9814 46.4814 33.9141 46.4999 33.8456 46.5001Z" fill="#9EBBCE"/>
<path d="M34.7654 35.5635C34.6861 35.5636 34.6088 35.5391 34.5441 35.4935C34.4793 35.4479 34.4303 35.3833 34.4037 35.3087C34.3772 35.234 34.3744 35.153 34.3958 35.0767C34.4171 35.0004 34.4616 34.9326 34.5231 34.8827L34.6289 34.7968L34.2134 35.0368C34.131 35.0845 34.0339 35.0999 33.9408 35.08C33.8478 35.06 33.7654 35.0062 33.7099 34.9289C33.6543 34.8517 33.6295 34.7565 33.6402 34.6619C33.6509 34.5674 33.6965 34.4802 33.7679 34.4173L35.9284 32.5098L33.2014 34.0838C33.1167 34.1331 33.0163 34.1481 32.9209 34.1256C32.8255 34.1032 32.7423 34.0451 32.6884 33.9632C32.6345 33.8814 32.614 33.782 32.6311 33.6855C32.6483 33.589 32.7017 33.5027 32.7805 33.4444L33.5471 32.8748L32.6655 33.3831C32.5825 33.4299 32.485 33.4441 32.3921 33.4229C32.2992 33.4018 32.2175 33.3468 32.1629 33.2687C32.1084 33.1906 32.0848 33.0949 32.097 33.0004C32.1091 32.9059 32.156 32.8193 32.2285 32.7575L35.4201 30.0948L32.01 32.0644C31.9261 32.1124 31.8272 32.127 31.7331 32.1053C31.639 32.0835 31.5565 32.027 31.5022 31.9471C31.448 31.8671 31.4259 31.7696 31.4404 31.6741C31.455 31.5786 31.505 31.4921 31.5806 31.4319L34.4173 29.1833L31.7025 30.7503C31.6186 30.7987 31.5195 30.8134 31.4251 30.7917C31.3307 30.7699 31.2481 30.7132 31.1938 30.633C31.1395 30.5528 31.1176 30.455 31.1325 30.3593C31.1473 30.2636 31.1979 30.177 31.274 30.1171L32.7306 28.9755L31.6573 29.5942C31.5758 29.6374 31.4814 29.6498 31.3916 29.629C31.3017 29.6083 31.2223 29.5558 31.168 29.4813C31.1136 29.4067 31.088 29.3151 31.0958 29.2232C31.1036 29.1313 31.1442 29.0452 31.2103 28.9809L32.608 27.7297L31.6573 28.2778C31.5859 28.32 31.5027 28.3379 31.4203 28.3288C31.3378 28.3196 31.2605 28.284 31.2001 28.2273C31.1396 28.1705 31.0991 28.0956 31.0848 28.0139C31.0705 27.9322 31.0831 27.8481 31.1206 27.7741L31.4856 27.0481C31.4173 27.0469 31.3504 27.0288 31.2908 26.9953C31.2313 26.9619 31.181 26.9141 31.1444 26.8564C31.0936 26.7684 31.0798 26.6638 31.1061 26.5656C31.1324 26.4674 31.1967 26.3836 31.2847 26.3328L32.1717 25.8207C32.2432 25.7785 32.3263 25.7606 32.4088 25.7698C32.4912 25.7789 32.5685 25.8145 32.629 25.8713C32.6895 25.928 32.7299 26.0029 32.7442 26.0846C32.7585 26.1663 32.746 26.2504 32.7084 26.3244L32.3734 26.973L35.4201 25.2135C35.5023 25.166 35.5991 25.1507 35.6919 25.1706C35.7847 25.1904 35.8668 25.2439 35.9224 25.3208C35.978 25.3976 36.0031 25.4924 35.9929 25.5867C35.9827 25.681 35.9378 25.7682 35.8671 25.8314L34.471 27.0811L37.001 25.6244C37.0849 25.577 37.1836 25.5629 37.2774 25.585C37.3712 25.6071 37.4532 25.6637 37.5072 25.7436C37.5611 25.8234 37.583 25.9207 37.5685 26.016C37.554 26.1112 37.5041 26.1975 37.4288 26.2577L35.9721 27.4L38.5251 25.9265C38.6088 25.8787 38.7075 25.8643 38.8014 25.886C38.8953 25.9077 38.9776 25.9641 39.0319 26.0437C39.0861 26.1234 39.1083 26.2206 39.0941 26.316C39.0799 26.4113 39.0303 26.4978 38.9552 26.5582L36.1239 28.8061L38.8839 27.2114C38.9669 27.1646 39.0644 27.1504 39.1573 27.1715C39.2502 27.1927 39.3319 27.2477 39.3864 27.3258C39.441 27.4039 39.4645 27.4995 39.4524 27.5941C39.4403 27.6886 39.3934 27.7752 39.3209 27.837L36.1339 30.4996L38.8854 28.9111C38.9701 28.8618 39.0705 28.8468 39.1659 28.8693C39.2613 28.8917 39.3445 28.9498 39.3984 29.0317C39.4523 29.1135 39.4728 29.2129 39.4557 29.3094C39.4385 29.4059 39.3851 29.4922 39.3063 29.5505L38.5397 30.1224L38.8601 29.9369C38.9425 29.8892 39.0396 29.8738 39.1327 29.8937C39.2257 29.9136 39.3081 29.9675 39.3636 30.0447C39.4192 30.122 39.444 30.2172 39.4333 30.3118C39.4226 30.4063 39.377 30.4935 39.3056 30.5564L37.1451 32.4631L38.3932 31.7432C38.4766 31.6956 38.5748 31.681 38.6684 31.7023C38.7621 31.7236 38.8443 31.7793 38.8988 31.8583C38.9534 31.9373 38.9763 32.0339 38.963 32.129C38.9497 32.2241 38.9013 32.3108 38.8272 32.3718L37.9447 33.0902C38.0183 33.1229 38.0796 33.1782 38.1195 33.2481C38.1701 33.3361 38.1838 33.4406 38.1575 33.5386C38.1312 33.6366 38.0671 33.7202 37.9792 33.771L34.9601 35.5121C34.9011 35.5466 34.8337 35.5644 34.7654 35.5635Z" fill="#0077B6"/>
<path d="M15.6878 25.9993C15.7012 25.9948 15.7147 25.9909 15.7285 25.9878C15.7169 25.9307 15.7095 25.8727 15.7062 25.8145C15.6855 25.8738 15.6792 25.9371 15.6878 25.9993Z" fill="#262626"/>
<path d="M12.9431 46.5061C13.4376 46.5061 13.9359 46.5153 14.4327 46.523C14.451 46.5516 14.4761 46.5753 14.5059 46.5918C14.5356 46.6084 14.569 46.6172 14.603 46.6176C14.637 46.618 14.6706 46.6099 14.7007 46.594C14.7308 46.5782 14.7565 46.5551 14.7754 46.5268C21.5006 46.1741 26.5905 48.9564 25.9825 39.6345H27.9145C28.2703 41.8356 26.6817 46.0883 29.8902 46.4846C33.5434 46.5069 37.2027 46.4846 40.8574 46.4923C41.9001 46.4923 43.6366 46.8128 44.6256 46.2761C45.1596 45.8782 45.5418 45.31 45.7091 44.6654C45.8764 44.0208 45.8187 43.3384 45.5456 42.731C44.9108 41.6102 43.5982 42.041 42.5142 41.949C42.1937 35.7567 43.149 29.2707 42.5142 23.1274C42.0013 20.6311 39.7626 21.1532 37.7148 21.1532C34.0448 21.3119 30.1087 20.8465 26.5652 21.3219C26.1048 21.35 25.672 21.5505 25.353 21.8836C25.034 22.2167 24.8522 22.6578 24.844 23.1189V31.4633C24.2853 30.5061 23.4972 29.7029 22.5507 29.1262C21.6042 28.5495 20.529 28.2174 19.4222 28.1598C18.473 27.3877 17.448 26.6778 16.4728 25.9265C16.4728 25.0831 16.459 24.2153 16.4651 23.3643C17.4308 22.8482 18.269 22.1229 18.9185 21.2414C19.7771 20.0592 19.7894 18.3641 20.6159 17.2708C21.5129 16.1062 22.2335 16.4091 22.6345 14.7408C23.7669 10.2275 24.8509 4.70364 19.1193 3.09901C15.7751 0.385006 9.44784 0.474706 6.57668 3.77137C6.24854 3.96151 5.43128 3.87257 4.87161 4.15931C1.34648 5.96634 2.70961 12.023 3.43411 14.9141C3.43662 15.2688 3.51752 15.6185 3.67101 15.9383C4.36101 17.2823 4.18161 16.3309 4.80951 17.0462C5.46485 17.7824 5.92949 18.6683 6.16268 19.626C6.79581 21.2838 8.01935 22.649 9.59811 23.4593C9.59811 24.3111 9.60808 25.1061 9.57434 25.9679L6.62574 28.182C-0.821654 29.0552 -0.0174205 37.5131 0.324513 43.2547C0.635013 48.4688 9.39801 46.5061 12.9431 46.5061ZM11.8429 45.8659C9.69624 42.8552 7.49208 39.8706 5.32624 36.8683C3.23631 34.7171 5.91044 32.243 6.62498 29.9377C6.97357 33.5883 8.31491 37.0738 10.5035 40.0163C10.4629 40.2792 10.604 40.4226 10.7834 40.3896C13.3563 43.5682 12.9822 43.2194 15.4715 40.2363C15.511 40.2131 15.5455 40.1822 15.5729 40.1455C15.6003 40.1087 15.62 40.0669 15.631 40.0224C17.7972 37.0804 19.1168 33.6015 19.4467 29.963C20.0171 31.2034 20.588 32.4436 21.1594 33.6836C21.9016 35.2936 21.8594 35.4101 20.8374 36.8185C18.6701 39.8154 16.4797 42.7985 14.3208 45.8038C13.4945 45.7579 12.6658 45.7786 11.8429 45.8659ZM9.89021 26.792C10.7282 27.4529 11.5769 27.9175 12.365 28.5738C9.12201 31.941 10.7427 31.9655 7.48978 28.5922L9.89021 26.792ZM16.0634 26.743L18.5581 28.6144L17.5837 29.6563C17.2533 29.9906 16.4621 31.2663 15.9522 31.0156C15.93 30.9739 15.898 30.9382 15.8591 30.9115C15.8201 30.8848 15.7753 30.8679 15.7284 30.8623C14.931 29.9929 14.4174 29.2806 13.6384 28.5155C14.4197 27.8815 15.2668 27.387 16.0665 26.743H16.0634ZM15.5727 39.0779L15.0284 32.4608C15.2267 32.2678 15.4131 32.063 15.5865 31.8474C16.7427 32.5857 17.8865 30.0757 18.7621 29.4708C18.4462 32.8742 17.3564 36.1603 15.5758 39.0779H15.5727ZM13.0374 29.1442C13.7274 29.8978 14.3997 30.5472 15.0537 31.3529L14.4994 31.9072C13.571 31.8973 12.6349 31.9249 11.711 31.9072C11.4859 31.7165 11.2731 31.5117 11.0739 31.2939C11.7241 30.5165 12.3604 29.8717 13.0374 29.1442ZM10.0995 31.9118C10.1861 31.9036 10.271 31.883 10.3517 31.8505C10.5751 32.1372 10.8297 32.3982 11.1107 32.6287C10.9298 34.8341 10.7486 37.0396 10.5672 39.245C8.70994 36.2989 7.58919 32.949 7.29964 29.4784C8.22194 30.2106 8.84218 31.7746 10.0995 31.9118ZM11.2426 39.9135L11.8245 32.8387C12.5991 32.7813 13.3766 32.7744 14.1521 32.818C14.3522 35.2231 14.5431 37.6312 14.7478 40.0354C14.5261 40.2859 14.2532 40.4858 13.9474 40.6216C13.6417 40.7573 13.3104 40.8257 12.9759 40.8221C12.6414 40.8186 12.3116 40.7431 12.0088 40.6009C11.7061 40.4587 11.4374 40.253 11.2211 39.9979C11.2309 39.9705 11.2381 39.9423 11.2426 39.9135ZM44.7812 44.0827C44.4462 46.8879 38.9545 45.787 37.0678 45.787H31.4274C32.4425 44.4974 31.1292 42.6889 33.3287 42.659C36.1577 42.4635 39.0703 42.7586 41.9154 42.659C41.9709 42.7063 42.0414 42.7323 42.1143 42.7323C42.1873 42.7323 42.2578 42.7063 42.3133 42.659C43.5906 42.7134 45.0304 42.1683 44.7812 44.0827ZM40.1582 22.0594C41.9369 22.5646 41.6087 23.178 41.8165 24.4736C42.39 30.1937 41.5543 36.1875 41.8165 41.9452C38.6609 42.133 35.2998 41.6025 32.1841 41.9536C30.7987 42.3416 30.9812 43.1803 30.9812 44.5036C30.9728 46.0216 28.8698 46.2669 28.8192 44.627V23.1603C28.805 22.7613 28.667 22.3765 28.4244 22.0594C32.2914 22.2396 36.3318 21.7474 40.1582 22.0594ZM26.6396 21.9896C26.8259 22.1215 27.0957 22.0364 27.3142 22.0594C27.4963 22.1702 27.6471 22.3256 27.7522 22.5111C27.8572 22.6965 27.9131 22.9058 27.9145 23.1189V38.8448H25.9703C25.6391 33.5395 25.7748 28.4411 25.7525 23.1603C25.7612 22.8974 25.8511 22.6437 26.01 22.434C26.1688 22.2243 26.3888 22.0691 26.6396 21.9896ZM24.8578 36.472C24.8578 37.231 24.9406 38.1333 25.0112 39.0671C24.8663 39.2611 24.8387 39.521 25.0487 39.6038C26.1412 46.3896 21.072 46.4655 15.2806 45.8629C17.5584 42.8529 20.4587 39.7717 22.0902 36.4559C23.1635 34.2778 20.9639 31.172 19.7902 28.964C23.6802 29.6218 24.8578 32.8763 24.8578 36.472ZM3.94701 13.209C3.21331 9.88094 2.53864 4.90527 6.86494 4.34867C6.96163 4.33321 7.0528 4.29344 7.1299 4.23309C7.20701 4.17275 7.26753 4.09381 7.30578 4.00367C8.01264 2.24571 11.4504 2.05634 12.8909 2.05634C13.9553 1.99533 15.021 2.14816 16.0253 2.50579C17.0296 2.86342 17.9521 3.41862 18.7383 4.13861C23.1137 6.71614 23.0109 8.66731 22.1208 13.3248C21.5681 12.5428 20.7799 12.1633 20.2088 11.1474C19.5556 9.98597 19.4912 9.1687 18.322 8.31081C15.5927 6.30904 16.0902 8.98777 13.1455 8.95174C10.3694 8.91801 10.6615 6.54747 8.11921 8.17357C7.1748 8.80765 6.43931 9.7072 6.00551 10.7588C5.37378 12.092 4.61018 12.2254 3.94701 13.209ZM6.26158 16.8277C4.89844 16.2031 4.6986 14.8663 5.66204 12.8172L6.07068 12.5826C6.09981 12.4791 6.49234 12.0207 6.53068 11.9225C8.97021 5.33767 10.5948 11.2701 14.767 9.33967C16.0642 8.74091 15.9982 8.06317 17.4411 8.78384C19.0894 9.60647 18.887 11.1467 19.6905 12.4354C20.5108 13.7495 20.9256 11.0554 21.7935 14.7722C21.5313 15.2123 19.7932 17.3452 19.4298 18.0597C18.4646 19.9618 18.1533 21.696 16.1378 22.7739C11.5508 25.1874 6.90021 21.5174 6.26158 16.8277ZM11.9533 24.2298C13.2355 24.3935 14.5381 24.2182 15.7314 23.7215C15.7422 24.4269 15.7222 25.1015 15.7061 25.8145C15.7613 25.688 15.9016 25.8145 15.8894 25.9019C15.8778 25.9161 15.867 25.931 15.8572 25.9464C15.8257 25.9702 15.7698 25.9694 15.7284 25.9878C15.7521 26.0775 15.7146 26.1756 15.7284 26.2646C15.7072 26.1774 15.6926 26.0887 15.6847 25.9993C14.744 26.5398 13.985 27.4307 13.1018 27.988C12.2179 27.2499 11.2931 26.5621 10.3318 25.928C10.3318 25.2188 10.3318 24.5089 10.3318 23.7997C10.8534 24.0066 11.3977 24.1509 11.9533 24.2298ZM1.20924 38.0068C1.20924 34.0746 1.18854 29.6371 6.29608 28.9418C5.13688 31.1574 2.82844 34.333 3.96771 36.5241C5.69348 39.8453 8.52324 42.9104 10.7949 45.9495C2.54248 46.4716 0.0676795 46.1442 1.20924 38.0068Z" fill="#262626"/>
<path d="M31.643 32.5635C33.217 35.6056 35.5216 37.1183 37.9665 33.8323C39.716 31.7324 39.5313 29.2607 39.5313 26.7069C39.4331 26.0614 39.0843 25.9211 38.4763 25.7762C37.5049 25.4438 36.5012 25.2146 35.4817 25.0923C33.9903 25.1577 32.5321 25.5542 31.2129 26.2531C30.7177 26.9055 31.0021 28.2594 31.0029 28.9985C30.9376 30.2204 31.1568 31.4407 31.643 32.5635ZM31.8646 27.1708C32.126 25.7287 37.945 25.6681 38.6711 26.93C39.5044 30.9765 36.2177 38.5956 32.5676 32.3435C31.8149 30.7302 31.5697 28.9264 31.8646 27.1708Z" fill="#262626"/>
<path d="M34.7103 31.0363C35.5965 31.573 35.9277 29.963 36.4383 29.4784C36.7105 29.0698 35.8733 28.7056 35.6287 29.0721L34.8989 30.1669C34.6175 29.7115 33.732 30.0189 34.1989 30.5249L34.7103 31.0363Z" fill="#262626"/>
<path d="M39.1516 38.0422H31.4849C31.0517 38.0422 30.847 38.9039 31.3822 38.9039H39.0488C39.4835 38.9039 39.6867 38.0422 39.1516 38.0422Z" fill="#262626"/>
</g>
</g>
<defs>
<clipPath id="clip0_17_3058">
<rect width="46" height="46" fill="white" transform="translate(0 0.90625)"/>
</clipPath>
</defs>
</svg>
