<svg width="46" height="47" viewBox="0 0 46 47" fill="none" xmlns="http://www.w3.org/2000/svg">
<g clip-path="url(#clip0_17_3088)">
<mask id="mask0_17_3088" style="mask-type:luminance" maskUnits="userSpaceOnUse" x="0" y="0" width="46" height="47">
<path d="M46 0.90625H0V46.9062H46V0.90625Z" fill="white"/>
</mask>
<g mask="url(#mask0_17_3088)">
<path d="M4.76968 42.149C4.59766 42.149 4.44609 42.0344 4.39921 41.8687C4.35233 41.7027 4.42142 41.5261 4.56805 41.4359L8.38728 39.0834L3.16655 42.094C2.98608 42.192 2.76049 42.131 2.65403 41.9555C2.54758 41.7796 2.59764 41.5515 2.76789 41.4366L16.4495 32.723L1.31316 41.462C1.13163 41.5617 0.903926 41.5004 0.797122 41.3227C0.69067 41.1451 0.743896 40.9149 0.917321 40.8021L11.9489 33.9317L0.989934 40.2554C0.808754 40.3548 0.581751 40.2938 0.474946 40.1172C0.36779 39.9406 0.419606 39.7108 0.591621 39.5969L15.9345 29.8506L0.989934 38.482C0.808402 38.5804 0.581398 38.518 0.475651 38.3407C0.369904 38.1634 0.422778 37.9343 0.595498 37.8211L8.97805 32.6483L0.989934 37.2599C0.808402 37.3544 0.584923 37.2906 0.480939 37.1147C0.376602 36.9388 0.428065 36.7122 0.597965 36.5983L2.92404 35.1817L0.989934 36.298C0.808754 36.3935 0.584218 36.3304 0.479529 36.1545C0.374839 35.9786 0.42595 35.7513 0.596203 35.6374L8.04537 31.0519L0.989934 35.1253C0.807697 35.2261 0.578931 35.164 0.472479 34.9853C0.36638 34.8066 0.421015 34.5757 0.596203 34.464L8.12009 29.8323L0.989934 33.9479C0.808754 34.0435 0.584218 33.9804 0.479529 33.8045C0.374839 33.6286 0.42595 33.4012 0.596203 33.2874L6.70344 29.5429L0.989934 32.8394C0.808049 32.9416 0.577521 32.8806 0.470364 32.7012C0.363207 32.5221 0.418548 32.2902 0.594793 32.1784L11.3592 25.4847L0.988876 31.4678C0.808049 31.5658 0.581751 31.5041 0.475651 31.3279C0.369552 31.1513 0.421015 30.9225 0.592325 30.8087L13.7783 22.5354L0.988876 29.9162C0.808049 30.0156 0.581046 29.9546 0.473889 29.778C0.367085 29.6014 0.418901 29.3719 0.590916 29.2577L15.932 19.517L0.988876 28.1428C0.808049 28.2422 0.581046 28.1812 0.473889 28.0046C0.367085 27.828 0.418901 27.5985 0.590916 27.4843L15.2915 18.1839L0.988876 26.4403C0.807344 26.5386 0.580693 26.4766 0.474946 26.2993C0.3692 26.122 0.422073 25.8925 0.594793 25.7797L9.35522 20.3679L0.988876 25.1974C0.808754 25.2859 0.591268 25.2206 0.488693 25.0483C0.386119 24.8759 0.433353 24.6535 0.596908 24.5375L3.05587 23.0398L0.988876 24.2294C0.807344 24.3278 0.580693 24.2658 0.474946 24.0885C0.3692 23.9111 0.422073 23.682 0.594793 23.5689L9.15359 18.284L0.988876 22.9975C0.807697 23.0973 0.579636 23.0359 0.473184 22.8583C0.366732 22.6806 0.419606 22.4504 0.593383 22.3376L12.7998 14.7052L0.988876 21.5251C0.807344 21.6235 0.580693 21.5615 0.474946 21.3842C0.3692 21.2068 0.422073 20.9774 0.594793 20.8646L8.73871 15.8363L0.988876 20.3115C0.808402 20.407 0.584571 20.3447 0.479176 20.1695C0.374134 19.9939 0.424188 19.7673 0.593383 19.6524L11.1427 13.058L0.988876 18.9164C0.807697 19.0179 0.578578 18.9573 0.471069 18.7793C0.363912 18.6012 0.417138 18.37 0.591621 18.2572L10.5897 11.9515L0.988876 17.4958C0.809459 17.5825 0.593383 17.5177 0.491161 17.3464C0.388939 17.1754 0.434058 16.9544 0.595498 16.8374L2.12248 15.898L0.988876 16.5515C0.806992 16.6566 0.574701 16.5963 0.466839 16.4165C0.358625 16.2364 0.414671 16.003 0.592325 15.8917L5.26739 12.9656L0.988876 15.4352C0.808754 15.5304 0.585276 15.4687 0.479881 15.2942C0.374134 15.1197 0.422778 14.8931 0.590916 14.7774L6.2022 11.2162L0.988876 14.2191C0.808402 14.3171 0.582808 14.2561 0.476356 14.0802C0.369904 13.9047 0.419958 13.6766 0.590211 13.5617L4.82079 10.8665L0.988876 13.0795C0.810164 13.1817 0.582456 13.125 0.472479 12.9508C0.362502 12.7764 0.409031 12.5462 0.578578 12.4288L8.45672 7.01804L0.987466 11.3301C0.807344 11.4436 0.569061 11.3897 0.455559 11.2092C0.341705 11.0287 0.395989 10.7907 0.576464 10.6769L6.36998 6.64228L0.988876 9.75301C0.811222 9.84924 0.589153 9.79178 0.480586 9.62082C0.372019 9.45022 0.414318 9.22462 0.577168 9.10478L4.03509 6.69903L0.988876 8.45796C0.814747 8.55736 0.59303 8.5059 0.479881 8.34023C0.367085 8.1742 0.400571 7.94931 0.557077 7.82348L4.4965 4.68773L0.988876 6.71278C0.814394 6.81183 0.59303 6.75966 0.480586 6.59329C0.368142 6.42691 0.402686 6.20202 0.559191 6.07689L2.18487 4.80017L0.988876 5.49317C0.819329 5.58904 0.605015 5.54287 0.489398 5.38601C0.374134 5.22915 0.394226 5.01061 0.53628 4.87737L1.64345 3.85761L0.988876 4.23513C0.833076 4.32431 0.635682 4.294 0.514073 4.16146C0.392464 4.02928 0.378717 3.83012 0.480939 3.68207L1.03611 2.88756C0.894762 2.89038 0.762931 2.81671 0.691728 2.6951C0.585981 2.5111 0.648371 2.27634 0.832018 2.16989L2.08864 1.44376C2.24479 1.35352 2.44254 1.38384 2.5645 1.51673C2.68646 1.64962 2.69986 1.84948 2.59693 1.99717L2.10486 2.7025L4.30016 1.43671C4.46971 1.34083 4.68438 1.38701 4.79964 1.54387C4.91526 1.70108 4.89516 1.91927 4.75276 2.05287L3.64488 3.06839L6.4722 1.43671C6.64739 1.3359 6.87016 1.38736 6.98331 1.55444C7.09646 1.72188 7.06121 1.94782 6.90295 2.0726L5.28185 3.3458L8.59313 1.43671C8.76762 1.33519 8.99074 1.38595 9.1046 1.55268C9.21845 1.71941 9.18391 1.94571 9.02564 2.0712L5.08621 5.20307L11.614 1.43671C11.7917 1.34048 12.0137 1.39794 12.1223 1.5689C12.2309 1.7395 12.1886 1.9651 12.0257 2.08494L8.56458 4.48928L13.8562 1.43671C14.0342 1.33801 14.258 1.39512 14.3673 1.56678C14.4769 1.73844 14.4336 1.96545 14.269 2.08494L8.47434 6.11778L16.5877 1.43671C16.766 1.33837 16.9898 1.39618 17.0988 1.56854C17.2077 1.74056 17.1633 1.96792 16.9979 2.0867L9.11905 7.49672L19.6205 1.43671C19.8013 1.33872 20.0269 1.40005 20.1333 1.57559C20.2398 1.75113 20.1897 1.97955 20.0195 2.09446L15.7843 4.7896L21.6004 1.43671C21.7805 1.34154 22.004 1.40323 22.1094 1.57771C22.2151 1.75219 22.1665 1.97884 21.9984 2.09446L16.3864 5.65954L23.7009 1.43671C23.8824 1.33519 24.1115 1.39582 24.2191 1.57383C24.3262 1.75184 24.273 1.98307 24.0981 2.09587L19.4227 5.02189L25.6315 1.43671C25.813 1.33837 26.0397 1.40076 26.1454 1.57806C26.2515 1.75536 26.1986 1.98448 26.0256 2.09728L24.5056 3.02997L27.2709 1.43671C27.4517 1.33731 27.6791 1.39829 27.7859 1.57489C27.8927 1.75149 27.8412 1.98096 27.6689 2.09516L17.6663 8.40156L29.7341 1.43671C29.9153 1.33872 30.1412 1.40041 30.2473 1.57665C30.3534 1.75325 30.302 1.98202 30.1307 2.09587L19.5813 8.68954L31.0408 2.07366C31.2223 1.97497 31.4493 2.03736 31.5551 2.21466C31.6608 2.39196 31.6079 2.62108 31.4352 2.73423L23.2945 7.75932L31.3598 3.10293C31.5403 3.00776 31.7641 3.07015 31.8695 3.24534C31.9745 3.42053 31.9245 3.64753 31.7553 3.76209L19.5489 11.3946L31.3598 4.57705C31.5413 4.47835 31.768 4.54074 31.8737 4.71804C31.9795 4.89534 31.9266 5.12446 31.7539 5.23761L23.1951 10.5232L31.3573 5.8097C31.5392 5.71065 31.7669 5.7734 31.8727 5.95176C31.9781 6.13012 31.9238 6.35994 31.7493 6.47203L29.3005 7.96341L31.358 6.77517C31.5406 6.6666 31.7771 6.72618 31.8861 6.90876C31.995 7.09171 31.9351 7.32788 31.7525 7.43679L22.9871 12.8518L31.3612 8.01735C31.542 7.91794 31.7694 7.97892 31.8762 8.15552C31.983 8.33212 31.9315 8.56159 31.7592 8.6758L17.0558 17.9791L31.3619 9.71917C31.5427 9.61976 31.7701 9.68074 31.8769 9.85734C31.9837 10.0339 31.9322 10.2634 31.7602 10.3776L16.4252 20.1152L31.3637 11.4912C31.5452 11.3861 31.7778 11.4464 31.8857 11.6262C31.9939 11.8063 31.9379 12.0396 31.7602 12.151L18.5771 20.4286L31.3644 13.0464C31.5456 12.9498 31.7704 13.0122 31.8758 13.1884C31.9816 13.3647 31.9301 13.5924 31.7592 13.7062L20.9998 20.3979L31.3658 14.4126C31.5477 14.3118 31.7768 14.3738 31.8829 14.5525C31.9893 14.7313 31.9343 14.9621 31.7592 15.0739L25.6361 18.83L31.3658 15.523C31.547 15.4274 31.7711 15.4905 31.8762 15.6664C31.9809 15.8423 31.9294 16.0697 31.7592 16.1835L24.2332 20.8177L31.3665 16.6989C31.548 16.6002 31.775 16.6626 31.8808 16.8399C31.9865 17.0172 31.9336 17.2463 31.7609 17.3594L24.3022 21.9503L31.3672 17.8691C31.5498 17.7651 31.7821 17.8265 31.8892 18.0073C31.9964 18.1878 31.9389 18.4211 31.7602 18.5315L29.4778 19.9174L31.3672 18.8318C31.5501 18.7225 31.7867 18.7821 31.8956 18.965C32.0048 19.1476 31.9449 19.3841 31.7623 19.493L23.3692 24.6708L31.3658 20.0507C31.547 19.947 31.7778 20.0066 31.8861 20.1853C31.9943 20.364 31.9403 20.5963 31.7648 20.7091L16.4149 30.4608L31.3697 21.8272C31.5522 21.7176 31.7888 21.7768 31.8984 21.9591C32.0077 22.1417 31.9488 22.3782 31.7662 22.4878L20.7488 29.3525L31.3704 23.2199C31.5512 23.1191 31.7796 23.179 31.8875 23.3563C31.995 23.5333 31.9432 23.7638 31.7701 23.8777L18.0783 32.599L31.3721 24.9224C31.554 24.8202 31.7842 24.8812 31.8913 25.0603C31.9985 25.2397 31.9435 25.4716 31.7669 25.5834L27.9491 27.9348L31.3728 25.9584C31.554 25.847 31.7912 25.9038 31.9026 26.0853C32.0137 26.2668 31.9569 26.5037 31.7754 26.6151L20.379 34.0072L31.3711 27.6616C31.5515 27.5591 31.7807 27.6179 31.8892 27.7945C31.9981 27.9711 31.9474 28.202 31.7747 28.3169L22.2148 34.5771L31.3721 29.2901C31.5519 29.1858 31.7817 29.2433 31.8917 29.4195C32.0017 29.5958 31.952 29.8273 31.7793 29.943L23.145 35.7421L31.3757 30.9895C31.5561 30.8827 31.7888 30.9394 31.8995 31.1175C32.0101 31.2951 31.958 31.5292 31.7824 31.6434L26.2029 35.354L31.3767 32.3681C31.5551 32.2697 31.7793 32.3275 31.8878 32.4996C31.9967 32.6719 31.9523 32.8989 31.787 33.0177L26.5969 36.593L31.3774 33.8334C31.5572 33.7312 31.7856 33.789 31.8949 33.9649C32.0038 34.1408 31.9548 34.3713 31.7831 34.4869L30.756 35.1679L31.3781 34.808C31.5561 34.7083 31.781 34.7643 31.891 34.9363C32.001 35.1083 31.9576 35.336 31.7923 35.4559L29.2829 37.2268L31.3788 36.0171C31.5561 35.9162 31.781 35.9712 31.892 36.1418C32.0031 36.3128 31.9618 36.5405 31.7979 36.6618L30.2456 37.7911L31.3795 37.1376C31.5522 37.0403 31.7701 37.09 31.8836 37.2522C31.9974 37.4143 31.9696 37.636 31.8194 37.7651L30.0799 39.2282L31.3806 38.4774C31.5526 38.3766 31.7733 38.4239 31.8889 38.5867C32.0045 38.7492 31.9766 38.973 31.8247 39.1028L31.4521 39.4235C31.6146 39.3696 31.7933 39.4292 31.8906 39.5702C31.9879 39.7108 31.9805 39.899 31.8727 40.0319L31.529 40.4538C31.6816 40.4376 31.8297 40.512 31.9079 40.6442C32.0137 40.8282 31.9506 41.0629 31.7669 41.1694L30.1613 42.0933C30.0006 42.186 29.7968 42.1507 29.6767 42.0094C29.5561 41.8684 29.5536 41.6615 29.6703 41.5173L29.9576 41.1631L28.3467 42.094C28.1747 42.1944 27.9544 42.1472 27.8388 41.9851C27.7232 41.8229 27.7503 41.5994 27.9015 41.4697L28.2417 41.1761L26.647 42.094C26.4746 42.1913 26.2564 42.1416 26.1429 41.9794C26.0294 41.8173 26.0573 41.5956 26.2074 41.4666L27.9463 40.0083L24.3371 42.094C24.1598 42.1948 23.9349 42.1402 23.8239 41.9692C23.7129 41.7982 23.7541 41.5705 23.918 41.4496L25.4683 40.3231L22.3928 42.094C22.2151 42.1909 21.9931 42.1338 21.8842 41.9639C21.7752 41.7937 21.8165 41.5681 21.9783 41.4472L24.4848 39.6763L20.2951 42.094C20.1154 42.1966 19.887 42.1384 19.7777 41.9625C19.6684 41.7866 19.7178 41.5561 19.8894 41.4405L20.9243 40.7552L18.6035 42.094C18.4248 42.1923 18.201 42.1349 18.0921 41.9625C17.9835 41.7901 18.0276 41.5631 18.1929 41.4443L23.3815 37.8705L16.0663 42.094C15.8869 42.192 15.6624 42.1328 15.5545 41.9593C15.447 41.7859 15.4932 41.5586 15.6602 41.4412L21.2391 37.7295L13.6782 42.094C13.4991 42.1934 13.2735 42.1349 13.1653 41.9614C13.0568 41.7877 13.1033 41.5593 13.2711 41.4419L21.9092 35.6413L10.7331 42.094C10.5534 42.192 10.3285 42.1321 10.2213 41.9579C10.1138 41.7838 10.1614 41.5561 10.3295 41.4398L19.8933 35.1764L7.91001 42.094C7.72918 42.1994 7.4976 42.1409 7.38832 41.9629C7.27905 41.7845 7.33193 41.5515 7.50747 41.438L18.9039 34.0459L4.96249 42.094C4.90398 42.1289 4.83771 42.1479 4.76968 42.149Z" fill="#BFDBF0"/>
<path d="M17.576 46.7691C17.4046 46.7687 17.2538 46.6548 17.2065 46.4899C17.1597 46.3246 17.2273 46.1483 17.3729 46.0574L17.964 45.6869L16.1808 46.7144C16.001 46.8149 15.7737 46.756 15.6655 46.5805C15.5569 46.4053 15.6059 46.1755 15.7765 46.0598L25.4996 39.6794L13.3101 46.7144C13.13 46.8106 12.9058 46.7497 12.7997 46.5748C12.6933 46.4003 12.7419 46.173 12.9104 46.0574L22.5728 39.8733L10.7214 46.7144C10.541 46.8135 10.3143 46.7532 10.2072 46.5773C10.1 46.4014 10.1501 46.1723 10.321 46.0574L22.4995 38.2688L7.87757 46.7144C7.69568 46.8244 7.45881 46.7662 7.34848 46.584C7.23851 46.4021 7.29667 46.1652 7.4789 46.0553L20.4791 37.8359L6.56243 45.8674C6.3816 45.9668 6.15425 45.9058 6.04744 45.7292C5.94064 45.5523 5.9921 45.3228 6.16447 45.2089L13.7729 40.5226L6.37984 44.7891C6.19866 44.8846 5.97448 44.8215 5.86979 44.6457C5.76475 44.4698 5.81621 44.2424 5.98646 44.1286L13.5096 39.4961L6.37984 43.615C6.19937 43.7101 5.97554 43.6478 5.87014 43.4726C5.7651 43.2974 5.81515 43.0704 5.98399 42.9558L17.5862 35.7174L6.37984 42.1874C6.19831 42.2843 5.97272 42.2212 5.86732 42.0443C5.76228 41.8673 5.81515 41.6389 5.98717 41.5258L11.5452 38.1207L6.37984 41.1024C6.19937 41.1976 5.97554 41.1352 5.87014 40.96C5.7651 40.7848 5.81515 40.5578 5.98399 40.4433L17.4431 33.299L6.37984 39.6854C6.19831 39.7827 5.97272 39.7196 5.86732 39.5427C5.76228 39.3654 5.81515 39.1369 5.98717 39.0241L10.5656 36.225L6.37984 38.6413C6.19831 38.7397 5.97166 38.6777 5.86591 38.5003C5.76016 38.3227 5.81304 38.0936 5.98576 37.9808L13.7877 33.1735L6.37984 37.4503C6.19901 37.5497 5.97166 37.4887 5.86485 37.3121C5.75805 37.1352 5.80986 36.9057 5.98188 36.7918L20.7494 27.4452L6.37914 35.7407C6.19725 35.8398 5.96954 35.7767 5.8638 35.5987C5.7584 35.4203 5.81304 35.1905 5.98717 35.0784L7.13311 34.3854L6.37914 34.8197C6.19725 34.9205 5.96813 34.8584 5.86203 34.6797C5.75558 34.501 5.81057 34.2701 5.98576 34.1584L11.8209 30.5813L6.37914 33.7202C6.19831 33.8196 5.97095 33.7587 5.86415 33.5821C5.75734 33.4051 5.80881 33.1756 5.98117 33.0618L20.5168 23.8731L6.37914 32.0353C6.19725 32.1344 5.96954 32.0713 5.8638 31.8933C5.7584 31.7149 5.81304 31.4851 5.98717 31.373L6.49229 31.0649L6.37914 31.1298C6.19901 31.225 5.97554 31.1633 5.87014 30.9888C5.76439 30.8143 5.81304 30.5877 5.98117 30.472L21.0737 20.8998L6.37914 29.3888C6.19866 29.4854 5.97377 29.4234 5.86803 29.2482C5.76228 29.0727 5.81233 28.8453 5.98188 28.7304L19.8925 19.9622L6.37914 27.7632C6.1976 27.8615 5.97095 27.7995 5.86521 27.6222C5.75911 27.4449 5.81198 27.2154 5.98505 27.1026L13.8452 22.2597L6.37596 26.5721C6.19478 26.6676 5.9706 26.6045 5.86591 26.4283C5.76087 26.2524 5.81233 26.025 5.98258 25.9112L12.6619 21.8064L6.37914 25.4321C6.19725 25.533 5.96813 25.4709 5.86203 25.2922C5.75558 25.1135 5.81057 24.8826 5.98576 24.7709L12.8551 20.5403L6.37914 24.2795C6.19725 24.3803 5.96813 24.3183 5.86203 24.1396C5.75558 23.9608 5.81057 23.73 5.98576 23.6182L9.86032 21.2442L6.37914 23.2516C6.19725 23.3521 5.96813 23.2901 5.86203 23.1113C5.75558 22.933 5.81057 22.7021 5.98576 22.59L9.37777 20.5026L6.37914 22.2336C6.19831 22.3316 5.97201 22.27 5.86591 22.0937C5.75981 21.9171 5.81127 21.6883 5.98258 21.5745L12.3115 17.6157L6.38231 21.0408C6.20148 21.1459 5.9699 21.0877 5.86062 20.9093C5.75135 20.7313 5.80387 20.4983 5.97941 20.3848L16.0144 13.844L6.37914 19.4053C6.1976 19.5054 5.9699 19.4437 5.86344 19.266C5.75664 19.0884 5.80986 18.8586 5.98329 18.7454L7.67736 17.6837L6.37596 18.4352C6.19408 18.5399 5.96179 18.4796 5.85393 18.2999C5.74571 18.1201 5.80176 17.8864 5.97941 17.775L6.78097 17.2731L6.37596 17.5043C6.19478 17.6076 5.9639 17.548 5.85569 17.3693C5.74747 17.1909 5.80141 16.9586 5.9773 16.8458L8.20186 15.4267L6.37914 16.4831C6.20042 16.5871 5.97131 16.5311 5.86027 16.3566C5.74959 16.1818 5.79682 15.9505 5.96708 15.8331L12.4123 11.3618L6.37914 14.8451C6.19901 14.9477 5.9699 14.8892 5.86098 14.7122C5.75241 14.5356 5.80317 14.3047 5.97554 14.1898L6.92127 13.574L6.38231 13.8874C6.20289 13.9935 5.97166 13.9378 5.86062 13.7619C5.74924 13.5857 5.79823 13.353 5.97095 13.2367L8.43521 11.5426L6.37914 12.72C6.20183 12.8218 5.97554 12.7672 5.8645 12.5955C5.75311 12.4239 5.79577 12.1951 5.96108 12.0745L8.22019 10.4376L6.37914 11.5003C6.2036 11.5983 5.98188 11.5444 5.87085 11.377C5.75946 11.2092 5.79612 10.9839 5.95474 10.8602L7.36928 9.78617L6.37914 10.3583C6.21241 10.4499 6.00338 10.4058 5.88777 10.2546C5.77215 10.1031 5.78484 9.8898 5.91702 9.75303L7.49018 8.16894L6.37914 8.80977C6.22228 8.90001 6.02383 8.86899 5.90222 8.73504C5.78061 8.6011 5.76862 8.40053 5.87331 8.25319L6.40452 7.50697C6.2325 7.50274 6.0841 7.3843 6.0411 7.21758C5.99845 7.05085 6.07176 6.87601 6.22052 6.7893L7.47326 6.06529C7.63012 5.97505 7.82857 6.00607 7.95054 6.14001C8.07214 6.27396 8.08413 6.47453 7.97944 6.62222L7.52719 7.25811L9.61182 6.05683C9.77855 5.96624 9.98616 6.01065 10.1014 6.16152C10.2167 6.31203 10.205 6.52423 10.0739 6.66135L8.50077 8.24473L12.2939 6.05683C12.4694 5.95672 12.6929 6.00995 12.805 6.17844C12.9167 6.34693 12.8794 6.57358 12.7186 6.69695L11.309 7.76499L14.271 6.05683C14.4487 5.95496 14.6746 6.00995 14.786 6.18161C14.897 6.35327 14.8547 6.58204 14.6894 6.70224L12.4292 8.33849L16.3842 6.05683C16.5629 5.95284 16.792 6.00889 16.903 6.18372C17.0137 6.35821 16.9665 6.58944 16.7962 6.70682L14.332 8.40088L18.3994 6.05683C18.5788 5.95919 18.8037 6.01911 18.9112 6.19324C19.0183 6.36702 18.9708 6.59473 18.8026 6.7114L17.8527 7.33425L20.0656 6.05683C20.2439 5.95742 20.4692 6.01418 20.5785 6.18654C20.6881 6.35926 20.6437 6.58697 20.4776 6.70611L14.0324 11.1775L22.9017 6.05683C23.0825 5.95566 23.311 6.01594 23.4185 6.19289C23.526 6.37019 23.4742 6.60072 23.3011 6.71457L21.066 8.13616L24.6758 6.05683C24.857 5.95531 25.0865 6.01594 25.1936 6.19394C25.3011 6.37195 25.2475 6.60319 25.0731 6.71598L24.28 7.21335L26.2821 6.05859C26.4629 5.96024 26.6892 6.02193 26.7953 6.19853C26.9014 6.37477 26.85 6.60354 26.6786 6.71774L24.9768 7.77874L27.9645 6.05683C28.1447 5.95778 28.3706 6.01735 28.4781 6.19253C28.586 6.36772 28.537 6.59649 28.3674 6.7121L18.3306 13.2522L30.7975 6.05683C30.9787 5.95531 31.2081 6.01594 31.3153 6.19394C31.4228 6.37195 31.3692 6.60319 31.1947 6.71598L24.8637 10.6769L32.8648 6.05683C33.0464 5.95848 33.2734 6.02087 33.3791 6.19817C33.4849 6.37548 33.432 6.6046 33.2593 6.71774L29.8711 8.80202L34.6269 6.05683C34.8085 5.95848 35.0351 6.02087 35.1409 6.19817C35.2466 6.37548 35.1937 6.6046 35.021 6.71774L31.1609 9.08471L36.0157 6.2803C36.1973 6.18478 36.4215 6.24788 36.5262 6.42377C36.6312 6.59966 36.5797 6.82702 36.4095 6.94087L29.5331 11.176L36.6174 7.08645C36.799 6.9881 37.0256 7.05014 37.1314 7.22744C37.2371 7.40475 37.1843 7.63422 37.0115 7.74701L30.3308 11.8521L36.7496 8.14603C36.9326 8.03711 37.1687 8.09704 37.2777 8.27963C37.3866 8.46222 37.3267 8.69874 37.1441 8.8073L29.2758 13.6586L36.7507 9.34661C36.9319 9.24474 37.161 9.30572 37.2685 9.48373C37.3757 9.66174 37.3224 9.89262 37.1479 10.0058L23.2457 18.7623L36.7507 10.9628C36.9308 10.8676 37.1543 10.9293 37.2597 11.1038C37.3654 11.2783 37.3168 11.5049 37.1487 11.6205L22.0508 21.1949L36.7514 12.7076C36.9343 12.5994 37.1705 12.66 37.2787 12.8433C37.3869 13.0263 37.3263 13.2624 37.1434 13.3706L36.6382 13.6787L36.7514 13.6139C36.9333 13.5039 37.1702 13.5624 37.2798 13.7446C37.3898 13.9265 37.3312 14.163 37.1494 14.273L22.6137 23.4596L36.7514 15.2974C36.9333 15.1965 37.162 15.2586 37.2685 15.4373C37.3746 15.616 37.32 15.8469 37.1448 15.9586L31.3001 19.541L36.7521 16.3936C36.8705 16.3238 37.0172 16.3224 37.137 16.3897C37.2569 16.4574 37.3316 16.5836 37.333 16.7214C37.3344 16.8589 37.2625 16.9868 37.1441 17.0566L35.9981 17.7496L36.7521 17.3154C36.9329 17.216 37.1603 17.2769 37.2671 17.4535C37.3739 17.6305 37.3224 17.86 37.1501 17.9738L22.3934 27.3158L36.7521 19.0256C36.9347 18.9167 37.1712 18.9766 37.2798 19.1592C37.3887 19.3418 37.3291 19.5783 37.1462 19.6873L29.3361 24.4991L36.7528 20.2171C36.9354 20.1131 37.1673 20.1744 37.2745 20.3552C37.3816 20.5357 37.3242 20.7691 37.1455 20.879L32.567 23.6774L36.7528 21.2618C36.9336 21.1667 37.1575 21.2291 37.2625 21.4042C37.3675 21.5794 37.3178 21.8064 37.1487 21.921L25.6892 29.0653L36.7528 22.6788C36.9343 22.5816 37.1603 22.6447 37.2653 22.8216C37.3704 22.9989 37.3178 23.2273 37.1455 23.3401L31.5751 26.7522L36.7535 23.7677C36.9343 23.6722 37.1582 23.7346 37.2632 23.9097C37.3686 24.0849 37.3186 24.3119 37.1494 24.4265L25.5475 31.6649L36.7535 25.1967C36.9354 25.0962 37.1645 25.1583 37.2706 25.337C37.3771 25.5153 37.3224 25.7462 37.1472 25.8583L29.6145 30.4953L36.7542 26.374C36.9357 26.2756 37.1628 26.338 37.2685 26.5153C37.3742 26.6926 37.3214 26.9218 37.1487 27.0349L29.5514 31.7149L36.7542 27.5569C36.9354 27.4572 37.1624 27.5182 37.2692 27.6951C37.3764 27.8717 37.3245 28.1012 37.1525 28.215L24.1506 36.4259L36.7542 29.1499C36.9347 29.0536 37.1589 29.1146 37.265 29.2894C37.3714 29.4639 37.3224 29.6913 37.1539 29.8069L24.9754 37.5987L36.7567 30.7977C36.9375 30.6969 37.1659 30.7569 37.2734 30.9338C37.3813 31.1111 37.3295 31.3416 37.1564 31.4555L27.5003 37.6364L36.7567 32.2926C36.9365 32.1947 37.161 32.2546 37.2685 32.4287C37.3757 32.6028 37.3281 32.8306 37.1603 32.9469L27.4316 39.3322L36.756 33.9497C36.9375 33.8496 37.1652 33.9113 37.2717 34.0889C37.3785 34.2662 37.3252 34.4964 37.1518 34.6096L36.5642 34.9762L36.756 34.8665C36.934 34.7707 37.1564 34.8292 37.2643 35.0005C37.3721 35.1714 37.3291 35.397 37.1656 35.5165L29.1112 41.0337L36.7592 36.6184C36.9375 36.5176 37.1638 36.5747 37.2738 36.7478C37.3834 36.9212 37.3379 37.1503 37.1702 37.2684L31.3442 41.2885L36.7567 38.1669C36.9361 38.0678 37.162 38.1271 37.2699 38.3012C37.3781 38.4757 37.3305 38.7041 37.1617 38.8208L35.6749 39.8063L36.7567 39.1821C36.9319 39.0834 37.1539 39.1362 37.2657 39.3037C37.3774 39.4708 37.3415 39.696 37.1832 39.8204L32.8712 43.1314L34.4112 42.2434C34.5861 42.144 34.8081 42.1962 34.9206 42.3633C35.033 42.53 34.9981 42.7556 34.8402 42.8804L32.5762 44.6467C32.5924 44.6657 32.6068 44.6865 32.6195 44.7084C32.7256 44.8924 32.6632 45.1279 32.4792 45.2343L29.9103 46.7144C29.7351 46.8156 29.5116 46.7641 29.3985 46.5963C29.285 46.4285 29.3213 46.2019 29.4806 46.0775L29.9744 45.6926L28.2032 46.7134C28.0276 46.8142 27.8041 46.762 27.6917 46.5939C27.5789 46.4257 27.6159 46.1991 27.7759 46.075L32.088 42.7641L25.2426 46.7144C25.0628 46.8135 24.8372 46.7542 24.729 46.5801C24.6212 46.4056 24.6687 46.1772 24.8376 46.0605L26.3283 45.0725L23.4837 46.7144C23.3057 46.8117 23.0825 46.7539 22.974 46.5822C22.8654 46.4109 22.9084 46.1846 23.0727 46.0651L28.8933 42.045L20.8048 46.7144C20.6264 46.8124 20.4022 46.755 20.2936 46.5826C20.1847 46.4106 20.2291 46.1832 20.3945 46.0644L28.4552 40.5455L17.7688 46.7144C17.7103 46.7493 17.644 46.768 17.576 46.7691Z" fill="#51CB20"/>
<path d="M30.8281 46.1599C30.6681 46.1599 30.5246 46.0609 30.4679 45.9111C30.4111 45.7613 30.4531 45.5921 30.5733 45.486L32.58 43.7151L31.0199 44.6153C30.8454 44.7133 30.6248 44.6615 30.5123 44.4955C30.4002 44.3298 30.4337 44.1056 30.5895 43.9798L31.4651 43.2868L31.0199 43.5434C30.8475 43.64 30.63 43.5906 30.5165 43.4289C30.403 43.2674 30.4302 43.0457 30.5796 42.9167L30.8782 42.6639C30.7252 42.684 30.575 42.6111 30.4964 42.4782C30.4182 42.3453 30.4267 42.1782 30.5179 42.0541L31.0139 41.3819C30.8482 41.3643 30.7125 41.2427 30.6776 41.0799C30.6427 40.9174 30.716 40.7503 30.8599 40.6664L32.1165 39.9403C32.2744 39.8493 32.4743 39.8817 32.5959 40.0175C32.7171 40.1535 32.7266 40.3558 32.6184 40.5025L32.2335 41.0252L34.1271 39.9318C34.2995 39.8338 34.5184 39.8825 34.6326 40.0449C34.7468 40.2071 34.7189 40.4295 34.5684 40.5585L34.3936 40.7066L35.738 39.9381C35.9124 39.838 36.1349 39.8895 36.248 40.0559C36.3608 40.2226 36.3266 40.4478 36.1691 40.5733L35.2966 41.2593L35.5275 41.126C35.6988 41.0287 35.9156 41.076 36.0309 41.2357C36.1458 41.3957 36.1218 41.6163 35.9752 41.7475L32.5208 44.7947C32.6272 44.9784 32.5645 45.2139 32.3805 45.3207L31.0185 46.106C30.961 46.1406 30.8951 46.1589 30.8281 46.1599Z" fill="#0077B6"/>
<path d="M24.1722 30.6377C24.0048 30.6373 23.8567 30.5288 23.806 30.3691C23.7556 30.2094 23.8137 30.0353 23.9505 29.9384L30.756 25.129L24.4535 28.7681C24.2719 28.8717 24.0411 28.8118 23.9329 28.6334C23.8246 28.4547 23.8786 28.2224 24.0545 28.1096L24.9315 27.5538C24.7876 27.5622 24.6505 27.4914 24.574 27.3691C24.4658 27.1904 24.5194 26.9581 24.6949 26.8453L28.5808 24.3521L25.9093 25.8921C25.7291 25.9929 25.5014 25.9334 25.3932 25.7571C25.2854 25.5809 25.3358 25.3507 25.5074 25.2358L32.3884 20.7761L26.8874 23.9517C26.7052 24.0617 26.4687 24.0031 26.3587 23.8209C26.2487 23.639 26.3072 23.4025 26.4891 23.2925L28.9463 21.7402L28.0549 22.2544C27.8737 22.3662 27.6365 22.3101 27.5247 22.1293C27.4126 21.9485 27.4687 21.7109 27.6499 21.5992L34.0493 17.3823L31.3996 18.9164C31.2202 19.0168 30.9932 18.9587 30.8847 18.7842C30.7757 18.6093 30.8237 18.3799 30.9932 18.2632L34.8509 15.6745L34.3634 15.9554C34.1857 16.057 33.9598 16.0016 33.8487 15.8293C33.7381 15.6572 33.7818 15.4285 33.9478 15.3086L37.1357 13.0425C36.9736 13.0421 36.829 12.9402 36.7741 12.7876C36.7194 12.6353 36.7659 12.4647 36.8907 12.3611L39.6313 10.0865C39.6204 10.0731 39.6109 10.0587 39.6028 10.0435C39.497 9.85951 39.5594 9.62475 39.7431 9.5183L41.6532 8.41324C41.8266 8.31313 42.0477 8.36248 42.1619 8.52674C42.2761 8.691 42.2454 8.91554 42.0914 9.04314L40.8742 10.0534L43.3459 8.6272C43.5232 8.52921 43.7463 8.58561 43.8559 8.75586C43.9656 8.92611 43.9243 9.15241 43.7618 9.27332L41.0311 11.2162L44.3529 9.2987C44.532 9.20211 44.7555 9.26098 44.863 9.4337C44.9705 9.60642 44.9254 9.83307 44.7597 9.9508L40.9028 12.5398L44.9462 10.205C45.127 10.0932 45.3642 10.1493 45.4763 10.3301C45.5881 10.5113 45.532 10.7485 45.3512 10.8602L38.9535 15.0763L45.1848 11.4788C45.3656 11.3791 45.593 11.4401 45.6998 11.6166C45.8066 11.7936 45.7551 12.0231 45.5828 12.1369L43.1256 13.6911L44.9497 12.6375C45.1312 12.5264 45.3681 12.5835 45.4791 12.7651C45.5902 12.9462 45.5331 13.1835 45.3519 13.2945L38.4685 17.756L42.4481 15.4588C42.6286 15.3597 42.8552 15.42 42.9624 15.5959C43.0695 15.7718 43.0195 16.0009 42.8485 16.1158L38.9676 18.6083L39.76 18.1511C39.9401 18.0556 40.1636 18.1176 40.269 18.2921C40.3747 18.4666 40.3261 18.6929 40.158 18.8085L37.9309 20.2223C38.0783 20.2572 38.1914 20.3753 38.2203 20.5237C38.2489 20.6725 38.1879 20.824 38.0642 20.9115L31.2586 25.7212L33.474 24.442C33.657 24.3465 33.8826 24.412 33.9859 24.5904C34.0891 24.7691 34.0334 24.9975 33.8593 25.1082L24.3647 30.5901C24.3061 30.6225 24.2395 30.6391 24.1722 30.6377Z" fill="#0077B6"/>
<path d="M23.9652 30.4928C23.809 30.4928 23.6684 30.3987 23.6092 30.2545C23.5496 30.1104 23.5831 29.9443 23.6941 29.8344L24.287 29.2454L24.1798 29.307C24.0283 29.3948 23.8369 29.3691 23.7135 29.245C23.5905 29.1206 23.5665 28.9288 23.6553 28.778L24.8922 26.6761C24.8041 26.4942 24.8714 26.2756 25.0463 26.1745L25.348 25.9996C25.4996 25.9122 25.691 25.9376 25.8143 26.062C25.9374 26.1865 25.9613 26.3782 25.8725 26.5287L25.0593 27.9094L26.4654 27.0987C26.6325 27.0056 26.8425 27.0497 26.9585 27.2016C27.0745 27.3539 27.0611 27.5679 26.9271 27.7046L26.3335 28.2943L27.1806 27.8054C27.3635 27.7099 27.5891 27.7755 27.6924 27.9538C27.7957 28.1326 27.7396 28.361 27.5655 28.4716L24.1545 30.4414C24.097 30.4748 24.0314 30.4928 23.9652 30.4928Z" fill="#0077B6"/>
<path d="M27.5062 28.6249C27.3469 28.6245 27.2041 28.5265 27.147 28.3778C27.0899 28.2294 27.1301 28.0609 27.2482 27.9541L27.3807 27.8346L27.1104 27.9886C26.95 28.0813 26.7462 28.0468 26.6257 27.9062C26.5051 27.7655 26.5016 27.5586 26.6176 27.4141L27.7374 26.0281L26.0895 26.9798C25.9285 27.0732 25.7237 27.0383 25.6031 26.8966C25.4826 26.7549 25.4804 26.5473 25.5982 26.4031L26.7015 25.0517L26.1851 25.3474C26.0331 25.4348 25.8417 25.4091 25.7187 25.2847C25.5957 25.1603 25.5721 24.9682 25.6613 24.8176L26.7156 23.0506C26.631 22.8701 26.6976 22.6551 26.8696 22.5547L27.1689 22.3812C27.3208 22.2931 27.5129 22.3185 27.6363 22.4433C27.7596 22.568 27.7833 22.7605 27.6934 22.911L27.0772 23.9413L28.1308 23.334C28.2919 23.241 28.4963 23.2762 28.6165 23.4179C28.7371 23.5592 28.7396 23.7665 28.6222 23.9107L27.5185 25.2621L29.1358 24.3287C29.2961 24.236 29.4999 24.2709 29.6204 24.4116C29.741 24.5522 29.7445 24.7588 29.6285 24.9033L28.5111 26.2932L30.1611 25.3414C30.3307 25.2494 30.5422 25.2967 30.656 25.4525C30.7695 25.6079 30.7509 25.824 30.6116 25.9572L30.4816 26.0753L30.7495 25.9213C30.9335 25.8166 31.1675 25.88 31.2733 26.0633C31.379 26.2466 31.3173 26.481 31.1347 26.5878L27.6987 28.5717C27.6405 28.6062 27.5739 28.6245 27.5062 28.6249Z" fill="#0077B6"/>
<path d="M45.7437 12.9709C46.2576 11.7291 45.9851 10.3008 45.0507 9.33501C45.0344 9.32408 45.0179 9.31421 45.0006 9.30575C44.9883 9.29094 44.9865 9.27649 44.9703 9.26239C43.8807 8.27154 42.3132 8.00682 40.9586 8.58491C40.0925 9.0509 39.3252 9.68115 38.6995 10.4401C38.6854 10.4492 38.671 10.457 38.6586 10.4668C38.6463 10.4767 38.6385 10.4792 38.6301 10.4862H38.6237L37.5881 11.5239C37.7361 9.74601 37.9942 7.23804 36.722 6.37198C35.9518 5.84888 34.4425 6.08681 33.5979 6.08681H32.1411C32.1725 3.97011 32.5884 1.94189 30.1252 1.37367C27.9158 0.863266 24.9535 1.37367 22.7028 1.37367C16.1807 1.37367 9.25043 0.680677 2.75933 1.37367C-1.05849 1.77727 0.21118 6.9141 0.21118 9.69983V33.0131C0.21118 35.2017 -0.263976 38.009 0.21118 40.163C0.788558 42.775 3.39451 42.2297 5.60674 42.1648V42.8804C5.60674 44.0309 5.30254 45.6379 6.4076 46.4C7.23454 46.9714 9.00016 46.6851 9.88033 46.6851H27.6634C28.6211 46.6851 30.0935 46.9798 31.0152 46.5942C32.8002 45.8455 34.6004 43.1137 35.9564 41.7577C36.4439 41.2702 36.7774 40.9477 37.0093 40.6618L37.4711 40.1997C37.5768 40.0936 37.4834 40.0358 37.378 40.022C37.5123 39.47 37.5613 38.9008 37.5236 38.334V21.5889L43.321 15.7915L44.2667 16.7373C44.8141 17.2847 44.8356 17.5896 44.389 18.1765C43.3485 19.3612 42.2318 20.4768 41.0464 21.5167C40.5483 22.014 41.6146 22.2566 41.9896 21.8819C43.2769 20.7447 44.4927 19.5286 45.6295 18.241C46.5537 17.0415 45.0951 15.8761 44.0894 14.9998C44.7722 14.4422 45.3348 13.752 45.7437 12.9709ZM1.33703 39.3407C0.958106 37.4841 1.33703 35.1055 1.33703 33.2225V5.97084C1.33703 4.84816 0.914398 2.78504 2.18407 2.1206C3.26198 1.5545 6.17284 2.1206 7.3431 2.1206H27.0941C27.9214 2.00463 28.7607 2.00463 29.5876 2.1206C31.2401 2.70362 31.0508 4.59014 31.0184 6.0854H15.4637C13.3985 6.0854 7.78759 4.9881 6.13724 6.86299C5.41428 7.68394 5.60604 8.78829 5.60604 9.82074V41.4249C3.63632 41.4782 1.79597 41.5927 1.33703 39.3407ZM36.0798 40.6696L33.4379 43.3115C33.2169 43.5078 33.0075 43.6964 32.8316 43.8744C32.63 44.076 32.4277 44.2981 32.2236 44.5258L31.3624 45.3859V41.6368C31.4812 40.4616 32.0554 40.4725 32.9426 40.4725H35.3343C35.624 40.494 35.9148 40.494 36.2046 40.4725C36.1676 40.5388 36.1228 40.604 36.0798 40.6696ZM36.414 40.0189H33.2183C31.8799 40.0189 30.4061 40.3601 30.2475 41.9354V46.1413C28.3226 46.3168 26.2704 46.125 24.3468 46.125C19.4589 46.125 13.8744 46.9199 9.05339 46.125C6.54542 45.7116 6.54225 43.8152 6.65399 41.7401C6.70651 41.6735 6.71144 41.5807 6.66632 41.5088C6.69311 41.0245 6.72167 40.5331 6.72167 40.0513V10.0802C6.72167 9.05548 6.36459 7.29585 7.5056 6.64586C8.26804 6.21159 10.7104 6.64586 11.5243 6.64586H29.342C29.8111 6.64586 30.41 6.59299 31.0491 6.53729C31.1939 6.87004 31.9155 6.76853 32.0963 6.45587C33.0523 6.33849 34.022 6.403 34.9539 6.64586C37.187 7.4654 36.4778 10.734 36.4171 12.6953L26.7494 22.3598C26.6923 22.424 26.6585 22.5054 26.6539 22.5911L24.9528 25.9499C24.8445 26.0123 24.7839 26.1336 24.7987 26.2577L24.5164 26.8153C24.1928 27.4551 23.1357 28.8943 23.2404 29.8629H10.9861C10.494 29.8629 9.83098 30.6084 10.5828 30.6084H23.7585C24.8135 31.1298 26.6701 29.7484 27.4963 29.3303L27.969 29.0913C28.1668 29.0688 28.3497 28.9761 28.4851 28.8305L31.4981 27.3042C31.7036 27.2982 31.8993 27.2133 32.0441 27.067L36.4069 22.7049V34.3762C36.4076 35.9138 36.8884 38.5282 36.414 40.0189ZM24.491 29.6528C24.209 29.0367 24.8643 27.8756 25.4311 26.9507L27.2083 28.7279L25.829 29.4255C25.2763 29.7043 24.7628 30.2528 24.491 29.6528ZM28.2172 28.2168L26 26.0007C26.013 25.976 26.0286 25.9489 26.0402 25.9235C26.4667 25.08 26.8936 24.2368 27.3208 23.3933L30.8221 26.8946L28.2172 28.2168ZM42.2184 15.6051C41.4736 16.2745 40.7654 16.983 40.0961 17.7274L31.6257 26.1977L27.956 22.5276C27.956 22.5177 27.9461 22.5068 27.9429 22.497C27.9376 22.485 27.9316 22.473 27.9253 22.4617C28.0762 22.2703 28.2521 22.0997 28.448 21.9548C29.1925 21.2858 29.901 20.5773 30.57 19.8328L39.0344 11.3703L42.5364 14.8722C42.5251 14.9533 42.5536 15.0351 42.6135 15.0915L42.6904 15.1687C42.5469 15.3284 42.3887 15.4747 42.2184 15.6051ZM43.5276 14.347L39.7742 10.5923C40.0499 10.3082 40.3234 10.0195 40.6167 9.75694C41.5959 8.85245 43.1176 8.89334 44.0464 9.84929C45.0313 10.8528 45.13 12.4274 44.2773 13.5455C44.0457 13.8285 43.7944 14.0954 43.5258 14.3439L43.5276 14.347Z" fill="#0C0B0B"/>
<path d="M10.7377 12.174H32.2984C32.9435 12.174 33.1454 11.3362 32.3922 11.3362H10.8314C10.186 11.3362 9.98119 12.174 10.7377 12.174Z" fill="white"/>
<path d="M11.1453 23.8445C10.9028 23.8445 9.88091 24.3066 10.423 24.3066H21.2036C21.4461 24.3066 22.4673 23.8445 21.9258 23.8445H11.1453Z" fill="white"/>
<path d="M10.5829 27.5298H21.3631C21.8583 27.5298 22.5182 26.7815 21.7667 26.7815H10.9862C10.4913 26.7815 9.83105 27.5298 10.5829 27.5298Z" fill="white"/>
<path d="M11.0068 14.5403C10.6155 14.5403 9.81328 15.1304 10.5619 15.1304H25.1924C25.5833 15.1304 26.3859 14.5403 25.6372 14.5403H11.0068Z" fill="white"/>
<path d="M31.0268 14.5364H28.7165C28.4987 14.5364 28.0898 14.6136 27.9781 14.8339C27.8667 15.0539 28.0729 15.1342 28.2731 15.1342H30.5833C30.8012 15.1342 31.21 15.0571 31.3218 14.8367C31.4332 14.6168 31.227 14.5364 31.0268 14.5364Z" fill="white"/>
<path d="M23.9235 17.5032H10.8331C10.1937 17.5032 9.97897 18.3274 10.7358 18.3274H23.8262C24.4653 18.3274 24.6803 17.5032 23.9235 17.5032Z" fill="white"/>
<path d="M27.7804 17.5305H27.0103C26.7794 17.5305 26.422 17.7092 26.3945 17.9647C26.3606 18.2503 26.6976 18.3003 26.9027 18.3003H27.6726C27.9035 18.3003 28.2609 18.122 28.2887 17.866C28.3226 17.5805 27.9852 17.5305 27.7804 17.5305Z" fill="white"/>
<path d="M23.9222 20.5798H14.6821C14.0398 20.5798 13.8298 21.4113 14.5865 21.4113H23.8271C24.469 21.4113 24.6794 20.5798 23.9222 20.5798Z" fill="white"/>
<path d="M10.7393 21.4183H11.5095C11.7946 21.4219 12.0463 21.2315 12.1207 20.9562C12.1492 20.6612 11.8288 20.5713 11.6 20.5713H10.8302C10.5447 20.5674 10.2934 20.7578 10.2186 21.0331C10.1901 21.3288 10.5105 21.4183 10.7393 21.4183Z" fill="white"/>
</g>
</g>
<defs>
<clipPath id="clip0_17_3088">
<rect width="46" height="46" fill="white" transform="translate(0 0.90625)"/>
</clipPath>
</defs>
</svg>
