<svg width="46" height="47" viewBox="0 0 46 47" fill="none" xmlns="http://www.w3.org/2000/svg">
<g clip-path="url(#clip0_17_3033)">
<path d="M14.5482 46.4998C14.4649 46.4999 14.3838 46.473 14.3172 46.4229C14.2506 46.3729 14.2021 46.3025 14.179 46.2225C14.156 46.1424 14.1596 46.057 14.1895 45.9793C14.2193 45.9015 14.2736 45.8355 14.3442 45.7914L19.74 42.405L12.7365 46.4461C12.6499 46.4924 12.5489 46.5037 12.4542 46.4776C12.3595 46.4516 12.2784 46.3902 12.2277 46.3061C12.1769 46.222 12.1604 46.1217 12.1815 46.0257C12.2025 45.9298 12.2596 45.8457 12.3409 45.7906L20.9935 40.3258L10.3928 46.4461C10.3064 46.4937 10.2049 46.506 10.1095 46.4806C10.0141 46.4552 9.93222 46.394 9.88085 46.3097C9.82947 46.2255 9.81258 46.1246 9.8337 46.0282C9.85482 45.9318 9.91231 45.8472 9.99422 45.7921L23.1341 37.3887L8.12202 46.0559C8.03509 46.1086 7.93077 46.1247 7.83199 46.1006C7.73322 46.0764 7.64808 46.014 7.59532 45.9271C7.54255 45.8401 7.52648 45.7358 7.55063 45.637C7.57479 45.5383 7.63719 45.4531 7.72412 45.4004L22.0255 36.3069L7.22272 44.853C7.13592 44.9026 7.03318 44.9163 6.9364 44.8912C6.83962 44.8662 6.75646 44.8043 6.70466 44.7188C6.65286 44.6333 6.63651 44.5309 6.6591 44.4335C6.68169 44.3361 6.74143 44.2514 6.82558 44.1975L19.8773 35.9336L7.11462 43.3028C7.02776 43.3514 6.92538 43.3644 6.82914 43.3389C6.7329 43.3134 6.65034 43.2515 6.59894 43.1663C6.54754 43.081 6.53133 42.9791 6.55375 42.8821C6.57616 42.7851 6.63543 42.7006 6.71902 42.6465L16.77 36.3146L7.11462 41.8875C7.0278 41.9339 6.92647 41.9451 6.83162 41.9188C6.73677 41.8925 6.65567 41.8307 6.60511 41.7463C6.55456 41.6618 6.53843 41.5611 6.56006 41.4651C6.58169 41.3691 6.63943 41.2851 6.72132 41.2305L11.8395 38.0488L7.11462 40.7766C7.02739 40.8289 6.92297 40.8443 6.82434 40.8196C6.72571 40.7949 6.64094 40.732 6.58868 40.6447C6.53643 40.5575 6.52096 40.4531 6.54569 40.3545C6.57042 40.2558 6.63332 40.1711 6.72055 40.1188L10.596 37.7061L7.11462 39.7171C7.02825 39.7662 6.9262 39.7798 6.82997 39.7551C6.73373 39.7305 6.65084 39.6694 6.59875 39.5848C6.54666 39.5002 6.52945 39.3987 6.55074 39.3017C6.57203 39.2046 6.63016 39.1196 6.71288 39.0646L16.5124 32.6346L7.11462 38.0603C7.02792 38.108 6.92615 38.1203 6.83058 38.0946C6.73502 38.069 6.65307 38.0074 6.60188 37.9228C6.55068 37.8381 6.5342 37.7369 6.55589 37.6404C6.57758 37.5438 6.63576 37.4594 6.71825 37.4048L10.3522 35.1048L7.11462 36.9709C7.02804 37.0201 6.92568 37.0338 6.82922 37.0089C6.73276 36.984 6.64977 36.9226 6.59785 36.8375C6.54592 36.7525 6.52913 36.6506 6.55103 36.5534C6.57293 36.4563 6.63181 36.3714 6.71518 36.3169L11.5666 33.1736L7.11462 35.7465C7.02807 35.7934 6.92679 35.8052 6.83177 35.7795C6.73675 35.7537 6.65527 35.6924 6.60422 35.6083C6.55317 35.5241 6.53645 35.4235 6.55754 35.3274C6.57862 35.2312 6.63589 35.1468 6.71748 35.0918L7.81918 34.3903L7.11462 34.7966C7.02831 34.8466 6.9259 34.8611 6.82914 34.8368C6.73237 34.8126 6.64887 34.7515 6.59637 34.6667C6.54388 34.5819 6.52652 34.4799 6.54799 34.3825C6.56946 34.2851 6.62806 34.1998 6.71135 34.1449L10.4956 31.6395L7.11462 33.5914C7.02892 33.6391 6.92821 33.6521 6.83321 33.6277C6.73822 33.6034 6.65616 33.5436 6.60391 33.4606C6.55167 33.3776 6.53321 33.2778 6.55234 33.1816C6.57147 33.0854 6.62673 33.0002 6.70675 32.9436L10.7202 30.1928L7.11692 32.2743C7.03214 32.3228 6.93201 32.3372 6.837 32.3144C6.74199 32.2916 6.65927 32.2334 6.60573 32.1517C6.55219 32.07 6.53188 31.9709 6.54894 31.8747C6.56601 31.7785 6.61917 31.6924 6.69755 31.6341L10.9832 28.477L7.11462 30.7087C7.03098 30.7562 6.93254 30.7705 6.83884 30.7488C6.74513 30.7271 6.66302 30.671 6.60877 30.5916C6.55453 30.5121 6.53214 30.4152 6.54602 30.32C6.55991 30.2249 6.60907 30.1384 6.68375 30.0778L10.057 27.3837L7.11462 29.0811C7.02995 29.1292 6.93013 29.1433 6.83544 29.1205C6.74075 29.0977 6.65828 29.0398 6.6048 28.9584C6.55132 28.877 6.53082 28.7783 6.54748 28.6823C6.56414 28.5863 6.6167 28.5003 6.69448 28.4417L7.16522 28.0936L7.11462 28.1228C7.03098 28.1703 6.93254 28.1846 6.83884 28.1629C6.74513 28.1412 6.66302 28.085 6.60877 28.0056C6.55453 27.9262 6.53214 27.8292 6.54602 27.7341C6.55991 27.6389 6.60907 27.5524 6.68375 27.4918L7.11002 27.1506C7.02732 27.1962 6.9307 27.2097 6.83867 27.1885C6.74665 27.1673 6.66571 27.1128 6.61136 27.0356C6.55702 26.9583 6.5331 26.8637 6.5442 26.7699C6.55529 26.6762 6.60062 26.5898 6.67148 26.5273L6.92372 26.3073C6.86784 26.3073 6.81264 26.2951 6.76197 26.2716C6.7113 26.2481 6.66639 26.2137 6.63038 26.171C6.59437 26.1283 6.56814 26.0782 6.55352 26.0243C6.53891 25.9703 6.53625 25.9139 6.54575 25.8588L6.77575 24.5072C6.69715 24.4758 6.63167 24.4184 6.59022 24.3446C6.53957 24.2568 6.52581 24.1524 6.55196 24.0544C6.57812 23.9564 6.64205 23.8727 6.72975 23.8218L7.06708 23.627C7.13012 23.5906 7.20221 23.5729 7.27495 23.576C7.34768 23.579 7.41803 23.6027 7.47778 23.6443C7.53754 23.6859 7.58422 23.7436 7.61236 23.8107C7.64051 23.8779 7.64896 23.9516 7.63672 24.0234L7.43662 25.1826L9.76345 23.8386C9.84595 23.7913 9.94308 23.7764 10.0359 23.7967C10.1288 23.817 10.2109 23.8711 10.2661 23.9485C10.3213 24.0259 10.3458 24.1211 10.3348 24.2156C10.3238 24.31 10.2781 24.397 10.2065 24.4596L10.1521 24.5072L11.1242 23.9467C11.2079 23.8992 11.3063 23.8849 11.4 23.9066C11.4937 23.9283 11.5758 23.9845 11.6301 24.0639C11.6843 24.1433 11.7067 24.2403 11.6928 24.3354C11.6789 24.4306 11.6298 24.5171 11.5551 24.5777L11.1288 24.9181L12.61 24.0633C12.6947 24.0151 12.7945 24.001 12.8892 24.0238C12.9839 24.0466 13.0664 24.1046 13.1199 24.186C13.1733 24.2674 13.1938 24.3661 13.1772 24.4621C13.1605 24.558 13.108 24.6441 13.0302 24.7027L12.564 25.0477L14.0698 24.1783C14.1536 24.1285 14.2532 24.1126 14.3483 24.1336C14.4434 24.1547 14.527 24.2112 14.5819 24.2916C14.6369 24.3721 14.6592 24.4705 14.6442 24.5668C14.6293 24.663 14.5782 24.75 14.5014 24.81L11.1281 27.5056L16.5515 24.3745C16.6363 24.326 16.7364 24.3116 16.8314 24.3344C16.9264 24.3572 17.0091 24.4154 17.0627 24.4971C17.1162 24.5788 17.1365 24.6779 17.1195 24.7741C17.1024 24.8703 17.0492 24.9564 16.9708 25.0147L12.6844 28.1726L18.9366 24.5631C19.0223 24.5155 19.123 24.5025 19.218 24.5268C19.313 24.5511 19.395 24.6109 19.4473 24.6939C19.4995 24.7769 19.518 24.8767 19.4989 24.9729C19.4797 25.0691 19.4245 25.1543 19.3444 25.211L15.3371 27.9572L20.9422 24.7211C21.0286 24.6675 21.1328 24.6504 21.2317 24.6737C21.3307 24.6969 21.4164 24.7585 21.47 24.8449C21.5236 24.9313 21.5407 25.0355 21.5174 25.1345C21.4942 25.2334 21.4326 25.3192 21.3462 25.3727L17.5566 27.8828L22.7806 24.8667C22.8672 24.8198 22.9685 24.808 23.0635 24.8338C23.1585 24.8595 23.24 24.9208 23.291 25.005C23.3421 25.0891 23.3588 25.1897 23.3377 25.2859C23.3166 25.382 23.2594 25.4664 23.1778 25.5215L22.0807 26.2207L24.2266 24.9794C24.3133 24.9264 24.4176 24.9099 24.5164 24.9337C24.6152 24.9575 24.7006 25.0196 24.7537 25.1063C24.8067 25.193 24.8232 25.2973 24.7994 25.3961C24.7756 25.495 24.7135 25.5803 24.6268 25.6334L19.7738 28.7767L26.0919 25.1289C26.1784 25.082 26.2797 25.0702 26.3747 25.096C26.4697 25.1217 26.5512 25.183 26.6023 25.2672C26.6533 25.3513 26.67 25.4519 26.649 25.5481C26.6279 25.6442 26.5706 25.7286 26.489 25.7837L22.8542 28.0837L27.7532 25.2593C27.8395 25.211 27.941 25.198 28.0366 25.2228C28.1322 25.2476 28.2146 25.3083 28.2665 25.3924C28.3184 25.4764 28.3359 25.5773 28.3152 25.6739C28.2946 25.7705 28.2375 25.8554 28.1557 25.9109L18.3577 32.3394L30.2794 25.4563C30.3666 25.4039 30.4711 25.3884 30.5698 25.413C30.6685 25.4377 30.7534 25.5006 30.8057 25.5878C30.8581 25.675 30.8736 25.7795 30.849 25.8782C30.8243 25.9769 30.7615 26.0617 30.6742 26.1141L26.7949 28.5291L31.8932 25.5859C31.9803 25.5368 32.0831 25.5237 32.1797 25.5493C32.2763 25.575 32.3591 25.6373 32.4104 25.7231C32.4617 25.8089 32.4775 25.9113 32.4543 26.0086C32.4312 26.1058 32.371 26.1902 32.2865 26.2437L27.1759 29.42L33.586 25.7193C33.6729 25.6706 33.7753 25.6576 33.8715 25.6831C33.9678 25.7086 34.0503 25.7705 34.1017 25.8558C34.1531 25.941 34.1693 26.043 34.1469 26.14C34.1245 26.237 34.0652 26.3215 33.9816 26.3755L23.9337 32.7067L35.7404 25.8895C35.8272 25.8399 35.9299 25.8261 36.0267 25.8512C36.1235 25.8763 36.2066 25.9382 36.2584 26.0237C36.3102 26.1092 36.3266 26.2115 36.304 26.3089C36.2814 26.4063 36.2217 26.491 36.1375 26.545L23.0827 34.8112L37.1641 26.6845C37.2509 26.6349 37.3536 26.6212 37.4504 26.6462C37.5472 26.6713 37.6303 26.7332 37.6821 26.8187C37.7339 26.9042 37.7503 27.0066 37.7277 27.1039C37.7051 27.2013 37.6454 27.286 37.5612 27.34L23.2567 36.4327L37.3519 28.2953C37.4383 28.249 37.5392 28.2376 37.6337 28.2634C37.7283 28.2892 37.8094 28.3502 37.8603 28.434C37.9113 28.5177 37.9282 28.6178 37.9076 28.7136C37.8871 28.8094 37.8306 28.8938 37.7498 28.9492L24.6099 37.3534L37.3519 29.998C37.4388 29.9494 37.5412 29.9364 37.6374 29.9619C37.7336 29.9874 37.8162 30.0493 37.8676 30.1346C37.919 30.2198 37.9352 30.3217 37.9128 30.4187C37.8904 30.5157 37.8311 30.6002 37.7475 30.6543L29.0918 36.1206L37.3519 31.352C37.4387 31.305 37.5402 31.2932 37.6354 31.3192C37.7306 31.3452 37.8121 31.4069 37.863 31.4914C37.9138 31.576 37.9301 31.6769 37.9085 31.7731C37.8868 31.8694 37.8289 31.9536 37.7467 32.0082L32.344 35.3992L37.3519 32.5089C37.4384 32.4613 37.5399 32.4489 37.6353 32.4743C37.7307 32.4997 37.8126 32.5609 37.8639 32.6452C37.9153 32.7295 37.9322 32.8304 37.9111 32.9268C37.89 33.0232 37.8325 33.1077 37.7506 33.1628L30.7041 37.6862L37.3519 33.8482C37.4377 33.8012 37.5382 33.7888 37.6328 33.8134C37.7275 33.8381 37.8091 33.898 37.861 33.9809C37.913 34.0637 37.9312 34.1633 37.9121 34.2593C37.893 34.3552 37.838 34.4402 37.7582 34.4968L29.0995 40.3488L37.3519 35.5847C37.4384 35.5344 37.5412 35.5199 37.6383 35.5444C37.7353 35.5688 37.8189 35.6303 37.8713 35.7156C37.9237 35.8009 37.9406 35.9033 37.9185 36.0009C37.8963 36.0985 37.8369 36.1836 37.7529 36.2379L33.8866 38.7618L37.3534 36.7608C37.4388 36.7129 37.5392 36.6994 37.6342 36.7231C37.7291 36.7468 37.8114 36.806 37.8641 36.8884C37.9169 36.9709 37.9361 37.0704 37.9178 37.1665C37.8995 37.2627 37.8452 37.3482 37.7659 37.4056L31.9109 41.5287L37.3542 38.3854C37.4392 38.3358 37.54 38.3208 37.6358 38.3435C37.7316 38.3662 37.8149 38.4248 37.8686 38.5073C37.9223 38.5898 37.9422 38.6897 37.9243 38.7865C37.9063 38.8833 37.8518 38.9694 37.772 39.0271L33.4373 42.188L37.3519 39.9294C37.4374 39.881 37.5382 39.8671 37.6335 39.8908C37.7288 39.9145 37.8114 39.9739 37.8643 40.0567C37.9171 40.1395 37.9361 40.2395 37.9174 40.3359C37.8986 40.4324 37.8436 40.5179 37.7636 40.575L36.4748 41.4812L37.3519 40.9752C37.4354 40.9287 37.5333 40.9151 37.6263 40.9371C37.7193 40.959 37.8007 41.0149 37.8547 41.0938C37.9086 41.1727 37.9311 41.2689 37.9178 41.3635C37.9045 41.4582 37.8564 41.5444 37.7828 41.6054L35.7005 43.2767L37.3519 42.323C37.4349 42.2748 37.5329 42.2594 37.6266 42.28C37.7203 42.3005 37.8029 42.3555 37.8581 42.4339C37.9133 42.5124 37.937 42.6087 37.9246 42.7039C37.9122 42.799 37.8646 42.8861 37.7912 42.9478L36.9548 43.657L37.3519 43.427C37.4284 43.3832 37.5176 43.3672 37.6045 43.3815C37.6915 43.3958 37.7708 43.4396 37.8292 43.5056C37.8876 43.5716 37.9215 43.6556 37.9252 43.7437C37.9289 43.8317 37.9022 43.9183 37.8495 43.9889L37.2055 44.8453L37.2453 44.8223C37.289 44.7946 37.3378 44.7759 37.3888 44.7676C37.4398 44.7592 37.492 44.7612 37.5422 44.7735C37.5924 44.7858 37.6396 44.8081 37.681 44.8391C37.7223 44.8701 37.757 44.9092 37.7829 44.954C37.8087 44.9987 37.8253 45.0483 37.8315 45.0996C37.8378 45.1509 37.8336 45.203 37.8191 45.2526C37.8047 45.3023 37.7804 45.3485 37.7477 45.3885C37.715 45.4285 37.6745 45.4615 37.6287 45.4855L35.9612 46.4461C35.8847 46.4898 35.7955 46.5059 35.7086 46.4916C35.6216 46.4773 35.5423 46.4334 35.4839 46.3675C35.4255 46.3015 35.3916 46.2174 35.3879 46.1294C35.3842 46.0414 35.4109 45.9548 35.4636 45.8841L36.1068 45.0293L33.6535 46.4461C33.5706 46.4943 33.4727 46.5097 33.3791 46.4893C33.2854 46.4688 33.2028 46.414 33.1475 46.3357C33.0923 46.2573 33.0684 46.1611 33.0806 46.0661C33.0928 45.971 33.1402 45.8839 33.2134 45.822L34.0499 45.1129L31.7399 46.4461C31.6564 46.4925 31.5586 46.5061 31.4655 46.4842C31.3725 46.4622 31.2911 46.4063 31.2372 46.3274C31.1832 46.2486 31.1607 46.1524 31.174 46.0577C31.1873 45.9631 31.2355 45.8769 31.309 45.8159L33.3882 44.1461L29.4016 46.4461C29.3163 46.494 29.2158 46.5075 29.1209 46.4838C29.0259 46.4601 28.9437 46.4009 28.8909 46.3185C28.8382 46.236 28.819 46.1365 28.8372 46.0404C28.8555 45.9442 28.9098 45.8587 28.9891 45.8013L30.2748 44.8974L27.5915 46.4461C27.5065 46.4957 27.4057 46.5107 27.3099 46.488C27.2141 46.4653 27.1308 46.4066 27.0771 46.3242C27.0234 46.2417 27.0035 46.1417 27.0214 46.045C27.0394 45.9482 27.0939 45.8621 27.1736 45.8044L31.5099 42.645L24.9235 46.4461C24.8382 46.494 24.7377 46.5075 24.6428 46.4838C24.5478 46.4601 24.4656 46.4009 24.4128 46.3185C24.3601 46.236 24.3409 46.1365 24.3591 46.0404C24.3774 45.9442 24.4317 45.8587 24.511 45.8013L30.3676 41.6767L22.1044 46.4461C22.0182 46.4936 21.9169 46.5061 21.8217 46.481C21.7264 46.4558 21.6445 46.395 21.5929 46.311C21.5414 46.2271 21.5241 46.1266 21.5447 46.0302C21.5652 45.9339 21.6221 45.8492 21.7035 45.7937L25.5698 43.2713L20.0689 46.4461C19.9831 46.4944 19.882 46.5078 19.7866 46.4835C19.6911 46.4592 19.6087 46.3992 19.5564 46.3158C19.504 46.2324 19.4858 46.132 19.5054 46.0355C19.525 45.939 19.5811 45.8538 19.6618 45.7975L28.319 39.9494L17.0659 46.4461C16.9793 46.4954 16.877 46.509 16.7805 46.4841C16.684 46.4593 16.6011 46.3978 16.5491 46.3128C16.4972 46.2278 16.4804 46.1259 16.5023 46.0287C16.5242 45.9315 16.5831 45.8467 16.6665 45.7921L23.7198 41.2627L14.7398 46.4461C14.6818 46.4806 14.6157 46.4991 14.5482 46.4998Z" fill="#51CB20"/>
<path d="M12.2949 26.5666C12.2137 26.5668 12.1346 26.5412 12.0689 26.4935C12.0032 26.4458 11.9543 26.3785 11.9293 26.3013C11.9043 26.224 11.9045 26.1408 11.9299 26.0637C11.9552 25.9865 12.0044 25.9194 12.0703 25.872L12.2597 25.7363L10.9096 26.513C10.8271 26.5595 10.7303 26.5739 10.6379 26.5534C10.5454 26.5328 10.4638 26.4787 10.4089 26.4016C10.3539 26.3244 10.3295 26.2297 10.3403 26.1356C10.351 26.0415 10.3962 25.9547 10.4672 25.892L12.6905 23.963L8.55058 26.3512C8.46809 26.3985 8.37096 26.4134 8.27806 26.3931C8.18517 26.3728 8.10313 26.3187 8.0479 26.2413C7.99266 26.1639 7.96817 26.0687 7.97918 25.9743C7.99018 25.8798 8.0359 25.7928 8.10745 25.7302L10.1513 23.9561L7.49258 25.4895C7.41103 25.5338 7.31617 25.547 7.22561 25.5267C7.13505 25.5063 7.05494 25.4538 7.00016 25.3789C6.94537 25.304 6.91963 25.2117 6.92771 25.1193C6.93579 25.0268 6.97714 24.9404 7.04408 24.8761L8.27075 23.7706L7.12995 24.4307C7.05231 24.4753 6.9615 24.4913 6.87328 24.476C6.78506 24.4606 6.705 24.4149 6.64699 24.3467C6.58898 24.2784 6.55668 24.1921 6.55569 24.1025C6.5547 24.013 6.58509 23.9259 6.64158 23.8565L7.39368 22.9365C7.30797 22.9407 7.22333 22.916 7.15329 22.8664C7.08326 22.8168 7.0319 22.7452 7.00743 22.6629C6.98295 22.5807 6.98679 22.4926 7.01832 22.4128C7.04984 22.333 7.10724 22.266 7.18132 22.2227L8.75298 21.315C8.83063 21.2704 8.92144 21.2543 9.00966 21.2697C9.09787 21.285 9.17793 21.3308 9.23595 21.399C9.29396 21.4672 9.32626 21.5536 9.32725 21.6431C9.32823 21.7327 9.29784 21.8197 9.24135 21.8892L8.56362 22.7172L11.0207 21.2996C11.1023 21.2553 11.1972 21.2421 11.2877 21.2624C11.3783 21.2828 11.4584 21.3353 11.5132 21.4102C11.568 21.4851 11.5937 21.5774 11.5856 21.6698C11.5775 21.7623 11.5362 21.8487 11.4692 21.913L10.2426 23.02L13.2295 21.2996C13.312 21.2523 13.4091 21.2374 13.502 21.2577C13.5949 21.278 13.677 21.3321 13.7322 21.4095C13.7874 21.4869 13.8119 21.5821 13.8009 21.6766C13.7899 21.771 13.7442 21.858 13.6726 21.9206L11.6295 23.6939L15.7779 21.2996C15.8604 21.2531 15.9572 21.2387 16.0496 21.2592C16.1421 21.2798 16.2237 21.3339 16.2786 21.411C16.3336 21.4882 16.358 21.5829 16.3472 21.677C16.3365 21.7711 16.2912 21.8579 16.2203 21.9206L13.9969 23.8503L18.4152 21.2996C18.5003 21.252 18.6003 21.2385 18.6949 21.2619C18.7895 21.2854 18.8716 21.344 18.9246 21.4258C18.9775 21.5077 18.9973 21.6066 18.9798 21.7025C18.9624 21.7984 18.9091 21.8841 18.8308 21.9421L18.6414 22.0778L19.9915 21.2996C20.0737 21.2535 20.1701 21.2392 20.2621 21.2596C20.3542 21.28 20.4355 21.3336 20.4905 21.4101C20.5456 21.4867 20.5704 21.5809 20.5604 21.6746C20.5504 21.7684 20.5062 21.8551 20.4362 21.9183L18.1592 23.9232L22.7032 21.2996C22.7882 21.25 22.889 21.235 22.9848 21.2577C23.0805 21.2804 23.1639 21.3391 23.2176 21.4216C23.2713 21.504 23.2912 21.604 23.2733 21.7008C23.2553 21.7975 23.2008 21.8837 23.121 21.9413L22.661 22.2764L24.3546 21.2996C24.4379 21.253 24.5355 21.2391 24.6285 21.2607C24.7214 21.2823 24.803 21.3377 24.8572 21.4162C24.9115 21.4947 24.9345 21.5906 24.9218 21.6851C24.9091 21.7797 24.8616 21.8661 24.7885 21.9275L22.8803 23.4877L26.6715 21.2996C26.7541 21.2528 26.8513 21.2383 26.944 21.2589C27.0367 21.2796 27.1185 21.334 27.1734 21.4116C27.2283 21.4891 27.2525 21.5843 27.2412 21.6786C27.2299 21.773 27.184 21.8598 27.1123 21.9222L24.9411 23.7813L29.2413 21.2996C29.3249 21.2524 29.4231 21.2382 29.5166 21.2599C29.6101 21.2815 29.6921 21.3375 29.7463 21.4167C29.8006 21.4959 29.8231 21.5925 29.8095 21.6875C29.7959 21.7825 29.7472 21.869 29.673 21.9298L27.8774 23.375L31.4746 21.2996C31.557 21.2526 31.6538 21.2378 31.7464 21.258C31.839 21.2782 31.9208 21.332 31.9761 21.409C32.0314 21.486 32.0562 21.5808 32.0457 21.675C32.0352 21.7692 31.9902 21.8561 31.9193 21.9191L29.6523 23.9063L34.1695 21.2996C34.2511 21.2522 34.3474 21.2366 34.4399 21.2558C34.5323 21.275 34.6145 21.3276 34.6705 21.4036C34.7265 21.4796 34.7526 21.5736 34.7436 21.6676C34.7346 21.7616 34.6912 21.849 34.6218 21.913L32.2129 24.1424L35.6629 22.1491C35.7468 22.1025 35.8451 22.0891 35.9384 22.1115C36.0317 22.1339 36.1132 22.1904 36.1668 22.2699C36.2204 22.3495 36.2423 22.4462 36.2281 22.5411C36.2139 22.636 36.1646 22.7221 36.09 22.7824L35.6698 23.1113L35.8186 23.0262C35.9003 22.9773 35.9972 22.9605 36.0905 22.9792C36.1839 22.9979 36.2669 23.0506 36.3236 23.1271C36.3802 23.2036 36.4063 23.2984 36.3969 23.3932C36.3874 23.4879 36.3431 23.5757 36.2724 23.6395L35.6591 24.216L35.8232 24.121C35.8899 24.0822 35.9667 24.0644 36.0437 24.07C36.1207 24.0756 36.1941 24.1043 36.2545 24.1524C36.3149 24.2004 36.3594 24.2656 36.3821 24.3393C36.4049 24.413 36.4049 24.4919 36.3821 24.5656L36.0961 25.4979C36.173 25.5123 36.2437 25.5499 36.2987 25.6056C36.3536 25.6613 36.3902 25.7326 36.4035 25.8097C36.4167 25.8868 36.4061 25.9662 36.3729 26.0371C36.3398 26.108 36.2857 26.167 36.218 26.2063L35.676 26.5191C35.6093 26.5575 35.5327 26.575 35.456 26.5693C35.3793 26.5636 35.3061 26.5349 35.2459 26.487C35.1857 26.4391 35.1413 26.3743 35.1185 26.3008C35.0956 26.2274 35.0954 26.1488 35.1178 26.0752L35.3639 25.2717L33.2065 26.513C33.1249 26.5618 33.0279 26.5786 32.9346 26.5599C32.8412 26.5413 32.7582 26.4886 32.7016 26.4121C32.6449 26.3355 32.6188 26.2407 32.6283 26.146C32.6377 26.0513 32.6821 25.9635 32.7527 25.8996L33.366 25.3231L31.3075 26.513C31.2236 26.5604 31.1249 26.5744 31.0311 26.5524C30.9373 26.5303 30.8552 26.4737 30.8013 26.3938C30.7473 26.3139 30.7255 26.2167 30.74 26.1214C30.7545 26.0262 30.8044 25.9398 30.8797 25.8797L31.3029 25.5493L29.6316 26.513C29.5499 26.5597 29.454 26.5748 29.3619 26.5554C29.2699 26.5359 29.1882 26.4833 29.1324 26.4076C29.0766 26.3318 29.0507 26.2382 29.0594 26.1445C29.0682 26.0509 29.1111 25.9637 29.18 25.8996L31.5866 23.6763L26.6653 26.513C26.583 26.56 26.4862 26.5748 26.3936 26.5546C26.301 26.5344 26.2191 26.4806 26.1639 26.4036C26.1086 26.3266 26.0838 26.2319 26.0943 26.1376C26.1048 26.0434 26.1498 25.9565 26.2207 25.8935L28.4885 23.9063L23.9697 26.513C23.8862 26.5611 23.7875 26.5759 23.6935 26.5546C23.5995 26.5332 23.5169 26.4772 23.4624 26.3976C23.4078 26.3181 23.3852 26.221 23.3991 26.1255C23.413 26.0301 23.4624 25.9434 23.5373 25.8828L25.3329 24.443L21.7364 26.513C21.6538 26.5606 21.5563 26.5757 21.4631 26.5553C21.3699 26.5348 21.2877 26.4804 21.2324 26.4026C21.1772 26.3248 21.153 26.2292 21.1646 26.1344C21.1761 26.0397 21.2226 25.9527 21.2948 25.8904L23.4653 24.032L19.1666 26.513C19.0833 26.5596 18.9857 26.5735 18.8927 26.5519C18.7998 26.5303 18.7182 26.4749 18.664 26.3964C18.6097 26.3179 18.5867 26.222 18.5994 26.1275C18.6121 26.0329 18.6596 25.9465 18.7326 25.8851L20.6416 24.3241L16.8497 26.513C16.7647 26.5626 16.6639 26.5776 16.5681 26.5549C16.4724 26.5322 16.389 26.4735 16.3353 26.391C16.2816 26.3086 16.2617 26.2086 16.2797 26.1118C16.2976 26.0151 16.3521 25.9289 16.4319 25.8713L16.8919 25.5378L15.1991 26.513C15.1169 26.5591 15.0205 26.5734 14.9285 26.553C14.8364 26.5326 14.7551 26.479 14.7001 26.4025C14.645 26.3259 14.6202 26.2317 14.6302 26.138C14.6402 26.0442 14.6844 25.9575 14.7544 25.8943L17.0329 23.8887L12.4866 26.513C12.4286 26.5474 12.3624 26.5659 12.2949 26.5666Z" fill="#51CB20"/>
<path d="M34.852 39.5999C34.7724 39.6 34.6947 39.5753 34.6297 39.5292C34.5648 39.4831 34.5158 39.4179 34.4896 39.3427C34.4633 39.2675 34.4612 39.186 34.4834 39.1096C34.5056 39.0331 34.5511 38.9654 34.6136 38.916L34.7454 38.811L33.5188 39.5186C33.4352 39.5667 33.3366 39.5816 33.2425 39.5602C33.1485 39.5388 33.066 39.4828 33.0114 39.4033C32.9569 39.3238 32.9343 39.2266 32.9482 39.1312C32.9621 39.0357 33.0114 38.9491 33.0864 38.8884L34.931 37.4064L32.1809 38.995C32.0965 39.0441 31.9965 39.0591 31.9014 39.037C31.8063 39.0149 31.7232 38.9573 31.6691 38.876C31.6149 38.7947 31.5939 38.6958 31.6102 38.5995C31.6266 38.5032 31.6791 38.4168 31.757 38.3579L33.5786 36.9779L31.4173 38.2252C31.3329 38.2726 31.2336 38.2863 31.1395 38.2635C31.0454 38.2407 30.9634 38.1831 30.91 38.1023C30.8565 38.0216 30.8357 37.9235 30.8516 37.828C30.8675 37.7325 30.919 37.6465 30.9957 37.5874L32.2768 36.6252L31.0087 37.3566C30.927 37.4055 30.8301 37.4222 30.7367 37.4036C30.6434 37.3849 30.5603 37.3322 30.5037 37.2557C30.4471 37.1792 30.421 37.0843 30.4304 36.9896C30.4399 36.8949 30.4842 36.8071 30.5548 36.7433L32.2936 35.0995L30.9497 35.8746C30.8686 35.9235 30.7723 35.9406 30.6793 35.9226C30.5864 35.9047 30.5034 35.853 30.4463 35.7775C30.3891 35.702 30.362 35.6081 30.37 35.5138C30.378 35.4195 30.4206 35.3314 30.4897 35.2667L31.2157 34.5682C31.1513 34.5345 31.0981 34.4828 31.0624 34.4195C31.0115 34.3316 30.9976 34.227 31.0237 34.1288C31.0499 34.0306 31.114 33.9468 31.2019 33.8959L33.0235 32.844C33.1046 32.7952 33.2009 32.7781 33.2938 32.796C33.3868 32.8139 33.4698 32.8656 33.5269 32.9411C33.584 33.0166 33.6112 33.1106 33.6032 33.2049C33.5952 33.2992 33.5525 33.3872 33.4835 33.452L33.2857 33.6421L34.7531 32.7988C34.8348 32.7491 34.9321 32.7317 35.0259 32.7501C35.1197 32.7685 35.2033 32.8212 35.2602 32.898C35.3172 32.9748 35.3433 33.0701 35.3336 33.1652C35.3239 33.2603 35.279 33.3484 35.2077 33.4121L33.4643 35.0566L37.3682 32.7995C37.4527 32.7511 37.5524 32.7367 37.6472 32.7592C37.742 32.7816 37.8246 32.8393 37.8784 32.9205C37.9321 33.0017 37.953 33.1003 37.9367 33.1963C37.9204 33.2923 37.8682 33.3785 37.7906 33.4374L36.5134 34.3973L38.4676 33.2695C38.552 33.2208 38.6517 33.2061 38.7466 33.2283C38.8414 33.2505 38.9242 33.308 38.9782 33.3891C39.0323 33.4702 39.0534 33.5689 39.0373 33.665C39.0212 33.7611 38.9691 33.8475 38.8916 33.9066L37.0707 35.2866L38.8801 34.2416C38.9637 34.1932 39.0626 34.1782 39.1569 34.1996C39.2511 34.221 39.3338 34.2773 39.3884 34.357C39.443 34.4368 39.4654 34.5342 39.4512 34.6299C39.4369 34.7255 39.3871 34.8122 39.3117 34.8726L37.4663 36.3546L38.8854 35.5365C38.9691 35.4896 39.0674 35.4758 39.1608 35.4979C39.2542 35.5199 39.3359 35.5761 39.3898 35.6555C39.4438 35.7349 39.466 35.8316 39.4521 35.9265C39.4382 36.0214 39.3892 36.1077 39.3148 36.1683L39.0265 36.3983C39.1015 36.3887 39.1777 36.4016 39.2454 36.4353C39.3132 36.4689 39.3694 36.5219 39.4071 36.5875C39.4448 36.653 39.4623 36.7283 39.4573 36.8038C39.4523 36.8792 39.4252 36.9516 39.3792 37.0116L38.6892 37.9009L38.818 37.8243C38.8616 37.7965 38.9104 37.7779 38.9614 37.7695C39.0124 37.7611 39.0646 37.7631 39.1148 37.7754C39.165 37.7877 39.2122 37.8101 39.2536 37.8411C39.295 37.8721 39.3296 37.9112 39.3555 37.9559C39.3814 38.0007 39.3979 38.0502 39.4042 38.1015C39.4104 38.1529 39.4062 38.2049 39.3918 38.2546C39.3774 38.3042 39.3531 38.3505 39.3203 38.3905C39.2876 38.4305 39.2471 38.4635 39.2013 38.4874L37.3674 39.5462C37.2905 39.5904 37.2005 39.6065 37.113 39.5917C37.0255 39.577 36.9458 39.5323 36.8875 39.4653C36.8293 39.3984 36.796 39.3133 36.7935 39.2246C36.791 39.1359 36.8193 39.049 36.8737 38.9789L37.5668 38.0895L35.0444 39.5462C34.9863 39.581 34.9198 39.5996 34.852 39.5999Z" fill="#51CB20"/>
<path d="M16.0013 16.5019C15.918 16.5021 15.8369 16.4751 15.7703 16.4251C15.7037 16.3751 15.6552 16.3047 15.6322 16.2246C15.6091 16.1446 15.6128 16.0592 15.6426 15.9814C15.6724 15.9036 15.7267 15.8377 15.7974 15.7935L16.4391 15.391L15.434 15.9706C15.3475 16.0182 15.246 16.0306 15.1506 16.0052C15.0552 15.9798 14.9733 15.9185 14.9219 15.8343C14.8705 15.75 14.8537 15.6491 14.8748 15.5527C14.8959 15.4563 14.9534 15.3717 15.0353 15.3167L18.8042 12.904L14.2932 15.5106C14.2061 15.5633 14.1018 15.5792 14.003 15.5549C13.9042 15.5306 13.8191 15.4681 13.7665 15.3811C13.7138 15.294 13.6979 15.1896 13.7222 15.0909C13.7465 14.9921 13.809 14.907 13.896 14.8544L16.1477 13.4291L13.0719 15.2032C12.9857 15.2522 12.8839 15.2659 12.7878 15.2415C12.6918 15.2171 12.6089 15.1564 12.5566 15.0722C12.5044 14.9879 12.4867 14.8867 12.5075 14.7898C12.5282 14.6929 12.5857 14.6078 12.6678 14.5523L20.1674 9.57966L10.7374 15.023C10.6511 15.0731 10.5486 15.0875 10.4519 15.0632C10.3551 15.039 10.2716 14.9779 10.2191 14.8931C10.1666 14.8083 10.1493 14.7063 10.1707 14.6089C10.1922 14.5115 10.2508 14.4263 10.3341 14.3714L18.1541 9.20476L6.06524 16.1815C5.97791 16.2336 5.87344 16.2489 5.77481 16.2241C5.67618 16.1992 5.59146 16.1362 5.53931 16.0488C5.48715 15.9615 5.47183 15.857 5.4967 15.7584C5.52157 15.6598 5.58461 15.575 5.67194 15.5229L5.94794 15.3535L5.57994 15.5651C5.49342 15.6154 5.39066 15.6299 5.2936 15.6054C5.19655 15.581 5.11291 15.5195 5.06055 15.4342C5.00819 15.3489 4.99126 15.2465 5.01339 15.1489C5.03552 15.0513 5.09495 14.9662 5.17898 14.9119L13.9129 9.21089L5.72101 13.9451C5.63397 13.9953 5.53072 14.0093 5.43345 13.9841C5.33619 13.9589 5.2527 13.8966 5.20095 13.8105C5.14921 13.7243 5.13333 13.6214 5.15675 13.5237C5.18017 13.426 5.24101 13.3414 5.32618 13.2881L5.81608 12.9814C5.7383 12.9973 5.65752 12.989 5.5846 12.9576C5.51169 12.9262 5.45013 12.8732 5.40821 12.8058C5.35621 12.7206 5.33953 12.6184 5.36172 12.521C5.38392 12.4237 5.44323 12.3388 5.52704 12.2845L9.63331 9.62873L6.41408 11.4864C6.32887 11.5338 6.22877 11.547 6.13418 11.5233C6.03958 11.4995 5.9576 11.4406 5.90493 11.3585C5.85225 11.2764 5.83285 11.1774 5.85067 11.0815C5.86849 10.9856 5.9222 10.9 6.00084 10.8424L12.1902 6.45166L7.84084 8.96326C7.75624 9.01209 7.65619 9.02677 7.56113 9.00432C7.46607 8.98187 7.38316 8.92398 7.32934 8.84247C7.27552 8.76095 7.25484 8.66197 7.27154 8.56573C7.28824 8.46949 7.34104 8.38325 7.41918 8.32463L10.2398 6.21629C10.1916 6.20342 10.1464 6.18105 10.1069 6.15051C10.0674 6.11997 10.0344 6.08187 10.0098 6.03843C9.95909 5.95055 9.94533 5.84617 9.97149 5.74817C9.99764 5.65016 10.0616 5.56652 10.1493 5.51556L14.6727 2.90889C14.7573 2.86007 14.8573 2.84538 14.9524 2.86783C15.0474 2.89028 15.1303 2.94817 15.1842 3.02969C15.238 3.1112 15.2587 3.21019 15.242 3.30643C15.2253 3.40267 15.1725 3.48891 15.0943 3.54753L13.0527 5.06706L18.8732 1.70676C18.9584 1.6593 19.0585 1.64611 19.1531 1.66987C19.2477 1.69363 19.3297 1.75255 19.3824 1.83464C19.435 1.91672 19.4544 2.0158 19.4366 2.11169C19.4188 2.20759 19.3651 2.29308 19.2865 2.35076L13.1002 6.74376L22.403 1.3771C22.4895 1.32781 22.5919 1.31417 22.6884 1.33906C22.7848 1.36395 22.8678 1.42541 22.9197 1.51043C22.9717 1.59544 22.9884 1.69734 22.9665 1.79452C22.9446 1.8917 22.8858 1.97654 22.8024 2.03106L18.6961 4.68296L24.3457 1.42156C24.4325 1.37457 24.534 1.36283 24.6292 1.3888C24.7244 1.41478 24.8059 1.47645 24.8567 1.561C24.9076 1.64555 24.9239 1.74645 24.9023 1.84272C24.8806 1.93898 24.8227 2.0232 24.7405 2.07783L24.7206 2.09086L25.6651 1.54576C25.7517 1.49249 25.856 1.47581 25.9549 1.49939C26.0538 1.52297 26.1393 1.58488 26.1926 1.6715C26.2459 1.75812 26.2626 1.86235 26.239 1.96127C26.2154 2.06019 26.1535 2.14569 26.0669 2.19896L17.3269 7.90219L27.7213 1.90303C27.8084 1.85397 27.9112 1.84086 28.0078 1.8665C28.1044 1.89215 28.1872 1.95451 28.2385 2.04029C28.2898 2.12608 28.3055 2.22851 28.2824 2.32575C28.2593 2.42298 28.1991 2.50734 28.1146 2.56083L27.844 2.72796L28.8039 2.17366C28.8902 2.12362 28.9926 2.1092 29.0893 2.13346C29.1861 2.15771 29.2696 2.21874 29.3221 2.30357C29.3746 2.3884 29.392 2.49036 29.3705 2.58778C29.349 2.6852 29.2904 2.77042 29.2071 2.82533L21.3902 7.98653L30.4997 2.72719C30.5425 2.70067 30.5901 2.68282 30.6398 2.67469C30.6895 2.66655 30.7403 2.66828 30.7893 2.67978C30.8383 2.69128 30.8846 2.71232 30.9255 2.7417C30.9664 2.77108 31.001 2.80822 31.0276 2.85101C31.0541 2.8938 31.0719 2.9414 31.0801 2.99108C31.0882 3.04076 31.0865 3.09156 31.075 3.14058C31.0635 3.18959 31.0425 3.23587 31.0131 3.27675C30.9837 3.31763 30.9465 3.35233 30.9038 3.37886L23.4027 8.35376L32.0246 3.37656C32.1113 3.32888 32.2131 3.31658 32.3087 3.34221C32.4042 3.36785 32.4862 3.42944 32.5374 3.51411C32.5886 3.59877 32.605 3.69995 32.5834 3.79649C32.5617 3.89302 32.5035 3.97743 32.421 4.03206L30.1685 5.45883L32.9561 3.84883C33.0426 3.80126 33.1441 3.78889 33.2395 3.81429C33.3349 3.83969 33.4168 3.9009 33.4682 3.98518C33.5195 4.06946 33.5364 4.17031 33.5153 4.26673C33.4942 4.36315 33.4367 4.44771 33.3548 4.50279L29.5843 6.91626L33.9198 4.41309C34.007 4.36063 34.1114 4.34494 34.2101 4.36945C34.3088 4.39396 34.3937 4.45668 34.4461 4.54381C34.4986 4.63094 34.5143 4.73534 34.4898 4.83404C34.4653 4.93275 34.4026 5.01767 34.3154 5.07013L33.676 5.47109L34.6581 4.90453C34.7446 4.85624 34.8463 4.84326 34.9421 4.86831C35.0379 4.89336 35.1202 4.95449 35.172 5.03891C35.2237 5.12332 35.2407 5.22448 35.2196 5.32119C35.1984 5.4179 35.1406 5.50266 35.0583 5.55773L32.7292 7.06346L35.4447 5.49563C35.5312 5.44384 35.6346 5.4282 35.7325 5.45208C35.8304 5.47596 35.915 5.53745 35.9679 5.62323C36.0208 5.70901 36.0378 5.81218 36.0153 5.91041C35.9927 6.00864 35.9323 6.09401 35.8472 6.14806L33.5595 7.64843L36.1915 6.12966C36.2775 6.08214 36.3786 6.06951 36.4737 6.0944C36.5689 6.11928 36.6508 6.17977 36.7026 6.26336C36.7544 6.34695 36.7721 6.44725 36.752 6.54351C36.7319 6.63977 36.6756 6.72464 36.5947 6.78056L34.5454 8.13833L36.8769 6.79129C36.962 6.74318 37.0623 6.72942 37.1573 6.75284C37.2522 6.77626 37.3346 6.83509 37.3876 6.91728C37.4406 6.99948 37.4602 7.09882 37.4424 7.19497C37.4245 7.29113 37.3706 7.37683 37.2916 7.43453L32.7215 10.7051L37.77 7.79179C37.8563 7.74176 37.9587 7.72733 38.0555 7.75159C38.1523 7.77584 38.2358 7.83687 38.2883 7.9217C38.3408 8.00653 38.3581 8.10849 38.3367 8.20591C38.3152 8.30334 38.2566 8.38855 38.1733 8.44346L37.6443 8.79459L38.2576 8.43963C38.3433 8.38976 38.445 8.37504 38.5413 8.39855C38.6376 8.42206 38.7211 8.48197 38.7742 8.56572C38.8273 8.64946 38.8458 8.75051 38.826 8.84765C38.8062 8.9448 38.7495 9.03047 38.6678 9.08669L36.2781 10.745L38.8081 9.28833C38.891 9.24094 38.9887 9.22622 39.0819 9.24705C39.1751 9.26788 39.2572 9.32276 39.312 9.40094C39.3669 9.47912 39.3906 9.57497 39.3785 9.66972C39.3664 9.76447 39.3194 9.85128 39.2466 9.91316L36.2076 12.4739L39.4789 10.5848C39.5605 10.5393 39.6559 10.5252 39.7472 10.5451C39.8385 10.565 39.9193 10.6175 39.9746 10.6928C40.0299 10.7681 40.0557 10.8611 40.0473 10.9541C40.0389 11.0472 39.9967 11.1339 39.929 11.1981L38.3956 12.5935L39.9106 11.7164C39.9875 11.6727 40.0773 11.6569 40.1645 11.6718C40.2518 11.6868 40.3312 11.7314 40.3893 11.7983C40.4474 11.8651 40.4804 11.95 40.4831 12.0384C40.4857 12.1269 40.4576 12.2136 40.4035 12.2837L39.3049 13.6906L40.2563 13.1409C40.3311 13.0979 40.4181 13.0814 40.5034 13.094C40.5886 13.1067 40.6672 13.1477 40.7263 13.2104C40.7854 13.2731 40.8216 13.354 40.8291 13.4398C40.8367 13.5257 40.815 13.6116 40.7677 13.6837L40.3353 14.3384L40.3936 14.3054C40.4816 14.2554 40.5858 14.2422 40.6835 14.2687C40.7812 14.2952 40.8644 14.3593 40.915 14.447C40.9655 14.5347 40.9795 14.6388 40.9536 14.7366C40.9278 14.8345 40.8642 14.9182 40.7769 14.9694L39.3149 15.8127C39.2401 15.8559 39.1529 15.8726 39.0675 15.8601C38.9821 15.8475 38.9034 15.8065 38.8441 15.7437C38.7849 15.6809 38.7486 15.6 38.7411 15.514C38.7336 15.428 38.7553 15.342 38.8027 15.2699L39.2359 14.6144L37.9778 15.3404C37.9008 15.3842 37.8111 15.3999 37.7238 15.385C37.6365 15.3701 37.5571 15.3254 37.4991 15.2586C37.441 15.1917 37.4078 15.1069 37.4052 15.0184C37.4027 14.9299 37.4308 14.8432 37.4848 14.7731L38.5842 13.3655L35.7138 15.0223C35.6322 15.0677 35.5368 15.0819 35.4456 15.062C35.3543 15.0421 35.2734 14.9895 35.2181 14.9142C35.1629 14.8389 35.137 14.746 35.1454 14.6529C35.1538 14.5599 35.1959 14.4731 35.2638 14.4089L36.7933 13.0197L32.8373 15.3029C32.7544 15.3502 32.6567 15.365 32.5635 15.3441C32.4703 15.3233 32.3882 15.2684 32.3333 15.1902C32.2785 15.1121 32.2548 15.0162 32.2669 14.9215C32.279 14.8267 32.326 14.7399 32.3988 14.678L35.4386 12.1174L28.6735 16.0197C28.5878 16.0696 28.4861 16.0843 28.3898 16.0608C28.2935 16.0373 28.21 15.9773 28.157 15.8936C28.1039 15.8099 28.0853 15.7088 28.1051 15.6117C28.125 15.5145 28.1817 15.4288 28.2634 15.3726L30.6561 13.7097L27.4285 15.5727C27.3422 15.6228 27.2397 15.6372 27.143 15.6129C27.0462 15.5887 26.9627 15.5276 26.9102 15.4428C26.8577 15.358 26.8404 15.256 26.8618 15.1586C26.8833 15.0612 26.9419 14.976 27.0252 14.9211L27.5527 14.5707L26.2869 15.3013C26.2017 15.3494 26.1014 15.3632 26.0065 15.3398C25.9115 15.3164 25.8291 15.2575 25.7761 15.1753C25.7231 15.0931 25.7035 14.9938 25.7214 14.8976C25.7392 14.8015 25.7932 14.7158 25.8721 14.6581L30.4445 11.3883L24.1188 15.0391C24.0327 15.0866 23.9316 15.0993 23.8365 15.0744C23.7414 15.0495 23.6594 14.989 23.6076 14.9054C23.5558 14.8218 23.5382 14.7215 23.5582 14.6253C23.5783 14.529 23.6346 14.4441 23.7155 14.3882L25.7602 13.0381L22.2903 15.0414C22.2039 15.0905 22.1018 15.1042 22.0056 15.0795C21.9094 15.0548 21.8265 14.9938 21.7744 14.9092C21.7223 14.8246 21.7051 14.7231 21.7264 14.626C21.7477 14.529 21.8058 14.444 21.8885 14.389L24.1793 12.8863L19.9236 15.3397C19.8372 15.3865 19.7362 15.3985 19.6413 15.373C19.5464 15.3475 19.4649 15.2866 19.4137 15.2027C19.3624 15.1189 19.3453 15.0186 19.3658 14.9225C19.3864 14.8265 19.4431 14.742 19.5241 14.6865L21.8502 13.1838L16.1914 16.4498C16.1337 16.4834 16.0681 16.5014 16.0013 16.5019Z" fill="#0077B6"/>
<path d="M29.4668 16.573C29.4085 16.5732 29.3508 16.56 29.2983 16.5344C29.2458 16.5089 29.1999 16.4717 29.1639 16.4257C29.128 16.3797 29.103 16.3261 29.0909 16.269C29.0789 16.2119 29.08 16.1528 29.0942 16.0962L29.2706 15.397L28.3966 15.9022C28.3209 15.9456 28.2328 15.9619 28.1466 15.9484C28.0605 15.9349 27.9815 15.8925 27.9227 15.8281C27.8639 15.7637 27.8289 15.6812 27.8233 15.5941C27.8177 15.5071 27.842 15.4208 27.8921 15.3494L28.4794 14.5168L26.8878 15.4368C26.8076 15.4825 26.7137 15.4978 26.6232 15.4798C26.5327 15.4618 26.4517 15.4117 26.3951 15.3389C26.3385 15.266 26.3102 15.1751 26.3152 15.083C26.3202 14.9909 26.3583 14.9036 26.4224 14.8373L27.4566 13.7778L25.1137 15.1309C25.032 15.1806 24.9347 15.198 24.8409 15.1796C24.7471 15.1612 24.6635 15.1085 24.6066 15.0317C24.5496 14.9549 24.5235 14.8596 24.5332 14.7645C24.5429 14.6694 24.5878 14.5813 24.6591 14.5176L26.772 12.5304L22.438 15.0328C22.3531 15.0818 22.2527 15.0965 22.1573 15.0737C22.062 15.051 21.9789 14.9926 21.9253 14.9105C21.8717 14.8284 21.8516 14.7289 21.8691 14.6324C21.8866 14.536 21.9404 14.4499 22.0194 14.3919L23.3481 13.4174L20.0706 15.3096C19.9851 15.3595 19.8836 15.3744 19.7873 15.3512C19.691 15.328 19.6075 15.2684 19.5542 15.185C19.5009 15.1015 19.4819 15.0007 19.5013 14.9036C19.5207 14.8065 19.5769 14.7206 19.6581 14.664L21.8155 13.1445L16.3147 16.32C16.2285 16.3669 16.1277 16.379 16.0329 16.3538C15.9381 16.3286 15.8566 16.268 15.8051 16.1845C15.7537 16.101 15.7362 16.001 15.7562 15.9049C15.7763 15.8089 15.8324 15.7243 15.9129 15.6684L17.3052 14.7545L16.3208 15.3226C16.2355 15.3712 16.1349 15.3853 16.0395 15.3619C15.9442 15.3385 15.8615 15.2795 15.8084 15.1969C15.7553 15.1144 15.7359 15.0146 15.7543 14.9181C15.7726 14.8217 15.8272 14.736 15.9068 14.6786L21.4812 10.7011L16.3913 13.639C16.3054 13.6859 16.2047 13.6982 16.11 13.6732C16.0153 13.6483 15.9337 13.5881 15.8821 13.5049C15.8304 13.4217 15.8125 13.3219 15.832 13.2259C15.8516 13.13 15.9072 13.0452 15.9873 12.9889L17.7307 11.8251L16.4964 12.5381C16.4112 12.5862 16.3109 12.5999 16.216 12.5765C16.121 12.5531 16.0386 12.4943 15.9856 12.4121C15.9326 12.3299 15.913 12.2305 15.9309 12.1344C15.9487 12.0382 16.0026 11.9525 16.0816 11.8948L20.595 8.65722L16.7524 10.8729C16.6678 10.9217 16.5678 10.9364 16.4727 10.9139C16.3777 10.8915 16.2947 10.8336 16.2409 10.7521C16.1871 10.6706 16.1664 10.5716 16.1831 10.4753C16.1998 10.3791 16.2526 10.2929 16.3308 10.2342L20.8894 6.81492L17.2048 8.94165C17.1197 8.99048 17.0191 9.00483 16.9238 8.98176C16.8285 8.95869 16.7456 8.89995 16.6923 8.81763C16.6389 8.73531 16.6192 8.63568 16.6371 8.53924C16.655 8.4428 16.7091 8.35688 16.7885 8.29918L19.146 6.59335L17.71 7.42288C17.6246 7.47212 17.5236 7.48657 17.4278 7.46325C17.3321 7.43993 17.249 7.38062 17.1958 7.29765C17.1426 7.21467 17.1234 7.1144 17.1422 7.01766C17.161 6.92091 17.2164 6.83513 17.2968 6.77812L18.0489 6.24682C17.9734 6.24546 17.9 6.22186 17.838 6.17898C17.7759 6.1361 17.7278 6.07585 17.6998 6.00577C17.6718 5.93569 17.6651 5.85891 17.6806 5.78505C17.696 5.71119 17.7329 5.64353 17.7867 5.59055L19.9448 3.49218C19.8611 3.49053 19.7802 3.46151 19.7145 3.40954C19.6489 3.35758 19.602 3.28553 19.5811 3.20442C19.5603 3.12331 19.5665 3.0376 19.599 2.9604C19.6314 2.88319 19.6883 2.81873 19.7608 2.77688L22.0608 1.44595C22.1417 1.39865 22.2372 1.38264 22.3291 1.40093C22.421 1.41922 22.5031 1.47055 22.5597 1.54522C22.6163 1.6199 22.6437 1.71273 22.6365 1.80618C22.6293 1.89963 22.5882 1.98722 22.5208 2.05238L20.5237 3.99588L24.4222 1.74495C24.5076 1.69405 24.6095 1.67834 24.7063 1.70114C24.8031 1.72394 24.8872 1.78347 24.9409 1.86715C24.9947 1.95083 25.0138 2.05211 24.9942 2.14962C24.9747 2.24713 24.918 2.33322 24.8362 2.38972L24.5525 2.58905L25.2003 2.21568C25.2854 2.16686 25.386 2.15251 25.4813 2.17558C25.5766 2.19865 25.6595 2.25739 25.7128 2.3397C25.7662 2.42202 25.7859 2.52165 25.768 2.6181C25.7501 2.71454 25.696 2.80045 25.6166 2.85815L23.2607 4.56398L26.0352 2.96242C26.1198 2.91359 26.2199 2.89891 26.3149 2.92136C26.41 2.94381 26.4929 3.0017 26.5467 3.08321C26.6006 3.16473 26.6212 3.26371 26.6045 3.35995C26.5878 3.45619 26.535 3.54243 26.4569 3.60105L21.8968 7.02115L26.9437 4.10782C27.0289 4.0597 27.1292 4.04594 27.2241 4.06937C27.3191 4.09279 27.4015 4.15162 27.4545 4.23381C27.5075 4.316 27.5271 4.41534 27.5092 4.5115C27.4914 4.60765 27.4375 4.69335 27.3585 4.75105L22.8467 7.98792L27.6092 5.23865C27.6954 5.18964 27.7972 5.17591 27.8932 5.20035C27.9893 5.22478 28.0721 5.28547 28.1244 5.36969C28.1767 5.4539 28.1943 5.5551 28.1736 5.65202C28.1529 5.74895 28.0954 5.83409 28.0132 5.88955L26.2729 7.05105L27.9994 6.05438C28.0847 6.00575 28.1854 5.99167 28.2807 6.01506C28.376 6.03844 28.4587 6.0975 28.5118 6.18006C28.5649 6.26263 28.5843 6.36241 28.566 6.45884C28.5477 6.55528 28.4931 6.64101 28.4134 6.69838L22.8398 10.6751L28.52 7.39528C28.6062 7.34706 28.7077 7.33398 28.8034 7.35878C28.899 7.38359 28.9814 7.44435 29.0333 7.5284C29.0852 7.61245 29.1026 7.71331 29.082 7.80992C29.0614 7.90653 29.0042 7.99145 28.9225 8.04695L27.5272 8.96695L28.783 8.24168C28.8685 8.19174 28.97 8.17682 29.0662 8.20005C29.1625 8.22328 29.246 8.28285 29.2993 8.36629C29.3527 8.44973 29.3716 8.55056 29.3522 8.64767C29.3329 8.74477 29.2767 8.83062 29.1954 8.88722L27.038 10.4083L29.0452 9.24908C29.1301 9.20004 29.2305 9.18539 29.3259 9.20814C29.4212 9.23089 29.5043 9.28931 29.5579 9.3714C29.6115 9.45348 29.6316 9.55298 29.6141 9.64945C29.5966 9.74591 29.5428 9.832 29.4638 9.89002L28.1367 10.8568L29.2468 10.2166C29.3285 10.1669 29.4258 10.1496 29.5196 10.1679C29.6134 10.1863 29.697 10.2391 29.7539 10.3159C29.8109 10.3927 29.837 10.488 29.8273 10.5831C29.8176 10.6782 29.7727 10.7662 29.7014 10.8299L27.587 12.8187L29.4868 11.7223C29.567 11.676 29.6613 11.6604 29.7522 11.6783C29.8431 11.6961 29.9245 11.7463 29.9812 11.8195C30.038 11.8928 30.0663 11.984 30.061 12.0765C30.0556 12.169 30.017 12.2564 29.9521 12.3226L28.9187 13.3814L29.6087 12.9827C29.6843 12.9393 29.7725 12.923 29.8586 12.9365C29.9448 12.95 30.0238 12.9924 30.0825 13.0568C30.1413 13.1213 30.1764 13.2038 30.1819 13.2908C30.1875 13.3778 30.1632 13.4641 30.1131 13.5355L29.5259 14.3681L29.6715 14.2838C29.7368 14.2461 29.8116 14.2285 29.8868 14.2331C29.962 14.2377 30.0342 14.2644 30.0943 14.3098C30.1544 14.3552 30.1998 14.4173 30.2249 14.4883C30.2499 14.5594 30.2534 14.6362 30.235 14.7093L30.0142 15.5856C30.0826 15.6101 30.1426 15.6536 30.1872 15.711C30.2318 15.7683 30.2592 15.8371 30.2662 15.9094C30.2732 15.9817 30.2595 16.0545 30.2267 16.1194C30.1939 16.1842 30.1433 16.2384 30.0809 16.2756L29.6585 16.5201C29.6004 16.5543 29.5343 16.5726 29.4668 16.573Z" fill="#0077B6"/>
<path d="M29.5511 16.4534C29.6487 16.5256 29.7695 16.5593 29.8904 16.5481C30.0112 16.5369 30.1238 16.4817 30.2066 16.3929C30.2785 16.376 30.3515 16.3637 30.4251 16.3561C32.4934 15.132 34.9513 14.7445 37.2959 15.2728C38.8921 15.6285 40.2024 17.0361 41.084 15.3088C41.8361 13.8322 39.8367 10.0863 39.0907 8.9547C31.7706 -1.47043 12.9566 -1.2734 6.3372 9.80953C5.67863 11.0308 4.23883 14.0308 4.9135 15.2935C5.84807 17.0415 7.2135 15.6201 8.78977 15.2735C11.1495 14.8902 13.573 14.9922 15.6322 16.3377C15.6545 16.3432 15.6761 16.3512 15.6966 16.3614C15.7871 16.6167 16.1505 16.5968 16.3675 16.4258C18.4375 16.3185 20.3311 15.2444 22.5476 15.0895V21.1462H9.21297C8.54573 21.1636 7.90986 21.4331 7.43344 21.9006C6.95701 22.3681 6.67543 22.9987 6.6454 23.6655C6.07577 29.358 6.63697 35.5013 6.4453 41.341C6.4453 43.0951 6.06657 45.3537 8.0231 46.2523C9.37167 46.8709 11.5122 46.4876 12.9106 46.4876H33.4611C39.0002 47.354 38.3754 43.7775 38.0296 39.5033C40.013 39.0433 39.6304 36.6168 39.5515 35.0957C39.54 34.0224 39.2019 33.0257 38.0181 32.7957C37.6831 30.7472 39.0838 26.4968 36.3821 25.8888C36.4304 23.8955 36.8329 21.7158 34.4823 21.1454C30.9518 20.5819 27.0226 21.3862 23.4515 21.1454V15.0895C25.6196 15.226 27.5539 16.4128 29.5511 16.4534ZM9.1869 22.0662H22.5476V25.7462H9.21297C8.76571 25.7509 8.33172 25.5944 7.99034 25.3054C7.64896 25.0164 7.42301 24.6141 7.3538 24.1722C7.31066 23.9091 7.32607 23.6397 7.39895 23.3833C7.47182 23.1268 7.60036 22.8896 7.77542 22.6884C7.95047 22.4873 8.16772 22.3273 8.41169 22.2197C8.65566 22.1122 8.92035 22.0598 9.1869 22.0662ZM38.6476 34.7752C38.8776 35.972 38.9581 38.5005 37.4654 38.8861C35.0925 39.2365 30.6942 39.1682 31.1519 35.6906C31.4087 34.0622 32.7473 33.501 34.1871 33.4596C35.5939 33.4182 38.2895 32.9299 38.6476 34.7752ZM37.1142 30.1752V32.6914C35.2742 32.8662 33.3951 32.3763 31.7606 33.373C28.9339 35.2897 30.3683 39.353 33.5883 39.583C34.7636 39.6743 35.9428 39.7042 37.1211 39.6727C37.851 46.5597 36.2011 46.3427 30.2403 45.7861H12.5127C6.34563 46.503 7.02183 42.9264 7.3538 38.1432V25.8459C7.59024 26.0966 7.87391 26.2982 8.18849 26.439C8.50307 26.5798 8.84238 26.657 9.1869 26.6662C18.1799 26.5842 27.2618 26.8195 36.2126 26.5834C37.4899 26.831 37.1142 29.2989 37.1142 30.1768V30.1752ZM31.8557 22.0662C34.0698 22.0455 36.9747 22.4396 35.712 25.7554C31.6632 25.7462 27.5125 25.7462 23.4522 25.7462V22.0662H31.8557ZM22.9524 14.3551C20.8555 14.3551 18.6015 15.4031 16.5361 15.4514C16.4334 -2.6143 29.1746 -2.03547 29.4606 15.3356C27.3385 15.3195 25.1688 14.3566 22.9524 14.3551ZM36.8635 7.41907C38.3202 8.99303 40.3051 11.8703 40.1219 14.1757C39.9839 15.9229 39.3376 15.0535 37.8985 14.7177C35.173 14.0392 32.9604 14.73 30.3162 15.282C30.2089 11.6395 29.3962 4.85533 26.167 2.29313C30.1636 2.8712 34.0759 4.40683 36.8635 7.41907ZM15.4482 15.374C12.9742 14.9055 11.1097 14.0078 8.46547 14.592C6.85547 14.9477 5.88103 15.512 6.04587 13.1882C7.32007 6.79193 14.1633 3.00537 20.1747 2.25633C16.5599 4.75337 15.7718 11.4502 15.6798 15.4062C15.6023 15.3962 15.5249 15.3878 15.4482 15.374Z" fill="black"/>
<path d="M34.4303 35.8257C34.0623 35.8763 33.288 35.6317 33.2803 36.1952C33.4643 36.7058 34.1528 36.4674 34.5691 36.5203C35.1978 36.4743 34.9601 35.7735 34.4303 35.8257Z" fill="black"/>
<path d="M11.5185 28.9287H9.98517C9.39254 28.8912 9.35727 29.6003 9.94837 29.6187C10.554 29.4884 11.6404 29.9461 11.9593 29.299C11.9747 29.0767 11.7102 28.9287 11.5185 28.9287Z" fill="black"/>
<path d="M14.4902 29.7191H16.0235C16.4628 29.7191 16.6691 28.8267 16.1769 28.8267H14.6435C14.2058 28.8267 13.9995 29.7191 14.4902 29.7191Z" fill="black"/>
<path d="M20.7849 28.905H19.2516C18.7755 28.905 18.4795 29.641 19.0814 29.641H20.6147C21.0908 29.641 21.3898 28.905 20.7849 28.905Z" fill="black"/>
<path d="M25.4026 28.8313H23.8693C23.43 28.8313 23.1793 29.7145 23.6638 29.7145H25.1972C25.6365 29.7145 25.8864 28.8313 25.4026 28.8313Z" fill="black"/>
<path d="M28.3913 29.733H29.9246C30.3846 29.733 30.3379 28.813 29.8756 28.813H28.3422C27.8861 28.813 27.929 29.733 28.3913 29.733Z" fill="black"/>
<path d="M34.4807 28.8206H32.9474C32.4537 28.8206 32.5472 29.7252 32.9857 29.7252H34.5191C35.0128 29.7252 34.9193 28.8206 34.4807 28.8206Z" fill="black"/>
<path d="M11.5309 42.7195H9.99756C9.4701 42.7195 9.33516 43.4264 9.93623 43.4264H11.4695C11.997 43.4264 12.1319 42.7195 11.5309 42.7195Z" fill="black"/>
<path d="M16.0124 42.7294C15.4612 42.8659 14.2322 42.3668 14.1157 43.1189C14.167 43.3573 14.4545 43.4164 14.6523 43.4164C15.2036 43.2799 16.4325 43.779 16.5491 43.0269C16.4992 42.7885 16.2117 42.7294 16.0124 42.7294Z" fill="black"/>
<path d="M20.8073 42.6804H19.274C18.8293 42.6804 18.4866 43.4655 19.0593 43.4655H20.5927C21.0373 43.4655 21.38 42.6804 20.8073 42.6804Z" fill="black"/>
<path d="M25.2999 42.6199H23.7666C23.3334 42.6199 23.2767 43.5261 23.7727 43.5261H25.306C25.7361 43.5261 25.7929 42.6199 25.2999 42.6199Z" fill="black"/>
<path d="M29.9665 42.6252H28.4332C27.9939 42.6252 27.8091 43.5207 28.2998 43.5207H29.8331C30.2724 43.5207 30.4572 42.6252 29.9665 42.6252Z" fill="black"/>
<path d="M33.0035 43.5245H34.5368C35.0298 43.5245 34.9033 42.6213 34.4601 42.6213H32.9268C32.4369 42.6213 32.5634 43.5245 33.0035 43.5245Z" fill="black"/>
</g>
<defs>
<clipPath id="clip0_17_3033">
<rect width="46" height="46" fill="white" transform="translate(0 0.90625)"/>
</clipPath>
</defs>
</svg>
