<svg width="47" height="47" viewBox="0 0 47 47" fill="none" xmlns="http://www.w3.org/2000/svg">
<g clip-path="url(#clip0_17_2900)">
<path d="M7.20505 9.67708C7.12939 9.67707 7.05542 9.65466 6.99246 9.61268C6.92951 9.5707 6.88038 9.51103 6.85128 9.44118C6.82218 9.37134 6.8144 9.29444 6.82892 9.22018C6.84344 9.14592 6.87962 9.07762 6.93289 9.02388L7.73559 8.21428L6.84779 8.72642C6.77029 8.77066 6.6798 8.78649 6.59189 8.77117C6.50398 8.75584 6.42417 8.71033 6.36622 8.64248C6.30827 8.57463 6.2758 8.48868 6.27442 8.39946C6.27304 8.31024 6.30283 8.22333 6.35865 8.15372L7.19049 7.12408L6.84779 7.32112C6.77395 7.36501 6.68752 7.38283 6.60235 7.37173C6.51718 7.36063 6.4382 7.32125 6.37809 7.2599C6.31797 7.19855 6.28021 7.11878 6.27084 7.0334C6.26148 6.94802 6.28106 6.86197 6.32645 6.78905L6.58482 6.36508C6.51303 6.34374 6.44907 6.30184 6.40083 6.24455C6.35259 6.18726 6.32219 6.1171 6.31338 6.04272C6.30458 5.96835 6.31775 5.89303 6.35127 5.82606C6.3848 5.75909 6.4372 5.7034 6.50202 5.66588L7.37602 5.16065C7.44982 5.11821 7.53565 5.10154 7.61997 5.11328C7.70429 5.12502 7.78231 5.16449 7.84171 5.22548C7.90112 5.28646 7.93853 5.36549 7.94805 5.45009C7.95757 5.53469 7.93865 5.62005 7.89429 5.69272L7.76395 5.90508L8.59502 5.42592C8.67238 5.38113 8.76295 5.36479 8.85108 5.37971C8.93922 5.39464 9.01936 5.43989 9.07766 5.50765C9.13596 5.57541 9.16875 5.66141 9.17035 5.75078C9.17196 5.84015 9.14228 5.92727 9.08645 5.99708L8.25615 7.02518L9.83319 6.11515C9.91369 6.06815 10.0086 6.05209 10.1 6.06999C10.1915 6.08788 10.2734 6.1385 10.3302 6.21237C10.3871 6.28625 10.4151 6.37831 10.409 6.47133C10.4029 6.56435 10.3631 6.65195 10.297 6.71775L9.49432 7.52582L10.5807 6.89945C10.6593 6.85382 10.7516 6.83762 10.8411 6.85373C10.9305 6.86985 11.0114 6.91723 11.0691 6.98743C11.1269 7.05762 11.1578 7.14606 11.1564 7.23696C11.155 7.32785 11.1213 7.41528 11.0614 7.48365L10.7885 7.79645L10.9518 7.70215C11.0174 7.66427 11.0928 7.6467 11.1684 7.65165C11.244 7.6566 11.3165 7.68385 11.3766 7.72996C11.4367 7.77606 11.4819 7.83896 11.5063 7.9107C11.5307 7.98244 11.5333 8.0598 11.5137 8.13302L11.3681 8.67658C11.4354 8.70307 11.4939 8.74807 11.5367 8.80639C11.5795 8.8647 11.605 8.93394 11.6101 9.00612C11.6152 9.07829 11.5998 9.15044 11.5657 9.21422C11.5315 9.27801 11.48 9.33083 11.4171 9.36658L11.0024 9.60578C10.9367 9.64366 10.8613 9.66123 10.7857 9.65628C10.7101 9.65133 10.6377 9.62408 10.5775 9.57798C10.5174 9.53187 10.4723 9.46897 10.4478 9.39723C10.4234 9.32549 10.4208 9.24813 10.4404 9.17492L10.5332 8.83068L9.17309 9.61498C9.09447 9.66012 9.00241 9.67593 8.91324 9.65962C8.82407 9.64331 8.74356 9.59592 8.68602 9.52588C8.62848 9.45583 8.59762 9.36766 8.59893 9.27702C8.60023 9.18638 8.63362 9.09914 8.69315 9.03078L8.96685 8.71798L7.39979 9.62265C7.34108 9.65829 7.27372 9.67712 7.20505 9.67708Z" fill="#0077B6"/>
<path d="M16.875 15.8051C16.7977 15.805 16.7222 15.7816 16.6584 15.7378C16.5946 15.694 16.5455 15.632 16.5177 15.5598C16.4898 15.4877 16.4844 15.4088 16.5022 15.3335C16.52 15.2582 16.5602 15.1901 16.6174 15.1381L19.0194 12.96L14.5145 15.5613C14.4321 15.6084 14.3351 15.6233 14.2423 15.603C14.1496 15.5828 14.0677 15.5288 14.0124 15.4516C13.9571 15.3744 13.9325 15.2795 13.9433 15.1851C13.954 15.0908 13.9994 15.0038 14.0706 14.941L16.1406 13.1332L14.5145 14.0701C14.4365 14.1145 14.3455 14.1302 14.2572 14.1145C14.1688 14.0987 14.0889 14.0525 14.0311 13.9838C13.9734 13.9151 13.9416 13.8284 13.9412 13.7386C13.9409 13.6489 13.972 13.5619 14.0292 13.4928L15.0611 12.2615L14.5145 12.5766C14.4487 12.6146 14.3731 12.6321 14.2973 12.627C14.2215 12.6219 14.1489 12.5944 14.0888 12.548C14.0287 12.5016 13.9837 12.4383 13.9596 12.3663C13.9354 12.2943 13.9332 12.2167 13.9533 12.1435L14.1541 11.4159C14.0858 11.382 14.029 11.3286 13.9908 11.2626C13.94 11.1745 13.9262 11.0699 13.9525 10.9717C13.9789 10.8735 14.0431 10.7898 14.1311 10.7389L14.5145 10.5174C14.5804 10.4791 14.6561 10.4613 14.7322 10.4663C14.8082 10.4713 14.881 10.4988 14.9413 10.5454C15.0017 10.592 15.0467 10.6554 15.0708 10.7277C15.0948 10.8 15.0968 10.8779 15.0764 10.9513L14.94 11.4458L16.5553 10.5135C16.6334 10.4687 16.7247 10.4527 16.8133 10.4683C16.9019 10.484 16.9822 10.5304 17.0401 10.5993C17.0979 10.6683 17.1297 10.7554 17.1298 10.8454C17.1299 10.9354 17.0983 11.0225 17.0406 11.0916L16.0102 12.3183L19.1536 10.5051C19.236 10.458 19.3329 10.4431 19.4257 10.4633C19.5185 10.4836 19.6004 10.5375 19.6556 10.6147C19.7109 10.6919 19.7355 10.7869 19.7248 10.8812C19.714 10.9755 19.6687 11.0625 19.5975 11.1253L17.5275 12.9339L21.7441 10.4997C21.8257 10.4548 21.9208 10.4412 22.0118 10.4613C22.1027 10.4814 22.1831 10.5339 22.2382 10.6091C22.2932 10.6842 22.319 10.7767 22.3108 10.8695C22.3025 10.9622 22.2608 11.0488 22.1934 11.1131L19.7922 13.2904L24.6398 10.4905C24.7234 10.4407 24.8227 10.4246 24.9177 10.4453C25.0127 10.4659 25.0963 10.522 25.1515 10.602C25.2068 10.682 25.2296 10.78 25.2153 10.8762C25.201 10.9723 25.1507 11.0595 25.0745 11.12L23.1379 12.6985L24.8246 11.7256C24.9076 11.678 25.0054 11.6632 25.0988 11.6841C25.1922 11.705 25.2744 11.76 25.3293 11.8384C25.3842 11.9168 25.4077 12.0129 25.3953 12.1078C25.3829 12.2027 25.3355 12.2895 25.2624 12.3512L24.6391 12.8726L24.8292 12.7629C24.906 12.7182 24.9959 12.7015 25.0837 12.7157C25.1714 12.7299 25.2515 12.7742 25.3102 12.841C25.3689 12.9077 25.4025 12.9928 25.4054 13.0816C25.4083 13.1705 25.3802 13.2575 25.326 13.328L24.7265 14.1161L24.8361 14.0532C24.8797 14.0255 24.9285 14.0069 24.9795 13.9985C25.0306 13.9901 25.0827 13.9921 25.133 14.0044C25.1832 14.0167 25.2304 14.039 25.2717 14.07C25.3131 14.1011 25.3478 14.1401 25.3736 14.1849C25.3995 14.2297 25.4161 14.2792 25.4223 14.3305C25.4285 14.3818 25.4243 14.4339 25.4099 14.4835C25.3955 14.5332 25.3712 14.5794 25.3385 14.6194C25.3057 14.6594 25.2652 14.6924 25.2194 14.7164L23.4477 15.7391C23.371 15.7835 23.2812 15.8 23.1938 15.7857C23.1063 15.7714 23.0265 15.7272 22.9679 15.6607C22.9094 15.5941 22.8757 15.5094 22.8726 15.4208C22.8694 15.3322 22.8971 15.2453 22.9509 15.1749L23.5496 14.3913L21.2075 15.7445C21.1244 15.7929 21.0262 15.8084 20.9323 15.7878C20.8384 15.7672 20.7557 15.7121 20.7005 15.6334C20.6453 15.5547 20.6217 15.4581 20.6344 15.3628C20.6471 15.2675 20.6951 15.1804 20.7689 15.1189L21.3953 14.5953L19.3966 15.7453C19.3132 15.7929 19.215 15.8075 19.1214 15.7862C19.0278 15.7648 18.9456 15.7092 18.891 15.6302C18.8365 15.5511 18.8136 15.4545 18.8268 15.3594C18.8401 15.2643 18.8886 15.1777 18.9627 15.1166L20.8931 13.5426L17.0636 15.7537C17.0064 15.7872 16.9413 15.8049 16.875 15.8051Z" fill="#546070"/>
<path d="M5.17647 25.777C5.09358 25.7771 5.01292 25.7502 4.94656 25.7006C4.8802 25.6509 4.83173 25.5811 4.80842 25.5015C4.7851 25.422 4.78819 25.337 4.81723 25.2594C4.84626 25.1818 4.89968 25.1156 4.96947 25.0709L7.82607 23.2386L5.3229 24.6838C5.23675 24.7306 5.13591 24.7427 5.04113 24.7175C4.94635 24.6923 4.86484 24.6317 4.81337 24.5482C4.7619 24.4647 4.74439 24.3647 4.76444 24.2687C4.7845 24.1727 4.84059 24.088 4.92117 24.0321L8.60961 21.6064L6.23294 22.9795C6.14763 23.0295 6.04627 23.0447 5.95005 23.0217C5.85383 22.9988 5.7702 22.9396 5.71664 22.8564C5.66308 22.7733 5.64374 22.6726 5.66266 22.5755C5.68158 22.4784 5.7373 22.3924 5.81817 22.3355L10.5094 18.9867L8.2485 20.29C8.16456 20.3383 8.06544 20.3531 7.97105 20.3313C7.87667 20.3096 7.79403 20.2529 7.73974 20.1726C7.68545 20.0924 7.66354 19.9946 7.67842 19.8989C7.6933 19.8032 7.74386 19.7167 7.81994 19.6567L10.3047 17.7056L10.0969 17.8252C10.0147 17.8727 9.9177 17.8881 9.82478 17.8682C9.73186 17.8483 9.64965 17.7946 9.59407 17.7176C9.53848 17.6405 9.5135 17.5455 9.52397 17.4511C9.53444 17.3567 9.57963 17.2695 9.65074 17.2065L10.9449 16.0565C10.9008 16.0156 10.8669 15.9651 10.846 15.9088C10.8251 15.8525 10.8177 15.792 10.8244 15.7324C10.8311 15.6727 10.8518 15.6154 10.8847 15.5652C10.9176 15.5149 10.9618 15.4731 11.0139 15.4431L12.8255 14.3974C12.9078 14.3498 13.0047 14.3345 13.0977 14.3543C13.1906 14.3742 13.2728 14.4279 13.3284 14.505C13.384 14.582 13.4089 14.677 13.3985 14.7714C13.388 14.8659 13.3428 14.9531 13.2717 15.0161L12.9842 15.2714L14.5835 14.3514C14.6674 14.303 14.7665 14.2883 14.8609 14.3101C14.9553 14.3318 15.0379 14.3885 15.0922 14.4687C15.1465 14.5489 15.1684 14.6467 15.1535 14.7425C15.1387 14.8382 15.0881 14.9247 15.012 14.9847L12.5296 16.9343L17.0008 14.3537C17.0861 14.3036 17.1874 14.2885 17.2837 14.3114C17.3799 14.3343 17.4635 14.3936 17.5171 14.4767C17.5706 14.5599 17.59 14.6605 17.571 14.7576C17.5521 14.8547 17.4964 14.9407 17.4155 14.9977L12.7266 18.3404L19.6404 14.3537C19.7266 14.3068 19.8274 14.2947 19.9222 14.3199C20.017 14.3452 20.0985 14.4057 20.1499 14.4892C20.2014 14.5727 20.2189 14.6728 20.1989 14.7688C20.1788 14.8648 20.1227 14.9494 20.0421 15.0054L16.3529 17.4319L21.6859 14.3537C21.7723 14.3074 21.8731 14.296 21.9677 14.3218C22.0622 14.3476 22.1433 14.4087 22.1943 14.4924C22.2452 14.5761 22.2622 14.6762 22.2416 14.772C22.2211 14.8679 22.1646 14.9522 22.0838 15.0077L19.218 16.8477L23.5358 14.3537C23.6222 14.3068 23.7232 14.2949 23.8181 14.3204C23.913 14.3459 23.9945 14.4068 24.0457 14.4906C24.097 14.5744 24.1141 14.6747 24.0936 14.7708C24.073 14.8669 24.0163 14.9514 23.9353 15.0069L20.1617 17.4464L25.5031 14.3629C25.59 14.3101 25.6944 14.294 25.7931 14.3182C25.8919 14.3424 25.977 14.4048 26.0298 14.4917C26.0826 14.5786 26.0986 14.6829 26.0745 14.7817C26.0503 14.8805 25.9879 14.9656 25.901 15.0184L24.1898 16.1055L26.5964 14.7163C26.6824 14.6681 26.7837 14.6549 26.8792 14.6794C26.9747 14.704 27.0571 14.7644 27.1092 14.8481C27.1614 14.9318 27.1792 15.0324 27.1591 15.1289C27.139 15.2255 27.0824 15.3105 27.0012 15.3665L21.104 19.3186L27.5233 15.6126C27.6093 15.5643 27.7106 15.5511 27.8061 15.5757C27.9016 15.6002 27.984 15.6606 28.0361 15.7443C28.0883 15.828 28.1061 15.9286 28.086 16.0252C28.0659 16.1217 28.0093 16.2068 27.9281 16.2627L23.3089 19.3623L28.3129 16.4728C28.3994 16.421 28.5028 16.4053 28.6007 16.4292C28.6986 16.4531 28.7832 16.5146 28.8361 16.6004C28.889 16.6861 28.9061 16.7893 28.8835 16.8875C28.8609 16.9858 28.8005 17.0711 28.7154 17.1252L26.6332 18.4937L28.9431 17.1612C29.0293 17.1149 29.13 17.1034 29.2244 17.1289C29.3189 17.1545 29.4 17.2151 29.4512 17.2985C29.5023 17.3819 29.5197 17.4818 29.4996 17.5775C29.4796 17.6733 29.4237 17.7578 29.3433 17.8137L29.3196 17.8298L29.4729 17.7408C29.5591 17.6926 29.6606 17.6795 29.7563 17.7043C29.8519 17.7291 29.9343 17.7899 29.9862 17.8739C30.0381 17.958 30.0555 18.0588 30.0349 18.1555C30.0143 18.2521 29.9571 18.337 29.8754 18.3925L29.6822 18.519L30.0126 18.3289C30.0984 18.2798 30.1998 18.2658 30.2956 18.2897C30.3915 18.3136 30.4744 18.3736 30.5271 18.4571C30.5798 18.5407 30.5982 18.6414 30.5785 18.7382C30.5588 18.835 30.5025 18.9204 30.4213 18.9767L28.615 20.2202L30.6635 19.038C30.7484 18.989 30.8489 18.9743 30.9442 18.9971C31.0396 19.0198 31.1226 19.0782 31.1762 19.1603C31.2298 19.2424 31.25 19.3419 31.2325 19.4384C31.215 19.5348 31.1612 19.6209 31.0821 19.679L28.5061 21.5719L31.4363 19.8806C31.5202 19.8332 31.6189 19.8191 31.7127 19.8412C31.8066 19.8633 31.8886 19.9199 31.9426 19.9997C31.9965 20.0796 32.0184 20.1769 32.0039 20.2721C31.9893 20.3674 31.9394 20.4537 31.8641 20.5139L29.5312 22.3439L32.2544 20.7722C32.3351 20.7245 32.4307 20.7084 32.5226 20.7271C32.6145 20.7458 32.6963 20.7979 32.7519 20.8734C32.8083 20.9482 32.8354 21.041 32.8281 21.1344C32.8207 21.2277 32.7795 21.3152 32.7121 21.3802L30.5378 23.4709L33.2794 21.8893C33.3585 21.8437 33.4512 21.8278 33.5409 21.8446C33.6306 21.8613 33.7115 21.9094 33.7688 21.9804C33.8262 22.0513 33.8564 22.1405 33.854 22.2317C33.8515 22.3229 33.8166 22.4103 33.7555 22.4781L32.5403 23.822L34.1841 22.8737C34.2588 22.8305 34.346 22.8138 34.4314 22.8263C34.5169 22.8388 34.5956 22.8798 34.6548 22.9427C34.7141 23.0056 34.7504 23.0867 34.7578 23.1729C34.7652 23.259 34.7432 23.3451 34.6954 23.4172L34.1588 24.2238L34.7905 23.8604C34.8573 23.822 34.934 23.8046 35.0108 23.8104C35.0876 23.8163 35.1608 23.8451 35.2209 23.8932C35.2811 23.9413 35.3254 24.0063 35.348 24.0799C35.3706 24.1535 35.3706 24.2322 35.3479 24.3058L35.1884 24.8195C35.2467 24.8531 35.2951 24.9015 35.3287 24.9598C35.3623 25.018 35.3801 25.0841 35.3801 25.1514C35.3801 25.2187 35.3623 25.2848 35.3287 25.3431C35.2951 25.4014 35.2467 25.4497 35.1884 25.4834L34.8051 25.7034C34.7383 25.7421 34.6614 25.7597 34.5845 25.7539C34.5076 25.7482 34.4342 25.7194 34.3739 25.6713C34.3136 25.6232 34.2693 25.558 34.2466 25.4842C34.2239 25.4105 34.2241 25.3317 34.2469 25.258L34.3236 25.0134L33.1276 25.7034C33.0528 25.7466 32.9656 25.7633 32.8801 25.7507C32.7946 25.7382 32.7159 25.6971 32.6566 25.6342C32.5974 25.5712 32.5612 25.4901 32.5539 25.404C32.5466 25.3179 32.5685 25.2319 32.6162 25.1599L33.1529 24.3541L30.81 25.7057C30.7309 25.7513 30.6382 25.7671 30.5484 25.7504C30.4587 25.7337 30.3779 25.6856 30.3205 25.6146C30.2632 25.5436 30.233 25.4545 30.2354 25.3633C30.2379 25.2721 30.2728 25.1847 30.3339 25.1169L31.5498 23.7722L28.1964 25.7073C28.1153 25.7561 28.019 25.7732 27.9261 25.7552C27.8331 25.7373 27.7501 25.6856 27.693 25.6101C27.6359 25.5347 27.6087 25.4407 27.6167 25.3464C27.6247 25.2521 27.6674 25.1641 27.7364 25.0993L29.9091 23.0101L25.2325 25.7103C25.1485 25.7587 25.0494 25.7734 24.955 25.7517C24.8606 25.7299 24.778 25.6732 24.7237 25.593C24.6694 25.5128 24.6475 25.415 24.6624 25.3193C24.6773 25.2235 24.7278 25.137 24.8039 25.0771L27.1415 23.247L22.8696 25.7134C22.7847 25.7624 22.6843 25.7771 22.5889 25.7543C22.4935 25.7316 22.4105 25.6732 22.3569 25.5911C22.3033 25.509 22.2832 25.4095 22.3007 25.313C22.3182 25.2166 22.372 25.1305 22.451 25.0725L25.0285 23.178L20.6348 25.7149C20.5489 25.7658 20.4467 25.7812 20.3497 25.7578C20.2527 25.7345 20.1686 25.6743 20.1153 25.5899C20.062 25.5056 20.0437 25.4038 20.0642 25.3062C20.0848 25.2085 20.1426 25.1228 20.2254 25.0671L22.0278 23.8266L18.7549 25.7165C18.6684 25.7699 18.5642 25.7868 18.4652 25.7635C18.3662 25.7401 18.2805 25.6784 18.2271 25.5919C18.1736 25.5054 18.1567 25.4011 18.18 25.3021C18.2034 25.2032 18.2651 25.1175 18.3516 25.064L18.551 24.9337L17.1917 25.718C17.1052 25.7663 17.0035 25.7793 16.9077 25.7542C16.8119 25.7292 16.7296 25.668 16.6778 25.5836C16.6261 25.4992 16.6091 25.398 16.6302 25.3013C16.6514 25.2046 16.7092 25.1199 16.7915 25.0648L16.8183 25.0472L15.6553 25.7188C15.5688 25.7705 15.4654 25.7862 15.3675 25.7623C15.2696 25.7384 15.185 25.6769 15.1321 25.5912C15.0792 25.5054 15.0622 25.4022 15.0847 25.304C15.1073 25.2057 15.1677 25.1204 15.2528 25.0663L17.332 23.6986L13.8298 25.7203C13.7437 25.7702 13.6416 25.7846 13.545 25.7606C13.4485 25.7366 13.365 25.676 13.3124 25.5915C13.2597 25.5071 13.2419 25.4055 13.2628 25.3082C13.2837 25.2109 13.3416 25.1255 13.4243 25.0702L18.0404 21.9736L11.5467 25.7226C11.4607 25.7708 11.3594 25.784 11.2639 25.7595C11.1684 25.7349 11.086 25.6745 11.0338 25.5908C10.9817 25.5071 10.9639 25.4065 10.984 25.31C11.0041 25.2134 11.0607 25.1284 11.1419 25.0725L17.0406 21.1195L9.06731 25.7241C8.98039 25.7769 8.87606 25.793 8.77729 25.7688C8.67851 25.7446 8.59337 25.6822 8.5406 25.5953C8.48784 25.5084 8.47176 25.4041 8.49592 25.3053C8.52007 25.2065 8.58248 25.1214 8.6694 25.0686L10.3898 23.9723L7.35457 25.7241C7.26799 25.7734 7.16563 25.787 7.06917 25.7622C6.97271 25.7373 6.88972 25.6758 6.8378 25.5908C6.78587 25.5058 6.76908 25.4039 6.79098 25.3067C6.81288 25.2095 6.87176 25.1247 6.95514 25.0702L10.7287 22.6337L5.36814 25.7257C5.30995 25.7595 5.24379 25.7772 5.17647 25.777Z" fill="#0077B6"/>
<path d="M6.87845 24.2331C6.79838 24.232 6.72063 24.2061 6.6561 24.1587C6.59156 24.1112 6.54349 24.0449 6.51863 23.9688C6.49376 23.8927 6.49336 23.8106 6.51747 23.7343C6.54157 23.658 6.58899 23.5911 6.65305 23.5431L11.9231 19.7205L6.19688 23.0233C6.11072 23.0723 6.00893 23.086 5.91287 23.0616C5.8168 23.0371 5.73394 22.9764 5.68166 22.8922C5.62939 22.808 5.61177 22.7068 5.6325 22.6099C5.65323 22.513 5.7107 22.4278 5.79285 22.3724L7.68345 21.1173L7.58378 21.1741C7.49889 21.2231 7.39844 21.2378 7.30307 21.215C7.20771 21.1923 7.12469 21.1338 7.07108 21.0518C7.01747 20.9697 6.99735 20.8702 7.01485 20.7737C7.03235 20.6772 7.08615 20.5911 7.16518 20.5331L9.91368 18.5183L9.31798 18.8618C9.23716 18.9084 9.14212 18.9239 9.05067 18.9055C8.95922 18.887 8.87763 18.8359 8.8212 18.7616C8.76478 18.6873 8.73738 18.595 8.74415 18.5019C8.75092 18.4089 8.79139 18.3215 8.85798 18.2561L11.0399 16.1256C10.9767 16.0957 10.9228 16.0491 10.8841 15.9908C10.8454 15.9325 10.8234 15.8648 10.8205 15.7949C10.8176 15.725 10.8338 15.6556 10.8675 15.5943C10.9012 15.533 10.951 15.4821 11.0116 15.4471L12.8232 14.4013C12.904 14.3547 12.9991 14.3392 13.0905 14.3576C13.182 14.3761 13.2636 14.4272 13.32 14.5015C13.3764 14.5758 13.4038 14.6682 13.397 14.7612C13.3903 14.8543 13.3498 14.9416 13.2832 15.007L11.5781 16.6714L15.6169 14.34C15.7018 14.291 15.8023 14.2763 15.8976 14.299C15.993 14.3218 16.076 14.3802 16.1296 14.4623C16.1832 14.5444 16.2034 14.6439 16.1859 14.7404C16.1684 14.8368 16.1146 14.9229 16.0355 14.9809L13.2832 16.9988L17.9077 14.3285C17.994 14.2785 18.0964 14.264 18.1932 14.2883C18.29 14.3125 18.3735 14.3736 18.426 14.4584C18.4785 14.5432 18.4958 14.6452 18.4744 14.7426C18.4529 14.84 18.3943 14.9253 18.311 14.9802L16.4112 16.2421L17.9215 15.3704C18.0065 15.3221 18.1067 15.308 18.2017 15.3311C18.2967 15.3542 18.3792 15.4127 18.4325 15.4947C18.4857 15.5766 18.5057 15.6759 18.4882 15.772C18.4708 15.8682 18.4173 15.9541 18.3386 16.0121L13.0731 19.8316L17.9277 17.0302C18.0126 16.983 18.1123 16.9697 18.2066 16.9932C18.3009 17.0167 18.3827 17.0751 18.4356 17.1566C18.4885 17.2381 18.5085 17.3367 18.4915 17.4323C18.4744 17.528 18.4217 17.6136 18.344 17.6719L15.3233 19.8677L17.93 18.3627C18.0139 18.3153 18.1126 18.3012 18.2064 18.3233C18.3002 18.3454 18.3822 18.402 18.4362 18.4819C18.4901 18.5617 18.512 18.659 18.4975 18.7542C18.483 18.8495 18.4331 18.9358 18.3578 18.996L16.0708 20.7846L17.9315 19.7113C18.0132 19.6624 18.1101 19.6456 18.2035 19.6643C18.2968 19.6829 18.3799 19.7357 18.4365 19.8122C18.4931 19.8886 18.5192 19.9835 18.5098 20.0782C18.5003 20.173 18.456 20.2608 18.3854 20.3246L16.7662 21.838L17.9353 21.1633C18.0096 21.12 18.0962 21.1029 18.1813 21.1147C18.2664 21.1266 18.3451 21.1666 18.4047 21.2285C18.4643 21.2904 18.5013 21.3706 18.5099 21.4561C18.5185 21.5416 18.4981 21.6274 18.4521 21.7L17.7996 22.7427L17.9392 22.666C17.9828 22.6383 18.0316 22.6196 18.0826 22.6112C18.1336 22.6029 18.1858 22.6049 18.236 22.6172C18.2862 22.6294 18.3334 22.6518 18.3748 22.6828C18.4162 22.7138 18.4508 22.7529 18.4767 22.7977C18.5026 22.8424 18.5191 22.892 18.5254 22.9433C18.5316 22.9946 18.5274 23.0466 18.513 23.0963C18.4986 23.146 18.4743 23.1922 18.4415 23.2322C18.4088 23.2722 18.3683 23.3052 18.3225 23.3292L16.8513 24.1671C16.777 24.2104 16.6904 24.2275 16.6053 24.2157C16.5202 24.2039 16.4415 24.1638 16.3819 24.1019C16.3223 24.04 16.2853 23.9599 16.2767 23.8744C16.2681 23.7889 16.2885 23.703 16.3345 23.6305L16.9862 22.5886L14.25 24.1679C14.1683 24.2168 14.0713 24.2335 13.978 24.2149C13.8847 24.1962 13.8016 24.1435 13.745 24.067C13.6884 23.9905 13.6622 23.8956 13.6717 23.8009C13.6811 23.7062 13.7255 23.6184 13.7961 23.5546L15.4161 22.0404L11.7284 24.1694C11.6445 24.2168 11.5458 24.2309 11.452 24.2088C11.3582 24.1867 11.2761 24.13 11.2222 24.0503C11.1682 23.9704 11.1464 23.8731 11.1609 23.7779C11.1754 23.6826 11.2253 23.5963 11.3006 23.5362L13.5853 21.7483L9.38698 24.1717C9.30202 24.2201 9.20181 24.2341 9.10684 24.211C9.01186 24.1879 8.9293 24.1294 8.87604 24.0474C8.82277 23.9655 8.80282 23.8663 8.82027 23.7701C8.83772 23.6739 8.89125 23.5879 8.96991 23.53L11.9883 21.3358L7.07011 24.1725C7.0129 24.2097 6.94665 24.2306 6.87845 24.2331Z" fill="#0077B6"/>
<path d="M11.938 36.4874C11.8549 36.4875 11.7739 36.4605 11.7075 36.4106C11.641 36.3607 11.5926 36.2905 11.5694 36.2106C11.5463 36.1307 11.5498 36.0455 11.5794 35.9678C11.6089 35.8901 11.663 35.8241 11.7333 35.7798L14.7616 33.8677L10.3134 36.4338C10.2277 36.4797 10.1277 36.4914 10.0338 36.4664C9.93977 36.4414 9.8588 36.3816 9.80725 36.2991C9.75569 36.2167 9.7374 36.1177 9.75607 36.0223C9.77475 35.9269 9.82899 35.8421 9.90782 35.7852L18.92 29.7055L7.26512 36.4338C7.17864 36.4813 7.07713 36.4937 6.98175 36.4683C6.88637 36.4429 6.80446 36.3817 6.75309 36.2974C6.70171 36.2131 6.68482 36.1123 6.70594 36.0159C6.72706 35.9194 6.78455 35.8349 6.86646 35.7798L12.4064 32.2171L5.10006 36.4338C5.01377 36.4813 4.91251 36.4938 4.81727 36.4686C4.72203 36.4435 4.64012 36.3826 4.58855 36.2987C4.53697 36.2148 4.51968 36.1142 4.54026 36.0179C4.56084 35.9216 4.61772 35.8368 4.69909 35.7813L11.3055 31.488L2.98252 36.2958C2.8961 36.344 2.79434 36.357 2.69856 36.332C2.60278 36.3069 2.5204 36.2458 2.46868 36.1614C2.41696 36.077 2.39991 35.9758 2.42109 35.8791C2.44227 35.7824 2.50005 35.6976 2.58232 35.6426L8.84292 31.5792L1.95672 35.5544C1.8707 35.6026 1.7694 35.6158 1.67389 35.5913C1.57837 35.5667 1.49599 35.5063 1.44387 35.4226C1.39174 35.3389 1.37389 35.2383 1.39401 35.1418C1.41414 35.0452 1.47069 34.9602 1.55192 34.9043L8.91192 29.9761L1.48829 34.261C1.40202 34.3067 1.30155 34.3178 1.2074 34.2919C1.11325 34.2661 1.03251 34.2053 0.981644 34.122C0.930782 34.0386 0.913634 33.939 0.9337 33.8435C0.953766 33.7479 1.00953 33.6637 1.08962 33.6078L3.56672 32.0101L1.48139 33.2138C1.39511 33.2613 1.29384 33.2738 1.1986 33.2486C1.10336 33.2235 1.02146 33.1626 0.96988 33.0787C0.918303 32.9948 0.901013 32.8942 0.921596 32.7979C0.942178 32.7015 0.999054 32.6168 1.08042 32.5613L3.13892 31.2204L1.48139 32.1734C1.39569 32.2283 1.29168 32.2469 1.19226 32.2251C1.09284 32.2033 1.00614 32.1429 0.951241 32.0572C0.896341 31.9715 0.877736 31.8675 0.899518 31.7681C0.9213 31.6687 0.981686 31.582 1.06739 31.5271L5.69039 28.235L1.48139 30.6669C1.39543 30.7159 1.29386 30.7297 1.19792 30.7056C1.10199 30.6814 1.01911 30.6211 0.966629 30.5372C0.914147 30.4533 0.896127 30.3524 0.916335 30.2555C0.936543 30.1587 0.993416 30.0734 1.07506 30.0175L1.70832 29.589L1.47832 29.7201C1.39397 29.7671 1.29496 29.7806 1.20109 29.7578C1.10722 29.735 1.02541 29.6777 0.972034 29.5972C0.918653 29.5167 0.897635 29.419 0.913183 29.3236C0.92873 29.2283 0.979698 29.1423 1.05589 29.083L3.42336 27.2897L1.48139 28.4121C1.39818 28.4601 1.29997 28.4752 1.20622 28.4542C1.11246 28.4332 1.02999 28.3779 0.97513 28.299C0.920271 28.2201 0.897025 28.1235 0.909993 28.0283C0.922962 27.9332 0.9712 27.8463 1.04516 27.785L2.61452 26.4817L1.48139 27.1349C1.40603 27.1782 1.31818 27.1946 1.23227 27.1814C1.14635 27.1682 1.06746 27.1262 1.00855 27.0623C0.949632 26.9984 0.914185 26.9164 0.908021 26.8297C0.901856 26.743 0.925342 26.6568 0.974624 26.5852L2.01576 25.0871L1.92759 25.1369C1.83998 25.1828 1.73806 25.193 1.6431 25.1654C1.54815 25.1379 1.46751 25.0747 1.41803 24.9891C1.36855 24.9035 1.35406 24.8021 1.37758 24.7061C1.4011 24.61 1.46082 24.5268 1.54426 24.4738L3.11516 23.5691C3.19059 23.5255 3.27864 23.5089 3.36479 23.522C3.45094 23.5351 3.53004 23.5772 3.58906 23.6413C3.64808 23.7054 3.6835 23.7877 3.68947 23.8747C3.69544 23.9616 3.67162 24.048 3.62192 24.1196L2.58156 25.6184L6.16189 23.5538C6.24498 23.5068 6.34262 23.4925 6.43569 23.5137C6.52877 23.5349 6.61059 23.59 6.66514 23.6684C6.7197 23.7467 6.74306 23.8426 6.73067 23.9372C6.71827 24.0319 6.67101 24.1185 6.59812 24.1801L5.03029 25.4773L8.36682 23.5538C8.45117 23.5067 8.55019 23.4932 8.64406 23.516C8.73793 23.5388 8.81973 23.5961 8.87311 23.6767C8.92649 23.7572 8.94751 23.8549 8.93196 23.9502C8.91642 24.0455 8.86545 24.1315 8.78926 24.1909L6.42332 25.9818L10.6316 23.5538C10.7174 23.5067 10.8179 23.4943 10.9125 23.5189C11.0071 23.5436 11.0888 23.6035 11.1407 23.6864C11.1926 23.7693 11.2109 23.8689 11.1918 23.9648C11.1727 24.0607 11.1177 24.1457 11.0379 24.2024L10.4 24.634L12.2723 23.5538C12.3576 23.5037 12.4589 23.4885 12.5552 23.5115C12.6514 23.5344 12.735 23.5936 12.7886 23.6768C12.8421 23.76 12.8615 23.8606 12.8425 23.9577C12.8236 24.0548 12.7679 24.1408 12.687 24.1978L8.06246 27.4883L14.8858 23.5522C14.9721 23.5047 15.0734 23.4922 15.1686 23.5174C15.2639 23.5425 15.3458 23.6034 15.3973 23.6873C15.4489 23.7712 15.4662 23.8718 15.4456 23.9681C15.425 24.0644 15.3682 24.1491 15.2868 24.2047L13.2268 25.5471L16.6768 23.5538C16.7631 23.5069 16.8642 23.495 16.959 23.5204C17.0539 23.5459 17.1354 23.6069 17.1867 23.6907C17.2379 23.7745 17.255 23.8748 17.2345 23.9709C17.2139 24.0669 17.1573 24.1514 17.0762 24.207L14.6068 25.8039L18.5053 23.5538C18.5912 23.5062 18.692 23.4934 18.7871 23.518C18.8821 23.5426 18.9641 23.6027 19.0161 23.686C19.0681 23.7693 19.0862 23.8694 19.0666 23.9656C19.047 24.0618 18.9913 24.1468 18.9108 24.2031L11.5508 29.1328L21.2154 23.5538C21.3016 23.5075 21.4023 23.4959 21.4967 23.5215C21.5912 23.547 21.6723 23.6077 21.7235 23.6911C21.7746 23.7745 21.792 23.8743 21.7719 23.9701C21.7519 24.0658 21.696 24.1503 21.6156 24.2062L15.3543 28.2695L23.5239 23.5538C23.6102 23.5062 23.7114 23.4938 23.8067 23.5189C23.9019 23.5441 23.9838 23.6049 24.0354 23.6888C24.087 23.7727 24.1042 23.8733 24.0837 23.9696C24.0631 24.066 24.0062 24.1507 23.9248 24.2062L17.3246 28.4957L25.886 23.5538C25.9725 23.5045 26.0749 23.4908 26.1714 23.5157C26.2678 23.5406 26.3508 23.6021 26.4027 23.6871C26.4547 23.7721 26.4715 23.874 26.4496 23.9712C26.4276 24.0684 26.3688 24.1532 26.2854 24.2077L20.7447 27.7704L28.0495 23.5538C28.1352 23.5078 28.2352 23.4962 28.3291 23.5211C28.4231 23.5461 28.5041 23.6059 28.5556 23.6884C28.6072 23.7708 28.6255 23.8698 28.6068 23.9652C28.5881 24.0606 28.5339 24.1454 28.4551 24.2024L19.4421 30.282L31.0955 23.5538C31.1822 23.5061 31.2839 23.4938 31.3795 23.5194C31.4751 23.545 31.557 23.6066 31.6082 23.6913C31.6594 23.776 31.6759 23.8771 31.6542 23.9737C31.6325 24.0702 31.5743 24.1546 31.4918 24.2093L28.4643 26.1213L32.9109 23.5538C32.9967 23.5067 33.0972 23.4943 33.1918 23.5189C33.2865 23.5436 33.3681 23.6035 33.42 23.6864C33.472 23.7693 33.4903 23.8689 33.4711 23.9648C33.452 24.0607 33.397 24.1457 33.3173 24.2024L24.2706 30.3081L35.7392 23.6872C35.8256 23.6409 35.9264 23.6295 36.021 23.6553C36.1155 23.6811 36.1966 23.7421 36.2476 23.8259C36.2985 23.9096 36.3154 24.0097 36.2949 24.1055C36.2743 24.2013 36.2179 24.2856 36.1371 24.3411L31.0901 27.5795L37.4228 23.9233C37.5095 23.8702 37.6137 23.8538 37.7126 23.8776C37.8114 23.9014 37.8968 23.9635 37.9498 24.0502C38.0029 24.1369 38.0194 24.2411 37.9956 24.34C37.9718 24.4388 37.9097 24.5242 37.823 24.5773L32.4747 28.0273L39.1585 24.1671C39.2449 24.1188 39.3467 24.1058 39.4425 24.1309C39.5382 24.1559 39.6206 24.2171 39.6723 24.3015C39.7241 24.3859 39.7411 24.487 39.7199 24.5837C39.6987 24.6805 39.641 24.7652 39.5587 24.8203L33.778 28.5823L40.954 24.4423C41.0401 24.3948 41.1412 24.3822 41.2363 24.4071C41.3314 24.4319 41.4134 24.4924 41.4652 24.576C41.5169 24.6596 41.5346 24.7599 41.5146 24.8562C41.4945 24.9524 41.4382 25.0373 41.3573 25.0932L34.6168 29.5598L42.0067 25.2933C42.0923 25.245 42.1932 25.2314 42.2886 25.2554C42.384 25.2793 42.4665 25.3391 42.5191 25.4222C42.5717 25.5053 42.5903 25.6054 42.5711 25.7019C42.5519 25.7983 42.4964 25.8837 42.4161 25.9404L35.0814 31.0004L43.2418 26.29C43.3279 26.241 43.4297 26.2273 43.5258 26.2517C43.6218 26.2761 43.7047 26.3368 43.757 26.421C43.8093 26.5052 43.8269 26.6064 43.8061 26.7034C43.7854 26.8003 43.7279 26.8854 43.6458 26.9409L39.2612 29.8673L44.1679 27.036C44.2535 26.9876 44.3545 26.974 44.4498 26.998C44.5452 27.022 44.6277 27.0817 44.6803 27.1648C44.7329 27.2479 44.7515 27.348 44.7324 27.4445C44.7132 27.5409 44.6577 27.6263 44.5773 27.683L39.7994 30.9797L45.1922 27.867C45.2776 27.8197 45.3778 27.8068 45.4724 27.8309C45.567 27.8549 45.6488 27.9142 45.7012 27.9965C45.7536 28.0789 45.7727 28.1781 45.7544 28.274C45.7362 28.3699 45.6821 28.4552 45.6031 28.5126L41.5559 31.3416L45.5211 29.0531C45.6069 29.0066 45.7072 28.9947 45.8015 29.0197C45.8958 29.0447 45.9771 29.1047 46.0287 29.1875C46.0803 29.2703 46.0984 29.3696 46.0793 29.4653C46.0602 29.561 46.0053 29.6458 45.9259 29.7024L45.4268 30.0375L45.5211 29.983C45.6065 29.9345 45.7073 29.9207 45.8026 29.9444C45.898 29.9681 45.9806 30.0275 46.0334 30.1103C46.0862 30.1931 46.1053 30.2931 46.0865 30.3895C46.0678 30.486 46.0128 30.5715 45.9328 30.6286L44.7605 31.4504L45.5188 31.0127C45.6037 30.9643 45.7039 30.9503 45.7989 30.9734C45.8939 30.9965 45.9764 31.055 46.0297 31.137C46.083 31.2189 46.1029 31.3181 46.0855 31.4143C46.068 31.5105 46.0145 31.5963 45.9358 31.6544L45.2719 32.1366L45.5188 31.9948C45.6028 31.9461 45.7022 31.9311 45.7968 31.9529C45.8915 31.9747 45.9743 32.0316 46.0286 32.1121C46.0829 32.1926 46.1047 32.2907 46.0895 32.3866C46.0742 32.4825 46.0232 32.5691 45.9466 32.6288L45.3869 33.0673L45.5188 32.9907C45.5993 32.9459 45.6932 32.9316 45.7834 32.9505C45.8736 32.9694 45.954 33.0201 46.0098 33.0933C46.0657 33.1666 46.0933 33.2575 46.0876 33.3495C46.0819 33.4414 46.0432 33.5282 45.9788 33.594L45.2658 34.304L45.3923 34.2311C45.4803 34.1811 45.5845 34.1679 45.6822 34.1944C45.7799 34.2209 45.8631 34.285 45.9137 34.3727C45.9643 34.4604 45.9782 34.5645 45.9523 34.6623C45.9265 34.7602 45.8629 34.8439 45.7756 34.8951L43.103 36.4338C43.0225 36.4785 42.9285 36.4928 42.8383 36.4739C42.7482 36.4551 42.6678 36.4044 42.6119 36.3311C42.5561 36.2578 42.5285 36.1669 42.5342 36.075C42.5399 35.983 42.5785 35.8962 42.643 35.8304L43.3568 35.1197L41.079 36.4338C40.9951 36.4821 40.8959 36.4969 40.8015 36.4751C40.7072 36.4533 40.6245 36.3966 40.5702 36.3164C40.5159 36.2362 40.494 36.1384 40.5089 36.0427C40.5238 35.947 40.5744 35.8604 40.6504 35.8005L41.2101 35.3604L39.3509 36.4338C39.266 36.4821 39.1658 36.4961 39.0708 36.473C38.9758 36.4499 38.8933 36.3914 38.84 36.3095C38.7867 36.2275 38.7668 36.1283 38.7842 36.0321C38.8017 35.9359 38.8552 35.8501 38.9339 35.7921L39.5932 35.3121L37.652 36.4338C37.5667 36.4806 37.4668 36.4933 37.3726 36.4692C37.2783 36.4451 37.1967 36.3861 37.1444 36.3041C37.092 36.2221 37.0728 36.1232 37.0906 36.0276C37.1084 35.9319 37.1619 35.8466 37.2403 35.789L38.4079 34.9687L35.8695 36.4338C35.7836 36.4813 35.6827 36.4941 35.5877 36.4695C35.4926 36.4449 35.4106 36.3848 35.3586 36.3015C35.3066 36.2182 35.2885 36.1181 35.3081 36.0219C35.3277 35.9257 35.3835 35.8407 35.4639 35.7844L35.9692 35.4455L34.2564 36.4338C34.171 36.481 34.0708 36.494 33.9762 36.4699C33.8816 36.4458 33.7998 36.3866 33.7474 36.3043C33.695 36.2219 33.6759 36.1227 33.6942 36.0268C33.7124 35.9309 33.7665 35.8456 33.8455 35.7882L37.8935 32.9585L31.8736 36.4338C31.788 36.4821 31.6871 36.4957 31.5917 36.4717C31.4963 36.4477 31.4138 36.388 31.3612 36.3049C31.3086 36.2218 31.29 36.1217 31.3092 36.0252C31.3284 35.9288 31.3839 35.8434 31.4642 35.7867L36.2421 32.49L29.4188 36.4299C29.3327 36.4781 29.2314 36.4914 29.1359 36.4668C29.0404 36.4423 28.958 36.3819 28.9059 36.2982C28.8538 36.2144 28.8359 36.1139 28.8561 36.0173C28.8762 35.9208 28.9327 35.8357 29.014 35.7798L33.3985 32.8534L27.2008 36.4338C27.1153 36.4804 27.0153 36.4928 26.9211 36.4684C26.8268 36.4441 26.7453 36.3847 26.6932 36.3025C26.6411 36.2202 26.6223 36.1212 26.6405 36.0256C26.6587 35.9299 26.7127 35.8448 26.7914 35.7875L34.1246 30.7275L24.2415 36.4338C24.1553 36.4828 24.0535 36.4965 23.9574 36.4721C23.8614 36.4476 23.7785 36.3869 23.7262 36.3027C23.674 36.2185 23.6563 36.1173 23.6771 36.0204C23.6978 35.9235 23.7553 35.8383 23.8374 35.7829L30.5757 31.3178L21.713 36.4338C21.6267 36.4813 21.5254 36.4938 21.4302 36.4686C21.335 36.4435 21.2531 36.3826 21.2015 36.2987C21.1499 36.2148 21.1326 36.1142 21.1532 36.0179C21.1738 35.9216 21.2307 35.8368 21.312 35.7813L27.0942 32.0185L19.4452 36.4338C19.3588 36.482 19.257 36.495 19.1612 36.47C19.0655 36.4449 18.9831 36.3838 18.9314 36.2994C18.8796 36.215 18.8626 36.1138 18.8838 36.0171C18.9049 35.9204 18.9627 35.8356 19.045 35.7806L24.394 32.3306L17.2832 36.4338C17.1967 36.4813 17.0952 36.4937 16.9998 36.4683C16.9044 36.4429 16.8225 36.3817 16.7712 36.2974C16.7198 36.2131 16.7029 36.1123 16.724 36.0159C16.7451 35.9194 16.8026 35.8349 16.8845 35.7798L21.933 32.5406L15.1894 36.4338C15.1037 36.4797 15.0038 36.4914 14.9098 36.4664C14.8158 36.4414 14.7348 36.3816 14.6833 36.2991C14.6317 36.2167 14.6134 36.1177 14.6321 36.0223C14.6508 35.9269 14.705 35.8421 14.7839 35.7852L23.8305 29.6802L12.1297 36.4338C12.0716 36.4682 12.0055 36.4867 11.938 36.4874Z" fill="#51CB20"/>
<path d="M10.3317 41.0384C10.2559 41.0382 10.1819 41.0156 10.119 40.9734C10.056 40.9311 10.007 40.8712 9.97815 40.8011C9.94927 40.7311 9.9418 40.654 9.9567 40.5797C9.9716 40.5054 10.0082 40.4372 10.0618 40.3837L11.8543 38.605L8.20574 40.711C8.1221 40.7585 8.02366 40.7728 7.92996 40.7511C7.83626 40.7294 7.75414 40.6733 7.6999 40.5938C7.64566 40.5144 7.62326 40.4175 7.63715 40.3223C7.65104 40.2271 7.7002 40.1407 7.77487 40.08L9.96677 38.3336L7.03121 40.0287C6.94583 40.0779 6.84477 40.0924 6.74901 40.0691C6.65326 40.0457 6.57016 39.9864 6.51698 39.9034C6.4638 39.8205 6.44463 39.7202 6.46343 39.6235C6.48224 39.5267 6.53758 39.4409 6.61797 39.3839L6.88477 39.1938L6.43627 39.4522C6.35136 39.4994 6.25167 39.5126 6.15737 39.4892C6.06307 39.4657 5.98119 39.4073 5.92831 39.3258C5.87542 39.2443 5.85547 39.1457 5.87248 39.05C5.8895 38.9544 5.94222 38.8687 6.01997 38.8105L6.70997 38.3221L5.94331 38.766C5.85846 38.8139 5.75856 38.8277 5.66392 38.8045C5.56927 38.7814 5.48698 38.7231 5.43378 38.6415C5.38057 38.5599 5.36044 38.4611 5.37747 38.3651C5.3945 38.2692 5.44742 38.1834 5.52547 38.1251L7.14927 36.9367L5.53927 37.8675C5.45456 37.9167 5.35419 37.9317 5.25879 37.9093C5.16338 37.8869 5.08019 37.8288 5.0263 37.7469C4.97241 37.665 4.95193 37.5656 4.96905 37.4691C4.98618 37.3726 5.03961 37.2864 5.11837 37.2281L6.78664 35.9845L5.32997 36.8233C5.24847 36.8665 5.15412 36.8788 5.06423 36.8581C4.97435 36.8373 4.89496 36.7849 4.84063 36.7103C4.7863 36.6358 4.76067 36.5441 4.76846 36.4522C4.77624 36.3603 4.81691 36.2743 4.88301 36.2099L7.55331 33.8271L5.56687 34.9702C5.4853 35.0151 5.39017 35.0288 5.29926 35.0086C5.20835 34.9885 5.12787 34.936 5.07284 34.8609C5.01782 34.7858 4.99202 34.6932 5.00026 34.6004C5.0085 34.5077 5.05021 34.4211 5.11761 34.3569L6.24001 33.3372C6.17268 33.3107 6.11422 33.2657 6.07139 33.2074C6.02856 33.1491 6.0031 33.0799 5.99797 33.0077C5.99284 32.9355 6.00824 32.8634 6.04238 32.7996C6.07653 32.7358 6.12804 32.683 6.19094 32.6472L8.44111 31.3439C8.52269 31.299 8.61781 31.2853 8.70872 31.3055C8.79963 31.3256 8.88012 31.3781 8.93514 31.4532C8.99016 31.5283 9.01596 31.6209 9.00772 31.7137C8.99949 31.8064 8.95777 31.893 8.89037 31.9572L8.27704 32.5146L10.3838 31.2979C10.466 31.2504 10.5629 31.2351 10.6556 31.255C10.7484 31.2748 10.8306 31.3283 10.8862 31.4052C10.9418 31.4821 10.9669 31.5768 10.9567 31.6711C10.9464 31.7655 10.9016 31.8526 10.8308 31.9158L8.16664 34.3017L12.1043 32.0285C12.189 31.9792 12.2894 31.9643 12.3848 31.9867C12.4802 32.0091 12.5634 32.0672 12.6172 32.1491C12.6711 32.2309 12.6916 32.3303 12.6745 32.4268C12.6574 32.5233 12.6039 32.6096 12.5252 32.6679L10.8577 33.9084L12.8993 32.73C12.9842 32.6821 13.0841 32.6683 13.1787 32.6915C13.2733 32.7146 13.3556 32.7729 13.4088 32.8545C13.462 32.9361 13.4822 33.0349 13.4651 33.1309C13.4481 33.2268 13.3952 33.3126 13.3171 33.3709L11.6933 34.5585L13.4781 33.5281C13.5635 33.4789 13.6646 33.4644 13.7603 33.4878C13.8561 33.5111 13.9392 33.5704 13.9924 33.6534C14.0455 33.7363 14.0647 33.8366 14.0459 33.9333C14.0271 34.0301 13.9718 34.1159 13.8914 34.1729L13.2014 34.6613L13.8277 34.3002C13.9131 34.2522 14.0135 34.2387 14.1084 34.2625C14.2034 34.2862 14.2857 34.3453 14.3384 34.4278C14.3911 34.5102 14.4104 34.6097 14.3921 34.7059C14.3738 34.802 14.3195 34.8875 14.2402 34.9449L13.9772 35.1305L14.0248 35.1036C14.1084 35.057 14.2064 35.0433 14.2996 35.0653C14.3928 35.0873 14.4744 35.1433 14.5283 35.2224C14.5823 35.3016 14.6046 35.398 14.591 35.4928C14.5774 35.5876 14.5289 35.6738 14.4549 35.7346L12.2614 37.4834L14.0248 36.4629C14.1054 36.4176 14.1997 36.4029 14.2903 36.4216C14.3809 36.4404 14.4616 36.4912 14.5177 36.5648C14.5737 36.6384 14.6012 36.7298 14.5952 36.8221C14.5891 36.9144 14.5499 37.0014 14.4848 37.0671L12.6915 38.8457L13.1071 38.6058C13.1951 38.5557 13.2993 38.5425 13.397 38.569C13.4947 38.5956 13.5779 38.6597 13.6285 38.7473C13.6791 38.835 13.693 38.9391 13.6671 39.037C13.6413 39.1348 13.5777 39.2185 13.4904 39.2697L10.515 40.987C10.4593 41.0196 10.3962 41.0373 10.3317 41.0384Z" fill="#546070"/>
<path d="M38.7567 41.0337C38.6798 41.0338 38.6046 41.0109 38.541 40.9678C38.4773 40.9248 38.428 40.8635 38.3996 40.7921C38.3712 40.7207 38.3649 40.6424 38.3815 40.5673C38.3981 40.4923 38.437 40.424 38.4929 40.3712L39.9297 39.0104L36.8185 40.8036C36.7351 40.8515 36.6366 40.8662 36.5428 40.8449C36.449 40.8235 36.3666 40.7677 36.3121 40.6884C36.2575 40.6092 36.2348 40.5123 36.2484 40.417C36.2619 40.3218 36.3109 40.2351 36.3854 40.1742L38.6256 38.3503L35.5367 40.1344C35.4515 40.1825 35.3512 40.1962 35.2563 40.1728C35.1613 40.1494 35.0789 40.0906 35.0259 40.0084C34.9729 39.9262 34.9533 39.8268 34.9712 39.7307C34.989 39.6345 35.0429 39.5488 35.1219 39.4911L35.8587 38.9621L34.872 39.5318C34.7885 39.5796 34.6901 39.5943 34.5963 39.573C34.5024 39.5516 34.4201 39.4958 34.3655 39.4165C34.311 39.3373 34.2882 39.2404 34.3018 39.1451C34.3154 39.0499 34.3643 38.9632 34.4388 38.9023L37.7623 36.2075L34.0823 38.3319C33.9967 38.381 33.8955 38.3952 33.7997 38.3716C33.704 38.348 33.621 38.2884 33.568 38.2051C33.5151 38.1219 33.4963 38.0214 33.5155 37.9246C33.5348 37.8279 33.5906 37.7423 33.6714 37.6856L33.768 37.6174C33.6819 37.6495 33.5871 37.6496 33.5009 37.6177C33.4147 37.5858 33.3428 37.5239 33.2984 37.4435C33.254 37.363 33.24 37.2692 33.2589 37.1793C33.2778 37.0894 33.3284 37.0092 33.4015 36.9534L35.2645 35.539L33.6783 36.4589C33.5957 36.5064 33.4984 36.5214 33.4053 36.5011C33.3123 36.4807 33.2302 36.4264 33.1749 36.3488C33.1197 36.2712 33.0954 36.1758 33.1067 36.0812C33.1179 35.9866 33.164 35.8996 33.2359 35.8372L35.4094 33.9589L34.0056 34.7692C33.9231 34.8167 33.8258 34.8317 33.7327 34.8113C33.6397 34.791 33.5575 34.7367 33.5023 34.6591C33.4471 34.5815 33.4227 34.4861 33.434 34.3915C33.4453 34.2969 33.4914 34.2099 33.5633 34.1474L34.5369 33.3041C34.4863 33.2717 34.4442 33.2275 34.4143 33.1753C34.3634 33.0873 34.3497 32.9826 34.376 32.8844C34.4023 32.7862 34.4665 32.7025 34.5546 32.6517L36.8047 31.3483C36.8872 31.3011 36.9844 31.2861 37.0773 31.3064C37.1702 31.3267 37.2522 31.3808 37.3074 31.4582C37.3627 31.5357 37.3872 31.6308 37.3761 31.7253C37.3651 31.8197 37.3194 31.9067 37.2479 31.9693L37.1137 32.0859L38.5267 31.2702C38.6093 31.2227 38.7066 31.2077 38.7996 31.2281C38.8926 31.2484 38.9748 31.3027 39.03 31.3803C39.0852 31.4579 39.1096 31.5533 39.0983 31.6479C39.087 31.7425 39.0409 31.8295 38.969 31.8919L36.7948 33.771L40.1543 31.8313C40.2388 31.7818 40.3391 31.7665 40.4346 31.7886C40.5301 31.8106 40.6135 31.8685 40.6676 31.9501C40.7218 32.0318 40.7426 32.1311 40.7259 32.2276C40.7091 32.3241 40.656 32.4106 40.5775 32.4692L38.7183 33.8822L41.0728 32.5236C41.1583 32.4745 41.2595 32.4603 41.3553 32.4839C41.4511 32.5076 41.5341 32.5672 41.5871 32.6504C41.64 32.7337 41.6588 32.8342 41.6395 32.9309C41.6203 33.0277 41.5645 33.1133 41.4837 33.17L41.4346 33.2044L41.5826 33.1186C41.6661 33.0716 41.7641 33.0575 41.8574 33.0791C41.9507 33.1008 42.0325 33.1565 42.0868 33.2355C42.141 33.3144 42.1637 33.4108 42.1504 33.5057C42.1371 33.6005 42.0888 33.687 42.015 33.748L38.693 36.4413L42.2335 34.3981C42.3186 34.35 42.419 34.3363 42.5139 34.3597C42.6089 34.3831 42.6913 34.4419 42.7443 34.5241C42.7973 34.6063 42.8169 34.7057 42.799 34.8018C42.7812 34.898 42.7272 34.9837 42.6483 35.0414L41.9084 35.5719L42.4206 35.2767C42.5039 35.2299 42.6018 35.216 42.6949 35.2376C42.788 35.2592 42.8697 35.3148 42.9239 35.3935C42.9782 35.4722 43.001 35.5683 42.988 35.6631C42.9751 35.7578 42.9272 35.8442 42.8537 35.9054L40.6135 37.7247L42.36 36.7181C42.4417 36.6684 42.539 36.6511 42.6328 36.6694C42.7266 36.6878 42.8102 36.7405 42.8671 36.8173C42.9241 36.8941 42.9502 36.9894 42.9405 37.0846C42.9308 37.1797 42.8859 37.2677 42.8146 37.3314L41.3779 38.6923L41.4546 38.6493C41.4982 38.6216 41.547 38.603 41.598 38.5946C41.649 38.5862 41.7012 38.5882 41.7514 38.6005C41.8016 38.6128 41.8488 38.6351 41.8902 38.6661C41.9316 38.6972 41.9662 38.7362 41.9921 38.781C42.018 38.8257 42.0345 38.8753 42.0408 38.9266C42.047 38.9779 42.0428 39.03 42.0284 39.0796C42.014 39.1293 41.9897 39.1755 41.9569 39.2155C41.9242 39.2555 41.8837 39.2885 41.8379 39.3125L38.9468 40.9823C38.889 41.0157 38.8234 41.0334 38.7567 41.0337Z" fill="#546070"/>
<path d="M5.83676 11.9548C5.75778 11.9549 5.68071 11.9305 5.61611 11.8851C5.5515 11.8396 5.5025 11.7753 5.47582 11.701C5.44914 11.6267 5.44607 11.5459 5.46704 11.4697C5.48801 11.3936 5.53199 11.3258 5.59296 11.2756L5.71946 11.1705L4.45063 11.9004C4.37134 11.9454 4.27859 11.9607 4.18904 11.9435C4.09948 11.9264 4.01899 11.8778 3.96202 11.8066C3.90504 11.7354 3.87531 11.6462 3.87817 11.5551C3.88102 11.4639 3.91628 11.3768 3.9776 11.3093L5.05553 10.1401L3.03 11.3116C2.94947 11.3564 2.85552 11.3706 2.76534 11.3518C2.67517 11.3329 2.59479 11.2822 2.53894 11.209C2.48308 11.1357 2.45548 11.0448 2.46118 10.9528C2.46689 10.8609 2.50552 10.774 2.57 10.7082L3.26383 10.0182C3.19606 9.99253 3.13695 9.94818 3.09335 9.89029C3.04976 9.8324 3.02347 9.76334 3.01753 9.69111C3.01159 9.61889 3.02625 9.54646 3.0598 9.48222C3.09335 9.41799 3.14443 9.36458 3.2071 9.32819L5.04173 8.26866C5.12226 8.22391 5.21621 8.20965 5.30638 8.2285C5.39656 8.24736 5.47693 8.29805 5.53279 8.37132C5.58864 8.44458 5.61625 8.53551 5.61054 8.62746C5.60484 8.71941 5.56621 8.80623 5.50173 8.87203L5.19506 9.17486L6.85643 8.22036C6.93572 8.17533 7.02847 8.16003 7.11802 8.17723C7.20758 8.19442 7.28807 8.24297 7.34504 8.31417C7.40202 8.38537 7.43175 8.47454 7.42889 8.56569C7.42604 8.65683 7.39079 8.74397 7.32946 8.81146L6.25 9.97909L9.29903 8.21576C9.38222 8.16858 9.48004 8.15419 9.57329 8.17543C9.66654 8.19667 9.74848 8.252 9.80303 8.33055C9.85758 8.40911 9.88079 8.50522 9.86811 8.60001C9.85543 8.69481 9.80777 8.78144 9.7345 8.84289L9.60876 8.94639L10.8753 8.21576C10.9549 8.17072 11.048 8.15562 11.1377 8.17319C11.2275 8.19076 11.308 8.23984 11.3647 8.31157C11.4215 8.38331 11.4507 8.47296 11.4471 8.56435C11.4436 8.65574 11.4074 8.74284 11.3453 8.80993L10.2926 9.92619L13.2581 8.22036C13.3414 8.17297 13.4394 8.15848 13.5328 8.17976C13.6263 8.20104 13.7083 8.25654 13.7629 8.33532C13.8174 8.41411 13.8405 8.51047 13.8275 8.60541C13.8145 8.70035 13.7665 8.78699 13.6928 8.84826L13.6284 8.9004L14.8083 8.22036C14.89 8.16891 14.9881 8.15017 15.083 8.16789C15.1779 8.18561 15.2626 8.23848 15.3202 8.31594C15.3778 8.3934 15.4041 8.48975 15.3937 8.58573C15.3834 8.68172 15.3372 8.77027 15.2645 8.83369L14.4257 9.63103L16.863 8.22036C16.9405 8.17612 17.031 8.16029 17.1189 8.17561C17.2068 8.19093 17.2866 8.23644 17.3445 8.3043C17.4025 8.37215 17.4349 8.45809 17.4363 8.54732C17.4377 8.63654 17.4079 8.72345 17.3521 8.79306L16.2075 10.2099L19.6575 8.22036C19.7365 8.17531 19.829 8.15985 19.9185 8.17676C20.0079 8.19366 20.0884 8.24182 20.1455 8.31263C20.2027 8.38344 20.2328 8.47227 20.2305 8.56323C20.2281 8.6542 20.1935 8.74137 20.1328 8.80916L19.038 10.0136L22.1484 8.22036C22.2306 8.1735 22.3273 8.15871 22.4197 8.17885C22.5122 8.19898 22.594 8.25262 22.6493 8.32943C22.7046 8.40624 22.7295 8.50079 22.7193 8.59488C22.709 8.68897 22.6643 8.77595 22.5938 8.83906L22.041 9.32743L23.96 8.22036C24.0417 8.17223 24.1383 8.15607 24.2312 8.17499C24.324 8.19392 24.4066 8.24659 24.463 8.32284C24.5193 8.39908 24.5454 8.49349 24.5361 8.58784C24.5269 8.68219 24.4831 8.76978 24.4131 8.83369L23.6158 9.58196L25.9717 8.22036C26.0529 8.17068 26.1497 8.15298 26.2432 8.1707C26.3367 8.18842 26.4203 8.24029 26.4777 8.31622C26.535 8.39216 26.5621 8.48672 26.5536 8.58152C26.5451 8.67631 26.5017 8.76456 26.4317 8.82909L25.5654 9.65403L28.0525 8.22036C28.1287 8.17636 28.2177 8.15991 28.3046 8.17378C28.3915 8.18766 28.471 8.23101 28.5297 8.29656C28.5884 8.3621 28.6228 8.44586 28.627 8.53376C28.6313 8.62165 28.6052 8.70834 28.5531 8.77926L27.41 10.318L31.0509 8.22036C31.1321 8.17068 31.2288 8.15298 31.3224 8.1707C31.4159 8.18842 31.4994 8.24029 31.5568 8.31622C31.6142 8.39216 31.6413 8.48672 31.6328 8.58152C31.6243 8.67631 31.5809 8.76456 31.5109 8.82909L30.6453 9.65326L33.1309 8.22036C33.2119 8.17233 33.3077 8.15579 33.4001 8.17391C33.4926 8.19203 33.5751 8.24354 33.6319 8.31861C33.6888 8.39367 33.716 8.48705 33.7085 8.58092C33.7009 8.67479 33.659 8.76258 33.5909 8.82756L32.7077 9.67703L35.2377 8.22036C35.3186 8.17306 35.414 8.15705 35.5059 8.17534C35.5979 8.19363 35.6799 8.24496 35.7365 8.31964C35.7932 8.39431 35.8205 8.48714 35.8133 8.58059C35.8062 8.67404 35.765 8.76163 35.6977 8.82679L34.7884 9.70769L37.2042 8.31389C37.285 8.26729 37.38 8.25175 37.4715 8.2702C37.5629 8.28865 37.6445 8.33982 37.7009 8.41411C37.7574 8.48841 37.7848 8.58073 37.778 8.67378C37.7712 8.76683 37.7308 8.85422 37.6642 8.91956L36.8477 9.71766L38.3266 8.86359C38.4015 8.82046 38.4887 8.80389 38.5742 8.81658C38.6597 8.82928 38.7384 8.87048 38.7975 8.93351C38.8566 8.99654 38.8927 9.07769 38.8999 9.16381C38.9071 9.24993 38.885 9.33595 38.8372 9.40793L38.1633 10.42L39.1553 9.84799C39.227 9.8052 39.3106 9.78695 39.3935 9.796C39.4765 9.80506 39.5542 9.84092 39.6149 9.89816C39.6756 9.9554 39.716 10.0309 39.7299 10.1132C39.7438 10.1955 39.7305 10.28 39.692 10.354L39.5341 10.6607C39.6033 10.66 39.6715 10.6773 39.7319 10.7109C39.7924 10.7445 39.8431 10.7932 39.8791 10.8524C39.93 10.9403 39.9439 11.0449 39.9177 11.1431C39.8915 11.2413 39.8274 11.325 39.7395 11.376L38.8257 11.9004C38.754 11.9432 38.6704 11.9615 38.5875 11.9524C38.5045 11.9434 38.4268 11.9075 38.3661 11.8502C38.3054 11.793 38.265 11.7175 38.2511 11.6353C38.2372 11.553 38.2505 11.4684 38.289 11.3944L38.4094 11.1598L37.1244 11.9004C37.0495 11.9435 36.9623 11.9601 36.8768 11.9474C36.7913 11.9347 36.7126 11.8935 36.6535 11.8305C36.5944 11.7675 36.5583 11.6863 36.5511 11.6002C36.5439 11.5141 36.566 11.4281 36.6138 11.3561L37.2877 10.3448L34.596 11.9004C34.5151 11.947 34.4201 11.9626 34.3287 11.9441C34.2372 11.9257 34.1556 11.8745 34.0992 11.8002C34.0428 11.7259 34.0154 11.6336 34.0221 11.5405C34.0289 11.4475 34.0694 11.3601 34.136 11.2947L34.9525 10.4966L32.5198 11.9004C32.4389 11.9477 32.3435 11.9637 32.2516 11.9454C32.1596 11.9271 32.0776 11.8758 32.021 11.8011C31.9643 11.7265 31.937 11.6336 31.9442 11.5402C31.9513 11.4467 31.9925 11.3591 32.0598 11.294L32.9653 10.4123L30.3862 11.9004C30.3052 11.9484 30.2093 11.965 30.1169 11.9469C30.0245 11.9287 29.942 11.8772 29.8851 11.8022C29.8283 11.7271 29.801 11.6337 29.8086 11.5399C29.8162 11.446 29.858 11.3582 29.9262 11.2932L30.8109 10.4437L28.2809 11.9004C28.1998 11.9467 28.1046 11.9617 28.0131 11.9427C27.9217 11.9237 27.8403 11.872 27.7843 11.7973C27.7283 11.7225 27.7015 11.6299 27.709 11.5368C27.7164 11.4437 27.7576 11.3566 27.8248 11.2917L28.6857 10.4667L26.2017 11.9004C26.1255 11.944 26.0367 11.9601 25.95 11.9461C25.8634 11.932 25.7842 11.8887 25.7256 11.8232C25.6671 11.7578 25.6328 11.6743 25.6285 11.5866C25.6242 11.4989 25.6501 11.4124 25.7019 11.3415L26.8411 9.80123L23.2033 11.9004C23.1222 11.9467 23.0269 11.9617 22.9355 11.9427C22.8441 11.9237 22.7627 11.872 22.7067 11.7973C22.6507 11.7225 22.6239 11.6299 22.6313 11.5368C22.6388 11.4437 22.68 11.3566 22.7471 11.2917L23.6089 10.466L21.1233 11.9004C21.0417 11.9485 20.9451 11.9647 20.8522 11.9458C20.7593 11.9269 20.6767 11.8742 20.6204 11.7979C20.5641 11.7217 20.538 11.6273 20.5472 11.5329C20.5564 11.4386 20.6002 11.351 20.6702 11.2871L21.4676 10.5388L19.1108 11.9004C19.0286 11.9473 18.9319 11.9621 18.8395 11.9419C18.747 11.9218 18.6652 11.8682 18.6099 11.7913C18.5546 11.7145 18.5297 11.62 18.5399 11.5259C18.5502 11.4318 18.5949 11.3448 18.6654 11.2817L19.2189 10.7933L17.3023 11.9004C17.2232 11.9455 17.1307 11.9609 17.0413 11.944C16.9519 11.9271 16.8714 11.8789 16.8142 11.8081C16.7571 11.7373 16.7269 11.6485 16.7293 11.5575C16.7316 11.4666 16.7662 11.3794 16.8269 11.3116L17.9217 10.1049L14.8068 11.9004C14.7293 11.9451 14.6386 11.9613 14.5504 11.9461C14.4622 11.931 14.3821 11.8855 14.324 11.8175C14.2658 11.7495 14.2333 11.6634 14.232 11.5739C14.2307 11.4844 14.2607 11.3974 14.3169 11.3277L15.4623 9.91086L12.0123 11.9004C11.931 11.951 11.8337 11.9694 11.7396 11.9519C11.6455 11.9345 11.5613 11.8824 11.5036 11.806C11.4459 11.7295 11.419 11.6343 11.428 11.539C11.437 11.4437 11.4813 11.3552 11.5523 11.2909L12.391 10.4936L9.95913 11.9004C9.87585 11.9478 9.77784 11.9623 9.6844 11.941C9.59097 11.9197 9.5089 11.8642 9.45435 11.7854C9.39981 11.7067 9.37675 11.6103 9.38972 11.5154C9.40269 11.4204 9.45075 11.3338 9.52443 11.2725L9.58806 11.2211L8.40893 11.9004C8.32933 11.9455 8.23625 11.9606 8.1465 11.943C8.05674 11.9254 7.97623 11.8763 7.91949 11.8046C7.86275 11.7329 7.83353 11.6432 7.8371 11.5518C7.84067 11.4604 7.8768 11.3733 7.93896 11.3062L8.9916 10.1907L6.02843 11.9004C5.97056 11.9354 5.90437 11.9542 5.83676 11.9548Z" fill="#51CB20"/>
<path d="M44.7703 28.8208C44.7067 28.8207 44.6442 28.8047 44.5883 28.7744C44.5325 28.744 44.485 28.7003 44.4503 28.6471C44.4155 28.5938 44.3946 28.5328 44.3893 28.4694C44.384 28.4061 44.3945 28.3424 44.4199 28.2842L44.7465 27.5474L42.6543 28.7541C42.578 28.7984 42.4887 28.815 42.4015 28.8011C42.3143 28.7872 42.2346 28.7436 42.1759 28.6777C42.1171 28.6118 42.0829 28.5277 42.079 28.4395C42.0751 28.3513 42.1017 28.2645 42.1544 28.1937L43.2462 26.7194L41.4399 27.7621C41.3645 27.8058 41.2765 27.8225 41.1904 27.8095C41.1042 27.7965 41.0251 27.7545 40.966 27.6905C40.9069 27.6265 40.8713 27.5442 40.8652 27.4573C40.8591 27.3704 40.8828 27.284 40.9324 27.2124L41.6339 26.1965L41.351 26.3598C41.2857 26.3975 41.2109 26.4151 41.1357 26.4105C41.0605 26.4059 40.9883 26.3792 40.9282 26.3338C40.8681 26.2884 40.8227 26.2263 40.7976 26.1553C40.7726 26.0842 40.7691 26.0074 40.7875 25.9343L40.9469 25.3011C40.8976 25.2684 40.8566 25.2245 40.8273 25.173C40.8022 25.1294 40.7859 25.0812 40.7794 25.0313C40.7729 24.9813 40.7763 24.9306 40.7894 24.882C40.8025 24.8334 40.825 24.7878 40.8557 24.7479C40.8865 24.708 40.9247 24.6745 40.9684 24.6494L41.2751 24.4731C41.3403 24.4356 41.4151 24.4182 41.4901 24.4229C41.5652 24.4277 41.6372 24.4544 41.6971 24.4997C41.7571 24.5451 41.8024 24.6071 41.8274 24.678C41.8525 24.7489 41.8561 24.8256 41.8378 24.8986L41.7512 25.2436L42.7256 24.6808C42.801 24.6375 42.8888 24.6211 42.9747 24.6343C43.0606 24.6475 43.1395 24.6895 43.1984 24.7534C43.2574 24.8173 43.2928 24.8993 43.299 24.986C43.3051 25.0727 43.2817 25.1589 43.2324 25.2305L42.5301 26.2464L44.4606 25.1332C44.5369 25.0889 44.6262 25.0723 44.7134 25.0862C44.8005 25.1001 44.8802 25.1437 44.939 25.2096C44.9977 25.2755 45.032 25.3596 45.0359 25.4478C45.0398 25.536 45.0131 25.6228 44.9604 25.6936L43.8687 27.1671L45.3836 26.2939C45.4537 26.2536 45.5346 26.2364 45.615 26.2449C45.6953 26.2533 45.7709 26.2869 45.8311 26.3409C45.8912 26.3949 45.9327 26.4665 45.9497 26.5455C45.9667 26.6245 45.9583 26.7068 45.9257 26.7807L45.5945 27.5275C45.6834 27.4989 45.7798 27.5038 45.8654 27.5413C45.951 27.5787 46.02 27.6462 46.0594 27.731C46.0988 27.8157 46.1058 27.9119 46.0792 28.0015C46.0526 28.0911 45.9942 28.1679 45.9149 28.2175L44.9643 28.7656C44.9057 28.801 44.8387 28.8201 44.7703 28.8208Z" fill="#D4E6E7"/>
<path d="M45.9457 26.0317C45.0165 24.5436 43.0968 24.7934 41.591 24.4746C39.6015 24.1679 37.5032 23.8888 35.4753 23.6089C32.1334 20.7423 29.9676 15.5428 25.5853 14.3529V11.8636C27.9474 11.2916 40.9302 13.4774 40.0232 10.2237C38.4692 6.12281 17.106 9.14041 11.77 8.26488C11.31 4.92911 4.91751 3.46171 6.07595 8.26028C4.34175 7.86084 0.371184 11.2111 3.41485 11.8559C6.85641 11.8643 10.3003 11.8498 13.7426 11.8559V14.3736C9.25455 15.0636 7.70511 20.6964 4.75191 23.6443C-1.01495 23.0171 1.04968 29.8342 0.711584 33.4077C0.43175 35.6908 2.56998 36.6814 4.56331 36.3386C4.61468 42.5486 14.3981 42.4773 14.8167 36.4599H32.9377C33.1079 42.5326 42.7656 42.1461 43.1796 36.3831C47.8401 36.4176 46.3206 29.027 45.9457 26.0317ZM45.12 27.0229C45.1917 27.3776 45.2243 27.739 45.2174 28.1008C42.6452 28.2955 41.2629 28.1469 41.6907 25.1423C43.05 25.3601 44.7367 25.3508 45.12 27.0229ZM28.9748 18.0605C30.6614 19.9404 32.414 21.7192 34.0417 23.6518H18.6884V14.9456C22.5294 14.9463 26.8212 13.9918 28.9748 18.0605ZM7.18838 6.14274C7.209 6.01137 7.2445 5.88276 7.29418 5.75941C8.03735 5.78999 8.75361 6.04609 9.34769 6.49364C9.94178 6.94119 10.3855 7.55899 10.62 8.26488C9.46078 8.27331 8.37595 8.25798 7.18915 8.22654C7.18608 7.53041 7.17458 6.84041 7.18838 6.14274ZM5.81758 11.3315C2.34765 11.9908 2.90961 9.21631 5.57915 8.78851C16.2734 9.46011 27.8976 7.45528 38.2261 9.55518C38.3174 9.64181 39.4865 11.1874 38.933 11.3346C27.8899 11.3335 16.8515 11.3325 5.81758 11.3315ZM22.9771 11.8559C23.4778 11.8559 23.9738 11.8559 24.4783 11.8605V14.3138C21.2261 14.4311 18.0919 14.3575 14.8551 14.369V11.8544L22.9771 11.8559ZM11.5538 15.933C13.1071 14.2195 15.5581 15.1886 17.579 14.9456V23.6518H5.76468C7.71661 21.1004 9.58885 18.4753 11.5538 15.933ZM11.1298 40.1314C4.76648 42.1961 3.65788 30.8953 10.3754 31.9802C14.3153 32.7169 14.947 38.7338 11.1298 40.1314ZM39.4099 40.336C32.9998 42.1178 32.1058 30.4929 38.8548 31.9128C42.7663 32.8771 43.2616 38.9453 39.4099 40.336ZM45.064 34.6329C44.9366 35.0135 44.6838 35.3396 44.3469 35.5578C44.01 35.7761 43.609 35.8736 43.2095 35.8343C43.0423 29.7699 33.4253 30.0267 32.9568 35.7943H14.8367C14.5783 29.5844 4.79791 29.8773 4.57251 35.9332C4.20113 35.9894 3.82173 35.9582 3.46454 35.8419C3.10736 35.7257 2.78227 35.5275 2.51518 35.2635C2.24808 34.9994 2.04637 34.6764 1.92611 34.3206C1.80584 33.9647 1.77036 33.5857 1.82248 33.2137C2.33998 30.7734 0.453984 24.9944 3.27608 24.069C13.6514 24.0613 24.088 24.0759 34.4902 24.069C36.449 24.5466 38.5704 24.6109 40.5744 24.9828C39.9971 28.7678 41.9997 29.0746 45.2051 28.8162C45.0633 30.7605 45.363 32.7224 45.064 34.6329Z" fill="#262626"/>
</g>
<defs>
<clipPath id="clip0_17_2900">
<rect width="46" height="46" fill="white" transform="translate(0.5 0.09375)"/>
</clipPath>
</defs>
</svg>
