<svg width="47" height="47" viewBox="0 0 47 47" fill="none" xmlns="http://www.w3.org/2000/svg">
<g clip-path="url(#clip0_17_2826)">
<mask id="mask0_17_2826" style="mask-type:luminance" maskUnits="userSpaceOnUse" x="0" y="0" width="47" height="47">
<path d="M46.5 0.09375H0.5V46.0938H46.5V0.09375Z" fill="white"/>
</mask>
<g mask="url(#mask0_17_2826)">
<path d="M37.8931 5.14614C37.8293 5.14636 37.7665 5.13067 37.7103 5.1005C37.6542 5.07032 37.6064 5.02661 37.5714 4.97332C37.5364 4.92004 37.5152 4.85886 37.5098 4.79532C37.5044 4.73179 37.5149 4.66791 37.5404 4.60947L38.015 3.5024L35.2642 5.09324C35.1842 5.13998 35.0901 5.15619 34.9991 5.13889C34.9081 5.12159 34.8265 5.07195 34.7693 4.99912C34.7121 4.9263 34.6831 4.83523 34.6879 4.74275C34.6926 4.65026 34.7306 4.56261 34.795 4.496L35.7978 3.4495L32.9511 5.09324C32.87 5.14292 32.7732 5.16062 32.6797 5.1429C32.5862 5.12518 32.5026 5.07331 32.4452 4.99738C32.3878 4.92144 32.3608 4.82688 32.3692 4.73208C32.3777 4.63728 32.4212 4.54904 32.4911 4.4845L34.003 3.03934L30.6159 4.9951C30.5369 5.04067 30.4442 5.05657 30.3545 5.03997C30.2649 5.02336 30.1841 4.97533 30.1266 4.90449C30.0692 4.83366 30.0389 4.74467 30.0411 4.6535C30.0434 4.56233 30.0781 4.47496 30.139 4.40707L31.7689 2.59007L31.5658 2.7066C31.4782 2.75243 31.3762 2.76264 31.2813 2.73509C31.1863 2.70754 31.1057 2.64437 31.0562 2.55877C31.0067 2.47318 30.9922 2.37177 31.0158 2.27574C31.0393 2.17971 31.099 2.09648 31.1824 2.04344L33.4663 0.724003C33.5453 0.678439 33.638 0.662532 33.7277 0.67914C33.8173 0.695748 33.8982 0.743781 33.9556 0.814614C34.013 0.885447 34.0433 0.97444 34.0411 1.06561C34.0388 1.15678 34.0041 1.24415 33.9432 1.31204L32.3163 3.12904L36.3743 0.783803C36.4555 0.734123 36.5522 0.71642 36.6458 0.734139C36.7393 0.751857 36.8229 0.803729 36.8802 0.879663C36.9376 0.955597 36.9647 1.05016 36.9562 1.14496C36.9477 1.23976 36.9043 1.328 36.8343 1.39254L35.3224 2.83847L37.7428 1.4416C37.8227 1.396 37.9162 1.38061 38.0065 1.39826C38.0967 1.4159 38.1776 1.46539 38.2344 1.5377C38.2912 1.61002 38.3201 1.70034 38.3159 1.79219C38.3116 1.88405 38.2745 1.97131 38.2112 2.03807L37.2084 3.0838L38.6275 2.265C38.6972 2.22479 38.7777 2.2075 38.8577 2.21558C38.9378 2.22366 39.0132 2.25671 39.0734 2.31004C39.1336 2.36337 39.1755 2.43429 39.1932 2.51275C39.2109 2.59121 39.2034 2.67325 39.1719 2.74724L38.6988 3.85277L39.27 3.52387C39.3136 3.49613 39.3624 3.47751 39.4134 3.46912C39.4645 3.46073 39.5166 3.46274 39.5669 3.47504C39.6171 3.48734 39.6643 3.50967 39.7056 3.54069C39.747 3.57171 39.7817 3.61077 39.8075 3.65553C39.8334 3.70029 39.85 3.74983 39.8562 3.80115C39.8624 3.85247 39.8582 3.90452 39.8438 3.95418C39.8294 4.00383 39.8051 4.05005 39.7724 4.09007C39.7396 4.13009 39.6992 4.16307 39.6533 4.18704L38.0847 5.094C38.0265 5.12792 37.9604 5.1459 37.8931 5.14614Z" fill="#563B36"/>
<path d="M34.6543 16.4176C34.5728 16.4176 34.4933 16.3915 34.4276 16.3433C34.3619 16.295 34.3132 16.227 34.2888 16.1492C34.2643 16.0714 34.2653 15.9878 34.2916 15.9106C34.3179 15.8334 34.3682 15.7666 34.4351 15.7199L36.1815 14.5071L33.1279 16.2704C33.0427 16.3198 32.9418 16.3345 32.846 16.3115C32.7503 16.2885 32.6671 16.2295 32.6136 16.1468C32.5602 16.0641 32.5406 15.964 32.559 15.8672C32.5774 15.7705 32.6323 15.6845 32.7124 15.6272L36.9336 12.5904L31.097 15.9599C31.011 16.0068 30.9104 16.0191 30.8157 15.9942C30.721 15.9692 30.6394 15.909 30.5877 15.8258C30.536 15.7426 30.5181 15.6428 30.5377 15.5469C30.5573 15.4509 30.6128 15.3661 30.693 15.3098L32.9799 13.781L29.7561 15.6387C29.6701 15.6856 29.5695 15.6979 29.4748 15.6729C29.3801 15.648 29.2985 15.5877 29.2468 15.5046C29.1951 15.4214 29.1772 15.3216 29.1968 15.2256C29.2164 15.1297 29.2719 15.0448 29.3521 14.9885L32.1795 13.1048L28.4758 15.2423C28.3903 15.2923 28.2887 15.3072 28.1925 15.284C28.0962 15.2607 28.0127 15.2012 27.9594 15.1177C27.9061 15.0343 27.8871 14.9334 27.9065 14.8363C27.9259 14.7392 27.982 14.6534 28.0633 14.5968L34.0364 10.3954L26.7906 14.5784C26.7046 14.6266 26.6033 14.6398 26.5078 14.6153C26.4123 14.5907 26.3299 14.5303 26.2778 14.4466C26.2256 14.3629 26.2078 14.2623 26.2279 14.1658C26.248 14.0692 26.3046 13.9842 26.3858 13.9282L30.5711 11.1192L26.0148 13.7496C25.9283 13.7979 25.8266 13.8109 25.7308 13.7858C25.635 13.7608 25.5526 13.6997 25.5009 13.6152C25.4492 13.5308 25.4321 13.4297 25.4533 13.333C25.4745 13.2362 25.5323 13.1515 25.6146 13.0964L26.8957 12.263L26.0148 12.7713C25.9286 12.8182 25.8278 12.8303 25.733 12.8051C25.6382 12.7799 25.5567 12.7193 25.5052 12.6358C25.4538 12.5523 25.4362 12.4523 25.4563 12.3563C25.4764 12.2603 25.5324 12.1756 25.613 12.1197L26.9233 11.2587L26.0178 11.78C25.9321 11.8291 25.8307 11.8431 25.7348 11.8192C25.639 11.7953 25.5561 11.7353 25.5034 11.6518C25.4507 11.5682 25.4323 11.4675 25.452 11.3707C25.4717 11.2739 25.528 11.1885 25.6092 11.1322L28.3976 9.2156L26.208 10.479C26.1225 10.5275 26.0217 10.5413 25.9264 10.5176C25.831 10.4939 25.7484 10.4346 25.6956 10.3517C25.6428 10.2689 25.6238 10.169 25.6425 10.0726C25.6612 9.97613 25.7163 9.89056 25.7963 9.83353L27.5412 8.60687L26.6358 9.12896C26.5542 9.17445 26.4588 9.18856 26.3675 9.16866C26.2762 9.14877 26.1953 9.09622 26.1401 9.0209C26.0848 8.94558 26.0589 8.85267 26.0674 8.75963C26.0758 8.66659 26.1179 8.57982 26.1857 8.51563L28.3217 6.57213C28.2317 6.59889 28.135 6.59171 28.05 6.55195C27.965 6.51219 27.8975 6.44261 27.8603 6.35641C27.8232 6.2702 27.819 6.17337 27.8485 6.08425C27.878 5.99514 27.9391 5.91995 28.0204 5.87293L30.9843 4.15713C31.0659 4.11165 31.1613 4.09753 31.2526 4.11743C31.3438 4.13733 31.4247 4.18988 31.48 4.2652C31.5352 4.34051 31.5611 4.43342 31.5527 4.52646C31.5443 4.6195 31.5022 4.70627 31.4343 4.77046L29.3314 6.68713L34.6436 3.62046C34.7289 3.57363 34.8288 3.56097 34.923 3.58505C35.0173 3.60913 35.0989 3.66816 35.1512 3.75016C35.2036 3.83215 35.2228 3.93099 35.205 4.02664C35.1872 4.12228 35.1337 4.20758 35.0553 4.26523L33.3134 5.4919L36.3993 3.71016C36.485 3.66114 36.5864 3.64712 36.6822 3.67102C36.7781 3.69492 36.861 3.7549 36.9137 3.83845C36.9664 3.922 36.9848 4.02268 36.9651 4.11947C36.9454 4.21627 36.8891 4.30172 36.8079 4.358L34.0172 6.2785L37.9778 3.9923C38.0642 3.9432 38.1662 3.92955 38.2625 3.95422C38.3587 3.97889 38.4416 4.03996 38.4937 4.12455C38.5458 4.20915 38.563 4.31066 38.5417 4.4077C38.5204 4.50473 38.4623 4.58972 38.3796 4.64473L37.0762 5.50033L39.0818 4.34266C39.1683 4.29235 39.2711 4.27787 39.3682 4.30232C39.4652 4.32677 39.5489 4.3882 39.6012 4.4735C39.6536 4.5588 39.6705 4.66119 39.6484 4.7588C39.6262 4.85641 39.5668 4.94149 39.4828 4.99586L38.2055 5.82617L40.0248 4.77506C40.1108 4.72684 40.2121 4.71363 40.3077 4.73817C40.4032 4.76271 40.4856 4.82311 40.5377 4.90683C40.5898 4.99054 40.6077 5.09113 40.5875 5.18767C40.5674 5.28421 40.5109 5.36928 40.4296 5.4252L36.2413 8.23657L41.0667 5.4505C41.1522 5.40056 41.2537 5.38564 41.35 5.40886C41.4462 5.43209 41.5298 5.49166 41.5831 5.5751C41.6364 5.65854 41.6554 5.75938 41.636 5.85648C41.6166 5.95359 41.5604 6.03943 41.4792 6.09603L35.5046 10.2996L42.1385 6.46633C42.2247 6.41732 42.3265 6.40359 42.4225 6.42803C42.5186 6.45246 42.6015 6.51315 42.6537 6.59737C42.706 6.68158 42.7236 6.78278 42.7029 6.87971C42.6822 6.97663 42.6247 7.06177 42.5426 7.11723L39.7105 9.004L42.7281 7.2652C42.8143 7.21619 42.916 7.20246 43.0121 7.22689C43.1082 7.25133 43.191 7.31202 43.2433 7.39623C43.2956 7.48045 43.3132 7.58164 43.2925 7.67857C43.2717 7.7755 43.2143 7.86063 43.1321 7.9161L40.8513 9.44023L43.1889 8.09167C43.274 8.04244 43.3747 8.02779 43.4703 8.05077C43.566 8.07374 43.6491 8.13257 43.7025 8.2151C43.7561 8.29776 43.7758 8.39786 43.7575 8.49464C43.7392 8.59142 43.6844 8.67745 43.6044 8.7349L39.3877 11.7693L43.6596 9.30376C43.7449 9.25752 43.8446 9.24537 43.9386 9.26976C44.0325 9.29416 44.1137 9.35329 44.1658 9.43521C44.2178 9.51714 44.2369 9.61576 44.2191 9.71117C44.2012 9.80659 44.1479 9.89169 44.0698 9.9493L42.3172 11.1698L43.8858 10.2651C43.9682 10.2185 44.065 10.2042 44.1575 10.2247C44.2499 10.2453 44.3315 10.2994 44.3865 10.3765C44.4414 10.4536 44.4659 10.5484 44.4551 10.6425C44.4443 10.7366 44.3991 10.8234 44.3281 10.8861L41.3404 13.4751L43.99 11.9418C44.0657 11.8981 44.1541 11.8816 44.2405 11.895C44.3269 11.9084 44.4061 11.951 44.465 12.0156C44.5239 12.0802 44.5589 12.163 44.5643 12.2503C44.5696 12.3375 44.545 12.424 44.4945 12.4953L43.8528 13.4L43.9969 13.3172C44.0406 13.2895 44.0893 13.2709 44.1404 13.2625C44.1914 13.2541 44.2436 13.2561 44.2938 13.2684C44.344 13.2807 44.3912 13.303 44.4326 13.334C44.4739 13.3651 44.5086 13.4041 44.5345 13.4489C44.5603 13.4936 44.5769 13.5432 44.5831 13.5945C44.5893 13.6458 44.5851 13.6979 44.5707 13.7475C44.5563 13.7972 44.532 13.8434 44.4993 13.8834C44.4666 13.9234 44.4261 13.9564 44.3803 13.9804L42.7174 14.9441C42.6416 14.9878 42.5533 15.0043 42.4669 14.9909C42.3805 14.9775 42.3013 14.9349 42.2424 14.8703C42.1835 14.8057 42.1485 14.7229 42.1431 14.6356C42.1378 14.5484 42.1624 14.4619 42.2129 14.3906L42.8546 13.4859L38.2546 16.1408C38.172 16.1883 38.0747 16.2033 37.9817 16.1829C37.8886 16.1626 37.8065 16.1083 37.7513 16.0307C37.696 15.9531 37.6717 15.8577 37.683 15.7631C37.6942 15.6685 37.7403 15.5815 37.8122 15.5191L40.7969 12.9293L34.8468 16.3663C34.7883 16.4002 34.7219 16.418 34.6543 16.4176Z" fill="#6D4941"/>
<path d="M28.6296 45.6875C28.5468 45.6874 28.4662 45.6604 28.4 45.6107C28.3338 45.561 28.2854 45.4911 28.2622 45.4116C28.239 45.3321 28.2421 45.2472 28.2712 45.1697C28.3002 45.0921 28.3536 45.0261 28.4234 44.9814L31.2294 43.1866L26.9866 45.6338C26.9007 45.6807 26.8 45.693 26.7053 45.6681C26.6106 45.6431 26.529 45.5829 26.4773 45.4997C26.4257 45.4165 26.4078 45.3167 26.4273 45.2208C26.4469 45.1248 26.5025 45.04 26.5826 44.9837L35.1608 39.2705L25.2041 45.0205C25.1175 45.0698 25.0152 45.0834 24.9187 45.0585C24.8223 45.0336 24.7393 44.9722 24.6874 44.8872C24.6354 44.8021 24.6186 44.7002 24.6405 44.6031C24.6624 44.5059 24.7213 44.421 24.8047 44.3665L31.5215 40.0371L24.5885 44.0392C24.5016 44.0878 24.3993 44.1008 24.303 44.0753C24.2068 44.0498 24.1242 43.9879 24.0728 43.9026C24.0214 43.8174 24.0052 43.7155 24.0276 43.6184C24.05 43.5214 24.1093 43.437 24.1929 43.3829L26.6792 41.8227L24.4812 43.0931C24.3944 43.1439 24.2912 43.1586 24.1937 43.1341C24.0962 43.1095 24.0122 43.0476 23.9599 42.9617C23.9076 42.8758 23.8912 42.7729 23.9141 42.675C23.937 42.5771 23.9975 42.4921 24.0825 42.4383L30.235 38.4816L24.4796 41.8043C24.3938 41.8507 24.2935 41.8627 24.1992 41.8377C24.1049 41.8127 24.0236 41.7527 23.972 41.6699C23.9204 41.5871 23.9023 41.4877 23.9214 41.3921C23.9405 41.2964 23.9954 41.2116 24.0748 41.1549L33.2043 35.0255L24.4789 40.0632C24.3928 40.1131 24.2906 40.1276 24.1941 40.1035C24.0975 40.0795 24.0141 40.0189 23.9614 39.9345C23.9087 39.85 23.891 39.7484 23.9118 39.6511C23.9327 39.5538 23.9906 39.4685 24.0733 39.4131L32.1839 33.946L24.4781 38.3927C24.3917 38.4409 24.2899 38.4539 24.1941 38.4289C24.0983 38.4038 24.016 38.3427 23.9643 38.2583C23.9125 38.1739 23.8955 38.0727 23.9167 37.976C23.9378 37.8793 23.9956 37.7945 24.0779 37.7395L27.9028 35.257L24.4773 37.2342C24.3913 37.2824 24.29 37.2957 24.1945 37.2711C24.099 37.2466 24.0166 37.1862 23.9645 37.1025C23.9123 37.0187 23.8945 36.9182 23.9146 36.8216C23.9347 36.7251 23.9913 36.64 24.0725 36.5841L29.0712 33.2399L24.4766 35.8972C24.3909 35.9431 24.2909 35.9548 24.1969 35.9298C24.1029 35.9048 24.022 35.845 23.9704 35.7625C23.9189 35.6801 23.9006 35.5811 23.9192 35.4857C23.9379 35.3903 23.9922 35.3055 24.071 35.2486L27.7794 32.7446L25.832 33.8686C25.7459 33.9184 25.6438 33.9329 25.5472 33.9089C25.4507 33.8849 25.3672 33.8242 25.3146 33.7398C25.2619 33.6554 25.2441 33.5538 25.265 33.4565C25.2859 33.3592 25.3438 33.2738 25.4265 33.2184L26.8249 32.2762C26.7468 32.2705 26.6724 32.2411 26.6116 32.1919C26.5508 32.1427 26.5064 32.0761 26.4846 32.001C26.4627 31.9259 26.4644 31.8459 26.4893 31.7717C26.5142 31.6976 26.5612 31.6328 26.624 31.5862L28.1972 30.4293C28.1237 30.4266 28.0526 30.4028 27.9923 30.3608C27.9319 30.3188 27.8849 30.2604 27.8569 30.1924C27.8289 30.1245 27.821 30.0499 27.8341 29.9776C27.8473 29.9052 27.881 29.8382 27.9312 29.7845L29.6332 27.9506C29.62 27.9348 29.6082 27.9179 29.5979 27.9001C29.5471 27.812 29.5333 27.7074 29.5596 27.6092C29.5859 27.511 29.6502 27.4273 29.7382 27.3764L30.7157 26.8121C30.7951 26.7666 30.8883 26.751 30.9783 26.7682C31.0682 26.7854 31.1491 26.8342 31.2061 26.9058C31.2632 26.9774 31.2928 27.0671 31.2894 27.1587C31.2861 27.2502 31.2501 27.3375 31.188 27.4048L30.2319 28.4321L33.3753 26.6189C33.46 26.5715 33.5596 26.5579 33.6539 26.581C33.7483 26.6042 33.8303 26.6623 33.8835 26.7436C33.9367 26.8249 33.957 26.9233 33.9403 27.019C33.9237 27.1147 33.8713 27.2005 33.7939 27.2591L32.6538 28.0971L35.2153 26.6205C35.3012 26.5715 35.4028 26.5576 35.4987 26.5818C35.5947 26.606 35.6775 26.6663 35.73 26.7502C35.7825 26.8341 35.8005 26.935 35.7803 27.0318C35.7601 27.1287 35.7032 27.214 35.6216 27.2698L34.9998 27.6885L36.8529 26.6151C36.9386 26.5692 37.0385 26.5575 37.1325 26.5825C37.2265 26.6075 37.3074 26.6673 37.359 26.7497C37.4106 26.8322 37.4288 26.9311 37.4102 27.0266C37.3915 27.122 37.3373 27.2068 37.2584 27.2637L33.5432 29.7738L38.7266 26.7838C38.8127 26.7339 38.9148 26.7194 39.0114 26.7435C39.1079 26.7675 39.1914 26.8281 39.2441 26.9126C39.2967 26.997 39.3145 27.0986 39.2936 27.1959C39.2727 27.2932 39.2148 27.3785 39.1322 27.4339L34.135 30.7773L40.2684 27.2376C40.3549 27.1873 40.4576 27.1729 40.5547 27.1973C40.6518 27.2218 40.7354 27.2832 40.7878 27.3685C40.8401 27.4538 40.857 27.5562 40.8349 27.6538C40.8128 27.7514 40.7534 27.8365 40.6693 27.8909L36.8513 30.3687L41.3494 27.7705C41.4353 27.7215 41.5369 27.7076 41.6328 27.7318C41.7288 27.756 41.8116 27.8163 41.8641 27.9002C41.9166 27.9841 41.9346 28.085 41.9144 28.1818C41.8942 28.2787 41.8373 28.364 41.7557 28.4198L33.6405 33.8893L42.6397 28.6943C42.7255 28.6479 42.8258 28.636 42.9201 28.6609C43.0144 28.6859 43.0957 28.7459 43.1473 28.8287C43.1989 28.9115 43.217 29.0109 43.1979 29.1066C43.1788 29.2023 43.1239 29.2871 43.0445 29.3437L33.9211 35.4686L43.7053 29.819C43.7921 29.766 43.8965 29.7497 43.9953 29.7737C44.0942 29.7976 44.1794 29.8598 44.2324 29.9467C44.2854 30.0335 44.3017 30.1378 44.2777 30.2366C44.2538 30.3355 44.1916 30.4208 44.1048 30.4737L37.9523 34.4305L44.3417 30.7421C44.4284 30.6951 44.53 30.6834 44.6251 30.7093C44.7203 30.7353 44.8018 30.797 44.8527 30.8815C44.9036 30.9661 44.9199 31.067 44.8982 31.1632C44.8766 31.2595 44.8187 31.3437 44.7365 31.3984L42.2448 32.9616L44.7472 31.5172C44.8337 31.4696 44.9352 31.4572 45.0306 31.4826C45.126 31.508 45.2079 31.5693 45.2593 31.6535C45.3106 31.7378 45.3275 31.8387 45.3064 31.9351C45.2853 32.0315 45.2278 32.1161 45.1459 32.1712L38.4291 36.4998L45.1605 32.6135C45.2466 32.5645 45.3484 32.5508 45.4445 32.5752C45.5405 32.5996 45.6234 32.6603 45.6757 32.7446C45.728 32.8288 45.7456 32.93 45.7248 33.0269C45.7041 33.1238 45.6466 33.209 45.5645 33.2644L36.9847 38.9784L45.4602 34.0855C45.5466 34.0393 45.6475 34.0279 45.742 34.0536C45.8366 34.0794 45.9177 34.1405 45.9686 34.2242C46.0196 34.308 46.0365 34.408 46.016 34.5039C45.9954 34.5997 45.9389 34.684 45.8581 34.7395L43.0498 36.5342L45.5154 35.1113C45.6009 35.0628 45.7017 35.049 45.797 35.0727C45.8923 35.0964 45.975 35.1558 46.0278 35.2386C46.0806 35.3214 46.0996 35.4214 46.0809 35.5178C46.0622 35.6143 46.0071 35.6998 45.9271 35.7568L38.9942 40.6206L45.5185 36.8547C45.6049 36.8056 45.7069 36.792 45.8031 36.8166C45.8994 36.8413 45.9823 36.9024 46.0344 36.987C46.0864 37.0716 46.1037 37.1731 46.0824 37.2701C46.0611 37.3672 46.0029 37.4521 45.9202 37.5072L44.9236 38.1611L45.5208 37.8169C45.6051 37.7692 45.7043 37.7552 45.7985 37.7776C45.8927 37.8001 45.9749 37.8574 46.0286 37.938C46.0823 38.0186 46.1035 38.1165 46.0879 38.2121C46.0724 38.3076 46.0212 38.3938 45.9448 38.4532L41.2942 42.0098L45.5185 39.5695C45.6023 39.5223 45.7008 39.5084 45.7944 39.5305C45.8879 39.5525 45.9698 39.609 46.0238 39.6886C46.0777 39.7682 46.0998 39.8651 46.0855 39.9602C46.0713 40.0553 46.0219 40.1416 45.9471 40.202L43.2722 42.3103L45.5185 41.0139C45.6022 40.967 45.7005 40.9532 45.7938 40.9752C45.8872 40.9972 45.969 41.0535 46.0229 41.1328C46.0768 41.2122 46.099 41.3089 46.0851 41.4038C46.0712 41.4988 46.0222 41.585 45.9478 41.6456L45.0493 42.3578L45.5185 42.0872C45.5942 42.0431 45.683 42.0266 45.7695 42.0406C45.856 42.0546 45.9351 42.0982 45.9931 42.1639C46.052 42.2283 46.0871 42.3109 46.0927 42.3981C46.0983 42.4852 46.0739 42.5716 46.0237 42.6431L45.0071 44.089L45.0715 44.0514C45.1591 44.0056 45.2611 43.9954 45.356 44.0229C45.451 44.0505 45.5316 44.1136 45.5811 44.1992C45.6306 44.2848 45.6451 44.3863 45.6215 44.4823C45.598 44.5783 45.5383 44.6615 45.4549 44.7146L43.8847 45.6185C43.8091 45.6623 43.7207 45.6789 43.6344 45.6656C43.548 45.6523 43.4687 45.6098 43.4098 45.5453C43.3508 45.4808 43.3156 45.3981 43.3101 45.3109C43.3046 45.2236 43.3291 45.1371 43.3795 45.0657L44.3969 43.6198L40.9032 45.6338C40.8195 45.6807 40.7212 45.6945 40.6278 45.6725C40.5344 45.6505 40.4527 45.5942 40.3988 45.5149C40.3448 45.4355 40.3226 45.3388 40.3365 45.2439C40.3504 45.1489 40.3994 45.0627 40.4738 45.0021L41.3708 44.2906L39.0455 45.6338C38.9617 45.681 38.8633 45.6949 38.7697 45.6728C38.6761 45.6508 38.5942 45.5943 38.5402 45.5147C38.4863 45.4351 38.4643 45.3382 38.4785 45.2431C38.4927 45.148 38.5421 45.0617 38.617 45.0013L41.2919 42.893L36.5447 45.6338C36.4603 45.6825 36.3606 45.6973 36.2658 45.6752C36.171 45.6531 36.0881 45.5957 36.0341 45.5147C35.98 45.4337 35.9588 45.3352 35.9748 45.2391C35.9907 45.1431 36.0426 45.0567 36.1199 44.9975L40.7705 41.4417L33.5087 45.6338C33.4224 45.682 33.3209 45.6951 33.2253 45.6703C33.1297 45.6455 33.0473 45.5848 32.9954 45.5007C32.9435 45.4166 32.926 45.3158 32.9467 45.2192C32.9673 45.1226 33.0244 45.0377 33.1062 44.9821L34.1028 44.3267L31.8381 45.63C31.7528 45.6768 31.6529 45.6895 31.5587 45.6654C31.4644 45.6413 31.3828 45.5823 31.3305 45.5003C31.2781 45.4183 31.2589 45.3195 31.2767 45.2238C31.2945 45.1282 31.348 45.0429 31.4264 44.9852L38.3624 40.1207L28.8213 45.6338C28.7632 45.6683 28.6971 45.6868 28.6296 45.6875Z" fill="#51CB20"/>
<path d="M6.71447 45.6874C6.63139 45.6873 6.5506 45.6603 6.48425 45.6103C6.4179 45.5603 6.36958 45.4901 6.34658 45.4103C6.32357 45.3304 6.32712 45.2453 6.35669 45.1677C6.38626 45.09 6.44025 45.0241 6.51054 44.9798L7.0472 44.6417L5.32374 45.6338C5.23704 45.6814 5.13526 45.6937 5.0397 45.6681C4.94414 45.6425 4.86219 45.5809 4.81099 45.4962C4.7598 45.4116 4.74332 45.3104 4.76501 45.2138C4.7867 45.1173 4.84488 45.0329 4.92737 44.9783L6.26597 44.1349L3.6777 45.6338C3.63466 45.6599 3.5869 45.6773 3.53713 45.685C3.48737 45.6926 3.43659 45.6904 3.38768 45.6784C3.33877 45.6665 3.29269 45.645 3.25209 45.6152C3.21148 45.5855 3.17713 45.548 3.151 45.505C3.12488 45.4619 3.10748 45.4142 3.09982 45.3644C3.09215 45.3146 3.09436 45.2639 3.10632 45.2149C3.13047 45.1162 3.19288 45.031 3.2798 44.9783L7.47654 42.3064L2.43877 45.2121C2.35235 45.2659 2.24811 45.2831 2.14898 45.2601C2.04984 45.237 1.96393 45.1755 1.91015 45.089C1.85637 45.0026 1.83912 44.8984 1.8622 44.7993C1.88527 44.7001 1.94679 44.6142 2.0332 44.5604L10.6889 38.8603L1.61 44.1004C1.52398 44.1468 1.42352 44.1585 1.32914 44.1332C1.23476 44.108 1.15359 44.0476 1.10221 43.9645C1.05082 43.8814 1.03311 43.7819 1.05268 43.6861C1.07225 43.5904 1.12762 43.5058 1.2075 43.4495L9.9774 37.665L1.4812 42.5709C1.39465 42.6178 1.29337 42.6296 1.19835 42.6039C1.10333 42.5782 1.02185 42.5169 0.970802 42.4327C0.919749 42.3485 0.903033 42.248 0.924119 42.1518C0.945206 42.0556 1.00248 41.9713 1.08407 41.9162L5.3935 39.17L1.4835 41.4278C1.39695 41.4747 1.29567 41.4865 1.20065 41.4608C1.10563 41.4351 1.02415 41.3738 0.973102 41.2896C0.922049 41.2054 0.905333 41.1049 0.926419 41.0087C0.947506 40.9125 1.00478 40.8282 1.08637 40.7731L4.50877 38.5965L1.4812 40.3438C1.39511 40.3913 1.29406 40.4039 1.19892 40.379C1.10379 40.3541 1.02186 40.2937 0.970073 40.2101C0.918285 40.1265 0.9006 40.0262 0.920675 39.9299C0.94075 39.8337 0.99705 39.7488 1.07793 39.6929L8.66794 34.649L1.4812 38.7943C1.39465 38.8412 1.29337 38.853 1.19835 38.8273C1.10333 38.8016 1.02185 38.7403 0.970802 38.6561C0.919749 38.5719 0.903033 38.4714 0.924119 38.3752C0.945206 38.279 1.00248 38.1947 1.08407 38.1396L3.59184 36.5403L1.4812 37.7586C1.3955 37.8084 1.29382 37.8232 1.1975 37.7996C1.10118 37.7761 1.01771 37.7162 0.964632 37.6325C0.91155 37.5487 0.892978 37.4477 0.912818 37.3505C0.932658 37.2534 0.989366 37.1677 1.07103 37.1115L8.51844 31.9511L1.4812 36.0144C1.39448 36.0678 1.29011 36.0845 1.19104 36.0609C1.09198 36.0374 1.00634 35.9754 0.952967 35.8887C0.899592 35.8019 0.882853 35.6976 0.906433 35.5985C0.930012 35.4994 0.991979 35.4138 1.0787 35.3604L3.48987 33.7742L1.5203 34.9096C1.43447 34.9579 1.33336 34.9713 1.23793 34.947C1.1425 34.9228 1.06007 34.8627 1.00772 34.7793C0.955374 34.6959 0.937128 34.5956 0.956766 34.4991C0.976404 34.4026 1.03242 34.3173 1.1132 34.261L4.00814 32.2792L1.75184 33.5825C1.66651 33.6305 1.56608 33.644 1.47113 33.6202C1.37618 33.5965 1.29391 33.5373 1.24117 33.4549C1.18843 33.3725 1.16922 33.273 1.18748 33.1768C1.20573 33.0807 1.26008 32.9951 1.33937 32.9378L3.37334 31.5026L2.27317 32.1404C2.19085 32.1874 2.09404 32.2023 2.00143 32.1821C1.90881 32.1619 1.82697 32.1081 1.77169 32.0311C1.71642 31.9541 1.69163 31.8593 1.70212 31.7651C1.71262 31.6709 1.75764 31.5839 1.8285 31.521L4.1032 29.5108C4.02779 29.5221 3.95073 29.5101 3.88226 29.4766C3.81379 29.443 3.75715 29.3894 3.71987 29.3229C3.66904 29.2349 3.65526 29.1303 3.68157 29.0321C3.70789 28.9339 3.77213 28.8501 3.86017 28.7993L6.946 27.0176C7.02832 26.9706 7.12513 26.9557 7.21774 26.9759C7.31036 26.9961 7.3922 27.0499 7.44748 27.1269C7.50275 27.2039 7.52754 27.2987 7.51705 27.3929C7.50656 27.4871 7.46153 27.5741 7.39067 27.637L5.221 29.5476L10.2956 26.6189C10.3807 26.5725 10.4803 26.56 10.5743 26.5841C10.6683 26.6082 10.7496 26.667 10.8019 26.7487C10.8542 26.8304 10.8736 26.9289 10.8562 27.0243C10.8388 27.1197 10.7858 27.205 10.7081 27.2629L8.6733 28.6996L12.2767 26.6189C12.3622 26.5728 12.462 26.5609 12.556 26.5856C12.6499 26.6103 12.731 26.6698 12.7828 26.7519C12.8346 26.8341 12.8533 26.9329 12.835 27.0283C12.8168 27.1238 12.763 27.2087 12.6845 27.266L9.78957 29.2486L14.3451 26.6189C14.4314 26.5689 14.5338 26.5544 14.6306 26.5787C14.7274 26.603 14.8109 26.664 14.8634 26.7488C14.9159 26.8336 14.9332 26.9356 14.9117 27.033C14.8903 27.1304 14.8317 27.2157 14.7484 27.2706L12.3434 28.8553L16.1821 26.6388C16.2677 26.589 16.3694 26.5742 16.4658 26.5978C16.5621 26.6213 16.6455 26.6812 16.6986 26.7649C16.7517 26.8487 16.7703 26.9497 16.7504 27.0469C16.7306 27.144 16.6739 27.2297 16.5922 27.2859L9.14634 32.4471L18.2697 27.1816C18.3565 27.132 18.4592 27.1183 18.556 27.1434C18.6528 27.1684 18.7359 27.2303 18.7877 27.3158C18.8395 27.4013 18.8559 27.5037 18.8333 27.6011C18.8107 27.6985 18.751 27.7832 18.6668 27.8371L16.1713 29.428L18.8048 27.9077C18.8909 27.8601 18.992 27.8475 19.0871 27.8724C19.1822 27.8973 19.2642 27.9578 19.3159 28.0414C19.3677 28.125 19.3854 28.2253 19.3653 28.3215C19.3453 28.4178 19.289 28.5026 19.2081 28.5586L11.6181 33.6063L19.6037 28.9971C19.6467 28.971 19.6945 28.9536 19.7443 28.9459C19.794 28.9382 19.8448 28.9405 19.8937 28.9524C19.9426 28.9644 19.9887 28.9859 20.0293 29.0156C20.0699 29.0454 20.1043 29.0829 20.1304 29.1259C20.1565 29.1689 20.1739 29.2167 20.1816 29.2665C20.1892 29.3162 20.187 29.367 20.1751 29.4159C20.1631 29.4648 20.1416 29.5109 20.1119 29.5515C20.0821 29.5921 20.0446 29.6265 20.0016 29.6526L16.5792 31.8292L20.1649 29.7592C20.2518 29.7064 20.3561 29.6903 20.4549 29.7145C20.5038 29.7264 20.5499 29.7479 20.5905 29.7777C20.6311 29.8075 20.6655 29.8449 20.6916 29.888C20.7177 29.931 20.7351 29.9788 20.7428 30.0285C20.7504 30.0783 20.7482 30.1291 20.7363 30.178C20.7243 30.2269 20.7028 30.273 20.6731 30.3136C20.6433 30.3542 20.6058 30.3885 20.5628 30.4147L16.2518 33.1616L20.7568 30.5611C20.843 30.5129 20.9445 30.4998 21.0401 30.5246C21.1357 30.5494 21.2181 30.6102 21.27 30.6942C21.3219 30.7783 21.3394 30.8791 21.3188 30.9757C21.2981 31.0723 21.241 31.1573 21.1593 31.2128L12.3924 36.9919L21.5832 31.6843C21.6697 31.6325 21.7731 31.6168 21.871 31.6407C21.9689 31.6646 22.0535 31.7261 22.1064 31.8119C22.1593 31.8977 22.1763 32.0008 22.1537 32.099C22.1312 32.1973 22.0708 32.2827 21.9857 32.3367L13.3347 38.0361L22.4074 32.7982C22.4943 32.7455 22.5986 32.7294 22.6974 32.7535C22.7463 32.7655 22.7924 32.787 22.833 32.8168C22.8736 32.8465 22.908 32.884 22.9341 32.927C22.9602 32.9701 22.9776 33.0178 22.9853 33.0676C22.9929 33.1174 22.9907 33.1681 22.9788 33.2171C22.9668 33.266 22.9453 33.312 22.9156 33.3526C22.8858 33.3933 22.8483 33.4276 22.8053 33.4537L18.6116 36.1271L22.9939 33.5971C23.0807 33.5484 23.1831 33.5355 23.2794 33.5609C23.3756 33.5864 23.4582 33.6484 23.5096 33.7336C23.561 33.8189 23.5772 33.9208 23.5548 34.0178C23.5324 34.1148 23.4731 34.1993 23.3895 34.2534L22.0463 35.0967L23.4876 34.2641C23.5307 34.2381 23.5785 34.2208 23.6283 34.2132C23.678 34.2057 23.7288 34.208 23.7777 34.2201C23.8266 34.2321 23.8726 34.2537 23.9131 34.2836C23.9537 34.3134 23.9879 34.351 24.0139 34.394C24.04 34.4371 24.0572 34.4849 24.0648 34.5347C24.0724 34.5845 24.07 34.6352 24.058 34.6841C24.0459 34.733 24.0243 34.779 23.9945 34.8195C23.9646 34.8601 23.9271 34.8943 23.884 34.9204L23.3642 35.2485L23.9607 34.9043C24.0462 34.8552 24.1474 34.8409 24.2432 34.8646C24.339 34.8882 24.422 34.9478 24.4749 35.0311C24.5279 35.1143 24.5467 35.2148 24.5274 35.3115C24.5082 35.4083 24.4524 35.4939 24.3716 35.5506L17.2937 40.4871L24.0519 36.5871C24.1382 36.5402 24.2393 36.5283 24.3342 36.5538C24.4291 36.5793 24.5105 36.6402 24.5618 36.724C24.613 36.8078 24.6302 36.9081 24.6096 37.0042C24.589 37.1003 24.5324 37.1848 24.4513 37.2403L24.1048 37.4649C24.1917 37.4316 24.2877 37.4311 24.375 37.4634C24.4623 37.4956 24.5348 37.5586 24.5791 37.6404C24.6234 37.7222 24.6364 37.8174 24.6157 37.9081C24.595 37.9988 24.542 38.0789 24.4667 38.1335L20.3428 41.0928L24.0519 38.9515C24.1353 38.9045 24.2334 38.8904 24.3267 38.912C24.42 38.9337 24.5018 38.9895 24.556 39.0684C24.6103 39.1474 24.633 39.2437 24.6197 39.3386C24.6064 39.4335 24.5581 39.5199 24.4843 39.5809L20.8334 42.5364L24.0534 40.6796C24.1376 40.6322 24.2366 40.6183 24.3305 40.6408C24.4245 40.6632 24.5065 40.7203 24.5601 40.8006C24.6138 40.881 24.6352 40.9786 24.62 41.074C24.6048 41.1693 24.5541 41.2555 24.4782 41.3151L23.516 42.0542L24.0527 41.7437C24.133 41.6979 24.2271 41.6828 24.3178 41.7009C24.4084 41.7191 24.4894 41.7694 24.5459 41.8426C24.6023 41.9158 24.6305 42.0069 24.6251 42.0992C24.6197 42.1915 24.5811 42.2787 24.5165 42.3448L23.3274 43.5477L24.0005 43.159C24.0442 43.1312 24.0929 43.1126 24.144 43.1042C24.195 43.0958 24.2472 43.0978 24.2974 43.1101C24.3476 43.1224 24.3948 43.1448 24.4362 43.1758C24.4775 43.2068 24.5122 43.2459 24.538 43.2906C24.5639 43.3354 24.5805 43.3849 24.5867 43.4362C24.5929 43.4876 24.5887 43.5396 24.5743 43.5893C24.5599 43.6389 24.5356 43.6851 24.5029 43.7252C24.4702 43.7652 24.4297 43.7982 24.3839 43.8221L21.2405 45.6368C21.1602 45.6832 21.0658 45.6988 20.9748 45.6808C20.8838 45.6629 20.8025 45.6126 20.7457 45.5392C20.689 45.4658 20.6608 45.3744 20.6664 45.2818C20.6719 45.1893 20.7109 45.1018 20.7759 45.0358L21.9666 43.8321L18.8409 45.6338C18.7566 45.6821 18.6572 45.6967 18.5627 45.6746C18.4681 45.6524 18.3855 45.5953 18.3315 45.5146C18.2775 45.4339 18.2561 45.3357 18.2716 45.2399C18.2872 45.144 18.3386 45.0576 18.4154 44.9982L19.3783 44.2591L16.997 45.6338C16.9135 45.6816 16.8151 45.6963 16.7213 45.675C16.6275 45.6536 16.5451 45.5978 16.4906 45.5185C16.436 45.4393 16.4133 45.3424 16.4269 45.2471C16.4404 45.1519 16.4893 45.0652 16.5639 45.0043L20.2147 42.0488L14.0047 45.6338C13.9196 45.6819 13.8193 45.6956 13.7243 45.6722C13.6294 45.6488 13.547 45.59 13.494 45.5078C13.441 45.4256 13.4214 45.3262 13.4392 45.2301C13.4571 45.1339 13.511 45.0482 13.59 44.9905L17.7146 42.0304L11.4732 45.6338C11.3868 45.6806 11.2858 45.6926 11.1909 45.6671C11.096 45.6416 11.0145 45.5807 10.9633 45.4968C10.912 45.413 10.8949 45.3127 10.9155 45.2167C10.936 45.1206 10.9927 45.0361 11.0738 44.9806L11.3475 44.8027L9.90764 45.6338C9.82224 45.6811 9.72203 45.694 9.62744 45.6699C9.53284 45.6458 9.45099 45.5866 9.39857 45.5043C9.34616 45.4219 9.32713 45.3227 9.34536 45.2268C9.36359 45.1309 9.41772 45.0456 9.4967 44.9882L16.5723 40.054L6.90614 45.6338C6.84809 45.6682 6.78197 45.6867 6.71447 45.6874Z" fill="#0077B6"/>
<path d="M12.259 29.5268C12.1837 29.5268 12.1101 29.5046 12.0473 29.463C11.9845 29.4214 11.9354 29.3623 11.906 29.2929C11.8767 29.2236 11.8684 29.1471 11.8822 29.0731C11.896 28.9991 11.9314 28.9308 11.9838 28.8767L12.8593 27.972L11.3329 28.8537C11.2513 28.8992 11.1559 28.9133 11.0646 28.8934C10.9733 28.8735 10.8925 28.8209 10.8372 28.7456C10.7819 28.6703 10.7561 28.5774 10.7645 28.4844C10.7729 28.3913 10.815 28.3046 10.8829 28.2404L12.1578 27.0804L10.7679 27.8831C10.6884 27.9292 10.595 27.9452 10.5047 27.9282C10.4145 27.9112 10.3333 27.8624 10.276 27.7906C10.2187 27.7188 10.1891 27.6288 10.1925 27.537C10.196 27.4452 10.2323 27.3577 10.2949 27.2905L11.5982 25.8951L10.6851 26.4218C10.6208 26.4587 10.5473 26.4762 10.4734 26.4722C10.3994 26.4682 10.3282 26.4428 10.2684 26.3992C10.2085 26.3556 10.1626 26.2955 10.1361 26.2263C10.1097 26.1572 10.1038 26.0818 10.1193 26.0094L10.3616 24.8816C10.2936 24.8563 10.2342 24.8122 10.1903 24.7545C10.1464 24.6967 10.1198 24.6277 10.1135 24.5555C10.1073 24.4832 10.1216 24.4107 10.155 24.3463C10.1883 24.2819 10.2392 24.2282 10.3018 24.1916L10.6851 23.9685C10.7493 23.9314 10.8229 23.9137 10.897 23.9176C10.9711 23.9215 11.0425 23.9468 11.1025 23.9905C11.1624 24.0342 11.2085 24.0943 11.2349 24.1636C11.2614 24.2329 11.2672 24.3084 11.2516 24.381L11.0477 25.327L13.4244 23.9547C13.5039 23.9081 13.5976 23.8917 13.6883 23.9085C13.7789 23.9254 13.8605 23.9743 13.918 24.0464C13.9755 24.1185 14.005 24.209 14.0012 24.3011C13.9975 24.3932 13.9606 24.4809 13.8974 24.5481L12.5941 25.9427L14.8481 24.6393C14.9297 24.5938 15.0251 24.5797 15.1163 24.5996C15.2076 24.6195 15.2885 24.6721 15.3437 24.7474C15.399 24.8227 15.4249 24.9156 15.4165 25.0087C15.4081 25.1017 15.366 25.1885 15.2981 25.2527L14.027 26.4134L14.8519 25.9373C14.9319 25.8917 15.0257 25.8763 15.116 25.8942C15.2064 25.912 15.2873 25.9617 15.344 26.0343C15.4007 26.1069 15.4293 26.1975 15.4247 26.2895C15.4201 26.3815 15.3825 26.4687 15.3188 26.5353L14.4433 27.44L14.7499 27.2629C14.7935 27.2373 14.8418 27.2206 14.8919 27.2138C14.9419 27.2069 14.9929 27.21 15.0418 27.223C15.0906 27.2359 15.1365 27.2583 15.1766 27.289C15.2168 27.3198 15.2505 27.3581 15.2758 27.4019C15.301 27.4457 15.3174 27.494 15.3239 27.5441C15.3304 27.5943 15.327 27.6452 15.3137 27.694C15.3005 27.7428 15.2777 27.7885 15.2467 27.8284C15.2158 27.8684 15.1772 27.9018 15.1333 27.9268L12.4499 29.4747C12.3921 29.5088 12.3262 29.5268 12.259 29.5268Z" fill="#DAAB94"/>
<path d="M3.40338 13.5104C3.32174 13.5103 3.24227 13.484 3.17655 13.4356C3.11083 13.3872 3.06228 13.319 3.03799 13.2411C3.01369 13.1631 3.01491 13.0795 3.04147 13.0023C3.06803 12.9251 3.11854 12.8584 3.18565 12.8119L10.7963 7.54111L3.01468 12.033C2.92916 12.079 2.82933 12.0909 2.73538 12.0662C2.64142 12.0415 2.56035 11.9822 2.50855 11.9C2.45675 11.8178 2.43808 11.719 2.45632 11.6236C2.47456 11.5282 2.52835 11.4433 2.60681 11.386L9.95071 6.35431L3.01468 10.3587C2.92942 10.4073 2.82875 10.4214 2.73342 10.398C2.63809 10.3746 2.55537 10.3155 2.50229 10.233C2.44921 10.1504 2.42983 10.0506 2.44813 9.95415C2.46644 9.85771 2.52104 9.77198 2.60068 9.71461L8.83905 5.28174L3.02388 8.63897C2.93843 8.68745 2.83764 8.70127 2.7423 8.67759C2.64695 8.6539 2.56435 8.59451 2.51152 8.51169C2.4587 8.42886 2.43969 8.32891 2.45842 8.23247C2.47715 8.13604 2.53219 8.05047 2.61218 7.99344L6.03305 5.59761L3.19638 7.23597C3.11281 7.28409 3.01417 7.29894 2.92014 7.27757C2.8261 7.25619 2.74358 7.20016 2.68902 7.12064C2.63446 7.04113 2.61188 6.94397 2.62577 6.84854C2.63966 6.75312 2.68901 6.66643 2.76398 6.60577L6.38801 3.68477L4.04431 5.03487C3.9607 5.08153 3.86266 5.09521 3.76947 5.07322C3.67628 5.05123 3.59469 4.99516 3.54076 4.91605C3.48683 4.83693 3.46446 4.7405 3.47805 4.64572C3.49165 4.55094 3.54022 4.46468 3.61421 4.40391L5.07088 3.24087C5.02018 3.20816 4.9781 3.16372 4.94821 3.11131C4.89732 3.02335 4.88343 2.91879 4.90959 2.82061C4.93575 2.72242 4.99983 2.63863 5.08775 2.58767L8.02255 0.894105C8.10616 0.847444 8.2042 0.833763 8.29739 0.855753C8.39058 0.877743 8.47217 0.933813 8.5261 1.01293C8.58003 1.09205 8.6024 1.18848 8.5888 1.28326C8.57521 1.37804 8.52664 1.4643 8.45265 1.52507L8.09001 1.81334L10.2773 0.553705C10.3609 0.506457 10.4591 0.492267 10.5526 0.51394C10.6461 0.535613 10.728 0.591573 10.7823 0.670758C10.8365 0.749944 10.8591 0.846594 10.8455 0.941607C10.8319 1.03662 10.7832 1.12308 10.7089 1.18391L7.08491 4.10414L13.2389 0.553705C13.3242 0.506869 13.4241 0.494209 13.5184 0.518291C13.6126 0.542374 13.6942 0.601397 13.7466 0.683396C13.7989 0.765395 13.8182 0.864235 13.8003 0.95988C13.7825 1.05552 13.729 1.14082 13.6506 1.19847L10.2367 3.59201L15.4975 0.553705C15.5829 0.50364 15.6842 0.48849 15.7804 0.511421C15.8767 0.534352 15.9603 0.593589 16.0138 0.676749C16.0674 0.759909 16.0867 0.860553 16.0678 0.957641C16.0489 1.05473 15.9932 1.14074 15.9123 1.19771L9.67548 5.62827L18.1839 0.715472C18.2695 0.668338 18.3699 0.655657 18.4645 0.680021C18.5591 0.704385 18.6408 0.763955 18.693 0.846561C18.7452 0.929166 18.7638 1.02857 18.7452 1.12447C18.7265 1.22037 18.6719 1.30553 18.5926 1.36254L11.2441 6.398L18.5006 2.20817C18.5863 2.1583 18.688 2.14358 18.7843 2.16709C18.8806 2.1906 18.9641 2.25052 19.0171 2.33426C19.0702 2.418 19.0888 2.51905 19.069 2.6162C19.0491 2.71334 18.9924 2.79902 18.9107 2.85524L11.3008 8.12454L18.9199 3.72541C19.0057 3.67322 19.1085 3.65676 19.2063 3.67957C19.3041 3.70238 19.389 3.76263 19.4428 3.84738C19.4966 3.93212 19.515 4.0346 19.4941 4.13279C19.4732 4.23098 19.4146 4.31704 19.3309 4.37247L13.84 8.18357L20.4487 4.36787C20.5342 4.31877 20.6355 4.30454 20.7312 4.32816C20.827 4.35177 20.91 4.41141 20.963 4.49467C21.0159 4.57792 21.0347 4.67838 21.0154 4.77514C20.9962 4.8719 20.9404 4.95752 20.8596 5.01417L16.1515 8.29704L21.4415 5.24571C21.5261 5.19858 21.6255 5.18524 21.7195 5.20837C21.8136 5.2315 21.8954 5.28938 21.9485 5.37038C22.0017 5.45138 22.0222 5.54949 22.0059 5.64498C21.9896 5.74047 21.9378 5.82626 21.8609 5.88511L17.0462 9.46084L22.1898 6.49154C22.2753 6.4416 22.3768 6.42668 22.473 6.4499C22.5693 6.47313 22.6528 6.5327 22.7062 6.61614C22.7595 6.69958 22.7784 6.80042 22.7591 6.89752C22.7397 6.99463 22.6835 7.08047 22.6022 7.13707L20.6342 8.52167L22.4589 7.46904C22.5431 7.42226 22.6419 7.40893 22.7355 7.4317C22.8292 7.45447 22.9108 7.51167 22.9641 7.5919C23.0175 7.67214 23.0387 7.76953 23.0235 7.86468C23.0083 7.95983 22.9578 8.04576 22.8821 8.10537L20.6925 9.77441L22.5248 8.7164C22.6057 8.66911 22.7012 8.65309 22.7931 8.67138C22.885 8.68967 22.967 8.74101 23.0237 8.81568C23.0803 8.89035 23.1076 8.98318 23.1005 9.07663C23.0933 9.17008 23.0522 9.25767 22.9848 9.32284L21.0145 11.2395L22.5294 10.3671C22.603 10.3233 22.6893 10.3058 22.7741 10.3175C22.859 10.3292 22.9373 10.3694 22.9963 10.4314C23.0556 10.4925 23.0929 10.5718 23.1022 10.6565C23.1115 10.7412 23.0923 10.8265 23.0477 10.8991L22.3577 12.0192L22.5363 11.9164C22.5799 11.8887 22.6287 11.8701 22.6797 11.8617C22.7308 11.8533 22.7829 11.8554 22.8332 11.8677C22.8834 11.88 22.9306 11.9023 22.9719 11.9333C23.0133 11.9644 23.048 12.0034 23.0738 12.0482C23.0997 12.0929 23.1163 12.1425 23.1225 12.1938C23.1287 12.2451 23.1245 12.2972 23.1101 12.3468C23.0957 12.3965 23.0714 12.4426 23.0387 12.4826C23.0059 12.5226 22.9655 12.5556 22.9196 12.5796L21.43 13.4375C21.3562 13.4799 21.2704 13.4967 21.1861 13.485C21.1017 13.4732 21.0237 13.4337 20.9643 13.3728C20.9049 13.3118 20.8675 13.2327 20.858 13.1481C20.8485 13.0635 20.8674 12.9781 20.9117 12.9054L21.6017 11.7846L18.7329 13.4406C18.652 13.4879 18.5565 13.504 18.4646 13.4857C18.3727 13.4674 18.2907 13.416 18.234 13.3413C18.1774 13.2666 18.1501 13.1738 18.1572 13.0803C18.1644 12.9869 18.2055 12.8994 18.2729 12.8342L20.244 10.9176L15.8648 13.4475C15.7805 13.4951 15.6813 13.5092 15.5871 13.4867C15.4929 13.4642 15.4107 13.4071 15.357 13.3265C15.3033 13.2459 15.2821 13.148 15.2976 13.0524C15.3132 12.9568 15.3643 12.8705 15.4408 12.8111L17.6304 11.143L13.6338 13.4506C13.5483 13.5006 13.4468 13.5155 13.3505 13.4923C13.2543 13.469 13.1707 13.4094 13.1174 13.3259C13.0641 13.2425 13.0451 13.1416 13.0645 13.0445C13.0839 12.9474 13.1401 12.8616 13.2213 12.805L15.1909 11.419L11.6642 13.4529C11.5796 13.5 11.4803 13.5133 11.3862 13.4902C11.2921 13.467 11.2103 13.4091 11.1572 13.3281C11.1041 13.2471 11.0836 13.149 11.0998 13.0536C11.1161 12.9581 11.1679 12.8723 11.2448 12.8134L16.0633 9.23314L8.75471 13.4499C8.66908 13.5007 8.56703 13.5161 8.47016 13.493C8.37328 13.47 8.28919 13.4101 8.23569 13.3261C8.18218 13.2421 8.16346 13.1406 8.1835 13.043C8.20353 12.9455 8.26074 12.8596 8.34301 12.8035L13.0488 9.52371L6.24158 13.4551C6.15588 13.505 6.0542 13.5198 5.95788 13.4963C5.86156 13.4728 5.77809 13.4129 5.72501 13.3291C5.67193 13.2454 5.65336 13.1442 5.6732 13.0471C5.69304 12.95 5.74974 12.8644 5.83141 12.8082L11.3238 8.99624L3.59505 13.4583C3.53693 13.4924 3.47077 13.5104 3.40338 13.5104Z" fill="#7A5047"/>
<path d="M24.1376 35.5904C24.0597 35.5903 23.9836 35.5664 23.9196 35.522C23.8555 35.4776 23.8066 35.4148 23.7792 35.3419C23.7518 35.2689 23.7473 35.1894 23.7662 35.1138C23.7852 35.0382 23.8267 34.9702 23.8853 34.9188L24.7287 34.1774L23.584 34.8382C23.5005 34.8855 23.4023 34.8998 23.3088 34.8781C23.2153 34.8564 23.1333 34.8004 23.0791 34.7212C23.0248 34.642 23.0023 34.5454 23.0159 34.4504C23.0294 34.3554 23.0782 34.2689 23.1524 34.208L26.183 31.7747L22.5567 33.867C22.473 33.9163 22.3737 33.932 22.2788 33.9109C22.184 33.8899 22.1006 33.8336 22.0457 33.7534C21.9908 33.6733 21.9683 33.5752 21.9829 33.4791C21.9975 33.3831 22.048 33.2962 22.1243 33.236L26.0228 30.1049L21.3983 32.7752C21.3139 32.8243 21.2139 32.8393 21.1187 32.8172C21.0236 32.795 20.9405 32.7376 20.8864 32.6562C20.8323 32.5749 20.8112 32.4759 20.8276 32.3797C20.8439 32.2834 20.8964 32.197 20.9743 32.1381L24.3331 29.5882L20.4169 31.8491C20.3328 31.8981 20.2332 31.9133 20.1382 31.8915C20.0433 31.8697 19.9602 31.8126 19.9059 31.7318C19.8515 31.651 19.83 31.5525 19.8456 31.4564C19.8612 31.3602 19.9128 31.2738 19.9899 31.2143L23.3188 28.636L19.4042 30.8953C19.3226 30.939 19.228 30.9519 19.1378 30.9314C19.0476 30.9108 18.9679 30.8583 18.9133 30.7836C18.8588 30.7089 18.8331 30.6169 18.841 30.5247C18.8489 30.4326 18.8899 30.3463 18.9564 30.282L20.7619 28.6635L18.6291 29.8941C18.5483 29.9407 18.4532 29.9562 18.3618 29.9378C18.2703 29.9193 18.1887 29.8682 18.1323 29.7939C18.0759 29.7196 18.0485 29.6272 18.0552 29.5341C18.062 29.4411 18.1025 29.3537 18.1691 29.2883L20.0152 27.4821L18.363 28.4343C18.2833 28.4798 18.1898 28.4954 18.0996 28.4778C18.0094 28.4603 17.9285 28.4109 17.8717 28.3387C17.8148 28.2666 17.7858 28.1764 17.7899 28.0846C17.7939 27.9928 17.8308 27.9055 17.8938 27.8387L18.7816 26.9018C18.7019 26.8921 18.6272 26.8575 18.5681 26.803C18.5091 26.7485 18.4686 26.6767 18.4525 26.598C18.4364 26.5193 18.4455 26.4376 18.4784 26.3643C18.5113 26.2909 18.5664 26.2298 18.636 26.1896L20.499 25.1162C20.5787 25.0712 20.6718 25.056 20.7616 25.0737C20.8514 25.0913 20.932 25.1407 20.9886 25.2125C21.0453 25.2844 21.0744 25.3741 21.0707 25.4655C21.0669 25.557 21.0306 25.6441 20.9682 25.7111L20.2667 26.4518L22.2684 25.2964C22.3493 25.2498 22.4443 25.2341 22.5358 25.2526C22.6272 25.271 22.7088 25.3222 22.7652 25.3965C22.8216 25.4708 22.849 25.5632 22.8423 25.6563C22.8355 25.7493 22.795 25.8367 22.7284 25.9021L20.8823 27.7083L23.5733 26.1551C23.6548 26.1113 23.7494 26.0984 23.8397 26.119C23.9299 26.1395 24.0096 26.1921 24.0642 26.2668C24.1187 26.3415 24.1444 26.4335 24.1365 26.5257C24.1286 26.6179 24.0876 26.7041 24.021 26.7684L22.2148 28.3867L27.8306 25.146C27.9147 25.098 28.0139 25.0837 28.1082 25.1059C28.2025 25.128 28.2849 25.185 28.3389 25.2654C28.3928 25.3458 28.4144 25.4435 28.3992 25.5392C28.384 25.6348 28.3331 25.7211 28.2569 25.7808L24.9249 28.3608L29.2183 25.882C29.3027 25.8329 29.4027 25.818 29.4978 25.8401C29.5929 25.8622 29.6761 25.9198 29.7302 26.0011C29.7843 26.0824 29.8053 26.1813 29.789 26.2776C29.7726 26.3739 29.7201 26.4603 29.6422 26.5192L26.2842 29.0684L29.9681 26.9417C30.0516 26.8935 30.1503 26.8786 30.2443 26.9C30.3384 26.9213 30.4209 26.9774 30.4754 27.0569C30.53 27.1364 30.5526 27.2337 30.5387 27.3291C30.5248 27.4245 30.4754 27.5112 30.4005 27.5719L26.4997 30.7052L30.1145 28.6183C30.1981 28.571 30.2963 28.5569 30.3898 28.5786C30.4833 28.6003 30.5652 28.6562 30.6195 28.7354C30.6737 28.8146 30.6963 28.9112 30.6827 29.0063C30.6691 29.1013 30.6204 29.1877 30.5461 29.2486L27.5209 31.6803L27.7302 31.56C27.8126 31.5128 27.9096 31.4979 28.0023 31.5182C28.0951 31.5384 28.177 31.5924 28.2322 31.6696C28.2875 31.7468 28.3121 31.8419 28.3014 31.9362C28.2906 32.0305 28.2453 32.1174 28.1741 32.1802L25.2607 34.7324C25.2694 34.8068 25.2561 34.8822 25.2224 34.9491C25.1888 35.016 25.1363 35.0716 25.0714 35.109L24.33 35.5368C24.2719 35.5717 24.2054 35.5902 24.1376 35.5904Z" fill="#CD4C60"/>
<path d="M19.9088 11.9672C19.8247 11.9669 19.743 11.939 19.6763 11.8876C19.6096 11.8363 19.5617 11.7645 19.5399 11.6832C19.5181 11.6019 19.5237 11.5158 19.5557 11.438C19.5877 11.3602 19.6445 11.2951 19.7171 11.2527L20.9867 10.5205C21.0744 10.4747 21.1763 10.4645 21.2712 10.492C21.3662 10.5196 21.4468 10.5828 21.4963 10.6684C21.5458 10.754 21.5603 10.8554 21.5368 10.9514C21.5132 11.0474 21.4535 11.1307 21.3701 11.1837L20.1005 11.9159C20.0423 11.9497 19.9761 11.9674 19.9088 11.9672Z" fill="#EABEA3"/>
<path d="M5.90336 12.5138C5.82815 12.5138 5.75459 12.4916 5.69186 12.4501C5.62913 12.4086 5.57999 12.3496 5.55057 12.2804C5.52114 12.2111 5.51274 12.1348 5.52639 12.0608C5.54005 11.9869 5.57516 11.9185 5.62736 11.8644L6.2522 11.2181C6.17384 11.1868 6.10824 11.1301 6.0659 11.0571C6.015 10.9691 6.00111 10.8646 6.02728 10.7664C6.05344 10.6682 6.11752 10.5844 6.20543 10.5334L7.8599 9.57823C7.9399 9.53259 8.03366 9.51728 8.12403 9.5351C8.21439 9.55292 8.29532 9.60268 8.352 9.67528C8.40869 9.74788 8.43733 9.83846 8.43271 9.93045C8.42808 10.0224 8.39048 10.1096 8.3268 10.1762L8.0784 10.4338L12.5964 7.82717C12.64 7.79943 12.6888 7.78081 12.7398 7.77242C12.7908 7.76403 12.843 7.76604 12.8932 7.77834C12.9434 7.79064 12.9907 7.81297 13.032 7.84399C13.0734 7.87501 13.108 7.91407 13.1339 7.95883C13.1598 8.00359 13.1763 8.05312 13.1826 8.10444C13.1888 8.15577 13.1846 8.20782 13.1702 8.25747C13.1558 8.30712 13.1315 8.35335 13.0988 8.39337C13.066 8.43339 13.0255 8.46637 12.9797 8.49033L6.09656 12.4616C6.03808 12.4962 5.9713 12.5142 5.90336 12.5138Z" fill="#EABEA3"/>
<path d="M12.198 24.9643C12.1182 24.9643 12.0403 24.9394 11.9753 24.8931C11.9103 24.8468 11.8614 24.7813 11.8354 24.7058C11.8094 24.6304 11.8076 24.5487 11.8303 24.4721C11.853 24.3956 11.8989 24.3281 11.9618 24.2789L15.684 21.3809L10.3357 24.4683C10.2494 24.5183 10.147 24.5327 10.0502 24.5085C9.95348 24.4842 9.86998 24.4232 9.81748 24.3384C9.76499 24.2535 9.74763 24.1516 9.7691 24.0542C9.79057 23.9567 9.84917 23.8715 9.93246 23.8166L11.6874 22.652L9.32679 24.0136C9.24122 24.0628 9.14002 24.077 9.04423 24.0534C8.94844 24.0297 8.86544 23.9701 8.81251 23.8869C8.75957 23.8036 8.74077 23.7031 8.76002 23.6064C8.77927 23.5096 8.83509 23.424 8.91586 23.3673L15.0668 19.0847L8.04109 23.1412C7.95513 23.1902 7.85356 23.204 7.75763 23.1799C7.66169 23.1557 7.57881 23.0953 7.52633 23.0115C7.47385 22.9276 7.45583 22.8267 7.47604 22.7298C7.49624 22.633 7.55312 22.5477 7.63476 22.4918L13.5849 18.466L7.10652 22.2058C7.02124 22.2512 6.92199 22.2626 6.82862 22.2379C6.73526 22.2132 6.65465 22.1542 6.60293 22.0726C6.5512 21.9911 6.53217 21.893 6.54963 21.798C6.5671 21.703 6.61977 21.6181 6.69713 21.5603L14.2473 16.347L6.25476 20.9569C6.16874 21.0052 6.06744 21.0184 5.97192 20.9938C5.87641 20.9693 5.79403 20.9089 5.7419 20.8252C5.68978 20.7415 5.67192 20.6409 5.69205 20.5443C5.71217 20.4478 5.76873 20.3627 5.84996 20.3068L9.85733 17.6173L5.79936 19.9603C5.71398 20.0095 5.61292 20.024 5.51717 20.0006C5.42141 19.9773 5.33831 19.918 5.28513 19.835C5.23195 19.7521 5.21278 19.6518 5.23158 19.5551C5.25039 19.4583 5.30573 19.3725 5.38613 19.3155L11.6605 14.8757L5.40683 18.4844C5.32061 18.5307 5.21997 18.5423 5.12551 18.5167C5.03106 18.4912 4.94994 18.4305 4.89878 18.3471C4.84762 18.2637 4.83029 18.1639 4.85034 18.0681C4.87039 17.9724 4.9263 17.8879 5.00662 17.832L5.36159 17.602L5.31636 17.6273C5.23034 17.6755 5.12904 17.6888 5.03352 17.6642C4.93801 17.6397 4.85563 17.5793 4.8035 17.4956C4.75138 17.4118 4.73352 17.3113 4.75365 17.2147C4.77377 17.1182 4.83033 17.0331 4.91156 16.9772L6.65266 15.8103L4.42933 17.096C4.34425 17.1448 4.2437 17.1592 4.14836 17.1361C4.05302 17.1131 3.97016 17.0543 3.91682 16.972C3.86348 16.8897 3.84372 16.79 3.86162 16.6936C3.87952 16.5972 3.9337 16.5112 4.01302 16.4535L8.36309 13.3156L3.36903 16.1982C3.28377 16.2469 3.1831 16.261 3.08777 16.2376C2.99244 16.2142 2.90971 16.1551 2.85664 16.0726C2.80356 15.99 2.78417 15.8902 2.80248 15.7938C2.82078 15.6974 2.87538 15.6116 2.95502 15.5542L6.73392 12.8609L3.01943 15.0076C2.94029 15.0527 2.8477 15.0681 2.75824 15.0511C2.66878 15.0341 2.58829 14.9858 2.53119 14.9148C2.4741 14.8439 2.44411 14.755 2.44662 14.6639C2.44912 14.5729 2.48395 14.4857 2.54486 14.418L3.68873 13.163L3.01866 13.5463C2.94445 13.5893 2.85799 13.6061 2.77309 13.5941C2.6882 13.5821 2.60978 13.542 2.55036 13.4802C2.49094 13.4184 2.45395 13.3385 2.44531 13.2532C2.43667 13.1679 2.45687 13.0821 2.50269 13.0097L3.17429 11.9425C3.08531 11.9711 2.98895 11.9662 2.90333 11.9287C2.81771 11.8912 2.74873 11.8238 2.70936 11.739C2.66999 11.6542 2.66295 11.558 2.68955 11.4684C2.71616 11.3788 2.77458 11.302 2.85382 11.2525L4.12113 10.5203C4.19534 10.4774 4.2818 10.4606 4.36669 10.4725C4.45158 10.4845 4.53001 10.5246 4.58943 10.5864C4.64885 10.6482 4.68583 10.7282 4.69447 10.8135C4.70312 10.8988 4.68291 10.9845 4.63709 11.057L3.97316 12.1104L5.43979 11.267C5.51902 11.2215 5.61191 11.2058 5.70172 11.2227C5.79154 11.2395 5.87236 11.288 5.92961 11.3592C5.98687 11.4304 6.0168 11.5198 6.014 11.6111C6.01121 11.7025 5.97587 11.7898 5.91436 11.8574L4.77049 13.1093L13.2882 8.192C13.3733 8.14497 13.4731 8.13203 13.5673 8.1558C13.6616 8.17957 13.7433 8.23828 13.7959 8.32003C13.8486 8.40179 13.8682 8.50048 13.8507 8.59614C13.8333 8.69179 13.7802 8.77726 13.7022 8.83523L9.92096 11.53L14.521 8.8751C14.6061 8.82627 14.7066 8.81192 14.8019 8.83499C14.8973 8.85806 14.9801 8.9168 15.0335 8.99912C15.0868 9.08144 15.1066 9.18107 15.0887 9.27751C15.0708 9.37395 15.0166 9.45986 14.9373 9.51756L10.5903 12.6532L16.2421 9.3903C16.3282 9.3404 16.4304 9.32594 16.5269 9.34997C16.6235 9.374 16.7069 9.43463 16.7596 9.51906C16.8123 9.60349 16.83 9.7051 16.8092 9.80239C16.7883 9.89969 16.7304 9.98505 16.6477 10.0404L14.9089 11.2049L17.6137 9.6433C17.7002 9.59298 17.803 9.5785 17.9001 9.60295C17.9971 9.6274 18.0808 9.68884 18.1331 9.77413C18.1855 9.85943 18.2024 9.96182 18.1803 10.0594C18.1581 10.157 18.0987 10.2421 18.0147 10.2964L17.6536 10.531L18.4693 10.0604C18.5547 10.0095 18.6566 9.99375 18.7534 10.0165C18.8502 10.0393 18.9344 10.0988 18.9881 10.1825C19.0418 10.2662 19.0609 10.3675 19.0414 10.465C19.0218 10.5625 18.9652 10.6486 18.8833 10.7051L12.6089 15.1448L19.3295 11.264C19.4155 11.2158 19.5168 11.2025 19.6123 11.2271C19.7079 11.2516 19.7902 11.312 19.8424 11.3957C19.8945 11.4795 19.9123 11.58 19.8922 11.6766C19.8721 11.7731 19.8155 11.8582 19.7343 11.9141L15.7254 14.6043L22.0604 10.9466C22.146 10.8982 22.247 10.8846 22.3423 10.9086C22.4377 10.9326 22.5202 10.9923 22.5728 11.0754C22.6254 11.1585 22.644 11.2587 22.6248 11.3551C22.6057 11.4516 22.5501 11.537 22.4698 11.5936L14.9189 16.8108L22.5188 12.4232C22.6048 12.3742 22.7064 12.3603 22.8023 12.3845C22.8983 12.4087 22.9811 12.469 23.0336 12.5529C23.0861 12.6368 23.1041 12.7377 23.0839 12.8345C23.0637 12.9314 23.0068 13.0167 22.9252 13.0725L16.9766 17.0968L22.5188 13.8975C22.6044 13.8484 22.7056 13.8342 22.8014 13.8578C22.8972 13.8814 22.9802 13.941 23.0331 14.0243C23.0861 14.1075 23.1049 14.208 23.0856 14.3048C23.0664 14.4015 23.0105 14.4871 22.9298 14.5438L16.7734 18.8302L21.9239 15.8578C22.0101 15.8088 22.1119 15.7951 22.2079 15.8195C22.304 15.844 22.3869 15.9047 22.4391 15.9889C22.4914 16.0731 22.509 16.1743 22.4883 16.2712C22.4676 16.3682 22.4101 16.4533 22.3279 16.5087L20.2365 17.8972C20.3203 17.8843 20.406 17.8996 20.4802 17.9406C20.5544 17.9816 20.6129 18.0461 20.6465 18.1239C20.6802 18.2017 20.6871 18.2885 20.6661 18.3707C20.6452 18.4528 20.5977 18.5257 20.5309 18.578L16.8102 21.4752L19.4568 19.9503C19.5395 19.9027 19.6369 19.8876 19.7301 19.908C19.8233 19.9284 19.9056 19.9829 19.9608 20.0607C20.016 20.1385 20.0402 20.2341 20.0286 20.3288C20.0171 20.4236 19.9707 20.5106 19.8984 20.5728L18.0154 22.1928C18.0934 22.2057 18.1654 22.2423 18.2217 22.2977C18.278 22.3531 18.3159 22.4245 18.33 22.5022C18.3442 22.5799 18.334 22.6601 18.3009 22.7318C18.2678 22.8035 18.2134 22.8632 18.145 22.9027L15.211 24.5963C15.1284 24.643 15.0315 24.6575 14.9389 24.6368C14.8463 24.6162 14.7646 24.562 14.7097 24.4847C14.6547 24.4073 14.6304 24.3123 14.6415 24.2181C14.6525 24.1239 14.6981 24.0371 14.7694 23.9745L16.2935 22.6574L12.3835 24.9129C12.3272 24.9459 12.2632 24.9636 12.198 24.9643Z" fill="#EABEA3"/>
<path d="M34.3581 29.4939C34.2812 29.4941 34.2061 29.4712 34.1424 29.4281C34.0787 29.385 34.0295 29.3238 34.001 29.2524C33.9726 29.1809 33.9663 29.1026 33.9829 29.0276C33.9996 28.9525 34.0384 28.8842 34.0944 28.8315L34.6525 28.3033L33.616 28.9013C33.5332 28.9493 33.4354 28.9645 33.3419 28.9441C33.2484 28.9237 33.166 28.869 33.1107 28.7909C33.0555 28.7125 33.0316 28.6163 33.0439 28.5212C33.0561 28.4261 33.1034 28.3391 33.1767 28.2772L33.7831 27.7635L33.0992 28.1576C33.0194 28.2038 32.9256 28.2196 32.835 28.2021C32.7444 28.1847 32.6632 28.1352 32.6061 28.0627C32.5491 27.9902 32.5201 27.8996 32.5245 27.8075C32.5289 27.7153 32.5664 27.6279 32.63 27.5611L34.2147 25.9028L32.9114 26.6534C32.8312 26.6997 32.737 26.7153 32.6462 26.6976C32.5554 26.6798 32.474 26.6297 32.4172 26.5567C32.3604 26.4836 32.332 26.3924 32.3371 26.3C32.3423 26.2076 32.3807 26.1202 32.4453 26.0539L32.699 25.7932C32.6179 25.7893 32.5401 25.7591 32.4775 25.7073C32.4172 25.6581 32.3733 25.5917 32.3516 25.5169C32.33 25.4422 32.3316 25.3626 32.3563 25.2887L32.5196 24.7996C32.4655 24.7664 32.4205 24.7203 32.3885 24.6654C32.3632 24.6219 32.3467 24.5738 32.3399 24.5239C32.3332 24.4739 32.3363 24.4232 32.3492 24.3745C32.3621 24.3258 32.3845 24.2801 32.415 24.24C32.4456 24.2 32.4837 24.1663 32.5273 24.141L32.9106 23.9172C32.978 23.8779 33.0558 23.86 33.1335 23.8661C33.2113 23.8721 33.2854 23.9017 33.3459 23.951C33.4063 24.0002 33.4504 24.0667 33.4721 24.1417C33.4937 24.2166 33.4921 24.2963 33.4672 24.3703L33.399 24.5734L34.549 23.9087C34.6292 23.8625 34.7234 23.8468 34.8142 23.8646C34.9051 23.8824 34.9864 23.9324 35.0432 24.0055C35.1 24.0786 35.1285 24.1697 35.1233 24.2621C35.1182 24.3545 35.0797 24.442 35.0151 24.5083L34.9193 24.6072L36.1414 23.9018C36.2212 23.8562 36.3148 23.8408 36.405 23.8585C36.4953 23.8761 36.5762 23.9256 36.633 23.9979C36.6898 24.0703 36.7187 24.1606 36.7144 24.2524C36.7102 24.3443 36.673 24.4315 36.6098 24.4983L35.0251 26.1566L37.0851 24.9721C37.1681 24.9239 37.2661 24.9086 37.3598 24.9291C37.4535 24.9496 37.5361 25.0046 37.5913 25.0831C37.6465 25.1616 37.6702 25.2579 37.6579 25.353C37.6455 25.4482 37.5979 25.5352 37.5244 25.5969L36.918 26.1106L37.0851 26.0148C37.1663 25.9691 37.2614 25.9545 37.3526 25.9738C37.4437 25.9931 37.5248 26.0449 37.5805 26.1196C37.6362 26.1943 37.6628 26.2867 37.6553 26.3796C37.6478 26.4725 37.6067 26.5595 37.5398 26.6243L36.9824 27.1525L37.0184 27.1326C37.1061 27.0867 37.208 27.0765 37.3029 27.1041C37.3979 27.1316 37.4785 27.1948 37.528 27.2804C37.5775 27.366 37.592 27.4674 37.5685 27.5634C37.5449 27.6595 37.4852 27.7427 37.4018 27.7957L34.5498 29.4418C34.4917 29.476 34.4255 29.494 34.3581 29.4939Z" fill="#925C4C"/>
<path d="M41.3761 13.5019C41.2919 13.5016 41.2102 13.4736 41.1436 13.4223C41.0769 13.371 41.029 13.2991 41.0072 13.2179C40.9854 13.1366 40.9909 13.0504 41.023 12.9726C41.055 12.8948 41.1117 12.8297 41.1844 12.7874L42.4563 12.0529C42.5439 12.0071 42.6459 11.9969 42.7408 12.0244C42.8358 12.052 42.9164 12.1151 42.9659 12.2007C43.0154 12.2863 43.0299 12.3877 43.0063 12.4838C42.9828 12.5798 42.9231 12.663 42.8397 12.7161L41.5678 13.4505C41.5096 13.4844 41.4434 13.5021 41.3761 13.5019Z" fill="#A9725E"/>
<path d="M33.3692 10.9038C33.2848 10.9038 33.2028 10.8758 33.1358 10.8244C33.0689 10.7731 33.0208 10.701 32.9989 10.6195C32.9771 10.538 32.9827 10.4516 33.015 10.3736C33.0473 10.2957 33.1044 10.2306 33.1775 10.1885L35.2299 9.00161C35.2735 8.97387 35.3223 8.95525 35.3733 8.94686C35.4243 8.93846 35.4765 8.94048 35.5267 8.95278C35.5769 8.96508 35.6242 8.98741 35.6655 9.01843C35.7069 9.04945 35.7415 9.08851 35.7674 9.13327C35.7933 9.17803 35.8098 9.22756 35.8161 9.27888C35.8223 9.3302 35.8181 9.38226 35.8037 9.43191C35.7893 9.48156 35.765 9.52779 35.7322 9.56781C35.6995 9.60782 35.659 9.64081 35.6132 9.66477L33.5639 10.8486C33.5051 10.8841 33.4379 10.9031 33.3692 10.9038Z" fill="#A9725E"/>
<path d="M34.4633 24.9652C34.3842 24.9651 34.307 24.9405 34.2423 24.8949C34.1777 24.8492 34.1288 24.7846 34.1023 24.71C34.0759 24.6354 34.0732 24.5544 34.0946 24.4782C34.1159 24.402 34.1604 24.3343 34.2218 24.2844L37.76 21.4293L32.5819 24.4193C32.4957 24.4705 32.3928 24.4859 32.2953 24.4621C32.1979 24.4384 32.1136 24.3774 32.0606 24.2922C32.0077 24.207 31.9902 24.1044 32.012 24.0065C32.0338 23.9086 32.093 23.8231 32.1771 23.7684L33.6606 22.7825L31.642 23.9447C31.5569 23.9928 31.4565 24.0066 31.3616 23.9832C31.2666 23.9598 31.1842 23.9009 31.1312 23.8187C31.0782 23.7365 31.0587 23.6372 31.0765 23.5411C31.0944 23.4449 31.1483 23.3592 31.2272 23.3015L37.5591 18.7713L30.3486 22.9343C30.2624 22.9855 30.1595 23.0009 30.062 22.9771C29.9646 22.9533 29.8803 22.8923 29.8274 22.8071C29.7744 22.7219 29.7569 22.6194 29.7787 22.5215C29.8005 22.4235 29.8597 22.3381 29.9438 22.2834L33.863 19.6767L29.6425 22.1132C29.5574 22.1613 29.4571 22.175 29.3621 22.1516C29.2672 22.1282 29.1848 22.0694 29.1318 21.9872C29.0788 21.905 29.0592 21.8056 29.077 21.7095C29.0949 21.6133 29.1488 21.5276 29.2278 21.4699L34.4779 17.7033L28.9341 20.9041C28.8478 20.9542 28.7454 20.9686 28.6487 20.9443C28.5519 20.9201 28.4684 20.8591 28.4159 20.7742C28.3634 20.6894 28.346 20.5874 28.3675 20.49C28.389 20.3926 28.4476 20.3074 28.5309 20.2525L30.1363 19.1837L28.6183 20.0608C28.5324 20.1106 28.4305 20.1252 28.3341 20.1014C28.2376 20.0777 28.1542 20.0174 28.1014 19.9333C28.0485 19.8492 28.0303 19.7479 28.0506 19.6507C28.071 19.5535 28.1283 19.468 28.2104 19.4122L31.5071 17.162L28.3791 18.9675C28.2934 19.0159 28.1925 19.0295 28.0971 19.0055C28.0017 18.9815 27.9192 18.9218 27.8667 18.8387C27.8141 18.7556 27.7954 18.6554 27.8146 18.559C27.8338 18.4625 27.8893 18.3771 27.9697 18.3205L31.5163 15.8671L27.8424 17.9885C27.7564 18.0375 27.6549 18.0513 27.5589 18.0272C27.463 18.003 27.3801 17.9427 27.3276 17.8588C27.2752 17.7749 27.2571 17.674 27.2773 17.5772C27.2976 17.4803 27.3544 17.395 27.4361 17.3391L29.5452 15.9108L26.8112 17.4886C26.7259 17.5379 26.6248 17.5523 26.529 17.529C26.4333 17.5057 26.3502 17.4464 26.297 17.3634C26.2438 17.2804 26.2247 17.1801 26.2435 17.0834C26.2623 16.9867 26.3176 16.9009 26.398 16.8439L30.2467 14.1237L26.1419 16.4935C26.0633 16.5386 25.9713 16.5545 25.8821 16.5382C25.7929 16.5219 25.7124 16.4744 25.6549 16.4044C25.5973 16.3343 25.5665 16.2462 25.5678 16.1555C25.5691 16.0649 25.6025 15.9777 25.662 15.9093L26.8082 14.5983L26.017 15.0583C25.9428 15.1009 25.8565 15.1174 25.7718 15.1053C25.6871 15.0931 25.6089 15.053 25.5497 14.9913C25.4904 14.9296 25.4535 14.8498 25.4449 14.7647C25.4362 14.6796 25.4562 14.594 25.5018 14.5216L26.1603 13.4905C26.0771 13.5155 25.9879 13.5119 25.907 13.4802C25.8261 13.4485 25.7582 13.3906 25.7141 13.3157C25.6635 13.2278 25.6497 13.1234 25.6759 13.0254C25.702 12.9274 25.766 12.8438 25.8537 12.7928L27.1263 12.0583C27.2005 12.0161 27.2867 11.9999 27.3712 12.0122C27.4556 12.0245 27.5336 12.0646 27.5926 12.1262C27.6517 12.1879 27.6885 12.2674 27.6972 12.3524C27.706 12.4373 27.6861 12.5227 27.6408 12.595L26.9937 13.6093L28.4274 12.7813C28.506 12.7362 28.598 12.7203 28.6872 12.7367C28.7764 12.753 28.8569 12.8004 28.9144 12.8704C28.972 12.9404 29.0028 13.0286 29.0015 13.1193C29.0002 13.2099 28.9668 13.2971 28.9073 13.3655L27.7611 14.6773L37.0577 9.31065C37.1429 9.26319 37.243 9.25 37.3376 9.27375C37.4322 9.29751 37.5142 9.35644 37.5669 9.43852C37.6196 9.52061 37.639 9.61969 37.6211 9.71558C37.6033 9.81147 37.5496 9.89697 37.471 9.95465L33.62 12.6709L38.3994 9.91095C38.4852 9.86393 38.5857 9.85148 38.6803 9.87613C38.775 9.90079 38.8566 9.96069 38.9085 10.0436C38.9604 10.1264 38.9787 10.226 38.9596 10.3219C38.9405 10.4178 38.8855 10.5028 38.8057 10.5595L36.6951 11.9893L39.219 10.5327C39.3046 10.4843 39.4055 10.4707 39.5009 10.4947C39.5963 10.5187 39.6788 10.5784 39.7314 10.6615C39.784 10.7446 39.8026 10.8447 39.7834 10.9412C39.7642 11.0377 39.7087 11.1231 39.6284 11.1797L36.0879 13.6331L39.9688 11.3921C40.0547 11.3396 40.1579 11.323 40.256 11.346C40.3541 11.369 40.4392 11.4297 40.4929 11.5149C40.5466 11.6001 40.5646 11.7031 40.543 11.8015C40.5214 11.8999 40.4619 11.9858 40.3774 12.0407L37.0746 14.2932L40.5024 12.3144C40.5887 12.2644 40.6911 12.2499 40.7879 12.2742C40.8846 12.2984 40.9681 12.3595 41.0206 12.4443C41.0731 12.5291 41.0905 12.6311 41.069 12.7285C41.0475 12.8259 40.9889 12.9112 40.9056 12.9661L39.3087 14.0264L40.8198 13.1539C40.9049 13.1058 41.0052 13.092 41.1002 13.1154C41.1951 13.1389 41.2775 13.1977 41.3305 13.2799C41.3835 13.3621 41.4031 13.4614 41.3853 13.5576C41.3674 13.6537 41.3135 13.7394 41.2345 13.7971L35.9806 17.5661L43.8772 13.009C43.9633 12.9608 44.0646 12.9476 44.1601 12.9721C44.2556 12.9966 44.338 13.057 44.3901 13.1408C44.4422 13.2245 44.4601 13.3251 44.4399 13.4216C44.4198 13.5181 44.3633 13.6032 44.282 13.6591L40.3667 16.2705L43.9876 14.1797C44.0728 14.1316 44.1731 14.1178 44.268 14.1412C44.363 14.1647 44.4454 14.2235 44.4984 14.3057C44.5514 14.3879 44.571 14.4872 44.5531 14.5834C44.5353 14.6795 44.4814 14.7652 44.4024 14.8229L38.0667 19.3501L43.7653 16.0603C43.8515 16.0113 43.9533 15.9976 44.0493 16.022C44.1454 16.0465 44.2282 16.1072 44.2805 16.1914C44.3328 16.2756 44.3504 16.3768 44.3297 16.4737C44.309 16.5706 44.2515 16.6558 44.1693 16.7112L41.8348 18.2637C41.9119 18.2685 41.9858 18.2965 42.0467 18.344C42.1076 18.3915 42.1527 18.4563 42.1762 18.5299C42.1996 18.6035 42.2003 18.6825 42.1781 18.7565C42.1559 18.8304 42.1119 18.896 42.0518 18.9445L38.5198 21.7988L41.0068 20.3629C41.091 20.3127 41.1912 20.2966 41.2868 20.318C41.3825 20.3394 41.4663 20.3966 41.5211 20.4779C41.5758 20.5591 41.5974 20.6583 41.5813 20.755C41.5652 20.8516 41.5128 20.9385 41.4346 20.9977L40.2486 21.923C40.3198 21.9452 40.383 21.9877 40.4304 22.0453C40.4778 22.1029 40.5074 22.173 40.5155 22.2472C40.5237 22.3213 40.51 22.3962 40.4762 22.4627C40.4424 22.5292 40.39 22.5843 40.3253 22.6215L36.564 24.7927C36.48 24.8413 36.3806 24.8563 36.2859 24.8345C36.1913 24.8127 36.1085 24.7558 36.0541 24.6753C35.9998 24.5948 35.9781 24.4967 35.9933 24.4008C36.0085 24.3049 36.0596 24.2183 36.1362 24.1586L36.6299 23.7753L34.6542 24.9153C34.5962 24.9486 34.5303 24.9658 34.4633 24.9652Z" fill="#A9725E"/>
<path d="M0.883277 38.1856C0.63181 42.8622 -0.160156 46.4986 6.08281 45.7519H15.6975C18.3985 45.6116 22.7102 46.9348 24.2359 44.0023C25.5285 46.8067 29.4745 45.6705 31.9509 45.7579H40.8948C42.3216 45.7579 44.0512 46.0454 45.2042 45.0028C46.5996 43.7416 46.1066 41.151 46.1066 39.5211C46.7345 33.029 45.0624 27.3412 37.7545 26.527C37.7545 25.7603 37.776 24.9828 37.7323 24.2269C38.989 23.7317 40.0803 22.8916 40.8806 21.8034C41.6808 20.7152 42.1575 19.4232 42.2556 18.076C44.4912 17.7164 44.9114 15.1978 44.5296 13.3226C44.4207 9.24396 42.9962 6.17652 39.9342 4.61789C40.1159 -0.97188 29.7114 -0.784811 30.0442 4.61789C26.9323 6.21792 25.5469 9.39806 25.4603 13.5487C25.4138 13.7011 25.3944 13.8605 25.4028 14.0196C25.1398 15.753 25.6512 17.9296 27.7166 18.1082C27.7568 19.4832 28.2105 20.8143 29.0183 21.9277C29.8261 23.0412 30.9506 23.8853 32.2453 24.3503C32.2407 25.0855 32.2215 25.8254 32.2453 26.5606C31.632 26.6026 31.0244 26.7053 30.4313 26.8673C29.2047 24.476 25.9417 24.6494 24.2635 26.4074C22.6167 24.6241 19.3814 24.5121 18.1148 26.7906C17.232 26.5899 16.3292 26.4909 15.4238 26.4954C15.4737 25.8392 15.4568 25.1615 15.4476 24.5459C16.9359 24.0052 18.2325 23.0392 19.1762 21.7677C20.12 20.4963 20.6694 18.9755 20.756 17.3944C23.2323 17.1844 23.1971 14.3017 23.0644 12.3988C23.1173 8.25419 22.9993 3.97312 18.2436 3.52232C21.3778 -0.361611 14.1351 0.350623 11.2202 0.407356C8.08994 0.468689 5.27014 1.58036 3.59574 4.37562C2.12528 6.82359 2.45801 9.68786 2.44574 12.4134C2.37981 14.4327 2.37674 16.9466 4.76798 17.3598C4.8555 18.9493 5.40506 20.4788 6.34925 21.7605C7.29343 23.0421 8.59117 24.0202 10.0833 24.5749C10.0833 25.2235 10.0695 25.8784 10.0787 26.5247C3.24921 26.7616 0.883277 32.0384 0.883277 38.1856ZM34.9662 1.33886C36.6153 1.33886 39.0671 2.38996 39.248 4.29359C37.8711 3.75191 36.4028 3.48042 34.9232 3.49396V3.47479C33.495 3.49815 32.0822 3.77433 30.7503 4.29052C30.8653 2.37769 33.3531 1.33732 34.9662 1.33886ZM34.9002 4.38712C40.5506 4.58722 43.2569 7.51436 43.7583 12.2555C43.3558 12.009 42.8769 11.9186 42.4122 12.0014C41.9476 12.0841 41.5294 12.3343 41.2367 12.7046C40.3451 10.4859 37.9577 8.69809 35.5427 8.90892C34.3007 9.01702 33.2956 10.1111 32.3495 10.8256L29.1671 13.2322C29.0707 12.9459 28.906 12.6873 28.6873 12.4789C28.4686 12.2705 28.2025 12.1185 27.9119 12.036C27.6213 11.9535 27.315 11.9431 27.0194 12.0055C26.7238 12.0679 26.4479 12.2012 26.2154 12.3941C26.6386 7.59869 29.2813 4.59719 34.9002 4.38712ZM28.5016 17.5639C28.5031 17.5034 28.4806 17.4448 28.4392 17.4007C28.3977 17.3566 28.3405 17.3306 28.2801 17.3284C27.7298 17.3274 27.2023 17.1086 26.8129 16.7199C26.4234 16.3312 26.2037 15.8041 26.2016 15.2538C26.1832 14.7815 26.1963 14.3039 26.2016 13.8309C26.2883 12.24 28.3882 12.6442 28.4648 14.061C28.4625 14.0898 28.4661 14.1188 28.4754 14.1462C28.4847 14.1736 28.4995 14.199 28.5189 14.2205C28.5382 14.242 28.5618 14.2594 28.5881 14.2715C28.6144 14.2836 28.6429 14.2901 28.6718 14.2909C30.6353 13.3709 32.3748 10.9559 34.4563 10.1018C37.0714 8.84146 40.2715 11.4289 40.7315 14.057C40.7423 14.1083 40.7661 14.156 40.8006 14.1954C40.8351 14.2349 40.8791 14.2648 40.9285 14.2825C40.9779 14.3001 41.0309 14.3048 41.0826 14.2961C41.1343 14.2874 41.1829 14.2654 41.2237 14.2326C41.3047 14.1966 41.3756 14.141 41.4299 14.0709C41.4842 14.0008 41.5203 13.9183 41.535 13.8309C41.6216 12.24 43.7215 12.6442 43.7982 14.061C43.9178 15.477 43.7698 17.2994 41.952 17.3277C41.8364 17.3466 41.7299 17.4019 41.6482 17.4858C41.5665 17.5698 41.5139 17.6777 41.4982 17.7938C40.927 26.4356 28.9264 26.1145 28.5016 17.5639ZM36.8583 24.5191C36.9097 26.1145 37.191 28.5915 35.1509 28.8529C32.8279 29.1504 33.0986 26.2234 33.143 24.608C34.3708 24.8749 35.6447 24.8445 36.8583 24.5191ZM32.3196 27.3326C32.8325 30.1908 37.1788 30.3533 37.6863 27.4093C45.4396 28.2365 45.3591 35.306 45.3591 41.4171C45.3591 44.3373 43.605 44.897 41.5043 44.9552V36.8287C41.5043 36.2284 40.7606 36.4768 40.7606 36.9575V44.9576C37.0139 44.6878 33.1101 45.3969 29.2185 45.1539V36.9276C29.2185 36.4009 28.5131 36.259 28.5131 36.8601V45.0971C26.736 45.0327 25.1275 44.1005 24.7565 42.3847C25.1444 40.1775 24.7066 37.4013 24.6591 35.5452L29.8671 30.6339C30.2466 30.2275 30.5204 29.734 30.6643 29.1968C30.8081 28.6596 30.8176 28.0952 30.692 27.5534C31.2252 27.4281 31.7692 27.3542 32.3166 27.3326H32.3196ZM22.4634 25.994C23.2461 26.1152 23.8679 27.7697 24.6591 27.1227C26.8893 24.2017 31.8504 27.1164 29.0843 30.2659L24.2666 34.8092L20.444 31.2059C19.6773 30.4868 18.8025 29.842 18.6576 28.7204C18.3839 26.6121 20.48 25.3071 22.4634 25.994ZM3.14954 8.46656C3.53288 3.96239 6.58191 1.51902 10.8338 1.31356C12.4116 1.52132 20.5866 0.218756 17.1856 3.56296C15.982 5.67052 22.4212 2.04956 22.3706 10.9789C22.1946 10.8004 21.9829 10.6611 21.7494 10.57C21.5159 10.4788 21.2658 10.4379 21.0155 10.4499C20.7651 10.4619 20.52 10.5266 20.2963 10.6397C20.0726 10.7528 19.8753 10.9116 19.7172 11.1061C19.0969 9.62269 17.4731 9.39729 16.0724 9.17572C15.0972 8.96424 14.1809 8.53958 13.3891 7.93219C13.2035 7.77539 12.969 7.68829 12.726 7.68591C12.483 7.68353 12.2468 7.76602 12.0582 7.91916C10.2949 9.71622 6.78738 8.60916 5.74011 11.1644C5.58813 10.9723 5.39962 10.8121 5.18545 10.6931C4.97129 10.5742 4.73569 10.4987 4.49225 10.4712C4.24881 10.4437 4.00233 10.4648 3.76702 10.5329C3.5317 10.6011 3.31221 10.7152 3.12118 10.8686C3.08569 10.068 3.09516 9.26605 3.14954 8.46656ZM5.45414 16.9765C5.45414 16.7802 5.26784 16.5082 5.05471 16.5082C3.25534 16.3763 3.15414 14.9304 3.15414 13.5266C3.13038 13.1672 3.13038 12.8066 3.15414 12.4471C3.32664 11.1921 5.34528 10.6784 5.51241 12.3413C5.50802 12.3959 5.51477 12.4508 5.53223 12.5027C5.5497 12.5545 5.57752 12.6023 5.61401 12.6431C5.65051 12.6839 5.69491 12.7169 5.74452 12.74C5.79414 12.7631 5.84794 12.7758 5.90264 12.7775C6.08281 12.7997 6.25148 12.6801 6.22081 12.3765C6.22081 10.6132 7.96804 10.4147 9.25911 10.1333C10.4362 9.92065 11.5463 9.43282 12.499 8.70959C12.5821 8.63064 12.6916 8.58554 12.8062 8.58313C12.9208 8.58072 13.0321 8.62117 13.1185 8.69656C14.0733 9.4206 15.185 9.91011 16.3638 10.1257C17.6725 10.4162 19.3124 10.5903 19.3124 12.3413C19.3082 12.3953 19.3149 12.4495 19.332 12.5009C19.3491 12.5523 19.3763 12.5997 19.412 12.6404C19.4477 12.6812 19.4912 12.7144 19.54 12.7381C19.5887 12.7617 19.6416 12.7753 19.6957 12.7782C19.849 12.8181 19.9955 12.7523 20.0215 12.4916C20.0194 12.1871 20.1349 11.8935 20.3439 11.6721C20.5529 11.4506 20.8393 11.3182 21.1435 11.3027C21.4476 11.2872 21.746 11.3896 21.9764 11.5887C22.2069 11.7877 22.3517 12.0681 22.3806 12.3712C22.399 13.9897 22.6359 16.4951 20.3297 16.5243C20.2017 16.5158 20.0936 16.6009 20.0813 16.8263C20.0583 17.9528 19.7803 19.0593 19.2683 20.063C18.7563 21.0666 18.0235 21.9412 17.1251 22.6211C16.2266 23.301 15.1858 23.7684 14.0807 23.9884C12.9757 24.2083 11.8352 24.1751 10.7449 23.8911C10.7063 23.8666 10.6607 23.8559 10.6153 23.8605C9.13538 23.4106 7.83724 22.5008 6.9092 21.2633C5.98116 20.0258 5.4715 18.5249 5.45414 16.9781V16.9765ZM12.8141 25.0763C13.4493 25.0413 14.0792 24.9415 14.694 24.7782C14.7323 26.4687 14.9163 29.3344 12.3993 28.7402C10.6552 28.3293 10.7679 26.3414 10.83 24.8081C11.4763 24.9827 12.1424 25.0733 12.8118 25.0779L12.8141 25.0763ZM10.1308 27.361C10.2143 27.9876 10.5222 28.5627 10.9975 28.9795C11.4728 29.3963 12.0831 29.6266 12.7153 29.6276C13.3475 29.6285 13.9585 29.4 14.435 28.9846C14.9115 28.5692 15.2212 27.995 15.3065 27.3687C16.138 27.3623 16.9674 27.4503 17.779 27.631C17.1803 29.6925 19.2242 31.2443 20.5912 32.4403L23.8832 35.5444C23.8725 37.4611 23.3803 40.2212 23.7736 42.4943C23.5883 43.3043 23.1073 44.0159 22.4247 44.4898C21.7422 44.9638 20.9073 45.1658 20.0836 45.0564V36.7681C20.0836 36.2429 19.2526 36.5872 19.2526 37.0196V45.0358C14.8749 44.7537 10.6812 44.9093 6.31664 45.0358V36.8325C6.31664 36.3426 5.41964 36.5173 5.41964 36.9581V44.9959C0.716144 44.9637 1.46364 39.2436 1.64994 35.8204C1.97424 30.8095 5.07311 27.4715 10.13 27.3626L10.1308 27.361Z" fill="#262626"/>
<path d="M16.0884 19.4904C16.4495 19.0519 15.9458 18.5796 15.5786 19.0251C15.2421 19.445 14.8136 19.7821 14.3263 20.0104C13.8389 20.2386 13.3057 20.352 12.7676 20.3416C12.2296 20.3312 11.7011 20.1974 11.2229 19.9506C10.7447 19.7037 10.3296 19.3504 10.0095 18.9177C9.72433 18.572 9.09565 19.2405 9.38929 19.597C9.79794 20.0948 10.3137 20.494 10.8981 20.7647C11.4826 21.0354 12.1206 21.1707 12.7646 21.1604C13.4086 21.1502 14.0419 20.9947 14.6175 20.7055C15.193 20.4164 15.6958 20.001 16.0884 19.4904Z" fill="#262626"/>
<path d="M36.8505 20.9525C37.2339 20.4863 36.5439 20.2379 36.2157 20.6358C36.0592 20.8078 35.866 20.9423 35.6504 21.0293C35.4348 21.1164 35.2024 21.1538 34.9704 21.1387C34.7384 21.1236 34.5128 21.0564 34.3103 20.9421C34.1078 20.8279 33.9336 20.6695 33.8007 20.4787C33.5117 20.1275 32.837 20.7524 33.1314 21.1089C33.3645 21.3814 33.6564 21.5974 33.9851 21.7405C34.3138 21.8836 34.6708 21.9502 35.029 21.9351C35.3873 21.9201 35.7374 21.8238 36.0529 21.6535C36.3685 21.4833 36.6412 21.2436 36.8505 20.9525Z" fill="#262626"/>
</g>
</g>
<defs>
<clipPath id="clip0_17_2826">
<rect width="46" height="46" fill="white" transform="translate(0.5 0.09375)"/>
</clipPath>
</defs>
</svg>
