<svg width="47" height="47" viewBox="0 0 47 47" fill="none" xmlns="http://www.w3.org/2000/svg">
<g clip-path="url(#clip0_17_2884)">
<path d="M24.4499 5.77324C24.2769 5.77264 24.1258 5.65629 24.081 5.48923C24.0362 5.32217 24.1088 5.14579 24.2582 5.05871L27.9681 2.91664C28.087 2.8411 28.2376 2.83679 28.3606 2.90541C28.4836 2.97403 28.559 3.10454 28.5571 3.24533C28.5552 3.38613 28.4762 3.51454 28.3515 3.57981L24.6416 5.72188C24.5834 5.75573 24.5172 5.77346 24.4499 5.77324Z" fill="#0077B6"/>
<path d="M23.0447 44.0438C22.8827 44.0436 22.7384 43.9416 22.684 43.7891C22.6297 43.6365 22.677 43.4663 22.8024 43.3637L24.1901 42.2282L22.3501 43.2916C22.174 43.391 21.951 43.3365 21.8405 43.1671C21.7301 42.9977 21.7702 42.7718 21.9322 42.6507L24.9291 40.461L21.5274 42.4253C21.3493 42.5289 21.1212 42.4733 21.0109 42.2993C20.9005 42.1252 20.9475 41.8951 21.1173 41.7783L26.1458 38.2938L20.6258 41.4785C20.4458 41.5792 20.2183 41.5192 20.1112 41.3429C20.0041 41.1666 20.0557 40.9372 20.2279 40.8237L20.5737 40.6045L20.0708 40.8942C19.8913 40.9983 19.6617 40.9408 19.5525 40.7644C19.4434 40.588 19.4943 40.3568 19.6675 40.2425L28.9434 34.0932L19.0419 39.8072C18.8607 39.9166 18.625 39.8585 18.5156 39.6772C18.4061 39.496 18.4643 39.2603 18.6455 39.1508L24.519 35.4585L18.3136 39.0405C18.1329 39.1399 17.906 39.0788 17.7999 38.9019C17.6938 38.7251 17.7467 38.4959 17.9195 38.3834L24.7428 34.1199L17.5714 38.2599C17.3914 38.3606 17.1639 38.3008 17.0568 38.1245C16.9497 37.9482 17.0013 37.7188 17.1735 37.6053L29.6986 29.632L16.5725 37.2089C16.3914 37.3134 16.1601 37.2534 16.0524 37.0742C15.9447 36.8951 16.0004 36.6628 16.1776 36.5518L25.7518 30.5856L15.7606 36.3572C15.5795 36.4616 15.3482 36.4016 15.2405 36.2225C15.1328 36.0434 15.1885 35.811 15.3657 35.7001L27.7029 27.9568L14.8367 35.3826C14.6556 35.4828 14.4276 35.4212 14.3218 35.2433C14.216 35.0654 14.2705 34.8356 14.445 34.7242L19.6422 31.5455L14.1851 34.6965C14.0032 34.8051 13.7677 34.7458 13.6591 34.5639C13.5505 34.382 13.6099 34.1465 13.7918 34.0379L22.8906 28.4298L13.4238 33.8946C13.2427 33.9967 13.0133 33.9358 12.9066 33.7574C12.7999 33.579 12.8549 33.3481 13.0305 33.2368L24.6623 26.0233L12.5758 32.9999C12.3948 33.1044 12.1634 33.0444 12.0558 32.8652C11.9481 32.6861 12.0038 32.4538 12.181 32.3428L26.4471 23.4289L11.6167 31.9909C11.436 32.0889 11.2102 32.027 11.1048 31.8505C10.9995 31.6739 11.0521 31.4457 11.2242 31.3332L20.1076 25.8853L10.8784 31.2136C10.6968 31.3224 10.4613 31.2633 10.3525 31.0816C10.2436 30.9 10.3027 30.6646 10.4843 30.5557L23.2816 22.6285L10.0044 30.295C9.82269 30.3986 9.59155 30.3375 9.48488 30.1576C9.37821 29.9778 9.43539 29.7456 9.61339 29.6357L15.0246 26.3444L9.35962 29.6159C9.17797 29.7247 8.9425 29.6656 8.83369 29.4839C8.72487 29.3023 8.78391 29.0669 8.96555 28.958L22.3654 20.6504L8.46645 28.6744C8.28589 28.7756 8.05763 28.7151 7.95078 28.5378C7.84393 28.3605 7.89708 28.1305 8.07085 28.018L24.4967 17.7202L7.42225 27.5758C7.2411 27.6758 7.01316 27.6142 6.90733 27.4363C6.8015 27.2584 6.85602 27.0286 7.03049 26.9172L17.1781 20.6887L6.65252 26.7654C6.47199 26.8593 6.24953 26.7957 6.14579 26.6208C6.04206 26.4457 6.0932 26.2201 6.26229 26.1068L12.5927 22.2505L5.98782 26.0653C5.80701 26.1621 5.58217 26.0993 5.47751 25.923C5.37285 25.7467 5.42542 25.5194 5.59682 25.4069L12.0001 21.5084L5.32005 25.3631C5.13883 25.4616 4.9121 25.3991 4.80703 25.2216C4.70196 25.044 4.75622 24.8153 4.92982 24.7038L8.54465 22.5119L4.76499 24.6938C4.64748 24.7642 4.50135 24.7666 4.38163 24.7001C4.26192 24.6334 4.18681 24.508 4.1846 24.3711C4.18239 24.2341 4.25341 24.1065 4.37092 24.0361L18.2545 15.3911L3.95002 23.652C3.76895 23.7564 3.53762 23.6964 3.42996 23.5173C3.32231 23.3382 3.37801 23.1058 3.55519 22.9949L17.0808 14.5616L3.26002 22.5371C3.07833 22.6407 2.84718 22.5795 2.74051 22.3997C2.63385 22.2199 2.69102 21.9876 2.86902 21.8778L5.35225 20.3706L2.87592 21.8004C2.69406 21.9088 2.45876 21.8493 2.35037 21.6674C2.24197 21.4855 2.30153 21.2502 2.48339 21.1418L9.46695 16.8486L2.44429 20.9035C2.26414 21.0025 2.03792 20.9419 1.93154 20.7659C1.82517 20.59 1.87651 20.3615 2.04792 20.2479L14.7961 12.1642L2.02185 19.5387C1.84287 19.6348 1.62002 19.5745 1.51381 19.4014C1.40759 19.2282 1.4549 19.0023 1.62165 18.8864L10.3486 13.2129L1.71825 18.1964C1.53858 18.2952 1.31295 18.2351 1.20621 18.0599C1.09948 17.8848 1.14943 17.6569 1.31959 17.5424L7.71972 13.4399L1.56722 16.9926C1.38674 17.0984 1.15479 17.04 1.04599 16.8612C0.937196 16.6826 0.991738 16.4497 1.16855 16.3379L6.79512 12.7276L1.48212 15.7943C1.30323 15.8917 1.07946 15.8321 0.972587 15.6588C0.865716 15.4854 0.913059 15.2587 1.08039 15.1426L8.03175 10.5834L1.61245 14.2901C1.43239 14.3909 1.20497 14.3309 1.09784 14.1546C0.990703 13.9783 1.04228 13.749 1.21455 13.6355L4.10335 11.7846L1.77039 13.1318C1.5898 13.2423 1.35382 13.1855 1.2433 13.0049C1.13279 12.8243 1.1896 12.5883 1.37019 12.4777L4.47672 10.4637L2.13072 11.8176C1.95174 11.9213 1.72275 11.8645 1.61326 11.6889C1.50377 11.5134 1.55329 11.2826 1.72515 11.1676L5.72715 8.47883L2.79082 10.1732C2.61499 10.2717 2.39289 10.2172 2.28259 10.0485C2.17228 9.87986 2.21145 9.65456 2.37222 9.533L6.62339 6.41496L4.25285 7.78346C4.07883 7.87262 3.86559 7.8165 3.758 7.65324C3.6504 7.48997 3.68293 7.27189 3.83349 7.14713L5.79002 5.70273C5.75172 5.67249 5.71946 5.63529 5.69495 5.5931C5.5891 5.40976 5.65192 5.17532 5.83525 5.06946L9.61569 2.88753C9.79168 2.78672 10.0157 2.84044 10.1269 3.0101C10.238 3.17975 10.1978 3.40662 10.0351 3.5277L9.81502 3.68946L12.3152 2.2466C12.4914 2.14476 12.7165 2.19847 12.8279 2.36891C12.9392 2.53934 12.8979 2.76706 12.7338 2.88753L8.48255 6.0025L15.0966 2.1845C15.275 2.0857 15.4995 2.14383 15.6075 2.31677C15.7155 2.4897 15.6692 2.71693 15.5022 2.83386L11.4971 5.52563L16.9067 2.40376C17.0867 2.29912 17.3172 2.3572 17.4261 2.5346C17.535 2.71199 17.4824 2.94387 17.3077 3.05696L14.2096 5.06563L18.1533 2.7894C18.333 2.69058 18.5586 2.75066 18.6654 2.92575C18.7721 3.10084 18.7221 3.32892 18.552 3.44336L15.6502 5.301L19.3148 3.185C19.4943 3.08294 19.7224 3.14142 19.8307 3.31725C19.939 3.49308 19.8885 3.72308 19.7166 3.83743L12.7713 8.3922L20.5913 3.8773C20.771 3.77848 20.9966 3.83856 21.1034 4.01365C21.2101 4.18874 21.1601 4.41682 20.99 4.53126L15.3565 8.1438L21.6432 4.51516C21.8237 4.40939 22.0556 4.46785 22.1644 4.64653C22.2732 4.8252 22.2187 5.05811 22.0419 5.1699L15.6502 9.26696L22.5739 5.26956C22.7532 5.17086 22.9783 5.23031 23.0854 5.40463C23.1926 5.57895 23.1439 5.80668 22.9749 5.922L14.2433 11.5954L30.42 2.2581C30.6001 2.15903 30.8264 2.21972 30.9327 2.39564C31.0391 2.57156 30.9878 2.80008 30.8164 2.9136L18.0652 10.9997L33.3717 2.1638C33.4893 2.09368 33.6354 2.09164 33.755 2.15847C33.8745 2.22529 33.9493 2.35081 33.9512 2.48775C33.9531 2.62469 33.8818 2.75224 33.7642 2.82236L26.7875 7.10956L35.0369 2.3478C35.2186 2.24426 35.4497 2.30545 35.5564 2.48532C35.663 2.66519 35.6059 2.89736 35.4279 3.00713L32.9385 4.51516L36.1585 2.65523C36.3385 2.56031 36.5612 2.62253 36.666 2.79696C36.7707 2.97139 36.7209 3.19726 36.5526 3.3115L23.0186 11.7556L37.7677 3.23713C37.9494 3.1281 38.185 3.18697 38.294 3.36861C38.4031 3.55026 38.3442 3.7859 38.1626 3.89493L24.2859 12.5344L39.1838 3.93786C39.365 3.83931 39.5917 3.90185 39.6968 4.07937C39.8019 4.2569 39.7476 4.48575 39.574 4.5972L35.9523 6.79216L39.9543 4.48296C40.1351 4.38633 40.3599 4.44906 40.4646 4.62534C40.5692 4.80162 40.5167 5.02905 40.3453 5.14153L33.9536 9.03466L40.8014 5.08096C40.9822 4.98433 41.2071 5.04706 41.3117 5.22334C41.4164 5.39962 41.3638 5.62705 41.1924 5.73953L34.8605 9.5951L41.5052 5.76176C41.6843 5.67109 41.903 5.73391 42.0067 5.9058C42.1103 6.07768 42.0638 6.30043 41.9001 6.4165L31.741 12.651L42.3003 6.5545C42.4808 6.45333 42.7091 6.51376 42.8159 6.69101C42.9228 6.86827 42.8696 7.09834 42.6959 7.21076L26.2785 17.5056L43.1881 7.7436C43.3684 7.64728 43.5926 7.70943 43.6976 7.88484C43.8026 8.06025 43.7514 8.28719 43.5814 8.40063L30.1808 16.7075L43.8727 8.80236C44.0544 8.69883 44.2855 8.76002 44.3922 8.93989C44.4989 9.11976 44.4417 9.35193 44.2637 9.4617L38.8549 12.7507L44.2645 9.62806C44.4451 9.52858 44.6721 9.58982 44.7781 9.76667C44.8842 9.94352 44.8314 10.1726 44.6585 10.2851L31.8659 18.2108L44.762 10.765C44.9427 10.6671 45.1686 10.729 45.2739 10.9056C45.3793 11.0822 45.3266 11.3103 45.1546 11.4228L36.2766 16.8661L45.0472 11.8015C45.2283 11.6972 45.4596 11.757 45.5673 11.9361C45.6749 12.1153 45.6192 12.3478 45.4421 12.4586L31.1667 21.3825L45.3501 13.1953C45.5307 13.0958 45.7577 13.1572 45.8637 13.334C45.9698 13.5108 45.917 13.7399 45.7441 13.8524L34.1061 21.069L45.4674 14.511C45.6485 14.4089 45.8779 14.4698 45.9845 14.6482C46.0912 14.8266 46.0362 15.0575 45.8607 15.1687L36.7634 20.7754L45.5034 15.7338C45.6845 15.6337 45.9125 15.6953 46.0183 15.8733C46.1241 16.0512 46.0696 16.2809 45.8952 16.3923L40.7033 19.5672L45.3654 16.8769C45.5456 16.7793 45.7708 16.8406 45.8765 17.0163C45.9821 17.1919 45.9309 17.4197 45.7602 17.5331L33.423 25.2712L45.081 18.5413C45.262 18.4369 45.4934 18.4968 45.601 18.6759C45.7087 18.8551 45.653 19.0875 45.4758 19.1984L35.9001 25.1637L44.5834 20.1521C44.7644 20.0422 45.0002 20.0998 45.1101 20.2808C45.22 20.462 45.1623 20.6978 44.9813 20.8076L32.4609 28.781L43.4518 22.4359C43.632 22.3383 43.8572 22.3998 43.9628 22.5755C44.0685 22.7511 44.0173 22.9788 43.8466 23.0923L37.0049 27.3664L41.7467 24.6271C41.9266 24.531 42.1502 24.5926 42.2556 24.7672C42.361 24.9418 42.3112 25.1682 42.1423 25.2826L36.2819 28.968L39.2505 27.2544C39.4292 27.1558 39.654 27.2146 39.7616 27.3883C39.8691 27.5618 39.8217 27.7892 39.6537 27.9053L30.3778 34.0572L35.7169 30.9751C35.8974 30.8719 36.1272 30.9316 36.235 31.1094C36.3427 31.2871 36.289 31.5184 36.114 31.6306L34.0655 32.9339C34.1738 32.9507 34.2694 33.0136 34.3277 33.1064C34.438 33.28 34.3917 33.5097 34.2227 33.627L29.2018 37.1085L30.7351 36.2253C30.9112 36.1259 31.1342 36.1804 31.2446 36.3498C31.3551 36.5191 31.3149 36.7452 31.1529 36.8661L28.0234 39.1524C28.1748 39.1183 28.332 39.1788 28.4213 39.3058C28.5346 39.4701 28.503 39.6938 28.3485 39.8201L25.7916 41.91C25.8912 41.9888 25.9453 42.1118 25.9361 42.2385C25.9269 42.3651 25.8556 42.479 25.7456 42.5425L23.2394 43.9893C23.1807 44.0248 23.1133 44.0437 23.0447 44.0438Z" fill="#0077B6"/>
<path d="M10.8116 12.6151C10.652 12.6149 10.5093 12.5159 10.4531 12.3665C10.397 12.2171 10.4393 12.0486 10.5593 11.9434L11.7921 10.8654L9.03825 12.4541C8.86188 12.5543 8.63788 12.4999 8.52731 12.3298C8.41673 12.1596 8.45789 11.9328 8.62118 11.8124L8.71395 11.7449L8.26468 12.004C8.08842 12.1059 7.86329 12.0521 7.75198 11.8816C7.64067 11.7112 7.68198 11.4836 7.84608 11.3631L8.59282 10.8156L7.77172 11.2872C7.59863 11.3864 7.37837 11.3363 7.26526 11.172C7.15216 11.0076 7.18403 10.784 7.33855 10.6578L9.27055 9.08682L7.73722 9.97232C7.56692 10.0694 7.35084 10.0223 7.23631 9.86325C7.12179 9.70417 7.14572 9.48433 7.29178 9.35362L8.53302 8.25575C8.38752 8.21038 8.28272 8.08312 8.26609 7.93163C8.24946 7.78013 8.32416 7.63317 8.45635 7.55732L10.9902 6.09528C11.1605 5.99823 11.3766 6.04528 11.4911 6.20435C11.6056 6.36343 11.5817 6.58327 11.4356 6.71398L10.6552 7.40398L13.0579 6.01862C13.2306 5.92161 13.4488 5.97222 13.5613 6.13536C13.6737 6.2985 13.6432 6.52042 13.4911 6.64728L11.5575 8.22048L14.2654 6.65648C14.4432 6.5411 14.6809 6.59173 14.7963 6.76957C14.9117 6.9474 14.8611 7.1851 14.6832 7.30048L13.9434 7.84252L14.7177 7.39632C14.8937 7.29908 15.1148 7.35425 15.2245 7.52274C15.3341 7.69123 15.295 7.91579 15.1348 8.03725L14.9048 8.20668C15.056 8.17284 15.2127 8.23334 15.3019 8.36002C15.4167 8.5203 15.3911 8.74146 15.2429 8.87138L14.0124 9.94472L14.0523 9.92172C14.2354 9.81757 14.4683 9.8808 14.5737 10.0633C14.6791 10.2457 14.6174 10.4791 14.4356 10.5857L11.0032 12.5637C10.9451 12.5977 10.8789 12.6155 10.8116 12.6151Z" fill="#51CB20"/>
<path d="M4.84163 17.6864C4.69216 17.6865 4.55629 17.5996 4.49356 17.464C4.43082 17.3283 4.45268 17.1685 4.54953 17.0547L5.36833 16.0917L4.58327 16.5448C4.42727 16.6349 4.22964 16.6042 4.10831 16.4711C3.98699 16.3379 3.97471 16.1383 4.0788 15.9913L4.74503 15.0506C4.57835 15.0361 4.4403 14.9152 4.40399 14.7519C4.36768 14.5886 4.44148 14.4206 4.58633 14.3368L5.78233 13.6468C5.93815 13.5575 6.13512 13.5883 6.2562 13.721C6.37728 13.8536 6.39 14.0526 6.2868 14.1996L5.71333 15.0061L6.9009 14.3207C7.06218 14.2292 7.26585 14.2663 7.38457 14.4087C7.50328 14.5512 7.503 14.7582 7.3839 14.9003L6.56893 15.8625L7.12783 15.5405C7.31101 15.4364 7.54391 15.4996 7.64927 15.6821C7.75463 15.8646 7.69295 16.0979 7.51117 16.2044L5.0333 17.635C4.97519 17.6691 4.90898 17.6868 4.84163 17.6864Z" fill="#51CB20"/>
<path d="M23.612 5.63146L23.5568 5.58316C23.441 5.47506 23.3375 5.35853 23.2172 5.25273C23.1746 5.21957 23.1236 5.19887 23.07 5.19293C16.239 -0.0595098 5.76173 1.71916 1.95063 9.96543C-1.92257 18.3473 3.81363 24.4385 9.13583 30.0421L17.7501 39.1087C19.0266 40.4526 20.4426 42.6192 22.0334 43.6044C23.5767 44.5604 24.5021 43.7938 25.6322 42.7204C28.0901 40.3844 30.3334 37.7708 32.6679 35.3137C37.9755 29.7224 46.0983 23.7071 46.2885 15.3566C46.2885 15.3412 46.2793 15.3328 46.277 15.3198C46.2747 15.3067 46.2892 15.2929 46.2885 15.2776C45.8101 3.39816 32.2753 -1.57521 23.612 5.63146ZM36.1777 30.499L29.4801 37.5477C27.9812 39.1255 26.4318 41.4163 24.637 42.6461C23.3138 43.553 22.8668 42.9796 21.8188 41.8794L16.3294 36.1003C12.792 32.3704 9.17723 28.7019 5.70576 24.9108C2.33243 21.2308 0.8474 16.0765 2.48576 11.2365C5.43513 2.52953 15.976 0.40049 22.646 6.12213C25.2377 8.58985 26.7271 11.9968 26.7783 15.5751C26.7852 15.8695 27.8984 15.6694 27.8885 15.2776C27.8364 11.8629 26.4905 8.59526 24.1226 6.13439C32.6188 -1.40961 44.7176 4.87322 45.1753 15.5398C45.0043 22.163 40.3813 26.0738 36.1777 30.499Z" fill="#262626"/>
<path d="M9.61898 6.83283C8.11325 7.6156 5.86691 9.7845 7.23925 11.6069C8.49658 13.2759 11.2489 12.5085 12.7952 11.7794C12.8313 11.7625 12.8443 11.7503 12.8719 11.7357C12.8803 11.7319 12.8949 11.728 12.9018 11.7242C14.3746 10.8939 16.6232 8.78246 15.2133 6.96086C13.9537 5.33553 11.1377 6.04393 9.61898 6.83283ZM12.1098 11.6759C10.6608 12.3329 8.16615 12.3429 7.96988 10.3066C7.79355 8.49266 9.62971 7.21386 11.0948 6.7692C12.0769 6.47173 12.9739 6.2977 13.8256 6.99383C14.2538 7.34704 14.5045 7.87097 14.511 8.42596C14.534 9.87956 13.2629 11.0135 12.1098 11.6759Z" fill="#262626"/>
<path d="M6.34024 13.5794C5.1438 13.5446 4.09034 14.3622 3.82711 15.5298C3.65217 16.0603 3.71558 16.6405 4.00094 17.1206C4.2863 17.6008 4.76565 17.9338 5.31521 18.0337C6.53182 18.0977 7.61828 17.2777 7.89044 16.0902C8.10127 14.9671 7.63821 13.6637 6.34024 13.5794ZM5.32977 17.1298C4.9146 16.6538 4.76705 16.0008 4.93724 15.3926C5.09057 14.7294 5.67861 13.8194 6.38624 14.4902C6.79871 14.9675 6.94542 15.6194 6.77724 16.2275C6.59707 16.8715 6.05427 17.8183 5.32977 17.1298Z" fill="#262626"/>
</g>
<defs>
<clipPath id="clip0_17_2884">
<rect width="46" height="46" fill="white" transform="translate(0.5 0.09375)"/>
</clipPath>
</defs>
</svg>
