<svg width="47" height="47" viewBox="0 0 47 47" fill="none" xmlns="http://www.w3.org/2000/svg">
<g clip-path="url(#clip0_17_2856)">
<mask id="mask0_17_2856" style="mask-type:luminance" maskUnits="userSpaceOnUse" x="0" y="0" width="47" height="47">
<path d="M46.5 0.09375H0.5V46.0938H46.5V0.09375Z" fill="white"/>
</mask>
<g mask="url(#mask0_17_2856)">
<path d="M15.1435 12.575C15.0615 12.5752 14.9816 12.5491 14.9156 12.5005C14.8495 12.452 14.8008 12.3835 14.7765 12.3052C14.7522 12.2269 14.7537 12.1428 14.7807 12.0654C14.8077 11.988 14.8588 11.9213 14.9266 11.8751L17.3331 10.229C17.2679 10.2339 17.2025 10.2212 17.1437 10.1924C17.085 10.1636 17.035 10.1196 16.9989 10.065C16.9439 9.98605 16.9207 9.88933 16.9338 9.79403C16.9468 9.69874 16.9953 9.61184 17.0694 9.55058L20.7555 6.51151C20.6794 6.5115 20.605 6.48882 20.5418 6.44636C20.4786 6.4039 20.4295 6.34359 20.4007 6.27311C20.3719 6.20263 20.3648 6.12518 20.3802 6.05062C20.3956 5.97606 20.4328 5.90778 20.4872 5.85448L22.6691 3.71624C22.656 3.63906 22.6668 3.5597 22.7001 3.48884C22.7334 3.41797 22.7876 3.35901 22.8554 3.31988L23.4289 2.98791C23.5097 2.9413 23.6048 2.92577 23.6962 2.94422C23.7877 2.96267 23.8693 3.01383 23.9257 3.08813C23.9821 3.16242 24.0095 3.25475 24.0027 3.3478C23.996 3.44085 23.9555 3.52823 23.8889 3.59358L23.1874 4.28358L24.1266 3.74154C24.2098 3.69353 24.308 3.67852 24.4017 3.69947C24.4955 3.72042 24.578 3.77581 24.6328 3.85468C24.6877 3.93354 24.7109 4.03013 24.698 4.12532C24.685 4.22051 24.6368 4.30736 24.5628 4.36868L21.1128 7.21148L25.1761 4.86854C25.2618 4.82088 25.3625 4.80788 25.4575 4.8322C25.5525 4.85653 25.6346 4.91634 25.6868 4.99932C25.7391 5.08231 25.7575 5.18216 25.7384 5.27833C25.7193 5.37451 25.664 5.4597 25.584 5.51638L23.6298 6.84808L25.8316 5.57618C25.9196 5.52615 26.0238 5.51295 26.1215 5.53947C26.2192 5.566 26.3025 5.63008 26.3531 5.71775C26.4037 5.80541 26.4176 5.90953 26.3917 6.0074C26.3658 6.10526 26.3023 6.18892 26.215 6.24011L15.3321 12.5267C15.2746 12.559 15.2095 12.5756 15.1435 12.575Z" fill="#D3E5F4"/>
<path d="M4.31723 43.4104C4.23329 43.4106 4.1516 43.3833 4.08471 43.3326C4.01783 43.2818 3.96944 43.2105 3.94697 43.1297C3.92451 43.0488 3.92922 42.9627 3.96037 42.8848C3.99153 42.8069 4.04741 42.7414 4.11943 42.6982L6.30213 41.3865L3.01466 43.284C2.92729 43.3326 2.82435 43.3451 2.72781 43.319C2.63128 43.2929 2.54879 43.2299 2.49797 43.1438C2.44714 43.0577 2.432 42.9551 2.45577 42.8579C2.47954 42.7607 2.54034 42.6768 2.6252 42.6239L5.5715 40.8551L3.01466 42.331C2.92758 42.3801 2.82478 42.3932 2.72817 42.3675C2.63157 42.3419 2.54879 42.2794 2.4975 42.1936C2.44621 42.1079 2.43045 42.0054 2.45359 41.9082C2.47673 41.8111 2.53693 41.7267 2.62136 41.6731L23.0224 29.0331L3.01466 40.5838C2.92747 40.6312 2.82528 40.6428 2.7296 40.6166C2.63391 40.5901 2.5522 40.5276 2.50164 40.4422C2.45109 40.3568 2.43564 40.2551 2.45854 40.1586C2.48144 40.062 2.54091 39.9781 2.62443 39.9244L13.7633 33.1692L3.01466 39.3723C2.92772 39.4176 2.82675 39.4279 2.73251 39.401C2.63826 39.3741 2.5579 39.312 2.50794 39.2277C2.45798 39.1434 2.44221 39.0432 2.46388 38.9477C2.48554 38.8521 2.543 38.7683 2.62443 38.7138L15.7835 30.7021L3.01466 38.0736C2.92793 38.1188 2.82721 38.1291 2.73312 38.1024C2.63903 38.0758 2.55868 38.0142 2.50853 37.9302C2.45837 37.8463 2.4422 37.7463 2.46332 37.6508C2.48444 37.5554 2.54125 37.4715 2.62213 37.4166L19.8545 26.7507L3.01466 36.472C2.92769 36.5192 2.82585 36.5309 2.73045 36.5047C2.63504 36.4785 2.55346 36.4165 2.50276 36.3315C2.45206 36.2465 2.43617 36.1453 2.45842 36.0489C2.48067 35.9525 2.53933 35.8684 2.62213 35.8142L15.91 27.6278L3.01466 35.0713C2.92747 35.1188 2.82528 35.1305 2.7296 35.1041C2.63391 35.0777 2.5522 35.0154 2.50164 34.9298C2.45109 34.8444 2.43564 34.7427 2.45854 34.6461C2.48144 34.5496 2.54091 34.4656 2.62443 34.412L4.4399 33.3149L3.01466 34.1337C2.92772 34.179 2.82675 34.1892 2.73251 34.1623C2.63826 34.1354 2.5579 34.0734 2.50794 33.9891C2.45798 33.9049 2.44221 33.8045 2.46388 33.7089C2.48554 33.6133 2.543 33.5297 2.62443 33.4751L6.91777 30.8623L3.01466 33.1179C2.92763 33.1644 2.82601 33.1756 2.73096 33.149C2.6359 33.1225 2.55474 33.0604 2.50436 32.9755C2.45398 32.8906 2.43827 32.7896 2.46049 32.6935C2.48271 32.5973 2.54116 32.5135 2.62366 32.4593L6.34813 30.1877L3.01466 32.112C2.92733 32.1641 2.8229 32.1793 2.72434 32.1543C2.62578 32.1294 2.54117 32.0663 2.48911 31.979C2.43706 31.8917 2.42183 31.7872 2.44678 31.6887C2.47172 31.5901 2.5348 31.5055 2.62213 31.4534L10.449 26.6234L3.01236 30.9168C2.92575 30.9631 2.82468 30.9743 2.72999 30.9483C2.6353 30.9222 2.55422 30.8609 2.50348 30.7768C2.45274 30.6927 2.4362 30.5923 2.45728 30.4964C2.47836 30.4005 2.53544 30.3163 2.61676 30.2613L15.0023 22.4535L3.01466 29.3735C2.92778 29.4193 2.82664 29.43 2.73211 29.4034C2.63757 29.3768 2.55685 29.3149 2.50659 29.2305C2.45634 29.1461 2.44039 29.0457 2.46203 28.9499C2.48367 28.8541 2.54125 28.7703 2.6229 28.7157L7.2022 25.9012L3.01466 28.3185C2.92825 28.3648 2.82741 28.3762 2.73285 28.3504C2.63829 28.3246 2.55721 28.2636 2.50626 28.1798C2.45531 28.0961 2.43838 27.996 2.45893 27.9002C2.47948 27.8044 2.53596 27.7201 2.61676 27.6646L15.91 19.1538L3.01466 26.6004C2.92811 26.6473 2.82684 26.6592 2.73182 26.6334C2.6368 26.6077 2.55532 26.5464 2.50427 26.4622C2.45321 26.378 2.4365 26.2775 2.45758 26.1813C2.47867 26.0852 2.53594 26.0008 2.61753 25.9457L14.1175 18.6263L3.01466 25.0357C2.92769 25.0828 2.82585 25.0945 2.73045 25.0684C2.63504 25.0422 2.55346 24.9801 2.50276 24.8951C2.45206 24.8102 2.43617 24.7089 2.45842 24.6125C2.48067 24.5161 2.53933 24.432 2.62213 24.3779L6.7031 21.8555L3.01466 23.9846C2.92832 24.0314 2.82727 24.0434 2.73239 24.0179C2.6375 23.9924 2.55602 23.9315 2.50476 23.8477C2.45351 23.7638 2.43639 23.6635 2.45695 23.5675C2.47751 23.4714 2.53417 23.3869 2.61523 23.3314L14.7792 15.4554L3.01466 22.2504C2.92818 22.2979 2.82667 22.3103 2.73129 22.2849C2.63591 22.2595 2.554 22.1983 2.50263 22.114C2.45125 22.0297 2.43436 21.9289 2.45548 21.8325C2.4766 21.7361 2.53409 21.6516 2.616 21.5964L13.3033 14.7033L3.01466 20.6404C2.93049 20.6878 2.83152 20.7016 2.73758 20.6792C2.64363 20.6567 2.56161 20.5996 2.50794 20.5193C2.45427 20.439 2.4329 20.3414 2.4481 20.246C2.4633 20.1506 2.51396 20.0645 2.58993 20.0048L6.32667 17.126L3.01466 19.0388C2.92977 19.0879 2.82932 19.1025 2.73396 19.0798C2.63859 19.057 2.55557 18.9986 2.50196 18.9165C2.44835 18.8344 2.42823 18.735 2.44573 18.6384C2.46324 18.542 2.51703 18.4559 2.59606 18.3979L3.45933 17.7654L3.01466 18.0222C2.93042 18.069 2.83165 18.0823 2.73802 18.0595C2.64439 18.0368 2.56276 17.9796 2.5094 17.8993C2.45604 17.8191 2.43485 17.7217 2.45006 17.6266C2.46527 17.5314 2.51575 17.4455 2.59146 17.3859L2.9035 17.1474C2.83765 17.1608 2.76948 17.1569 2.70556 17.1362C2.64164 17.1156 2.58412 17.0788 2.53856 17.0294C2.47996 16.9643 2.4454 16.8811 2.44066 16.7936C2.43592 16.7062 2.46127 16.6197 2.5125 16.5487L3.52603 15.1403L3.01466 15.4355C2.94756 15.474 2.87036 15.4914 2.79322 15.4852C2.71607 15.4791 2.64259 15.4497 2.58244 15.401C2.52229 15.3523 2.47829 15.2866 2.45623 15.2124C2.43417 15.1382 2.43507 15.0591 2.45883 14.9854L2.62596 14.4664C2.56886 14.4321 2.5217 14.3834 2.48913 14.3253C2.45657 14.2671 2.43973 14.2015 2.44027 14.1348C2.44081 14.0682 2.45872 14.0028 2.49222 13.9452C2.52573 13.8876 2.57367 13.8397 2.63133 13.8063L3.01466 13.5847C3.08178 13.5459 3.15909 13.5284 3.23638 13.5344C3.31368 13.5404 3.38734 13.5697 3.44763 13.6185C3.50792 13.6672 3.55202 13.7331 3.57409 13.8074C3.59616 13.8818 3.59518 13.961 3.57126 14.0348L3.4946 14.2732L4.68906 13.5832C4.7649 13.5401 4.8532 13.5241 4.93935 13.5379C5.02551 13.5517 5.10438 13.5945 5.16292 13.6592C5.22146 13.7239 5.25617 13.8067 5.26132 13.8938C5.26647 13.9809 5.24174 14.0671 5.19123 14.1383L4.18 15.5482L7.584 13.5817C7.66828 13.534 7.76749 13.52 7.86169 13.5424C7.95589 13.5649 8.03809 13.6222 8.09179 13.7028C8.14548 13.7833 8.16669 13.8813 8.15114 13.9769C8.13559 14.0724 8.08444 14.1586 8.00797 14.218L7.81323 14.3667L9.17483 13.5809C9.25972 13.5319 9.36018 13.5172 9.45554 13.54C9.5509 13.5627 9.63393 13.6211 9.68753 13.7032C9.74114 13.7853 9.76127 13.8848 9.74376 13.9813C9.72626 14.0777 9.67246 14.1638 9.59343 14.2218L8.7317 14.8528L10.9382 13.5794C11.0224 13.531 11.1218 13.5165 11.2163 13.5386C11.3109 13.5607 11.3935 13.6179 11.4475 13.6986C11.5016 13.7793 11.5229 13.8774 11.5074 13.9733C11.4918 14.0691 11.4404 14.1555 11.3637 14.2149L7.62387 17.0961L26.4409 6.23246C26.5272 6.18676 26.6277 6.1757 26.7218 6.20153C26.816 6.22737 26.8967 6.28816 26.9476 6.3715C26.9984 6.45483 27.0156 6.55444 26.9955 6.64999C26.9755 6.74553 26.9197 6.82982 26.8396 6.88566L16.1584 13.7733L27.41 7.27666C27.4966 7.22738 27.5989 7.21374 27.6954 7.23862C27.7919 7.26351 27.8748 7.32497 27.9268 7.40999C27.9787 7.49501 27.9955 7.5969 27.9736 7.69408C27.9517 7.79126 27.8928 7.8761 27.8094 7.93063L15.644 15.8104L28.4626 8.41056C28.5496 8.3634 28.6514 8.35169 28.7469 8.37789C28.8423 8.40408 28.9238 8.46615 28.9745 8.55111C29.0252 8.63607 29.0411 8.73734 29.0189 8.83374C28.9966 8.93014 28.938 9.01421 28.8552 9.06836L24.778 11.586L29.0967 9.09136C29.1835 9.04176 29.2862 9.02802 29.383 9.05309C29.4798 9.07816 29.5629 9.14004 29.6147 9.22555C29.6665 9.31105 29.6829 9.41341 29.6603 9.5108C29.6377 9.60818 29.578 9.69289 29.4938 9.74686L17.99 17.07L30.045 10.1102C30.1318 10.0594 30.235 10.0447 30.3325 10.0693C30.43 10.0938 30.514 10.1557 30.5663 10.2416C30.6186 10.3275 30.635 10.4304 30.6121 10.5283C30.5892 10.6262 30.5287 10.7112 30.4437 10.7649L17.1505 19.2749L31.0846 11.228C31.1718 11.1798 31.2742 11.1675 31.3703 11.1935C31.4664 11.2195 31.5487 11.2819 31.5996 11.3675C31.6505 11.4531 31.6661 11.5551 31.6431 11.652C31.6201 11.7489 31.5603 11.833 31.4764 11.8866L26.8887 14.7064L31.7233 11.9149C31.8099 11.8687 31.911 11.8574 32.0056 11.8834C32.1003 11.9095 32.1814 11.9709 32.2322 12.055C32.2829 12.139 32.2994 12.2394 32.2784 12.3353C32.2573 12.4312 32.2002 12.5154 32.1189 12.5704L19.7433 20.372L32.654 12.9177C32.7411 12.8687 32.8439 12.8556 32.9405 12.8812C33.0371 12.9069 33.1199 12.9692 33.1712 13.055C33.2225 13.1408 33.2382 13.2432 33.2151 13.3405C33.1919 13.4377 33.1317 13.5221 33.0473 13.5755L25.215 18.4101L33.5717 13.5847C33.6587 13.5382 33.7604 13.5271 33.8554 13.5536C33.9505 13.5801 34.0316 13.6423 34.082 13.7271C34.1324 13.812 34.1481 13.913 34.1259 14.0091C34.1037 14.1053 34.0452 14.1892 33.9627 14.2433L30.2467 16.5111L35.322 13.5809C35.409 13.5344 35.5107 13.5232 35.6057 13.5498C35.7008 13.5763 35.7819 13.6384 35.8323 13.7233C35.8827 13.8081 35.8984 13.9092 35.8762 14.0053C35.854 14.1015 35.7955 14.1853 35.713 14.2395L31.4074 16.8599L37.0938 13.5771C37.181 13.5297 37.2832 13.5179 37.3788 13.5443C37.4745 13.5707 37.5562 13.6332 37.6068 13.7186C37.6573 13.804 37.6728 13.9057 37.6499 14.0023C37.627 14.0989 37.5675 14.1828 37.484 14.2364L35.69 15.322L38.7206 13.5732C38.8076 13.5261 38.9094 13.5144 39.0049 13.5406C39.1003 13.5668 39.1818 13.6288 39.2325 13.7138C39.2832 13.7987 39.2991 13.9 39.2769 13.9964C39.2546 14.0928 39.196 14.1769 39.1132 14.231L25.8169 22.4229L41.154 13.5679C41.2411 13.5188 41.3439 13.5057 41.4405 13.5314C41.5371 13.557 41.6199 13.6194 41.6712 13.7051C41.7225 13.7909 41.7383 13.8934 41.7151 13.9906C41.692 14.0878 41.6318 14.1722 41.5473 14.2257L24.3242 24.8823L43.937 13.5587C44.0244 13.5089 44.1278 13.4954 44.2249 13.5212C44.3221 13.5469 44.4053 13.6097 44.4565 13.6962C44.5078 13.7827 44.5231 13.8858 44.499 13.9834C44.475 14.081 44.4136 14.1652 44.328 14.218L31.1506 22.2442L43.9869 14.8336C44.0741 14.7862 44.1763 14.7745 44.2719 14.8009C44.3676 14.8273 44.4493 14.8897 44.4999 14.9752C44.5504 15.0606 44.5659 15.1623 44.543 15.2588C44.5201 15.3554 44.4606 15.4394 44.3771 15.493L33.2482 22.2442L43.9876 16.0442C44.0745 15.9978 44.1758 15.9866 44.2706 16.0129C44.3655 16.0392 44.4466 16.101 44.4971 16.1855C44.5477 16.2699 44.5638 16.3706 44.5422 16.4666C44.5206 16.5626 44.4628 16.6466 44.3809 16.7012L23.9784 29.342L43.9884 17.7899C44.0757 17.7432 44.1776 17.732 44.2729 17.7587C44.3682 17.7854 44.4495 17.848 44.4997 17.9333C44.55 18.0186 44.5653 18.12 44.5424 18.2163C44.5195 18.3126 44.4603 18.3964 44.3771 18.45L41.4438 20.2133L43.9892 18.7444C44.0768 18.6929 44.1813 18.6782 44.2797 18.7038C44.3285 18.7164 44.3742 18.7385 44.4144 18.7688C44.4546 18.7992 44.4884 18.8371 44.514 18.8805C44.5395 18.9239 44.5562 18.9719 44.5632 19.0217C44.5701 19.0716 44.5672 19.1223 44.5546 19.1711C44.542 19.2198 44.5199 19.2656 44.4895 19.3057C44.4592 19.3459 44.4213 19.3798 44.3779 19.4053L42.2028 20.7086L43.9899 19.6767C44.077 19.6302 44.1786 19.619 44.2736 19.6455C44.3687 19.672 44.4499 19.7343 44.5002 19.8191C44.5506 19.9039 44.5663 20.0049 44.5441 20.1011C44.5219 20.1972 44.4634 20.2811 44.3809 20.3352L32.2185 27.7819L43.9915 20.9861C44.0781 20.9404 44.179 20.9297 44.2734 20.956C44.3678 20.9824 44.4485 21.044 44.4989 21.1279C44.5494 21.2119 44.5657 21.312 44.5447 21.4077C44.5236 21.5034 44.4666 21.5874 44.3855 21.6424L28.2855 31.7026L43.9922 22.6337C44.0354 22.6077 44.0832 22.5905 44.133 22.583C44.1828 22.5755 44.2336 22.5779 44.2825 22.5901C44.3313 22.6022 44.3773 22.6238 44.4179 22.6538C44.4584 22.6837 44.4926 22.7213 44.5186 22.7644C44.5445 22.8076 44.5618 22.8554 44.5692 22.9052C44.5767 22.955 44.5743 23.0058 44.5622 23.0547C44.5501 23.1035 44.5284 23.1495 44.4985 23.19C44.4686 23.2306 44.431 23.2648 44.3878 23.2907L30.3011 32.1197L43.993 24.2153C44.0796 24.1684 44.1808 24.1566 44.2759 24.1824C44.3709 24.2081 44.4524 24.2694 44.5034 24.3536C44.5545 24.4377 44.5712 24.5383 44.5501 24.6345C44.529 24.7306 44.4717 24.815 44.3901 24.8701L30.6407 33.6016L43.9945 25.892C44.0819 25.84 44.1863 25.8248 44.2849 25.8497C44.3834 25.8747 44.468 25.9377 44.5201 26.0251C44.5721 26.1124 44.5874 26.2168 44.5624 26.3154C44.5375 26.4139 44.4744 26.4986 44.3871 26.5506L40.4648 28.9641L43.9953 26.927C44.0823 26.8745 44.1867 26.8586 44.2854 26.883C44.3841 26.9074 44.4691 26.97 44.5216 27.057C44.5742 27.144 44.59 27.2484 44.5657 27.3471C44.5413 27.4458 44.4787 27.5307 44.3917 27.5833L36.035 32.8503L43.9968 28.2534C44.0836 28.2003 44.1878 28.1839 44.2867 28.2077C44.3855 28.2315 44.4709 28.2935 44.5239 28.3803C44.577 28.467 44.5934 28.5712 44.5696 28.6701C44.5458 28.7689 44.4838 28.8543 44.397 28.9073L34.7961 35.1173L43.9961 29.8051C44.0826 29.7558 44.185 29.7422 44.2815 29.7671C44.3779 29.792 44.4609 29.8534 44.5128 29.9384C44.5648 30.0235 44.5816 30.1253 44.5597 30.2225C44.5378 30.3197 44.4789 30.4046 44.3955 30.4591L37.8788 34.6458L43.9953 31.1192C44.0814 31.0717 44.1824 31.059 44.2776 31.0839C44.3727 31.1088 44.4546 31.1693 44.5064 31.2529C44.5582 31.3365 44.5759 31.4368 44.5558 31.533C44.5358 31.6293 44.4795 31.7142 44.3986 31.7701L37.6067 36.2528L44.0022 32.5613C44.088 32.5143 44.1885 32.5018 44.2831 32.5265C44.3778 32.5511 44.4594 32.611 44.5113 32.6939C44.5633 32.7768 44.5815 32.8764 44.5624 32.9723C44.5433 33.0682 44.4883 33.1532 44.4085 33.2099L38.4684 37.2211L44.0037 34.0248C44.09 33.9766 44.1915 33.9635 44.2871 33.9883C44.3827 34.0131 44.4651 34.0739 44.517 34.158C44.5689 34.242 44.5864 34.3429 44.5657 34.4395C44.5451 34.5361 44.488 34.621 44.4062 34.6765L42.4781 35.9415L44.0045 35.0598C44.09 35.0114 44.1907 34.9975 44.2861 35.0212C44.3814 35.045 44.464 35.1043 44.5169 35.1871C44.5697 35.27 44.5887 35.3699 44.57 35.4663C44.5512 35.5628 44.4962 35.6483 44.4162 35.7054L40.6197 38.3718L44.003 36.4191C44.0876 36.371 44.1875 36.3569 44.2822 36.3797C44.3768 36.4025 44.4593 36.4605 44.5128 36.5419C44.5663 36.6233 44.5868 36.722 44.5701 36.818C44.5535 36.9139 44.5009 37 44.4231 37.0585L41.3403 39.347L44.0045 37.8091C44.0898 37.7605 44.1904 37.7465 44.2858 37.7698C44.3811 37.7932 44.4638 37.8522 44.5169 37.9348C44.57 38.0174 44.5894 38.1171 44.5711 38.2136C44.5527 38.3101 44.4981 38.3958 44.4185 38.4532L44.0942 38.6832C44.1776 38.6604 44.2663 38.6665 44.3458 38.7005C44.4253 38.7344 44.491 38.7943 44.5322 38.8703C44.5735 38.9463 44.5878 39.034 44.5728 39.1191C44.5579 39.2043 44.5146 39.282 44.4499 39.3395L42.8522 40.7463L44.006 40.0807C44.0789 40.0387 44.1637 40.0217 44.2472 40.0325C44.3307 40.0433 44.4083 40.0812 44.4681 40.1405C44.5278 40.1998 44.5664 40.2772 44.5778 40.3606C44.5892 40.444 44.5728 40.5289 44.5312 40.6021L43.7561 41.9675L44.0076 41.8234C44.0512 41.7956 44.1 41.7771 44.151 41.7687C44.202 41.7603 44.2542 41.7624 44.3044 41.7747C44.3546 41.7869 44.4018 41.8092 44.4432 41.8402C44.4846 41.8712 44.5192 41.9104 44.5451 41.9551C44.571 41.9999 44.5875 42.0494 44.5938 42.1007C44.6 42.1521 44.5958 42.204 44.5814 42.2537C44.567 42.3033 44.5427 42.3496 44.5099 42.3896C44.4772 42.4296 44.4367 42.4627 44.3909 42.4865L42.9197 43.3338C42.8469 43.3754 42.7624 43.392 42.6793 43.381C42.5962 43.3699 42.5189 43.3321 42.4594 43.2729C42.3999 43.214 42.3614 43.137 42.3498 43.054C42.3382 42.9709 42.3542 42.8863 42.3953 42.8131L43.1688 41.4478L39.8982 43.336C39.816 43.3822 39.7197 43.3965 39.6276 43.3761C39.5356 43.3557 39.4542 43.3022 39.3992 43.2256C39.3442 43.1491 39.3193 43.0548 39.3293 42.961C39.3394 42.8673 39.3836 42.7805 39.4536 42.7174L41.0567 41.3112L37.5423 43.3391C37.457 43.3877 37.3563 43.4018 37.261 43.3784C37.1657 43.355 37.083 43.2961 37.0299 43.2135C36.9768 43.1309 36.9574 43.0312 36.9757 42.9347C36.994 42.8382 37.0486 42.7525 37.1283 42.6951L37.3399 42.5418L35.9599 43.3376C35.8752 43.3857 35.7754 43.3998 35.6807 43.377C35.586 43.3542 35.5035 43.2963 35.4501 43.2149C35.3966 43.1334 35.3761 43.0348 35.3927 42.9388C35.4094 42.8428 35.4619 42.7569 35.5397 42.6982L38.6248 40.4081L33.5433 43.3414C33.4578 43.3913 33.3563 43.4062 33.2601 43.383C33.1638 43.3598 33.0803 43.3003 33.027 43.2169C32.9737 43.1334 32.9547 43.0326 32.9741 42.9355C32.9934 42.8384 33.0496 42.7524 33.1309 42.6959L36.9251 40.0302L31.1858 43.3429C31.0997 43.3899 30.9988 43.402 30.9041 43.3768C30.8093 43.3515 30.7278 43.291 30.6763 43.2075C30.6248 43.124 30.6073 43.0238 30.6274 42.9278C30.6474 42.8318 30.7035 42.7472 30.7841 42.6912L32.7115 41.4271L29.3911 43.3438C29.3051 43.3927 29.2035 43.4066 29.1076 43.3825C29.0117 43.3582 28.9288 43.2979 28.8763 43.2141C28.8238 43.1301 28.8058 43.0293 28.826 42.9324C28.8462 42.8355 28.9031 42.7503 28.9847 42.6944L34.9256 38.6839L26.8511 43.3452C26.7649 43.3934 26.6634 43.4065 26.5677 43.3817C26.4721 43.3569 26.3897 43.2962 26.3378 43.2122C26.2859 43.1281 26.2685 43.0272 26.2891 42.9306C26.3097 42.834 26.3669 42.7491 26.4486 42.6936L33.2466 38.2085L24.3456 43.3452C24.2589 43.396 24.1556 43.4109 24.0581 43.3862C23.9606 43.3616 23.8767 43.2997 23.8244 43.2138C23.7721 43.128 23.7557 43.0251 23.7786 42.9272C23.8015 42.8293 23.862 42.7443 23.947 42.6906L30.4606 38.5037L22.0755 43.3484C22.0326 43.3746 21.9849 43.3922 21.9352 43.4001C21.8854 43.4079 21.8347 43.4058 21.7857 43.3941C21.7368 43.3823 21.6906 43.3609 21.6499 43.3313C21.6092 43.3018 21.5747 43.2644 21.5485 43.2215C21.5222 43.1786 21.5046 43.1309 21.4968 43.0811C21.4889 43.0313 21.4909 42.9805 21.5027 42.9316C21.5145 42.8826 21.5358 42.8365 21.5654 42.7958C21.595 42.7551 21.6324 42.7206 21.6753 42.6944L31.2771 36.4843L19.3822 43.3498C19.3391 43.3759 19.2913 43.3932 19.2416 43.4007C19.1918 43.4082 19.141 43.4059 19.0922 43.3938C19.0433 43.3818 18.9973 43.3602 18.9567 43.3303C18.9162 43.3005 18.8819 43.2631 18.8559 43.22C18.8299 43.1769 18.8126 43.1291 18.8051 43.0793C18.7975 43.0294 18.7998 42.9788 18.8119 42.9299C18.824 42.881 18.8455 42.8349 18.8754 42.7944C18.9052 42.7538 18.9428 42.7197 18.9859 42.6936L27.3333 37.4304L17.0784 43.3513C16.9911 43.4035 16.8866 43.4186 16.7881 43.3937C16.6895 43.3687 16.6049 43.3057 16.5528 43.2183C16.5008 43.1311 16.4856 43.0266 16.5105 42.9281C16.5355 42.8295 16.5985 42.7448 16.6859 42.6928L20.6097 40.2785L15.2867 43.3521C15.2 43.3998 15.0982 43.4122 15.0027 43.3866C14.9071 43.3609 14.8252 43.2992 14.774 43.2146C14.7228 43.1299 14.7063 43.0288 14.728 42.9323C14.7497 42.8358 14.8078 42.7513 14.8903 42.6967L28.642 33.9635L12.3772 43.3536C12.2902 43.4039 12.1869 43.4179 12.0896 43.3927C11.9924 43.3675 11.9089 43.3052 11.8571 43.2191C11.8054 43.1329 11.7895 43.0299 11.8129 42.9323C11.8364 42.8346 11.8972 42.75 11.9824 42.6967L26.0737 33.8654L9.6356 43.3553C9.54856 43.4055 9.4453 43.4194 9.34804 43.3942C9.25078 43.369 9.16729 43.3068 9.11554 43.2206C9.06379 43.1344 9.04792 43.0314 9.07134 42.9338C9.09476 42.8361 9.1556 42.7514 9.24077 42.6982L25.3408 32.6395L6.7767 43.3568C6.68927 43.4087 6.58478 43.4239 6.48622 43.3988C6.38766 43.3736 6.3031 43.3105 6.25115 43.2229C6.1992 43.1356 6.18411 43.031 6.2092 42.9324C6.23428 42.834 6.2975 42.7493 6.38493 42.6974L18.5366 35.2607L4.5089 43.3582C4.4507 43.3923 4.38459 43.4101 4.31723 43.4104Z" fill="#D3E5F4"/>
<path d="M5.41189 15.0207C5.33062 15.0208 5.25142 14.995 5.18574 14.9472C5.12005 14.8993 5.07127 14.8318 5.04645 14.7545C5.02162 14.6771 5.02203 14.5938 5.04761 14.5167C5.0732 14.4395 5.12264 14.3725 5.18879 14.3253L10.4788 10.548L2.84126 14.9571C2.75623 15.0047 2.65624 15.0182 2.56163 14.9947C2.46701 14.9713 2.38489 14.9127 2.33195 14.8309C2.27901 14.749 2.25924 14.6501 2.27666 14.5542C2.29408 14.4583 2.34738 14.3726 2.42572 14.3146L7.87672 10.3877L1.59006 14.0148C1.50567 14.0629 1.40619 14.0771 1.31173 14.0546C1.21726 14.0321 1.13484 13.9747 1.08112 13.8938C1.02739 13.8129 1.00636 13.7146 1.02227 13.6189C1.03819 13.5231 1.08986 13.4369 1.16685 13.3777L6.06739 9.67707L2.29692 11.8513C2.21212 11.8982 2.11271 11.9112 2.01869 11.8877C1.92468 11.8643 1.84304 11.8061 1.79019 11.7249C1.73734 11.6437 1.71721 11.5454 1.73384 11.45C1.75048 11.3545 1.80265 11.2689 1.87986 11.2104L3.47146 10.0604C3.40949 10.0653 3.34728 10.0546 3.2905 10.0293C3.23373 10.004 3.18418 9.96486 3.14639 9.9155C3.08919 9.84322 3.05996 9.75275 3.06404 9.66066C3.06812 9.56857 3.10525 9.48104 3.16862 9.4141L5.16272 7.3004C5.12173 7.26996 5.08753 7.23132 5.06229 7.18694C5.01146 7.09889 4.99768 6.99426 5.02399 6.89607C5.05031 6.79787 5.11455 6.71414 5.20259 6.6633L6.49136 5.9204C6.57106 5.87429 6.66469 5.8584 6.75514 5.87565C6.8456 5.8929 6.92682 5.94213 6.98395 6.01434C7.04109 6.08655 7.07032 6.17692 7.06631 6.26891C7.06229 6.3609 7.0253 6.44838 6.96209 6.51534L5.53226 8.02644L9.18389 5.9204C9.26896 5.87158 9.36952 5.85723 9.46485 5.8803C9.56019 5.90337 9.64305 5.96211 9.69639 6.04442C9.74973 6.12674 9.76949 6.22637 9.75159 6.32282C9.7337 6.41926 9.67951 6.50517 9.60019 6.56287L8.31985 7.489L11.0399 5.9204C11.1243 5.87237 11.2238 5.85815 11.3183 5.88062C11.4127 5.90309 11.4951 5.96056 11.5489 6.04145C11.6026 6.12233 11.6236 6.22059 11.6077 6.31637C11.5918 6.41216 11.5401 6.49834 11.4631 6.5575L6.56419 10.2605L14.0851 5.9204C14.1702 5.87275 14.2702 5.85927 14.3648 5.88271C14.4594 5.90616 14.5415 5.96476 14.5944 6.04661C14.6474 6.12846 14.6671 6.22739 14.6497 6.3233C14.6323 6.4192 14.579 6.50487 14.5007 6.56287L9.05049 10.4882L16.964 5.9204C17.0493 5.87034 17.1506 5.85519 17.2469 5.87812C17.3431 5.90105 17.4267 5.96029 17.4803 6.04345C17.5338 6.12661 17.5532 6.22725 17.5342 6.32434C17.5153 6.42143 17.4596 6.50744 17.3787 6.5644L12.0887 10.3417L19.0915 6.2976C19.1765 6.24878 19.2771 6.23443 19.3724 6.2575C19.4678 6.28057 19.5506 6.33931 19.604 6.42162C19.6573 6.50394 19.6771 6.60357 19.6592 6.70002C19.6413 6.79646 19.5871 6.88237 19.5078 6.94007L14.4478 10.607L16.1919 9.6004C16.2758 9.55139 16.3752 9.53604 16.4699 9.55746C16.5646 9.57889 16.6477 9.63548 16.7024 9.71581C16.757 9.79613 16.7791 9.8942 16.7642 9.99019C16.7492 10.0862 16.6985 10.1729 16.622 10.2329L14.184 12.171C14.2344 12.1828 14.2818 12.2049 14.3232 12.2359C14.3646 12.267 14.3992 12.3062 14.4248 12.3512C14.4756 12.4392 14.4894 12.5438 14.4631 12.642C14.4368 12.7402 14.3725 12.824 14.2845 12.8748L10.6558 14.967C10.5721 15.0148 10.4735 15.0292 10.3796 15.0075C10.2857 14.9858 10.2034 14.9294 10.1491 14.8498C10.0949 14.7701 10.0726 14.6729 10.0868 14.5775C10.101 14.4822 10.1507 14.3957 10.2258 14.3353L12.1018 12.8449L8.42182 14.967C8.33675 15.0158 8.23619 15.0302 8.14086 15.0071C8.04552 14.9841 7.96265 14.9253 7.90931 14.843C7.85598 14.7607 7.83622 14.6611 7.85412 14.5646C7.87201 14.4682 7.9262 14.3823 8.00552 14.3246L13.0655 10.6607L5.60355 14.967C5.54561 15.0017 5.47942 15.0202 5.41189 15.0207Z" fill="#51CB20"/>
<path d="M43.2801 15.0192C43.2097 15.0191 43.1406 14.9996 43.0806 14.9629C43.0205 14.9261 42.9717 14.8736 42.9395 14.8109C42.9074 14.7483 42.8931 14.678 42.8983 14.6077C42.9034 14.5375 42.9278 14.47 42.9688 14.4128L43.8605 13.1677L40.7501 14.9625C40.6669 15.0105 40.5687 15.0255 40.4749 15.0045C40.3812 14.9836 40.2987 14.9282 40.2438 14.8493C40.189 14.7705 40.1657 14.6739 40.1787 14.5787C40.1917 14.4835 40.2399 14.3966 40.3139 14.3353L40.9272 13.8232L38.9615 14.9586C38.877 15.007 38.7772 15.0215 38.6825 14.999C38.5877 14.9766 38.5051 14.9189 38.4513 14.8377C38.3975 14.7565 38.3767 14.6579 38.393 14.5619C38.4093 14.4659 38.4615 14.3797 38.539 14.3208L38.9737 13.9919L37.3055 14.9556C37.2208 15.0049 37.1204 15.0198 37.025 14.9974C36.9296 14.975 36.8464 14.9169 36.7925 14.835C36.7386 14.7531 36.7181 14.6538 36.7352 14.5573C36.7524 14.4608 36.8058 14.3745 36.8846 14.3162L38.0982 13.4138L35.4394 14.9517C35.3553 14.9988 35.2566 15.0125 35.1629 14.9901C35.0692 14.9676 34.9873 14.9107 34.9337 14.8307C34.88 14.7507 34.8585 14.6533 34.8734 14.5581C34.8882 14.4629 34.9384 14.3768 35.0139 14.3169L38.1181 11.9188L34.2265 14.1651C34.1414 14.2133 34.0411 14.227 33.9461 14.2036C33.8512 14.1802 33.7688 14.1213 33.7158 14.0391C33.6628 13.957 33.6432 13.8576 33.661 13.7615C33.6789 13.6653 33.7328 13.5796 33.8118 13.5219L35.7422 12.1373L33.5572 13.3985C33.4718 13.4469 33.371 13.4608 33.2756 13.4371C33.1803 13.4134 33.0977 13.354 33.0449 13.2712C32.9921 13.1884 32.973 13.0884 32.9918 12.992C33.0105 12.8955 33.0655 12.81 33.1455 12.7529L34.4711 11.8237L32.9477 12.7023C32.8637 12.75 32.7648 12.7642 32.6708 12.7421C32.5767 12.72 32.4945 12.6632 32.4405 12.5831C32.3866 12.503 32.3648 12.4054 32.3797 12.31C32.3946 12.2145 32.4449 12.1282 32.5207 12.0683L35.9837 9.36738L32.027 11.6512C31.9419 11.6989 31.8419 11.7124 31.7473 11.6889C31.6527 11.6655 31.5706 11.6069 31.5177 11.525C31.4647 11.4432 31.445 11.3442 31.4624 11.2483C31.4798 11.1524 31.5331 11.0668 31.6114 11.0088L32.4916 10.374L31.4389 10.9812C31.3559 11.0288 31.2581 11.0436 31.1647 11.0227C31.0713 11.0018 30.9891 10.9468 30.9342 10.8684C30.8794 10.79 30.8558 10.6939 30.8682 10.599C30.8806 10.5041 30.928 10.4173 31.0012 10.3556L32.8718 8.79085L30.6439 10.0765C30.5605 10.1241 30.4623 10.1387 30.3687 10.1174C30.2751 10.0961 30.1929 10.0405 30.1383 9.96144C30.0838 9.88242 30.0609 9.7858 30.0741 9.69071C30.0874 9.59561 30.1359 9.50896 30.21 9.44788L30.8233 8.94495L30.0444 9.39422C29.9677 9.43819 29.8781 9.4543 29.7909 9.43981C29.7037 9.42533 29.6242 9.38115 29.5658 9.31475C29.5074 9.24835 29.4738 9.16382 29.4706 9.07546C29.4674 8.98711 29.4949 8.90038 29.5483 8.82995L30.5312 7.54118L29.1274 8.35155C29.0561 8.39333 28.9733 8.41095 28.8911 8.40179C28.809 8.39263 28.7321 8.35718 28.6717 8.30072C28.6114 8.24426 28.5709 8.16982 28.5563 8.08849C28.5417 8.00716 28.5538 7.92329 28.5908 7.84938L28.9028 7.21765L28.3899 7.51358C28.3439 7.53975 28.2931 7.55612 28.2405 7.56168C28.1879 7.56723 28.1347 7.56185 28.0843 7.54586C28.0339 7.52988 27.9874 7.50364 27.9476 7.46879C27.9078 7.43395 27.8757 7.39125 27.8532 7.34338L27.588 6.77528C27.5093 6.79119 27.4276 6.78198 27.3544 6.74897C27.2812 6.71595 27.2203 6.6608 27.1801 6.59128C27.1548 6.54766 27.1384 6.49947 27.1317 6.44948C27.1251 6.39949 27.1284 6.34868 27.1414 6.29997C27.1545 6.25126 27.177 6.20559 27.2077 6.1656C27.2384 6.1256 27.2767 6.09205 27.3204 6.06688L27.5749 5.92045C27.6209 5.89428 27.6718 5.87791 27.7243 5.87235C27.7769 5.8668 27.8301 5.87218 27.8805 5.88817C27.9309 5.90415 27.9774 5.9304 28.0172 5.96524C28.057 6.00009 28.0891 6.04278 28.1116 6.09065L28.3677 6.64035L29.6181 5.92045C29.6893 5.87887 29.7721 5.86137 29.854 5.87055C29.936 5.87972 30.0128 5.91509 30.0731 5.97139C30.1333 6.0277 30.1738 6.10194 30.1885 6.18309C30.2033 6.26423 30.1914 6.34797 30.1548 6.42185L29.842 7.05435L31.8062 5.92045C31.8829 5.87648 31.9724 5.86037 32.0596 5.87485C32.1468 5.88933 32.2264 5.93352 32.2847 5.99992C32.3431 6.06632 32.3767 6.15085 32.3799 6.2392C32.3831 6.32755 32.3556 6.41429 32.3022 6.48472L31.3201 7.77195L34.5301 5.92045C34.6134 5.87384 34.711 5.85996 34.804 5.88152C34.8969 5.90307 34.9785 5.95851 35.0327 6.037C35.087 6.11549 35.11 6.21139 35.0973 6.30596C35.0846 6.40052 35.0371 6.48695 34.9641 6.54835L34.3507 7.05128L36.3096 5.92045C36.3926 5.87287 36.4904 5.85806 36.5838 5.87893C36.6772 5.89981 36.7594 5.95485 36.8143 6.03326C36.8691 6.11166 36.8927 6.20775 36.8803 6.30264C36.8679 6.39753 36.8205 6.48435 36.7473 6.54605L34.8774 8.10928L38.6724 5.92045C38.7575 5.87279 38.8575 5.85931 38.9521 5.88276C39.0467 5.9062 39.1288 5.96481 39.1817 6.04665C39.2347 6.1285 39.2544 6.22744 39.237 6.32334C39.2196 6.41925 39.1663 6.50491 39.088 6.56292L38.2101 7.19618L40.3752 5.94652C40.4592 5.89882 40.5581 5.8846 40.6522 5.90671C40.7462 5.92881 40.8284 5.98561 40.8824 6.06573C40.9364 6.14586 40.9581 6.2434 40.9432 6.33885C40.9284 6.43431 40.878 6.52063 40.8022 6.58055L37.3392 9.28152L41.549 6.85195C41.6342 6.80511 41.7341 6.79245 41.8284 6.81654C41.9227 6.84062 42.0042 6.89964 42.0566 6.98164C42.109 7.06364 42.1282 7.16248 42.1104 7.25812C42.0925 7.35377 42.039 7.43906 41.9607 7.49672L40.6382 8.42668L42.0864 7.59025C42.1715 7.54213 42.2719 7.52838 42.3668 7.5518C42.4618 7.57522 42.5442 7.63405 42.5972 7.71624C42.6502 7.79843 42.6697 7.89777 42.6519 7.99393C42.6341 8.09008 42.5801 8.17578 42.5012 8.23348L40.5699 9.61962L42.6775 8.40292C42.7616 8.35583 42.8603 8.34215 42.954 8.36457C43.0477 8.387 43.1296 8.4439 43.1832 8.52395C43.2369 8.60399 43.2584 8.7013 43.2435 8.79651C43.2287 8.89172 43.1785 8.97784 43.103 9.03772L39.9995 11.4358L43.4388 9.45018C43.5235 9.40089 43.6239 9.38592 43.7193 9.40834C43.8147 9.43077 43.8979 9.48888 43.9518 9.57074C44.0057 9.6526 44.0261 9.75199 44.009 9.84849C43.9919 9.94499 43.9385 10.0313 43.8597 10.0896L42.6461 10.9919L43.9939 10.2137C44.0784 10.1653 44.1781 10.1509 44.2729 10.1733C44.3676 10.1958 44.4503 10.2535 44.504 10.3347C44.5578 10.4159 44.5787 10.5145 44.5624 10.6105C44.5461 10.7065 44.4938 10.7927 44.4163 10.8516L43.9785 11.182L44.4853 10.8899C44.5684 10.8429 44.666 10.8286 44.7591 10.8498C44.8522 10.871 44.934 10.9262 44.9886 11.0045C45.0431 11.0829 45.0665 11.1787 45.0541 11.2734C45.0417 11.368 44.9944 11.4547 44.9215 11.5163L44.3082 12.0269L45.0151 11.6175C45.0909 11.5735 45.1796 11.5569 45.2662 11.5704C45.3528 11.5839 45.4322 11.6266 45.4911 11.6916C45.55 11.7565 45.5849 11.8397 45.59 11.9272C45.595 12.0147 45.5699 12.1013 45.5188 12.1726L44.6271 13.4176L45.5119 12.907C45.5555 12.8793 45.6043 12.8607 45.6553 12.8523C45.7063 12.8439 45.7585 12.8459 45.8087 12.8582C45.8589 12.8705 45.9061 12.8928 45.9475 12.9239C45.9889 12.9549 46.0235 12.9939 46.0494 13.0387C46.0753 13.0835 46.0918 13.133 46.0981 13.1843C46.1043 13.2356 46.1001 13.2877 46.0857 13.3373C46.0713 13.387 46.047 13.4332 46.0142 13.4732C45.9815 13.5133 45.941 13.5462 45.8952 13.5702L43.4725 14.9671C43.4143 15.0015 43.3478 15.0195 43.2801 15.0192Z" fill="#51CB20"/>
<path d="M34.4396 17.2066C34.3699 17.2067 34.3015 17.1877 34.2417 17.1518C34.182 17.1159 34.1332 17.0644 34.1005 17.0028C34.0679 16.9412 34.0527 16.8719 34.0565 16.8023C34.0603 16.7327 34.083 16.6655 34.1222 16.6078L34.839 15.5537L33.6185 16.2582C33.5401 16.3035 33.4482 16.3195 33.3592 16.3035C33.2701 16.2874 33.1896 16.2404 33.1318 16.1708C33.0741 16.1011 33.0429 16.0132 33.0437 15.9228C33.0445 15.8323 33.0773 15.745 33.1362 15.6763L33.6591 15.0684L32.9361 15.4854C32.859 15.5299 32.7688 15.5462 32.681 15.5314C32.5932 15.5166 32.5132 15.4717 32.4549 15.4044C32.3966 15.3371 32.3635 15.2516 32.3614 15.1626C32.3592 15.0736 32.3882 14.9866 32.4432 14.9166L33.1109 14.0694L32.1633 14.6145C32.0843 14.6596 31.9918 14.675 31.9023 14.6581C31.8129 14.6412 31.7324 14.5931 31.6753 14.5222C31.6181 14.4514 31.588 14.3626 31.5903 14.2716C31.5927 14.1807 31.6273 14.0935 31.688 14.0257L32.0867 13.5872L31.5354 13.9053C31.4612 13.9487 31.3746 13.9658 31.2895 13.9539C31.2044 13.9421 31.1257 13.902 31.0661 13.8401C31.0065 13.7782 30.9694 13.6981 30.9608 13.6126C30.9522 13.5271 30.9726 13.4412 31.0187 13.3687L31.8812 11.9825L30.5303 12.7645C30.4541 12.8081 30.3653 12.8243 30.2786 12.8102C30.192 12.7962 30.1128 12.7528 30.0542 12.6874C29.9957 12.6219 29.9614 12.5384 29.9571 12.4507C29.9528 12.363 29.9787 12.2765 30.0305 12.2056L30.7803 11.1898L29.6924 11.817C29.6128 11.8625 29.5194 11.878 29.4294 11.8607C29.3393 11.8433 29.2585 11.7942 29.2015 11.7223C29.1445 11.6504 29.1152 11.5605 29.1189 11.4688C29.1226 11.3772 29.1591 11.2899 29.2216 11.2228L29.5283 10.8946L29.0959 11.1438C29.0212 11.1868 28.9342 11.2034 28.849 11.1909C28.7637 11.1784 28.6851 11.1376 28.6259 11.0749C28.5667 11.0123 28.5304 10.9314 28.5227 10.8457C28.5151 10.7598 28.5366 10.6739 28.5838 10.6018L29.4271 9.31757L28.1399 10.0605C28.0613 10.1056 27.9693 10.1216 27.8802 10.1053C27.7911 10.0891 27.7106 10.0418 27.653 9.9719C27.5953 9.90198 27.5644 9.81392 27.5655 9.72333C27.5666 9.63274 27.5998 9.54548 27.6592 9.47703L28.1629 8.89743L27.4667 9.29993C27.3925 9.34215 27.3064 9.35839 27.2219 9.34609C27.1375 9.33378 27.0595 9.29364 27.0004 9.23202C26.9414 9.1704 26.9046 9.09082 26.8958 9.00591C26.8871 8.921 26.907 8.83561 26.9523 8.76327L27.8071 7.4285L26.4862 8.19517C26.4107 8.23918 26.3225 8.25611 26.2361 8.24315C26.1497 8.23019 26.0704 8.18812 26.0112 8.12391C25.952 8.05969 25.9165 7.97718 25.9105 7.89003C25.9046 7.80289 25.9287 7.71633 25.9786 7.6447L26.7882 6.47937L25.5846 7.17397C25.5084 7.21762 25.4196 7.23383 25.333 7.21988C25.2463 7.20592 25.1671 7.16265 25.1085 7.0973C25.0494 7.03219 25.0144 6.94874 25.0096 6.86094C25.0047 6.77314 25.0301 6.68633 25.0816 6.61507L25.8567 5.5448L24.7267 6.198C24.6514 6.24147 24.5637 6.2581 24.4778 6.24515C24.3918 6.23221 24.3129 6.19046 24.2538 6.12674C24.1947 6.06303 24.159 5.98114 24.1526 5.89449C24.1462 5.80784 24.1694 5.72157 24.2184 5.64983L25.0418 4.4431L23.8067 5.1538C23.7187 5.20383 23.6145 5.21703 23.5168 5.1905C23.4191 5.16398 23.3358 5.0999 23.2852 5.01223C23.2346 4.92457 23.2207 4.82044 23.2466 4.72258C23.2725 4.62472 23.336 4.54106 23.4233 4.48987L26.1159 2.93583C26.1911 2.89236 26.2789 2.87573 26.3648 2.88868C26.4507 2.90163 26.5297 2.94338 26.5888 3.00709C26.6478 3.0708 26.6835 3.1527 26.6899 3.23935C26.6964 3.32599 26.6732 3.41226 26.6242 3.484L25.8 4.6938L27.0343 3.98157C27.1104 3.93742 27.1993 3.92077 27.2862 3.93442C27.3731 3.94807 27.4527 3.99118 27.5115 4.05652C27.5704 4.12187 27.605 4.20547 27.6096 4.2933C27.6141 4.38114 27.5883 4.46786 27.5365 4.53893L26.7591 5.60613L27.8892 4.95447C27.9646 4.91085 28.0527 4.89423 28.1388 4.90736C28.225 4.92049 28.3041 4.96258 28.3631 5.02669C28.4221 5.0908 28.4575 5.1731 28.4635 5.26004C28.4695 5.34697 28.4456 5.43335 28.3959 5.50493L27.5863 6.6695L28.79 5.97567C28.8642 5.93345 28.9504 5.91721 29.0348 5.92951C29.1193 5.94182 29.1972 5.98196 29.2563 6.04358C29.3154 6.1052 29.3522 6.18477 29.3609 6.26969C29.3696 6.3546 29.3497 6.43999 29.3044 6.51233L28.4496 7.84633L29.7698 7.08503C29.8483 7.03988 29.9403 7.024 30.0295 7.04021C30.1186 7.05642 30.1991 7.10368 30.2567 7.1736C30.3143 7.24352 30.3453 7.33158 30.3442 7.42217C30.343 7.51276 30.3099 7.60002 30.2505 7.66847L29.7468 8.24653L30.4406 7.84633C30.5153 7.80331 30.6023 7.78671 30.6876 7.7992C30.7729 7.8117 30.8514 7.85258 30.9106 7.91522C30.9698 7.97787 31.0062 8.05863 31.0138 8.14448C31.0215 8.23033 31 8.31625 30.9528 8.38837L30.1094 9.6733L31.3951 8.93117C31.4748 8.88505 31.5685 8.86916 31.6589 8.88641C31.7494 8.90366 31.8306 8.95289 31.8877 9.0251C31.9449 9.09731 31.9741 9.18768 31.9701 9.27967C31.9661 9.37167 31.9291 9.45914 31.8659 9.5261L31.5592 9.85347L31.9893 9.60507C32.0656 9.56071 32.1548 9.54403 32.242 9.55785C32.3291 9.57166 32.4089 9.61512 32.4677 9.68088C32.5265 9.74665 32.5609 9.8307 32.5649 9.91885C32.569 10.007 32.5425 10.0939 32.4899 10.1648L31.7394 11.1806L32.8257 10.5542C32.8994 10.5106 32.9856 10.4932 33.0704 10.505C33.1552 10.5167 33.2335 10.5567 33.2926 10.6186C33.3522 10.68 33.3895 10.7595 33.3987 10.8445C33.4079 10.9296 33.3883 11.0152 33.3432 11.0879L32.4815 12.4732L33.8308 11.6943C33.9099 11.6492 34.0024 11.6338 34.0918 11.6507C34.1812 11.6676 34.2617 11.7157 34.3189 11.7866C34.376 11.8574 34.4062 11.9462 34.4038 12.0372C34.4015 12.1281 34.3669 12.2153 34.3062 12.2831L33.9067 12.7239L34.458 12.4057C34.5351 12.3613 34.6253 12.345 34.7131 12.3598C34.801 12.3746 34.8809 12.4195 34.9392 12.4868C34.9975 12.5541 35.0306 12.6396 35.0327 12.7286C35.0349 12.8176 35.0059 12.9046 34.9509 12.9746L34.2816 13.8225L35.2262 13.2774C35.3046 13.2322 35.3964 13.2162 35.4855 13.2322C35.5745 13.2483 35.6551 13.2953 35.7128 13.3649C35.7705 13.4346 35.8018 13.5225 35.801 13.6129C35.8002 13.7034 35.7674 13.7907 35.7084 13.8593L35.1855 14.4673L35.9077 14.051C35.9829 14.0078 36.0705 13.9914 36.1562 14.0044C36.2418 14.0174 36.3206 14.0591 36.3796 14.1226C36.4386 14.1861 36.4743 14.2677 36.4809 14.3541C36.4875 14.4405 36.4647 14.5267 36.416 14.5984L35.6977 15.6572L36.2995 15.3106C36.3431 15.2829 36.3919 15.2643 36.4429 15.2559C36.494 15.2475 36.5461 15.2495 36.5964 15.2618C36.6466 15.2741 36.6938 15.2965 36.7351 15.3275C36.7765 15.3585 36.8112 15.3976 36.837 15.4423C36.8629 15.4871 36.8795 15.5366 36.8857 15.5879C36.8919 15.6392 36.8877 15.6913 36.8733 15.741C36.8589 15.7906 36.8346 15.8368 36.8019 15.8768C36.7691 15.9169 36.7286 15.9499 36.6828 15.9738L34.6312 17.1583C34.5728 17.1911 34.5066 17.2078 34.4396 17.2066Z" fill="#0077B6"/>
<path d="M12.0276 17.3162C11.9513 17.3152 11.8769 17.2913 11.8142 17.2477C11.7515 17.2042 11.7032 17.143 11.6755 17.0718C11.6478 17.0007 11.642 16.9228 11.6589 16.8484C11.6757 16.7739 11.7144 16.706 11.77 16.6537L12.598 15.894L11.0769 16.7726C10.993 16.821 10.8939 16.8356 10.7995 16.8139C10.7051 16.7922 10.6225 16.7355 10.5682 16.6553C10.5139 16.5751 10.4919 16.4773 10.5069 16.3815C10.5217 16.2858 10.5723 16.1993 10.6484 16.1394L13.6261 13.8048L10.7128 15.4868C10.6278 15.5364 10.5269 15.5515 10.4311 15.5288C10.3354 15.5061 10.252 15.4474 10.1983 15.365C10.1446 15.2824 10.1247 15.1824 10.1427 15.0857C10.1607 14.9889 10.2152 14.9029 10.2949 14.8451L14.9034 11.4872L12.9499 12.615C12.864 12.6648 12.7621 12.6793 12.6657 12.6556C12.5693 12.6318 12.4859 12.5715 12.433 12.4874C12.3801 12.4033 12.3619 12.3021 12.3823 12.2049C12.4026 12.1076 12.4599 12.0222 12.542 11.9663L14.6887 10.502C14.6204 10.5072 14.552 10.4936 14.491 10.4625C14.4301 10.4313 14.3788 10.384 14.3429 10.3257C14.2899 10.2424 14.2711 10.1419 14.2904 10.045C14.3097 9.94816 14.3656 9.8625 14.4464 9.80587L18.3005 7.098L17.3084 7.6707C17.2241 7.71839 17.1249 7.73241 17.0307 7.70995C16.9365 7.68749 16.8543 7.63021 16.8006 7.54962C16.7469 7.46903 16.7257 7.3711 16.7413 7.27552C16.7568 7.17994 16.808 7.09378 16.8844 7.03437L19.7709 4.8371C19.6879 4.86776 19.5969 4.86876 19.5132 4.83993C19.4296 4.8111 19.3584 4.75421 19.312 4.67892C19.2655 4.60363 19.2464 4.51457 19.2581 4.42686C19.2698 4.33915 19.3115 4.25818 19.3761 4.1977L21.8248 1.8977C21.8125 1.88297 21.8018 1.86704 21.7926 1.85017C21.7663 1.80659 21.7489 1.75821 21.7415 1.70785C21.7341 1.65748 21.7368 1.60614 21.7494 1.55683C21.762 1.50751 21.7844 1.4612 21.8151 1.42061C21.8458 1.38002 21.8843 1.34595 21.9283 1.3204L23.26 0.553732C23.3417 0.504059 23.439 0.486701 23.5328 0.505063C23.6267 0.523426 23.7102 0.576184 23.7672 0.652987C23.8241 0.72979 23.8503 0.825094 23.8406 0.920202C23.8309 1.01531 23.786 1.10335 23.7147 1.16707L22.3048 2.48957L24.5664 1.18623C24.6507 1.13946 24.7495 1.12613 24.8431 1.1489C24.9367 1.17167 25.0183 1.22886 25.0717 1.3091C25.1251 1.38933 25.1462 1.48672 25.131 1.58187C25.1158 1.67702 25.0654 1.76296 24.9896 1.82257L22.1407 3.98993L25.3875 2.1162C25.4729 2.06826 25.5733 2.05478 25.6682 2.07851C25.7632 2.10224 25.8455 2.16139 25.8982 2.24383C25.9509 2.32627 25.9702 2.42577 25.9519 2.52192C25.9336 2.61807 25.8793 2.70359 25.8 2.76097L21.9444 5.4696L22.6712 5.05023C22.7571 5.00038 22.859 4.98581 22.9554 5.00959C23.0519 5.03337 23.1353 5.09364 23.1882 5.17771C23.241 5.26178 23.2592 5.36309 23.2389 5.46029C23.2185 5.5575 23.1612 5.64301 23.0791 5.69883L20.9324 7.16317C21.0003 7.15744 21.0685 7.17059 21.1294 7.20116C21.1902 7.23174 21.2415 7.27855 21.2774 7.33643C21.3311 7.41866 21.3511 7.51834 21.3334 7.61491C21.3157 7.71148 21.2617 7.79758 21.1824 7.85547L16.5755 11.2104L17.9294 10.4284C18.0135 10.3787 18.1134 10.3628 18.2087 10.3842C18.304 10.4057 18.3875 10.4626 18.4422 10.5436C18.497 10.6245 18.5187 10.7233 18.503 10.8197C18.4874 10.9162 18.4355 11.003 18.358 11.0625L15.3266 13.439C15.4096 13.4141 15.4987 13.4183 15.5792 13.4504C15.6597 13.4827 15.7269 13.5413 15.7698 13.6166C15.8127 13.692 15.8288 13.7797 15.8154 13.8654C15.802 13.9511 15.7599 14.0298 15.6961 14.0885L13.6782 15.9376C13.6844 15.9476 13.6913 15.9569 13.6966 15.9668C13.7475 16.0549 13.7612 16.1595 13.7349 16.2577C13.7086 16.3559 13.6444 16.4395 13.5563 16.4904L12.2193 17.267C12.1609 17.3002 12.0947 17.3172 12.0276 17.3162Z" fill="#0077B6"/>
<path d="M32.322 45.6874C32.2443 45.6873 32.1685 45.6635 32.1046 45.6193C32.0407 45.5751 31.9917 45.5125 31.9642 45.4399C31.9367 45.3672 31.9319 45.2879 31.9505 45.2124C31.9691 45.137 32.0101 45.0689 32.0683 45.0174L32.6348 44.5144L30.6929 45.6338C30.6143 45.6784 30.5226 45.6939 30.4337 45.6775C30.3449 45.6611 30.2647 45.6139 30.2073 45.5441C30.1499 45.4743 30.119 45.3865 30.12 45.2962C30.121 45.2058 30.154 45.1188 30.2129 45.0503L31.3315 43.7731L28.1069 45.6338C28.027 45.6799 27.9332 45.6957 27.8426 45.6783C27.7521 45.6609 27.6708 45.6114 27.6138 45.5389C27.5568 45.4664 27.5278 45.3758 27.5322 45.2836C27.5366 45.1915 27.574 45.104 27.6377 45.0373L28.6765 43.9502L25.7586 45.6368C25.677 45.6836 25.581 45.6987 25.4889 45.6792C25.3969 45.6598 25.3152 45.6072 25.2594 45.5314C25.2036 45.4557 25.1777 45.3621 25.1865 45.2684C25.1952 45.1747 25.2381 45.0876 25.307 45.0235L26.0407 44.3481L23.8067 45.6338C23.7267 45.6794 23.6329 45.6947 23.5425 45.6769C23.4522 45.6591 23.3712 45.6093 23.3146 45.5367C23.2579 45.4641 23.2292 45.3735 23.2339 45.2815C23.2385 45.1895 23.2761 45.1023 23.3398 45.0358L24.3602 43.9801L21.4959 45.6338C21.4142 45.6852 21.3162 45.704 21.2213 45.6862C21.1264 45.6685 21.0416 45.6156 20.984 45.5382C20.9264 45.4607 20.9002 45.3644 20.9105 45.2684C20.9208 45.1724 20.967 45.0839 21.0398 45.0204L21.89 44.2193L19.4367 45.6353C19.3567 45.6809 19.2631 45.6963 19.1728 45.6785C19.0825 45.6608 19.0016 45.6112 18.9448 45.5387C18.8881 45.4663 18.8593 45.3758 18.8637 45.2839C18.8682 45.192 18.9055 45.1047 18.969 45.0381L19.9971 43.9693L17.1052 45.6338C17.024 45.6834 16.9273 45.7011 16.8338 45.6834C16.7403 45.6657 16.6567 45.6138 16.5993 45.5379C16.5419 45.462 16.5148 45.3674 16.5233 45.2726C16.5318 45.1778 16.5753 45.0896 16.6452 45.025L17.5016 44.2078L15.0322 45.6338C14.9559 45.6777 14.8668 45.694 14.7799 45.6801C14.693 45.6661 14.6136 45.6226 14.5549 45.5569C14.4963 45.4913 14.462 45.4075 14.4579 45.3195C14.4538 45.2316 14.4801 45.1449 14.5323 45.0741L15.6708 43.5354L12.0353 45.6338C11.9563 45.6788 11.8638 45.6943 11.7745 45.6775C11.6851 45.6607 11.6046 45.6127 11.5474 45.542C11.4902 45.4713 11.4599 45.3826 11.4621 45.2917C11.4642 45.2008 11.4987 45.1136 11.5592 45.0457L12.6586 43.8252L9.52443 45.6338C9.447 45.6785 9.35637 45.6948 9.26821 45.6797C9.18006 45.6647 9.09994 45.6193 9.04171 45.5514C8.98349 45.4836 8.95082 45.3975 8.94937 45.3081C8.94792 45.2187 8.97777 45.1316 9.03376 45.0618L10.1792 43.6358L6.71613 45.6338C6.63455 45.6786 6.53942 45.6923 6.44851 45.6722C6.3576 45.6521 6.27712 45.5995 6.2221 45.5244C6.16708 45.4493 6.14128 45.3567 6.14951 45.264C6.15775 45.1712 6.19946 45.0847 6.26686 45.0204L6.9492 44.4002L4.80866 45.6338C4.7289 45.6794 4.63541 45.6948 4.54522 45.6772C4.45504 45.6597 4.37416 45.6103 4.31731 45.5381C4.26046 45.466 4.23143 45.3758 4.23549 45.284C4.23956 45.1922 4.27645 45.1049 4.33946 45.0381L5.38366 43.941L2.4481 45.6338C2.36986 45.6785 2.27835 45.6943 2.18964 45.6783C2.10093 45.6623 2.02069 45.6156 1.96303 45.5463C1.90537 45.477 1.87396 45.3896 1.87434 45.2995C1.87472 45.2093 1.90685 45.1222 1.9651 45.0534L3.09593 43.7301L1.48133 44.6632C1.41106 44.7023 1.33028 44.7183 1.25041 44.7089C1.17055 44.6996 1.09564 44.6654 1.03629 44.6111C0.976947 44.5568 0.936167 44.4853 0.919723 44.4066C0.903278 44.3279 0.912003 44.246 0.944662 44.1725L1.39776 43.1758C1.30943 43.1902 1.21885 43.1733 1.14171 43.1279C1.06458 43.0825 1.00575 43.0115 0.975439 42.9273C0.945124 42.8431 0.945229 42.751 0.975735 42.6668C1.00624 42.5827 1.06522 42.5119 1.14246 42.4667L2.03256 41.953C2.10276 41.9141 2.18341 41.8981 2.26314 41.9075C2.34286 41.9168 2.41764 41.951 2.47693 42.0051C2.53621 42.0592 2.57701 42.1306 2.59357 42.2091C2.61013 42.2877 2.60162 42.3694 2.56923 42.4429L2.13376 43.402L4.6446 41.9538C4.72283 41.909 4.81434 41.8932 4.90305 41.9092C4.99176 41.9252 5.072 41.972 5.12966 42.0412C5.18733 42.1105 5.21873 42.1979 5.21835 42.2881C5.21797 42.3782 5.18584 42.4653 5.1276 42.5341L3.99676 43.8566L7.29726 41.9538C7.37704 41.9076 7.47077 41.8918 7.56128 41.9091C7.65179 41.9265 7.73303 41.9758 7.79011 42.0482C7.84719 42.1205 7.87629 42.211 7.87209 42.3031C7.86789 42.3951 7.83066 42.4826 7.76723 42.5495L6.72226 43.6466L9.65783 41.9522C9.73941 41.9073 9.83453 41.8937 9.92545 41.9138C10.0164 41.9339 10.0968 41.9864 10.1519 42.0616C10.2069 42.1367 10.2327 42.2292 10.2244 42.322C10.2162 42.4147 10.1745 42.5013 10.1071 42.5656L9.42553 43.1858L11.5661 41.9538C11.6435 41.9095 11.7339 41.8936 11.8218 41.9088C11.9097 41.924 11.9895 41.9694 12.0476 42.0371C12.1056 42.1049 12.1382 42.1907 12.1397 42.2799C12.1412 42.3691 12.1116 42.456 12.056 42.5257L10.9113 43.9471L14.3767 41.9538C14.4557 41.9087 14.5481 41.8932 14.6375 41.91C14.7268 41.9268 14.8073 41.9748 14.8645 42.0455C14.9218 42.1162 14.952 42.2049 14.9498 42.2958C14.9477 42.3867 14.9133 42.4739 14.8528 42.5418L13.7526 43.7623L16.8837 41.9538C16.9599 41.9098 17.049 41.8935 17.1359 41.9075C17.2228 41.9214 17.3023 41.9649 17.3609 42.0306C17.4195 42.0962 17.4538 42.1801 17.4579 42.268C17.462 42.3559 17.4358 42.4426 17.3835 42.5134L16.2443 44.0521L19.8813 41.9538C19.9625 41.9041 20.0593 41.8864 20.1528 41.9041C20.2463 41.9218 20.3299 41.9737 20.3873 42.0496C20.4446 42.1256 20.4717 42.2201 20.4632 42.3149C20.4547 42.4097 20.4113 42.498 20.3413 42.5625L19.4865 43.3798L21.9567 41.9538C22.0366 41.9076 22.1305 41.8918 22.2212 41.9093C22.3118 41.9268 22.3931 41.9765 22.4501 42.0491C22.507 42.1218 22.5359 42.2125 22.5313 42.3047C22.5267 42.3969 22.489 42.4844 22.4251 42.551L21.3963 43.6197L24.282 41.9538C24.3637 41.9032 24.4614 41.8852 24.5557 41.9033C24.65 41.9213 24.7342 41.9741 24.7914 42.0512C24.8487 42.1284 24.8749 42.2242 24.8649 42.3197C24.8549 42.4152 24.8094 42.5035 24.7374 42.5671L23.8941 43.3729L26.3474 41.9576C26.4274 41.9119 26.5212 41.8966 26.6115 41.9145C26.7019 41.9323 26.7828 41.982 26.8395 42.0546C26.8962 42.1272 26.9248 42.2178 26.9202 42.3098C26.9156 42.4018 26.878 42.489 26.8143 42.5556L25.7939 43.6113L28.6566 41.9538C28.7382 41.9077 28.8339 41.8931 28.9256 41.9127C29.0172 41.9324 29.0985 41.985 29.154 42.0605C29.2095 42.136 29.2354 42.2293 29.2268 42.3226C29.2183 42.416 29.1758 42.503 29.1074 42.5671L28.3729 43.2425L30.6078 41.9538C30.6876 41.9076 30.7814 41.8918 30.872 41.9092C30.9626 41.9267 31.0438 41.9762 31.1009 42.0487C31.1579 42.1211 31.1869 42.2118 31.1825 42.3039C31.1781 42.396 31.1406 42.4835 31.077 42.5502L30.0381 43.6374L32.9561 41.9507C33.0346 41.906 33.1264 41.8905 33.2152 41.9069C33.3041 41.9233 33.3843 41.9706 33.4417 42.0404C33.4991 42.1101 33.53 42.1979 33.5289 42.2883C33.5279 42.3786 33.495 42.4657 33.436 42.5341L32.3167 43.8122L35.5413 41.9538C35.6234 41.9077 35.7196 41.8935 35.8115 41.9138C35.9035 41.9341 35.9847 41.9876 36.0398 42.0639C36.0948 42.1403 36.1198 42.2343 36.1101 42.3279C36.1003 42.4216 36.0564 42.5083 35.9867 42.5717L35.4194 43.0754L37.3629 41.9538C37.4389 41.9104 37.5275 41.8944 37.6139 41.9084C37.7003 41.9224 37.7793 41.9655 37.8378 42.0307C37.8963 42.0958 37.9308 42.179 37.9354 42.2664C37.9401 42.3538 37.9147 42.4401 37.8635 42.5111L36.7281 44.0644L40.3843 41.9538C40.466 41.9049 40.5629 41.8881 40.6563 41.9068C40.7496 41.9254 40.8327 41.9782 40.8893 42.0547C40.9459 42.1312 40.972 42.226 40.9626 42.3207C40.9531 42.4155 40.9088 42.5033 40.8382 42.5671L40.0477 43.3054L42.3891 41.9538C42.4686 41.9087 42.5615 41.8935 42.6511 41.9109C42.7408 41.9283 42.8213 41.9771 42.8781 42.0486C42.935 42.12 42.9645 42.2095 42.9613 42.3007C42.9581 42.392 42.9224 42.4791 42.8606 42.5464L41.795 43.6872L44.7949 41.9538C44.8748 41.9076 44.9686 41.8918 45.0592 41.9092C45.1497 41.9267 45.231 41.9762 45.288 42.0487C45.3451 42.1211 45.374 42.2118 45.3696 42.3039C45.3652 42.396 45.3278 42.4835 45.2641 42.5502L44.233 43.6236L45.5187 42.8814C45.5955 42.8371 45.6853 42.8209 45.7728 42.8354C45.8603 42.8499 45.9401 42.8944 45.9985 42.9611C46.0569 43.0278 46.0904 43.1127 46.0932 43.2014C46.096 43.29 46.068 43.3769 46.0139 43.4472L45.5777 44.013C45.6672 43.982 45.7649 43.9852 45.8522 44.0219C45.9394 44.0587 46.01 44.1264 46.0503 44.2121C46.0905 44.2978 46.0977 44.3954 46.0703 44.486C46.0429 44.5767 45.983 44.654 45.902 44.703L44.292 45.6315C44.2152 45.6754 44.1256 45.6914 44.0384 45.6768C43.9512 45.6622 43.8717 45.6179 43.8134 45.5514C43.7551 45.4849 43.7216 45.4003 43.7186 45.3119C43.7155 45.2235 43.7431 45.1368 43.7967 45.0664L44.2238 44.5114L42.2833 45.6338C42.2035 45.6794 42.1099 45.6947 42.0197 45.6771C41.9294 45.6595 41.8485 45.61 41.7917 45.5377C41.7349 45.4653 41.706 45.375 41.7103 45.2832C41.7145 45.1913 41.7517 45.1041 41.8149 45.0373L42.8445 43.964L39.9511 45.6338C39.8717 45.6788 39.7788 45.694 39.6891 45.6766C39.5995 45.6592 39.519 45.6104 39.4621 45.5389C39.4053 45.4675 39.3758 45.3781 39.379 45.2868C39.3822 45.1955 39.4179 45.1084 39.4796 45.0411L40.5453 43.8996L37.5392 45.6338C37.4575 45.6819 37.3609 45.6981 37.268 45.6791C37.1752 45.6602 37.0926 45.6075 37.0362 45.5313C36.9799 45.455 36.9538 45.3606 36.963 45.2663C36.9723 45.1719 37.0161 45.0843 37.0861 45.0204L37.8758 44.2829L35.5367 45.6338C35.4606 45.6771 35.372 45.6931 35.2856 45.6791C35.1992 45.6651 35.1202 45.622 35.0617 45.5569C35.0032 45.4917 34.9688 45.4086 34.9641 45.3212C34.9594 45.2337 34.9848 45.1474 35.036 45.0764L36.1722 43.5224L32.5137 45.6338C32.4557 45.6685 32.3896 45.687 32.322 45.6874Z" fill="#B1CDDD"/>
<path d="M17.882 42.6438C17.8003 42.6437 17.7209 42.6175 17.6551 42.5691C17.5894 42.5207 17.5409 42.4525 17.5166 42.3746C17.4923 42.2966 17.4935 42.213 17.5201 42.1358C17.5466 42.0586 17.5971 41.9919 17.6642 41.9454L23.2448 38.0814L16.0481 42.2329C15.9618 42.2829 15.8594 42.2974 15.7626 42.2731C15.6659 42.2488 15.5824 42.1878 15.5299 42.103C15.4774 42.0182 15.46 41.9162 15.4815 41.8188C15.5029 41.7214 15.5616 41.6361 15.6448 41.5812L20.6082 38.2907L16.0481 40.9234C15.9616 40.9737 15.8588 40.9882 15.7618 40.9638C15.6647 40.9393 15.5811 40.8779 15.5287 40.7926C15.4764 40.7073 15.4594 40.6049 15.4816 40.5073C15.5037 40.4097 15.5631 40.3246 15.6471 40.2702L19.3471 37.8522L16.0504 39.7558C15.9645 39.8027 15.8638 39.815 15.7691 39.79C15.6744 39.7651 15.5928 39.7049 15.5411 39.6217C15.4894 39.5385 15.4715 39.4387 15.4911 39.3427C15.5107 39.2468 15.5662 39.162 15.6464 39.1057L21.036 35.5023L16.0527 38.3804C15.9666 38.4273 15.8657 38.4393 15.7709 38.4141C15.6762 38.3889 15.5946 38.3283 15.5432 38.2448C15.4917 38.1614 15.4742 38.0613 15.4943 37.9653C15.5143 37.8693 15.5704 37.7846 15.651 37.7287L19.4513 35.2309L16.0481 37.1951C15.9623 37.2434 15.8612 37.2568 15.7657 37.2325C15.6703 37.2083 15.5879 37.1482 15.5355 37.0648C15.4832 36.9814 15.4649 36.881 15.4846 36.7846C15.5042 36.6881 15.5602 36.6028 15.641 36.5465L21.3534 32.6611L16.0458 35.7277C15.9597 35.7776 15.8576 35.7921 15.761 35.7681C15.6645 35.744 15.581 35.6834 15.5283 35.599C15.4757 35.5145 15.4579 35.4129 15.4788 35.3156C15.4997 35.2183 15.5576 35.133 15.6402 35.0776L20.1889 32.0109L16.0489 34.4022C15.9626 34.4497 15.8613 34.4622 15.7661 34.437C15.6708 34.4119 15.5889 34.351 15.5374 34.2671C15.4858 34.1832 15.4685 34.0826 15.4891 33.9863C15.5097 33.89 15.5665 33.8052 15.6479 33.7497L17.3729 32.6197L16.0489 33.3863C15.9631 33.4354 15.8617 33.4494 15.7659 33.4255C15.67 33.4016 15.5871 33.3416 15.5344 33.258C15.4817 33.1745 15.4633 33.0738 15.483 32.977C15.5027 32.8802 15.5591 32.7948 15.6402 32.7385L19.8431 29.8489L16.0481 32.0385C15.9628 32.0872 15.8622 32.1012 15.7669 32.0779C15.6715 32.0545 15.5888 31.9954 15.5357 31.9129C15.4826 31.8303 15.4633 31.7305 15.4816 31.6341C15.4999 31.5376 15.5545 31.4519 15.6341 31.3945L20.0808 28.2236L16.068 30.5412C15.9833 30.5898 15.8831 30.6042 15.7881 30.5814C15.6931 30.5586 15.6104 30.5004 15.5568 30.4187C15.5033 30.3369 15.483 30.2378 15.5001 30.1416C15.5171 30.0454 15.5703 29.9594 15.6487 29.9011L19.4927 27.0644L16.3793 28.8615C16.2946 28.9108 16.1942 28.9257 16.0988 28.9033C16.0034 28.8809 15.9202 28.8228 15.8663 28.7409C15.8124 28.659 15.792 28.5597 15.8091 28.4632C15.8262 28.3667 15.8796 28.2804 15.9584 28.2221L17.9341 26.7531L17.0908 27.24C17.007 27.2887 16.9079 27.3038 16.8134 27.2824C16.7189 27.261 16.636 27.2046 16.5814 27.1245C16.5269 27.0445 16.5046 26.9468 16.5192 26.851C16.5337 26.7552 16.584 26.6684 16.6599 26.6082L18.0959 25.4705C18.0423 25.4339 17.9989 25.3844 17.9697 25.3265C17.9405 25.2686 17.9265 25.2042 17.929 25.1394C17.9314 25.0746 17.9503 25.0115 17.9837 24.956C18.0172 24.9004 18.0642 24.8543 18.1204 24.8219L21.0376 23.1352C21.1213 23.0865 21.2204 23.0714 21.3149 23.0928C21.4094 23.1142 21.4923 23.1706 21.5469 23.2506C21.6015 23.3307 21.6238 23.4284 21.6092 23.5242C21.5946 23.62 21.5443 23.7068 21.4684 23.767L21.1825 23.997L23.2747 22.7872C23.3594 22.7379 23.4598 22.7229 23.5552 22.7453C23.6506 22.7677 23.7338 22.8259 23.7877 22.9077C23.8416 22.9896 23.8621 23.089 23.8449 23.1855C23.8278 23.282 23.7744 23.3682 23.6956 23.4266L21.7191 24.8955L25.0288 22.9842C25.1136 22.9356 25.2137 22.9213 25.3088 22.9441C25.4038 22.9668 25.4865 23.025 25.54 23.1068C25.5936 23.1885 25.6139 23.2876 25.5968 23.3838C25.5797 23.48 25.5266 23.566 25.4482 23.6244L21.6072 26.461L26.6434 23.5538C26.7285 23.5068 26.8283 23.4939 26.9226 23.5176C27.0169 23.5414 27.0986 23.6001 27.1512 23.6819C27.2038 23.7636 27.2234 23.8623 27.206 23.958C27.1886 24.0536 27.1355 24.1391 27.0574 24.1971L22.6108 27.368L27.9008 24.3159C27.9866 24.265 28.0889 24.2496 28.1859 24.273C28.2829 24.2963 28.367 24.3566 28.4202 24.4409C28.4735 24.5252 28.4919 24.627 28.4713 24.7246C28.4508 24.8223 28.3929 24.908 28.3102 24.9637L24.1042 27.8548L28.82 25.1324C28.9063 25.0849 29.0076 25.0724 29.1028 25.0975C29.198 25.1227 29.2799 25.1835 29.3315 25.2675C29.3831 25.3514 29.4004 25.4519 29.3798 25.5483C29.3592 25.6446 29.3023 25.7293 29.221 25.7848L27.4868 26.9157L29.3973 25.8132C29.4835 25.7593 29.5876 25.7419 29.6867 25.7647C29.7857 25.7876 29.8717 25.8489 29.9255 25.9351C29.9794 26.0213 29.9969 26.1254 29.974 26.2245C29.9511 26.3235 29.8899 26.4094 29.8036 26.4633L25.2588 29.5246L30.0168 26.7738C30.1024 26.7273 30.2026 26.7152 30.2968 26.7398C30.3911 26.7645 30.4725 26.8242 30.5243 26.9067C30.5762 26.9892 30.5947 27.0884 30.576 27.1841C30.5573 27.2797 30.5029 27.3647 30.4239 27.4217L24.7068 31.3087L30.5335 27.9438C30.6199 27.8947 30.7219 27.881 30.8182 27.9057C30.9144 27.9304 30.9973 27.9914 31.0494 28.076C31.1015 28.1606 31.1187 28.2621 31.0974 28.3592C31.0761 28.4562 31.018 28.5412 30.9352 28.5962L27.1379 31.0925L30.8049 28.9749C30.8909 28.9267 30.9922 28.9135 31.0877 28.938C31.1833 28.9626 31.2656 29.023 31.3178 29.1067C31.3699 29.1904 31.3877 29.291 31.3676 29.3875C31.3475 29.4841 31.2909 29.5691 31.2097 29.6251L25.8131 33.2284L30.9429 30.266C31.0294 30.2157 31.1322 30.2012 31.2292 30.2257C31.3263 30.2501 31.4099 30.3115 31.4623 30.3968C31.5147 30.4821 31.5316 30.5845 31.5095 30.6821C31.4873 30.7797 31.4279 30.8648 31.3439 30.9192L27.6493 33.3342L30.9513 31.4283C31.0375 31.3787 31.1395 31.3644 31.2359 31.3886C31.3323 31.4128 31.4155 31.4735 31.4681 31.5578C31.5208 31.6425 31.5385 31.7444 31.5173 31.8419C31.4961 31.9394 31.4377 32.0248 31.3546 32.0799L26.3935 35.3689L30.9536 32.7362C31.0393 32.6878 31.1402 32.6743 31.2356 32.6982C31.331 32.7222 31.4135 32.7819 31.4661 32.865C31.5186 32.9481 31.5373 33.0483 31.5181 33.1447C31.4989 33.2412 31.4434 33.3266 31.363 33.3833L25.7779 37.2503L30.9567 34.2603C31.0429 34.2113 31.1447 34.1976 31.2407 34.222C31.3368 34.2465 31.4197 34.3072 31.4719 34.3914C31.5242 34.4756 31.5418 34.5768 31.5211 34.6737C31.5004 34.7706 31.4429 34.8558 31.3607 34.9112L29.9646 35.8397L30.9613 35.2662C31.0474 35.2163 31.1495 35.2018 31.2461 35.2259C31.3427 35.2499 31.4261 35.3105 31.4788 35.395C31.5314 35.4794 31.5492 35.581 31.5283 35.6783C31.5074 35.7756 31.4495 35.8609 31.3669 35.9163L31.0127 36.1532C31.0991 36.1193 31.1949 36.1178 31.2822 36.1492C31.3696 36.1805 31.4427 36.2425 31.4878 36.3236C31.5329 36.4047 31.5471 36.4994 31.5277 36.5902C31.5083 36.681 31.4566 36.7616 31.3822 36.8172L29.1673 38.4471L30.9659 37.409C31.049 37.3612 31.147 37.3463 31.2406 37.3672C31.3342 37.3882 31.4165 37.4434 31.4714 37.522C31.5262 37.6006 31.5496 37.697 31.5369 37.792C31.5243 37.887 31.4765 37.9739 31.4029 38.0354L29.4525 39.6554L30.969 38.7806C31.0465 38.7359 31.1373 38.7199 31.2255 38.7351C31.3137 38.7503 31.3938 38.796 31.4518 38.8641C31.5099 38.9322 31.5424 39.0184 31.5435 39.1079C31.5446 39.1974 31.5144 39.2845 31.4581 39.3541L30.2314 40.8667L30.9736 40.4381C31.039 40.4006 31.1141 40.3831 31.1894 40.388C31.2647 40.3929 31.3369 40.42 31.3969 40.4657C31.4569 40.5115 31.5021 40.574 31.5267 40.6453C31.5514 40.7166 31.5545 40.7936 31.5355 40.8667L31.3285 41.664C31.3921 41.6936 31.4464 41.74 31.4854 41.7982C31.5244 41.8565 31.5468 41.9243 31.5499 41.9944C31.5531 42.0644 31.537 42.134 31.5033 42.1955C31.4697 42.257 31.4199 42.3081 31.3592 42.3433L30.9759 42.5649C30.9105 42.6023 30.8355 42.6197 30.7603 42.6148C30.6851 42.6099 30.613 42.583 30.553 42.5373C30.4931 42.4917 30.4479 42.4294 30.4231 42.3582C30.3984 42.287 30.3952 42.2101 30.4139 42.1371L30.5672 41.5598L28.8208 42.5679C28.7432 42.6126 28.6525 42.6287 28.5643 42.6134C28.4761 42.5982 28.396 42.5526 28.3379 42.4845C28.2798 42.4164 28.2474 42.3301 28.2463 42.2406C28.2451 42.1511 28.2753 42.064 28.3316 41.9945L29.5583 40.4826L25.9373 42.5725C25.8552 42.6181 25.7591 42.6318 25.6675 42.6112C25.5758 42.5906 25.4949 42.537 25.4401 42.4607C25.3854 42.3843 25.3605 42.2905 25.3704 42.1971C25.3802 42.1037 25.424 42.0171 25.4934 41.9538L27.4415 40.3346L23.5453 42.584C23.4606 42.6306 23.3615 42.6434 23.2678 42.6199C23.174 42.5965 23.0926 42.5385 23.0398 42.4576C22.9869 42.3767 22.9666 42.2788 22.9829 42.1835C22.9992 42.0883 23.0508 42.0027 23.1275 41.9439L25.3447 40.3124L21.4048 42.5871C21.3185 42.6409 21.2143 42.6582 21.1153 42.6352C21.0162 42.6122 20.9304 42.5507 20.8766 42.4644C20.8228 42.3781 20.8055 42.274 20.8285 42.1749C20.8515 42.0758 20.9129 41.99 20.9992 41.9362L21.3059 41.7292L19.8201 42.5863C19.734 42.6339 19.633 42.6465 19.5378 42.6216C19.4427 42.5967 19.3608 42.5362 19.309 42.4526C19.2572 42.369 19.2395 42.2687 19.2596 42.1725C19.2797 42.0762 19.336 41.9914 19.4168 41.9354L20.8168 41.0047L18.0721 42.5894C18.0147 42.6241 17.9491 42.6428 17.882 42.6438Z" fill="#51CB20"/>
<path d="M9.20457 39.554C9.12772 39.5539 9.05269 39.5307 8.98919 39.4874C8.9257 39.4441 8.87668 39.3827 8.8485 39.3112C8.82032 39.2398 8.81427 39.1614 8.83114 39.0865C8.84802 39.0115 8.88704 38.9433 8.94313 38.8908L10.0648 37.8374L7.25417 39.4605C7.17006 39.5085 7.07089 39.5228 6.97661 39.5007C6.88232 39.4786 6.7999 39.4216 6.74592 39.3412C6.69193 39.2608 6.67037 39.163 6.68558 39.0673C6.70079 38.9717 6.75163 38.8853 6.8279 38.8257L8.03003 37.8949L6.35793 38.8594C6.27507 38.9074 6.17725 38.9226 6.08371 38.9021C5.99018 38.8816 5.9077 38.8269 5.85252 38.7486C5.79733 38.6703 5.77344 38.5743 5.78553 38.4793C5.79762 38.3843 5.84483 38.2973 5.91787 38.2353L9.2199 35.4439L6.08117 37.2563C5.99579 37.3055 5.89473 37.32 5.79897 37.2967C5.70322 37.2733 5.62012 37.214 5.56694 37.131C5.51376 37.0481 5.49458 36.9478 5.51339 36.8511C5.5322 36.7543 5.58754 36.6685 5.66793 36.6115L5.9539 36.4091C5.87107 36.4224 5.78618 36.4081 5.71226 36.3684C5.63833 36.3288 5.57945 36.266 5.54464 36.1897C5.50984 36.1133 5.50102 36.0277 5.51955 35.9459C5.53808 35.8641 5.58294 35.7906 5.64723 35.7368L9.07347 32.8809L6.08347 34.6059C5.99929 34.6533 5.90033 34.6671 5.80638 34.6447C5.71243 34.6222 5.63042 34.5652 5.57675 34.4848C5.52308 34.4045 5.5017 34.3069 5.5169 34.2115C5.53211 34.1161 5.58276 34.03 5.65873 33.9704L7.948 32.207L6.08347 33.2804C5.99876 33.3296 5.89839 33.3446 5.80298 33.3222C5.70757 33.2998 5.62438 33.2417 5.57049 33.1598C5.5166 33.0779 5.49612 32.9785 5.51324 32.882C5.53037 32.7855 5.5838 32.6993 5.66257 32.641L7.2557 31.4549L6.08117 32.1327C5.99779 32.1803 5.89958 32.1949 5.80595 32.1736C5.71233 32.1522 5.63012 32.0966 5.57557 32.0175C5.52103 31.9385 5.49813 31.8419 5.51139 31.7468C5.52466 31.6517 5.57314 31.5651 5.64723 31.504L8.822 28.9111L6.08117 30.4935C5.99753 30.541 5.89909 30.5553 5.80539 30.5336C5.71168 30.5119 5.62956 30.4558 5.57532 30.3763C5.52108 30.2969 5.49868 30.2 5.51257 30.1048C5.52646 30.0096 5.57562 29.9232 5.6503 29.8626L8.53297 27.5626L6.07963 28.9778C5.99535 29.0255 5.89614 29.0395 5.80194 29.0171C5.70774 28.9946 5.62554 28.9373 5.57184 28.8567C5.51815 28.7761 5.49695 28.6782 5.51249 28.5826C5.52804 28.4871 5.57919 28.4009 5.65567 28.3415L7.43893 26.9784L6.08117 27.7604C5.99709 27.8074 5.89837 27.8211 5.80465 27.7987C5.71094 27.7763 5.6291 27.7194 5.57545 27.6393C5.5218 27.5593 5.50026 27.462 5.51513 27.3668C5.52999 27.2716 5.58017 27.1854 5.65567 27.1256L6.69527 26.3221L6.08193 26.6763C5.99926 26.7239 5.90179 26.739 5.80859 26.7186C5.71538 26.6982 5.63314 26.6437 5.57794 26.5659C5.52273 26.4881 5.49854 26.3925 5.51008 26.2978C5.52161 26.203 5.56806 26.116 5.64033 26.0538L6.30043 25.4849L6.08193 25.6106C6.00664 25.654 5.91883 25.6705 5.83291 25.6575C5.747 25.6444 5.66807 25.6025 5.60907 25.5387C5.55007 25.4749 5.51451 25.393 5.50821 25.3063C5.50191 25.2196 5.52525 25.1334 5.5744 25.0617L6.14557 24.2329C6.07274 24.2376 6.00001 24.2224 5.93517 24.1889C5.87034 24.1554 5.81585 24.1049 5.77757 24.0428C5.72691 23.9549 5.71316 23.8505 5.73931 23.7525C5.76547 23.6545 5.8294 23.5709 5.9171 23.5199L7.1867 22.787C7.26192 22.7439 7.34953 22.7276 7.43522 22.7407C7.52091 22.7538 7.59962 22.7956 7.65852 22.8592C7.71741 22.9228 7.75301 23.0045 7.7595 23.0909C7.76598 23.1774 7.74298 23.2635 7.69423 23.3352L7.1683 24.1018L9.44377 22.787C9.52633 22.7403 9.62329 22.7258 9.71588 22.7465C9.80848 22.7671 9.89013 22.8213 9.94507 22.8986C10 22.976 10.0243 23.071 10.0133 23.1652C10.0023 23.2594 9.95667 23.3462 9.88537 23.4088L9.22603 23.9769L11.2584 22.8039C11.3425 22.7558 11.4417 22.7415 11.536 22.7636C11.6303 22.7857 11.7127 22.8427 11.7667 22.9231C11.8207 23.0035 11.8422 23.1013 11.827 23.197C11.8118 23.2926 11.761 23.379 11.6847 23.4387L10.6459 24.2406L12.206 23.3405C12.2903 23.2928 12.3895 23.2788 12.4837 23.3013C12.5779 23.3237 12.6601 23.381 12.7138 23.4616C12.7675 23.5422 12.7887 23.6401 12.7732 23.7357C12.7576 23.8313 12.7065 23.9174 12.63 23.9769L10.8444 25.3415L12.5518 24.3564C12.6354 24.3089 12.7339 24.2945 12.8276 24.3163C12.9213 24.338 13.0034 24.3941 13.0576 24.4735C13.1119 24.553 13.1343 24.6499 13.1204 24.745C13.1065 24.8402 13.0573 24.9267 12.9827 24.9873L10.1023 27.2873L12.5556 25.8728C12.639 25.8252 12.7372 25.8106 12.8308 25.8319C12.9245 25.8532 13.0067 25.9089 13.0612 25.9879C13.1158 26.067 13.1387 26.1636 13.1254 26.2587C13.1121 26.3538 13.0637 26.4404 12.9896 26.5015L9.81253 29.0959L12.5556 27.5127C12.6403 27.4634 12.7407 27.4485 12.8361 27.4709C12.9315 27.4933 13.0147 27.5514 13.0686 27.6333C13.1225 27.7151 13.143 27.8145 13.1259 27.911C13.1087 28.0075 13.0553 28.0938 12.9765 28.1521L11.3834 29.3382L12.5556 28.662C12.6398 28.6146 12.7388 28.6007 12.8327 28.6232C12.9267 28.6456 13.0087 28.7027 13.0624 28.783C13.116 28.8633 13.1374 28.961 13.1222 29.0563C13.107 29.1517 13.0563 29.2379 12.9804 29.2975L10.6911 31.0609L12.5556 29.9875C12.6388 29.9397 12.7368 29.9248 12.8303 29.9457C12.9239 29.9667 13.0062 30.0219 13.0611 30.1005C13.116 30.1791 13.1394 30.2755 13.1267 30.3705C13.114 30.4655 13.0662 30.5524 12.9926 30.6139L9.56643 33.4697L12.5564 31.7447C12.6418 31.6955 12.7428 31.681 12.8386 31.7044C12.9344 31.7277 13.0174 31.787 13.0706 31.87C13.1238 31.9529 13.143 32.0532 13.1242 32.1499C13.1054 32.2467 13.05 32.3325 12.9696 32.3895L12.6837 32.5919C12.7666 32.5776 12.8519 32.5911 12.9265 32.6301C13.001 32.6692 13.0606 32.7317 13.0961 32.808C13.1316 32.8843 13.141 32.9702 13.1229 33.0524C13.1047 33.1345 13.06 33.2085 12.9957 33.2627L9.6891 36.0503L12.5518 34.3982C12.6359 34.3511 12.7346 34.3374 12.8283 34.3598C12.922 34.3822 13.0039 34.4391 13.0575 34.5192C13.1112 34.5992 13.1327 34.6965 13.1178 34.7917C13.103 34.887 13.0528 34.9731 12.9773 35.033L11.7759 35.9637L12.5518 35.5137C12.6335 35.4648 12.7304 35.448 12.8238 35.4667C12.9171 35.4853 13.0002 35.538 13.0568 35.6146C13.1134 35.6911 13.1395 35.7859 13.1301 35.8806C13.1206 35.9754 13.0763 36.0632 13.0057 36.127L11.8848 37.1804L12.5518 36.7971C12.6279 36.753 12.7169 36.7364 12.8038 36.7502C12.8907 36.764 12.9702 36.8072 13.029 36.8726C13.0878 36.9381 13.1223 37.0218 13.1267 37.1096C13.1311 37.1975 13.1052 37.2842 13.0532 37.3552L12.5426 38.0552C12.625 38.0595 12.7038 38.0903 12.7672 38.143C12.8307 38.1956 12.8755 38.2674 12.895 38.3475C12.9144 38.4277 12.9075 38.512 12.8752 38.5879C12.843 38.6638 12.7871 38.7273 12.7159 38.7689L11.447 39.5019C11.371 39.5456 11.2822 39.5619 11.1956 39.5481C11.1089 39.5343 11.0296 39.4911 10.971 39.4259C10.9123 39.3607 10.8778 39.2773 10.8731 39.1897C10.8685 39.1021 10.8941 39.0155 10.9456 38.9445L11.3681 38.3657L9.39317 39.5003C9.33616 39.5346 9.27108 39.5531 9.20457 39.554Z" fill="#0077B6"/>
<path d="M37.1176 39.554C37.0403 39.554 36.9648 39.5305 36.901 39.4868C36.8372 39.443 36.7881 39.3809 36.7603 39.3088C36.7324 39.2366 36.727 39.1577 36.7448 39.0824C36.7626 39.0072 36.8028 38.939 36.86 38.887L38.217 37.6519L35.2868 39.347C35.2027 39.3944 35.1037 39.4082 35.0097 39.3858C34.9158 39.3633 34.8338 39.3062 34.7801 39.2259C34.7264 39.1456 34.7051 39.048 34.7203 38.9526C34.7355 38.8572 34.7861 38.7711 34.8621 38.7114L36.1999 37.6856L34.5899 38.6179C34.5047 38.6673 34.4038 38.682 34.3081 38.659C34.2123 38.636 34.1291 38.577 34.0757 38.4943C34.0222 38.4116 34.0027 38.3115 34.0211 38.2147C34.0394 38.118 34.0944 38.032 34.1744 37.9747L34.6053 37.6603L34.4519 37.7508C34.3682 37.7986 34.2695 37.813 34.1756 37.7913C34.0817 37.7696 33.9994 37.7132 33.9452 37.6336C33.8909 37.5539 33.8687 37.4567 33.8829 37.3613C33.8971 37.266 33.9467 37.1795 34.0218 37.1191L36.8516 34.8666L34.4481 36.2497C34.3631 36.2987 34.2626 36.3134 34.1672 36.2906C34.0718 36.2677 33.9888 36.2092 33.9352 36.127C33.8815 36.0449 33.8613 35.9453 33.8789 35.8487C33.8964 35.7521 33.9503 35.666 34.0295 35.608L35.2017 34.7493L34.4481 35.184C34.3644 35.2309 34.2661 35.2447 34.1728 35.2227C34.0794 35.2007 33.9976 35.1444 33.9437 35.065C33.8898 34.9857 33.8676 34.889 33.8815 34.7941C33.8954 34.6991 33.9444 34.6128 34.0188 34.5523L36.811 32.3343L34.4481 33.699C34.3629 33.7464 34.2628 33.7596 34.1682 33.7359C34.0736 33.7121 33.9916 33.6532 33.9389 33.5711C33.8863 33.489 33.8669 33.3899 33.8847 33.294C33.9025 33.1982 33.9562 33.1127 34.0349 33.055L34.353 32.825C34.2665 32.8475 34.1749 32.8391 34.0939 32.8012C34.013 32.7633 33.9478 32.6983 33.9097 32.6174C33.8716 32.5366 33.863 32.445 33.8852 32.3584C33.9075 32.2718 33.9594 32.1958 34.0318 32.1434L34.8544 31.5485L34.4481 31.7785C34.3633 31.8283 34.2626 31.8436 34.1668 31.8212C34.071 31.7988 33.9875 31.7405 33.9335 31.6583C33.8795 31.576 33.8592 31.4762 33.8768 31.3794C33.8944 31.2826 33.9485 31.1963 34.028 31.1383L35.4463 30.0903L34.4496 30.666C34.366 30.7151 34.267 30.7307 34.1723 30.7096C34.0777 30.6886 33.9946 30.6325 33.9397 30.5526C33.8848 30.4727 33.8622 30.375 33.8764 30.2791C33.8907 30.1832 33.9407 30.0963 34.0165 30.0358L37.1084 27.5281L34.4496 29.0614C34.3651 29.1098 34.2654 29.1243 34.1706 29.1018C34.0759 29.0793 33.9932 29.0217 33.9395 28.9405C33.8857 28.8593 33.8648 28.7607 33.8811 28.6647C33.8974 28.5687 33.9497 28.4824 34.0272 28.4235L35.5667 27.2659L34.4481 27.9237C34.364 27.9708 34.2653 27.9845 34.1716 27.962C34.0779 27.9396 33.996 27.8827 33.9424 27.8026C33.8887 27.7226 33.8672 27.6253 33.8821 27.5301C33.8969 27.4349 33.9471 27.3488 34.0226 27.2889L35.2324 26.3535L34.4481 26.8059C34.3683 26.8515 34.2747 26.8669 34.1844 26.8492C34.0942 26.8316 34.0133 26.7821 33.9565 26.7098C33.8997 26.6375 33.8708 26.5471 33.8751 26.4553C33.8793 26.3634 33.9164 26.2762 33.9797 26.2094L35.3321 24.7995L34.4481 25.3093C34.3708 25.3532 34.2806 25.3689 34.193 25.3536C34.1054 25.3383 34.0258 25.2931 33.9679 25.2255C33.91 25.158 33.8774 25.0725 33.8756 24.9836C33.8738 24.8947 33.903 24.8079 33.9582 24.7382L34.3699 24.2237C34.2977 24.203 34.2331 24.1615 34.1843 24.1043C34.1355 24.0472 34.1045 23.977 34.0953 23.9024C34.086 23.8278 34.0989 23.7521 34.1324 23.6848C34.1658 23.6175 34.2183 23.5615 34.2833 23.5238L35.5536 22.7908C35.631 22.7469 35.7212 22.7313 35.8088 22.7466C35.8964 22.7619 35.9759 22.8071 36.0338 22.8746C36.0917 22.9421 36.1244 23.0277 36.1261 23.1166C36.1279 23.2055 36.0987 23.2923 36.0435 23.362L35.8335 23.625L37.2817 22.7893C37.3615 22.7437 37.4551 22.7283 37.5454 22.746C37.6356 22.7636 37.7165 22.8131 37.7733 22.8854C37.8301 22.9577 37.859 23.048 37.8547 23.1399C37.8505 23.2318 37.8134 23.319 37.7501 23.3858L36.3985 24.7949L39.7833 22.8407C39.8674 22.7927 39.9666 22.7783 40.0609 22.8004C40.1552 22.8225 40.2376 22.8795 40.2916 22.9599C40.3456 23.0403 40.3671 23.1382 40.3519 23.2338C40.3367 23.3294 40.2859 23.4158 40.2096 23.4755L38.999 24.4116L40.6566 23.4548C40.7411 23.406 40.8411 23.3912 40.9361 23.4136C41.0311 23.436 41.114 23.4937 41.1679 23.5751C41.2217 23.6565 41.2425 23.7554 41.226 23.8515C41.2095 23.9477 41.1569 24.0339 41.079 24.0926L39.5388 25.2503L40.9188 24.4545C41.0022 24.4067 41.1007 24.3919 41.1945 24.4133C41.2883 24.4346 41.3707 24.4905 41.4252 24.5697C41.4798 24.649 41.5025 24.7459 41.4889 24.8411C41.4754 24.9364 41.4265 25.0231 41.3519 25.0839L38.2615 27.5863L40.9188 26.053C41.0036 26.0032 41.1043 25.9879 41.2001 26.0103C41.2959 26.0326 41.3794 26.091 41.4334 26.1732C41.4874 26.2555 41.5076 26.3553 41.4901 26.4521C41.4725 26.5489 41.4184 26.6352 41.3389 26.6932L39.9167 27.7443L40.9188 27.167C41.0037 27.1197 41.1034 27.1065 41.1977 27.13C41.292 27.1534 41.3738 27.2118 41.4267 27.2933C41.4796 27.3748 41.4996 27.4734 41.4826 27.5691C41.4655 27.6648 41.4128 27.7504 41.3351 27.8087L40.5124 28.4036L40.9188 28.1736C41.004 28.1262 41.1041 28.113 41.1987 28.1367C41.2933 28.1605 41.3752 28.2194 41.4279 28.3015C41.4806 28.3836 41.5 28.4827 41.4822 28.5785C41.4644 28.6744 41.4106 28.7599 41.332 28.8176L41.0161 29.043C41.101 29.0218 41.1907 29.0302 41.2701 29.067C41.3495 29.1038 41.414 29.1666 41.4528 29.245C41.4915 29.3235 41.5023 29.4129 41.4833 29.4983C41.4642 29.5837 41.4165 29.66 41.3481 29.7146L38.5536 31.9379L40.9188 30.5725C41.0037 30.5235 41.1041 30.5088 41.1995 30.5316C41.2948 30.5543 41.3779 30.6127 41.4315 30.6948C41.4851 30.7769 41.5052 30.8764 41.4877 30.9729C41.4702 31.0693 41.4164 31.1554 41.3374 31.2134L40.1651 32.0637L40.9188 31.629C41.0025 31.5812 41.1012 31.5668 41.1951 31.5885C41.289 31.6102 41.3713 31.6666 41.4255 31.7462C41.4798 31.8259 41.502 31.9231 41.4878 32.0185C41.4736 32.1138 41.424 32.2003 41.3489 32.2607L38.5214 34.517L40.9188 33.1324C41.004 33.083 41.1049 33.0683 41.2006 33.0913C41.2964 33.1143 41.3796 33.1733 41.433 33.256C41.4865 33.3387 41.506 33.4389 41.4876 33.5356C41.4693 33.6323 41.4143 33.7183 41.3343 33.7756L40.8942 34.0907L40.9188 34.0769C41.0029 34.0305 41.1015 34.0173 41.1949 34.04C41.2883 34.0628 41.3697 34.1198 41.4231 34.1997C41.4764 34.2797 41.4978 34.3768 41.4829 34.4718C41.468 34.5668 41.418 34.6527 41.3427 34.7125L40.0026 35.7398L40.9226 35.2116C41.0042 35.1667 41.0993 35.1531 41.1902 35.1732C41.2811 35.1933 41.3616 35.2458 41.4166 35.3209C41.4717 35.3961 41.4975 35.4886 41.4892 35.5814C41.481 35.6741 41.4393 35.7607 41.3719 35.8249L40.0141 37.0593L40.9226 36.5349C41.0035 36.4876 41.0989 36.4716 41.1909 36.4899C41.2828 36.5081 41.3648 36.5595 41.4215 36.6342C41.4781 36.7088 41.5054 36.8017 41.4983 36.8951C41.4911 36.9886 41.45 37.0761 41.3826 37.1413L41.0905 37.425C41.1596 37.4254 41.2274 37.4432 41.2878 37.4767C41.3483 37.5102 41.3993 37.5583 41.4363 37.6166C41.4871 37.7047 41.5009 37.8093 41.4746 37.9075C41.4483 38.0057 41.384 38.0894 41.296 38.1403L38.9293 39.5003C38.8484 39.5476 38.7529 39.5637 38.661 39.5454C38.5691 39.5271 38.487 39.4757 38.4304 39.4011C38.3738 39.3264 38.3464 39.2336 38.3536 39.1401C38.3608 39.0467 38.4019 38.9591 38.4693 38.8939L38.631 38.7406L37.3085 39.5072C37.2502 39.5395 37.1843 39.5556 37.1176 39.554Z" fill="#0077B6"/>
<path d="M23.603 19.6146C23.5266 19.6146 23.4519 19.5918 23.3886 19.549C23.3253 19.5063 23.2761 19.4456 23.2475 19.3747C23.2189 19.3038 23.2122 19.2261 23.2281 19.1513C23.2441 19.0766 23.282 19.0083 23.337 18.9553L24.7645 17.5814L22.0045 19.1753C21.9201 19.2227 21.8208 19.2364 21.7267 19.2136C21.6326 19.1908 21.5506 19.1332 21.4972 19.0524C21.4437 18.9716 21.4229 18.8736 21.4388 18.7781C21.4547 18.6826 21.5062 18.5966 21.5829 18.5374L21.9348 18.2722L21.2448 18.6716C21.1616 18.7196 21.0634 18.7346 20.9696 18.7137C20.8758 18.6927 20.7934 18.6373 20.7385 18.5585C20.6837 18.4796 20.6604 18.383 20.6734 18.2878C20.6863 18.1926 20.7346 18.1058 20.8085 18.0445L23.0403 16.1991L20.4229 17.7102C20.3405 17.7581 20.2432 17.7736 20.15 17.7536C20.0567 17.7336 19.9743 17.6796 19.9188 17.6021C19.8632 17.5246 19.8386 17.4293 19.8495 17.3346C19.8605 17.2399 19.9064 17.1527 19.9782 17.09L22.6907 14.7079L19.9253 16.3049C19.8413 16.3547 19.7414 16.3705 19.6461 16.349C19.5507 16.3276 19.4672 16.2706 19.4125 16.1897C19.3578 16.1088 19.336 16.01 19.3517 15.9136C19.3674 15.8171 19.4193 15.7303 19.4968 15.6709L20.4628 14.9119L19.9261 15.2231C19.8466 15.2687 19.7533 15.2843 19.6633 15.267C19.5733 15.2497 19.4925 15.2008 19.4354 15.129C19.3784 15.0572 19.349 14.9674 19.3525 14.8758C19.356 14.7842 19.3923 14.6969 19.4546 14.6297L20.7334 13.2658C20.6449 13.2805 20.554 13.2636 20.4767 13.2181C20.3994 13.1726 20.3404 13.1015 20.3101 13.017C20.2799 12.9326 20.2802 12.8402 20.311 12.7559C20.3418 12.6716 20.4012 12.6009 20.4789 12.5559L22.5343 11.3691C22.6139 11.323 22.7073 11.3071 22.7976 11.3241C22.888 11.3412 22.9692 11.3901 23.0264 11.4621C23.0837 11.534 23.1132 11.6241 23.1095 11.716C23.1059 11.8079 23.0693 11.8953 23.0066 11.9625L21.7845 13.2658L24.727 11.5646C24.8109 11.5172 24.9096 11.5031 25.0034 11.5252C25.0972 11.5473 25.1792 11.6039 25.2332 11.6838C25.2871 11.7636 25.309 11.8609 25.2945 11.9562C25.28 12.0514 25.2301 12.1377 25.1548 12.1979L24.1926 12.9538L25.6646 12.1043C25.747 12.0565 25.8443 12.041 25.9376 12.061C26.0308 12.081 26.1132 12.135 26.1687 12.2124C26.2243 12.2899 26.249 12.3853 26.238 12.48C26.227 12.5747 26.1811 12.6619 26.1093 12.7246L23.3953 15.1074L26.6291 13.2405C26.7124 13.1923 26.8108 13.1772 26.9047 13.1981C26.9987 13.2191 27.0813 13.2747 27.1362 13.3538C27.191 13.4329 27.2141 13.5298 27.2009 13.6251C27.1876 13.7205 27.1389 13.8073 27.0645 13.8684L24.8297 15.7138L27.053 14.4304C27.1375 14.383 27.2368 14.3693 27.3309 14.3921C27.425 14.4149 27.507 14.4725 27.5604 14.5533C27.6138 14.6341 27.6347 14.7321 27.6188 14.8276C27.6029 14.9232 27.5514 15.0091 27.4747 15.0683L27.122 15.3343C27.204 15.2933 27.2979 15.2829 27.3868 15.3052C27.4758 15.3274 27.5538 15.3808 27.6067 15.4556C27.6596 15.5304 27.684 15.6218 27.6754 15.713C27.6668 15.8043 27.6258 15.8894 27.5598 15.953L26.1323 17.3284L26.5555 17.0846C26.5991 17.0569 26.6479 17.0383 26.6989 17.0299C26.7499 17.0215 26.8021 17.0235 26.8523 17.0358C26.9025 17.0481 26.9497 17.0704 26.9911 17.1014C27.0325 17.1325 27.0671 17.1715 27.093 17.2163C27.1189 17.261 27.1354 17.3106 27.1417 17.3619C27.1479 17.4132 27.1437 17.4653 27.1293 17.5149C27.1149 17.5646 27.0906 17.6108 27.0578 17.6508C27.0251 17.6908 26.9846 17.7238 26.9388 17.7478L23.7955 19.5632C23.737 19.597 23.6706 19.6147 23.603 19.6146Z" fill="#0077B6"/>
<path d="M44.8133 41.9154C44.7627 41.9009 44.7037 41.8946 44.6516 41.8816V14.9371C47.9344 13.9098 44.8593 10.5794 43.727 9.13579C40.8635 3.69245 34.1919 6.54292 29.2216 5.88052C23.8833 -0.935912 23.293 -1.26558 17.9256 5.77242C12.4462 6.29299 5.58762 3.60275 2.74559 9.91242C1.62165 11.3054 -0.469053 14.1819 2.44965 15.0797V41.8149C2.00753 41.8719 1.59707 42.0747 1.28333 42.3914C0.969594 42.7081 0.770538 43.1204 0.717718 43.5631C0.664898 44.0057 0.761335 44.4534 0.991742 44.8349C1.22215 45.2165 1.57335 45.5103 1.98965 45.6698C8.29779 46.0685 14.9064 45.4282 21.2828 45.6698H44.9122C46.8964 45.3562 46.6395 42.3716 44.8133 41.9154ZM35.8433 6.57359C38.2859 6.57359 40.2233 6.07679 41.8663 8.05019C48.5117 14.9862 42.7533 14.9846 36.4513 14.3153C34.5346 11.5553 32.0422 9.12735 29.8426 6.57205L35.8433 6.57359ZM22.478 1.80185C25.3477 0.665652 26.6717 5.04409 28.6183 6.51149C29.6433 8.54469 38.0759 14.6603 35.0077 16.577C32.8273 15.956 30.6285 12.1357 29.2799 10.6047C20.4372 -0.520382 24.3732 6.11129 13.7932 15.1203C13.4697 15.4071 10.9221 18.877 11.2433 14.5553C13.4344 11.921 15.943 9.33282 18.177 6.67555C18.2457 6.66209 18.3072 6.62458 18.3507 6.56976C18.3941 6.51495 18.4165 6.44644 18.4139 6.37655C19.5685 4.88769 21.0505 2.54705 22.478 1.80185ZM3.03002 10.8906C5.44579 4.80642 11.9103 6.99372 17.1129 6.68169C14.9264 9.18025 12.5827 11.5116 10.6614 14.2195C8.06931 14.2701 -0.968925 15.6777 3.03002 10.8906ZM3.14885 15.2085C5.64819 15.197 7.79409 15.0552 10.2213 15.115C9.89474 16.0426 10.0442 16.9366 11.5339 17.2701C13.84 17.8037 21.6899 7.41462 23.5 5.23729C27.2091 8.91729 30.157 14.9417 34.8336 17.2992C36.3332 17.1282 37.1336 15.8901 36.7503 15.0069C39.1454 14.9593 41.2943 15.0651 43.75 15.095V41.7238C39.5548 41.6539 35.6233 42.0763 31.5163 41.9161C31.5837 35.3067 33.4966 22.5654 23.4946 22.6344C13.5057 22.7034 15.4178 35.22 15.4868 41.9161C11.3307 42.0809 7.41919 41.6562 3.15269 41.6962L3.14885 15.2085ZM16.1783 33.9613C15.6033 29.3413 17.7515 23.5797 23.155 23.5613V41.8004C20.8389 41.716 18.4515 41.9407 16.1538 41.8004C16.2604 39.2113 16.1638 36.5602 16.1783 33.9613ZM30.8255 41.8004H23.8488V23.5751C32.6663 24.3924 30.8738 35.3657 30.8255 41.8004ZM6.51605 44.9821C5.42585 44.9821 2.42665 45.4881 1.84705 44.5988C1.01445 43.3237 1.67455 42.8186 2.68272 42.6329C2.74213 42.6753 2.81551 42.6931 2.88771 42.6828C2.9599 42.6726 3.02539 42.635 3.07065 42.5778C7.53035 42.5671 11.2586 42.6346 15.6179 42.6039C20.7546 42.8223 26.2631 42.8232 31.4005 42.6039C35.8748 42.6805 40.4633 42.469 44.8877 42.6039C45.3761 42.958 45.5907 44.6049 44.8018 44.9805L6.51605 44.9821Z" fill="#262626"/>
<path d="M5.76379 38.6471C6.70066 40.2993 9.69143 39.653 11.2072 39.653C14.5483 38.6709 12.6286 34.1729 13.1146 31.5723C12.9613 26.5844 14.9378 20.9594 7.38529 22.6407C3.97363 23.8482 6.07583 28.6973 5.52459 31.4819C5.74846 33.709 4.90896 36.492 5.76379 38.6471ZM11.1888 38.7361C4.81926 39.5963 6.18009 36.6722 6.21076 31.9518H12.6447C12.8195 34.7785 12.808 38.2684 11.1888 38.7338V38.7361ZM6.85706 24.1203C7.98406 23.0922 11.7883 23.0669 12.4223 24.7613C12.8563 26.9516 12.1601 28.659 12.5872 31.1024H6.21076C6.53199 28.8783 5.40653 25.9166 6.85706 24.1203Z" fill="#262626"/>
<path d="M34.0195 38.5958C34.9495 40.2174 37.9663 39.5748 39.4575 39.5748C41.4401 39.2344 41.6042 37.8115 41.562 36.1087C41.2316 31.9886 42.219 27.5144 41.2492 23.5354C39.3463 21.7467 33.3219 21.8993 33.8049 25.6008C33.9758 29.832 33.2168 34.4643 34.0195 38.5958ZM39.5878 38.8158C33.4346 39.7565 34.5784 36.3839 34.662 31.8905H40.9165C41.0943 34.7157 41.1112 38.2983 39.5878 38.8158ZM35.2086 24.0368C36.3433 22.8783 40.1153 23.0991 40.7049 24.8502C41.115 27.0651 40.4542 28.6943 40.8666 31.1637H34.662C34.9694 28.8959 33.9183 25.968 35.2086 24.0368Z" fill="#262626"/>
<path d="M23.437 19.633C24.5798 19.6116 25.6697 19.1476 26.4773 18.3389C27.2849 17.5301 27.7473 16.4396 27.7672 15.2968C27.4743 9.85341 19.2572 10.1547 19.2334 15.5099C19.2462 16.6135 19.6957 17.667 20.4836 18.4398C21.2714 19.2126 22.3335 19.6416 23.437 19.633ZM23.9499 12.0185C28.0945 12.5935 27.5533 19.3187 23.2523 18.8687C18.8156 18.4639 19.3998 11.3116 23.9499 12.0185Z" fill="#262626"/>
</g>
</g>
<defs>
<clipPath id="clip0_17_2856">
<rect width="46" height="46" fill="white" transform="translate(0.5 0.09375)"/>
</clipPath>
</defs>
</svg>
