<svg width="45" height="45" viewBox="0 0 45 45" fill="none" xmlns="http://www.w3.org/2000/svg">
<path d="M19.1582 38.6517V31.6117L11.2605 23.2928C10.3917 22.3776 8.97696 22.3776 8.1081 23.2928L7.91874 23.4922C7.04987 24.4074 7.04987 25.8976 7.91874 26.8128L13.0316 32.1984" stroke="#51CB20" stroke-width="1.5" stroke-miterlimit="10" stroke-linecap="round" stroke-linejoin="round"/>
<path d="M5.79115 21.0517V10.4917C5.79115 9.20102 4.78861 8.14502 3.5633 8.14502C2.33798 8.14502 1.33545 9.20102 1.33545 10.4917V23.7151C1.33545 26.5194 2.39368 29.2063 4.27621 31.201L10.2468 37.4901V38.6634" stroke="#51CB20" stroke-width="1.5" stroke-miterlimit="10" stroke-linecap="round" stroke-linejoin="round"/>
<path d="M25.8418 38.6517V31.6117L33.7395 23.2928C34.6084 22.3776 36.0231 22.3776 36.8919 23.2928L37.0813 23.4922C37.9502 24.4074 37.9502 25.8976 37.0813 26.8128L31.9684 32.1984" stroke="#51CB20" stroke-width="1.5" stroke-miterlimit="10" stroke-linecap="round" stroke-linejoin="round"/>
<path d="M39.2089 21.0517V10.4917C39.2089 9.20102 40.2114 8.14502 41.4367 8.14502C42.662 8.14502 43.6646 9.20102 43.6646 10.4917V23.7151C43.6646 26.5194 42.6063 29.2063 40.7238 31.201L34.7532 37.4901V38.6634" stroke="#51CB20" stroke-width="1.5" stroke-miterlimit="10" stroke-linecap="round" stroke-linejoin="round"/>
<path d="M9.13281 43.345V40.9983H20.2721V43.345" stroke="#51CB20" stroke-width="1.5" stroke-miterlimit="10" stroke-linecap="round" stroke-linejoin="round"/>
<path d="M24.7278 43.345V40.9983H35.867V43.345" stroke="#51CB20" stroke-width="1.5" stroke-miterlimit="10" stroke-linecap="round" stroke-linejoin="round"/>
<path d="M11.3608 10.4917L22.5001 1.10498L33.6393 10.4917" stroke="#51CB20" stroke-width="1.5" stroke-miterlimit="10" stroke-linecap="round" stroke-linejoin="round"/>
<path d="M14.7026 8.14502V19.8783H20.2723V11.665H24.728V19.8783H30.2976V8.14502" stroke="#51CB20" stroke-width="1.5" stroke-miterlimit="10" stroke-linecap="round" stroke-linejoin="round"/>
</svg>
