<svg width="47" height="47" viewBox="0 0 47 47" fill="none" xmlns="http://www.w3.org/2000/svg">
<g clip-path="url(#clip0_17_2919)">
<mask id="mask0_17_2919" style="mask-type:luminance" maskUnits="userSpaceOnUse" x="0" y="0" width="47" height="47">
<path d="M46.5 0.09375H0.5V46.0938H46.5V0.09375Z" fill="white"/>
</mask>
<g mask="url(#mask0_17_2919)">
<path d="M5.87142 45.3177C5.70342 45.3178 5.55559 45.2068 5.50891 45.0454C5.46223 44.884 5.52794 44.7112 5.67007 44.6217L9.93676 41.9303L4.80286 44.8939C4.62575 44.9929 4.40205 44.934 4.29668 44.7606C4.1913 44.5872 4.24204 44.3615 4.41148 44.2499L9.53105 40.9899L4.06686 44.1443C3.89109 44.2429 3.66892 44.1858 3.56241 44.0147C3.45591 43.8437 3.50272 43.6191 3.6687 43.5048L12.0664 37.8657L3.72752 42.6806C3.55199 42.7846 3.32556 42.7302 3.21656 42.5577C3.10756 42.3852 3.15554 42.1573 3.32483 42.0434L10.6238 37.0113L3.72752 40.9922C3.55132 41.0907 3.32875 41.033 3.22266 40.8613C3.11657 40.6895 3.1646 40.4646 3.33161 40.3512L5.62332 38.843L3.72752 39.9402C3.55316 40.0425 3.32914 39.9892 3.21968 39.8192C3.11022 39.6492 3.15427 39.4232 3.31955 39.3068L7.68201 36.1886L3.72752 38.472C3.55551 38.5729 3.33466 38.5224 3.22358 38.3568C3.1125 38.1912 3.1496 37.9677 3.30824 37.8468L6.87889 35.0793L3.72752 36.8989C3.55693 36.9991 3.33797 36.9504 3.22593 36.7873C3.11388 36.6243 3.14685 36.4025 3.30145 36.2791L5.25532 34.6955L3.72752 35.5778C3.55847 35.6744 3.34367 35.6264 3.23183 35.467C3.11998 35.3076 3.14786 35.0893 3.29617 34.9632L3.92132 34.4353L3.72752 34.5469C3.56898 34.6379 3.36798 34.6021 3.25063 34.462C3.13329 34.3218 3.13341 34.1176 3.25093 33.9776L3.74411 33.3962L3.72752 33.406C3.59069 33.4859 3.41851 33.4717 3.29658 33.3705C3.17465 33.2693 3.12899 33.1027 3.1823 32.9535L3.33312 32.5154C3.22327 32.4438 3.15848 32.3203 3.16202 32.1893C3.16556 32.0582 3.23692 31.9384 3.35047 31.8729L3.72752 31.6549C3.86434 31.575 4.03652 31.5892 4.15845 31.6904C4.28038 31.7916 4.32604 31.9582 4.27273 32.1074L4.22371 32.2492L5.25079 31.6572C5.40953 31.5653 5.61141 31.6009 5.72907 31.7416C5.84673 31.8824 5.84602 32.0874 5.72738 32.2273L5.23496 32.808L7.22955 31.6557C7.39868 31.5574 7.6149 31.6048 7.72743 31.7648C7.83994 31.9249 7.81137 32.1444 7.66165 32.2703L7.03499 32.7982L9.01601 31.6549C9.18624 31.5573 9.40289 31.6066 9.51415 31.7683C9.6254 31.9299 9.59405 32.1499 9.44206 32.2741L7.4882 33.8577L11.307 31.6542C11.4786 31.5562 11.6967 31.6074 11.8069 31.7715C11.9171 31.9355 11.8819 32.1568 11.7263 32.2786L8.15255 35.0461L14.0346 31.6527C14.2084 31.5544 14.4287 31.6088 14.537 31.7766C14.6452 31.9444 14.6038 32.1675 14.4425 32.2854L10.077 35.4036L16.5781 31.6512C16.7543 31.5526 16.9769 31.6103 17.083 31.7821C17.1891 31.9539 17.141 32.1787 16.974 32.2922L14.6816 33.8004L18.4023 31.6527C18.5772 31.5539 18.7989 31.6096 18.9063 31.7794C19.0137 31.9492 18.9692 32.1734 18.805 32.2891L11.5098 37.3182L21.3327 31.6482C21.508 31.5534 21.7267 31.6113 21.832 31.7804C21.9374 31.9494 21.8931 32.1713 21.7309 32.2869L13.3302 37.926L24.2066 31.6466C24.3837 31.5476 24.6074 31.6066 24.7128 31.78C24.8182 31.9533 24.7674 32.179 24.598 32.2906L19.4701 35.5566L26.2449 31.6459C26.4218 31.5513 26.6418 31.6119 26.7455 31.7836C26.8491 31.9554 26.8001 32.1782 26.634 32.2906L22.3787 34.9752L28.1483 31.6444C28.3254 31.5454 28.5491 31.6043 28.6544 31.7777C28.7598 31.9511 28.7091 32.1768 28.5396 32.2884L22.7331 35.9835L30.2552 31.6406C30.4314 31.5421 30.654 31.5998 30.7601 31.7715C30.8662 31.9433 30.8181 32.1682 30.6511 32.2816L21.6834 38.19L33.0258 31.6421C33.2025 31.5449 33.4244 31.604 33.5294 31.7762C33.6344 31.9485 33.5853 32.1728 33.4179 32.2854L26.395 36.8062L35.3393 31.6406C35.5169 31.5392 35.743 31.5977 35.8489 31.7726C35.9549 31.9475 35.9021 32.175 35.73 32.2854L30.8283 35.3923L37.3279 31.6391C37.5049 31.5383 37.73 31.5964 37.8362 31.7703C37.9424 31.9441 37.8913 32.1709 37.7208 32.2824L30.0471 37.2526L39.775 31.6376C39.9536 31.5306 40.1852 31.5886 40.2923 31.7673C40.3993 31.946 40.3412 32.1776 40.1626 32.2846L39.1445 32.9158L41.3616 31.6338C41.5391 31.5324 41.7652 31.5909 41.8711 31.7658C41.9771 31.9407 41.9243 32.1682 41.7522 32.2786L36.1613 35.8379L43.4361 31.6384C43.6132 31.5394 43.8369 31.5983 43.9423 31.7717C44.0477 31.9451 43.9969 32.1707 43.8275 32.2824L37.3354 36.4412L44.0266 32.5787C44.2031 32.4783 44.4275 32.5359 44.534 32.7088C44.6405 32.8818 44.5908 33.108 44.4217 33.2205L36.9418 38.1402L44.0266 34.05C44.2022 33.948 44.4269 34.0035 44.535 34.1754C44.6431 34.3472 44.5957 34.5738 44.4277 34.6879L37.1741 39.6431L44.0273 35.6871C44.204 35.5884 44.427 35.6467 44.5327 35.8193C44.6384 35.9918 44.5891 36.217 44.421 36.3296L42.6277 37.4954L44.0273 36.6878C44.2035 36.5892 44.4261 36.647 44.5322 36.8187C44.6383 36.9905 44.5902 37.2153 44.4232 37.3288L42.9075 38.3265L44.0273 37.6809C44.2001 37.5813 44.4205 37.6333 44.5304 37.7998C44.6403 37.9662 44.6016 38.1894 44.4421 38.3091L40.2674 41.4281L44.0273 39.2585C44.1989 39.1637 44.4145 39.2162 44.5233 39.3793C44.6321 39.5424 44.5978 39.7617 44.4443 39.8837L42.0508 41.7199L44.0281 40.5789C44.1977 40.4828 44.4126 40.5317 44.5238 40.6919C44.635 40.852 44.6058 41.0705 44.4564 41.1958L43.056 42.3511L44.0281 41.79C44.1955 41.6934 44.4088 41.7389 44.5221 41.8956C44.6354 42.0522 44.6119 42.2691 44.4677 42.3978L44.0032 42.8118C44.1872 42.7494 44.3885 42.8371 44.4682 43.0144C44.5478 43.1916 44.4797 43.4004 44.3109 43.4965L41.2417 45.2642C41.0759 45.352 40.8708 45.3047 40.7603 45.1531C40.6499 45.0015 40.6676 44.7917 40.802 44.6609L41.2394 44.2703L39.5095 45.2642C39.3399 45.3604 39.125 45.3114 39.0138 45.1512C38.9026 44.9911 38.9318 44.7726 39.0812 44.6473L40.4793 43.495L37.4131 45.2642C37.2414 45.3608 37.0242 45.3089 36.9147 45.1451C36.8052 44.9812 36.8404 44.7607 36.9953 44.639L39.3926 42.8028L35.1274 45.2642C34.9549 45.3616 34.7363 45.3088 34.6272 45.1433C34.5182 44.9778 34.5558 44.7562 34.7134 44.636L38.8836 41.5201L32.3984 45.2642C32.2225 45.3612 32.0014 45.3034 31.8956 45.1326C31.7898 44.9619 31.8365 44.7382 32.0017 44.6239L33.5227 43.6195L30.6707 45.2642C30.4944 45.3612 30.273 45.3028 30.1676 45.1313C30.0622 44.9598 30.1101 44.7358 30.2763 44.6224L32.0613 43.4619L28.937 45.2642C28.762 45.3615 28.5414 45.305 28.4347 45.1355C28.328 44.966 28.3724 44.7427 28.5359 44.6269L35.7873 39.6725L26.1016 45.2642C25.9257 45.3599 25.7056 45.3013 25.6005 45.1308C25.4953 44.9603 25.5419 44.7374 25.7065 44.6232L33.1894 39.7012L23.5528 45.2642C23.3761 45.3614 23.1541 45.3023 23.0491 45.13C22.9442 44.9578 22.9933 44.7335 23.1607 44.6209L29.6527 40.4621L21.3342 45.2642C21.1574 45.36 20.9365 45.3002 20.8322 45.1282C20.7279 44.9562 20.7769 44.7327 20.9436 44.6202L26.5307 41.0661L19.2582 45.2642C19.0808 45.3589 18.8603 45.2978 18.757 45.1252C18.6538 44.9527 18.7041 44.7295 18.8713 44.6179L19.8818 43.9897L17.6738 45.2642C17.4972 45.3629 17.2741 45.3045 17.1684 45.132C17.0627 44.9594 17.112 44.7342 17.2802 44.6217L24.9554 39.6522L15.2306 45.2642C15.0534 45.3616 14.8309 45.3019 14.7262 45.1289C14.6216 44.9558 14.6721 44.7311 14.8407 44.6194L19.7484 41.5118L13.248 45.2642C13.0713 45.3614 12.8494 45.3023 12.7444 45.13C12.6394 44.9578 12.6885 44.7335 12.8559 44.6209L19.8826 40.0963L10.9337 45.2642C10.7578 45.3599 10.5376 45.3013 10.4325 45.1308C10.3274 44.9603 10.3739 44.7374 10.5386 44.6232L19.5033 38.7216L8.16764 45.2642C7.99082 45.36 7.76992 45.3002 7.66562 45.1282C7.56131 44.9562 7.61034 44.7327 7.77702 44.6202L13.5783 40.9251L6.05994 45.2642C6.00292 45.2983 5.93788 45.3168 5.87142 45.3177Z" fill="#0077B6"/>
<path d="M24.8573 37.9419C24.6894 37.9417 24.5419 37.8305 24.4954 37.6692C24.4489 37.5079 24.5147 37.3353 24.6567 37.2458L27.9491 35.1841L23.2593 37.8913C23.0827 37.99 22.8596 37.9317 22.7539 37.7592C22.6482 37.5866 22.6975 37.3614 22.8657 37.2488L33.3258 30.462L20.9314 37.6183C20.7532 37.726 20.5214 37.6688 20.4138 37.4905C20.3061 37.3123 20.3633 37.0805 20.5416 36.9728L29.3291 31.4272L19.418 37.1493C19.2391 37.2559 19.0077 37.1973 18.901 37.0185C18.7944 36.8396 18.853 36.6081 19.0319 36.5015L22.5286 34.3501L18.2876 36.7986C18.1105 36.8976 17.8868 36.8387 17.7814 36.6653C17.676 36.4919 17.7268 36.2663 17.8962 36.1546L31.7196 27.3015L16.3262 36.1886C16.1484 36.285 15.9263 36.224 15.8227 36.0503C15.719 35.8767 15.7708 35.6522 15.9401 35.5416L22.7986 31.3186L15.048 35.7919C14.8691 35.8987 14.6375 35.8403 14.5307 35.6615C14.4238 35.4826 14.4822 35.251 14.6611 35.1442L23.1983 29.873L13.6785 35.3666C13.5009 35.4645 13.2776 35.4042 13.1733 35.2303C13.0689 35.0563 13.1209 34.831 13.2909 34.7203L22.2179 29.2019L12.2857 34.933C12.1088 35.0276 11.8888 34.967 11.7852 34.7953C11.6815 34.6235 11.7305 34.4007 11.8966 34.2882L24.113 26.6017L10.595 34.4089C10.4179 34.5079 10.1942 34.449 10.0888 34.2756C9.98347 34.1022 10.0342 33.8765 10.2036 33.7649L23.9282 24.9887L8.65624 33.8071C8.47896 33.9032 8.25751 33.8427 8.15357 33.67C8.04963 33.4972 8.09999 33.2733 8.26788 33.1616L17.7446 27.2291L7.15785 33.3419C6.97918 33.4489 6.74757 33.3908 6.64054 33.2122C6.5335 33.0335 6.59157 32.8019 6.77024 32.6948L12.895 28.9002L5.8887 32.9475C5.71197 33.0447 5.49004 32.9856 5.38506 32.8133C5.28007 32.6411 5.32921 32.4168 5.49657 32.3042L17.0147 24.9337L4.09923 32.3917C3.92258 32.4904 3.69952 32.4321 3.59381 32.2595C3.4881 32.087 3.53743 31.8618 3.70559 31.7492L15.7561 23.933L2.70414 31.4679C2.52647 31.5658 2.30322 31.5055 2.19889 31.3316C2.09456 31.1576 2.14655 30.9323 2.31654 30.8217L6.92559 27.9508L2.3188 30.6113C2.14181 30.7142 1.91503 30.6571 1.80792 30.4826C1.70081 30.3081 1.75252 30.08 1.92441 29.9688L11.4419 23.7806L2.21926 29.1053C2.0408 29.2128 1.80902 29.1552 1.70157 28.9768C1.59412 28.7983 1.65168 28.5665 1.83014 28.4591L4.0668 27.058L2.21926 28.1243C2.04215 28.2232 1.81845 28.1643 1.71308 27.9909C1.6077 27.8176 1.65844 27.5919 1.82788 27.4803L5.67378 25.0234L2.21926 27.015C2.04314 27.1151 1.81934 27.0582 1.71249 26.8861C1.60563 26.7139 1.65393 26.4881 1.82185 26.3747L7.29585 22.746L2.21926 25.678C2.04358 25.7781 1.8202 25.7218 1.71294 25.5504C1.60567 25.379 1.65273 25.1535 1.81959 25.0392L6.44372 21.9067L2.21926 24.3455C2.04297 24.4425 1.82151 24.3841 1.71613 24.2126C1.61076 24.0411 1.65862 23.8172 1.82486 23.7037L2.11444 23.5152C1.94193 23.5545 1.76528 23.4686 1.68973 23.3086C1.61417 23.1486 1.66002 22.9576 1.79998 22.8493L6.20768 19.4333L2.21926 21.7363C2.05002 21.8364 1.83226 21.7896 1.71903 21.6289C1.60581 21.4681 1.63514 21.2473 1.78641 21.1217L4.58939 18.744L2.2185 20.1135C2.04803 20.2116 1.83075 20.1622 1.71947 20C1.60818 19.8378 1.64028 19.6173 1.79319 19.4936L2.33162 19.0577L2.2185 19.1233C2.06108 19.2139 1.86142 19.1794 1.74354 19.0412C1.62567 18.903 1.62308 18.7004 1.73739 18.5593L2.50732 17.6076C2.33887 17.6023 2.19437 17.4859 2.15337 17.3225C2.11237 17.159 2.18483 16.9882 2.33086 16.904L3.78854 16.0617C3.94601 15.9701 4.14642 16.0043 4.26473 16.1427C4.38304 16.2812 4.38543 16.4845 4.27041 16.6258L3.60001 17.4553L6.11568 16.0051C6.28582 15.9093 6.50099 15.9592 6.61156 16.1201C6.72214 16.2811 6.69152 16.4998 6.541 16.6242L6.00483 17.0609L7.82975 16.0051C7.99868 15.9073 8.21437 15.9546 8.32688 16.1141C8.43939 16.2737 8.4115 16.4927 8.2626 16.619L5.46037 18.9944L10.6418 16.0051C10.8134 15.9072 11.0315 15.9584 11.1417 16.1224C11.2519 16.2865 11.2167 16.5077 11.0611 16.6295L6.6526 20.0456L13.6506 16.0051C13.8276 15.9022 14.0544 15.9593 14.1615 16.1338C14.2686 16.3083 14.2169 16.5364 14.045 16.6476L14.0164 16.6665L15.1611 16.0051C15.3371 15.9009 15.5641 15.9559 15.6727 16.1292C15.7814 16.3026 15.732 16.5309 15.5615 16.6439L10.9336 19.7756L17.4694 16.0051C17.6455 15.905 17.8693 15.9619 17.9761 16.134C18.083 16.3062 18.0347 16.532 17.8668 16.6454L12.3958 20.2726L19.786 16.0051C19.9631 15.9061 20.1868 15.965 20.2921 16.1384C20.3975 16.3118 20.3468 16.5375 20.1773 16.6491L16.336 19.1037L21.7067 16.0051C21.8848 15.9024 22.1123 15.9613 22.2182 16.1376C22.3241 16.3138 22.2693 16.5423 22.095 16.6514L19.8553 18.0548L23.4056 16.0051C23.5823 15.9064 23.8053 15.9648 23.9111 16.1373C24.0168 16.3099 23.9674 16.5351 23.7993 16.6476L14.2856 22.8312L26.1129 16.0051C26.2905 15.9073 26.5138 15.9675 26.6181 16.1415C26.7224 16.3154 26.6705 16.5407 26.5005 16.6514L21.8809 19.5268L27.9838 16.0051C28.1608 15.9022 28.3875 15.9593 28.4947 16.1338C28.6018 16.3083 28.5501 16.5364 28.3782 16.6476L16.3254 24.4623L30.979 16.0051C31.1566 15.9011 31.3847 15.9586 31.4917 16.1343C31.5987 16.3101 31.5451 16.5392 31.3712 16.6491L19.8531 24.0152L33.7308 16.0051C33.9094 15.8981 34.141 15.9562 34.2481 16.1348C34.3551 16.3135 34.297 16.5451 34.1184 16.6522L28.0056 20.437L35.6816 16.0051C35.8601 15.8977 36.0918 15.9552 36.1993 16.1337C36.3067 16.3122 36.2492 16.5439 36.0707 16.6514L26.5917 22.5816L37.9869 16.0051C38.1021 15.9352 38.2458 15.9321 38.3639 15.9969C38.4821 16.0616 38.5566 16.1845 38.5596 16.3192C38.5626 16.4539 38.4934 16.58 38.3783 16.6499L24.6476 25.4253L40.9686 16.0051C41.1471 15.8975 41.379 15.9549 41.4867 16.1333C41.5943 16.3118 41.5369 16.5437 41.3585 16.6514L29.1466 24.3296L43.4978 16.0436C43.6756 15.9472 43.8977 16.0082 44.0013 16.1818C44.105 16.3555 44.0532 16.5799 43.8839 16.6906L34.9486 22.2159L44.7398 16.5602C44.8555 16.491 44.9993 16.4889 45.117 16.5546C45.2347 16.6202 45.3085 16.7437 45.3105 16.8785C45.3125 17.0132 45.2424 17.1388 45.1267 17.2079L36.5873 22.4866L45.3688 17.4161C45.5476 17.3092 45.7792 17.3676 45.8861 17.5465C45.9929 17.7254 45.9345 17.957 45.7556 18.0638L38.8933 22.2921L45.5384 18.4552C45.7155 18.3562 45.9392 18.4151 46.0446 18.5885C46.15 18.7619 46.0992 18.9876 45.9298 19.0992L32.1094 27.9485L45.5324 20.1964C45.7106 20.0979 45.9348 20.1586 46.0389 20.3336C46.143 20.5086 46.0893 20.7346 45.9177 20.8442L42.4119 23.0009L45.5324 21.2001C45.71 21.1006 45.9345 21.16 46.0396 21.3344C46.1447 21.5087 46.0924 21.735 45.9215 21.8456L37.134 27.392L45.5354 22.5417C45.713 22.433 45.9452 22.4888 46.0539 22.6665C46.1626 22.8441 46.1067 23.0762 45.929 23.1849L35.4637 29.9718L45.5354 24.1577C45.7135 24.055 45.941 24.1139 46.0469 24.2901C46.1528 24.4663 46.098 24.6949 45.9238 24.804L42.6374 26.8642L45.5354 25.1916C45.7115 25.0914 45.9353 25.1483 46.0422 25.3204C46.149 25.4926 46.1007 25.7184 45.9328 25.8318L38.9446 30.4891L45.5354 26.6839C45.7098 26.5874 45.9291 26.6432 46.0361 26.8113C46.1431 26.9794 46.1009 27.2018 45.9396 27.3189L41.5591 30.3835L45.5354 28.0881C45.7071 27.9914 45.9243 28.0433 46.0338 28.2071C46.1433 28.371 46.1082 28.5915 45.9532 28.7132L43.7919 30.3722L45.5354 29.3662C45.6973 29.2725 45.9034 29.3116 46.0197 29.4582C46.136 29.6047 46.1272 29.8143 45.9992 29.9507L45.2556 30.7432C45.4256 30.7449 45.5734 30.8601 45.6166 31.0245C45.6597 31.1889 45.5876 31.3618 45.4404 31.4468L43.5551 32.5357C43.3935 32.6283 43.1884 32.589 43.0725 32.4431C42.9566 32.2972 42.9646 32.0886 43.0914 31.9521L43.7105 31.2915L39.2236 33.8818C39.0513 33.9836 38.8295 33.9332 38.7183 33.7668C38.6071 33.6005 38.6452 33.3762 38.8051 33.2559L40.9656 31.5969L34.42 35.3764C34.2449 35.4804 34.0189 35.4265 33.9095 35.2548C33.8001 35.083 33.8468 34.8554 34.0151 34.7407L38.3941 31.6783L29.1556 37.0136C28.9795 37.1137 28.7557 37.0568 28.6489 36.8847C28.542 36.7125 28.5903 36.4867 28.7582 36.3733L35.7487 31.7153L25.0503 37.8913C24.9918 37.9254 24.925 37.9429 24.8573 37.9419Z" fill="#0077B6"/>
<path d="M24.1242 41.5472C23.9814 41.5472 23.8508 41.4665 23.787 41.3388C23.7231 41.2111 23.7369 41.0582 23.8226 40.944L24.6664 39.8422L22.4086 41.1453C22.2383 41.2448 22.02 41.1962 21.908 41.0337C21.7961 40.8713 21.8282 40.65 21.9818 40.5262L22.2473 40.3098L21.9509 40.4809C21.7811 40.5807 21.5631 40.533 21.4505 40.3714C21.338 40.2098 21.3687 39.9888 21.5211 39.8641L22.4441 39.0957L21.825 39.4524C21.6631 39.545 21.4579 39.5054 21.3421 39.3593C21.2263 39.2131 21.2348 39.0043 21.3619 38.8679L23.1718 36.9382L21.8212 37.7179C21.6698 37.8049 21.4786 37.7766 21.3589 37.6495C21.2393 37.5225 21.2224 37.3299 21.3182 37.184L21.9215 36.2731C21.7413 36.3044 21.5646 36.2019 21.5023 36.0299C21.4401 35.8579 21.5103 35.666 21.6689 35.5748L22.8958 34.8659C23.0472 34.7782 23.239 34.8062 23.3591 34.9334C23.4791 35.0607 23.4959 35.2538 23.3995 35.3998L22.8272 36.2686L25.014 35.0085C25.1759 34.9158 25.3811 34.9554 25.4969 35.1015C25.6127 35.2477 25.6042 35.4565 25.4771 35.5929L23.6672 37.5219L25.9031 36.2308C26.0725 36.1351 26.2869 36.1839 26.3981 36.3436C26.5093 36.5032 26.4808 36.7213 26.3322 36.8469L25.4092 37.6146L25.9333 37.313C26.1036 37.2135 26.3219 37.2621 26.4339 37.4245C26.5459 37.587 26.5137 37.8083 26.3601 37.9321L26.0276 38.2028C26.1831 38.1631 26.3468 38.2263 26.4353 38.3602C26.5239 38.4941 26.5179 38.6695 26.4204 38.797L25.5774 39.8988L25.8262 39.7555C25.9431 39.6812 26.0913 39.677 26.2122 39.7445C26.3332 39.812 26.4074 39.9403 26.4055 40.0788C26.4036 40.2173 26.326 40.3436 26.2033 40.4078L24.318 41.4967C24.2592 41.531 24.1922 41.5484 24.1242 41.5472Z" fill="#51CB20"/>
<path d="M22.0617 24.2188C21.8982 24.219 21.7531 24.1138 21.7026 23.9583C21.652 23.8027 21.7075 23.6322 21.84 23.5364L25.4725 20.9128L20.3175 23.8892C20.1418 23.9895 19.9185 23.9331 19.8112 23.7617C19.7039 23.5903 19.751 23.3647 19.9178 23.2505L23.8241 20.6112L20.3175 22.636C20.1415 22.7435 19.9119 22.6896 19.802 22.5152C19.6921 22.3407 19.7427 22.1104 19.9156 21.9981L25.3089 18.2878L20.0868 21.3043C19.9101 21.403 19.6871 21.3446 19.5813 21.1721C19.4756 20.9995 19.525 20.7743 19.6931 20.6618L20.9977 19.8164L19.6773 20.5788C19.5018 20.6828 19.2753 20.6284 19.1663 20.4559C19.0573 20.2833 19.1053 20.0554 19.2746 19.9415L25.6535 15.5436L18.7037 19.5494C18.5887 19.6196 18.445 19.6231 18.3267 19.5585C18.2084 19.494 18.1335 19.3713 18.1302 19.2365C18.127 19.1018 18.1958 18.9757 18.3109 18.9055L20.3635 17.5888L17.9949 18.9515C17.88 19.0217 17.7363 19.0254 17.6179 18.9611C17.4996 18.8967 17.4246 18.7742 17.4211 18.6395C17.4177 18.5047 17.4863 18.3785 17.6013 18.3081L20.7851 16.2449L17.225 18.3015C17.0474 18.4055 16.8193 18.3479 16.7123 18.1723C16.6053 17.9965 16.6589 17.7673 16.8328 17.6574L18.8546 16.3648L16.6353 17.6469C16.4572 17.755 16.2253 17.6982 16.1172 17.5201C16.0091 17.3421 16.0658 17.1101 16.2439 17.0021L18.4232 15.6093L16.1096 16.9471C15.9338 17.0441 15.7127 16.9863 15.6069 16.8155C15.5011 16.6447 15.5478 16.4211 15.713 16.3069L20.1622 13.4103L15.5335 16.0806C15.3553 16.1884 15.1233 16.1314 15.0155 15.9531C14.9076 15.7748 14.9646 15.5429 15.1429 15.4351L16.1496 14.7986L15.2025 15.3462C15.0261 15.4569 14.7933 15.4038 14.6825 15.2274C14.5717 15.051 14.6249 14.8181 14.8013 14.7073L22.4026 9.51541L14.6769 13.9752C14.5003 14.0756 14.2759 14.0181 14.1694 13.845C14.063 13.6721 14.1126 13.4459 14.2817 13.3335L18.3538 10.6737L14.4717 12.9134C14.296 13.012 14.0738 12.9548 13.9673 12.7837C13.8608 12.6127 13.9076 12.3881 14.0736 12.2739L17.8441 9.80423L14.3051 11.847C14.1281 11.95 13.9013 11.8929 13.7942 11.7184C13.6871 11.544 13.7388 11.3159 13.9107 11.2045L16.3751 9.59836L14.3074 10.7921C14.1297 10.9008 13.8976 10.8449 13.7889 10.6672C13.6802 10.4896 13.7361 10.2576 13.9137 10.1489L14.6294 9.68584L14.4627 9.78236C14.2867 9.88663 14.0597 9.83156 13.951 9.65825C13.8424 9.48494 13.8917 9.25661 14.0623 9.14364L17.2129 7.00427L14.7523 8.42272C14.5789 8.52289 14.3575 8.47006 14.248 8.30242C14.1385 8.13478 14.1791 7.91079 14.3405 7.7923L18.0356 5.08132L15.6225 6.47564C15.453 6.57309 15.2372 6.52484 15.1253 6.36451C15.0135 6.20419 15.0427 5.98496 15.1927 5.85955L17.4112 4.01502C17.2576 3.98394 17.1392 3.86103 17.1139 3.70633C17.0886 3.55163 17.1616 3.39741 17.2974 3.31899L20.4118 1.52122C20.5814 1.42198 20.7987 1.4696 20.9113 1.63065C21.0238 1.79169 20.9938 2.01217 20.8424 2.13732L19.0506 3.62591L23.6416 0.976759C23.815 0.876597 24.0364 0.929421 24.1459 1.09706C24.2554 1.26471 24.2147 1.4887 24.0533 1.60718L20.3582 4.32194L25.7742 1.19017C25.9502 1.0859 26.1772 1.14097 26.2858 1.31428C26.3945 1.48759 26.3451 1.71592 26.1746 1.82889L23.027 3.96676L27.1444 1.58909C27.3214 1.48831 27.5465 1.54638 27.6527 1.72023C27.7589 1.89408 27.7077 2.12084 27.5373 2.23233L26.8148 2.69987L28.0636 1.97896C28.2406 1.87603 28.4674 1.93316 28.5745 2.10765C28.6816 2.28213 28.6299 2.51021 28.458 2.62145L25.9966 4.22617L28.9602 2.51437C29.1377 2.40504 29.3701 2.46024 29.4794 2.63766C29.5888 2.81508 29.5336 3.04753 29.3561 3.15686L25.5856 5.62653L29.884 3.14705C30.0603 3.04997 30.2818 3.10845 30.3871 3.27991C30.4925 3.45137 30.4446 3.67537 30.2784 3.78879L26.2063 6.45076L30.6502 3.88682C30.8258 3.78491 31.0505 3.84034 31.1586 4.01222C31.2667 4.18409 31.2193 4.41068 31.0514 4.52479L23.4478 9.7145L31.592 5.01118C31.7696 4.90972 31.9956 4.96828 32.1016 5.14317C32.2076 5.31807 32.1548 5.54555 31.9827 5.65594L30.9812 6.29089L32.0596 5.668C32.2366 5.56508 32.4634 5.62221 32.5705 5.79669C32.6776 5.97118 32.6259 6.19926 32.454 6.3105L28.0048 9.20699L32.5294 6.59554C32.7065 6.49655 32.9302 6.55546 33.0356 6.72885C33.1409 6.90224 33.0902 7.12793 32.9208 7.23954L30.7339 8.63764L32.8959 7.38961C33.0734 7.28558 33.3016 7.34308 33.4086 7.51882C33.5156 7.69457 33.4619 7.92365 33.288 8.03361L31.2738 9.32161L33.1221 8.25305C33.2985 8.15732 33.5189 8.21652 33.6236 8.38773C33.7283 8.55894 33.6806 8.78216 33.515 8.89554L30.3282 10.9618L33.3551 9.21377C33.5322 9.113 33.7572 9.17107 33.8634 9.34492C33.9696 9.51877 33.9185 9.74553 33.748 9.85702L31.6954 11.179L33.4381 10.1722C33.6136 10.0682 33.84 10.1227 33.949 10.2951C34.058 10.4676 34.0101 10.6955 33.8408 10.8095L27.4611 15.2073L33.374 11.7935C33.551 11.6927 33.7761 11.7508 33.8823 11.9247C33.9885 12.0985 33.9374 12.3253 33.7669 12.4368L32.4645 13.2807L33.1945 12.859C33.37 12.755 33.5965 12.8096 33.7055 12.982C33.8145 13.1545 33.7665 13.3825 33.5972 13.4963L28.2046 17.2057L32.6078 14.6636C32.7835 14.5635 33.0069 14.6199 33.1141 14.7913C33.2214 14.9627 33.1743 15.1882 33.0075 15.3024L29.1013 17.9463L31.4993 16.5609C31.673 16.4612 31.8944 16.5148 32.0034 16.6829C32.1123 16.851 32.0708 17.0751 31.9088 17.1929L28.1616 19.9002C28.3279 19.8587 28.5011 19.9345 28.5835 20.0847C28.6659 20.2348 28.6366 20.4218 28.5123 20.5396L27.072 21.9007L27.4716 21.6707C27.6076 21.5924 27.7779 21.6066 27.8992 21.7062C28.0204 21.8057 28.0673 21.9701 28.0169 22.1187L27.682 23.0989C27.8446 23.1155 27.978 23.2351 28.0124 23.3948C28.0468 23.5546 27.9743 23.7183 27.8329 23.8002L27.2296 24.1502C27.0936 24.2285 26.9233 24.2145 26.8021 24.1147C26.6808 24.0152 26.6339 23.8508 26.6844 23.7022L26.986 22.8244L24.6754 24.1577C24.5089 24.259 24.2927 24.2167 24.1766 24.0602C24.0606 23.9035 24.083 23.6843 24.2283 23.5544L25.6678 22.1971L22.2571 24.166C22.1982 24.2015 22.1305 24.2198 22.0617 24.2188Z" fill="#51CB20"/>
<path d="M24.1462 32.4543C23.9964 32.4544 23.8607 32.3659 23.8005 32.2287C23.7403 32.0915 23.7671 31.9317 23.8687 31.8216L24.9168 30.6844L22.595 32.0245C22.427 32.1221 22.2123 32.076 22.0991 31.9181C21.9859 31.7602 22.0112 31.5422 22.1576 31.4144L23.0753 30.6098L21.7821 31.3556C21.6209 31.4471 21.4172 31.408 21.3015 31.2633C21.1857 31.1186 21.1922 30.9113 21.3168 30.7742L22.0762 29.956L21.2414 30.4371C21.1177 30.5083 20.9644 30.5036 20.8453 30.4249C20.7262 30.3462 20.6618 30.207 20.6788 30.0653L20.8108 28.9862C20.6559 28.9564 20.5359 28.8334 20.51 28.6778C20.4841 28.5222 20.5578 28.367 20.6947 28.2886L21.0717 28.07C21.1955 27.999 21.3487 28.004 21.4676 28.0828C21.5865 28.1617 21.6507 28.3009 21.6335 28.4425L21.5159 29.4062L23.8483 28.0594C24.0096 27.9668 24.2144 28.0057 24.3305 28.151C24.4466 28.2963 24.4394 28.5046 24.3136 28.6416L23.5542 29.4635L26.0035 28.0481C26.1715 27.9505 26.3862 27.9965 26.4994 28.1544C26.6126 28.3123 26.5873 28.5304 26.4409 28.6582L25.5247 29.4628L26.6829 28.7947C26.8441 28.7031 27.0478 28.7423 27.1635 28.8869C27.2793 29.0316 27.2728 29.2389 27.1482 29.3761L26.0985 30.5147L26.1483 30.4868C26.3273 30.3932 26.5484 30.4573 26.6495 30.6322C26.7506 30.8072 26.6959 31.0307 26.5253 31.1391L24.3339 32.4038C24.277 32.4371 24.2121 32.4546 24.1462 32.4543Z" fill="#D7DCE4"/>
<path d="M21.157 29.4818C20.9966 29.4822 20.8534 29.3811 20.8002 29.2297C20.7471 29.0783 20.7955 28.9099 20.921 28.8099L21.6864 28.1998L20.1563 29.0821C19.996 29.1748 19.7922 29.1374 19.6752 28.9939C19.5582 28.8501 19.563 28.6426 19.6865 28.5045L21.1442 26.8794L19.5983 27.7692C19.438 27.8608 19.235 27.8228 19.1186 27.6795C19.0022 27.5362 19.0067 27.3297 19.1292 27.1916L20.51 25.6509C20.4868 25.4974 20.5602 25.3453 20.6948 25.2679L21.0718 25.0492C21.2323 24.9566 21.4363 24.9944 21.553 25.1383C21.6698 25.2822 21.6646 25.4896 21.5408 25.6276L21.2648 25.9352L22.8108 25.0431C22.9713 24.9506 23.1753 24.9883 23.292 25.1323C23.4087 25.2762 23.4035 25.4836 23.2798 25.6215L21.8259 27.2481L25.6612 25.0333C25.8322 24.934 26.0508 24.9835 26.1622 25.1469C26.2736 25.3102 26.2399 25.5318 26.085 25.6547L25.3174 26.267L26.6913 25.4737C26.8606 25.3736 27.0783 25.4204 27.1916 25.5811C27.3048 25.7419 27.2755 25.9627 27.1242 26.0883L26.4259 26.6788L27.5012 26.0589C27.6606 25.9681 27.8621 26.0051 27.9787 26.1466C28.0954 26.288 28.0934 26.4929 27.9741 26.632L27.0887 27.6508L28.1264 27.0521C28.2841 26.9616 28.4839 26.9966 28.6015 27.1353C28.7191 27.274 28.721 27.4768 28.606 27.6176L28.2599 28.0377C28.3962 28.0887 28.491 28.2136 28.5034 28.3587C28.5158 28.5037 28.4436 28.6429 28.3179 28.7164L27.0827 29.429C26.925 29.5194 26.7252 29.4844 26.6076 29.3458C26.49 29.2071 26.4881 29.0042 26.6031 28.8634L26.7004 28.745L25.5134 29.4282C25.3541 29.519 25.1526 29.482 25.0359 29.3406C24.9193 29.1991 24.9212 28.9943 25.0406 28.8551L25.9267 27.8356L23.1667 29.4282C22.9978 29.5244 22.7835 29.4766 22.6717 29.3177C22.5598 29.1588 22.5871 28.9409 22.7346 28.8144L23.4321 28.2239L21.3448 29.4305C21.2879 29.464 21.2231 29.4817 21.157 29.4818Z" fill="#BAC0CC"/>
<path d="M25.6792 26.4653C25.5346 26.4655 25.4025 26.383 25.3394 26.2529C25.2763 26.1228 25.2931 25.968 25.3828 25.8545L26.4446 24.5092L23.1446 26.4118C22.9897 26.5006 22.7937 26.4686 22.6752 26.335C22.5566 26.2015 22.5479 26.0031 22.6545 25.8598L23.7781 24.3629L20.2512 26.399C20.0882 26.4931 19.8807 26.4524 19.7652 26.3038C19.6496 26.1552 19.6614 25.9441 19.7928 25.8093L20.773 24.8041L19.1027 25.7678C18.9586 25.8522 18.7764 25.8318 18.6545 25.7178C18.5326 25.6038 18.5002 25.4232 18.5749 25.2739L19.1705 24.0779L19.0288 24.1593C18.8486 24.2617 18.6195 24.1996 18.5159 24.0201C18.4122 23.8406 18.4729 23.6111 18.6517 23.5063L19.8786 22.7974C20.0229 22.7122 20.2062 22.7325 20.3284 22.8472C20.4506 22.9618 20.4825 23.1434 20.4066 23.2928L19.8109 24.4888L22.7571 22.7921C22.9201 22.698 23.1275 22.7387 23.2431 22.8873C23.3587 23.0359 23.347 23.247 23.2155 23.3818L22.2352 24.387L24.9989 22.7921C25.1542 22.7018 25.3517 22.7336 25.4707 22.8681C25.5898 23.0026 25.5975 23.2024 25.4891 23.3456L24.3655 24.8418L27.7695 22.8766C27.926 22.7863 28.1245 22.8197 28.2429 22.9563C28.3612 23.0928 28.3661 23.2941 28.2545 23.4361L27.195 24.7784L28.8284 23.8358C28.9811 23.7473 29.1747 23.7765 29.2944 23.9062C29.4142 24.0359 29.4279 24.2313 29.3275 24.3765L28.8984 24.9956C29.0716 24.9895 29.2264 25.1022 29.2741 25.2687C29.3217 25.4352 29.2498 25.6128 29.0997 25.6992L27.8826 26.402C27.7299 26.4905 27.5363 26.4613 27.4166 26.3316C27.2968 26.2019 27.2831 26.0065 27.3835 25.8613L27.7529 25.3282L25.8678 26.4141C25.8107 26.4478 25.7455 26.4655 25.6792 26.4653Z" fill="#D7DCE4"/>
<path d="M2.96583 32.0909V38.8303C2.96583 40.4229 2.43117 43.287 3.71389 44.5614C5.58632 46.4263 11.4223 45.3246 13.6544 45.3246H32.7248C35.6055 45.3246 40.1602 46.2431 42.9474 45.1195C45.0106 44.29 44.7881 42.2252 44.7881 40.38V31.9107C44.7881 31.8948 44.7791 31.8858 44.7776 31.8715C45.7689 31.0956 46.3321 29.8946 46.2948 28.6364C46.4019 25.9035 46.2948 23.1465 46.2948 20.4107C46.2948 18.7894 46.5414 16.9924 44.7429 16.1779C43.1939 15.4766 40.7273 15.96 39.1158 15.96H38.7636C38.8028 14.678 39.0472 12.9489 38.3722 11.8803C37.4568 10.4309 35.6824 10.6247 34.1757 10.6542C34.1757 10.259 34.1591 9.86079 34.1259 9.45735C32.7037 2.17276 24.395 -1.64072 18.0817 2.61089C15.401 4.42286 13.7226 7.38482 13.5458 10.6157C12.0685 10.581 10.4593 10.5109 9.49933 11.8336C8.74524 12.8735 8.92773 14.4978 8.98504 15.8107C7.29297 15.738 5.59839 15.8735 3.93937 16.2141C-0.0679126 17.1522 1.46215 23.8019 1.46215 26.8356C1.46215 28.8709 1.02779 30.9288 2.96583 32.0909ZM41.2129 44.5969C39.1723 44.9453 36.8007 44.5969 34.7315 44.5969H24.4516C18.8185 44.5969 12.8226 45.1896 7.21743 44.5969C4.56074 44.3164 4.06681 42.5133 4.06681 40.0791V32.5954C5.14743 32.9785 6.38717 33.1987 7.40219 33.5162L21.0581 37.7572C21.0498 38.218 21.0664 38.6885 21.0664 39.1334C21.0664 39.9946 21.1147 40.8121 21.9759 41.2819C22.7611 41.5555 23.6001 41.6385 24.4237 41.5239C24.4365 41.5239 24.4516 41.5179 24.4644 41.5171C24.4971 41.5191 24.5298 41.5191 24.5624 41.5171C26.7606 41.2954 26.7297 39.4675 26.6958 37.7565L39.3563 33.8246C40.8265 33.463 42.2758 33.0212 43.6977 32.5011C43.8319 36.0688 45.1953 43.9174 41.2129 44.5969ZM22.6704 35.6684C23.2091 35.4364 23.8057 35.374 24.3807 35.4896C25.361 35.6352 25.5797 36.3365 25.5873 37.1607C25.5986 38.0226 26.002 40.6997 24.7178 40.8618C23.4788 40.8618 22.2006 40.8731 22.1591 39.2782C22.1478 38.8612 22.0717 38.1689 22.0769 37.4933C22.1177 37.4548 22.1184 37.4224 22.0769 37.4005C22.095 36.6532 22.2179 35.9444 22.6704 35.6684ZM37.548 12.7498C37.762 13.8063 37.8007 14.8909 37.6626 15.96H32.8982C33.6801 14.5568 34.114 12.9866 34.1636 11.3811C35.4969 11.3298 37.0737 11.2801 37.548 12.7498ZM15.3768 7.25765C19.1608 -1.66259 31.3425 1.07404 33.034 9.74994C33.3557 12.2522 32.7017 14.7823 31.2076 16.8151C30.3094 17.9945 29.0802 18.5171 28.1753 19.6C27.7137 20.0914 27.3835 20.6914 27.2154 21.3443C27.1176 21.7844 27.0781 22.2354 27.0977 22.6858C27.6919 22.6858 27.7699 22.6858 27.3315 22.6858C27.1836 22.7526 27.0273 22.7991 26.867 22.8238C25.8022 22.7748 24.7102 22.7371 23.6138 22.7325C23.3069 22.7062 23.0248 22.6858 22.8114 22.6858C22.5686 22.6858 22.1192 22.7439 21.6735 22.7748L21.6222 22.7785C21.2537 22.8328 20.8777 22.8011 20.5235 22.6858C20.0492 22.4234 20.9488 22.9331 20.6562 22.0493C19.7566 19.3346 18.3939 19.1129 16.6361 16.7948C14.5492 14.0663 14.0696 10.4343 15.3768 7.25765ZM22.1757 29.4357H22.2511H26.3233C26.1362 30.916 24.9659 32.2357 23.3152 31.698C22.3187 31.355 21.6006 30.4799 21.4586 29.4357H22.1757ZM27.1709 28.8249C27.1155 28.8192 27.0596 28.8192 27.0042 28.8249H21.1931C20.2 28.5723 19.3592 27.6078 20.3154 26.7134C20.4604 26.59 20.6285 26.4967 20.81 26.4389C22.5822 26.5619 24.4463 26.4171 26.2343 26.3635H26.281C26.7011 26.411 26.781 26.2557 27.2719 26.5973C27.9446 27.0656 28.1565 28.4901 27.1709 28.8249ZM27.796 25.8794H27.1927C27.1339 25.8726 27.0751 25.8628 27.0163 25.8583C25.1947 25.7226 23.3659 25.7133 21.543 25.8304C19.8508 25.6977 18.0237 25.2369 19.4972 23.682C19.588 23.5917 19.6929 23.5168 19.8078 23.4603C19.8881 23.4871 19.9721 23.5011 20.0567 23.5017H27.5977C27.6736 23.4976 27.7483 23.4808 27.8186 23.452C27.889 23.489 27.9568 23.5309 28.0215 23.5771C28.71 24.062 28.9588 25.6373 27.7983 25.8771L27.796 25.8794ZM10.1207 12.9662C10.3613 11.2431 12.147 11.3713 13.5322 11.4211C13.5398 11.6752 13.5549 11.9301 13.5828 12.185C13.7311 13.553 14.1565 14.8764 14.8331 16.0746C13.309 16.0264 11.7013 15.9065 10.0936 15.8401C10.0256 14.883 10.0346 13.9219 10.1207 12.9662ZM4.06455 16.515C5.2515 16.0399 7.43235 16.3453 9.02651 16.4683C9.14792 16.7955 9.72783 16.7639 9.9812 16.515H15.1008C15.2674 16.7774 15.4416 17.0353 15.6332 17.2819C17.1866 19.2863 19.5077 20.1852 19.5484 23.0583C17.8578 23.7544 17.4151 25.951 19.783 26.3251C18.5764 27.1961 18.5116 28.9923 20.3229 29.3286C20.611 33.5863 27.02 33.2168 27.4114 29.2208C28.2758 29.0809 28.9193 28.3473 28.9453 27.4721C28.9531 26.9164 28.6406 26.4057 28.1421 26.1599C29.9015 25.488 30.1714 23.3698 28.2062 22.9377C28.2817 20.1475 30.9527 18.7456 32.4646 16.6538H36.8671C37.1461 16.6538 37.4651 16.6349 37.7991 16.61C38.0461 16.7199 38.3319 16.6972 38.5585 16.5497C40.1127 16.4117 41.912 16.2315 43.0363 16.6538C45.7405 17.6688 45.1946 20.189 45.1946 22.449C45.1946 24.605 45.5173 27.0385 45.1946 29.171C44.6471 32.7907 39.4634 33.1074 36.4772 34.0342L26.6852 37.0763C26.6611 34.9557 25.082 34.7152 23.2609 34.8321C21.6629 34.9346 21.2135 35.9112 21.0958 37.0853L11.6417 34.1488C8.68189 33.2296 2.79238 32.7138 2.55409 28.9674C2.41307 26.7466 2.55409 24.4707 2.55409 22.2454C2.55409 20.5298 1.91763 17.3732 4.06455 16.515Z" fill="#262626"/>
<path d="M17.6378 10.9632C17.729 7.58644 20.164 4.65752 23.6706 4.56326C24.0928 4.55195 24.8228 3.89965 24.0891 3.91926C20.0652 4.0286 16.6574 6.94922 16.5481 11.0929C16.5307 11.5597 17.6272 11.3433 17.6378 10.9632Z" fill="#262626"/>
<path d="M18.3455 13.9043C18.1336 13.5031 17.0854 13.8869 17.3426 14.3733C17.4617 14.5995 17.5914 14.8195 17.7317 15.0332C17.9851 15.42 19.0333 15.0188 18.7354 14.5641C18.5982 14.3499 18.4655 14.1305 18.3455 13.9043Z" fill="#262626"/>
</g>
</g>
<defs>
<clipPath id="clip0_17_2919">
<rect width="46" height="46" fill="white" transform="translate(0.5 0.09375)"/>
</clipPath>
</defs>
</svg>
