<svg width="47" height="47" viewBox="0 0 47 47" fill="none" xmlns="http://www.w3.org/2000/svg">
<g clip-path="url(#clip0_17_2943)">
<mask id="mask0_17_2943" style="mask-type:luminance" maskUnits="userSpaceOnUse" x="0" y="0" width="47" height="47">
<path d="M46.5 0.09375H0.5V46.0938H46.5V0.09375Z" fill="white"/>
</mask>
<g mask="url(#mask0_17_2943)">
<path d="M29.6686 42.6208C29.4989 42.6208 29.3493 42.5093 29.301 42.3466C29.2527 42.1839 29.3171 42.0088 29.4593 41.9162L30.0795 41.513L28.2533 42.5671C28.0745 42.6658 27.8498 42.607 27.7422 42.4334C27.6346 42.2598 27.6821 42.0324 27.8501 41.9162L30.7902 39.9697L26.2868 42.5671C26.1077 42.6673 25.8814 42.6086 25.7736 42.434C25.6657 42.2594 25.7145 42.0308 25.8843 41.9155L28.4235 40.2518L24.4116 42.5671C24.2333 42.6622 24.0118 42.6027 23.9053 42.431C23.7988 42.2593 23.8439 42.0344 24.0083 41.917L27.7259 39.443L22.3132 42.5671C22.1341 42.669 21.9066 42.6111 21.798 42.4361C21.6893 42.2611 21.7384 42.0315 21.9092 41.9162L25.3592 39.6277L20.2708 42.5671C20.0925 42.6674 19.8669 42.61 19.7582 42.4368C19.6495 42.2636 19.6959 42.0355 19.8637 41.9185L24.5404 38.7484L17.9279 42.5671C17.7494 42.6646 17.5259 42.6057 17.4186 42.433C17.3113 42.2603 17.3574 42.0339 17.5238 41.917L21.3472 39.3678L15.805 42.5671C15.628 42.6643 15.406 42.6076 15.2973 42.4374C15.1887 42.2673 15.2306 42.042 15.3933 41.9224L21.3533 37.7371L12.9852 42.5671C12.8064 42.6658 12.5816 42.607 12.474 42.4334C12.3665 42.2598 12.4139 42.0324 12.5819 41.9162L15.9292 39.7006L11.1674 42.4498C10.9879 42.5519 10.7598 42.4934 10.6515 42.3176C10.5433 42.1417 10.5937 41.9117 10.7657 41.7974L13.2918 40.1406L9.77669 42.1731C9.59675 42.2808 9.36362 42.224 9.2535 42.0454C9.14338 41.8669 9.19716 41.6331 9.37419 41.5206L11.7378 39.9605L8.62209 41.7621C8.44339 41.8623 8.21751 41.8043 8.10923 41.6304C8.00095 41.4565 8.04855 41.2281 8.21729 41.112L11.2011 39.1102L7.63002 41.1695C7.45376 41.2713 7.22863 41.2176 7.11732 41.0472C7.00601 40.8767 7.04733 40.649 7.21142 40.5286L12.1365 36.9153L6.42252 40.2158C6.24577 40.3156 6.02178 40.2604 5.91175 40.0898C5.80173 39.9191 5.84383 39.6923 6.00776 39.5725L9.11122 37.3492L5.60142 39.3786C5.42333 39.4822 5.19517 39.4265 5.08486 39.2525C4.97454 39.0784 5.02153 38.8483 5.19126 38.7315L6.12199 38.0883L5.14066 38.6541C4.96351 38.7536 4.73948 38.6976 4.62999 38.5264C4.5205 38.3553 4.56358 38.1284 4.72819 38.0093L5.24032 37.6474L4.69906 37.9602C4.52752 38.0593 4.30875 38.0114 4.19437 37.8496C4.07998 37.6879 4.10766 37.4657 4.25822 37.3369L6.90246 35.0806L4.19996 36.64C4.02585 36.7371 3.80641 36.6845 3.69519 36.5191C3.58398 36.3536 3.6181 36.1306 3.77369 36.006L5.27866 34.8361L3.94772 35.6027C3.77419 35.6999 3.55513 35.6483 3.44333 35.4838C3.33152 35.3192 3.36412 35.0966 3.51839 34.971L5.22729 33.6163L3.81279 34.4336C3.6396 34.5315 3.42025 34.4807 3.30782 34.3165C3.19538 34.1523 3.22724 33.9294 3.38116 33.8034L5.02336 32.4839L3.78059 33.2015C3.60841 33.3019 3.38802 33.2536 3.27362 33.0904C3.15921 32.9272 3.18896 32.7035 3.34206 32.5759L5.13146 31.0771L3.78136 31.8568C3.60709 31.9592 3.38322 31.9088 3.26978 31.7415C3.15634 31.5741 3.19233 31.3475 3.35202 31.2235L4.03666 30.6869L3.78136 30.8348C3.61213 30.9361 3.39368 30.8924 3.27637 30.7339C3.15906 30.5754 3.18118 30.3537 3.32749 30.2215L4.69599 28.9412L3.78136 29.4694C3.61778 29.5646 3.40921 29.5262 3.2903 29.3789C3.17139 29.2317 3.17775 29.0197 3.30526 28.8798L3.68169 28.4605C3.54564 28.4943 3.40198 28.4511 3.3071 28.3479C3.21221 28.2447 3.18122 28.0979 3.22629 27.9652L3.38576 27.4945C3.33263 27.4613 3.28862 27.4155 3.25772 27.3611C3.15187 27.1777 3.21469 26.9433 3.39802 26.8374L3.78136 26.6151C3.91947 26.5357 4.09228 26.55 4.21544 26.6511C4.33861 26.7521 4.38646 26.9187 4.33566 27.0697L4.27586 27.2484L5.38062 26.6105C5.54398 26.5164 5.75152 26.555 5.87006 26.7016C5.9886 26.8482 5.98295 27.0592 5.85672 27.1993L5.51249 27.5826L7.19916 26.6067C7.36831 26.507 7.58544 26.5512 7.70211 26.7091C7.81878 26.8671 7.79725 27.0876 7.65226 27.22L6.29066 28.4965L8.24336 27.3703C8.41712 27.2725 8.6368 27.3243 8.74864 27.4893C8.86047 27.6544 8.82712 27.8776 8.67192 28.0028L7.98192 28.5471L8.55922 28.2144C8.73109 28.1161 8.94946 28.1649 9.06318 28.327C9.17689 28.489 9.14854 28.7109 8.99776 28.8392L7.20759 30.338L8.97092 29.3191C9.14412 29.2212 9.36346 29.272 9.4759 29.4362C9.58833 29.6003 9.55648 29.8232 9.40256 29.9493L7.76189 31.2672L9.35656 30.3472C9.53021 30.2482 9.75081 30.2992 9.86332 30.4645C9.97582 30.6297 9.94245 30.8537 9.78666 30.979L8.07929 32.3344L9.74526 31.3738C9.9195 31.2749 10.1405 31.3268 10.2525 31.493C10.3644 31.6592 10.3295 31.8835 10.1723 32.0078L8.66962 33.1747L10.1378 32.3275C10.309 32.2304 10.5259 32.2788 10.6397 32.4394C10.7534 32.6001 10.727 32.8208 10.5786 32.9501L7.93669 35.2071L12.1917 32.7538C12.3683 32.6575 12.5894 32.7141 12.698 32.8836C12.8065 33.0531 12.7655 33.2776 12.6041 33.3978L12.0958 33.7566L13.8308 32.7538C14.0081 32.6569 14.2302 32.7144 14.3383 32.8851C14.4465 33.0558 14.4035 33.2811 14.2402 33.4001L13.3102 34.0441L15.5466 32.7538C15.7233 32.6539 15.9473 32.7091 16.0574 32.8798C16.1674 33.0504 16.1253 33.2772 15.9614 33.397L12.8571 35.6204L17.8175 32.7569C17.9937 32.655 18.2188 32.7087 18.3302 32.8792C18.4415 33.0496 18.4002 33.2773 18.2361 33.3978L13.3102 37.0111L20.681 32.7538C20.8593 32.655 21.0838 32.7131 21.1918 32.8861C21.2998 33.059 21.2536 33.2862 21.0865 33.4032L18.0965 35.4072L22.6965 32.7538C22.8757 32.6536 23.1019 32.7123 23.2098 32.8869C23.3177 33.0615 23.2688 33.2901 23.099 33.4055L20.74 34.9587L24.5595 32.7538C24.7384 32.6564 24.9622 32.716 25.0691 32.8893C25.1759 33.0627 25.1286 33.2894 24.9613 33.4055L22.4351 35.0615L26.4356 32.7538C26.6143 32.6551 26.8391 32.7139 26.9467 32.8875C27.0542 33.0611 27.0068 33.2885 26.8388 33.4047L23.4885 35.6219L28.4573 32.7538C28.6342 32.6566 28.8562 32.7133 28.9649 32.8835C29.0735 33.0536 29.0316 33.2789 28.869 33.3986L22.9074 37.5838L31.2778 32.7538C31.4563 32.6564 31.6798 32.7152 31.7871 32.8879C31.8944 33.0606 31.8482 33.287 31.6819 33.4039L27.8646 35.9485L33.4 32.753C33.578 32.6554 33.8013 32.7136 33.9091 32.8856C34.0169 33.0577 33.9718 33.284 33.8063 33.4016L29.1296 36.5718L35.746 32.753C35.9248 32.6543 36.1495 32.7131 36.2571 32.8867C36.3646 33.0603 36.3172 33.2878 36.1492 33.4039L32.6992 35.6924L37.7853 32.7538C37.9638 32.6564 38.1872 32.7152 38.2946 32.8879C38.4019 33.0606 38.3557 33.287 38.1893 33.4039L34.4695 35.8795L39.794 32.8059C39.9735 32.7039 40.2016 32.7623 40.3098 32.9382C40.4181 33.114 40.3676 33.344 40.1957 33.4584L37.6565 35.1228L41.2345 33.0566C41.414 32.9526 41.6436 33.0101 41.7528 33.1865C41.8619 33.3629 41.811 33.5941 41.6378 33.7083L38.6984 35.6518L42.3692 33.5327C42.5491 33.4281 42.7797 33.4862 42.8886 33.6636C42.9975 33.841 42.9449 34.0728 42.7702 34.1859L42.1484 34.5892L43.0899 34.0464C43.266 33.9429 43.4924 33.9958 43.6045 34.1666C43.7166 34.3374 43.675 34.5661 43.51 34.6866L38.3166 38.5283L44.19 35.1374C44.3669 35.033 44.5946 35.0865 44.7064 35.2588C44.8182 35.431 44.7744 35.6608 44.6071 35.7798L41.2483 38.2148L44.8386 36.1448C45.0159 36.0466 45.2389 36.1033 45.3477 36.2743C45.4565 36.4452 45.4135 36.6712 45.2496 36.7903L44.3227 37.4366L45.176 36.9444C45.3473 36.8426 45.568 36.8891 45.6837 37.0512C45.7995 37.2134 45.7717 37.4372 45.6199 37.5662L42.9189 39.9068L45.4619 38.4394C45.6256 38.3453 45.8335 38.3844 45.9518 38.5315C46.07 38.6787 46.0636 38.8901 45.9365 39.0297L44.443 40.6558L45.1422 40.2526C45.2611 40.177 45.4117 40.1727 45.5347 40.2413C45.6576 40.3099 45.7331 40.4405 45.7312 40.5812C45.7293 40.722 45.6503 40.8505 45.5256 40.9157L42.6621 42.5671C42.4984 42.6602 42.2915 42.6206 42.1736 42.4738C42.0558 42.327 42.062 42.1164 42.1883 41.9768L43.681 40.3515L39.8407 42.5671C39.6698 42.6651 39.4525 42.6176 39.338 42.4572C39.2236 42.2969 39.2494 42.0759 39.3976 41.9461L42.0978 39.6032L36.9611 42.5671C36.7837 42.6678 36.5585 42.6118 36.4488 42.4398C36.3391 42.2678 36.3833 42.04 36.5494 41.9216L37.4771 41.2738L35.2392 42.5671C35.0623 42.6715 34.8347 42.6179 34.7229 42.4457C34.611 42.2735 34.6548 42.0437 34.8221 41.9247L38.1794 39.4913L32.8533 42.5671C32.6772 42.6706 32.4508 42.6177 32.3387 42.4469C32.2266 42.2761 32.2682 42.0474 32.4332 41.927L37.6266 38.086L29.8633 42.5671C29.8044 42.6021 29.7371 42.6206 29.6686 42.6208Z" fill="#0077B6"/>
<path d="M17.7455 45.6875C17.5767 45.6879 17.4275 45.5778 17.3781 45.4163C17.3287 45.2549 17.3907 45.0802 17.5308 44.986L18.5666 44.2891L16.2328 45.6338C16.057 45.7324 15.8349 45.6779 15.7246 45.5092C15.6143 45.3405 15.6535 45.1152 15.8142 44.9937L20.3882 41.6203L16.8301 43.6765C16.654 43.7759 16.431 43.7214 16.3206 43.552C16.2101 43.3827 16.2503 43.1566 16.4122 43.0356L18.4362 41.5575C18.267 41.6166 18.0793 41.5505 17.9845 41.3983C17.8897 41.2461 17.913 41.0486 18.0406 40.9227L19.8653 39.1179C19.8418 39.0952 19.8214 39.0694 19.8047 39.0413C19.6989 38.8579 19.7617 38.6235 19.945 38.5176L21.2614 37.7579C21.4281 37.6641 21.6384 37.7076 21.7543 37.8598C21.8702 38.0119 21.8561 38.2262 21.7214 38.362L20.6948 39.3778L24.1901 37.3584C24.3662 37.259 24.5892 37.3135 24.6996 37.4829C24.81 37.6523 24.7699 37.8783 24.6079 37.9994L22.6353 39.4407L25.9366 37.5355C26.1125 37.4347 26.3366 37.4884 26.4477 37.6581C26.5589 37.8278 26.5186 38.0546 26.3559 38.1757L21.7835 41.549L27.8226 38.063C28.0015 37.9593 28.2305 38.0163 28.34 38.1918C28.4495 38.3673 28.4 38.598 28.2281 38.7131L25.9879 40.2212C26.1335 40.2528 26.2476 40.3659 26.2805 40.5112C26.3134 40.6565 26.2591 40.8077 26.1412 40.8989L23.3138 43.0824C23.425 43.1553 23.4905 43.2807 23.4867 43.4137C23.483 43.5467 23.4106 43.6682 23.2954 43.7348L19.9987 45.6377C19.8244 45.7353 19.6043 45.6826 19.493 45.5166C19.3817 45.3506 19.4167 45.127 19.5732 45.0029L21.151 43.7839L17.9364 45.6338C17.8787 45.6685 17.8128 45.6871 17.7455 45.6875Z" fill="#0077B6"/>
<path d="M23.3768 30.2237C23.2207 30.224 23.08 30.1298 23.0211 29.9853C22.9622 29.8407 22.9967 29.6749 23.1084 29.566L23.5063 29.1772L22.929 29.51C22.7576 29.6075 22.5402 29.559 22.4265 29.3979C22.3127 29.2367 22.3398 29.0156 22.489 28.8867L24.8802 26.8505L22.0052 28.5096C21.8282 28.6068 21.6062 28.5499 21.4976 28.3799C21.3889 28.2097 21.4309 27.9844 21.5935 27.8647L22.2521 27.4048L21.434 27.8762C21.2575 27.9739 21.0355 27.9178 20.9263 27.7482C20.8171 27.5785 20.8581 27.3533 21.02 27.233L24.2048 24.966L20.6781 27.0046C20.501 27.1041 20.2769 27.048 20.1674 26.8769C20.0579 26.7057 20.101 26.4789 20.2656 26.3598L25.2367 22.85L19.8202 25.9718C19.6408 26.0784 19.4091 26.0219 19.2989 25.8447C19.1887 25.6675 19.2405 25.4347 19.4154 25.3209L23.077 22.8769L19.1547 25.1408C18.9741 25.2513 18.7382 25.1945 18.6277 25.014C18.5171 24.8334 18.5739 24.5974 18.7545 24.4869L20.8529 23.1276L18.6012 24.4308C18.4228 24.5296 18.1983 24.4715 18.0903 24.2985C17.9823 24.1257 18.0286 23.8985 18.1956 23.7815L24.6004 19.4697L17.8284 23.3797C17.6479 23.483 17.4181 23.4233 17.3103 23.2456C17.2026 23.0678 17.2563 22.8365 17.4313 22.7243L18.0615 22.3256L17.3669 22.7234C17.1882 22.8237 16.9623 22.7656 16.854 22.5917C16.7457 22.4178 16.7933 22.1896 16.9621 22.0734L24.375 17.1061L16.6002 21.5903C16.4205 21.6891 16.1949 21.6291 16.0882 21.454C15.9814 21.279 16.0314 21.0508 16.2015 20.9363L20.3615 18.2638L16.0681 20.7447C15.8887 20.8512 15.657 20.7948 15.5468 20.6175C15.4366 20.4403 15.4884 20.2076 15.6633 20.0938L23.7302 14.6973L15.359 19.5273C15.179 19.6298 14.9501 19.5707 14.8422 19.3939C14.7342 19.2171 14.7862 18.9866 14.9595 18.8732L20.3132 15.411L14.8369 18.5742C14.658 18.6716 14.4342 18.612 14.3273 18.4387C14.2205 18.2653 14.2678 18.0387 14.4351 17.9226L21.4049 13.3426L14.3094 17.4389C14.13 17.535 13.9068 17.4741 13.801 17.3001C13.6952 17.1262 13.7437 16.9 13.9115 16.7848L17.7326 14.3407L13.923 16.5403C13.7436 16.6364 13.5204 16.5754 13.4146 16.4016C13.3088 16.2277 13.3573 16.0015 13.5251 15.8863L17.0962 13.6025L13.6102 15.6173C13.4319 15.7176 13.2064 15.6601 13.0976 15.4869C12.9889 15.3137 13.0353 15.0856 13.2031 14.9686L21.6824 9.20562L13.1855 14.1123C13.0074 14.2099 12.7841 14.1517 12.6763 13.9796C12.5685 13.8075 12.6136 13.5813 12.7791 13.4636L20.2541 8.40368L13.0191 12.5805C12.8395 12.6809 12.6127 12.6215 12.5053 12.4461C12.3978 12.2706 12.4479 12.0417 12.6189 11.9272L15.6633 9.95388L13.0567 11.4573C12.8781 11.5534 12.6555 11.4939 12.5489 11.3215C12.4422 11.149 12.4884 10.9233 12.6542 10.8064L16.2736 8.41902L13.1793 10.2053C13.0016 10.3019 12.7794 10.2437 12.6718 10.0725C12.5642 9.9012 12.6081 9.67578 12.7722 9.55752L17.0449 6.64802L13.6194 8.62525C13.4443 8.72492 13.2219 8.67203 13.1105 8.50421C12.999 8.33639 13.0364 8.11091 13.1962 7.98815L18.0569 4.29818L14.738 6.21485C14.5644 6.31206 14.3454 6.2604 14.2336 6.09589C14.1218 5.93138 14.1544 5.70868 14.3086 5.58312L16.5473 3.81058C16.4142 3.75316 16.325 3.62561 16.3165 3.48094C16.3081 3.33627 16.382 3.19921 16.5074 3.12672L19.8685 1.18628C20.0422 1.08725 20.2628 1.1383 20.3753 1.30355C20.4878 1.46879 20.4544 1.69275 20.2986 1.81802L18.8918 2.93045L22.9497 0.589051C23.1248 0.489386 23.3472 0.542272 23.4587 0.710093C23.5701 0.877914 23.5327 1.10339 23.3729 1.22615L18.5169 4.91458L25.6055 0.819817C25.7837 0.719563 26.0093 0.776921 26.118 0.950152C26.2268 1.12338 26.1804 1.35146 26.0126 1.46842L21.7407 4.38175L27.0851 1.29592C27.2643 1.19572 27.4905 1.2544 27.5984 1.42903C27.7063 1.60366 27.6574 1.83226 27.4876 1.94758L23.8628 4.33422L28.2075 1.82645C28.3869 1.72912 28.611 1.78931 28.7174 1.96337C28.8239 2.13744 28.7753 2.36438 28.607 2.47965L25.5648 4.45075L29.1735 2.36695C29.3525 2.26095 29.5833 2.31693 29.6937 2.49313C29.8042 2.66933 29.754 2.90147 29.5806 3.01632L22.1033 8.07632L30.3389 3.32298C30.5171 3.22273 30.7427 3.28009 30.8514 3.45332C30.9602 3.62655 30.9138 3.85463 30.746 3.97158L22.2666 9.73462L31.4183 4.45152C31.598 4.3527 31.8236 4.41278 31.9304 4.58787C32.0371 4.76296 31.9872 4.99104 31.817 5.10548L28.2535 7.38402L32.0248 5.20668C32.2044 5.10787 32.4301 5.16795 32.5368 5.34304C32.6435 5.51813 32.5936 5.74621 32.4234 5.86065L28.6054 8.30172L32.5216 6.04158C32.7005 5.94424 32.9242 6.00377 33.0311 6.17713C33.138 6.35049 33.0906 6.57716 32.9233 6.69325L25.9535 11.2757L33.1027 7.14712C33.2833 7.0366 33.5193 7.09341 33.6298 7.274C33.7403 7.45459 33.6835 7.69057 33.5029 7.80108L28.1447 11.2641L33.4523 8.19745C33.632 8.08546 33.8685 8.14038 33.9805 8.32012C34.0925 8.49986 34.0376 8.73636 33.8579 8.84835L25.7872 14.245L33.8257 9.60428C34.0062 9.49852 34.2381 9.55697 34.3469 9.73565C34.4557 9.91432 34.4012 10.1473 34.2243 10.2591L30.0659 12.9324L33.933 10.7007C34.112 10.5969 34.341 10.6539 34.4505 10.8294C34.5599 11.0049 34.5104 11.2357 34.3386 11.3507L26.9287 16.315L33.9437 12.2654C34.1242 12.1623 34.3541 12.2218 34.4618 12.3996C34.5695 12.5774 34.5159 12.8087 34.3409 12.9208L33.7076 13.321L33.8372 13.2444C34.0167 13.1322 34.2532 13.1868 34.3654 13.3664C34.4776 13.5458 34.423 13.7824 34.2435 13.8946L27.8342 18.2094L33.3741 15.0115C33.5534 14.9143 33.7776 14.9745 33.884 15.1486C33.9904 15.3225 33.9419 15.5496 33.7735 15.6648L31.6867 17.018L32.8781 16.3279C33.0568 16.2277 33.2826 16.2858 33.3909 16.4597C33.4992 16.6336 33.4516 16.8619 33.2829 16.9781L29.6144 19.4314L32.1191 17.9855C32.2962 17.886 32.5202 17.9419 32.6297 18.1131C32.7392 18.2843 32.6961 18.5112 32.5315 18.6303L27.5635 22.1385L30.8226 20.2572C30.9997 20.1562 31.2248 20.2113 31.335 20.3827C31.4452 20.5542 31.402 20.7819 31.2366 20.9011L28.0496 23.1705L29.4035 22.3892C29.581 22.2885 29.8062 22.3444 29.9159 22.5166C30.0256 22.6886 29.9814 22.9163 29.8152 23.0347L28.4069 24.0238C28.5125 24.0375 28.6074 24.095 28.6683 24.1824C28.7827 24.3443 28.7548 24.5668 28.6039 24.6954L25.9673 26.9363C26.1208 26.9412 26.2566 27.0371 26.3124 27.1803C26.3681 27.3234 26.3331 27.4859 26.2234 27.5933L24.3251 29.4487C24.3503 29.6054 24.2763 29.7615 24.1388 29.8412L23.5707 30.1693C23.5121 30.2045 23.4451 30.2232 23.3768 30.2237Z" fill="#51CB20"/>
<path d="M24.6306 18.7238C24.4705 18.724 24.327 18.6246 24.271 18.4746C24.2149 18.3246 24.2581 18.1555 24.3792 18.0507L26.7106 16.0351L22.2103 18.6326C22.0352 18.7322 21.8128 18.6793 21.7013 18.5115C21.5899 18.3437 21.6273 18.1182 21.7871 17.9955L25.1665 15.4402L20.6125 18.0683C20.4363 18.1701 20.2111 18.1164 20.0998 17.946C19.9885 17.7755 20.0298 17.5478 20.1939 17.4274L24.3592 14.3745L19.3598 17.261C19.1828 17.362 18.9576 17.3068 18.8474 17.1353C18.7372 16.9639 18.7804 16.7361 18.9458 16.617L23.1625 13.6117L18.4398 16.3395C18.2622 16.4339 18.0419 16.3751 17.935 16.2047C17.8282 16.0343 17.8711 15.8104 18.0335 15.6916L20.6555 13.9099L17.8725 15.5145C17.6962 15.6164 17.4711 15.5627 17.3598 15.3922C17.2484 15.2218 17.2898 14.9941 17.4539 14.8736L22.76 10.9904L17.24 14.1782C17.0606 14.2848 16.8289 14.2283 16.7187 14.0511C16.6085 13.8739 16.6603 13.6411 16.8352 13.5273L18.0534 12.7147L16.9801 13.3349C16.8023 13.4369 16.5757 13.3811 16.4658 13.2081C16.3558 13.0351 16.4013 12.8063 16.5691 12.6886L19.4825 10.6608L16.8482 12.1818C16.6736 12.2801 16.4528 12.2273 16.3415 12.0608C16.2302 11.8942 16.2659 11.67 16.4235 11.5463L20.621 8.33004L16.9916 10.4254C16.8146 10.528 16.5883 10.4736 16.4773 10.3018C16.3663 10.13 16.4098 9.90124 16.576 9.78211L17.7222 8.95794L17.4393 9.12048C17.269 9.21753 17.0529 9.17048 16.9384 9.01141C16.8239 8.85233 16.8478 8.63249 16.9939 8.50178L18.7572 6.94621C18.6064 6.90745 18.4941 6.78136 18.4729 6.62713C18.4517 6.4729 18.5259 6.32116 18.6606 6.24318L21.2941 4.72364C21.4646 4.6263 21.6811 4.67351 21.7956 4.833C21.9101 4.9925 21.8855 5.21271 21.7388 5.34311L20.3879 6.53374L23.9728 4.46374C24.1498 4.36115 24.3761 4.41555 24.4871 4.58736C24.5981 4.75917 24.5546 4.98785 24.3884 5.10698L23.2384 5.93191L25.3252 4.72748C25.4997 4.63108 25.7189 4.68446 25.8295 4.85027C25.9401 5.01608 25.9052 5.239 25.7492 5.36304L21.5548 8.57691L26.9345 5.47114C27.1125 5.36544 27.3423 5.42018 27.4535 5.5948C27.5647 5.76941 27.5172 6.0008 27.3462 6.11744L24.4351 8.14374L27.8698 6.15884C28.0489 6.057 28.2764 6.11486 28.385 6.28988C28.4937 6.46489 28.4446 6.69448 28.2738 6.80974L27.0587 7.62318L28.5031 6.78904C28.6792 6.68966 28.9022 6.74415 29.0126 6.91354C29.123 7.08292 29.0829 7.30896 28.9209 7.42998L23.6186 11.3117L29.3403 8.00804C29.5185 7.90779 29.7441 7.96515 29.8528 8.13838C29.9616 8.31161 29.9152 8.53969 29.7474 8.65664L27.12 10.4438L29.7351 8.93418C29.9121 8.83318 30.1373 8.8884 30.2475 9.05986C30.3577 9.23131 30.3145 9.45904 30.1491 9.57818L25.9324 12.5828L30.0632 10.1985C30.2393 10.0991 30.4623 10.1536 30.5728 10.323C30.6832 10.4923 30.6431 10.7184 30.4811 10.8394L26.3158 13.8938L30.1361 11.6881C30.3112 11.5884 30.5335 11.6413 30.645 11.8091C30.7565 11.977 30.719 12.2024 30.5593 12.3252L27.1798 14.879L29.8194 13.3571C29.9902 13.2607 30.2063 13.3087 30.3201 13.4685C30.4339 13.6283 30.4088 13.8482 30.2618 13.9781L27.9311 15.9945L28.6733 15.5667C28.7921 15.4911 28.9428 15.4868 29.0657 15.5554C29.1887 15.6241 29.2641 15.7546 29.2622 15.8954C29.2603 16.0361 29.1814 16.1646 29.0566 16.2298L24.8223 18.674C24.7639 18.7071 24.6978 18.7243 24.6306 18.7238Z" fill="#F0F2F5"/>
<path d="M41.7381 37.2548C41.5868 37.2548 41.4497 37.1658 41.3881 37.0276C41.3265 36.8895 41.3519 36.7281 41.4529 36.6155L41.811 36.216L40.2477 37.1184C40.0775 37.2167 39.8606 37.1704 39.7454 37.0111C39.6303 36.8519 39.6541 36.6314 39.8008 36.5005L39.9472 36.3694L39.455 36.6545C39.2946 36.7474 39.0907 36.7123 38.9707 36.571C38.8507 36.4298 38.849 36.2228 38.9666 36.0796L39.9748 34.8529L39.0479 35.3895C38.9179 35.4646 38.756 35.457 38.6337 35.3699C38.5114 35.2827 38.4512 35.1321 38.4798 34.9847L38.7359 33.6715C38.5923 33.6241 38.49 33.4969 38.4747 33.3465C38.4593 33.1962 38.5336 33.0508 38.6646 32.9754L39.0479 32.7546C39.178 32.6793 39.3402 32.6869 39.4625 32.7743C39.5849 32.8617 39.6449 33.0126 39.616 33.1601L39.3929 34.3024L41.4177 33.1371C41.5781 33.0442 41.782 33.0794 41.902 33.2207C42.022 33.362 42.0237 33.5689 41.906 33.7121L40.8971 34.9388L42.8076 33.8371C42.9761 33.7478 43.1847 33.7959 43.297 33.95C43.4093 34.1041 43.3912 34.3174 43.2546 34.4504L43.1074 34.5815L43.5099 34.3515C43.6729 34.2584 43.8793 34.2969 43.9976 34.4427C44.1159 34.5884 44.1113 34.7984 43.9868 34.9388L43.628 35.339L44.1386 35.0446C44.2694 34.9693 44.4323 34.9778 44.5546 35.0663C44.6769 35.1548 44.7358 35.3069 44.7051 35.4548L44.5679 36.1118L44.7603 36.0006C44.8792 35.9251 45.0298 35.9208 45.1528 35.9894C45.2757 36.058 45.3512 36.1885 45.3493 36.3293C45.3474 36.4701 45.2684 36.5985 45.1437 36.6638L44.2091 37.2005C44.0782 37.2763 43.915 37.268 43.7924 37.1794C43.6698 37.0908 43.6108 36.9383 43.6418 36.7902L43.779 36.1339L41.9298 37.2005C41.872 37.2355 41.8057 37.2542 41.7381 37.2548Z" fill="#51CB20"/>
<path d="M45.8154 36.6883C45.8121 36.6599 45.8004 36.6332 45.7816 36.6116C44.6385 33.7274 42.0434 32.9661 39.265 32.7683C39.0756 32.6672 38.8513 32.6543 38.6516 32.7331C37.7316 32.6924 36.7963 32.697 35.8993 32.697H18.1655C16.426 32.697 13.1439 33.3755 11.527 32.697C10.032 32.0707 9.40638 28.8139 8.82832 27.0789C9.18942 26.9608 9.69848 26.7094 9.29675 26.7094H8.67115C8.50555 26.4962 8.06395 26.5407 7.79868 26.7094H4.06885C3.92778 26.5461 3.53218 26.5806 3.26998 26.7094H3.16342C2.94032 26.7094 1.91298 27.1387 2.43662 27.1387H3.00932C3.00165 28.9419 2.84985 30.913 2.92422 32.8419H1.63008C1.35221 32.8241 1.07614 32.8979 0.844249 33.052C0.736149 33.1724 0.631883 33.2728 0.903283 33.2728H2.94568C2.94402 35.4991 3.67102 37.6648 5.01568 39.4391C8.01642 43.0286 12.4953 42.6185 16.7035 42.5824L14.8635 44.9476H14.5009C14.0002 44.9476 13.3555 45.7066 14.1037 45.7066H21.7704C22.271 45.7066 22.9158 44.9476 22.1675 44.9476H22.0801L24.4047 42.6208H38.6754C42.1177 42.6208 47.3878 42.8078 46.0921 37.5776C46.0181 37.2758 45.9257 36.9788 45.8154 36.6883ZM44.6186 36.5235H41.2016C40.2425 36.5235 39.5149 36.2084 39.393 35.1082C39.3514 34.5504 39.3486 33.9904 39.3846 33.4323C41.3051 33.6278 43.635 34.6904 44.6186 36.5235ZM15.8625 44.9476C16.9665 43.5293 18.0699 42.1107 19.1729 40.6918C19.6438 39.9777 20.1698 39.3015 20.7461 38.6694C20.7975 38.6247 20.8454 38.5763 20.8895 38.5245C20.9225 38.5045 20.9478 38.4892 20.9984 38.457C22.4872 37.5017 25.2649 37.8222 26.8672 38.3696C27.801 38.6893 27.5779 38.4509 26.8258 39.2037L24.673 41.3558L21.0812 44.9476H15.8625ZM41.0567 41.9001H25.1253L28.6106 38.4148C28.7034 38.3221 28.6466 38.2278 28.5485 38.1848C26.1864 37.09 21.9621 36.8048 19.8323 38.5582C18.8198 39.5806 17.9308 40.7182 17.1834 41.9476C12.7989 41.9814 8.09462 42.3739 5.41358 38.1028C4.56781 36.632 4.10022 34.9742 4.05275 33.2782H4.73662C5.01449 33.2961 5.29056 33.2223 5.52245 33.0681C5.63055 32.9477 5.73482 32.8473 5.46342 32.8473H4.02668C3.93698 30.9222 4.09952 28.9373 4.11638 27.1441H7.63385C8.17588 28.6429 8.78385 32.2861 10.1263 33.2207C10.9244 33.7773 12.8096 33.4231 13.669 33.4231H33.4069C35.0023 33.4231 36.656 33.3188 38.2706 33.3732C38.2422 35.0131 38.0191 37.1253 40.2072 37.2664C41.7689 37.3668 43.3659 37.274 44.9329 37.2664C45.038 37.6175 45.0934 37.9816 45.0978 38.3481C45.1476 42.3279 43.0906 41.9001 41.0567 41.9001Z" fill="#262626"/>
<path d="M14.1307 5.73947C8.61838 13.9857 16.571 23.7293 22.4445 29.6464H16.8079C16.3479 29.6464 15.6441 30.341 16.3924 30.341H30.1924C30.6524 30.341 31.3562 29.6464 30.6079 29.6464H24.2937C28.9703 24.9805 34.4765 18.5681 34.7886 11.7624C34.2879 0.904106 20.2687 -3.44136 14.1307 5.73947ZM25.2719 27.617C24.7997 28.1537 24.0974 28.6904 23.6412 29.2891C22.7718 27.6791 20.5822 26.0584 19.4905 24.6707C15.7837 19.958 11.7571 13.9481 14.0633 7.74047C16.1885 2.02037 23.4856 -0.616194 28.6706 2.72647C31.9289 4.82714 33.5044 8.29937 33.6784 12.0598C33.407 17.9708 29.0263 23.3636 25.2719 27.617Z" fill="#262626"/>
<path d="M16.045 11.7425C16.0719 21.253 30.466 20.5392 30.9552 11.445C30.4507 2.071 16.0182 2.51413 16.045 11.7425ZM28.337 15.9591C26.496 17.9475 23.6291 18.6129 21.1004 17.6389C18.6998 16.5075 17.1644 14.0958 17.1552 11.4419C17.1614 10.0257 17.6107 8.64699 18.4401 7.499C20.1603 5.40511 22.9871 4.57802 25.5647 5.41443C28.1292 6.47733 29.813 8.96671 29.845 11.7425C29.8129 13.2758 29.2837 14.7572 28.337 15.9637V15.9591Z" fill="#262626"/>
<path d="M13.1269 35.9017H11.5935C11.317 35.8946 11.0443 35.9679 10.8085 36.1125C10.6498 36.2229 10.6406 36.3525 10.8729 36.3525H12.4062C12.6828 36.3595 12.9554 36.2863 13.1913 36.1416C13.35 36.0312 13.3592 35.9017 13.1269 35.9017Z" fill="#262626"/>
<path d="M17.4127 35.7078H15.8793C15.6332 35.7078 15.2951 35.8987 15.2698 36.1678C15.2415 36.4607 15.5612 36.5511 15.7873 36.5511H17.3207C17.5668 36.5511 17.9049 36.3602 17.9302 36.0911C17.9585 35.7952 17.6388 35.7078 17.4127 35.7078Z" fill="#262626"/>
<path d="M31.2165 35.723H29.6832C29.444 35.723 29.0982 35.9077 29.0698 36.1699C29.0399 36.4597 29.3658 36.531 29.5827 36.531H31.1161C31.3553 36.531 31.701 36.3463 31.7294 36.0841C31.7593 35.7943 31.4335 35.723 31.2165 35.723Z" fill="#262626"/>
<path d="M35.8142 35.7146H34.2809C34.0378 35.7146 33.6967 35.9025 33.6675 36.1677C33.6376 36.4598 33.9604 36.5396 34.1827 36.5396H35.7161C35.9591 36.5396 36.3003 36.3517 36.3294 36.0865C36.3593 35.7944 36.0365 35.7146 35.8142 35.7146Z" fill="#262626"/>
<path d="M23.7124 7.43307C21.3258 7.49747 19.1784 9.15807 19.1124 11.6597C19.1002 12.1342 20.2149 11.9142 20.2256 11.5278C20.165 9.74613 21.5154 8.23134 23.2923 8.0878C23.5047 8.08244 23.9348 8.02034 24.0237 7.78114C24.1011 7.55727 23.9493 7.42694 23.7124 7.43307Z" fill="#262626"/>
</g>
</g>
<defs>
<clipPath id="clip0_17_2943">
<rect width="46" height="46" fill="white" transform="translate(0.5 0.09375)"/>
</clipPath>
</defs>
</svg>
