<svg width="50" height="50" viewBox="0 0 50 50" fill="none" xmlns="http://www.w3.org/2000/svg">
<path d="M12 0C10.9062 0 10 0.90625 10 2V4H4C2.83984 4 2 4.83984 2 6V13H48V6C48 4.83984 47.1602 4 46 4H40V2C40 0.90625 39.0938 0 38 0H36C34.9062 0 34 0.90625 34 2V4H16V2C16 0.90625 15.0938 0 14 0H12ZM12 2H14V8H12V2ZM36 2H38V8H36V2ZM2 15V46C2 47.1055 2.89453 48 4 48H34.0273C35.6953 49.25 37.7578 50 40 50C45.5156 50 50 45.5156 50 40C50 37.7578 49.25 35.6953 48 34.0273V15H2ZM12 21H17V26H12V21ZM19 21H24V26H19V21ZM26 21H31V26H26V21ZM33 21H38V26H33V21ZM12 28H17V33H12V28ZM19 28H24V33H19V28ZM26 28H31V33H26V28ZM33 28H38V30.2031C36.0742 30.5938 34.3516 31.543 33 32.8711V28ZM40 32C44.4102 32 48 35.5898 48 40C48 44.4102 44.4102 48 40 48C35.5898 48 32 44.4102 32 40C32 35.5898 35.5898 32 40 32ZM12 35H17V40H12V35ZM19 35H24V40H19V35ZM26 35H31V35.6719C30.3672 36.9805 30 38.4492 30 40H26V35Z" fill="#0077B6"/>
<path d="M39 35.0977C39 34.5 39.3984 34.0977 40 34.0977C40.6016 34.0977 41 34.5 41 35.0977V39H44.9023C45.5 39 45.9023 39.3984 45.9023 40C45.9023 40.6016 45.5 41 44.9023 41H41V44.9023C41 45.5 40.6016 45.9023 40 45.9023C39.3984 45.9023 39 45.5 39 44.9023V41H35.0977C34.5 41 34.0977 40.6016 34.0977 40C34.0977 39.3984 34.5 39 35.0977 39H39V35.0977Z" fill="#51CB20"/>
</svg>
