<svg width="115" height="55" viewBox="0 0 115 55" fill="none" xmlns="http://www.w3.org/2000/svg">
<path d="M1.85553 53.0006H3.59665V52.582H2.3718V51.6178H3.46079V51.1992H2.3718V50.2766H3.59665V49.8559H1.85553V53.0006Z" fill="#1A1A1A"/>
<path d="M5.07859 49.8601H4.56232V53.0006H5.07859V49.8601Z" fill="#1A1A1A"/>
<path d="M8.16373 52.1968L6.60864 49.8559H6.09027V53.0006H6.60864V50.6556L8.16373 53.0006H8.68V49.8559H8.16373V52.1968Z" fill="#1A1A1A"/>
<path d="M10.6343 49.8559L9.50562 53.0006H10.0449L10.2706 52.3592H11.5916L11.8174 53.0006H12.3629L11.2321 49.8559H10.6343ZM10.4253 51.9385L10.9416 50.4807L11.4537 51.9385H10.4253Z" fill="#1A1A1A"/>
<path d="M14.2169 51.4012L13.4874 49.8601H12.9105L13.9577 51.8635V53.0006H14.4761V51.8635L15.5191 49.8601H14.9464L14.2169 51.4012Z" fill="#1A1A1A"/>
<path d="M17.1996 49.8559L16.0709 53.0006H16.6101L16.838 52.3592H18.1569L18.3847 53.0006H18.9281L17.7994 49.8559H17.1996ZM16.9905 51.9385L17.5089 50.4807L18.021 51.9385H16.9905Z" fill="#1A1A1A"/>
<path d="M21.2587 53.0006H21.7749V51.6282H22.8179V51.2075H21.7749V50.2808H23.1127V49.8601H21.2587V53.0006Z" fill="#1A1A1A"/>
<path d="M25.3638 49.8205C25.0443 49.8197 24.7317 49.9134 24.4657 50.0897C24.1997 50.2661 23.9922 50.5171 23.8696 50.8111C23.747 51.105 23.7146 51.4286 23.7768 51.7409C23.8389 52.0532 23.9927 52.34 24.2186 52.5651C24.4445 52.7902 24.7324 52.9435 25.0458 53.0054C25.3592 53.0673 25.684 53.0351 25.979 52.9129C26.274 52.7907 26.526 52.5839 26.703 52.3189C26.88 52.0539 26.974 51.7425 26.9732 51.4241C26.9778 51.2123 26.9393 51.0017 26.86 50.8051C26.7807 50.6085 26.6623 50.4299 26.512 50.2801C26.3616 50.1302 26.1824 50.0123 25.985 49.9333C25.7877 49.8543 25.5764 49.816 25.3638 49.8205ZM25.3638 52.5862C24.7367 52.5862 24.2831 52.1343 24.2831 51.4241C24.2831 50.7139 24.7367 50.2724 25.3638 50.2724C25.9908 50.2724 26.4423 50.7139 26.4423 51.4241C26.4423 52.1343 25.9887 52.5862 25.3638 52.5862Z" fill="#1A1A1A"/>
<path d="M30.0228 50.8014C30.0228 50.2891 29.655 49.8601 28.9067 49.8601H27.8177V53.0006H28.334V51.7511H28.729L29.4543 53.0006H30.0709L29.2913 51.699C29.5002 51.6601 29.6884 51.5484 29.8224 51.384C29.9564 51.2196 30.0274 51.0131 30.0228 50.8014ZM28.334 51.3346V50.2808H28.9067C29.3101 50.2808 29.4919 50.489 29.4919 50.8014C29.4919 51.1138 29.3101 51.3346 28.9067 51.3346H28.334Z" fill="#1A1A1A"/>
<path d="M32.3555 50.2808H33.1978V53.0006H33.7162V50.2808H34.5543V49.8601H32.3555V50.2808Z" fill="#1A1A1A"/>
<path d="M36.3498 49.8559L35.2211 53.0006H35.7603L35.9882 52.3592H37.3071L37.5349 53.0006H38.0783L36.9496 49.8559H36.3498ZM36.1407 51.9385L36.657 50.4807L37.1712 51.9385H36.1407Z" fill="#1A1A1A"/>
<path d="M41.2889 49.8601H40.6388L39.4161 51.2929V49.8601H38.8977V53.0006H39.4161V51.597L40.6346 53.0006H41.3119L39.9198 51.4324L41.2889 49.8601Z" fill="#1A1A1A"/>
<path d="M43.0425 49.8559L41.9138 53.0006H42.4531L42.6809 52.3592H43.9998L44.2276 53.0006H44.7711L43.6424 49.8559H43.0425ZM42.8335 51.9385L43.3519 50.4807L43.864 51.9385H42.8335Z" fill="#1A1A1A"/>
<path d="M45.5925 53.0006H46.1088V51.6282H47.1518V51.2075H46.1088V50.2808H47.4465V49.8601H45.5925V53.0006Z" fill="#1A1A1A"/>
<path d="M50.1993 51.8635C50.1993 52.0524 50.124 52.2336 49.9899 52.3672C49.8559 52.5008 49.6741 52.5758 49.4845 52.5758C49.2949 52.5758 49.1131 52.5008 48.979 52.3672C48.8449 52.2336 48.7696 52.0524 48.7696 51.8635V49.8601H48.2534V51.8531C48.2534 52.6529 48.8156 53.034 49.4782 53.034C50.1408 53.034 50.7156 52.6529 50.7156 51.8531V49.8601H50.1993V51.8635Z" fill="#1A1A1A"/>
<path d="M52.2352 49.8601H51.7168V53.0006H53.3012V52.5862H52.2352V49.8601Z" fill="#1A1A1A"/>
<path d="M59.5403 52.0572L59.9479 51.3616H59.3898L59.0763 51.8906L58.2402 51.0576C58.0187 50.8181 57.9225 50.6785 57.9225 50.5078C57.9232 50.4653 57.9327 50.4235 57.9503 50.3849C57.9678 50.3463 57.9932 50.3116 58.0247 50.2831C58.0562 50.2546 58.0933 50.2329 58.1336 50.2192C58.1739 50.2056 58.2166 50.2003 58.259 50.2037C58.3047 50.2012 58.3504 50.209 58.3927 50.2264C58.435 50.2439 58.4728 50.2706 58.5033 50.3046C58.5338 50.3386 58.5563 50.379 58.569 50.4228C58.5817 50.4667 58.5843 50.5128 58.5767 50.5577H59.093C59.1244 50.1266 58.8297 49.7851 58.282 49.7851C57.7344 49.7851 57.4042 50.1079 57.4042 50.5119C57.4028 50.7354 57.4891 50.9506 57.6445 51.1117C57.145 51.32 56.9046 51.6719 56.9046 52.0968C56.9046 52.6841 57.3582 53.061 58.0396 53.061C58.243 53.0663 58.4453 53.0291 58.6335 52.952C58.8218 52.8749 58.9918 52.7596 59.1327 52.6133L59.5215 53.0006H60.1966L59.4316 52.2426C59.463 52.1905 59.5048 52.1197 59.5403 52.0572ZM58.0354 52.6216C57.9587 52.6291 57.8812 52.6207 57.8079 52.5971C57.7346 52.5735 57.6669 52.5351 57.609 52.4843C57.5512 52.4335 57.5045 52.3714 57.4718 52.3019C57.439 52.2324 57.421 52.1569 57.4188 52.0801C57.4188 51.799 57.586 51.5824 57.9518 51.4387L58.7879 52.2717C58.6949 52.3815 58.5791 52.4696 58.4484 52.5301C58.3177 52.5905 58.1753 52.6217 58.0312 52.6216H58.0354Z" fill="#1A1A1A"/>
<path d="M64.0384 52.3238L62.9327 49.8601H62.3746V53.0006H62.8908V50.8493L63.8565 53.0006H64.216L65.1775 50.8493V53.0006H65.6938V49.8601H65.1399L64.0384 52.3238Z" fill="#1A1A1A"/>
<path d="M66.7054 53.0006H68.4466V52.582H67.2217V51.6178H68.3107V51.1992H67.2217V50.2766H68.4466V49.8559H66.7054V53.0006Z" fill="#1A1A1A"/>
<path d="M70.4406 49.8601H69.4122V53.0006H70.4406C71.4522 53.0006 72.1127 52.4092 72.1127 51.4429C72.1127 50.4765 71.4522 49.8601 70.4406 49.8601ZM70.4406 52.582H69.9285V50.2912H70.4406C71.1847 50.2912 71.5839 50.7348 71.5839 51.4533C71.5839 52.1718 71.1847 52.582 70.4406 52.582Z" fill="#1A1A1A"/>
<path d="M73.4734 49.8601H72.9572V53.0006H73.4734V49.8601Z" fill="#1A1A1A"/>
<path d="M75.9232 50.2724C76.0954 50.2642 76.2664 50.3063 76.415 50.3936C76.5635 50.481 76.6832 50.6097 76.7592 50.7639H77.3863C77.2713 50.4745 77.0685 50.228 76.8062 50.0589C76.544 49.8898 76.2353 49.8065 75.9232 49.8205C75.4963 49.8205 75.0869 49.9895 74.7851 50.2902C74.4833 50.5909 74.3137 50.9988 74.3137 51.4241C74.3137 51.8494 74.4833 52.2573 74.7851 52.558C75.0869 52.8588 75.4963 53.0277 75.9232 53.0277C76.2348 53.0424 76.5433 52.9598 76.8056 52.7914C77.0679 52.623 77.2709 52.3773 77.3863 52.0885H76.7592C76.6837 52.2433 76.5642 52.3726 76.4156 52.4603C76.2669 52.5481 76.0957 52.5904 75.9232 52.582C75.2961 52.582 74.8446 52.1343 74.8446 51.4241C74.8446 50.7139 75.2982 50.2724 75.9232 50.2724Z" fill="#1A1A1A"/>
<path d="M79.2653 49.8559L78.1366 53.0006H78.6759L78.9037 52.3592H80.2226L80.4483 53.0006H80.9939L79.8652 49.8559H79.2653ZM79.0563 51.9385L79.5725 50.4807L80.0867 51.9385H79.0563Z" fill="#1A1A1A"/>
<path d="M82.3316 49.8601H81.8132V53.0006H83.3976V52.5862H82.3316V49.8601Z" fill="#1A1A1A"/>
<path d="M86.1838 49.8601H85.6675V53.0006H86.1838V49.8601Z" fill="#1A1A1A"/>
<path d="M89.2689 52.1968L87.7138 49.8559H87.1954V53.0006H87.7138V50.6556L89.2689 53.0006H89.7852V49.8559H89.2689V52.1968Z" fill="#1A1A1A"/>
<path d="M91.2651 50.6973C91.2651 50.3932 91.4971 50.2495 91.796 50.2579C91.921 50.2474 92.0452 50.2846 92.1438 50.3619C92.2423 50.4392 92.3077 50.5509 92.3269 50.6744H92.8975C92.8536 50.1371 92.4272 49.8205 91.8232 49.8205C91.1794 49.8205 90.7384 50.1641 90.7384 50.714C90.7384 51.8719 92.4105 51.3783 92.4105 52.1385C92.4105 52.405 92.2015 52.5987 91.8441 52.5987C91.7763 52.6065 91.7076 52.6005 91.6422 52.5811C91.5768 52.5618 91.516 52.5294 91.4635 52.486C91.411 52.4426 91.3678 52.3891 91.3366 52.3287C91.3053 52.2682 91.2867 52.2021 91.2818 52.1343H90.7279C90.7279 52.6903 91.2128 53.034 91.8441 53.034C92.5464 53.034 92.933 52.582 92.933 52.1114C92.9247 50.9639 91.2651 51.4054 91.2651 50.6973Z" fill="#1A1A1A"/>
<path d="M95.807 51.8635C95.8123 51.9602 95.7977 52.0569 95.7642 52.1477C95.7307 52.2385 95.679 52.3216 95.6122 52.3919C95.5454 52.4621 95.4649 52.5181 95.3757 52.5563C95.2865 52.5946 95.1904 52.6143 95.0932 52.6143C94.9961 52.6143 94.9 52.5946 94.8108 52.5563C94.7215 52.5181 94.6411 52.4621 94.5743 52.3919C94.5075 52.3216 94.4558 52.2385 94.4223 52.1477C94.3888 52.0569 94.3742 51.9602 94.3794 51.8635V49.8601H93.8632V51.8531C93.8632 52.6529 94.4254 53.034 95.0859 53.034C95.7464 53.034 96.3254 52.6529 96.3254 51.8531V49.8601H95.807V51.8635Z" fill="#1A1A1A"/>
<path d="M99.5317 50.8014C99.5317 50.2891 99.1638 49.8601 98.4155 49.8601H97.3265V53.0006H97.8428V51.7511H98.2379L98.9631 53.0006H99.5798L98.8001 51.699C99.009 51.6601 99.1973 51.5484 99.3313 51.384C99.4653 51.2196 99.5363 51.0131 99.5317 50.8014ZM97.8428 51.3346V50.2808H98.4155C98.8189 50.2808 99.0008 50.489 99.0008 50.8014C99.0008 51.1138 98.8189 51.3346 98.4155 51.3346H97.8428Z" fill="#1A1A1A"/>
<path d="M101.467 49.8559L100.339 53.0006H100.88L101.106 52.3592H102.427L102.652 53.0006H103.198L102.067 49.8559H101.467ZM101.258 51.9385L101.774 50.4807L102.287 51.9385H101.258Z" fill="#1A1A1A"/>
<path d="M106.089 52.1968L104.531 49.8559H104.015V53.0006H104.531V50.6556L106.089 53.0006H106.605V49.8559H106.089V52.1968Z" fill="#1A1A1A"/>
<path d="M109.052 50.2724C109.225 50.2636 109.396 50.3055 109.545 50.3929C109.693 50.4803 109.813 50.6093 109.889 50.7639H110.516C110.401 50.4745 110.198 50.228 109.936 50.0589C109.673 49.8898 109.365 49.8065 109.052 49.8205C108.626 49.8205 108.216 49.9895 107.914 50.2902C107.613 50.5909 107.443 50.9988 107.443 51.4241C107.443 51.8494 107.613 52.2573 107.914 52.558C108.216 52.8588 108.626 53.0277 109.052 53.0277C109.364 53.0424 109.673 52.9598 109.935 52.7914C110.197 52.623 110.4 52.3773 110.516 52.0885H109.889C109.813 52.2434 109.694 52.3729 109.545 52.4607C109.396 52.5485 109.225 52.5907 109.052 52.582C108.425 52.582 107.974 52.1343 107.974 51.4241C107.974 50.7139 108.428 50.2724 109.052 50.2724Z" fill="#1A1A1A"/>
<path d="M111.452 53.0006H113.193V52.582H111.968V51.6178H113.057V51.1992H111.968V50.2766H113.193V49.8559H111.452V53.0006Z" fill="#1A1A1A"/>
<path d="M3.59668 43.7768H3.02606V44.3495H3.59668V43.7768Z" fill="#1A1A1A"/>
<path d="M2.61218 43.7768H2.04156V44.3495H2.61218V43.7768Z" fill="#1A1A1A"/>
<path d="M2.82958 44.8264C2.66456 44.8217 2.50032 44.8509 2.34715 44.9123C2.19398 44.9737 2.05518 45.0659 1.93942 45.1832C1.82367 45.3005 1.73346 45.4403 1.67443 45.5939C1.6154 45.7476 1.58883 45.9117 1.59638 46.076C1.58804 46.2414 1.61392 46.4067 1.67242 46.5617C1.73093 46.7168 1.8208 46.8581 1.93645 46.9771C2.0521 47.096 2.19107 47.19 2.34471 47.2532C2.49836 47.3163 2.6634 47.3474 2.82958 47.3443C2.99408 47.3488 3.15773 47.3194 3.31023 47.2578C3.46273 47.1962 3.60078 47.1038 3.71565 46.9864C3.83053 46.869 3.91976 46.7291 3.9777 46.5757C4.03565 46.4222 4.06106 46.2585 4.05234 46.0947C4.06123 45.9301 4.03607 45.7654 3.97842 45.6108C3.92078 45.4562 3.83187 45.3151 3.71722 45.1962C3.60258 45.0772 3.46463 44.9831 3.31193 44.9195C3.15924 44.8559 2.99506 44.8242 2.82958 44.8264ZM2.85048 46.8278C2.47843 46.8278 2.20253 46.5029 2.20253 46.0739C2.20253 45.6449 2.43245 45.3408 2.80868 45.3408C3.18491 45.3408 3.45663 45.6657 3.45663 46.101C3.45663 46.5362 3.21835 46.8278 2.85048 46.8278Z" fill="#1A1A1A"/>
<path d="M7.22105 46.7612C7.22105 45.8781 6.87269 45.3228 6.17596 45.0951C6.07536 45.0587 5.97084 45.0343 5.86452 45.0222C5.79346 45.0222 5.61161 45.0118 5.32526 45.0118V45.5262C5.50128 45.5226 5.67717 45.538 5.84989 45.572C6.37244 45.6865 6.6358 46.0781 6.6358 46.7549H4.75464V47.3422H7.22105V46.7612Z" fill="#1A1A1A"/>
<path d="M9.07716 47.7421V48.2002C9.82753 48.2002 10.2017 47.8899 10.2017 47.2776V46.1884C10.2017 45.5074 9.76482 45.0014 9.08134 45.0014C8.39785 45.0014 7.96936 45.4762 7.96936 46.1718C7.96936 46.8674 8.41457 47.3485 9.08134 47.3485C9.18842 47.3602 9.29666 47.3419 9.39382 47.2955C9.49097 47.2491 9.57315 47.1766 9.63105 47.086C9.6206 47.488 9.43876 47.7317 9.07716 47.7421ZM9.07716 46.8278C8.76154 46.8278 8.54416 46.5342 8.54416 46.1718C8.54416 45.8094 8.75318 45.5262 9.05207 45.5262C9.35097 45.5262 9.60179 45.7948 9.60179 46.1989C9.60957 46.2743 9.60223 46.3505 9.58021 46.4231C9.55818 46.4957 9.52191 46.5632 9.47349 46.6217C9.42508 46.6802 9.36548 46.7286 9.29816 46.7639C9.23084 46.7993 9.15714 46.821 9.08134 46.8278H9.07716Z" fill="#1A1A1A"/>
<path d="M21.4531 47.3484H21.8837C22.4626 47.3484 22.7532 47.0402 22.7532 46.4154V44.0204H22.1784V46.2197C22.1853 46.3446 22.1719 46.4698 22.1387 46.5904C22.1005 46.6513 22.0455 46.6998 21.9802 46.7301C21.9149 46.7605 21.8421 46.7712 21.7708 46.7612H20.9347V46.6112C20.9449 46.2937 20.831 45.9846 20.617 45.749C20.5111 45.6345 20.3815 45.5442 20.2371 45.4845C20.0928 45.4248 19.9371 45.3971 19.7809 45.4033C19.6263 45.3987 19.4723 45.4257 19.3285 45.4826C19.1847 45.5396 19.0541 45.6253 18.9449 45.7344C18.8375 45.8483 18.7538 45.9821 18.6986 46.1283C18.6433 46.2745 18.6176 46.4301 18.623 46.5862C18.6199 46.6431 18.6199 46.7001 18.623 46.757H17.672C17.6239 46.0385 17.3668 45.5387 16.8944 45.2492C16.6096 45.0804 16.283 44.9945 15.9517 45.0014C15.7163 45.0026 15.4836 45.0522 15.2682 45.1471C15.0626 45.2399 14.8751 45.3682 14.7143 45.5262C14.8439 45.7219 14.9359 45.8719 14.9944 45.9802C15.1226 45.837 15.282 45.7251 15.4605 45.6532C15.5975 45.5922 15.7453 45.5589 15.8953 45.5553C16.0638 45.546 16.2321 45.5762 16.3868 45.6434C16.5414 45.7107 16.6781 45.8132 16.7857 45.9427C16.9715 46.1748 17.0699 46.4643 17.0637 46.7612H13.408C13.408 45.8781 13.0547 45.32 12.3629 45.0951C12.263 45.0588 12.1592 45.0343 12.0535 45.0222C11.9804 45.0222 11.7985 45.0118 11.5143 45.0118V45.5262C11.6896 45.5227 11.8648 45.5381 12.0368 45.572C12.5615 45.6865 12.8248 46.0781 12.8248 46.7549H10.9437V47.3422H18.8529C18.964 47.4826 19.1056 47.5961 19.2671 47.6741C19.4286 47.7521 19.6057 47.7926 19.7851 47.7926C19.9646 47.7926 20.1417 47.7521 20.3031 47.6741C20.4646 47.5961 20.6062 47.4826 20.7173 47.3422H21.4531V47.3484ZM20.199 47.0652C20.1507 47.1295 20.0874 47.181 20.0145 47.2151C19.9416 47.2492 19.8614 47.265 19.7809 47.261C19.4235 47.261 19.1957 46.9569 19.1957 46.5841C19.1911 46.4222 19.2387 46.2631 19.3316 46.1301C19.3785 46.0637 19.4413 46.0099 19.5142 45.9735C19.5872 45.9372 19.6681 45.9194 19.7496 45.9219C19.8344 45.9192 19.9186 45.9368 19.9953 45.973C20.072 46.0092 20.1389 46.0631 20.1906 46.1301C20.2862 46.2675 20.3352 46.4316 20.3307 46.5987C20.3432 46.7633 20.3005 46.9274 20.2094 47.0652H20.199Z" fill="#1A1A1A"/>
<path d="M24.1264 44.0142H23.5516V47.3485H24.1264V44.0142Z" fill="#1A1A1A"/>
<path d="M30.1273 48.7729H29.5567V49.3457H30.1273V48.7729Z" fill="#1A1A1A"/>
<path d="M29.147 48.7729H28.5764V49.3457H29.147V48.7729Z" fill="#1A1A1A"/>
<path d="M34.5042 47.9066H33.9335V48.4855H34.5042V47.9066Z" fill="#1A1A1A"/>
<path d="M42.5639 46.4155V44.0205H41.9849V46.2197C41.9915 46.3447 41.9774 46.4699 41.9431 46.5904C41.9054 46.6517 41.8504 46.7005 41.785 46.7309C41.7195 46.7613 41.6466 46.7718 41.5752 46.7612H39.6167C39.6021 45.5887 39.1506 44.9951 38.2749 44.9951C37.7272 44.9951 37.2298 45.2742 36.7469 45.8886L36.8201 44.0142H36.2495V46.7549H34.385C34.489 46.5731 34.5322 46.363 34.5084 46.1551V45.0055H33.9336V46.1926C33.9418 46.3259 33.9211 46.4595 33.8729 46.5841C33.8387 46.6441 33.7876 46.6928 33.726 46.7243C33.6643 46.7557 33.5948 46.7686 33.526 46.7612H31.8914C31.5967 46.7612 31.394 46.6112 31.1829 46.2239C31.0889 46.0342 30.9422 45.8755 30.7602 45.7666C30.5783 45.6577 30.3688 45.6032 30.1566 45.6095H29.9288V46.1364C29.96 46.1333 29.9916 46.1333 30.0228 46.1364C30.0947 46.1331 30.1664 46.1452 30.2332 46.1719C30.2999 46.1986 30.3601 46.2394 30.4097 46.2913C30.4592 46.3433 30.497 46.4052 30.5204 46.473C30.5438 46.5408 30.5523 46.6128 30.5454 46.6841C30.5454 47.211 30.0375 47.6546 29.3644 47.6546C28.6141 47.6546 28.1479 47.1548 28.1479 46.3551V45.8427H27.5669V46.4217C27.5627 46.6568 27.6058 46.8904 27.6937 47.1086C27.7817 47.3269 27.9126 47.5253 28.0788 47.6923C28.245 47.8593 28.4431 47.9913 28.6614 48.0807C28.8797 48.1701 29.1138 48.215 29.3498 48.2127C29.7434 48.229 30.13 48.1063 30.4417 47.8663C30.7533 47.6262 30.9699 47.2843 31.0533 46.9007C31.2623 47.2277 31.4462 47.336 31.9667 47.3526H41.6902C42.2692 47.3485 42.5639 47.0402 42.5639 46.4155ZM39.0106 46.7612H36.7114C37.0479 46.0385 37.6541 45.5116 38.2351 45.5116C38.7305 45.5116 39.0315 45.9281 39.0315 46.5946C39.021 46.6529 39.021 46.7028 39.0106 46.7612Z" fill="#1A1A1A"/>
<path d="M43.9287 44.0142H43.3539V47.3485H43.9287V44.0142Z" fill="#1A1A1A"/>
<path d="M49.3068 43.958H48.7362V44.5307H49.3068V43.958Z" fill="#1A1A1A"/>
<path d="M52.8246 47.9003H52.254V48.4793H52.8246V47.9003Z" fill="#1A1A1A"/>
<path d="M53.8028 47.9003H53.2322V48.4793H53.8028V47.9003Z" fill="#1A1A1A"/>
<path d="M57.5525 46.6154C57.5608 46.4591 57.5369 46.3027 57.4822 46.156C57.4274 46.0093 57.3431 45.8753 57.2344 45.7623C57.1257 45.6493 56.9949 45.5597 56.8501 45.499C56.7053 45.4384 56.5496 45.4079 56.3925 45.4095C56.2357 45.4042 56.0795 45.4313 55.9338 45.4892C55.7881 45.5471 55.656 45.6345 55.546 45.7459C55.436 45.8573 55.3503 45.9902 55.2946 46.1363C55.2388 46.2824 55.2141 46.4384 55.222 46.5946C55.222 46.6425 55.222 46.6883 55.2324 46.7341V46.7612H53.6899C53.7986 46.5811 53.8442 46.3701 53.8195 46.1614V45.0055H53.2447V46.1926C53.2535 46.3262 53.2321 46.46 53.182 46.5841C53.1465 46.6444 53.0943 46.6932 53.0316 46.7247C52.9689 46.7561 52.8985 46.7687 52.8287 46.7612H50.611C50.6319 46.6555 50.6424 46.5481 50.6424 46.4404V45.0055H50.0571V46.3738C50.0663 46.6822 49.977 46.9855 49.8021 47.2402C49.7125 47.3673 49.5934 47.4712 49.455 47.5428C49.3165 47.6145 49.1628 47.6519 49.0068 47.6519C48.8508 47.6519 48.6971 47.6145 48.5587 47.5428C48.4203 47.4712 48.3012 47.3673 48.2115 47.2402C48.0372 46.9852 47.9473 46.6822 47.9544 46.3738V45.0055H47.3713V46.4404C47.3655 46.6724 47.406 46.9031 47.4903 47.1194C47.5746 47.3357 47.7011 47.5332 47.8625 47.7004C48.1065 47.9689 48.4377 48.143 48.7978 48.1921C49.158 48.2413 49.5239 48.1623 49.8314 47.9691C50.0766 47.8157 50.2764 47.6 50.4104 47.3443H55.4582C55.5636 47.4925 55.7044 47.6121 55.8679 47.6925C56.0314 47.7729 56.2124 47.8114 56.3946 47.8045C56.5507 47.8082 56.7059 47.7797 56.8504 47.7208C56.9949 47.6618 57.1256 47.5738 57.2344 47.4621C57.3431 47.3504 57.4275 47.2176 57.4822 47.0719C57.537 46.9262 57.5609 46.7707 57.5525 46.6154ZM56.4092 47.2714C56.3249 47.267 56.2424 47.2457 56.1666 47.2087C56.0907 47.1718 56.0232 47.1199 55.968 47.0563C55.9127 46.9927 55.8709 46.9187 55.8451 46.8386C55.8193 46.7586 55.81 46.6741 55.8177 46.5904C55.8177 46.203 56.0518 45.9302 56.3778 45.9302C56.7039 45.9302 56.9568 46.2238 56.9568 46.6154C56.9568 47.0069 56.729 47.2714 56.4092 47.2714Z" fill="#1A1A1A"/>
<path d="M59.0763 43.5144H58.6583C58.6267 43.4939 58.6013 43.4652 58.5848 43.4315C58.5682 43.3978 58.5611 43.3602 58.5642 43.3228C58.5628 43.2983 58.5663 43.2737 58.5745 43.2506C58.5827 43.2274 58.5954 43.2061 58.612 43.1879C58.6285 43.1697 58.6485 43.1549 58.6708 43.1445C58.6931 43.134 58.7173 43.1281 58.7419 43.127C58.7762 43.1235 58.8105 43.1335 58.8375 43.1549C58.8644 43.1763 58.8819 43.2074 58.8861 43.2416L59.0721 43.1437C59.0472 43.0774 59.0027 43.0203 58.9445 42.9797C58.8863 42.9392 58.8171 42.9172 58.7461 42.9167C58.6919 42.9169 58.6384 42.928 58.5886 42.9492C58.5388 42.9704 58.4938 43.0013 58.4562 43.0401C58.4186 43.079 58.3892 43.1249 58.3697 43.1752C58.3502 43.2256 58.341 43.2793 58.3427 43.3332C58.351 43.3951 58.3664 43.4559 58.3886 43.5144H58.1796V43.7518H59.0763V43.5144Z" fill="#1A1A1A"/>
<path d="M62.2429 43.9538H61.6723V44.5265H62.2429V43.9538Z" fill="#1A1A1A"/>
<path d="M61.2584 43.9538H60.6878V44.5265H61.2584V43.9538Z" fill="#1A1A1A"/>
<path d="M63.1124 47.3484H64.5755C65.1545 47.3484 65.4451 47.0402 65.4451 46.4154V44.0204H64.864V46.2197C64.8716 46.3447 64.8575 46.4701 64.8222 46.5904C64.7844 46.6517 64.7294 46.7005 64.664 46.7309C64.5986 46.7612 64.5257 46.7718 64.4543 46.7612H62.1133C62.2173 46.5793 62.2605 46.3693 62.2366 46.1614V45.0055H61.6618V46.1926C61.6701 46.3259 61.6494 46.4595 61.6012 46.5841C61.567 46.6441 61.5159 46.6928 61.4543 46.7243C61.3926 46.7557 61.3231 46.7685 61.2542 46.7612H59.534C59.3803 46.7747 59.2259 46.7443 59.0888 46.6737C59.0241 46.6097 58.9754 46.5316 58.9463 46.4456C58.9173 46.3595 58.9088 46.2679 58.9216 46.178V44.0204H58.3468V46.4092C58.3326 46.6506 58.4069 46.8889 58.5558 47.0798C58.635 47.1711 58.7343 47.2428 58.846 47.2895C58.9577 47.3361 59.0788 47.3563 59.1996 47.3484H63.1103H63.1124Z" fill="#1A1A1A"/>
<path d="M66.8163 44.0142H66.2415V47.3485H66.8163V44.0142Z" fill="#1A1A1A"/>
<path d="M71.5254 45.0014C70.8732 45.0014 70.4113 45.4762 70.4113 46.1718C70.4113 46.8674 70.8565 47.3485 71.5254 47.3485C71.6325 47.3602 71.7407 47.3419 71.8379 47.2955C71.935 47.2491 72.0172 47.1766 72.0751 47.086C72.0646 47.488 71.8828 47.7317 71.5212 47.7421V48.2002C72.2716 48.2002 72.6436 47.8899 72.6436 47.2776V46.1884C72.6436 45.5074 72.2089 45.0014 71.5254 45.0014ZM71.5254 46.8278C71.2098 46.8278 70.9924 46.5342 70.9924 46.1718C70.9924 45.8094 71.2014 45.5262 71.5003 45.5262C71.7992 45.5262 72.0479 45.7948 72.0479 46.1989C72.0479 46.5383 71.8368 46.8278 71.5254 46.8278Z" fill="#1A1A1A"/>
<path d="M79.1253 47.3484H81.8425C81.9988 47.353 82.1543 47.3252 82.2992 47.2667C82.4441 47.2083 82.5753 47.1205 82.6843 47.0089C82.7934 46.8973 82.878 46.7643 82.9328 46.6184C82.9876 46.4725 83.0113 46.3169 83.0026 46.1614C83.0106 46.005 82.9864 45.8487 82.9316 45.702C82.8768 45.5553 82.7925 45.4213 82.6839 45.3082C82.5753 45.1951 82.4446 45.1053 82.3 45.0443C82.1553 44.9833 81.9996 44.9524 81.8425 44.9535C81.685 44.948 81.5281 44.9753 81.3818 45.0337C81.2355 45.0921 81.103 45.1803 80.9928 45.2926C80.8826 45.4049 80.7972 45.5389 80.742 45.686C80.6867 45.8331 80.6629 45.99 80.672 46.1468C80.6685 46.3641 80.7195 46.5789 80.8204 46.7716H79.3343C79.3551 46.6659 79.3656 46.5585 79.3657 46.4508V44.0204H78.7804V46.3738C78.7804 47.1006 78.3436 47.6525 77.7353 47.6525C77.1271 47.6525 76.6777 47.086 76.6777 46.3738V45.9427H76.0945V46.4488C76.0945 47.4193 76.8345 48.2148 77.7353 48.2148C78.0239 48.2086 78.3054 48.1249 78.5501 47.9724C78.7947 47.8198 78.9935 47.6043 79.1253 47.3484ZM81.8154 45.4741C82.1623 45.4741 82.4006 45.7636 82.4006 46.1551C82.4006 46.5466 82.1916 46.8111 81.8446 46.8111C81.7613 46.8059 81.6798 46.7841 81.605 46.7471C81.5302 46.71 81.4636 46.6584 81.4091 46.5954C81.3546 46.5323 81.3132 46.4591 81.2875 46.3799C81.2618 46.3007 81.2522 46.2172 81.2594 46.1343C81.2594 45.7344 81.483 45.4804 81.8154 45.4804V45.4741Z" fill="#1A1A1A"/>
<path d="M82.1143 43.9476H81.5499V44.5203H82.1143V43.9476Z" fill="#1A1A1A"/>
<path d="M92.6279 43.9538H92.0573V44.5265H92.6279V43.9538Z" fill="#1A1A1A"/>
<path d="M91.6434 43.9538H91.0728V44.5265H91.6434V43.9538Z" fill="#1A1A1A"/>
<path d="M96.4612 46.2197C96.4678 46.3447 96.4537 46.4699 96.4194 46.5904C96.3817 46.6517 96.3267 46.7005 96.2612 46.7309C96.1958 46.7612 96.1229 46.7718 96.0515 46.7612H94.7347C94.8397 46.5797 94.8837 46.3695 94.8601 46.1614V44.0204H94.2853V46.1926C94.2942 46.3261 94.2728 46.46 94.2226 46.5841C94.1886 46.6443 94.1376 46.6932 94.0759 46.7246C94.0142 46.7561 93.9445 46.7688 93.8757 46.7612H92.5024C92.6074 46.5797 92.6514 46.3695 92.6278 46.1614V45.0055H92.053V46.1926C92.0619 46.3261 92.0405 46.46 91.9903 46.5841C91.9561 46.6441 91.905 46.6928 91.8434 46.7243C91.7817 46.7557 91.7122 46.7685 91.6433 46.7612H89.6117C89.5657 46.0427 89.3065 45.5428 88.8341 45.2533C88.5476 45.085 88.2198 44.9993 87.8873 45.0055H87.6323L88.3325 44.0204H87.6427L86.6227 45.547H87.8183C87.9883 45.5391 88.1579 45.5708 88.3135 45.6395C88.4691 45.7082 88.6066 45.812 88.715 45.9427C88.9036 46.1742 89.003 46.4652 88.9951 46.7632H84.9757C84.822 46.7768 84.6675 46.7464 84.5305 46.6758C84.4658 46.6118 84.417 46.5337 84.388 46.4477C84.3589 46.3616 84.3505 46.27 84.3633 46.1801V44.0204H83.7885V46.4092C83.7743 46.6506 83.8485 46.8889 83.9975 47.0798C84.0767 47.1711 84.176 47.2428 84.2877 47.2895C84.3994 47.3361 84.5204 47.3563 84.6412 47.3484H96.1728C96.7538 47.3484 97.0423 47.0402 97.0423 46.4154V44.0204H96.4633L96.4612 46.2197Z" fill="#1A1A1A"/>
<path d="M102.786 43.5102H102.216V44.0892H102.786V43.5102Z" fill="#1A1A1A"/>
<path d="M101.553 46.9715C101.687 46.9682 101.819 46.931 101.934 46.8632C102.05 46.7954 102.147 46.6994 102.216 46.5841C102.261 46.799 102.379 46.9918 102.55 47.1308C102.72 47.2698 102.934 47.3466 103.154 47.3485H104.279C104.853 47.3485 105.144 47.0402 105.144 46.4155V45.0055H104.563V46.2197C104.57 46.3447 104.556 46.4702 104.521 46.5904C104.484 46.6515 104.429 46.7003 104.364 46.7307C104.299 46.761 104.226 46.7716 104.155 46.7612H103.413C103.024 46.7612 102.832 46.5529 102.832 46.1364V44.5057H101.553C100.89 44.5057 100.481 44.9847 100.481 45.7553C100.481 46.4779 100.89 46.9715 101.553 46.9715ZM101.71 44.9535H102.232V45.7032C102.232 46.1406 102.004 46.4925 101.626 46.4925C101.279 46.4925 101.055 46.151 101.055 45.7553C101.055 45.2742 101.298 44.9535 101.716 44.9535H101.71Z" fill="#1A1A1A"/>
<path d="M101.808 43.5102H101.237V44.0892H101.808V43.5102Z" fill="#1A1A1A"/>
<path d="M104.151 47.9003H103.58V48.4793H104.151V47.9003Z" fill="#1A1A1A"/>
<path d="M105.129 47.9003H104.559V48.4793H105.129V47.9003Z" fill="#1A1A1A"/>
<path d="M109.828 43.958H109.257V44.5307H109.828V43.958Z" fill="#1A1A1A"/>
<path d="M111.977 46.7612C111.847 46.607 111.781 46.41 111.791 46.2093C111.784 46.0315 111.833 45.856 111.931 45.7074C111.978 45.6346 112.044 45.5755 112.121 45.5357C112.198 45.4959 112.285 45.4768 112.372 45.4804C112.495 45.4737 112.616 45.5097 112.715 45.5822C112.814 45.6548 112.885 45.7594 112.915 45.8781L113.413 45.6407C113.331 45.4398 113.191 45.2684 113.009 45.1494C112.828 45.0303 112.614 44.9692 112.397 44.9743C112.236 44.9689 112.076 44.9986 111.927 45.0612C111.779 45.1237 111.646 45.2177 111.538 45.3367C111.315 45.5764 111.196 45.8934 111.205 46.2197C111.203 46.4064 111.243 46.5913 111.32 46.7612H109.703C109.808 46.5797 109.851 46.3695 109.828 46.1614V45.0055H109.253V46.1926C109.262 46.3261 109.241 46.46 109.19 46.5841C109.156 46.6443 109.105 46.6932 109.044 46.7246C108.982 46.7561 108.912 46.7688 108.843 46.7612H107.123C106.97 46.7747 106.815 46.7443 106.678 46.6737C106.614 46.6095 106.565 46.5313 106.536 46.4453C106.507 46.3594 106.499 46.2679 106.511 46.178V44.0204H105.936V46.4092C105.922 46.6506 105.996 46.8889 106.145 47.0798C106.224 47.1711 106.324 47.2428 106.435 47.2895C106.547 47.3361 106.668 47.3563 106.789 47.3484H113.44V46.7612H111.977Z" fill="#1A1A1A"/>
<path d="M22.3855 20.261C22.5236 19.5751 22.5078 19.0824 22.3381 18.7829C22.2713 18.6397 22.1646 18.5189 22.0306 18.435C21.8967 18.3511 21.7413 18.3076 21.5832 18.3099V17.9167H30.9115C31.1157 17.9167 31.246 17.9817 31.3022 18.1088C31.3623 18.2599 31.3787 18.4248 31.3496 18.5848L30.8167 22.2595H30.3194C30.3697 21.1804 30.1329 20.329 29.603 19.7082C29.0731 19.0874 28.2974 18.774 27.2672 18.774H26.9712C26.875 18.765 26.778 18.7776 26.6874 18.8109C26.5967 18.8441 26.5147 18.8972 26.4472 18.9662C26.3126 19.1516 26.2243 19.3665 26.1896 19.5929L25.2541 23.9948H25.5502C26.2054 24.034 26.8565 23.8675 27.4123 23.5188C27.8887 23.1434 28.2321 22.6253 28.3922 22.0407H28.8895L27.8978 26.7707H27.4004C27.448 26.5169 27.4396 26.2558 27.3757 26.0056C27.3118 25.7554 27.1939 25.5222 27.0304 25.3222C26.7166 24.9832 26.16 24.8137 25.3607 24.8137H25.0647L24.3393 28.2223C24.1876 28.7475 24.1784 29.3035 24.3127 29.8335C24.4459 30.1941 24.7657 30.3745 25.2748 30.3745H25.5028C25.9678 30.3731 26.4271 30.2723 26.8498 30.0788C27.3117 29.8674 27.7389 29.5873 28.1168 29.2481C28.5182 28.8897 28.8741 28.4837 29.1767 28.039C29.4931 27.5775 29.7432 27.074 29.9197 26.5431H30.4526L29.1767 30.8297C29.1478 30.9531 29.0767 31.0626 28.9756 31.1393C28.8746 31.2159 28.7499 31.2549 28.6231 31.2495H18.8182V30.8475C19.2127 30.8341 19.5874 30.6714 19.8662 30.3922C20.2246 29.9725 20.4566 29.46 20.5352 28.9141L22.3855 20.261Z" fill="#0077B6"/>
<path d="M33.3737 17.9167H39.7273V18.3106C39.3209 18.3212 38.9346 18.4847 38.6496 18.7667C38.281 19.1871 38.0424 19.7005 37.9616 20.2475L36.0588 28.9103C35.9148 29.5974 35.935 30.091 36.1197 30.3911C36.1932 30.5308 36.3055 30.6475 36.4438 30.7282C36.5821 30.8088 36.7409 30.85 36.9021 30.8472V31.25H30.5273V30.8472C30.9341 30.8346 31.3206 30.6715 31.608 30.3911C31.9767 29.9711 32.2143 29.4573 32.293 28.9103L34.1957 20.2653C34.3398 19.5782 34.3236 19.0845 34.147 18.7844C34.0789 18.6413 33.9696 18.5204 33.8324 18.4363C33.6952 18.3522 33.5359 18.3085 33.3737 18.3106V17.9167Z" fill="#0077B6"/>
<path d="M77.5605 25.8522C77.7703 24.8754 77.7044 23.86 77.3702 22.9182L76.2908 19.8806C76.1468 19.4582 75.9403 19.0594 75.6782 18.6975C75.5874 18.5622 75.4651 18.4507 75.3217 18.3724C75.1783 18.2942 75.0181 18.2515 74.8546 18.2479V17.9167H81.4261V18.2598C81.025 18.2281 80.6262 18.3439 80.3051 18.5851C80.0821 18.801 80.0404 19.1175 80.1802 19.5375L81.215 22.8353H81.2507L83.8169 19.8776C83.9493 19.7196 84.0677 19.5503 84.1707 19.3719C84.271 19.2126 84.3369 19.0343 84.364 18.8483C84.375 18.7748 84.3712 18.6998 84.3528 18.6277C84.3344 18.5556 84.3019 18.4878 84.257 18.4284C84.1859 18.3623 84.1011 18.3127 84.0086 18.2831C83.9161 18.2534 83.8181 18.2444 83.7217 18.2568V17.9167H87.4V18.2598C86.985 18.2826 86.584 18.4176 86.2403 18.6502C85.7431 18.9983 85.2959 19.4123 84.9111 19.8806L82.345 22.8383C81.9468 23.3024 81.6727 23.8588 81.548 24.4562L80.5935 28.9134C80.4528 29.5996 80.4756 30.0926 80.6619 30.3923C80.7569 30.544 80.8921 30.6668 81.0526 30.7471C81.2131 30.8274 81.3927 30.8623 81.5718 30.8478V31.25H75.0062V30.8478C75.4517 30.8512 75.8823 30.6887 76.2135 30.3923C76.5867 29.9789 76.8269 29.4638 76.9033 28.9134L77.5605 25.8522Z" fill="#0077B6"/>
<path d="M89.7143 20.2903C89.88 19.9931 89.9394 19.6485 89.883 19.313C89.8549 19.1468 89.7999 18.9863 89.7203 18.8377C89.6488 18.7027 89.5477 18.5856 89.4244 18.4952C89.2816 18.3989 89.1114 18.3512 88.9392 18.3594V17.9195H92.025C92.6611 17.9195 93.1108 17.887 93.4096 18.0435C93.5626 18.1292 93.6901 18.2539 93.779 18.4048C93.8678 18.5558 93.915 18.7276 93.9156 18.9026L94.9807 29.3456C94.9958 29.7777 95.1243 30.1982 95.3535 30.565C95.4554 30.6823 95.5834 30.7744 95.7272 30.8338C95.871 30.8932 96.0266 30.9185 96.1819 30.9075V31.25H89.4155V30.9075C89.7103 30.9122 89.9962 30.8069 90.2173 30.6123C90.412 30.4135 90.5437 30.1619 90.596 29.8889C90.6348 29.7076 90.6478 29.5217 90.6345 29.3368L90.5398 28.0554H86.6699L86.0309 29.3338C85.99 29.4023 85.9581 29.4757 85.9362 29.5523C85.9096 29.635 85.8859 29.7147 85.8593 29.7915C85.7927 30.0485 85.8167 30.3206 85.9273 30.5621C85.9796 30.6716 86.0645 30.7624 86.1704 30.8221C86.2763 30.8818 86.398 30.9075 86.519 30.8957V31.2382H82.8V30.8957C83.1954 30.8769 83.5711 30.7178 83.8592 30.4469C84.2147 30.1274 84.5146 29.7512 84.7468 29.3338L89.7143 20.2903ZM90.4688 26.9955L90.1078 21.5363H90.0694L87.2143 26.9955H90.4688Z" fill="#0077B6"/>
<path d="M34.2616 32.8083L34.2993 33.25C34.1961 33.1981 34.09 33.1522 33.9814 33.1125C34.0776 33.0125 34.1696 32.9167 34.2616 32.8083Z" fill="#0077B6"/>
<path d="M49.3455 2.5C45.4331 5.50355 42.3741 9.47377 40.4709 14.0182C40.1781 14.6667 39.9293 15.3327 39.6892 16.0105C37.3227 14.0871 34.3529 13.0569 31.3009 13.1007C28.2489 13.1445 25.31 14.2595 23 16.25C30.3286 9.29175 40.1781 4.30529 49.3455 2.5Z" fill="#51CB20"/>
<path d="M64.8182 2.5C68.7294 5.5047 71.7881 9.47459 73.6927 14.0182C73.9855 14.6667 74.2344 15.3327 74.4745 16.0105C76.8409 14.0871 79.8108 13.0569 82.8627 13.1007C85.9147 13.1445 88.8536 14.2595 91.1636 16.25C83.8497 9.29175 73.9972 4.30529 64.8182 2.5Z" fill="#51CB20"/>
<path d="M33.9814 33.1125C34.0776 33.0125 34.1696 32.9125 34.2616 32.8083L34.2993 33.25C34.1961 33.1981 34.09 33.1522 33.9814 33.1125Z" fill="#DD3CC6"/>
<path d="M58.7971 2.14766C58.7971 2.14766 58.7971 2.12701 58.7971 2.11521C58.7971 0.935182 58.0406 0.00295693 57.1031 6.85275e-06C56.1656 -0.00294323 55.4091 0.946982 55.4091 2.11521V2.14766C44.168 7.85311 39.1808 19.9071 40.8927 35.1885C43.4087 33.7962 46.3338 33.3188 49.1654 33.8383C51.997 34.3578 54.5582 35.8419 56.4089 38.0354C56.4924 38.129 56.5949 38.204 56.7097 38.2554C56.8245 38.3068 56.949 38.3333 57.0749 38.3333C57.2008 38.3333 57.3253 38.3068 57.4401 38.2554C57.5549 38.204 57.6574 38.129 57.7409 38.0354C59.5941 35.844 62.1572 34.3632 64.9895 33.8474C67.8217 33.3316 70.7462 33.8132 73.2601 35.2092C75.0016 19.9366 70.0323 7.87081 58.7971 2.14766ZM56.8301 18.6415C56.698 18.7868 56.5916 18.9534 56.5157 19.1342C56.4167 19.3735 56.3402 19.6214 56.2872 19.8747L53.7803 31.2059H53.0979C51.7688 31.2059 51.0657 29.7309 50.6444 28.7043C49.6802 26.3147 48.9445 23.8337 48.096 21.4028C48.0487 21.2255 47.9883 21.052 47.915 20.8836H47.8824L46.1913 28.8665C46.0542 29.3588 46.0359 29.8763 46.1379 30.377C46.2388 30.7015 46.5177 30.8637 46.9775 30.8637V31.2059H43.3462V30.8637C43.5619 30.8759 43.7775 30.8383 43.9762 30.7539C44.1749 30.6695 44.3512 30.5404 44.4914 30.377C44.7878 29.9196 44.983 29.4047 45.0639 28.8665L47.1674 19.3997C47.2046 19.2573 47.2013 19.1074 47.1579 18.9667C47.1144 18.8261 47.0324 18.7002 46.9211 18.6032C46.6984 18.3988 46.4054 18.2869 46.1023 18.2905V17.8981H50.6355C50.7982 17.879 50.962 17.9234 51.0924 18.022C51.1661 18.1004 51.2191 18.1956 51.2467 18.2993L53.9583 25.6745H53.9969L55.1836 19.8747C55.3112 19.2847 55.3112 18.8687 55.1836 18.6415C55.056 18.4144 54.7682 18.2993 54.3232 18.2993V17.8981H57.9368V18.2905C57.711 18.2865 57.4857 18.3113 57.2663 18.3642C57.0989 18.417 56.9485 18.5126 56.8301 18.6415ZM70.7532 31.2059H63.9682V30.8637C64.2638 30.8684 64.5505 30.7632 64.7722 30.5687C64.9672 30.3696 65.1002 30.1186 65.1549 29.8459C65.19 29.6643 65.2019 29.4789 65.1905 29.2943L65.0896 28.0257H61.215L60.5653 29.3002C60.525 29.3699 60.4931 29.4442 60.4704 29.5214C60.4437 29.6011 60.4199 29.6807 60.3932 29.7574C60.3275 30.0141 60.3505 30.2853 60.4585 30.5274C60.5132 30.635 60.5988 30.7241 60.7044 30.7834C60.81 30.8428 60.9309 30.8697 61.0519 30.8608V31.203H57.3345V30.8608C57.731 30.842 58.1077 30.683 58.3966 30.4124C58.7539 30.0938 59.0547 29.7179 59.2866 29.3002L64.2708 20.2641C64.4366 19.967 64.4963 19.6228 64.4399 19.2876C64.4117 19.1216 64.3566 18.9611 64.2767 18.8127C64.2053 18.6776 64.1038 18.5606 63.9801 18.4704C63.8357 18.3744 63.6639 18.3278 63.4905 18.3377V17.8981H66.573C67.2109 17.8981 67.6796 17.8627 67.9792 18.022C68.1309 18.1091 68.2571 18.2342 68.345 18.3848C68.433 18.5354 68.4797 18.7063 68.4806 18.8805L69.5398 29.3031C69.5528 29.7347 69.6808 30.1552 69.9106 30.5215C70.0129 30.6387 70.1412 30.7307 70.2854 30.7901C70.4295 30.8495 70.5856 30.8747 70.7413 30.8637L70.7532 31.2059ZM64.6179 21.512L61.7698 26.9667H65.0333L64.6683 21.512H64.6179Z" fill="#51CB20"/>
</svg>
