<svg width="20" height="19" viewBox="0 0 20 19" fill="none" xmlns="http://www.w3.org/2000/svg">
<g clip-path="url(#clip0_196_2145)">
<path d="M15.7201 11.7698C15.3311 11.3648 14.8619 11.1483 14.3647 11.1483C13.8714 11.1483 13.3982 11.3608 12.9932 11.7658L11.726 13.029C11.6218 12.9728 11.5175 12.9207 11.4173 12.8686C11.2729 12.7964 11.1366 12.7282 11.0203 12.656C9.8333 11.9022 8.75459 10.9197 7.71999 9.64849C7.21873 9.0149 6.88189 8.48156 6.63727 7.9402C6.96609 7.63944 7.27085 7.32665 7.56761 7.0259C7.67988 6.91361 7.79217 6.79732 7.90446 6.68504C8.74656 5.84292 8.74656 4.75218 7.90446 3.91007L6.80969 2.81531C6.68538 2.691 6.55707 2.56268 6.43677 2.43436C6.19616 2.18573 5.94353 1.92909 5.68287 1.68848C5.29389 1.30351 4.82871 1.099 4.33948 1.099C3.85026 1.099 3.37707 1.30351 2.97606 1.68848C2.97205 1.69249 2.97205 1.69249 2.96804 1.6965L1.60461 3.07196C1.09132 3.58525 0.798588 4.21082 0.734427 4.93665C0.638185 6.10759 0.983052 7.19833 1.24772 7.91213C1.89736 9.66453 2.86778 11.2886 4.31542 13.029C6.07185 15.1263 8.18515 16.7824 10.5992 17.9494C11.5215 18.3865 12.7526 18.9038 14.1281 18.992C14.2123 18.996 14.3005 19 14.3807 19C15.307 19 16.085 18.6672 16.6945 18.0055C16.6985 17.9975 16.7066 17.9935 16.7106 17.9854C16.9191 17.7328 17.1597 17.5042 17.4123 17.2596C17.5848 17.0952 17.7612 16.9228 17.9336 16.7423C18.3306 16.3293 18.5392 15.8481 18.5392 15.3548C18.5392 14.8576 18.3266 14.3804 17.9216 13.9794L15.7201 11.7698ZM17.1557 15.9924C17.1517 15.9924 17.1517 15.9964 17.1557 15.9924C16.9993 16.1609 16.8389 16.3132 16.6665 16.4817C16.4058 16.7303 16.1411 16.9909 15.8925 17.2837C15.4875 17.7168 15.0103 17.9213 14.3847 17.9213C14.3246 17.9213 14.2604 17.9213 14.2003 17.9173C13.0093 17.8411 11.9025 17.3759 11.0724 16.9789C8.8027 15.8802 6.80969 14.3202 5.15353 12.3433C3.78609 10.6951 2.87181 9.17129 2.26628 7.53518C1.89335 6.53667 1.75699 5.75871 1.81714 5.02487C1.85724 4.55569 2.03771 4.16671 2.37055 3.83387L3.73797 2.46644C3.93447 2.28197 4.143 2.18172 4.34752 2.18172C4.60015 2.18172 4.80465 2.3341 4.93298 2.46243C4.937 2.46644 4.941 2.47045 4.94501 2.47446C5.18962 2.70303 5.42221 2.93963 5.66682 3.19226C5.79113 3.32058 5.91946 3.44891 6.04778 3.58124L7.14254 4.67599C7.56761 5.10106 7.56761 5.49405 7.14254 5.91912C7.02625 6.03541 6.91397 6.1517 6.79767 6.26398C6.46082 6.60885 6.14001 6.92966 5.79113 7.24244C5.78311 7.25046 5.77509 7.25447 5.77108 7.26249C5.42622 7.60736 5.49039 7.94421 5.56256 8.17278C5.56658 8.18481 5.57058 8.19684 5.57459 8.20887C5.85931 8.8986 6.26031 9.54824 6.86985 10.3222L6.87387 10.3262C7.98065 11.6896 9.14758 12.7523 10.4348 13.5663C10.5992 13.6706 10.7676 13.7548 10.928 13.835C11.0724 13.9072 11.2087 13.9754 11.325 14.0475C11.3411 14.0556 11.3571 14.0676 11.3731 14.0756C11.5095 14.1438 11.6378 14.1759 11.7701 14.1759C12.103 14.1759 12.3115 13.9673 12.3797 13.8992L13.7511 12.5277C13.8875 12.3914 14.104 12.227 14.3566 12.227C14.6053 12.227 14.8098 12.3834 14.9341 12.5197C14.9381 12.5237 14.9381 12.5237 14.9421 12.5277L17.1517 14.7373C17.5647 15.1463 17.5647 15.5674 17.1557 15.9924Z" fill="#51CB20"/>
<path d="M10.9721 4.51961C12.0228 4.69605 12.9772 5.1933 13.7391 5.95522C14.501 6.71713 14.9942 7.67153 15.1747 8.72217C15.2188 8.98684 15.4474 9.1713 15.708 9.1713C15.7401 9.1713 15.7682 9.16729 15.8003 9.16328C16.097 9.11516 16.2935 8.83445 16.2454 8.53771C16.0288 7.26651 15.4273 6.1076 14.509 5.18929C13.5907 4.27098 12.4318 3.66947 11.1606 3.45293C10.8639 3.40481 10.5872 3.6013 10.5351 3.89404C10.4829 4.18677 10.6754 4.47149 10.9721 4.51961Z" fill="#51CB20"/>
<path d="M19.682 8.3813C19.3251 6.28804 18.3387 4.38325 16.8228 2.86744C15.307 1.35163 13.4022 0.365151 11.309 0.00825335C11.0163 -0.0438777 10.7396 0.156626 10.6874 0.449362C10.6393 0.746108 10.8358 1.0228 11.1325 1.07493C13.0012 1.39173 14.7055 2.27796 16.0609 3.62936C17.4163 4.98476 18.2986 6.68905 18.6154 8.55775C18.6595 8.82241 18.888 9.00688 19.1487 9.00688C19.1808 9.00688 19.2088 9.00286 19.2409 8.99885C19.5337 8.95474 19.7342 8.67404 19.682 8.3813Z" fill="#51CB20"/>
</g>
<defs>
<clipPath id="clip0_196_2145">
<rect width="19" height="19" fill="white" transform="translate(0.703125)"/>
</clipPath>
</defs>
</svg>
